<?xml version="1.0" encoding="utf-8"?>
<!-- Generator: Adobe Illustrator 19.1.0, SVG Export Plug-In . SVG Version: 6.00 Build 0)  -->
<svg version="1.1" id="Layer_1" xmlns="http://www.w3.org/2000/svg" xmlns:xlink="http://www.w3.org/1999/xlink" x="0px" y="0px"
	 viewBox="-467 346 289 102" style="enable-background:new -467 346 289 102;" xml:space="preserve">
<style type="text/css">
	.st0{fill:#126490;}
	.st1{fill:#F6921E;}
	.st2{fill:#FCBE67;}
</style>
<g>
	<path class="st0" d="M-457.1,361h18.3v6.7h-12.4l-1.9,14.5h0.9c2.3,0,4.3,0.4,6,1.1c1.8,0.7,3.2,1.8,4.4,3.2
		c1.2,1.4,2.1,3.1,2.7,5.2c0.6,2,0.9,4.4,0.9,7c0,6.5-1.4,11.6-4.2,15.3c-2.8,3.7-6.7,5.5-11.7,5.5c-2.8,0-5.9-0.8-9.1-2.4l1.9-6.9
		c2.7,1.4,4.9,2.1,6.7,2.1c2.5,0,4.6-1.1,6-3.4c1.5-2.3,2.2-5.4,2.2-9.3c0-7.4-3.2-11.1-9.5-11.1c-1.6,0-3.1,0.2-4.7,0.7L-457.1,361
		z"/>
	<path class="st0" d="M-423.2,376.4h-7.4v-1.5c0-2.6,0.2-4.8,0.7-6.6c0.4-1.8,1.1-3.4,2.1-4.6c0.9-1.2,2.1-2.1,3.6-2.6
		s3.2-0.8,5.2-0.8c4.2,0,7.3,1.2,9.3,3.6c1.9,2.4,2.9,6.2,2.9,11.4c0,4.3-0.4,7.4-1.3,9.3c-0.9,1.9-2.6,3.4-5,4.4
		c2.7,0.9,4.5,2.4,5.6,4.3c1,1.9,1.5,5,1.5,9.2c0,5.8-1.1,10.1-3.3,12.8c-2.2,2.7-5.6,4.1-10.2,4.1c-7.9,0-11.9-4.5-11.9-13.6V405
		v-0.4c0-0.3,0-0.4,0-0.5h7.3c0,0.4,0,0.8-0.1,1.1c0,0.3,0,0.6,0,0.8c0,2,0.4,3.5,1.3,4.7c0.9,1.2,2,1.8,3.5,1.8
		c1,0,1.8-0.2,2.5-0.6c0.7-0.4,1.2-1,1.7-1.9c0.4-0.9,0.7-2,0.9-3.3c0.2-1.4,0.3-3,0.3-5c0-3.5-0.5-6-1.6-7.6
		c-1.1-1.5-2.8-2.3-5.3-2.3c-0.3,0-0.6,0-0.9,0.1c-0.3,0-0.7,0.1-1.1,0.1v-6.7h1.1c3,0,5.1-0.6,6.1-1.9c1.1-1.3,1.6-3.7,1.6-7.4
		c0-6-1.5-9-4.5-9c-3,0-4.5,2.6-4.5,7.7L-423.2,376.4z"/>
	<path class="st0" d="M-374.2,390.2c0,10.4-1,17.8-3,22.4c-2,4.4-5.3,6.6-10,6.6c-4.7,0-8.1-2.2-10.1-6.7c-2-4.3-2.9-11.9-2.9-22.8
		c0-10.9,1-18.5,2.9-22.8c2-4.5,5.3-6.7,10-6.7c4.4,0,7.6,2,9.7,5.9C-375.4,370.3-374.2,378.3-374.2,390.2z M-382.2,390.2
		c0-8.7-0.4-14.7-1.1-18.1c-0.7-3.3-2.1-5-4.1-5c-2,0-3.3,1.6-4.1,4.9c-0.7,3.3-1.1,9.2-1.1,17.7c0,8.5,0.4,14.5,1.1,17.8
		c0.8,3.3,2.1,4.9,4.1,4.9c1.9,0,3.3-1.6,4-4.9C-382.5,404.5-382.2,398.7-382.2,390.2z"/>
	<path class="st0" d="M-304.1,380h7.1v4.4c2-3.4,4.7-5.1,7.9-5.1c3.1,0,5.4,1.2,6.7,3.7c0.7,1.4,1.1,4.1,1.1,8.1v27.5h-7.1l0-25.8
		c0-2.6-0.3-4.5-0.9-5.6c-0.6-1.1-1.7-1.6-3.2-1.6c-0.8,0-1.5,0.1-2.1,0.4c-0.6,0.3-1,0.7-1.4,1.4c-0.3,0.6-0.6,1.5-0.8,2.5
		c-0.2,1-0.2,2.3-0.2,3.8v25h-7.1V380z"/>
	<path class="st0" d="M-258.2,380h7.2v39.9c0,4.8-0.5,8.1-1.4,9.9c-1.7,3.4-5.2,5.1-10.5,5.1c-3.5,0-6.2-1-8.1-2.9c-2-2-3-4.7-3-8
		l0-1.2h6.9c0,4.1,1.5,6.2,4.6,6.2c1.7,0,2.8-0.5,3.4-1.6c0.6-1,0.9-3,0.9-5.9v-7.4c-1.5,3.5-3.8,5.3-7,5.3c-3.2,0-5.6-1.6-7.1-4.7
		c-1.5-3.1-2.3-8-2.3-14.7c0-7.1,0.7-12.3,2.2-15.6c1.4-3.2,3.8-4.8,7.2-4.8c1.6,0,2.9,0.4,3.9,1.2c1,0.8,2,2.1,3.1,4.1V380z
		 M-258.1,399.6c0-9.2-1.6-13.8-4.8-13.8c-1.5,0-2.6,1-3.3,3.1c-0.7,2.1-1,5.4-1,10c0,4.9,0.4,8.4,1.1,10.7c0.7,2.1,2,3.2,3.7,3.2
		c1.6,0,2.8-0.9,3.4-2.8C-258.4,408.2-258.1,404.7-258.1,399.6z"/>
	<path class="st0" d="M-228,405.6h6.6c-0.5,9.1-4.3,13.6-11.2,13.6c-2.1,0-3.8-0.4-5.3-1.2c-1.5-0.8-2.7-2-3.7-3.6
		c-1-1.6-1.7-3.7-2.1-6.2c-0.5-2.5-0.7-5.4-0.7-8.9c0-6.8,1-11.9,2.9-15.2s4.8-4.9,8.8-4.9c7.7,0,11.6,6.8,11.6,20.5v0.9h-16.3
		c0,8.3,1.6,12.4,4.9,12.4C-229.5,413.1-228,410.6-228,405.6z M-228.4,395.5c-0.3-4.1-0.8-6.7-1.4-8c-0.6-1.4-1.7-2.1-3.1-2.1
		c-1.5,0-2.5,0.7-3.1,2.1c-0.6,1.3-1.1,3.9-1.4,8H-228.4z"/>
	<path class="st0" d="M-214.8,355.2h7.1v63.4h-7.1V355.2z"/>
	<path class="st0" d="M-184.6,380.8v6.7c-1.7-1.3-3.6-1.9-5.5-1.9c-0.6,0-1.2,0.1-1.8,0.3c-0.5,0.2-1,0.5-1.4,0.9s-0.7,0.8-1,1.4
		c-0.2,0.5-0.4,1.1-0.4,1.7c0,1.8,1.7,4,5,6.6c1.3,1,2.5,2,3.4,2.9c0.9,0.9,1.6,1.7,2.1,2.5c1,1.6,1.5,3.5,1.5,5.9
		c0,3.5-1,6.2-3,8.3c-2,2.1-4.7,3.1-8,3.1c-2.1,0-4.2-0.6-6.3-1.8v-6.9c2.1,1.5,4,2.3,5.9,2.3c3.3,0,4.9-1.6,4.9-4.8
		c0-1.2-0.3-2.2-0.9-3.1c-0.3-0.4-0.7-0.9-1.3-1.5c-0.6-0.6-1.3-1.2-2.2-1.9c-3-2.3-5.1-4.3-6.1-5.9c-1-1.6-1.6-3.6-1.6-5.9
		c0-3.1,1-5.7,2.9-7.6c1.9-2,4.5-2.9,7.6-2.9C-188.8,379.1-186.7,379.6-184.6,380.8z"/>
</g>
<g>
	<polygon class="st1" points="-337.1,384 -332,372.9 -338.8,358.5 -367.6,418.5 -357,418.5 -339,379.8 	"/>
	<polygon class="st2" points="-330.6,375.7 -335.7,386.8 -321.1,418.6 -310.5,418.6 	"/>
</g>
<g>
	<path class="st0" d="M-236.7,428.4h2.1v11.4h-2.3l-4.5-7.8v7.8h-2.1v-11.4h2.3l4.5,7.8V428.4z"/>
	<path class="st0" d="M-228.6,440c-1.4,0-2.5-0.4-3.1-1.2c-0.6-0.8-0.9-2-0.9-3.5c0-3.1,1.3-4.7,3.9-4.7c1.5,0,2.5,0.5,3.1,1.4
		c0.5,0.8,0.7,1.8,0.7,3.1v0.6h-5.7c0,1,0.2,1.7,0.5,2.1c0.3,0.4,0.8,0.6,1.5,0.6c1.2,0,1.8-0.4,1.8-1.3l1.7,0.1
		C-225.1,439.1-226.3,440-228.6,440z M-227.4,432.7c-0.3-0.3-0.7-0.5-1.3-0.5c-0.6,0-1,0.2-1.3,0.5c-0.3,0.3-0.5,0.9-0.5,1.6h3.6
		C-226.9,433.6-227.1,433.1-227.4,432.7z"/>
	<path class="st0" d="M-224.2,432.2v-1.4h1.4v-1.6l2.1-0.5v2.2h1.7v1.4h-1.7v5c0,0.4,0.1,0.8,0.2,1c0.1,0.2,0.3,0.3,0.6,0.3
		c0.3,0,0.5,0,0.8-0.1l0.3,1.3c-0.6,0.2-1.2,0.3-1.6,0.3c-0.5,0-0.9-0.1-1.2-0.2c-0.3-0.1-0.5-0.2-0.7-0.4c-0.1-0.2-0.3-0.4-0.3-0.6
		c-0.1-0.4-0.2-0.8-0.2-1.4v-5.3H-224.2z"/>
	<path class="st0" d="M-214.3,439.8h-2l-2.3-8.9h2.1l1.3,6.1l1.5-5.3h1.8l1.5,5.3l1.3-6.1h2.1l-2.3,8.9h-2l-1.5-5.4L-214.3,439.8z"
		/>
	<path class="st0" d="M-198.2,435.3c0,3.1-1.4,4.7-4.1,4.7s-4.1-1.6-4.1-4.7c0-3.1,1.4-4.7,4.1-4.7S-198.2,432.2-198.2,435.3z
		 M-203.8,437.6c0.3,0.5,0.8,0.8,1.6,0.8s1.3-0.3,1.6-0.8c0.3-0.5,0.4-1.3,0.4-2.3s-0.1-1.8-0.4-2.3c-0.3-0.5-0.8-0.8-1.6-0.8
		s-1.3,0.3-1.6,0.8c-0.3,0.5-0.4,1.3-0.4,2.3S-204.1,437.1-203.8,437.6z"/>
	<path class="st0" d="M-194,439.8h-2.1v-8.9h1l0.8,1.4c0.7-1,1.7-1.6,3-1.6v1.8c-1.2,0-2.2,0.4-2.8,1.1V439.8z"/>
	<path class="st0" d="M-187.7,439.8h-2.1V428l2.1-0.2v6.4h0.6l2.4-3.4h2.3l-3,4.3l3.3,4.7h-2.3l-2.8-4.1h-0.4V439.8z"/>
</g>
</svg>
