<?xml version="1.0" encoding="utf-8"?>
<!-- Generator: Adobe Illustrator 19.1.0, SVG Export Plug-In . SVG Version: 6.00 Build 0)  -->
<svg version="1.1" id="Layer_1" xmlns="http://www.w3.org/2000/svg" xmlns:xlink="http://www.w3.org/1999/xlink" x="0px" y="0px"
	 viewBox="-700.5 247 895 300" style="enable-background:new -700.5 247 895 300;" xml:space="preserve">
<style type="text/css">
	.st0{fill:#126491;}
	.st1{fill:#F7941E;}
	.st2{fill:#FDBE68;}
	.st3{fill:#414042;}
	.st4{fill:#FFFFFF;}
	.st5{fill:#214393;}
	.st6{fill:#73A0D5;}
	.st7{fill:#467FC1;}
	.st8{fill:#26B9EC;}
	.st9{fill:#23AAE2;}
	.st10{fill:#1B96D3;}
</style>
<path class="st0" d="M-596.8,252.8v24.4c-6.9-3.3-13-5.1-17.5-5.1c-6.3,0-12.1,1.5-16.6,4.8c-4.5,3.3-8.4,8.1-11.5,14.8
	c-3,6.6-5.1,15.1-6.6,25.3s-2.1,22.3-2.1,36.2c0,50.1,12.7,74.8,38.3,74.8c4.5,0,10-1.5,16-4.2v25c-6.6,3.6-13.9,5.4-22,5.4
	c-41,0-61.5-33.5-61.5-100.4c0-36.2,5.1-63,15.1-80.5c10-17.8,25-26.5,45.8-26.5C-611.9,246.8-604.4,248.9-596.8,252.8z"/>
<path class="st0" d="M-575.4,247.4h25v84.4c7.2-11.8,16.3-17.8,27.7-17.8c10.9,0,19,4.2,23.5,13c2.7,4.8,3.9,14.5,3.9,28.3v96.5h-25
	v-90.5c0-9-1.2-15.7-3.3-19.6s-6-5.7-11.2-5.7c-3,0-5.4,0.6-7.2,1.5c-2.1,0.9-3.6,2.7-4.8,4.8c-1.2,2.1-2.1,5.1-2.7,8.7
	c-0.6,3.6-0.9,7.8-0.9,13.3v87.5h-25V247.4z"/>
<path class="st0" d="M-455.1,258.5c4.5,0,8.4,1.8,11.8,4.8c3.3,3.3,5.1,7.2,5.1,12.1c0,4.8-1.8,8.7-5.1,12.1
	c-3.3,3.3-7.2,4.8-12.1,4.8s-8.7-1.5-12.1-4.8c-3.3-3.3-4.8-7.2-4.8-12.1c0-4.5,1.5-8.4,5.1-11.8
	C-463.8,260.3-459.6,258.5-455.1,258.5z M-466.8,316.1h25v135.7h-25V316.1z"/>
<path class="st0" d="M-358.3,318.8v25.6c-3.6-4.2-7.5-6.3-12.7-6.3c-13.9,0-20.8,15.1-20.8,44.9c0,31.7,6.9,47.7,20.5,47.7
	c3.9,0,8.1-1.8,12.7-5.1v23.5c-6.6,3.6-13.3,5.1-20.2,5.1c-26.8,0-40.4-22.9-40.4-68.8c0-24.4,3.3-42.2,10-54
	c6.6-11.5,16.9-17.5,30.8-17.5C-371.2,314-364.6,315.5-358.3,318.8z"/>
<path class="st0" d="M-256.9,385.2c0,45.8-14.2,68.8-42.5,68.8c-28.3,0-42.5-23.2-42.5-69.7c0-46.7,14.2-70,42.5-70
	c7.2,0,13.6,1.5,19,4.2c5.4,2.7,9.7,7.2,13.3,13c3.6,5.7,6,13.3,7.8,22C-257.8,362.3-256.9,372.8-256.9,385.2z M-282.9,384.3
	c0-17.8-1.2-30.2-3.6-37.1c-2.4-6.9-6.6-10.6-12.7-10.6c-6,0-10.3,3.6-12.7,10.6c-2.4,6.9-3.6,19.3-3.6,36.5s1.2,29.6,3.6,36.5
	c2.4,6.9,6.6,10.6,12.7,10.6c6,0,10-3.3,12.4-10.3C-284.1,413.8-282.9,401.8-282.9,384.3z"/>
<path class="st0" d="M-181.2,318.8v23.5c-6-4.5-12.7-6.9-19.3-6.9c-2.4,0-4.2,0.3-6.3,1.2c-1.8,0.9-3.6,1.8-5.1,3.3
	c-1.5,1.2-2.7,3-3.3,4.8c-0.9,1.8-1.2,3.9-1.2,6c0,6.3,5.7,14.2,17.5,22.9c4.8,3.6,8.7,6.9,11.8,10.3c3,3,5.4,6,7.2,8.7
	c3.3,5.4,5.1,12.4,5.1,20.8c0,12.1-3.6,21.7-10.6,29.3c-6.9,7.2-16.3,10.9-28,10.9c-7.2,0-14.5-2.1-22-6.3v-24.4
	c7.2,5.4,14.2,8.1,20.5,8.1c11.5,0,17.2-5.7,17.2-16.9c0-4.2-0.9-7.8-3-10.9c-0.9-1.5-2.4-3.3-4.5-5.1c-2.1-2.1-4.5-4.2-7.8-6.6
	c-10.6-8.1-17.8-15.1-21.4-20.8c-3.6-5.7-5.4-12.7-5.4-20.8c0-10.9,3.3-19.9,10-26.8c6.9-6.9,15.7-10.3,26.5-10.3
	C-196,313.1-188.5,314.9-181.2,318.8z"/>
<path class="st0" d="M-150.5,287.2h25v29h13.6V336h-13.6v115.8h-25V336h-13.9v-19.9h13.9V287.2z"/>
<path class="st0" d="M56.1,316.1h25V333c4.2-7.2,8.4-12.1,12.7-15.1c4.2-3,9.7-4.5,16.6-5.1v26.2c-1.8-0.3-3.3-0.3-4.5-0.3
	c-9,0-15.4,2.4-19.3,6.9c-3.6,4.5-5.7,12.4-5.7,23.8v82.3H56.1L56.1,316.1L56.1,316.1z"/>
<path class="st0" d="M136.4,287.2h25v29H175V336h-13.6v115.8h-25V336h-13.9v-19.9h13.9V287.2z"/>
<g>
	<polygon class="st1" points="-29.5,357.5 -16,327 -34.3,288.1 -112.8,451.8 -83.8,451.8 -34.6,346.3 	"/>
	<polygon class="st2" points="-11.7,335.1 -25.6,365.3 14.2,451.8 43.2,451.8 	"/>
</g>
<rect x="-681.3" y="503.1" class="st3" width="856.5" height="43.1"/>
<g>
	<path class="st4" d="M-561.5,519.1h2.4l4.8,14.8h-1.8l-1.5-4.5h-5.7l-1.5,4.5h-1.8L-561.5,519.1z M-560.3,520.6l-2.4,7.2h4.8
		L-560.3,520.6z"/>
	<path class="st4" d="M-532.3,526.3c0-3,0.6-5.4,1.8-6.3c0.9-0.9,2.1-1.2,3.9-1.2c2.1,0,3.9,0.6,4.5,2.1c0.3,0.6,0.6,1.5,0.9,2.4
		c0.3,0.9,0.3,2.1,0.3,3.3c0,2.1-0.3,3.9-0.9,5.1c-0.6,1.2-1.5,2.1-2.7,2.4l3.3,1.5l-0.6,1.5l-5.1-2.4c-2.1,0-3.3-0.9-3.9-2.1
		C-531.4,531.5-532.3,528.8-532.3,526.3z M-530.5,526.3c0,2.1,0.3,3.6,0.9,4.8c0.6,0.9,1.5,1.5,3,1.5s2.4-0.6,3-1.5s0.9-2.7,0.9-4.8
		s-0.3-3.6-0.9-4.8c-0.6-1.2-1.5-1.5-3-1.5s-2.4,0.6-3,1.5C-530.2,522.7-530.5,524.2-530.5,526.3z"/>
	<path class="st4" d="M-506.3,534.2c-1.2,0-2.1-0.3-2.7-0.9c-0.6-0.6-0.9-1.5-0.9-2.7v-8.4h2.1v8.1c0,0.9,0.3,1.5,0.6,1.8
		c0.3,0.3,0.9,0.6,1.5,0.6c1.2,0,2.4-0.6,3.6-2.1v-8.4h1.8v11.8h-1.2l-0.6-1.8C-503.3,533.3-504.8,534.2-506.3,534.2z"/>
	<path class="st4" d="M-479.5,527.8c0,3.9-1.8,6-5.1,6s-5.1-2.1-5.1-6c0-3.9,1.8-6,5.1-6S-479.5,523.9-479.5,527.8z M-486.4,532.4
		c0.6,0.3,0.9,0.3,1.8,0.3c0.6,0,1.2,0,1.8-0.3c0.6-0.3,0.9-0.6,0.9-1.2c0-0.6,0.3-0.9,0.6-1.5c0-0.6,0-1.2,0-1.8s0-1.2,0-1.8
		c0-0.6-0.3-0.9-0.6-1.5s-0.6-0.9-0.9-1.2c-0.6-0.3-0.9-0.3-1.8-0.3c-0.6,0-1.2,0-1.8,0.3c-0.6,0.3-0.9,0.6-0.9,1.2
		c-0.3,0.6-0.3,0.9-0.6,1.5c-0.3,0.6,0,1.2,0,1.8s0,1.2,0,1.8s0.3,0.9,0.6,1.5C-487,531.8-486.7,532.1-486.4,532.4z"/>
	<path class="st4" d="M-467.1,533.9h-1.8v-11.8h0.9l0.6,2.1c0.9-1.5,2.4-2.4,4.2-2.4v1.5c-1.8,0-3.3,0.9-4.2,2.4v8.1L-467.1,533.9
		L-467.1,533.9z"/>
	<path class="st4" d="M-449.6,534.2c-1.2,0-2.1-0.3-2.7-0.9c-0.6-0.6-0.9-1.5-0.9-2.7v-8.4h1.8v8.1c0,0.9,0.3,1.5,0.6,1.8
		c0.3,0.3,0.9,0.6,1.5,0.6c1.2,0,2.4-0.6,3.6-2.1v-8.4h1.8v11.8h-1.2l-0.6-1.8C-446.9,533.3-448.1,534.2-449.6,534.2z"/>
	<path class="st4" d="M-427,521.8c1.5,0,2.7,0.6,3.3,1.5c0.6-0.3,1.2-0.9,1.8-1.2c0.6-0.3,1.5-0.6,2.1-0.6c2.4,0,3.6,1.2,3.6,3.6
		v8.1h-1.8v-8.1c0-0.9-0.3-1.2-0.6-1.8c-0.3-0.3-0.9-0.6-1.5-0.6c-1.2,0-2.4,0.6-3.3,1.5c0,0.3,0,0.6,0,0.9v8.1h-1.8v-8.1
		c0-0.9-0.3-1.2-0.6-1.8c-0.3-0.3-0.9-0.6-1.5-0.6c-1.2,0-2.4,0.3-3.3,1.2v9.3h-1.8v-11.8h1.2l0.3,1.2
		C-429.7,522.4-428.5,521.8-427,521.8z"/>
	<path class="st4" d="M-394.1,520.3v-1.5h9.7v1.5h-3.9v13.3h-1.8v-13.3H-394.1z"/>
	<path class="st4" d="M-371.5,534.2c-1.8,0-3-0.6-3.9-1.5s-1.2-2.4-1.2-4.5c0-3.9,1.5-6,4.8-6s4.8,1.8,4.8,5.7v0.3h-7.8
		c0,1.5,0.3,2.7,0.6,3.3s1.2,0.9,2.4,0.9c1.8,0,3-0.9,3-2.4h1.5C-367,533-368.5,534.2-371.5,534.2z M-369.1,524.2
		c-0.3-0.6-1.2-0.9-2.1-0.9c-0.9,0-1.8,0.3-2.4,0.9c-0.6,0.6-0.6,1.5-0.9,2.7h6C-368.5,525.7-368.8,524.8-369.1,524.2z"/>
	<path class="st4" d="M-354.9,527.8c0,0.6,0,1.2,0,1.8s0.3,0.9,0.3,1.5c0.3,0.9,1.2,1.5,2.4,1.5c0.9,0,1.8-0.3,2.1-0.6
		c0.3-0.3,0.6-0.9,0.6-1.8h1.5c0,1.2-0.6,2.1-1.2,2.7c-0.6,0.6-1.8,0.9-3.3,0.9c-2.1,0-3.6-0.9-4.2-2.7c-0.3-0.9-0.6-2.1-0.6-3
		s0-2.1,0.3-2.7c0.3-0.6,0.3-1.2,0.6-1.8c0.6-1.2,2.1-1.8,3.9-1.8c1.5,0,2.7,0.3,3.3,0.9c0.6,0.6,0.9,1.5,1.2,2.7l-1.5,0.3
		c0-0.9-0.3-1.5-0.6-1.8c-0.3-0.3-1.2-0.6-2.1-0.6c-1.2,0-2.1,0.6-2.4,1.5C-354.9,525.4-354.9,526.6-354.9,527.8z"/>
	<path class="st4" d="M-335.3,523.3c1.2-0.9,2.7-1.5,3.9-1.5s2.1,0.3,2.7,0.9c0.6,0.6,0.9,1.5,0.9,2.7v8.1h-1.8v-8.1
		c0-0.9-0.3-1.5-0.6-1.8c-0.3-0.3-0.9-0.6-1.5-0.6c-1.2,0-2.4,0.6-3.6,1.5v9h-1.8v-15.4l1.8-0.3L-335.3,523.3L-335.3,523.3z"/>
	<path class="st4" d="M-315.1,523.3c1.5-0.9,2.7-1.5,3.9-1.5c1.2,0,2.4,0.3,2.7,0.9c0.3,0.6,0.9,1.5,0.9,2.7v8.1h-1.8v-8.1
		c0-0.9-0.3-1.5-0.6-1.8c-0.3-0.3-0.9-0.6-1.5-0.6c-1.2,0-2.4,0.6-3.6,1.5v9h-1.8v-11.8h0.9L-315.1,523.3z"/>
	<path class="st4" d="M-286.8,527.8c0,3.9-1.8,6-5.1,6s-5.1-2.1-5.1-6c0-3.9,1.8-6,5.1-6C-288.3,521.8-286.8,523.9-286.8,527.8z
		 M-293.4,532.4c0.6,0.3,0.9,0.3,1.8,0.3c0.6,0,1.2,0,1.8-0.3c0.6-0.3,0.9-0.6,0.9-1.2c0-0.6,0.3-0.9,0.6-1.5c0-0.6,0-1.2,0-1.8
		s0-1.2,0-1.8c0-0.6-0.3-0.9-0.6-1.5s-0.6-0.9-0.9-1.2c-0.6-0.3-0.9-0.3-1.8-0.3c-0.6,0-1.2,0-1.8,0.3c-0.6,0.3-0.9,0.6-0.9,1.2
		c-0.3,0.6-0.3,0.9-0.6,1.5c-0.3,0.6,0,1.2,0,1.8s0,1.2,0,1.8s0.3,0.9,0.6,1.5C-294.3,531.8-294,532.1-293.4,532.4z"/>
	<path class="st4" d="M-274.4,533.9h-1.8v-15.4l1.8-0.3V533.9z"/>
	<path class="st4" d="M-253.6,527.8c0,3.9-1.8,6-5.1,6c-3.3,0-5.1-2.1-5.1-6c0-3.9,1.8-6,5.1-6
		C-255.1,521.8-253.6,523.9-253.6,527.8z M-260.2,532.4c0.6,0.3,0.9,0.3,1.8,0.3c0.6,0,1.2,0,1.8-0.3c0.6-0.3,0.9-0.6,0.9-1.2
		c0-0.6,0.3-0.9,0.6-1.5c0-0.6,0-1.2,0-1.8s0-1.2,0-1.8c0-0.6-0.3-0.9-0.6-1.5c-0.3-0.6-0.6-0.9-0.9-1.2c-0.6-0.3-0.9-0.3-1.8-0.3
		c-0.6,0-1.2,0-1.8,0.3c-0.6,0.3-0.9,0.6-0.9,1.2c-0.3,0.6-0.3,0.9-0.6,1.5c-0.3,0.6,0,1.2,0,1.8s0,1.2,0,1.8s0.3,0.9,0.6,1.5
		C-261.1,531.8-260.8,532.1-260.2,532.4z"/>
	<path class="st4" d="M-236.7,529.7c-0.6,0.3-1.2,0.3-2.1,0.3c-0.9,0-1.5,0-2.1-0.3l-0.9,0.9c-0.3,0.3-0.6,0.6-0.6,0.9
		c0,0.6,0.3,0.6,0.9,0.6h4.5c0.9,0,1.8,0.3,2.4,0.9c0.6,0.6,0.9,1.2,0.9,1.8s0,1.5-0.3,1.8c-0.3,0.6-0.6,0.9-1.2,0.9
		c-0.9,0.3-2.1,0.6-3.6,0.6c-1.5,0-2.7-0.3-3.6-0.6c-0.9-0.3-1.2-1.2-1.2-2.1c0-0.9,0.3-1.8,1.2-2.4c-0.9-0.3-1.2-0.9-1.2-1.8
		c0-0.6,0.3-1.2,0.9-1.8l0.9-0.9c-0.6-0.6-1.2-1.8-1.2-3c0-1.2,0.3-2.1,0.9-2.7c0.3-0.3,0.6-0.6,1.2-0.9c0.6-0.3,1.2-0.3,2.1-0.3
		c0.9,0,1.5,0,2.1,0.3h3v1.2h-1.5c0.6,0.6,0.9,1.5,0.9,2.7c0,1.2-0.3,2.1-0.9,2.7C-235.8,529.4-236.1,529.7-236.7,529.7z
		 M-242.4,535.4c0,0.6,0.3,1.2,0.9,1.2c0.6,0.3,1.5,0.3,2.7,0.3c1.2,0,2.1,0,2.7-0.3c0.6-0.3,0.9-0.6,0.9-1.5c0-0.6-0.3-0.9-0.6-1.2
		c-0.3-0.3-0.9-0.3-1.2-0.3h-3.9C-242.1,534.2-242.4,534.8-242.4,535.4z M-238.8,523c-1.8,0-2.7,0.9-2.7,3c0,2.1,0.9,3,2.7,3
		c1.8,0,2.7-0.9,2.7-3C-236.1,523.9-237.3,523-238.8,523z"/>
	<path class="st4" d="M-222.8,520.3c-0.6,0-0.9-0.3-0.9-1.2c0-0.6,0.3-1.2,0.9-1.2s1.2,0.3,1.2,1.2
		C-221.6,519.7-221.9,520.3-222.8,520.3z M-223.4,522.1h1.8v11.8h-1.8V522.1z"/>
	<path class="st4" d="M-206.3,534.2c-1.8,0-3-0.6-3.9-1.5c-0.9-0.9-1.2-2.4-1.2-4.5c0-3.9,1.5-6,4.8-6c3.3,0,4.8,1.8,4.8,5.7v0.3
		h-7.8c0,1.5,0.3,2.7,0.6,3.3c0.6,0.6,1.2,0.9,2.4,0.9c1.8,0,3-0.9,3-2.4h1.5C-202,533-203.5,534.2-206.3,534.2z M-204.1,524.2
		c-0.3-0.6-1.2-0.9-2.1-0.9c-0.9,0-1.8,0.3-2.4,0.9c-0.6,0.6-0.6,1.5-0.9,2.7h6C-203.2,525.7-203.5,524.8-204.1,524.2z"/>
	<path class="st4" d="M-183.9,528.5c0.6,0.6,0.9,1.2,0.9,2.1c0,0.9-0.3,1.8-1.2,2.4c-0.6,0.6-1.8,0.9-3.3,0.9s-2.4-0.3-3-0.9
		c-0.6-0.6-0.9-1.2-1.2-2.4l1.5-0.3c0.3,1.5,1.2,2.1,2.7,2.1c1.8,0,2.7-0.6,2.7-1.8c0-0.6-0.3-0.9-0.6-1.2c-0.3-0.3-0.9-0.6-1.8-0.6
		l-1.2-0.3c-1.2-0.3-2.1-0.6-2.4-1.2c-0.6-0.6-0.6-1.2-0.6-2.1c0-0.9,0.3-1.8,1.2-2.4c0.9-0.6,1.8-0.9,3-0.9s2.4,0.3,3,0.9
		c0.6,0.6,0.9,1.2,1.2,2.4l-1.5,0.3c-0.3-1.5-0.9-2.1-2.7-2.1c-1.8,0-2.4,0.6-2.4,1.8c0,0.6,0.3,0.9,0.6,1.2
		c0.3,0.3,0.9,0.6,1.5,0.6l1.2,0.3C-185.1,527.5-184.2,528.1-183.9,528.5z"/>
	<path class="st4" d="M-173.1,522.7v-0.9h3.9v0.9h-1.5v5.1h-0.9v-5.1H-173.1z M-162.2,522.1v6h-0.9v-4.5l-1.5,3.9h-0.9l-1.5-3.9v4.5
		h-0.9v-6h1.2l1.5,4.2l1.5-4.2H-162.2z"/>
	<path class="st4" d="M-140.8,519.1h1.8v14.8h-1.8V519.1z"/>
	<path class="st4" d="M-125.7,523.3c1.5-0.9,2.7-1.5,3.9-1.5s2.4,0.3,2.7,0.9c0.3,0.6,0.9,1.5,0.9,2.7v8.1h-1.8v-8.1
		c0-0.9-0.3-1.5-0.6-1.8c-0.3-0.3-0.9-0.6-1.5-0.6c-1.2,0-2.4,0.6-3.6,1.5v9h-1.8v-11.8h0.9L-125.7,523.3z"/>
	<path class="st4" d="M-105.2,523.3c1.5-0.9,2.7-1.5,3.9-1.5s2.4,0.3,2.7,0.9c0.3,0.6,0.9,1.5,0.9,2.7v8.1h-1.8v-8.1
		c0-0.9-0.3-1.5-0.6-1.8c-0.3-0.3-0.9-0.6-1.5-0.6c-1.2,0-2.4,0.6-3.6,1.5v9h-1.5v-11.8h0.9L-105.2,523.3z"/>
	<path class="st4" d="M-76.9,527.8c0,3.9-1.8,6-5.1,6c-3.3,0-5.1-2.1-5.1-6c0-3.9,1.8-6,5.1-6C-78.7,521.8-76.9,523.9-76.9,527.8z
		 M-83.8,532.4c0.6,0.3,0.9,0.3,1.8,0.3s1.2,0,1.8-0.3c0.6-0.3,0.9-0.6,0.9-1.2c0-0.6,0.3-0.9,0.6-1.5c0-0.6,0-1.2,0-1.8
		s0-1.2,0-1.8c0-0.6-0.3-0.9-0.6-1.5c-0.3-0.6-0.6-0.9-0.9-1.2c-0.6-0.3-0.9-0.3-1.8-0.3s-1.2,0-1.8,0.3c-0.6,0.3-0.9,0.6-0.9,1.2
		c-0.3,0.6-0.3,0.9-0.6,1.5c-0.3,0.6,0,1.2,0,1.8s0,1.2,0,1.8s0.3,0.9,0.6,1.5C-84.4,531.8-84.1,532.1-83.8,532.4z"/>
	<path class="st4" d="M-62.1,533.9h-1.8l-4.2-11.8h1.8l3.3,9.7l3.3-9.7h1.8L-62.1,533.9z"/>
	<path class="st4" d="M-41.3,522.7c0.9,0.6,1.2,1.8,1.2,3.3v7.8h-1.2l-0.3-1.8c-1.2,1.5-2.7,2.1-4.2,2.1c-0.9,0-1.8-0.3-2.4-0.9
		c-0.6-0.6-0.6-1.2-0.6-2.1c0-0.9,0.3-1.8,0.9-2.1c0.6-0.6,1.5-0.9,3.3-1.2l3-0.6V526c0-0.9-0.3-1.8-0.6-2.1
		c-0.3-0.3-0.9-0.6-1.8-0.6c-1.5,0-2.4,0.6-2.7,2.1l-1.5-0.3c0.3-0.9,0.6-1.8,1.5-2.4c0.6-0.6,1.5-0.9,2.7-0.9
		C-43.1,521.8-42.2,522.1-41.3,522.7z M-45.5,532.7c1.2,0,2.4-0.6,3.6-2.1v-2.4l-3,0.6c-0.9,0.3-1.5,0.3-2.1,0.9
		c-0.3,0.3-0.6,0.9-0.6,1.5c0,0.6,0,0.9,0.3,1.2C-46.7,532.7-46.1,532.7-45.5,532.7z"/>
	<path class="st4" d="M-30.4,523.3v-1.2h2.1V520l1.8-0.6v2.7h2.4v1.2h-2.4v7.8c0,0.6,0,0.9,0.3,1.2c0.3,0.3,0.3,0.3,0.6,0.3
		c0.3,0,0.6,0,1.2-0.3l0.3,1.2c-0.6,0.3-1.2,0.3-1.8,0.3c-0.6,0-0.9,0-1.2-0.3c-0.3-0.3-0.6-0.3-0.6-0.6c-0.3-0.6-0.3-1.2-0.3-2.1
		V523L-30.4,523.3L-30.4,523.3z"/>
	<path class="st4" d="M-13.2,520.3c-0.6,0-0.9-0.3-0.9-1.2c0-0.6,0.3-1.2,0.9-1.2c0.6,0,1.2,0.3,1.2,1.2
		C-12,519.7-12.3,520.3-13.2,520.3z M-14.1,522.1h1.8v11.8h-1.8V522.1z"/>
	<path class="st4" d="M8.5,527.8c0,3.9-1.8,6-5.1,6s-5.1-2.1-5.1-6c0-3.9,1.8-6,5.1-6C7,521.8,8.5,523.9,8.5,527.8z M1.8,532.4
		c0.6,0.3,0.9,0.3,1.8,0.3s1.2,0,1.8-0.3c0.6-0.3,0.9-0.6,0.9-1.2c0-0.6,0.3-0.9,0.6-1.5c0-0.6,0-1.2,0-1.8s0-1.2,0-1.8
		c0-0.6-0.3-0.9-0.6-1.5c-0.3-0.6-0.6-0.9-0.9-1.2C4.9,523,4.6,523,3.7,523s-1.2,0-1.8,0.3c-0.6,0.3-0.9,0.6-0.9,1.2
		c-0.3,0.6-0.3,0.9-0.6,1.5c-0.3,0.6,0,1.2,0,1.8s0,1.2,0,1.8s0.3,0.9,0.6,1.5C1.2,531.8,1.2,532.1,1.8,532.4z"/>
	<path class="st4" d="M20.8,523.3c1.5-0.9,2.7-1.5,3.9-1.5c1.2,0,2.4,0.3,2.7,0.9c0.3,0.6,0.9,1.5,0.9,2.7v8.1h-1.8v-8.1
		c0-0.9-0.3-1.5-0.6-1.8c-0.3-0.3-0.9-0.6-1.5-0.6c-1.2,0-2.4,0.6-3.6,1.5v9H19v-11.8h0.9L20.8,523.3z"/>
	<path class="st4" d="M57.9,520c-1.2,0-2.1,0.3-2.7,1.2c-0.6,0.6-0.9,1.5-0.9,3c0,0.6,0,1.2,0,2.1s0,1.5,0,2.1s0.3,1.2,0.3,1.8
		c0.3,0.6,0.3,0.9,0.6,1.2c0.6,0.6,1.5,1.2,2.7,1.2c2.1,0,3-1.2,3.3-3.3h1.5c0,1.5-0.6,2.7-1.2,3.6c-0.6,0.9-1.8,1.2-3.3,1.2
		c-2.1,0-3.6-0.6-4.5-2.1c-0.3-0.6-0.6-1.5-0.9-2.4c-0.3-0.9-0.3-2.1-0.3-3.3s0-2.4,0.3-3.3c0.3-0.9,0.6-1.8,0.9-2.4
		c0.9-1.5,2.4-2.1,4.5-2.1c1.5,0,2.7,0.3,3.3,0.9c0.6,0.6,1.2,1.5,1.2,3l-1.5,0.3C60.7,520.9,59.7,520,57.9,520z"/>
	<path class="st4" d="M77.5,534.2c-1.8,0-3-0.6-3.9-1.5c-0.9-0.9-1.2-2.4-1.2-4.5c0-3.9,1.5-6,4.8-6s4.8,1.8,4.8,5.7v0.3h-7.8
		c0,1.5,0.3,2.7,0.6,3.3c0.3,0.6,1.2,0.9,2.4,0.9c1.8,0,3-0.9,3-2.4h1.5C81.8,533,80.3,534.2,77.5,534.2z M80,524.2
		c-0.3-0.6-1.2-0.9-2.1-0.9c-0.9,0-1.8,0.3-2.4,0.9c-0.6,0.6-0.6,1.5-0.9,2.7h6C80.6,525.7,80.3,524.8,80,524.2z"/>
	<path class="st4" d="M94.4,523.3c1.5-0.9,2.7-1.5,3.9-1.5s2.4,0.3,2.7,0.9c0.3,0.6,0.9,1.5,0.9,2.7v8.1h-1.8v-8.1
		c0-0.9-0.3-1.5-0.6-1.8c-0.3-0.3-0.9-0.6-1.5-0.6c-1.2,0-2.4,0.6-3.6,1.5v9h-1.8v-11.8h0.9L94.4,523.3z"/>
	<path class="st4" d="M111.9,523.3v-1.2h2.1V520l1.8-0.6v2.7h2.4v1.2h-2.4v7.8c0,0.6,0,0.9,0.3,1.2c0.3,0.3,0.3,0.3,0.6,0.3
		s0.6,0,1.2-0.3l0.3,1.2c-0.6,0.3-1.2,0.3-1.8,0.3c-0.6,0-0.9,0-1.2-0.3c-0.3-0.3-0.6-0.3-0.6-0.6c-0.3-0.6-0.3-1.2-0.3-2.1V523
		L111.9,523.3L111.9,523.3z"/>
	<path class="st4" d="M132.1,534.2c-1.8,0-3-0.6-3.9-1.5c-0.9-0.9-1.2-2.4-1.2-4.5c0-3.9,1.5-6,4.8-6s4.8,1.8,4.8,5.7v0.3h-7.8
		c0,1.5,0.3,2.7,0.6,3.3c0.3,0.6,1.2,0.9,2.4,0.9c1.8,0,3-0.9,3-2.4h1.5C136.7,533,135.1,534.2,132.1,534.2z M134.5,524.2
		c-0.3-0.6-1.2-0.9-2.1-0.9s-1.8,0.3-2.4,0.9c-0.6,0.6-0.6,1.5-0.9,2.7h6C135.1,525.7,134.8,524.8,134.5,524.2z"/>
	<path class="st4" d="M149.3,533.9h-1.8v-11.8h0.9l0.6,2.1c0.9-1.5,2.4-2.4,4.2-2.4v1.5c-1.8,0-3.3,0.9-4.2,2.4v8.1L149.3,533.9
		L149.3,533.9z"/>
</g>
<g>
	<rect x="-595.6" y="511.6" class="st4" width="1.5" height="28"/>
</g>
<g>
	<g>
		<g>
			<path class="st5" d="M-632.1,536.6c-2.1,2.4-4.5,3.9-7.5,4.8c-0.6,0-1.2,0.3-1.5,0.3c-0.9,0-1.8,0-2.7,0c-0.6,0-1.2,0-2.1-0.3
				c-2.1-0.6-3.9-1.5-5.4-2.7c-2.4-2.1-3.9-4.8-4.5-7.8c0-0.6,0-0.9,0-1.5s0-1.5,0-2.1c0-0.3,0-0.6,0-1.2c0.3-2.7,1.5-4.8,3.3-6.9
				c0.3-0.3,0.6-0.6,0.9-0.9l0.3-0.3v0.3c-0.3,2.4,0,4.5,1.2,6.6c1.2,2.1,2.7,3.9,4.5,5.1c0.3,0,0.3,0.3,0.6,0.3l0,0
				c0.3,0.6,0.6,0.9,0.9,1.5c1.8,2.7,4.5,4.5,7.8,5.1C-634.8,537.2-633.6,536.9-632.1,536.6C-632.4,536.3-632.1,536.3-632.1,536.6z"
				/>
			<path class="st6" d="M-638.7,507c0.6,0,0.9,0,1.5,0.3c2.1,0.3,3.9,1.2,5.4,2.7c2.1,1.8,3.3,3.9,3.9,6.3c0.3,0.9,0.3,1.5,0.3,2.4
				c-0.3,0-0.3-0.3-0.3-0.3c-0.9-1.2-2.1-1.8-3.6-2.4c-1.8-0.6-3.6-0.9-5.4-0.6h-0.3c-0.6-0.3-1.5-0.6-2.1-0.6
				c-1.5-0.3-3-0.6-4.8-0.3c-2.1,0.3-4.2,0.9-6,2.1c-0.3,0.3-0.9,0.6-1.2,0.9l-0.3,0.3v-0.3c0.3-2.1,1.2-3.9,2.7-5.7
				c1.2-1.5,2.4-2.4,4.2-3.3c1.2-0.6,2.1-0.9,3.3-1.2c0.3,0,0.6,0,0.9,0C-639.9,507-639.3,507-638.7,507z"/>
			<path class="st5" d="M-645.1,523.9c0-1.5,0.3-3,1.2-4.2c0.9-1.5,2.4-2.1,3.9-2.1c2.7-0.3,4.5,0.9,6,3c0.9,1.2,1.2,2.7,1.2,4.2
				c0,2.4-0.9,4.5-3.3,5.7c-2.1,0.9-3.9,0.6-5.7-0.6C-643.9,528.5-645.1,526.3-645.1,523.9z"/>
			<path class="st7" d="M-651.7,517.9C-651.7,517.6-651.7,517.6-651.7,517.9c0.9-0.6,1.5-1.2,2.4-1.8c1.2-0.6,2.7-1.2,4.2-1.5
				c1.2-0.3,2.1-0.3,3.3-0.3c1.5,0,3,0.3,4.5,1.2l0,0l0,0c-1.2,0-2.4,0-3.6,0.3c-3.6,0.9-6,3-6.6,6.6c-0.6,2.4,0,4.5,1.5,6.6
				c0.3,0.3,0.6,0.6,0.9,1.2c-0.6-0.3-1.2-0.6-1.8-1.2c-2.4-1.8-3.9-4.5-4.5-7.5C-652,520.3-651.7,519.1-651.7,517.9L-651.7,517.9z"
				/>
			<path class="st8" d="M-627.3,519.1c1.2,1.2,2.1,2.7,2.4,4.5c0.9,3.6,0,6.6-2.1,9.3c-0.9,0.9-1.8,1.8-3,2.4h-0.3
				c-0.3-0.3-0.3-0.3-0.6-0.6v-0.3c0.9-1.5,1.5-3.3,1.8-5.4c0-0.9,0-1.8,0-3v-0.3c0-0.3,0-0.3,0.3-0.3c0.9-1.5,1.5-3.3,1.8-5.1
				c0-0.3,0-0.6,0-0.9C-627.3,519.4-627.3,519.1-627.3,519.1z"/>
			<path class="st9" d="M-627.3,519.1v0.3c0,2.1-0.6,3.9-1.2,5.4c-0.3,0.3-0.3,0.6-0.6,0.9c-0.3,0.6-0.9,1.2-1.2,1.5
				c0,0-0.3,0.3-0.3,0c0.3-0.6,0.6-1.5,0.6-2.4c0.3-2.7,0-5.1-1.8-7.2c-1.2-1.5-3-2.4-4.8-2.7h-0.3l0,0c0.9,0,1.5-0.3,2.4,0
				c1.2,0,2.7,0.3,3.9,0.9C-629.7,517-628.5,517.6-627.3,519.1C-627.3,518.8-627.3,518.8-627.3,519.1L-627.3,519.1z"/>
			<path class="st10" d="M-632.1,536.6c-0.6,0-0.9,0.3-1.5,0.3c-2.1,0.3-4.2,0-6.3-0.9c-2.4-1.2-4.2-3-5.4-5.4c0,0,0,0,0-0.3
				c0.9,0.6,1.5,1.2,2.4,1.8c1.2,0.6,2.7,0.9,3.9,0.9c0.3,0,0.9,0,1.2,0s0.3,0,0.3,0.3c0.9,0.9,1.8,1.8,3,2.4
				C-633.6,536-633,536.3-632.1,536.6C-632.1,536.3-631.8,536.3-632.1,536.6z"/>
			<path class="st10" d="M-630.6,527.8c0.3-0.3,0.6-0.6,0.9-0.9c0.3-0.3,0.3-0.6,0.6-0.9c0,0.6,0,1.2,0,2.1c0,2.4-0.6,4.5-1.8,6.6
				v0.3c-0.3,0-0.6-0.3-0.6-0.6c-0.9-0.9-1.5-1.8-2.1-2.7c0,0-0.3-0.3,0-0.3C-632.4,530.6-631.5,529.4-630.6,527.8z"/>
		</g>
	</g>
	<g>
		<path class="st4" d="M-630.3,535.7L-630.3,535.7L-630.3,535.7c-0.3-0.3-0.6-0.3-0.6-0.6l0,0c-0.3,0-0.6-0.3-0.6-0.6
			c-0.9-0.9-1.5-1.8-2.1-2.7c0,0-0.3-0.3,0-0.3c1.5-0.9,2.4-2.1,3-3.6c0.3-0.6,0.6-1.5,0.6-2.4c0.3-2.7,0-5.1-1.8-7.2
			c-1.2-1.5-3-2.4-4.8-2.7h-0.3l0,0c-1.2,0-2.4,0-3.6,0.3c-3.6,0.9-6,3-6.6,6.6c-0.6,2.4,0,4.5,1.5,6.6c0.3,0.3,0.6,0.6,0.9,1.2l0,0
			l0,0l0,0l0,0c0.9,0.6,1.5,1.2,2.4,1.8c1.2,0.6,2.7,0.9,3.9,0.9c0.3,0,0.9,0,1.2,0c0.3,0,0.3,0,0.3,0.3c0.9,0.9,1.8,1.8,3,2.4
			c0.6,0.3,1.2,0.9,2.1,0.9l0,0h0.3l0,0l0,0h0.3h0.3l0,0C-630.6,536-630.3,536-630.3,535.7C-630.3,536-630.3,535.7-630.3,535.7
			L-630.3,535.7z M-635.7,530.6c-2.1,0.9-3.9,0.6-5.7-0.6c-2.1-1.5-3.3-3.6-3.3-6c0-1.5,0.3-3,1.2-4.2c0.9-1.5,2.4-2.1,3.9-2.1
			c2.7-0.3,4.5,0.9,6,3c0.9,1.2,1.2,2.7,1.2,4.2C-632.7,527.2-633.3,529.4-635.7,530.6z"/>
	</g>
</g>
</svg>
