<?xml version="1.0" encoding="utf-8"?>
<!-- Generator: Adobe Illustrator 19.1.0, SVG Export Plug-In . SVG Version: 6.00 Build 0)  -->
<svg version="1.1" id="Layer_1" xmlns="http://www.w3.org/2000/svg" xmlns:xlink="http://www.w3.org/1999/xlink" x="0px" y="0px"
	 viewBox="-331 117 560 560" style="enable-background:new -331 117 560 560;" xml:space="preserve">
<style type="text/css">
	.st0{fill:#E5E5E5;}
	.st1{enable-background:new    ;}
	.st2{fill:#820028;}
	.st3{fill:#FFFFFF;}
</style>
<rect x="-332" y="116.4" class="st0" width="559.6" height="559.6"/>
<g>
	<g class="st1">
		<path d="M-258.3,204v14.9h-4.8v-34.5h10.7c3.3,0,5.8,0.8,7.6,2.5c1.8,1.7,2.7,4.1,2.7,7.3c0,1.8-0.4,3.4-1.2,4.7s-2,2.4-3.6,3.2
			c1.7,0.6,3,1.6,3.7,3c0.8,1.4,1.2,3.1,1.2,5.2v3c0,1.1,0.1,2,0.3,3c0.2,0.9,0.6,1.6,1.1,2.1v0.5h-5c-0.5-0.5-0.9-1.3-1-2.4
			c-0.2-1.1-0.2-2.2-0.2-3.3v-2.9c0-1.9-0.4-3.5-1.3-4.6s-2.1-1.7-3.6-1.7H-258.3z M-258.3,200.3h5.7c1.9,0,3.4-0.5,4.3-1.6
			c0.9-1.1,1.4-2.5,1.4-4.5c0-2-0.5-3.5-1.4-4.6c-0.9-1.1-2.3-1.6-4.1-1.6h-5.9V200.3z"/>
		<path d="M-237.1,204.4c0-3.4,0.9-6.2,2.7-8.4c1.8-2.2,4.2-3.3,7.3-3.3c3.1,0,5.5,1.1,7.3,3.3c1.8,2.2,2.7,5,2.7,8.4v3.3
			c0,3.4-0.9,6.2-2.7,8.4c-1.8,2.2-4.2,3.3-7.3,3.3c-3.1,0-5.6-1.1-7.3-3.3c-1.8-2.2-2.7-5-2.7-8.4V204.4z M-232.3,207.7
			c0,2.3,0.4,4.3,1.3,5.8c0.9,1.5,2.2,2.3,3.9,2.3c1.7,0,3-0.8,3.9-2.3s1.3-3.4,1.3-5.8v-3.3c0-2.3-0.4-4.2-1.3-5.7
			s-2.2-2.3-3.9-2.3c-1.7,0-3,0.8-3.9,2.3c-0.9,1.5-1.3,3.4-1.3,5.8V207.7z"/>
		<path d="M-193.5,208.2c0,3.4-0.7,6.1-2.2,8.1s-3.5,3-6.2,3c-1.3,0-2.5-0.3-3.5-0.9c-1-0.6-1.8-1.5-2.5-2.6l-0.4,3h-4.2v-37h4.8v14
			c0.7-1,1.5-1.8,2.4-2.4c0.9-0.5,2-0.8,3.3-0.8c2.7,0,4.8,1.1,6.3,3.3c1.5,2.2,2.2,5.1,2.2,8.7V208.2z M-198.3,204.7
			c0-2.5-0.4-4.5-1.2-6s-2-2.3-3.7-2.3c-1.1,0-2,0.3-2.7,1c-0.8,0.6-1.3,1.5-1.8,2.6v12.3c0.4,1,1,1.9,1.8,2.4
			c0.8,0.6,1.7,0.9,2.8,0.9c1.7,0,2.9-0.7,3.7-2c0.8-1.3,1.1-3.2,1.1-5.5V204.7z"/>
		<path d="M-189.9,204.4c0-3.4,0.9-6.2,2.7-8.4c1.8-2.2,4.2-3.3,7.3-3.3c3.1,0,5.5,1.1,7.3,3.3c1.8,2.2,2.7,5,2.7,8.4v3.3
			c0,3.4-0.9,6.2-2.7,8.4c-1.8,2.2-4.2,3.3-7.3,3.3c-3.1,0-5.6-1.1-7.3-3.3c-1.8-2.2-2.7-5-2.7-8.4V204.4z M-185.1,207.7
			c0,2.3,0.4,4.3,1.3,5.8c0.9,1.5,2.2,2.3,3.9,2.3c1.7,0,3-0.8,3.9-2.3s1.3-3.4,1.3-5.8v-3.3c0-2.3-0.4-4.2-1.3-5.7
			s-2.2-2.3-3.9-2.3c-1.7,0-3,0.8-3.9,2.3c-0.9,1.5-1.3,3.4-1.3,5.8V207.7z"/>
		<path d="M-159.2,186.8v6.4h4v3.4h-4v15.3c0,1.3,0.2,2.3,0.6,2.8c0.4,0.6,0.9,0.8,1.5,0.8c0.4,0,0.7,0,1.1-0.1
			c0.3,0,0.7-0.1,1.1-0.2l0.5,3.3c-0.5,0.2-1.1,0.4-1.8,0.5c-0.7,0.1-1.4,0.2-2.1,0.2c-1.8,0-3.2-0.6-4.2-1.8
			c-1-1.2-1.5-3.1-1.5-5.7v-15.3h-3.3v-3.4h3.3v-6.4H-159.2z"/>
		<path d="M-151.9,204.4c0-3.4,0.9-6.2,2.7-8.4c1.8-2.2,4.2-3.3,7.3-3.3c3.1,0,5.5,1.1,7.3,3.3c1.8,2.2,2.7,5,2.7,8.4v3.3
			c0,3.4-0.9,6.2-2.7,8.4c-1.8,2.2-4.2,3.3-7.3,3.3c-3.1,0-5.6-1.1-7.3-3.3c-1.8-2.2-2.7-5-2.7-8.4V204.4z M-147.1,207.7
			c0,2.3,0.4,4.3,1.3,5.8c0.9,1.5,2.2,2.3,3.9,2.3c1.7,0,3-0.8,3.9-2.3s1.3-3.4,1.3-5.8v-3.3c0-2.3-0.4-4.2-1.3-5.7
			s-2.2-2.3-3.9-2.3c-1.7,0-3,0.8-3.9,2.3c-0.9,1.5-1.3,3.4-1.3,5.8V207.7z"/>
		<path d="M-95.7,208.4l0.1,0.1c0,3.4-0.9,6.1-2.8,8c-1.8,1.9-4.4,2.8-7.7,2.8c-3.4,0-6.1-1.1-8.1-3.4s-3-5.5-3-9.5v-9.6
			c0-4.1,1-7.3,3-9.6c2-2.3,4.7-3.4,8-3.4c3.4,0,6,0.9,7.8,2.8s2.8,4.6,2.8,8.1l-0.1,0.1h-4.6c0-2.5-0.5-4.4-1.5-5.6
			c-0.9-1.2-2.4-1.8-4.5-1.8c-2,0-3.5,0.8-4.6,2.4s-1.6,3.9-1.6,6.8v9.7c0,3,0.6,5.3,1.7,6.9c1.1,1.6,2.7,2.4,4.7,2.4
			c2,0,3.5-0.6,4.4-1.7c0.9-1.2,1.4-3,1.4-5.6H-95.7z"/>
		<path d="M-92,204.4c0-3.4,0.9-6.2,2.7-8.4c1.8-2.2,4.2-3.3,7.3-3.3c3.1,0,5.5,1.1,7.3,3.3c1.8,2.2,2.7,5,2.7,8.4v3.3
			c0,3.4-0.9,6.2-2.7,8.4c-1.8,2.2-4.2,3.3-7.3,3.3c-3.1,0-5.6-1.1-7.3-3.3c-1.8-2.2-2.7-5-2.7-8.4V204.4z M-87.2,207.7
			c0,2.3,0.4,4.3,1.3,5.8c0.9,1.5,2.2,2.3,3.9,2.3c1.7,0,3-0.8,3.9-2.3s1.3-3.4,1.3-5.8v-3.3c0-2.3-0.4-4.2-1.3-5.7
			s-2.2-2.3-3.9-2.3c-1.7,0-3,0.8-3.9,2.3c-0.9,1.5-1.3,3.4-1.3,5.8V207.7z"/>
		<path d="M-63.1,193.2l0.3,3.8c0.7-1.3,1.6-2.4,2.7-3.1s2.3-1.1,3.7-1.1c2.2,0,4,0.8,5.2,2.5s1.9,4.2,1.9,7.7v15.9h-4.8V203
			c0-2.4-0.3-4.1-1-5.1c-0.7-1-1.7-1.5-3.1-1.5c-1,0-1.8,0.3-2.6,0.9s-1.4,1.4-1.8,2.5v19h-4.8v-25.7H-63.1z"/>
		<path d="M-44.8,206.4c0-4.1,0.7-7.4,2.2-9.9c1.5-2.5,3.6-3.7,6.2-3.7c1.2,0,2.3,0.3,3.2,0.8c0.9,0.5,1.8,1.3,2.4,2.3v-14h4.8v37
			h-4.2l-0.4-2.9c-0.7,1.1-1.5,2-2.5,2.6c-1,0.6-2.1,0.9-3.4,0.9c-2.7,0-4.7-1.1-6.2-3.4c-1.5-2.3-2.2-5.3-2.2-9.1V206.4z
			 M-39.9,206.9c0,2.7,0.4,4.8,1.2,6.4c0.8,1.6,2,2.4,3.7,2.4c1,0,1.9-0.3,2.7-0.9c0.7-0.6,1.3-1.4,1.8-2.4v-12.5
			c-0.5-1.1-1.1-1.9-1.8-2.5c-0.7-0.6-1.6-0.9-2.6-0.9c-1.7,0-2.9,0.9-3.7,2.7c-0.8,1.8-1.2,4.2-1.2,7.1V206.9z"/>
		<path d="M-11,219.4c-3.1,0-5.5-1.1-7.3-3.2c-1.8-2.1-2.8-4.8-2.8-8.1v-3.7c0-3.4,0.9-6.1,2.7-8.3c1.8-2.2,4.1-3.3,6.8-3.3
			c2.9,0,5.1,1,6.7,3c1.6,2,2.3,4.7,2.3,8v3.3h-13.8v1c0,2.2,0.5,4,1.5,5.5c1,1.4,2.4,2.2,4.1,2.2c1.3,0,2.5-0.2,3.4-0.6
			c0.9-0.4,1.8-1,2.7-1.8l1.5,3c-0.8,0.9-1.9,1.7-3.2,2.3C-7.7,219.1-9.2,219.4-11,219.4z M-11.5,196.4c-1.4,0-2.5,0.7-3.3,2
			c-0.8,1.4-1.3,3.1-1.4,5.2h9v-1c0-1.8-0.4-3.3-1.1-4.5C-9.1,197-10.1,196.4-11.5,196.4z"/>
		<path d="M6.2,193.2l0.3,3.8c0.7-1.3,1.6-2.4,2.7-3.1s2.3-1.1,3.7-1.1c2.2,0,4,0.8,5.2,2.5s1.9,4.2,1.9,7.7v15.9h-4.8V203
			c0-2.4-0.3-4.1-1-5.1c-0.7-1-1.7-1.5-3.1-1.5c-1,0-1.8,0.3-2.6,0.9s-1.4,1.4-1.8,2.5v19H1.7v-25.7H6.2z"/>
		<path d="M37.3,212.5c0-1-0.3-1.8-1-2.5c-0.7-0.7-1.9-1.4-3.7-2.3c-2.6-1-4.6-2.1-5.9-3.3s-1.9-2.7-1.9-4.5c0-2,0.8-3.7,2.3-5
			c1.6-1.4,3.6-2.1,6.1-2.1c2.6,0,4.7,0.7,6.3,2.2c1.6,1.5,2.3,3.4,2.3,5.6l0,0.1h-4.6c0-1.2-0.3-2.3-1-3.1
			c-0.7-0.9-1.6-1.3-2.9-1.3c-1.2,0-2.1,0.3-2.8,1c-0.7,0.7-1,1.5-1,2.4c0,1,0.3,1.8,0.9,2.3s1.8,1.3,3.7,2.2c2.7,1,4.7,2.1,6,3.3
			c1.3,1.2,2,2.8,2,4.7c0,2.1-0.8,3.8-2.4,5.2c-1.6,1.3-3.7,2-6.4,2c-2.8,0-5.1-0.8-6.7-2.4c-1.6-1.6-2.4-3.5-2.3-5.6l0-0.1h4.5
			c0.1,1.7,0.5,2.9,1.4,3.6c0.9,0.7,1.9,1.1,3.2,1.1c1.2,0,2.2-0.3,2.9-1C37,214.3,37.3,213.5,37.3,212.5z"/>
		<path d="M55.8,219.4c-3.1,0-5.5-1.1-7.3-3.2c-1.8-2.1-2.8-4.8-2.8-8.1v-3.7c0-3.4,0.9-6.1,2.7-8.3c1.8-2.2,4.1-3.3,6.8-3.3
			c2.9,0,5.1,1,6.7,3c1.6,2,2.3,4.7,2.3,8v3.3H50.5v1c0,2.2,0.5,4,1.5,5.5c1,1.4,2.4,2.2,4.1,2.2c1.3,0,2.5-0.2,3.4-0.6
			s1.8-1,2.7-1.8l1.5,3c-0.8,0.9-1.9,1.7-3.2,2.3C59.1,219.1,57.6,219.4,55.8,219.4z M55.2,196.4c-1.4,0-2.5,0.7-3.3,2
			s-1.3,3.1-1.4,5.2h9v-1c0-1.8-0.4-3.3-1.1-4.5C57.7,197,56.6,196.4,55.2,196.4z"/>
		<path d="M67.7,206.4c0-4.1,0.7-7.4,2.2-9.9c1.5-2.5,3.6-3.7,6.2-3.7c1.2,0,2.3,0.3,3.2,0.8c0.9,0.5,1.8,1.3,2.4,2.3v-14h4.8v37
			h-4.2l-0.4-2.9c-0.7,1.1-1.5,2-2.5,2.6c-1,0.6-2.1,0.9-3.4,0.9c-2.7,0-4.7-1.1-6.2-3.4c-1.5-2.3-2.2-5.3-2.2-9.1V206.4z
			 M72.5,206.9c0,2.7,0.4,4.8,1.2,6.4c0.8,1.6,2,2.4,3.7,2.4c1,0,1.9-0.3,2.7-0.9c0.7-0.6,1.3-1.4,1.8-2.4v-12.5
			c-0.5-1.1-1.1-1.9-1.8-2.5c-0.7-0.6-1.6-0.9-2.6-0.9c-1.7,0-2.9,0.9-3.7,2.7c-0.8,1.8-1.2,4.2-1.2,7.1V206.9z"/>
	</g>
</g>
<g>
	<g class="st1">
		<path class="st2" d="M-28.4,453.2h-6.4l-17.6-34.5l-0.2,0.1v34.5h-6.5v-46.4h6.5l17.6,34.4l0.2-0.1v-34.4h6.4V453.2z"/>
		<path class="st2" d="M-7.7,453.9c-4.1,0-7.4-1.4-9.9-4.3s-3.7-6.5-3.7-10.9v-5c0-4.5,1.2-8.2,3.6-11.2c2.4-2.9,5.5-4.4,9.2-4.4
			c3.9,0,6.9,1.3,9,4c2.1,2.7,3.2,6.3,3.2,10.8v4.5h-18.6v1.4c0,3,0.7,5.4,2,7.4c1.3,1.9,3.2,2.9,5.6,2.9c1.8,0,3.3-0.3,4.6-0.8
			c1.3-0.6,2.5-1.4,3.6-2.5l2,4c-1.1,1.2-2.5,2.2-4.4,3S-5.3,453.9-7.7,453.9z M-8.4,423c-1.9,0-3.4,0.9-4.5,2.7
			c-1.1,1.8-1.8,4.1-1.9,6.9h12.1v-1.3c0-2.5-0.5-4.5-1.5-6C-5.1,423.8-6.5,423-8.4,423z"/>
		<path class="st2" d="M27.7,448.6c-0.9,1.7-2.1,3-3.5,3.9c-1.4,0.9-3.1,1.4-4.9,1.4c-3.1,0-5.6-1.2-7.3-3.6
			c-1.7-2.4-2.6-6.1-2.6-11.2v-20.4h6.4v20.4c0,3.5,0.4,6,1.3,7.5s2.1,2.2,3.8,2.2c1.6,0,2.9-0.4,4-1.1c1.1-0.7,1.9-1.8,2.6-3.2
			v-25.9h6.5v34.5h-5.8L27.7,448.6z"/>
		<path class="st2" d="M53.7,453.9c-4.1,0-7.4-1.4-9.9-4.3c-2.5-2.8-3.7-6.5-3.7-10.9v-5c0-4.5,1.2-8.2,3.6-11.2s5.5-4.4,9.2-4.4
			c3.9,0,6.9,1.3,9,4c2.1,2.7,3.2,6.3,3.2,10.8v4.5H46.6v1.4c0,3,0.7,5.4,2,7.4c1.3,1.9,3.2,2.9,5.6,2.9c1.8,0,3.3-0.3,4.6-0.8
			c1.3-0.6,2.5-1.4,3.6-2.5l2,4c-1.1,1.2-2.5,2.2-4.4,3S56.1,453.9,53.7,453.9z M53,423c-1.9,0-3.4,0.9-4.5,2.7
			c-1.1,1.8-1.8,4.1-1.9,6.9h12.1v-1.3c0-2.5-0.5-4.5-1.5-6S54.9,423,53,423z"/>
		<path class="st2" d="M85.8,424.2l-3-0.2c-1.3,0-2.4,0.4-3.3,1.2c-0.9,0.8-1.6,1.9-2,3.4v24.6h-6.5v-34.5h5.9l0.5,5.2
			c0.7-1.8,1.7-3.3,2.8-4.3c1.2-1,2.5-1.5,4-1.5c0.4,0,0.9,0,1.3,0.1s0.8,0.2,1.1,0.3L85.8,424.2z"/>
		<path class="st2" d="M109.3,448.6c-0.9,1.7-2.1,3-3.5,3.9c-1.4,0.9-3.1,1.4-4.9,1.4c-3.1,0-5.6-1.2-7.3-3.6
			c-1.7-2.4-2.6-6.1-2.6-11.2v-20.4h6.4v20.4c0,3.5,0.4,6,1.3,7.5c0.8,1.5,2.1,2.2,3.8,2.2c1.6,0,2.9-0.4,4-1.1s1.9-1.8,2.6-3.2
			v-25.9h6.5v34.5h-5.8L109.3,448.6z"/>
		<path class="st2" d="M128.7,418.7l0.4,5.1c1-1.8,2.2-3.2,3.6-4.2c1.5-1,3.1-1.5,5-1.5c3,0,5.4,1.1,7,3.3c1.7,2.2,2.5,5.7,2.5,10.4
			v21.4h-6.5v-21.3c0-3.2-0.5-5.5-1.4-6.8c-0.9-1.3-2.3-2-4.1-2c-1.3,0-2.5,0.4-3.5,1.2c-1,0.8-1.8,1.9-2.5,3.3v25.5h-6.5v-34.5
			H128.7z"/>
		<path class="st2" d="M153.3,434.6c0-5,1-8.9,3-12c2-3,4.9-4.5,8.5-4.5c1.7,0,3.3,0.4,4.6,1.2c1.3,0.8,2.4,2,3.4,3.6l0.5-4.1h5.6
			v34.3c0,4.4-1.2,7.9-3.5,10.4c-2.3,2.5-5.6,3.7-9.8,3.7c-1.4,0-3-0.2-4.6-0.7s-3.1-1.1-4.4-1.8l1.4-4.8c1.1,0.7,2.3,1.2,3.6,1.5
			c1.3,0.4,2.6,0.6,4,0.6c2.4,0,4.1-0.8,5.2-2.3c1.1-1.5,1.7-3.7,1.7-6.6v-3.1c-0.9,1.3-2,2.3-3.3,3c-1.3,0.7-2.7,1-4.4,1
			c-3.6,0-6.4-1.4-8.4-4.1c-2-2.8-3-6.4-3-10.9V434.6z M159.8,438.9c0,3.1,0.5,5.5,1.6,7.3c1.1,1.8,2.7,2.7,5,2.7
			c1.4,0,2.6-0.4,3.6-1.1s1.8-1.7,2.4-3.1v-17.2c-0.6-1.4-1.4-2.4-2.4-3.2c-1-0.8-2.1-1.2-3.5-1.2c-2.3,0-3.9,1.1-5,3.2
			c-1.1,2.1-1.6,4.9-1.6,8.3V438.9z"/>
	</g>
</g>
<g class="st1">
	<path d="M-190.6,524.7c-0.1-0.4-0.2-0.9-0.3-1.3c-0.1-0.4-0.1-0.9-0.2-1.3c-0.5,0.9-1.2,1.6-2,2.2c-0.8,0.6-1.7,0.8-2.7,0.8
		c-1.7,0-2.9-0.5-3.9-1.6c-0.9-1-1.4-2.4-1.4-4.2c0-1.9,0.6-3.3,1.9-4.4c1.3-1.1,3.1-1.6,5.4-1.6h2.7v-2c0-1.2-0.3-2.1-0.8-2.8
		c-0.5-0.7-1.3-1-2.3-1c-0.9,0-1.6,0.3-2.1,0.9c-0.5,0.6-0.8,1.3-0.8,2.2l-3.5,0l-0.1-0.1c-0.1-1.5,0.5-2.9,1.8-4s2.9-1.8,4.9-1.8
		c1.9,0,3.5,0.6,4.7,1.7c1.2,1.1,1.8,2.8,1.8,4.9v9.1c0,0.8,0,1.5,0.1,2.2c0.1,0.7,0.2,1.4,0.4,2.1H-190.6z M-195,522.3
		c0.9,0,1.6-0.3,2.3-0.8c0.7-0.5,1.2-1.1,1.5-1.9v-4h-2.8c-1.1,0-2,0.4-2.6,1.1c-0.6,0.7-0.9,1.6-0.9,2.6c0,0.9,0.2,1.6,0.6,2.1
		S-195.8,522.3-195,522.3z"/>
	<path d="M-163.8,516.6c0,2.6-0.6,4.7-1.7,6.2c-1.1,1.5-2.7,2.3-4.7,2.3c-1,0-1.9-0.2-2.7-0.7c-0.8-0.5-1.4-1.1-1.9-2l-0.3,2.3h-3.2
		v-28.2h3.7v10.7c0.5-0.8,1.1-1.4,1.8-1.8c0.7-0.4,1.6-0.6,2.5-0.6c2.1,0,3.6,0.8,4.8,2.5s1.7,3.9,1.7,6.6V516.6z M-167.5,513.9
		c0-1.9-0.3-3.4-0.9-4.5c-0.6-1.1-1.5-1.7-2.8-1.7c-0.8,0-1.5,0.2-2.1,0.7c-0.6,0.5-1,1.1-1.3,2v9.4c0.3,0.8,0.8,1.4,1.4,1.9
		s1.3,0.7,2.1,0.7c1.3,0,2.2-0.5,2.8-1.5c0.6-1,0.9-2.4,0.9-4.2V513.9z"/>
	<path d="M-148.5,522.3c0.9,0,1.7-0.4,2.3-1.1c0.6-0.7,0.9-1.6,0.9-2.8h3.3l0,0.1c0,1.8-0.6,3.4-1.9,4.7c-1.3,1.3-2.9,1.9-4.7,1.9
		c-2.4,0-4.3-0.8-5.6-2.5c-1.3-1.7-1.9-3.8-1.9-6.3v-2.7c0-2.6,0.6-4.7,1.9-6.3c1.3-1.7,3.2-2.5,5.6-2.5c2,0,3.6,0.7,4.8,2
		c1.2,1.3,1.8,3,1.8,5.1l-0.1,0.1h-3.3c0-1.3-0.3-2.4-0.9-3.2c-0.6-0.8-1.4-1.2-2.4-1.2c-1.4,0-2.4,0.6-3,1.7
		c-0.6,1.1-0.9,2.6-0.9,4.3v2.7c0,1.8,0.3,3.2,0.9,4.3C-150.9,521.7-149.9,522.3-148.5,522.3z"/>
	<path d="M-134.4,515.2c0-3.1,0.6-5.6,1.7-7.5c1.1-1.9,2.7-2.8,4.8-2.8c0.9,0,1.7,0.2,2.4,0.6c0.7,0.4,1.3,1,1.9,1.8v-10.7h3.6v28.2
		h-3.2l-0.3-2.2c-0.5,0.9-1.2,1.5-1.9,2s-1.6,0.7-2.6,0.7c-2,0-3.6-0.9-4.7-2.6s-1.7-4-1.7-6.9V515.2z M-130.7,515.5
		c0,2.1,0.3,3.7,0.9,4.9s1.5,1.8,2.8,1.8c0.8,0,1.5-0.2,2-0.7c0.6-0.4,1-1,1.4-1.8v-9.5c-0.3-0.8-0.8-1.4-1.4-1.9
		c-0.6-0.5-1.2-0.7-2-0.7c-1.3,0-2.2,0.7-2.8,2.1c-0.6,1.4-0.9,3.2-0.9,5.4V515.5z"/>
	<path d="M-103.7,525.1c-2.3,0-4.2-0.8-5.6-2.4c-1.4-1.6-2.1-3.7-2.1-6.2v-2.9c0-2.6,0.7-4.7,2.1-6.3c1.4-1.7,3.1-2.5,5.2-2.5
		c2.2,0,3.9,0.8,5.1,2.3s1.8,3.5,1.8,6.1v2.5h-10.5v0.8c0,1.7,0.4,3.1,1.1,4.2c0.7,1.1,1.8,1.7,3.2,1.7c1,0,1.9-0.2,2.6-0.5
		c0.7-0.3,1.4-0.8,2.1-1.4l1.2,2.3c-0.6,0.7-1.4,1.3-2.5,1.7S-102.3,525.1-103.7,525.1z M-104.1,507.6c-1.1,0-1.9,0.5-2.5,1.6
		c-0.6,1-1,2.3-1.1,3.9h6.9v-0.7c0-1.4-0.3-2.5-0.8-3.4C-102.2,508-103,507.6-104.1,507.6z"/>
	<path d="M-87.6,524.7v-16.9h-2.5v-2.6h2.5v-2.5c0-2.1,0.5-3.7,1.5-4.8c1-1.1,2.4-1.7,4.2-1.7c0.3,0,0.7,0,1.1,0.1
		c0.4,0.1,0.8,0.2,1.2,0.3l-0.4,2.7c-0.2-0.1-0.4-0.1-0.7-0.1c-0.3,0-0.5-0.1-0.8-0.1c-0.8,0-1.4,0.3-1.8,0.9
		c-0.4,0.6-0.6,1.5-0.6,2.7v2.5h3.4v2.6H-84v16.9H-87.6z"/>
	<path d="M-73.8,514.1c0-2.8,0.6-5.1,1.7-6.8c1.2-1.7,2.7-2.6,4.8-2.6c1,0,1.9,0.2,2.6,0.7c0.7,0.5,1.4,1.1,1.9,2l0.3-2.3h3.2v19.5
		c0,2.5-0.7,4.5-2,5.9c-1.3,1.4-3.2,2.1-5.6,2.1c-0.8,0-1.7-0.1-2.6-0.4c-0.9-0.3-1.8-0.6-2.5-1l0.8-2.7c0.6,0.4,1.3,0.7,2,0.9
		c0.7,0.2,1.5,0.3,2.3,0.3c1.3,0,2.3-0.4,3-1.3c0.6-0.9,1-2.1,1-3.8v-1.8c-0.5,0.7-1.1,1.3-1.9,1.7c-0.7,0.4-1.5,0.6-2.5,0.6
		c-2,0-3.6-0.8-4.8-2.3c-1.1-1.6-1.7-3.6-1.7-6.2V514.1z M-70.1,516.6c0,1.7,0.3,3.1,0.9,4.1c0.6,1,1.5,1.5,2.8,1.5
		c0.8,0,1.5-0.2,2-0.6c0.6-0.4,1-1,1.4-1.7v-9.7c-0.4-0.8-0.8-1.4-1.4-1.8c-0.6-0.5-1.2-0.7-2-0.7c-1.3,0-2.2,0.6-2.8,1.8
		c-0.6,1.2-0.9,2.8-0.9,4.7V516.6z"/>
	<path d="M-46.5,507.8c0.5-0.9,1.2-1.7,2-2.2c0.8-0.5,1.7-0.8,2.7-0.8c1.8,0,3.1,0.7,4.1,2s1.5,3.3,1.5,6v12H-40v-12
		c0-1.8-0.3-3.1-0.8-3.9c-0.5-0.8-1.3-1.2-2.3-1.2c-0.7,0-1.4,0.2-2,0.6c-0.6,0.4-1.1,1-1.4,1.8v14.7h-3.7v-28.2h3.7V507.8z"/>
	<path d="M-23.3,500H-27v-3.5h3.7V500z M-23.3,524.7H-27v-19.5h3.7V524.7z"/>
	<path d="M-9.8,505.2V526c0,2.1-0.5,3.7-1.4,4.9c-0.9,1.1-2.3,1.7-4,1.7c-0.4,0-0.7,0-1-0.1c-0.3-0.1-0.6-0.1-0.9-0.2l0.2-2.8
		c0.2,0.1,0.4,0.1,0.7,0.2s0.5,0.1,0.7,0.1c0.6,0,1.1-0.3,1.5-0.9c0.4-0.6,0.6-1.5,0.6-2.8v-20.9H-9.8z M-9.8,500h-3.7v-3.5h3.7V500
		z"/>
	<path d="M4.8,515.7H3.3v9h-3.6v-28.2h3.6v16.4h1.5l4.3-7.8h4.3L7.7,514l6.5,10.7H9.9L4.8,515.7z"/>
	<path d="M25.1,524.7h-3.7v-28.2h3.7V524.7z"/>
	<path d="M37.9,505.2l0.2,2.7c0.5-1,1.2-1.7,2-2.2c0.8-0.5,1.8-0.8,2.9-0.8c1.1,0,2,0.3,2.8,0.9c0.8,0.6,1.4,1.5,1.8,2.7
		c0.5-1.1,1.2-2,2-2.7c0.8-0.6,1.8-1,3-1c1.7,0,3,0.7,3.9,2.1c1,1.4,1.4,3.4,1.4,6.2v11.6h-3.7v-11.6c0-2-0.2-3.4-0.7-4.2
		c-0.5-0.8-1.2-1.2-2.2-1.2c-0.8,0-1.5,0.3-2.1,0.9c-0.6,0.6-1,1.5-1.2,2.5c0-0.1,0,0.1,0,0.5c0,0.4,0,0.7,0,0.9v12.2h-3.6v-11.6
		c0-1.9-0.3-3.3-0.8-4.2s-1.2-1.3-2.2-1.3c-0.8,0-1.4,0.2-2,0.6s-1,1-1.3,1.8v14.6h-3.6v-19.5H37.9z"/>
</g>
<g class="st1">
	<path d="M-197.2,549.6l0.2,2.9c0.5-1,1.2-1.8,2.1-2.4s1.8-0.9,2.8-0.9c1.7,0,3,0.6,4,1.9c1,1.3,1.4,3.2,1.4,5.9v12.1h-3.7V557
		c0-1.8-0.3-3.1-0.8-3.8c-0.5-0.7-1.3-1.1-2.3-1.1c-0.7,0-1.4,0.2-2,0.7c-0.6,0.5-1,1.1-1.4,1.9v14.5h-3.7v-19.5H-197.2z"/>
	<path d="M-178.3,558.1c0-2.6,0.7-4.7,2-6.4c1.4-1.7,3.2-2.5,5.6-2.5c2.3,0,4.2,0.8,5.6,2.5c1.4,1.7,2,3.8,2,6.4v2.5
		c0,2.6-0.7,4.7-2,6.4c-1.4,1.7-3.2,2.5-5.6,2.5c-2.4,0-4.2-0.8-5.6-2.5c-1.4-1.7-2-3.8-2-6.4V558.1z M-174.6,560.6
		c0,1.8,0.3,3.3,1,4.4c0.7,1.1,1.6,1.7,3,1.7c1.3,0,2.3-0.6,2.9-1.7c0.7-1.1,1-2.6,1-4.4v-2.5c0-1.8-0.3-3.2-1-4.4
		c-0.7-1.2-1.6-1.7-3-1.7c-1.3,0-2.3,0.6-3,1.7s-1,2.6-1,4.4V560.6z"/>
	<path d="M-140.2,561c0,2.6-0.6,4.6-1.7,6.2s-2.7,2.3-4.7,2.3c-1,0-1.8-0.2-2.5-0.6s-1.3-0.9-1.9-1.6v9.3h-3.7v-27.1h3.3l0.2,2.2
		c0.5-0.8,1.2-1.5,1.9-1.9c0.7-0.5,1.6-0.7,2.6-0.7c2,0,3.6,0.9,4.8,2.6s1.7,4,1.7,6.8V561z M-143.8,558.5c0-1.9-0.3-3.5-0.9-4.7
		c-0.6-1.2-1.6-1.8-2.8-1.8c-0.8,0-1.5,0.2-2,0.7c-0.6,0.4-1,1.1-1.3,1.8v9.9c0.3,0.7,0.8,1.3,1.3,1.7c0.6,0.4,1.2,0.6,2,0.6
		c1.3,0,2.2-0.5,2.8-1.6s0.9-2.4,0.9-4.2V558.5z"/>
	<path d="M-132.3,558.5c0-2.8,0.6-5.1,1.7-6.8s2.7-2.6,4.8-2.6c1,0,1.8,0.2,2.5,0.7c0.7,0.4,1.4,1.1,1.9,1.9l0.3-2.2h3.2v27.1h-3.7
		v-9.3c-0.5,0.7-1.1,1.2-1.8,1.6s-1.5,0.5-2.4,0.5c-2,0-3.6-0.8-4.7-2.3s-1.7-3.6-1.7-6.2V558.5z M-128.7,561c0,1.7,0.3,3.1,0.9,4.2
		s1.5,1.6,2.8,1.6c0.8,0,1.4-0.2,2-0.6c0.5-0.4,1-0.9,1.3-1.6v-10.2c-0.3-0.7-0.8-1.3-1.3-1.7s-1.2-0.6-1.9-0.6
		c-1.3,0-2.2,0.6-2.8,1.8c-0.6,1.2-0.9,2.8-0.9,4.7V561z"/>
	<path d="M-100.2,552.6l-1.7-0.1c-0.8,0-1.4,0.2-1.9,0.7s-0.9,1.1-1.1,1.9v13.9h-3.7v-19.5h3.3l0.3,2.9c0.4-1,0.9-1.8,1.6-2.4
		c0.7-0.6,1.4-0.9,2.3-0.9c0.2,0,0.5,0,0.7,0.1s0.5,0.1,0.6,0.2L-100.2,552.6z"/>
	<path d="M-83.1,564.2c0-0.8-0.2-1.4-0.8-1.9c-0.5-0.5-1.4-1.1-2.8-1.7c-2-0.8-3.5-1.6-4.5-2.5c-1-0.9-1.5-2-1.5-3.4
		c0-1.5,0.6-2.8,1.8-3.8c1.2-1.1,2.7-1.6,4.7-1.6c2,0,3.6,0.6,4.8,1.7c1.2,1.1,1.8,2.6,1.7,4.3l0,0.1h-3.5c0-0.9-0.3-1.7-0.8-2.4
		c-0.5-0.7-1.2-1-2.2-1c-0.9,0-1.6,0.3-2.1,0.8c-0.5,0.5-0.8,1.1-0.8,1.8c0,0.7,0.2,1.3,0.7,1.8c0.4,0.4,1.4,1,2.8,1.7
		c2,0.7,3.6,1.6,4.6,2.5c1,0.9,1.5,2.1,1.5,3.6c0,1.6-0.6,2.9-1.8,3.9s-2.8,1.5-4.8,1.5c-2.2,0-3.9-0.6-5.1-1.8
		c-1.2-1.2-1.8-2.7-1.8-4.3l0-0.1h3.4c0,1.3,0.4,2.2,1,2.7c0.7,0.6,1.5,0.8,2.4,0.8c1,0,1.7-0.2,2.2-0.7
		C-83.4,565.6-83.1,565-83.1,564.2z"/>
	<path d="M-66.5,544.7v4.9h3.1v2.6h-3.1v11.6c0,1,0.2,1.7,0.5,2.2c0.3,0.4,0.7,0.6,1.2,0.6c0.3,0,0.6,0,0.8-0.1
		c0.2,0,0.5-0.1,0.9-0.2l0.4,2.5c-0.4,0.2-0.9,0.3-1.4,0.4s-1,0.2-1.6,0.2c-1.4,0-2.5-0.5-3.2-1.4s-1.1-2.3-1.1-4.3v-11.6h-2.5v-2.6
		h2.5v-4.9H-66.5z"/>
	<path d="M-44.5,566.5c-0.5,1-1.2,1.7-2,2.2c-0.8,0.5-1.7,0.8-2.8,0.8c-1.8,0-3.2-0.7-4.1-2s-1.5-3.5-1.5-6.3v-11.5h3.6v11.6
		c0,2,0.2,3.4,0.7,4.3c0.5,0.8,1.2,1.3,2.1,1.3c0.9,0,1.7-0.2,2.3-0.6c0.6-0.4,1.1-1,1.5-1.8v-14.7h3.7v19.5h-3.3L-44.5,566.5z"/>
	<path d="M-26.2,563.2l0.3,1.5h0.1l0.3-1.5l3.3-13.7h3.8l-5.9,19.5h-3.2l-5.9-19.5h3.8L-26.2,563.2z"/>
	<path d="M3.8,562.8h0.1l2.6-13.2H10l-4.5,19.5h-3l-3.5-13h-0.1l-3.5,13h-3l-4.5-19.5h3.5l2.6,13.1h0.1l3.5-13.1h2.6L3.8,562.8z"/>
	<path d="M23.8,556.7h0.1l3.1-7.1h4.2l-5.2,9.6l5.4,9.9h-4.2l-3.2-7.4h-0.1l-3.2,7.4h-4.2l5.3-9.9l-5.2-9.6h4.2L23.8,556.7z"/>
	<path d="M44.5,562.4l0.3,1.3h0.1l3.8-14.1h4l-6.8,22.6c-0.5,1.3-1.1,2.5-1.9,3.4S42,577,40.5,577c-0.3,0-0.6,0-1-0.1
		c-0.3-0.1-0.7-0.1-1-0.2L39,574c0.1,0,0.3,0,0.5,0.1c0.2,0,0.4,0,0.5,0c0.7,0,1.3-0.3,1.7-0.9c0.4-0.6,0.7-1.3,1-2.2l0.7-2l-6-19.5
		h4L44.5,562.4z"/>
	<path d="M63.4,566.3h9v2.8h-13v-2.3l8.6-14.4h-8.4v-2.8H72v2.3L63.4,566.3z"/>
</g>
<g class="st1">
	<path class="st3" d="M-162.3,626.4h-3.6v-22.7l-5.1,0.3v-2.4l8.8-1.7V626.4z"/>
	<path class="st3" d="M-134.1,626.4h-14.8V624l7.2-9.5c1.2-1.7,2-3,2.4-4.1c0.5-1.1,0.7-2.1,0.7-3.1c0-1.4-0.3-2.5-0.9-3.4
		c-0.6-0.9-1.4-1.3-2.4-1.3c-1.3,0-2.3,0.5-2.9,1.5c-0.6,1-1,2.3-1,4h-3.5l0-0.1c0-2.3,0.6-4.2,1.9-5.8c1.3-1.6,3.2-2.3,5.5-2.3
		c2.1,0,3.8,0.7,5.1,2c1.2,1.4,1.9,3.1,1.9,5.4c0,1.5-0.4,3-1.1,4.5c-0.8,1.5-1.9,3.1-3.3,4.9l-5,7.1h10.2V626.4z"/>
	<path class="st3" d="M-121.5,611.6h2.5c1.2,0,2.1-0.4,2.7-1.2c0.6-0.8,0.8-1.9,0.8-3.3c0-1.4-0.3-2.5-0.9-3.4
		c-0.6-0.8-1.4-1.2-2.6-1.2c-1,0-1.9,0.4-2.5,1.2c-0.7,0.8-1,1.9-1,3.2h-3.5l-0.1-0.1c0-2,0.6-3.7,1.9-5.1c1.3-1.4,3-2,5.1-2
		c2.2,0,3.9,0.6,5.2,1.9c1.3,1.3,2,3.1,2,5.5c0,1.2-0.3,2.3-0.9,3.4s-1.5,1.9-2.6,2.4c1.3,0.5,2.3,1.3,2.9,2.4c0.6,1.1,1,2.4,1,3.8
		c0,2.4-0.7,4.3-2.1,5.6c-1.4,1.4-3.2,2-5.4,2c-2,0-3.8-0.6-5.2-1.9c-1.4-1.3-2.1-3.1-2.1-5.4l0.1-0.1h3.5c0,1.4,0.3,2.5,1,3.4
		s1.6,1.3,2.7,1.3c1.2,0,2.1-0.4,2.8-1.3c0.7-0.8,1-2,1-3.6c0-1.6-0.3-2.8-1-3.6c-0.6-0.8-1.6-1.2-2.9-1.2h-2.5V611.6z"/>
	<path class="st3" d="M-90.2,617.4h2.8v2.8h-2.8v6.2h-3.6v-6.2h-9.6l-0.1-2l9.6-18.1h3.8V617.4z M-99.9,617.4h6.1v-12l-0.1,0
		l-0.4,0.8L-99.9,617.4z"/>
	<path class="st3" d="M-78.9,614.6l1.3-14.5h11.8v3h-8.7l-0.7,7.8c0.4-0.5,1-0.8,1.6-1.1c0.6-0.3,1.3-0.5,2-0.5
		c2.1,0,3.7,0.7,4.9,2.3c1.2,1.6,1.8,3.7,1.8,6.4c0,2.6-0.6,4.7-1.9,6.3c-1.2,1.6-3,2.4-5.4,2.4c-2,0-3.6-0.6-5-1.9
		c-1.3-1.3-2-3.1-2-5.4l0-0.1l3.5-0.1c0,1.5,0.3,2.6,0.9,3.5c0.6,0.8,1.5,1.2,2.5,1.2c1.2,0,2.1-0.5,2.7-1.6
		c0.6-1.1,0.9-2.5,0.9-4.4c0-1.8-0.3-3.2-0.9-4.2c-0.6-1.1-1.5-1.6-2.7-1.6c-1,0-1.8,0.2-2.3,0.7c-0.5,0.5-0.9,1.1-1.1,2
		L-78.9,614.6z"/>
	<path class="st3" d="M-47.9,599.7c0.8,0,1.6,0.1,2.3,0.3s1.4,0.5,2,0.8l-0.7,2.7c-0.5-0.3-1.1-0.6-1.6-0.7
		c-0.6-0.2-1.2-0.3-1.9-0.3c-1.5,0-2.7,0.7-3.6,2.1c-0.9,1.4-1.4,3.3-1.4,5.7v0.7c0.6-0.7,1.3-1.2,2.1-1.6c0.8-0.4,1.7-0.6,2.7-0.6
		c2,0,3.6,0.8,4.7,2.5c1.2,1.6,1.7,3.7,1.7,6.3c0,2.6-0.7,4.8-2,6.5s-3.1,2.6-5.2,2.6c-2.3,0-4.1-0.9-5.5-2.8s-2.2-4.4-2.2-7.7v-5.7
		c0-3.3,0.8-5.9,2.4-7.9C-52.4,600.7-50.4,599.7-47.9,599.7z M-48.9,611.6c-0.9,0-1.7,0.2-2.4,0.7c-0.7,0.4-1.2,1.1-1.5,1.8v2.4
		c0,2.4,0.4,4.2,1.1,5.5c0.8,1.3,1.7,2,2.9,2c1.1,0,1.9-0.6,2.6-1.8c0.6-1.2,1-2.7,1-4.5c0-1.8-0.3-3.2-1-4.4
		C-46.9,612.2-47.8,611.6-48.9,611.6z"/>
	<path class="st3" d="M-18.8,602.9c-2.5,3.3-4.2,6.6-5.2,9.6c-0.9,3.1-1.6,6.9-2,11.4l-0.2,2.5h-3.6l0.2-2.5
		c0.4-4.2,1.2-8.1,2.4-11.5c1.2-3.4,2.8-6.6,4.9-9.5h-11.8v-2.8h15.4V602.9z"/>
	<path class="st3" d="M3.6,607c0,1.4-0.3,2.6-1,3.6s-1.6,1.8-2.7,2.3c1.3,0.5,2.3,1.4,3.1,2.5c0.8,1.1,1.1,2.4,1.1,3.9
		c0,2.4-0.7,4.3-2.1,5.5c-1.4,1.3-3.1,1.9-5.3,1.9c-2.2,0-4-0.6-5.4-1.9c-1.4-1.3-2.1-3.1-2.1-5.5c0-1.5,0.4-2.8,1.1-3.9
		s1.8-2,3.1-2.5c-1.1-0.5-2-1.3-2.7-2.3c-0.7-1-1-2.2-1-3.6c0-2.3,0.6-4.1,1.9-5.3s2.9-1.9,5-1.9c2,0,3.7,0.6,5,1.9
		C3,602.9,3.6,604.7,3.6,607z M0.5,619.2c0-1.4-0.4-2.6-1.1-3.5s-1.6-1.4-2.7-1.4c-1.1,0-2,0.5-2.7,1.4c-0.7,0.9-1,2.1-1,3.5
		c0,1.5,0.3,2.7,1,3.5c0.7,0.8,1.6,1.3,2.8,1.3c1.1,0,2-0.4,2.7-1.3C0.2,621.9,0.5,620.7,0.5,619.2z M-0.1,607
		c0-1.3-0.3-2.4-0.9-3.3s-1.4-1.3-2.3-1.3c-1,0-1.7,0.4-2.3,1.2c-0.6,0.8-0.9,1.9-0.9,3.3c0,1.4,0.3,2.5,0.9,3.3
		c0.6,0.8,1.4,1.2,2.3,1.2c1,0,1.7-0.4,2.3-1.2C-0.4,609.5-0.1,608.4-0.1,607z"/>
	<path class="st3" d="M18.8,624c1.3,0,2.4-0.6,3.2-1.9c0.8-1.2,1.2-3,1.2-5.4v-1.3c-0.5,0.9-1.1,1.5-1.9,2c-0.7,0.4-1.5,0.7-2.4,0.7
		c-2.1,0-3.8-0.8-5-2.4c-1.2-1.6-1.8-3.8-1.8-6.6c0-2.7,0.7-4.9,2.1-6.7c1.4-1.8,3.1-2.7,5.1-2.7c2.3,0,4.1,0.9,5.5,2.6
		c1.4,1.7,2.1,4.2,2.1,7.5v6.9c0,3.2-0.8,5.7-2.3,7.5c-1.5,1.8-3.5,2.6-5.9,2.6c-0.7,0-1.5-0.1-2.3-0.3s-1.6-0.5-2.3-0.8l0.5-2.7
		c0.6,0.3,1.3,0.6,1.9,0.8C17.2,623.9,18,624,18.8,624z M19.4,615.3c0.9,0,1.7-0.3,2.4-0.8s1.2-1.2,1.5-2.1v-3.1c0-2.3-0.3-4-1-5.2
		c-0.7-1.2-1.6-1.8-2.8-1.8c-1,0-1.9,0.6-2.6,1.9c-0.7,1.3-1,2.8-1,4.7c0,1.9,0.3,3.4,0.9,4.5S18.3,615.3,19.4,615.3z"/>
	<path class="st3" d="M50.2,616.2c0,3.4-0.7,6-2,7.8c-1.3,1.8-3.1,2.7-5.3,2.7c-2.3,0-4-0.9-5.4-2.7c-1.3-1.8-2-4.4-2-7.8v-5.9
		c0-3.4,0.7-6,2-7.8c1.3-1.8,3.1-2.7,5.3-2.7s4,0.9,5.3,2.7c1.3,1.8,2,4.4,2,7.8V616.2z M46.5,609.7c0-2.4-0.3-4.2-0.9-5.4
		c-0.6-1.2-1.5-1.8-2.7-1.8c-1.2,0-2.1,0.6-2.7,1.8s-0.9,3-0.9,5.4v7c0,2.4,0.3,4.2,0.9,5.4c0.6,1.2,1.5,1.8,2.7,1.8
		c1.2,0,2.1-0.6,2.7-1.8s0.9-3,0.9-5.4V609.7z"/>
</g>
<g class="st1">
	<path class="st3" d="M101.4,365.3c-0.5-3.3-0.9-6.1-1.2-8.2c-0.3-2.1-0.4-4.3-0.4-6.5c-2.9,4.8-6.7,8.8-11.3,11.9
		c-4.7,3.1-9.8,4.7-15.5,4.7c-7.9,0-14.1-2.5-18.4-7.4c-4.3-5-6.5-11.6-6.5-20.1c0-9,3.1-16.1,9.4-21.4c6.3-5.3,14.8-8,25.5-8h16.8
		v-11.8c0-6.8-1.7-12.2-5.2-16c-3.4-3.9-8.2-5.8-14.4-5.8c-5.8,0-10.5,1.8-14.2,5.5c-3.7,3.7-5.6,8.2-5.6,13.5l-10-0.1l-0.2-0.5
		c-0.3-7.2,2.4-13.7,8.2-19.4c5.8-5.7,13.2-8.5,22.2-8.5c8.9,0,16.1,2.7,21.5,8.1c5.5,5.4,8.2,13.2,8.2,23.3v47.2
		c0,3.4,0.1,6.8,0.4,10c0.3,3.2,0.8,6.3,1.6,9.4H101.4z M74.2,357.6c5.9,0,11.2-1.7,15.8-5.1c4.6-3.4,7.8-7.8,9.7-13v-20.8H82.7
		c-7.3,0-13.1,2.1-17.5,6.2c-4.4,4.1-6.5,9.2-6.5,15.3c0,5.2,1.4,9.4,4.1,12.6C65.5,356,69.3,357.6,74.2,357.6z"/>
</g>
<g class="st1">
	<path d="M-244.5,290.1h-11l-2.5,8.7h-4.9l10.6-34.5h4.6l10.5,34.5h-4.9L-244.5,290.1z M-254.4,286.3h8.8l-4.3-15.1h-0.1
		L-254.4,286.3z"/>
	<path d="M-220.8,298.9c-0.2-0.6-0.3-1.2-0.4-1.7c-0.1-0.6-0.2-1.1-0.2-1.7c-0.7,1.2-1.6,2.1-2.7,2.8c-1.1,0.7-2.3,1.1-3.6,1.1
		c-2.2,0-3.9-0.7-5.1-2.1c-1.2-1.4-1.8-3.2-1.8-5.5c0-2.5,0.8-4.4,2.5-5.8c1.7-1.4,4-2.1,7-2.1h3.6v-2.6c0-1.6-0.3-2.8-1-3.6
		c-0.7-0.9-1.7-1.3-3-1.3c-1.2,0-2.1,0.4-2.8,1.2c-0.7,0.8-1.1,1.8-1.1,2.9l-4.6,0l-0.1-0.1c-0.1-2,0.7-3.7,2.4-5.3
		c1.7-1.5,3.8-2.3,6.4-2.3c2.5,0,4.6,0.7,6.2,2.2c1.6,1.5,2.4,3.6,2.4,6.4v11.9c0,1,0.1,2,0.2,2.9s0.3,1.8,0.6,2.7H-220.8z
		 M-226.6,295.7c1.1,0,2.1-0.3,3.1-1c0.9-0.7,1.6-1.5,2-2.5v-5.3h-3.7c-1.5,0-2.6,0.5-3.4,1.4c-0.8,0.9-1.2,2.1-1.2,3.5
		c0,1.2,0.3,2.1,0.8,2.8C-228.4,295.3-227.6,295.7-226.6,295.7z"/>
	<path d="M-167.5,286.4c0,2-0.3,3.9-0.8,5.5c-0.6,1.6-1.3,3-2.3,4.1l5.2,5.5l-3.1,2.6l-5.4-5.8c-0.8,0.4-1.6,0.6-2.5,0.8
		s-1.8,0.3-2.7,0.3c-3.5,0-6.3-1.1-8.4-3.4c-2.1-2.3-3.1-5.5-3.1-9.6v-9.5c0-4.1,1-7.3,3.1-9.6c2.1-2.3,4.9-3.5,8.4-3.5
		c3.5,0,6.4,1.2,8.5,3.5c2.1,2.3,3.2,5.5,3.2,9.6V286.4z M-172.2,276.8c0-3-0.6-5.3-1.8-6.8c-1.2-1.6-2.9-2.3-5.1-2.3
		c-2.2,0-3.8,0.8-5,2.3c-1.2,1.6-1.7,3.8-1.7,6.8v9.6c0,3,0.6,5.3,1.7,6.9c1.2,1.6,2.8,2.3,5,2.3c2.2,0,3.9-0.8,5.1-2.3
		c1.2-1.6,1.8-3.9,1.8-6.9V276.8z"/>
	<path d="M-162.2,285c0-3.7,0.7-6.7,2.2-8.9s3.6-3.4,6.2-3.4c1.2,0,2.4,0.3,3.3,0.9c1,0.6,1.8,1.4,2.5,2.5l0.4-2.8h4.2v35.5h-4.8
		v-12.2c-0.7,0.9-1.5,1.6-2.4,2.1c-0.9,0.5-2,0.7-3.1,0.7c-2.7,0-4.7-1-6.2-3.1c-1.5-2-2.2-4.8-2.2-8.1V285z M-157.4,288.2
		c0,2.3,0.4,4.1,1.2,5.5c0.8,1.4,2,2.1,3.7,2.1c1,0,1.8-0.3,2.6-0.8c0.7-0.5,1.3-1.2,1.8-2.2v-13.3c-0.4-1-1-1.7-1.7-2.2
		s-1.6-0.8-2.5-0.8c-1.7,0-2.9,0.8-3.7,2.4c-0.8,1.6-1.2,3.7-1.2,6.2V288.2z"/>
	<path d="M-111.2,284v14.9h-4.8v-34.5h10.7c3.3,0,5.8,0.8,7.6,2.5c1.8,1.7,2.7,4.1,2.7,7.3c0,1.8-0.4,3.4-1.2,4.7s-2,2.4-3.6,3.2
		c1.7,0.6,3,1.6,3.7,3c0.8,1.4,1.2,3.1,1.2,5.2v3c0,1.1,0.1,2,0.3,3c0.2,0.9,0.6,1.6,1.1,2.1v0.5h-5c-0.5-0.5-0.9-1.3-1-2.4
		c-0.2-1.1-0.2-2.2-0.2-3.3v-2.9c0-1.9-0.4-3.5-1.3-4.6s-2.1-1.7-3.6-1.7H-111.2z M-111.2,280.3h5.7c1.9,0,3.4-0.5,4.3-1.6
		c0.9-1.1,1.4-2.5,1.4-4.5c0-2-0.5-3.5-1.4-4.6c-0.9-1.1-2.3-1.6-4.1-1.6h-5.9V280.3z"/>
	<path d="M-78,277.3l-2.3-0.1c-1,0-1.8,0.3-2.5,0.9c-0.7,0.6-1.2,1.4-1.5,2.5v18.3H-89v-25.7h4.4l0.4,3.9c0.5-1.4,1.2-2.4,2.1-3.2
		c0.9-0.8,1.9-1.1,3-1.1c0.3,0,0.6,0,1,0.1c0.3,0.1,0.6,0.1,0.8,0.2L-78,277.3z"/>
</g>
<g class="st1">
	<path d="M-245.5,358h-9.1l-1.8,7.4h-6.8l9.7-34.5h7l9.7,34.5h-6.8L-245.5,358z M-253.2,352.6h6.4l-3.1-12.2h-0.1L-253.2,352.6z"/>
	<path d="M-222,365.3c-0.2-0.4-0.4-0.9-0.5-1.4c-0.2-0.5-0.3-1-0.3-1.5c-0.6,1-1.4,1.9-2.3,2.5c-0.9,0.6-2,0.9-3.2,0.9
		c-2.1,0-3.8-0.7-5.1-2.1c-1.3-1.4-1.9-3.2-1.9-5.6c0-2.5,0.8-4.5,2.4-5.9c1.6-1.4,4-2.1,7.2-2.1h2.5v-2.1c0-1.2-0.2-2.2-0.7-2.9
		c-0.5-0.7-1.1-1-2-1c-0.8,0-1.3,0.3-1.7,0.8c-0.4,0.5-0.6,1.3-0.6,2.3l-6.5,0l-0.1-0.1c-0.1-2.2,0.7-4.1,2.5-5.7
		c1.7-1.6,4-2.3,6.8-2.3c2.7,0,4.8,0.8,6.5,2.3c1.7,1.6,2.5,3.8,2.5,6.7v10.4c0,1.3,0.1,2.4,0.3,3.5c0.2,1.1,0.4,2.2,0.8,3.2H-222z
		 M-226.4,360.8c0.7,0,1.3-0.2,1.9-0.5c0.6-0.4,1-0.8,1.4-1.4v-4.7h-2.5c-1,0-1.8,0.4-2.2,1.1c-0.5,0.7-0.7,1.6-0.7,2.7
		c0,0.9,0.2,1.5,0.6,2.1C-227.6,360.5-227.1,360.8-226.4,360.8z"/>
	<path d="M-167,352.9c0,1.8-0.2,3.4-0.7,4.9c-0.5,1.5-1.1,2.7-1.9,3.8l5.1,5.6l-4.2,3.6l-5.3-5.9c-0.8,0.3-1.6,0.5-2.4,0.7
		s-1.7,0.2-2.6,0.2c-3.7,0-6.6-1.1-8.8-3.4s-3.3-5.4-3.3-9.5v-9.7c0-4,1.1-7.2,3.3-9.5c2.2-2.3,5.1-3.5,8.7-3.5
		c3.6,0,6.6,1.1,8.8,3.5c2.2,2.3,3.3,5.5,3.3,9.5V352.9z M-173.7,343.2c0-2.5-0.5-4.3-1.4-5.6s-2.3-1.9-4-1.9c-1.8,0-3.1,0.6-4,1.9
		c-0.9,1.3-1.3,3.1-1.3,5.6v9.8c0,2.5,0.5,4.4,1.4,5.6c0.9,1.3,2.2,1.9,4,1.9c1.7,0,3.1-0.6,4-1.9c0.9-1.3,1.4-3.1,1.4-5.6V343.2z"
		/>
	<path d="M-162.3,351.3c0-3.6,0.7-6.5,2.2-8.8c1.5-2.2,3.6-3.3,6.3-3.3c1.1,0,2.1,0.3,3,0.8c0.9,0.6,1.6,1.4,2.3,2.4l0.5-2.8h5.9
		v35.5h-6.8v-11.8c-0.6,0.8-1.3,1.4-2.1,1.8c-0.8,0.4-1.7,0.6-2.7,0.6c-2.7,0-4.8-1-6.3-3.1c-1.5-2.1-2.2-4.8-2.2-8.2V351.3z
		 M-155.6,354.5c0,1.9,0.3,3.3,0.8,4.4c0.5,1.1,1.4,1.6,2.7,1.6c0.7,0,1.3-0.1,1.8-0.4c0.5-0.3,0.9-0.7,1.3-1.3v-12.2
		c-0.3-0.6-0.8-1.1-1.3-1.4s-1.1-0.5-1.8-0.5c-1.2,0-2.1,0.6-2.7,1.8c-0.6,1.2-0.8,2.8-0.8,4.9V354.5z"/>
	<path d="M-109.3,351.6v13.7h-6.7v-34.5h11.3c3.4,0,6.1,0.9,8,2.7s2.9,4.3,2.9,7.5c0,1.8-0.4,3.4-1.2,4.7c-0.8,1.3-2,2.3-3.5,3.1
		c1.8,0.6,3,1.6,3.8,3c0.8,1.4,1.2,3.1,1.2,5.2v2.4c0,0.9,0.1,2,0.3,3s0.6,1.9,1.2,2.4v0.5h-7c-0.6-0.5-0.9-1.3-1-2.5
		c-0.1-1.1-0.2-2.3-0.2-3.5V357c0-1.7-0.4-3.1-1.1-4c-0.7-0.9-1.7-1.4-3-1.4H-109.3z M-109.3,346.2h4.5c1.4,0,2.4-0.4,3.1-1.3
		s1.1-2,1.1-3.6c0-1.6-0.4-2.8-1.1-3.8s-1.7-1.4-3.1-1.4h-4.5V346.2z"/>
	<path d="M-76.8,345.8l-2.5-0.1c-0.7,0-1.3,0.2-1.8,0.5s-0.8,0.8-1.1,1.5v17.6H-89v-25.7h6.3l0.3,3.4l0.1,0c0.4-1.2,1-2.2,1.7-2.9
		c0.7-0.7,1.6-1.1,2.6-1.1c0.3,0,0.6,0,1,0.1c0.3,0.1,0.6,0.1,0.9,0.2L-76.8,345.8z"/>
</g>
</svg>
