<?xml version="1.0" encoding="utf-8"?>
<!-- Generator: Adobe Illustrator 19.0.0, SVG Export Plug-In . SVG Version: 6.00 Build 0)  -->
<svg version="1.1" id="Layer_1" xmlns="http://www.w3.org/2000/svg" xmlns:xlink="http://www.w3.org/1999/xlink" x="0px" y="0px"
	 viewBox="0 0 358 120" style="enable-background:new 0 0 358 120;" xml:space="preserve">
<style type="text/css">
	.st0{fill:#F7941E;}
	.st1{fill:#FDBE68;}
	.st2{fill:#126491;}
</style>
<g>
	<polygon class="st0" points="182.5,21.7 185.4,15.4 181.5,7.1 164.6,41.5 170.8,41.5 181.3,19.4 	"/>
	<polygon class="st1" points="186.2,16.9 183.2,23.3 191.7,41.5 198,41.5 	"/>
</g>
<path class="st0" d="M164.6,94V49.2l27.5,32V52h5.7v44.5l-27.5-31.9V94H164.6z"/>
<g>
	<path class="st2" d="M6.8,52h5.6V94H6.8V52z"/>
	<path class="st2" d="M18.2,65.9h5.2v3.2c1.5-2.5,3.4-3.7,5.8-3.7c2.3,0,3.9,0.9,4.9,2.7c0.5,1,0.8,3,0.8,5.9v20h-5.2l0-18.8
		c0-1.9-0.2-3.2-0.7-4c-0.5-0.8-1.2-1.2-2.3-1.2c-0.6,0-1.1,0.1-1.5,0.3s-0.7,0.5-1,1c-0.3,0.5-0.4,1.1-0.6,1.8s-0.2,1.7-0.2,2.7V94
		h-5.2V65.9z"/>
	<path class="st2" d="M40.3,65.9h5.2v3.2c1.5-2.5,3.4-3.7,5.8-3.7c2.3,0,3.9,0.9,4.9,2.7c0.5,1,0.8,3,0.8,5.9v20h-5.2l0-18.8
		c0-1.9-0.2-3.2-0.7-4c-0.5-0.8-1.2-1.2-2.3-1.2c-0.6,0-1.1,0.1-1.5,0.3s-0.7,0.5-1,1c-0.3,0.5-0.4,1.1-0.6,1.8s-0.2,1.7-0.2,2.7V94
		h-5.2V65.9z"/>
	<path class="st2" d="M79,80.1c0,9.5-2.9,14.3-8.8,14.3s-8.8-4.8-8.8-14.5c0-9.7,2.9-14.5,8.8-14.5c1.5,0,2.8,0.3,4,0.9
		c1.1,0.6,2,1.5,2.8,2.7c0.7,1.2,1.3,2.7,1.6,4.6C78.8,75.4,79,77.6,79,80.1z M73.6,80c0-3.7-0.2-6.3-0.7-7.7
		c-0.5-1.5-1.4-2.2-2.6-2.2c-1.2,0-2.1,0.7-2.6,2.2c-0.5,1.4-0.7,4-0.7,7.6c0,3.6,0.2,6.1,0.7,7.5c0.5,1.4,1.4,2.2,2.6,2.2
		c1.2,0,2.1-0.7,2.6-2.1C73.4,86.1,73.6,83.6,73.6,80z"/>
	<path class="st2" d="M80.7,65.9h5.6l2,8.9c0.4,1.8,0.8,3.7,1.1,5.7c0.3,2,0.5,4.2,0.7,6.6c0.1-0.6,0.2-0.9,0.2-1l0.6-4.2
		c0.2-1.6,0.7-4,1.4-7.2l1.9-8.9h5L91.8,94h-3.5L80.7,65.9z"/>
	<path class="st2" d="M118,65.9V94h-5.2v-3.6c-0.7,1.5-1.5,2.6-2.2,3.2c-0.7,0.6-1.7,0.9-2.9,0.9c-2.3,0-4-1.2-5.1-3.6
		c-1.1-2.4-1.6-6.1-1.6-11.2c0-4.9,0.5-8.4,1.6-10.7c1.1-2.3,2.8-3.4,5.1-3.4c2.1,0,3.9,1.2,5.2,3.6v-3.2H118z M106.3,79.8
		c0,3.7,0.2,6.3,0.7,7.7c0.5,1.5,1.4,2.2,2.7,2.2c1.2,0,2-0.8,2.5-2.3c0.5-1.6,0.8-4.1,0.8-7.5c0-3.4-0.3-5.9-0.8-7.5
		c-0.5-1.5-1.4-2.3-2.5-2.3c-1.2,0-2.1,0.7-2.6,2.2C106.5,73.6,106.3,76.1,106.3,79.8z"/>
	<path class="st2" d="M124.4,60h5.2v5.9h2.8V70h-2.8v24h-5.2V70h-2.9v-4.1h2.9V60z"/>
	<path class="st2" d="M146.7,84.5h4.8c-0.4,6.6-3.1,9.9-8.1,9.9c-1.5,0-2.8-0.3-3.9-0.8c-1.1-0.6-2-1.4-2.7-2.6
		c-0.7-1.2-1.2-2.7-1.6-4.5s-0.5-4-0.5-6.5c0-5,0.7-8.6,2.1-11c1.4-2.4,3.5-3.6,6.4-3.6c5.6,0,8.4,5,8.4,14.9v0.7h-11.9
		c0,6,1.2,9,3.6,9C145.7,89.9,146.7,88.1,146.7,84.5z M146.5,77.2c-0.2-3-0.6-4.9-1-5.8c-0.5-1-1.2-1.5-2.3-1.5
		c-1.1,0-1.8,0.5-2.3,1.5c-0.5,0.9-0.8,2.9-1,5.8H146.5z"/>
	<g>
		<path class="st2" d="M219.9,80.1c0,9.5-2.9,14.3-8.8,14.3c-5.9,0-8.8-4.8-8.8-14.5c0-9.7,2.9-14.5,8.8-14.5c1.5,0,2.8,0.3,4,0.9
			c1.1,0.6,2,1.5,2.8,2.7c0.7,1.2,1.3,2.7,1.6,4.6C219.7,75.4,219.9,77.6,219.9,80.1z M214.5,80c0-3.7-0.2-6.3-0.7-7.7
			c-0.5-1.5-1.4-2.2-2.6-2.2c-1.2,0-2.1,0.7-2.6,2.2c-0.5,1.4-0.7,4-0.7,7.6c0,3.6,0.2,6.1,0.7,7.5c0.5,1.4,1.4,2.2,2.6,2.2
			c1.2,0,2.1-0.7,2.6-2.1C214.3,86.1,214.5,83.6,214.5,80z"/>
		<path class="st2" d="M224.4,65.9h5.2v3.5c0.9-1.5,1.8-2.5,2.6-3.1c0.9-0.6,2-0.9,3.4-1v5.4c-0.4-0.1-0.7-0.1-0.9-0.1
			c-1.9,0-3.2,0.5-4,1.4c-0.8,0.9-1.2,2.6-1.2,4.9v17h-5.2V65.9z"/>
		<path class="st2" d="M241.1,60h5.2v5.9h2.8V70h-2.8v24h-5.2V70h-2.9v-4.1h2.9V60z"/>
		<path class="st2" d="M252.7,47.8h5.2v21.3c1.5-2.5,3.4-3.7,5.8-3.7c2.3,0,3.9,0.9,4.9,2.7c0.5,1,0.8,3,0.8,5.9v20h-5.2l0-18.8
			c0-1.9-0.2-3.2-0.7-4c-0.5-0.8-1.2-1.2-2.3-1.2c-0.6,0-1.1,0.1-1.5,0.3s-0.7,0.5-1,1c-0.3,0.5-0.4,1.1-0.6,1.8s-0.2,1.7-0.2,2.7
			V94h-5.2V47.8z"/>
		<path class="st2" d="M285.5,66.4v4.9c-1.3-0.9-2.6-1.4-4-1.4c-0.5,0-0.9,0.1-1.3,0.2c-0.4,0.2-0.7,0.4-1,0.7
			c-0.3,0.3-0.5,0.6-0.7,1c-0.2,0.4-0.3,0.8-0.3,1.2c0,1.3,1.2,2.9,3.6,4.8c1,0.8,1.8,1.5,2.4,2.1c0.7,0.7,1.1,1.3,1.5,1.8
			c0.7,1.1,1.1,2.6,1.1,4.3c0,2.5-0.7,4.5-2.2,6c-1.4,1.5-3.4,2.3-5.8,2.3c-1.5,0-3-0.4-4.6-1.3v-5c1.5,1.1,2.9,1.7,4.3,1.7
			c2.4,0,3.6-1.2,3.6-3.5c0-0.9-0.2-1.6-0.7-2.3c-0.2-0.3-0.5-0.7-1-1.1c-0.4-0.4-1-0.9-1.6-1.4c-2.2-1.7-3.7-3.1-4.5-4.3
			c-0.8-1.2-1.1-2.6-1.1-4.3c0-2.3,0.7-4.1,2.1-5.6c1.4-1.4,3.2-2.1,5.5-2.1C282.5,65.2,284,65.6,285.5,66.4z"/>
		<path class="st2" d="M291.8,60h5.2v5.9h2.8V70H297v24h-5.2V70h-2.9v-4.1h2.9V60z"/>
		<path class="st2" d="M319.5,65.9V94h-5.2v-3.6c-0.7,1.5-1.5,2.6-2.2,3.2s-1.7,0.9-2.9,0.9c-2.3,0-4-1.2-5.1-3.6
			c-1.1-2.4-1.6-6.1-1.6-11.2c0-4.9,0.5-8.4,1.6-10.7c1.1-2.3,2.8-3.4,5.1-3.4c2.1,0,3.9,1.2,5.2,3.6v-3.2H319.5z M307.7,79.8
			c0,3.7,0.2,6.3,0.7,7.7c0.5,1.5,1.4,2.2,2.7,2.2c1.2,0,2-0.8,2.5-2.3c0.5-1.6,0.8-4.1,0.8-7.5c0-3.4-0.3-5.9-0.8-7.5
			c-0.5-1.5-1.4-2.3-2.5-2.3c-1.2,0-2.1,0.7-2.6,2.2C308,73.6,307.7,76.1,307.7,79.8z"/>
		<path class="st2" d="M325.9,60h5.2v5.9h2.8V70h-2.8v24h-5.2V70H323v-4.1h2.9V60z"/>
		<path class="st2" d="M348.2,84.5h4.8c-0.4,6.6-3.1,9.9-8.1,9.9c-1.5,0-2.8-0.3-3.9-0.8c-1.1-0.6-2-1.4-2.7-2.6
			c-0.7-1.2-1.2-2.7-1.6-4.5c-0.3-1.8-0.5-4-0.5-6.5c0-5,0.7-8.6,2.1-11c1.4-2.4,3.5-3.6,6.4-3.6c5.6,0,8.4,5,8.4,14.9v0.7h-11.9
			c0,6,1.2,9,3.6,9C347.1,89.9,348.2,88.1,348.2,84.5z M347.9,77.2c-0.2-3-0.6-4.9-1-5.8c-0.5-1-1.2-1.5-2.3-1.5
			c-1.1,0-1.8,0.5-2.3,1.5c-0.5,0.9-0.8,2.9-1,5.8H347.9z"/>
	</g>
</g>
<g>
	<path class="st2" d="M45.9,109.5H43l-0.7,2.3h-1.3l2.8-9H45l2.7,9h-1.3L45.9,109.5z M43.3,108.5h2.3l-1.1-3.9h0L43.3,108.5z"/>
	<path class="st2" d="M51.2,111c0.3,0,0.6-0.1,0.8-0.4c0.2-0.2,0.3-0.6,0.3-1h1.1l0,0c0,0.6-0.2,1.2-0.6,1.6c-0.4,0.4-1,0.6-1.6,0.6
		c-0.8,0-1.5-0.3-1.9-0.8c-0.4-0.6-0.7-1.3-0.7-2.2V108c0-0.9,0.2-1.6,0.7-2.2c0.4-0.6,1.1-0.9,1.9-0.9c0.7,0,1.2,0.2,1.6,0.7
		c0.4,0.5,0.6,1,0.6,1.8l0,0h-1.1c0-0.4-0.1-0.8-0.3-1.1c-0.2-0.3-0.5-0.4-0.8-0.4c-0.5,0-0.8,0.2-1,0.6s-0.3,0.9-0.3,1.5v0.9
		c0,0.6,0.1,1.1,0.3,1.5S50.7,111,51.2,111z"/>
	<path class="st2" d="M57.2,111c0.3,0,0.6-0.1,0.8-0.4c0.2-0.2,0.3-0.6,0.3-1h1.1l0,0c0,0.6-0.2,1.2-0.6,1.6c-0.4,0.4-1,0.6-1.6,0.6
		c-0.8,0-1.5-0.3-1.9-0.8c-0.4-0.6-0.7-1.3-0.7-2.2V108c0-0.9,0.2-1.6,0.7-2.2c0.4-0.6,1.1-0.9,1.9-0.9c0.7,0,1.2,0.2,1.6,0.7
		c0.4,0.5,0.6,1,0.6,1.8l0,0h-1.1c0-0.4-0.1-0.8-0.3-1.1c-0.2-0.3-0.5-0.4-0.8-0.4c-0.5,0-0.8,0.2-1,0.6s-0.3,0.9-0.3,1.5v0.9
		c0,0.6,0.1,1.1,0.3,1.5S56.7,111,57.2,111z"/>
	<path class="st2" d="M63.3,111.9c-0.8,0-1.4-0.3-1.9-0.8c-0.5-0.6-0.7-1.3-0.7-2.1v-1c0-0.9,0.2-1.6,0.7-2.2s1.1-0.9,1.8-0.9
		c0.8,0,1.3,0.3,1.7,0.8c0.4,0.5,0.6,1.2,0.6,2.1v0.9h-3.6v0.3c0,0.6,0.1,1.1,0.4,1.4c0.3,0.4,0.6,0.6,1.1,0.6
		c0.3,0,0.6-0.1,0.9-0.2s0.5-0.3,0.7-0.5l0.4,0.8c-0.2,0.2-0.5,0.4-0.8,0.6S63.7,111.9,63.3,111.9z M63.1,105.9
		c-0.4,0-0.7,0.2-0.9,0.5s-0.3,0.8-0.4,1.3h2.4v-0.3c0-0.5-0.1-0.9-0.3-1.2S63.5,105.9,63.1,105.9z"/>
	<path class="st2" d="M68.2,111.8h-1.3v-9.6h1.3V111.8z"/>
	<path class="st2" d="M72.3,111.9c-0.8,0-1.4-0.3-1.9-0.8c-0.5-0.6-0.7-1.3-0.7-2.1v-1c0-0.9,0.2-1.6,0.7-2.2s1.1-0.9,1.8-0.9
		c0.8,0,1.3,0.3,1.7,0.8c0.4,0.5,0.6,1.2,0.6,2.1v0.9H71v0.3c0,0.6,0.1,1.1,0.4,1.4c0.3,0.4,0.6,0.6,1.1,0.6c0.3,0,0.6-0.1,0.9-0.2
		s0.5-0.3,0.7-0.5l0.4,0.8c-0.2,0.2-0.5,0.4-0.8,0.6S72.8,111.9,72.3,111.9z M72.2,105.9c-0.4,0-0.7,0.2-0.9,0.5s-0.3,0.8-0.4,1.3
		h2.4v-0.3c0-0.5-0.1-0.9-0.3-1.2S72.6,105.9,72.2,105.9z"/>
	<path class="st2" d="M78.8,106.1l-0.6,0c-0.3,0-0.5,0.1-0.6,0.2c-0.2,0.2-0.3,0.4-0.4,0.7v4.8H76v-6.7h1.1l0.1,1
		c0.1-0.4,0.3-0.6,0.5-0.8c0.2-0.2,0.5-0.3,0.8-0.3c0.1,0,0.2,0,0.3,0c0.1,0,0.2,0,0.2,0.1L78.8,106.1z"/>
	<path class="st2" d="M83.5,111.8c0-0.2-0.1-0.3-0.1-0.4c0-0.1,0-0.3-0.1-0.4c-0.2,0.3-0.4,0.5-0.7,0.7c-0.3,0.2-0.6,0.3-0.9,0.3
		c-0.6,0-1-0.2-1.3-0.5c-0.3-0.4-0.5-0.8-0.5-1.4c0-0.6,0.2-1.1,0.7-1.5c0.4-0.4,1-0.5,1.8-0.5h0.9v-0.7c0-0.4-0.1-0.7-0.3-0.9
		c-0.2-0.2-0.4-0.3-0.8-0.3c-0.3,0-0.5,0.1-0.7,0.3c-0.2,0.2-0.3,0.5-0.3,0.8l-1.2,0l0,0c0-0.5,0.2-1,0.6-1.4c0.4-0.4,1-0.6,1.7-0.6
		c0.7,0,1.2,0.2,1.6,0.6c0.4,0.4,0.6,0.9,0.6,1.7v3.1c0,0.3,0,0.5,0,0.8c0,0.2,0.1,0.5,0.2,0.7H83.5z M82,111c0.3,0,0.6-0.1,0.8-0.3
		c0.2-0.2,0.4-0.4,0.5-0.7v-1.4h-1c-0.4,0-0.7,0.1-0.9,0.4s-0.3,0.5-0.3,0.9c0,0.3,0.1,0.5,0.2,0.7C81.5,110.9,81.7,111,82,111z"/>
	<path class="st2" d="M87.8,103.4v1.7h1v0.9h-1v4c0,0.3,0.1,0.6,0.2,0.7c0.1,0.1,0.2,0.2,0.4,0.2c0.1,0,0.2,0,0.3,0
		c0.1,0,0.2,0,0.3-0.1l0.1,0.9c-0.1,0.1-0.3,0.1-0.5,0.1c-0.2,0-0.4,0.1-0.5,0.1c-0.5,0-0.8-0.2-1.1-0.5c-0.3-0.3-0.4-0.8-0.4-1.5
		v-4h-0.9v-0.9h0.9v-1.7H87.8z"/>
	<path class="st2" d="M91.6,103.3h-1.3v-1.2h1.3V103.3z M91.6,111.8h-1.3v-6.7h1.3V111.8z"/>
	<path class="st2" d="M94.5,105.1l0.1,1c0.2-0.3,0.4-0.6,0.7-0.8c0.3-0.2,0.6-0.3,1-0.3c0.6,0,1,0.2,1.4,0.6c0.3,0.4,0.5,1.1,0.5,2
		v4.1h-1.3v-4.1c0-0.6-0.1-1.1-0.3-1.3c-0.2-0.3-0.4-0.4-0.8-0.4c-0.3,0-0.5,0.1-0.7,0.2c-0.2,0.2-0.4,0.4-0.5,0.6v4.9h-1.3v-6.7
		H94.5z"/>
	<path class="st2" d="M99.6,108.2c0-1,0.2-1.7,0.6-2.3c0.4-0.6,0.9-0.9,1.6-0.9c0.3,0,0.6,0.1,0.9,0.2c0.3,0.2,0.5,0.4,0.7,0.7
		l0.1-0.8h1.1v6.7c0,0.9-0.2,1.5-0.7,2c-0.5,0.5-1.1,0.7-1.9,0.7c-0.3,0-0.6,0-0.9-0.1c-0.3-0.1-0.6-0.2-0.9-0.4l0.3-0.9
		c0.2,0.1,0.4,0.2,0.7,0.3s0.5,0.1,0.8,0.1c0.5,0,0.8-0.1,1-0.4c0.2-0.3,0.3-0.7,0.3-1.3v-0.6c-0.2,0.3-0.4,0.4-0.6,0.6
		c-0.2,0.1-0.5,0.2-0.8,0.2c-0.7,0-1.2-0.3-1.6-0.8c-0.4-0.5-0.6-1.2-0.6-2.1V108.2z M100.8,109c0,0.6,0.1,1.1,0.3,1.4
		s0.5,0.5,1,0.5c0.3,0,0.5-0.1,0.7-0.2c0.2-0.1,0.3-0.3,0.5-0.6v-3.3c-0.1-0.3-0.3-0.5-0.5-0.6c-0.2-0.2-0.4-0.2-0.7-0.2
		c-0.4,0-0.8,0.2-1,0.6c-0.2,0.4-0.3,0.9-0.3,1.6V109z"/>
	<path class="st2" d="M111.7,111.9c-0.8,0-1.4-0.3-1.9-0.8c-0.5-0.6-0.7-1.3-0.7-2.1v-1c0-0.9,0.2-1.6,0.7-2.2s1.1-0.9,1.8-0.9
		c0.8,0,1.3,0.3,1.7,0.8c0.4,0.5,0.6,1.2,0.6,2.1v0.9h-3.6v0.3c0,0.6,0.1,1.1,0.4,1.4c0.3,0.4,0.6,0.6,1.1,0.6
		c0.3,0,0.6-0.1,0.9-0.2s0.5-0.3,0.7-0.5l0.4,0.8c-0.2,0.2-0.5,0.4-0.8,0.6S112.1,111.9,111.7,111.9z M111.5,105.9
		c-0.4,0-0.7,0.2-0.9,0.5s-0.3,0.8-0.4,1.3h2.4v-0.3c0-0.5-0.1-0.9-0.3-1.2S111.9,105.9,111.5,105.9z"/>
	<path class="st2" d="M117.7,111c0.3,0,0.6-0.1,0.8-0.4c0.2-0.2,0.3-0.6,0.3-1h1.1l0,0c0,0.6-0.2,1.2-0.6,1.6
		c-0.4,0.4-1,0.6-1.6,0.6c-0.8,0-1.5-0.3-1.9-0.8c-0.4-0.6-0.7-1.3-0.7-2.2V108c0-0.9,0.2-1.6,0.7-2.2c0.4-0.6,1.1-0.9,1.9-0.9
		c0.7,0,1.2,0.2,1.6,0.7c0.4,0.5,0.6,1,0.6,1.8l0,0h-1.1c0-0.4-0.1-0.8-0.3-1.1c-0.2-0.3-0.5-0.4-0.8-0.4c-0.5,0-0.8,0.2-1,0.6
		s-0.3,0.9-0.3,1.5v0.9c0,0.6,0.1,1.1,0.3,1.5S117.2,111,117.7,111z"/>
	<path class="st2" d="M121.1,108c0-0.9,0.2-1.6,0.7-2.2c0.5-0.6,1.1-0.9,1.9-0.9c0.8,0,1.4,0.3,1.9,0.9s0.7,1.3,0.7,2.2v0.9
		c0,0.9-0.2,1.6-0.7,2.2c-0.5,0.6-1.1,0.8-1.9,0.8c-0.8,0-1.4-0.3-1.9-0.8c-0.5-0.6-0.7-1.3-0.7-2.2V108z M122.4,108.9
		c0,0.6,0.1,1.1,0.3,1.5c0.2,0.4,0.6,0.6,1,0.6c0.4,0,0.8-0.2,1-0.6c0.2-0.4,0.3-0.9,0.3-1.5V108c0-0.6-0.1-1.1-0.3-1.5
		c-0.2-0.4-0.6-0.6-1-0.6c-0.5,0-0.8,0.2-1,0.6c-0.2,0.4-0.3,0.9-0.3,1.5V108.9z"/>
	<path class="st2" d="M128.9,105.1l0.1,1c0.2-0.3,0.4-0.6,0.7-0.8c0.3-0.2,0.6-0.3,1-0.3c0.6,0,1,0.2,1.4,0.6s0.5,1.1,0.5,2v4.1
		h-1.3v-4.1c0-0.6-0.1-1.1-0.3-1.3c-0.2-0.3-0.4-0.4-0.8-0.4c-0.3,0-0.5,0.1-0.7,0.2c-0.2,0.2-0.4,0.4-0.5,0.6v4.9h-1.3v-6.7H128.9z
		"/>
	<path class="st2" d="M133.9,108c0-0.9,0.2-1.6,0.7-2.2c0.5-0.6,1.1-0.9,1.9-0.9c0.8,0,1.4,0.3,1.9,0.9s0.7,1.3,0.7,2.2v0.9
		c0,0.9-0.2,1.6-0.7,2.2c-0.5,0.6-1.1,0.8-1.9,0.8c-0.8,0-1.4-0.3-1.9-0.8c-0.5-0.6-0.7-1.3-0.7-2.2V108z M135.2,108.9
		c0,0.6,0.1,1.1,0.3,1.5c0.2,0.4,0.6,0.6,1,0.6c0.4,0,0.8-0.2,1-0.6c0.2-0.4,0.3-0.9,0.3-1.5V108c0-0.6-0.1-1.1-0.3-1.5
		c-0.2-0.4-0.6-0.6-1-0.6c-0.5,0-0.8,0.2-1,0.6c-0.2,0.4-0.3,0.9-0.3,1.5V108.9z"/>
	<path class="st2" d="M141.7,105.1l0.1,0.9c0.2-0.3,0.4-0.6,0.7-0.8c0.3-0.2,0.6-0.3,1-0.3c0.4,0,0.7,0.1,0.9,0.3
		c0.3,0.2,0.5,0.5,0.6,0.9c0.2-0.4,0.4-0.7,0.7-0.9c0.3-0.2,0.6-0.3,1-0.3c0.6,0,1,0.2,1.3,0.7c0.3,0.5,0.5,1.2,0.5,2.1v4h-1.3v-4
		c0-0.7-0.1-1.2-0.3-1.4c-0.2-0.3-0.4-0.4-0.7-0.4c-0.3,0-0.5,0.1-0.7,0.3c-0.2,0.2-0.3,0.5-0.4,0.9c0,0,0,0,0,0.2
		c0,0.1,0,0.2,0,0.3v4.2h-1.2v-4c0-0.7-0.1-1.1-0.3-1.4c-0.2-0.3-0.4-0.4-0.8-0.4c-0.3,0-0.5,0.1-0.7,0.2c-0.2,0.1-0.3,0.3-0.4,0.6
		v5h-1.2v-6.7H141.7z"/>
	<path class="st2" d="M151.5,103.3h-1.3v-1.2h1.3V103.3z M151.5,111.8h-1.3v-6.7h1.3V111.8z"/>
	<path class="st2" d="M155.6,111c0.3,0,0.6-0.1,0.8-0.4c0.2-0.2,0.3-0.6,0.3-1h1.1l0,0c0,0.6-0.2,1.2-0.6,1.6
		c-0.4,0.4-1,0.6-1.6,0.6c-0.8,0-1.5-0.3-1.9-0.8c-0.4-0.6-0.7-1.3-0.7-2.2V108c0-0.9,0.2-1.6,0.7-2.2c0.4-0.6,1.1-0.9,1.9-0.9
		c0.7,0,1.2,0.2,1.6,0.7c0.4,0.5,0.6,1,0.6,1.8l0,0h-1.1c0-0.4-0.1-0.8-0.3-1.1c-0.2-0.3-0.5-0.4-0.8-0.4c-0.5,0-0.8,0.2-1,0.6
		c-0.2,0.4-0.3,0.9-0.3,1.5v0.9c0,0.6,0.1,1.1,0.3,1.5C154.8,110.8,155.1,111,155.6,111z"/>
	<path class="st2" d="M162.1,108.2c0-1,0.2-1.7,0.6-2.3c0.4-0.6,0.9-0.9,1.6-0.9c0.3,0,0.6,0.1,0.9,0.2c0.3,0.2,0.5,0.4,0.7,0.7
		l0.1-0.8h1.1v6.7c0,0.9-0.2,1.5-0.7,2s-1.1,0.7-1.9,0.7c-0.3,0-0.6,0-0.9-0.1c-0.3-0.1-0.6-0.2-0.9-0.4l0.3-0.9
		c0.2,0.1,0.4,0.2,0.7,0.3c0.3,0.1,0.5,0.1,0.8,0.1c0.5,0,0.8-0.1,1-0.4c0.2-0.3,0.3-0.7,0.3-1.3v-0.6c-0.2,0.3-0.4,0.4-0.6,0.6
		c-0.2,0.1-0.5,0.2-0.8,0.2c-0.7,0-1.2-0.3-1.6-0.8c-0.4-0.5-0.6-1.2-0.6-2.1V108.2z M163.4,109c0,0.6,0.1,1.1,0.3,1.4
		c0.2,0.4,0.5,0.5,1,0.5c0.3,0,0.5-0.1,0.7-0.2c0.2-0.1,0.3-0.3,0.5-0.6v-3.3c-0.1-0.3-0.3-0.5-0.5-0.6c-0.2-0.2-0.4-0.2-0.7-0.2
		c-0.4,0-0.8,0.2-1,0.6c-0.2,0.4-0.3,0.9-0.3,1.6V109z"/>
	<path class="st2" d="M171.6,106.1l-0.6,0c-0.3,0-0.5,0.1-0.6,0.2c-0.2,0.2-0.3,0.4-0.4,0.7v4.8h-1.3v-6.7h1.1l0.1,1
		c0.1-0.4,0.3-0.6,0.5-0.8c0.2-0.2,0.5-0.3,0.8-0.3c0.1,0,0.2,0,0.3,0c0.1,0,0.2,0,0.2,0.1L171.6,106.1z"/>
	<path class="st2" d="M172.6,108c0-0.9,0.2-1.6,0.7-2.2c0.5-0.6,1.1-0.9,1.9-0.9c0.8,0,1.4,0.3,1.9,0.9c0.5,0.6,0.7,1.3,0.7,2.2v0.9
		c0,0.9-0.2,1.6-0.7,2.2c-0.5,0.6-1.1,0.8-1.9,0.8c-0.8,0-1.4-0.3-1.9-0.8c-0.5-0.6-0.7-1.3-0.7-2.2V108z M173.8,108.9
		c0,0.6,0.1,1.1,0.3,1.5c0.2,0.4,0.6,0.6,1,0.6c0.4,0,0.8-0.2,1-0.6c0.2-0.4,0.3-0.9,0.3-1.5V108c0-0.6-0.1-1.1-0.3-1.5
		c-0.2-0.4-0.6-0.6-1-0.6c-0.5,0-0.8,0.2-1,0.6c-0.2,0.4-0.3,0.9-0.3,1.5V108.9z"/>
	<path class="st2" d="M184.1,109.6L184.1,109.6l0.9-4.5h1.2l-1.5,6.7h-1l-1.2-4.4h0l-1.2,4.4h-1l-1.5-6.7h1.2l0.9,4.5h0l1.2-4.5h0.9
		L184.1,109.6z"/>
	<path class="st2" d="M189.3,103.4v1.7h1v0.9h-1v4c0,0.3,0.1,0.6,0.2,0.7c0.1,0.1,0.2,0.2,0.4,0.2c0.1,0,0.2,0,0.3,0
		c0.1,0,0.2,0,0.3-0.1l0.1,0.9c-0.1,0.1-0.3,0.1-0.5,0.1s-0.4,0.1-0.5,0.1c-0.5,0-0.8-0.2-1.1-0.5c-0.3-0.3-0.4-0.8-0.4-1.5v-4h-0.9
		v-0.9h0.9v-1.7H189.3z"/>
	<path class="st2" d="M193.1,106c0.2-0.3,0.4-0.6,0.7-0.8c0.3-0.2,0.6-0.3,0.9-0.3c0.6,0,1.1,0.2,1.4,0.7c0.3,0.4,0.5,1.1,0.5,2.1
		v4.1h-1.3v-4.1c0-0.6-0.1-1.1-0.3-1.3c-0.2-0.3-0.4-0.4-0.8-0.4c-0.3,0-0.5,0.1-0.7,0.2c-0.2,0.1-0.4,0.3-0.5,0.6v5h-1.3v-9.6h1.3
		V106z"/>
	<path class="st2" d="M202.7,103.3h-1.3v-1.2h1.3V103.3z M202.7,111.8h-1.3v-6.7h1.3V111.8z"/>
	<path class="st2" d="M205.6,105.1l0.1,1c0.2-0.3,0.4-0.6,0.7-0.8c0.3-0.2,0.6-0.3,1-0.3c0.6,0,1,0.2,1.4,0.6s0.5,1.1,0.5,2v4.1
		h-1.3v-4.1c0-0.6-0.1-1.1-0.3-1.3c-0.2-0.3-0.4-0.4-0.8-0.4c-0.3,0-0.5,0.1-0.7,0.2c-0.2,0.2-0.4,0.4-0.5,0.6v4.9h-1.3v-6.7H205.6z
		"/>
	<path class="st2" d="M219.4,109L219.4,109c0,0.9-0.2,1.6-0.7,2.1s-1.1,0.7-2,0.7c-0.9,0-1.6-0.3-2.1-0.9s-0.8-1.4-0.8-2.5V106
		c0-1.1,0.3-1.9,0.8-2.5c0.5-0.6,1.2-0.9,2.1-0.9c0.9,0,1.6,0.2,2,0.7s0.7,1.2,0.7,2.1l0,0h-1.2c0-0.7-0.1-1.1-0.4-1.5
		c-0.2-0.3-0.6-0.5-1.2-0.5c-0.5,0-0.9,0.2-1.2,0.6s-0.4,1-0.4,1.8v2.5c0,0.8,0.1,1.4,0.4,1.8s0.7,0.6,1.2,0.6
		c0.5,0,0.9-0.2,1.1-0.5c0.2-0.3,0.4-0.8,0.4-1.5H219.4z"/>
	<path class="st2" d="M224.3,111.8c0-0.2-0.1-0.3-0.1-0.4c0-0.1,0-0.3-0.1-0.4c-0.2,0.3-0.4,0.5-0.7,0.7s-0.6,0.3-0.9,0.3
		c-0.6,0-1-0.2-1.3-0.5c-0.3-0.4-0.5-0.8-0.5-1.4c0-0.6,0.2-1.1,0.7-1.5c0.4-0.4,1-0.5,1.8-0.5h0.9v-0.7c0-0.4-0.1-0.7-0.3-0.9
		c-0.2-0.2-0.4-0.3-0.8-0.3c-0.3,0-0.5,0.1-0.7,0.3c-0.2,0.2-0.3,0.5-0.3,0.8l-1.2,0l0,0c0-0.5,0.2-1,0.6-1.4c0.4-0.4,1-0.6,1.7-0.6
		c0.7,0,1.2,0.2,1.6,0.6c0.4,0.4,0.6,0.9,0.6,1.7v3.1c0,0.3,0,0.5,0,0.8c0,0.2,0.1,0.5,0.2,0.7H224.3z M222.8,111
		c0.3,0,0.6-0.1,0.8-0.3c0.2-0.2,0.4-0.4,0.5-0.7v-1.4h-1c-0.4,0-0.7,0.1-0.9,0.4s-0.3,0.5-0.3,0.9c0,0.3,0.1,0.5,0.2,0.7
		C222.3,110.9,222.5,111,222.8,111z"/>
	<path class="st2" d="M228.3,111.8h-1.3v-9.6h1.3V111.8z"/>
	<path class="st2" d="M231.4,103.3h-1.3v-1.2h1.3V103.3z M231.4,111.8h-1.3v-6.7h1.3V111.8z"/>
	<path class="st2" d="M233.5,111.8V106h-0.9v-0.9h0.9v-0.9c0-0.7,0.2-1.3,0.5-1.6c0.3-0.4,0.8-0.6,1.4-0.6c0.1,0,0.2,0,0.4,0
		s0.3,0.1,0.4,0.1l-0.1,0.9c-0.1,0-0.1,0-0.2,0c-0.1,0-0.2,0-0.3,0c-0.3,0-0.5,0.1-0.6,0.3c-0.1,0.2-0.2,0.5-0.2,0.9v0.9h1.2v0.9
		h-1.2v5.8H233.5z"/>
	<path class="st2" d="M236.9,108c0-0.9,0.2-1.6,0.7-2.2c0.5-0.6,1.1-0.9,1.9-0.9c0.8,0,1.4,0.3,1.9,0.9c0.5,0.6,0.7,1.3,0.7,2.2v0.9
		c0,0.9-0.2,1.6-0.7,2.2c-0.5,0.6-1.1,0.8-1.9,0.8c-0.8,0-1.4-0.3-1.9-0.8c-0.5-0.6-0.7-1.3-0.7-2.2V108z M238.1,108.9
		c0,0.6,0.1,1.1,0.3,1.5c0.2,0.4,0.6,0.6,1,0.6c0.4,0,0.8-0.2,1-0.6c0.2-0.4,0.3-0.9,0.3-1.5V108c0-0.6-0.1-1.1-0.3-1.5
		c-0.2-0.4-0.6-0.6-1-0.6c-0.5,0-0.8,0.2-1,0.6c-0.2,0.4-0.3,0.9-0.3,1.5V108.9z"/>
	<path class="st2" d="M246.4,106.1l-0.6,0c-0.3,0-0.5,0.1-0.6,0.2c-0.2,0.2-0.3,0.4-0.4,0.7v4.8h-1.3v-6.7h1.1l0.1,1
		c0.1-0.4,0.3-0.6,0.5-0.8c0.2-0.2,0.5-0.3,0.8-0.3c0.1,0,0.2,0,0.3,0c0.1,0,0.2,0,0.2,0.1L246.4,106.1z"/>
	<path class="st2" d="M248.9,105.1l0.1,1c0.2-0.3,0.4-0.6,0.7-0.8c0.3-0.2,0.6-0.3,1-0.3c0.6,0,1,0.2,1.4,0.6s0.5,1.1,0.5,2v4.1
		h-1.3v-4.1c0-0.6-0.1-1.1-0.3-1.3c-0.2-0.3-0.4-0.4-0.8-0.4c-0.3,0-0.5,0.1-0.7,0.2c-0.2,0.2-0.4,0.4-0.5,0.6v4.9h-1.3v-6.7H248.9z
		"/>
	<path class="st2" d="M255.5,103.3h-1.3v-1.2h1.3V103.3z M255.5,111.8h-1.3v-6.7h1.3V111.8z"/>
	<path class="st2" d="M260.6,111.8c0-0.2-0.1-0.3-0.1-0.4c0-0.1,0-0.3-0.1-0.4c-0.2,0.3-0.4,0.5-0.7,0.7s-0.6,0.3-0.9,0.3
		c-0.6,0-1-0.2-1.3-0.5c-0.3-0.4-0.5-0.8-0.5-1.4c0-0.6,0.2-1.1,0.7-1.5c0.4-0.4,1-0.5,1.8-0.5h0.9v-0.7c0-0.4-0.1-0.7-0.3-0.9
		c-0.2-0.2-0.4-0.3-0.8-0.3c-0.3,0-0.5,0.1-0.7,0.3c-0.2,0.2-0.3,0.5-0.3,0.8l-1.2,0l0,0c0-0.5,0.2-1,0.6-1.4c0.4-0.4,1-0.6,1.7-0.6
		c0.7,0,1.2,0.2,1.6,0.6c0.4,0.4,0.6,0.9,0.6,1.7v3.1c0,0.3,0,0.5,0,0.8c0,0.2,0.1,0.5,0.2,0.7H260.6z M259,111
		c0.3,0,0.6-0.1,0.8-0.3c0.2-0.2,0.4-0.4,0.5-0.7v-1.4h-1c-0.4,0-0.7,0.1-0.9,0.4s-0.3,0.5-0.3,0.9c0,0.3,0.1,0.5,0.2,0.7
		C258.6,110.9,258.8,111,259,111z"/>
	<path class="st2" d="M264.3,103.3l-0.8,2h-0.6l0.3-2v-1.2h1.1V103.3z"/>
	<path class="st2" d="M268.4,110.1c0-0.3-0.1-0.5-0.3-0.7c-0.2-0.2-0.5-0.4-1-0.6c-0.7-0.3-1.2-0.6-1.5-0.9
		c-0.3-0.3-0.5-0.7-0.5-1.2c0-0.5,0.2-1,0.6-1.3c0.4-0.4,0.9-0.5,1.6-0.5c0.7,0,1.2,0.2,1.6,0.6c0.4,0.4,0.6,0.9,0.6,1.5l0,0h-1.2
		c0-0.3-0.1-0.6-0.3-0.8c-0.2-0.2-0.4-0.3-0.7-0.3c-0.3,0-0.6,0.1-0.7,0.3s-0.3,0.4-0.3,0.6c0,0.3,0.1,0.5,0.2,0.6
		c0.2,0.1,0.5,0.3,1,0.6c0.7,0.3,1.2,0.5,1.6,0.9s0.5,0.7,0.5,1.2c0,0.6-0.2,1-0.6,1.3c-0.4,0.3-1,0.5-1.7,0.5
		c-0.7,0-1.3-0.2-1.7-0.6c-0.4-0.4-0.6-0.9-0.6-1.5l0,0h1.2c0,0.4,0.1,0.7,0.4,0.9c0.2,0.2,0.5,0.3,0.8,0.3c0.3,0,0.6-0.1,0.8-0.2
		S268.4,110.4,268.4,110.1z"/>
	<path class="st2" d="M279.9,110.5c-0.2,0.4-0.5,0.7-1,1s-1.1,0.4-1.8,0.4c-0.9,0-1.7-0.3-2.3-0.9c-0.6-0.6-0.9-1.4-0.9-2.4v-2.7
		c0-1,0.3-1.8,0.8-2.4c0.5-0.6,1.3-0.9,2.2-0.9c0.9,0,1.6,0.2,2.1,0.7c0.5,0.5,0.7,1.1,0.8,1.9l0,0h-1.2c0-0.6-0.2-1-0.4-1.3
		c-0.3-0.3-0.7-0.4-1.2-0.4c-0.5,0-1,0.2-1.3,0.6c-0.3,0.4-0.5,1-0.5,1.7v2.7c0,0.8,0.2,1.4,0.5,1.8c0.3,0.4,0.8,0.6,1.4,0.6
		c0.4,0,0.8-0.1,1-0.2c0.2-0.1,0.4-0.3,0.5-0.6v-2h-1.5v-0.9h2.8V110.5z"/>
	<path class="st2" d="M281.4,108c0-0.9,0.2-1.6,0.7-2.2c0.5-0.6,1.1-0.9,1.9-0.9c0.8,0,1.4,0.3,1.9,0.9c0.5,0.6,0.7,1.3,0.7,2.2v0.9
		c0,0.9-0.2,1.6-0.7,2.2c-0.5,0.6-1.1,0.8-1.9,0.8c-0.8,0-1.4-0.3-1.9-0.8c-0.5-0.6-0.7-1.3-0.7-2.2V108z M282.7,108.9
		c0,0.6,0.1,1.1,0.3,1.5c0.2,0.4,0.6,0.6,1,0.6c0.4,0,0.8-0.2,1-0.6c0.2-0.4,0.3-0.9,0.3-1.5V108c0-0.6-0.1-1.1-0.3-1.5
		c-0.2-0.4-0.6-0.6-1-0.6c-0.5,0-0.8,0.2-1,0.6c-0.2,0.4-0.3,0.9-0.3,1.5V108.9z"/>
	<path class="st2" d="M289.4,111.8h-1.3v-9.6h1.3V111.8z"/>
	<path class="st2" d="M290.9,108.5c0-1.1,0.2-1.9,0.6-2.6c0.4-0.6,0.9-1,1.6-1c0.3,0,0.6,0.1,0.8,0.2s0.5,0.3,0.6,0.6v-3.6h1.2v9.6
		h-1.1l-0.1-0.8c-0.2,0.3-0.4,0.5-0.7,0.7c-0.3,0.2-0.6,0.2-0.9,0.2c-0.7,0-1.2-0.3-1.6-0.9c-0.4-0.6-0.6-1.4-0.6-2.4V108.5z
		 M292.1,108.6c0,0.7,0.1,1.3,0.3,1.7c0.2,0.4,0.5,0.6,1,0.6c0.3,0,0.5-0.1,0.7-0.2s0.3-0.4,0.5-0.6v-3.2c-0.1-0.3-0.3-0.5-0.5-0.7
		c-0.2-0.2-0.4-0.2-0.7-0.2c-0.4,0-0.8,0.2-1,0.7c-0.2,0.5-0.3,1.1-0.3,1.9V108.6z"/>
	<path class="st2" d="M299.9,111.9c-0.8,0-1.4-0.3-1.9-0.8s-0.7-1.3-0.7-2.1v-1c0-0.9,0.2-1.6,0.7-2.2c0.5-0.6,1.1-0.9,1.8-0.9
		c0.8,0,1.3,0.3,1.7,0.8c0.4,0.5,0.6,1.2,0.6,2.1v0.9h-3.6v0.3c0,0.6,0.1,1.1,0.4,1.4c0.3,0.4,0.6,0.6,1.1,0.6
		c0.3,0,0.6-0.1,0.9-0.2s0.5-0.3,0.7-0.5l0.4,0.8c-0.2,0.2-0.5,0.4-0.8,0.6S300.4,111.9,299.9,111.9z M299.8,105.9
		c-0.4,0-0.7,0.2-0.9,0.5c-0.2,0.4-0.3,0.8-0.4,1.3h2.4v-0.3c0-0.5-0.1-0.9-0.3-1.2S300.2,105.9,299.8,105.9z"/>
	<path class="st2" d="M304.7,105.1l0.1,1c0.2-0.3,0.4-0.6,0.7-0.8c0.3-0.2,0.6-0.3,1-0.3c0.6,0,1,0.2,1.4,0.6s0.5,1.1,0.5,2v4.1H307
		v-4.1c0-0.6-0.1-1.1-0.3-1.3c-0.2-0.3-0.4-0.4-0.8-0.4c-0.3,0-0.5,0.1-0.7,0.2c-0.2,0.2-0.4,0.4-0.5,0.6v4.9h-1.3v-6.7H304.7z"/>
	<path class="st2" d="M318.4,103.7h-2.3v8h-1.3v-8h-2.3v-1h5.9V103.7z"/>
	<path class="st2" d="M321.6,106.1l-0.6,0c-0.3,0-0.5,0.1-0.6,0.2c-0.2,0.2-0.3,0.4-0.4,0.7v4.8h-1.3v-6.7h1.1l0.1,1
		c0.1-0.4,0.3-0.6,0.5-0.8c0.2-0.2,0.5-0.3,0.8-0.3c0.1,0,0.2,0,0.3,0c0.1,0,0.2,0,0.2,0.1L321.6,106.1z"/>
	<path class="st2" d="M324.3,103.3H323v-1.2h1.3V103.3z M324.3,111.8H323v-6.7h1.3V111.8z"/>
	<path class="st2" d="M329.3,111.8c0-0.2-0.1-0.3-0.1-0.4c0-0.1,0-0.3-0.1-0.4c-0.2,0.3-0.4,0.5-0.7,0.7s-0.6,0.3-0.9,0.3
		c-0.6,0-1-0.2-1.3-0.5c-0.3-0.4-0.5-0.8-0.5-1.4c0-0.6,0.2-1.1,0.7-1.5c0.4-0.4,1-0.5,1.8-0.5h0.9v-0.7c0-0.4-0.1-0.7-0.3-0.9
		c-0.2-0.2-0.4-0.3-0.8-0.3c-0.3,0-0.5,0.1-0.7,0.3c-0.2,0.2-0.3,0.5-0.3,0.8l-1.2,0l0,0c0-0.5,0.2-1,0.6-1.4c0.4-0.4,1-0.6,1.7-0.6
		c0.7,0,1.2,0.2,1.6,0.6c0.4,0.4,0.6,0.9,0.6,1.7v3.1c0,0.3,0,0.5,0,0.8c0,0.2,0.1,0.5,0.2,0.7H329.3z M327.8,111
		c0.3,0,0.6-0.1,0.8-0.3c0.2-0.2,0.4-0.4,0.5-0.7v-1.4h-1c-0.4,0-0.7,0.1-0.9,0.4s-0.3,0.5-0.3,0.9c0,0.3,0.1,0.5,0.2,0.7
		C327.4,110.9,327.6,111,327.8,111z"/>
	<path class="st2" d="M333.2,105.1l0.1,1c0.2-0.3,0.4-0.6,0.7-0.8c0.3-0.2,0.6-0.3,1-0.3c0.6,0,1,0.2,1.4,0.6s0.5,1.1,0.5,2v4.1
		h-1.3v-4.1c0-0.6-0.1-1.1-0.3-1.3c-0.2-0.3-0.4-0.4-0.8-0.4c-0.3,0-0.5,0.1-0.7,0.2c-0.2,0.2-0.4,0.4-0.5,0.6v4.9h-1.3v-6.7H333.2z
		"/>
	<path class="st2" d="M338.3,108.2c0-1,0.2-1.7,0.6-2.3c0.4-0.6,0.9-0.9,1.6-0.9c0.3,0,0.6,0.1,0.9,0.2c0.3,0.2,0.5,0.4,0.7,0.7
		l0.1-0.8h1.1v6.7c0,0.9-0.2,1.5-0.7,2s-1.1,0.7-1.9,0.7c-0.3,0-0.6,0-0.9-0.1c-0.3-0.1-0.6-0.2-0.9-0.4l0.3-0.9
		c0.2,0.1,0.4,0.2,0.7,0.3c0.3,0.1,0.5,0.1,0.8,0.1c0.5,0,0.8-0.1,1-0.4c0.2-0.3,0.3-0.7,0.3-1.3v-0.6c-0.2,0.3-0.4,0.4-0.6,0.6
		c-0.2,0.1-0.5,0.2-0.8,0.2c-0.7,0-1.2-0.3-1.6-0.8c-0.4-0.5-0.6-1.2-0.6-2.1V108.2z M339.5,109c0,0.6,0.1,1.1,0.3,1.4
		c0.2,0.4,0.5,0.5,1,0.5c0.3,0,0.5-0.1,0.7-0.2c0.2-0.1,0.3-0.3,0.5-0.6v-3.3c-0.1-0.3-0.3-0.5-0.5-0.6c-0.2-0.2-0.4-0.2-0.7-0.2
		c-0.4,0-0.8,0.2-1,0.6c-0.2,0.4-0.3,0.9-0.3,1.6V109z"/>
	<path class="st2" d="M346.2,111.8h-1.3v-9.6h1.3V111.8z"/>
	<path class="st2" d="M350.4,111.9c-0.8,0-1.4-0.3-1.9-0.8s-0.7-1.3-0.7-2.1v-1c0-0.9,0.2-1.6,0.7-2.2c0.5-0.6,1.1-0.9,1.8-0.9
		c0.8,0,1.3,0.3,1.7,0.8c0.4,0.5,0.6,1.2,0.6,2.1v0.9H349v0.3c0,0.6,0.1,1.1,0.4,1.4c0.3,0.4,0.6,0.6,1.1,0.6c0.3,0,0.6-0.1,0.9-0.2
		s0.5-0.3,0.7-0.5l0.4,0.8c-0.2,0.2-0.5,0.4-0.8,0.6S350.8,111.9,350.4,111.9z M350.2,105.9c-0.4,0-0.7,0.2-0.9,0.5
		c-0.2,0.4-0.3,0.8-0.4,1.3h2.4v-0.3c0-0.5-0.1-0.9-0.3-1.2S350.6,105.9,350.2,105.9z"/>
</g>
</svg>
