<?xml version="1.0" encoding="utf-8"?>
<!-- Generator: Adobe Illustrator 19.1.0, SVG Export Plug-In . SVG Version: 6.00 Build 0)  -->
<svg version="1.1" id="Layer_1" xmlns="http://www.w3.org/2000/svg" xmlns:xlink="http://www.w3.org/1999/xlink" x="0px" y="0px"
	 viewBox="-467 346 289 102" style="enable-background:new -467 346 289 102;" xml:space="preserve">
<style type="text/css">
	.st0{fill:#126491;}
	.st1{fill:#F7941E;}
	.st2{fill:#FDBE68;}
</style>
<path class="st0" d="M-446.6,349.2h9.7l10.3,30.6c3,8.6,5.6,17.9,7.9,27.7c-0.8-5.9-1.5-11.3-1.8-16.1c-0.5-4.7-0.7-9.2-0.7-13.5
	v-28.6h10.3V426h-9.6l-11.6-34.5c-1-3.2-2.1-6.5-3-9.9c-1-3.4-1.8-6.9-2.6-10.6c-0.1-0.4-0.2-1-0.3-1.7c-0.2-0.7-0.3-1.4-0.5-2.3
	c0.1,0.9,0.2,1.6,0.3,2.2c0.1,0.6,0.1,1.1,0.2,1.6l0.5,7.8l0.6,9.5c0,0.5,0.1,1.1,0.1,1.9c0,0.8,0,1.7,0,2.6l0.5,33.4h-10.2V349.2z"
	/>
<path class="st0" d="M-371.6,400.7c0,17.4-5.4,26.1-16.1,26.1c-10.7,0-16.1-8.8-16.1-26.5s5.4-26.6,16.1-26.6c2.8,0,5.2,0.5,7.2,1.6
	c2,1,3.8,2.7,5.1,4.9c1.3,2.2,2.3,5.1,3,8.4C-371.8,391.8-371.6,396-371.6,400.7z M-381.5,400.4c0-6.8-0.4-11.5-1.3-14.1
	c-0.9-2.7-2.4-4-4.8-4c-2.3,0-3.8,1.3-4.8,4c-0.9,2.6-1.3,7.2-1.3,13.9c0,6.6,0.4,11.2,1.3,13.8c1,2.6,2.5,4,4.8,4s3.8-1.3,4.7-3.9
	C-381.9,411.5-381.5,407-381.5,400.4z"/>
<path class="st0" d="M-364.5,374.5h9.5v6.4c1.7-2.7,3.2-4.6,4.8-5.8c1.6-1.1,3.7-1.7,6.3-1.9v9.9c-0.7-0.1-1.2-0.2-1.7-0.2
	c-3.4,0-5.8,0.9-7.3,2.6c-1.4,1.7-2.1,4.7-2.1,9.1v31.1h-9.5V374.5z"/>
<path class="st0" d="M-303.2,350.4v9.3c-2.6-1.3-4.9-1.9-6.6-1.9c-2.4,0-4.5,0.6-6.3,1.8c-1.7,1.2-3.2,3.1-4.4,5.6
	c-1.1,2.5-2,5.7-2.5,9.6c-0.5,3.8-0.8,8.5-0.8,13.7c0,18.9,4.9,28.4,14.6,28.4c1.7,0,3.8-0.5,6.1-1.6v9.5c-2.4,1.4-5.2,2.1-8.4,2.1
	c-15.5,0-23.3-12.6-23.3-38c0-13.7,1.9-23.9,5.7-30.6c3.8-6.7,9.6-10,17.4-10C-308.9,348.2-306,349-303.2,350.4z"/>
<g>
	<path class="st0" d="M-221.9,349.2h10.4v68h16.9v8.7h-27.2L-221.9,349.2L-221.9,349.2z"/>
</g>
<g>
	<polygon class="st1" points="-260.4,379.9 -253.7,365.1 -262.6,346 -301.1,425.8 -286.9,425.8 -262.9,374.4 	"/>
	<polygon class="st2" points="-251.8,368.9 -258.5,383.6 -239.1,426 -225,426 	"/>
</g>
<g>
	<path class="st0" d="M-441.6,435.3h1.7v9h-1.7l-3.6-6.1v6.1h-1.7v-9h1.7l3.6,6.1V435.3z"/>
	<path class="st0" d="M-432.1,440.8c0,2.4-1,3.7-3.2,3.7s-3.2-1.2-3.2-3.7c0-2.4,1-3.7,3.2-3.7S-432.1,438.4-432.1,440.8z
		 M-436.4,442.6c0.2,0.4,0.6,0.6,1.2,0.6s1-0.2,1.2-0.6c0.2-0.4,0.3-1,0.3-1.8c0-0.8-0.1-1.4-0.3-1.8c-0.2-0.4-0.6-0.6-1.2-0.6
		s-1,0.2-1.2,0.6c-0.2,0.4-0.3,1-0.3,1.8C-436.8,441.6-436.7,442.2-436.4,442.6z"/>
	<path class="st0" d="M-429,444.3h-1.7v-7h0.8l0.6,1.1c0.5-0.8,1.4-1.2,2.4-1.2v1.4c-1,0-1.7,0.3-2.2,0.9L-429,444.3L-429,444.3z"/>
	<path class="st0" d="M-426.4,438.4v-1h1.1V436l1.7-0.4v1.7h1.3v1h-1.3v3.9c0,0.3,0.1,0.6,0.2,0.8c0.1,0.2,0.3,0.3,0.4,0.3
		c0.2,0,0.4,0,0.7-0.1l0.2,1c-0.5,0.2-0.9,0.3-1.3,0.3c-0.3,0-0.7-0.1-0.9-0.2c-0.3-0.1-0.4-0.2-0.5-0.3c-0.1-0.1-0.2-0.3-0.3-0.5
		s-0.2-0.6-0.2-1v-4.1L-426.4,438.4L-426.4,438.4z"/>
	<path class="st0" d="M-419.4,437.7c0.7-0.4,1.4-0.6,2.1-0.6c0.7,0,1.3,0.2,1.7,0.6c0.3,0.4,0.5,1,0.5,1.7v5h-1.7v-4.8
		c0-0.4-0.1-0.7-0.3-0.9c-0.2-0.2-0.4-0.3-0.8-0.3c-0.6,0-1.1,0.2-1.7,0.5v5.4h-1.7v-9.2l1.7-0.1L-419.4,437.7L-419.4,437.7z"/>
	<path class="st0" d="M-410.7,444.5c-1.1,0-1.9-0.3-2.4-0.9c-0.5-0.6-0.7-1.6-0.7-2.8c0-2.4,1-3.7,3.1-3.7c1.2,0,2,0.3,2.4,1.1
		c0.3,0.6,0.5,1.5,0.5,2.4v0.4h-4.4c0,0.8,0.2,1.3,0.3,1.7c0.3,0.3,0.6,0.4,1.2,0.4c0.9,0,1.4-0.3,1.5-1l1.3,0.1
		C-408,443.8-408.9,444.5-410.7,444.5z M-409.7,438.8c-0.2-0.3-0.5-0.4-1-0.4c-0.4,0-0.8,0.1-1,0.3c-0.2,0.3-0.3,0.7-0.4,1.2h2.8
		C-409.4,439.4-409.6,439.1-409.7,438.8z"/>
	<path class="st0" d="M-404.8,444.3h-1.7v-7h0.8l0.6,1.1c0.5-0.8,1.4-1.2,2.4-1.2v1.4c-1,0-1.7,0.3-2.2,0.9L-404.8,444.3
		L-404.8,444.3z"/>
	<path class="st0" d="M-400.3,438c0.8-0.5,1.6-0.8,2.4-0.8c0.8,0,1.4,0.2,1.7,0.6c0.3,0.4,0.5,1,0.5,1.7v5h-1.7v-4.9
		c0-0.4-0.1-0.7-0.3-0.9c-0.2-0.2-0.4-0.3-0.8-0.3c-0.6,0-1.1,0.2-1.7,0.5v5.4h-1.7v-7h0.8L-400.3,438z"/>
	<path class="st0" d="M-386.9,436.6c-0.8,0-1.3,0.3-1.6,0.8c-0.3,0.5-0.4,1.3-0.4,2.5c0,1.2,0.2,2,0.4,2.5c0.3,0.5,0.8,0.8,1.6,0.8
		c0.6,0,1-0.2,1.3-0.5c0.3-0.3,0.3-0.8,0.4-1.4l1.3,0.1c-0.1,1-0.3,1.8-0.8,2.4c-0.4,0.5-1.2,0.8-2.3,0.8c-1.4,0-2.4-0.4-2.9-1.2
		c-0.3-0.4-0.4-0.9-0.6-1.4c-0.1-0.5-0.2-1.2-0.2-2c0-0.8,0.1-1.5,0.2-2c0.1-0.5,0.3-1,0.6-1.4c0.5-0.8,1.5-1.2,2.9-1.2
		c1,0,1.7,0.3,2.2,0.7c0.4,0.4,0.7,1.1,0.8,2l-1.3,0.2c-0.1-0.5-0.2-0.9-0.4-1.1C-385.9,436.7-386.4,436.6-386.9,436.6z"/>
	<path class="st0" d="M-379.9,437.2c1.7,0,2.7,0.8,2.7,2.4v4.7h-1l-0.4-0.9c-0.7,0.7-1.4,1-2.3,1c-0.6,0-1.1-0.2-1.4-0.5
		c-0.3-0.3-0.5-0.8-0.5-1.4s0.2-1,0.5-1.4c0.3-0.3,1-0.6,2.1-0.8l1.5-0.3v-0.6c0-0.8-0.3-1.2-1.1-1.2c-0.7,0-1.1,0.3-1.2,1l-1.3-0.3
		C-382.2,437.8-381.3,437.2-379.9,437.2z M-380.5,443.3c0.5,0,1.1-0.3,1.7-0.8v-1.2l-1.2,0.2c-0.5,0.1-0.9,0.3-1,0.4
		c-0.2,0.2-0.3,0.4-0.3,0.7s0.1,0.4,0.3,0.6C-380.9,443.2-380.8,443.3-380.5,443.3z"/>
	<path class="st0" d="M-373.8,444.3h-1.7v-9.2l1.7-0.3V444.3z"/>
	<path class="st0" d="M-371.1,436.5c-0.6,0-1-0.3-1-1s0.3-1,1-1s1,0.3,1,1S-370.5,436.5-371.1,436.5z M-372,437.3h1.7v7h-1.7V437.3z
		"/>
	<path class="st0" d="M-365.9,436.1c-0.4,0-0.6,0.3-0.6,0.7v0.4h1.3v1h-1.3v5.9h-1.7v-5.9h-0.8v-1h0.8v-0.4c0-1.3,0.7-2,2.1-2
		c0.5,0,1,0.1,1.4,0.3l-0.4,1.2C-365.4,436.1-365.7,436.1-365.9,436.1z"/>
	<path class="st0" d="M-358.4,440.8c0,2.4-1,3.7-3.2,3.7s-3.2-1.2-3.2-3.7c0-2.4,1-3.7,3.2-3.7S-358.4,438.4-358.4,440.8z
		 M-362.9,442.6c0.2,0.4,0.6,0.6,1.2,0.6s1-0.2,1.2-0.6c0.2-0.4,0.3-1,0.3-1.8c0-0.8-0.1-1.4-0.3-1.8c-0.2-0.4-0.6-0.6-1.2-0.6
		s-1,0.2-1.2,0.6c-0.2,0.4-0.3,1-0.3,1.8C-363.2,441.6-363.1,442.2-362.9,442.6z"/>
	<path class="st0" d="M-355.5,444.3h-1.7v-7h0.8l0.6,1.1c0.5-0.8,1.4-1.2,2.4-1.2v1.4c-1,0-1.7,0.3-2.2,0.9L-355.5,444.3
		L-355.5,444.3z"/>
	<path class="st0" d="M-350.9,438c0.8-0.5,1.6-0.8,2.4-0.8c0.8,0,1.4,0.2,1.7,0.6c0.3,0.4,0.5,1,0.5,1.7v5h-1.7v-4.9
		c0-0.4-0.1-0.7-0.3-0.9c-0.2-0.2-0.4-0.3-0.8-0.3c-0.6,0-1.1,0.2-1.7,0.5v5.4h-1.6v-7h0.8L-350.9,438z"/>
	<path class="st0" d="M-343.7,436.5c-0.6,0-1-0.3-1-1s0.3-1,1-1c0.6,0,1,0.3,1,1C-342.8,436.1-343.1,436.5-343.7,436.5z
		 M-344.6,437.3h1.7v7h-1.7V437.3z"/>
	<path class="st0" d="M-338.5,437.2c1.7,0,2.7,0.8,2.7,2.4v4.7h-1l-0.4-0.9c-0.7,0.7-1.4,1-2.3,1c-0.6,0-1.1-0.2-1.4-0.5
		c-0.3-0.3-0.5-0.8-0.5-1.4s0.2-1,0.5-1.4c0.3-0.3,1-0.6,2.1-0.8l1.5-0.3v-0.6c0-0.8-0.3-1.2-1.1-1.2c-0.7,0-1.1,0.3-1.2,1l-1.3-0.3
		C-340.8,437.8-339.9,437.2-338.5,437.2z M-339.2,443.3c0.5,0,1.1-0.3,1.7-0.8v-1.2l-1.2,0.2c-0.5,0.1-0.9,0.3-1,0.4
		c-0.2,0.2-0.3,0.4-0.3,0.7s0.1,0.4,0.3,0.6C-339.6,443.2-339.4,443.3-339.2,443.3z"/>
	<path class="st0" d="M-328.6,435.3h2.2l2.7,9h-1.6l-0.8-2.4h-3l-0.8,2.4h-1.5L-328.6,435.3z M-327.5,436.9l-1.1,3.7h2.2
		L-327.5,436.9z"/>
	<path class="st0" d="M-321.2,439c-0.2,0.4-0.3,1-0.3,1.8c0,0.8,0.1,1.4,0.3,1.8c0.2,0.4,0.6,0.6,1.1,0.6c0.5,0,0.9-0.1,1.1-0.3
		c0.3-0.2,0.3-0.5,0.3-1l1.3,0.1c-0.1,0.9-0.3,1.5-0.7,1.9c-0.4,0.4-1.1,0.6-2.2,0.6c-1.1,0-2-0.3-2.4-1.1c-0.2-0.3-0.3-0.8-0.4-1.1
		c-0.1-0.4-0.1-0.9-0.1-1.4s0-1,0.1-1.4c0.1-0.4,0.3-0.8,0.4-1.1c0.4-0.8,1.2-1.1,2.4-1.1c1,0,1.7,0.2,2.1,0.6
		c0.4,0.4,0.7,1,0.7,1.8l-1.3,0.2c0-0.4-0.2-0.8-0.3-1c-0.3-0.2-0.6-0.3-1.1-0.3C-320.7,438.4-321,438.6-321.2,439z"/>
	<path class="st0" d="M-313.4,437.2c1.7,0,2.7,0.8,2.7,2.4v4.7h-1l-0.4-0.9c-0.7,0.7-1.4,1-2.3,1c-0.6,0-1.1-0.2-1.4-0.5
		c-0.3-0.3-0.5-0.8-0.5-1.4s0.2-1,0.5-1.4c0.3-0.3,1-0.6,2.1-0.8l1.5-0.3v-0.6c0-0.8-0.3-1.2-1.1-1.2c-0.7,0-1.1,0.3-1.2,1l-1.3-0.3
		C-315.8,437.8-314.9,437.2-313.4,437.2z M-314,443.3c0.5,0,1.1-0.3,1.7-0.8v-1.2l-1.1,0.2c-0.5,0.1-0.9,0.3-1,0.4
		c-0.2,0.2-0.3,0.4-0.3,0.7s0.1,0.4,0.3,0.6C-314.6,443.2-314.3,443.3-314,443.3z"/>
	<path class="st0" d="M-307.1,444.5c-1.6,0-2.4-1.2-2.4-3.7c0-2.4,1-3.7,2.9-3.7c0.5,0,1,0.1,1.6,0.3v-2.4l1.7-0.1v9.3h-1l-0.4-0.9
		C-305.6,444.1-306.3,444.5-307.1,444.5z M-306.4,443.2c0.5,0,1-0.3,1.5-0.8v-3.8c-0.4-0.2-0.8-0.3-1.1-0.3c-0.6,0-1,0.2-1.2,0.6
		c-0.3,0.4-0.3,1-0.3,1.8C-307.8,442.4-307.3,443.2-306.4,443.2z"/>
	<path class="st0" d="M-298.9,444.5c-1.1,0-1.9-0.3-2.4-0.9c-0.5-0.6-0.7-1.6-0.7-2.8c0-2.4,1-3.7,3.1-3.7c1.2,0,2,0.3,2.4,1.1
		c0.3,0.6,0.5,1.5,0.5,2.4v0.4h-4.4c0,0.8,0.2,1.3,0.3,1.7c0.3,0.3,0.6,0.4,1.2,0.4c0.9,0,1.4-0.3,1.5-1l1.3,0.1
		C-296.1,443.8-297,444.5-298.9,444.5z M-297.9,438.8c-0.2-0.3-0.5-0.4-1-0.4c-0.4,0-0.8,0.1-1,0.3c-0.2,0.3-0.3,0.7-0.4,1.2h2.8
		C-297.5,439.4-297.6,439.1-297.9,438.8z"/>
	<path class="st0" d="M-291.2,437.2c1,0,1.7,0.3,2.1,0.9c0.7-0.5,1.5-0.9,2.3-0.9c0.8,0,1.4,0.2,1.7,0.6s0.6,1,0.6,1.7v5h-1.7v-4.7
		c0-0.4-0.1-0.7-0.3-1c-0.2-0.2-0.4-0.3-0.8-0.3c-0.5,0-1,0.2-1.6,0.6c0,0.2,0,0.3,0,0.4v5h-1.6v-4.7c0-0.4-0.1-0.7-0.3-1
		c-0.2-0.2-0.4-0.3-1-0.3c-0.4,0-1,0.2-1.4,0.5v5.4h-1.7v-7h0.9l0.4,0.6C-292.6,437.3-291.9,437.2-291.2,437.2z"/>
	<path class="st0" d="M-280.7,447.2l-1.5-0.3l1-2.6l-2.5-7.2h1.7l1.7,4.9l1.5-4.9h1.7L-280.7,447.2z"/>
	<path class="st0" d="M-266.9,440.8c0,2.4-1,3.7-3.2,3.7s-3.2-1.2-3.2-3.7c0-2.4,1-3.7,3.2-3.7S-266.9,438.4-266.9,440.8z
		 M-271.4,442.6c0.2,0.4,0.6,0.6,1.2,0.6s1-0.2,1.2-0.6c0.2-0.4,0.3-1,0.3-1.8c0-0.8-0.1-1.4-0.3-1.8c-0.2-0.4-0.6-0.6-1.2-0.6
		s-1,0.2-1.2,0.6c-0.2,0.4-0.3,1-0.3,1.8C-271.6,441.6-271.5,442.2-271.4,442.6z"/>
	<path class="st0" d="M-263.2,436.1c-0.4,0-0.6,0.3-0.6,0.7v0.4h1.3v1h-1.3v5.9h-1.7v-5.9h-0.8v-1h0.8v-0.4c0-1.3,0.7-2,2.1-2
		c0.5,0,1,0.1,1.4,0.3l-0.4,1.2C-262.6,436.1-262.9,436.1-263.2,436.1z"/>
	<path class="st0" d="M-257.9,444.3v-9h1.7v7.7h3.1v1.3H-257.9z"/>
	<path class="st0" d="M-249.4,444.5c-1.1,0-1.9-0.3-2.4-0.9c-0.5-0.6-0.7-1.6-0.7-2.8c0-2.4,1-3.7,3.1-3.7c1.2,0,2,0.3,2.4,1.1
		c0.3,0.6,0.5,1.5,0.5,2.4v0.4h-4.4c0,0.8,0.2,1.3,0.3,1.7s0.6,0.4,1.2,0.4c0.9,0,1.4-0.3,1.5-1l1.3,0.1
		C-246.7,443.8-247.6,444.5-249.4,444.5z M-248.5,438.8c-0.2-0.3-0.5-0.4-1-0.4c-0.4,0-0.8,0.1-1,0.3c-0.2,0.3-0.3,0.7-0.4,1.2h2.8
		C-248.2,439.4-248.3,439.1-248.5,438.8z"/>
	<path class="st0" d="M-242.6,437.2c1.7,0,2.7,0.8,2.7,2.4v4.7h-1l-0.4-0.9c-0.7,0.7-1.4,1-2.3,1c-0.6,0-1.1-0.2-1.4-0.5
		c-0.3-0.3-0.5-0.8-0.5-1.4s0.2-1,0.5-1.4c0.3-0.3,1-0.6,2.1-0.8l1.5-0.3v-0.6c0-0.8-0.3-1.2-1.1-1.2c-0.7,0-1.1,0.3-1.2,1l-1.3-0.3
		C-244.9,437.8-244,437.2-242.6,437.2z M-243.2,443.3c0.5,0,1.1-0.3,1.7-0.8v-1.2l-1.1,0.2c-0.5,0.1-0.9,0.3-1,0.4s-0.3,0.4-0.3,0.7
		s0.1,0.4,0.3,0.6C-243.6,443.2-243.5,443.3-243.2,443.3z"/>
	<path class="st0" d="M-236.2,444.5c-1.6,0-2.4-1.2-2.4-3.7c0-2.4,1-3.7,2.9-3.7c0.5,0,1,0.1,1.6,0.3v-2.4l1.7-0.1v9.3h-1l-0.4-0.9
		C-234.6,444.1-235.4,444.5-236.2,444.5z M-235.6,443.2c0.5,0,1-0.3,1.5-0.8v-3.8c-0.4-0.2-0.8-0.3-1.1-0.3c-0.6,0-1,0.2-1.2,0.6
		c-0.3,0.4-0.3,1-0.3,1.8C-236.9,442.4-236.5,443.2-235.6,443.2z"/>
	<path class="st0" d="M-227.9,444.5c-1.1,0-1.9-0.3-2.4-0.9c-0.5-0.6-0.7-1.6-0.7-2.8c0-2.4,1-3.7,3.1-3.7c1.2,0,2,0.3,2.4,1.1
		c0.3,0.6,0.5,1.5,0.5,2.4v0.4h-4.4c0,0.8,0.2,1.3,0.3,1.7s0.6,0.4,1.2,0.4c0.9,0,1.4-0.3,1.5-1l1.3,0.1
		C-225.2,443.8-226.2,444.5-227.9,444.5z M-227.1,438.8c-0.2-0.3-0.5-0.4-1-0.4c-0.4,0-0.8,0.1-1,0.3c-0.2,0.3-0.3,0.7-0.4,1.2h2.8
		C-226.7,439.4-226.8,439.1-227.1,438.8z"/>
	<path class="st0" d="M-222,444.3h-1.7v-7h0.8l0.6,1.1c0.5-0.8,1.4-1.2,2.4-1.2v1.4c-1,0-1.7,0.3-2.2,0.9L-222,444.3L-222,444.3z"/>
	<path class="st0" d="M-213.6,442.3c0,1.4-1,2.1-3,2.1c-0.9,0-1.5-0.2-1.9-0.5s-0.7-0.9-0.8-1.7l1.3-0.2c0.1,0.8,0.6,1.1,1.5,1.1
		c0.9,0,1.3-0.3,1.3-0.9c0-0.3-0.1-0.4-0.3-0.5c-0.2-0.1-0.5-0.3-1-0.3l-0.5-0.2c-0.7-0.2-1.2-0.4-1.6-0.8c-0.3-0.3-0.4-0.8-0.4-1.5
		c0-1.4,1-2.1,2.9-2.1c0.8,0,1.4,0.2,1.8,0.5c0.4,0.3,0.7,0.9,0.8,1.7l-1.3,0.2c-0.1-0.8-0.5-1.1-1.4-1.1c-0.8,0-1.2,0.3-1.2,0.9
		c0,0.3,0.1,0.4,0.3,0.5c0.2,0.1,0.5,0.3,1,0.3l0.6,0.2c0.7,0.2,1.2,0.4,1.6,0.8C-213.8,441.3-213.6,441.7-213.6,442.3z"/>
	<path class="st0" d="M-210.6,437.7c0.7-0.4,1.4-0.6,2.1-0.6s1.3,0.2,1.7,0.6c0.3,0.4,0.5,1,0.5,1.7v5h-1.7v-4.8
		c0-0.4-0.1-0.7-0.3-0.9c-0.2-0.2-0.4-0.3-0.8-0.3c-0.6,0-1.1,0.2-1.7,0.5v5.4h-1.7v-9.2l1.7-0.1L-210.6,437.7L-210.6,437.7z"/>
	<path class="st0" d="M-203.7,436.5c-0.6,0-1-0.3-1-1s0.3-1,1-1c0.6,0,1,0.3,1,1S-203.1,436.5-203.7,436.5z M-204.5,437.3h1.7v7
		h-1.7V437.3z"/>
	<path class="st0" d="M-197.7,437.2c1.9,0,2.8,1.2,2.8,3.7c0,2.4-1,3.7-2.9,3.7c-0.5,0-1-0.1-1.6-0.3v2.6l-1.7,0.3v-9.8h0.8l0.4,0.5
		C-199,437.3-198.3,437.2-197.7,437.2z M-198.2,438.4c-0.4,0-0.8,0.1-1.2,0.3v4.3c0.3,0.1,0.8,0.2,1.1,0.2c0.6,0,1-0.2,1.2-0.6
		c0.3-0.4,0.3-1,0.3-1.8C-196.5,439.2-197,438.4-198.2,438.4z"/>
</g>
</svg>
