<?xml version="1.0" encoding="utf-8"?>
<!-- Generator: Adobe Illustrator 19.0.0, SVG Export Plug-In . SVG Version: 6.00 Build 0)  -->
<svg version="1.1" id="Layer_1" xmlns="http://www.w3.org/2000/svg" xmlns:xlink="http://www.w3.org/1999/xlink" x="0px" y="0px"
	 viewBox="0 0 500 125" style="enable-background:new 0 0 500 125;" xml:space="preserve">
<style type="text/css">
	.st0{fill:#404041;}
	.st1{fill:#BE1E2D;}
	.st2{font-family:'AvenirNext-DemiBold';}
	.st3{font-size:19.5677px;}
	.st4{letter-spacing:1;}
</style>
<path class="st0" d="M9.3,46.6h20.2c1.9,0,3.9,0.2,5.8,0.7c1.9,0.5,3.6,1.2,5.1,2.3c1.5,1,2.7,2.4,3.6,4.1c0.9,1.7,1.4,3.7,1.4,6
	c0,2.9-0.8,5.3-2.5,7.2c-1.7,1.9-3.8,3.3-6.5,4.1v0.1c3.3,0.4,5.9,1.7,8,3.8c2.1,2.1,3.1,4.9,3.1,8.4c0,2.8-0.6,5.2-1.7,7.1
	c-1.1,1.9-2.6,3.5-4.4,4.6c-1.8,1.2-3.9,2-6.3,2.5c-2.4,0.5-4.8,0.8-7.2,0.8H9.3V46.6z M18.5,67.6h8.2c3.1,0,5.4-0.6,7-1.8
	c1.6-1.2,2.4-2.9,2.4-5.2c0-2.3-0.8-4-2.5-5c-1.7-1-4.2-1.5-7.7-1.5h-7.4V67.6z M18.5,90.6h8.3c1.2,0,2.4-0.1,3.8-0.3
	c1.4-0.2,2.6-0.5,3.8-1.1c1.1-0.5,2.1-1.3,2.8-2.3c0.8-1,1.1-2.4,1.1-4.1c0-2.7-0.9-4.6-2.8-5.7c-1.9-1.1-4.7-1.6-8.4-1.6h-8.6V90.6
	z"/>
<path class="st0" d="M49.9,80c0-2.8,0.5-5.3,1.5-7.6c1-2.3,2.3-4.2,4.1-5.8c1.7-1.6,3.7-2.8,6.1-3.7c2.3-0.9,4.8-1.3,7.5-1.3
	c2.6,0,5.1,0.4,7.5,1.3c2.3,0.9,4.4,2.1,6.1,3.7c1.7,1.6,3.1,3.5,4.1,5.8c1,2.3,1.5,4.8,1.5,7.6c0,2.8-0.5,5.3-1.5,7.6
	c-1,2.3-2.4,4.3-4.1,5.9c-1.7,1.6-3.7,2.9-6.1,3.8c-2.3,0.9-4.8,1.4-7.5,1.4c-2.6,0-5.1-0.5-7.5-1.4c-2.3-0.9-4.4-2.2-6.1-3.8
	c-1.7-1.6-3.1-3.6-4.1-5.9C50.4,85.3,49.9,82.8,49.9,80z M58.8,80c0,1.4,0.2,2.7,0.6,4.1c0.4,1.4,1,2.6,1.9,3.7
	c0.8,1.1,1.9,1.9,3.1,2.6c1.3,0.7,2.8,1,4.5,1c1.8,0,3.3-0.3,4.5-1c1.3-0.7,2.3-1.6,3.1-2.6c0.8-1.1,1.4-2.3,1.9-3.7
	c0.4-1.4,0.6-2.7,0.6-4.1c0-1.4-0.2-2.7-0.6-4.1c-0.4-1.3-1-2.5-1.9-3.6c-0.8-1.1-1.9-1.9-3.1-2.6c-1.3-0.7-2.8-1-4.5-1
	c-1.8,0-3.3,0.3-4.5,1c-1.3,0.7-2.3,1.5-3.1,2.6c-0.8,1.1-1.5,2.3-1.9,3.6C59,77.3,58.8,78.7,58.8,80z"/>
<path class="st0" d="M266.3,51.3c0-1.4,0.5-2.6,1.6-3.7c1-1,2.4-1.6,4-1.6s3,0.5,4.1,1.5c1.1,1,1.6,2.3,1.6,3.8
	c0,1.5-0.5,2.8-1.6,3.8c-1.1,1-2.4,1.5-4.1,1.5s-2.9-0.5-4-1.6C266.9,54,266.3,52.8,266.3,51.3z M267.6,63.3h8.8v35.1h-8.8V63.3z"/>
<path class="st0" d="M323.2,62.2c2.3,0,4.3,0.4,5.9,1.2c1.6,0.8,3,1.9,4,3.2c1,1.3,1.8,2.8,2.3,4.5c0.5,1.7,0.7,3.5,0.7,5.3v21.9
	h-8.8V78.9c0-1-0.1-2.1-0.2-3.2c-0.1-1.1-0.5-2.1-0.9-3c-0.5-0.9-1.2-1.6-2-2.2c-0.9-0.6-2-0.9-3.4-0.9c-1.4,0-2.5,0.3-3.5,0.9
	c-1,0.6-1.8,1.3-2.4,2.3c-0.6,0.9-1.1,2-1.4,3.1c-0.3,1.1-0.4,2.3-0.4,3.4v19.1h-8.8V77.1c0-2.2-0.5-4-1.6-5.4
	c-1-1.4-2.7-2.2-4.9-2.2c-1.3,0-2.5,0.3-3.4,0.8c-1,0.6-1.8,1.3-2.4,2.2c-0.6,0.9-1.1,1.9-1.4,3c-0.3,1.1-0.5,2.3-0.5,3.5v19.3h-8.8
	V63.3h8.3v5.6h0.1c0.4-0.9,0.9-1.7,1.6-2.5c0.7-0.8,1.4-1.5,2.3-2.1c0.9-0.6,1.9-1.1,3.1-1.5c1.2-0.4,2.5-0.5,3.9-0.5
	c2.7,0,5,0.6,6.8,1.8c1.8,1.2,3.2,2.8,4.2,4.8c1.2-2.1,2.7-3.8,4.7-4.9C318.3,62.8,320.6,62.2,323.2,62.2z"/>
<path class="st0" d="M349.6,43.1v24.6h0.2c0.4-0.6,1-1.2,1.7-1.8c0.7-0.6,1.5-1.2,2.4-1.8c1-0.5,2.1-1,3.3-1.4
	c1.3-0.4,2.7-0.5,4.3-0.5c2.5,0,4.8,0.5,6.9,1.4c2.1,0.9,3.9,2.3,5.4,3.9c1.5,1.7,2.7,3.6,3.5,5.8c0.8,2.2,1.2,4.7,1.2,7.2
	c0,2.6-0.4,5-1.2,7.3c-0.8,2.3-1.9,4.2-3.4,5.9c-1.5,1.7-3.3,3-5.4,4c-2.1,1-4.5,1.5-7.2,1.5c-2.5,0-4.8-0.5-7-1.6
	c-2.2-1.1-3.9-2.6-5.1-4.7h-0.1v5.3h-8.3V43.1H349.6z M369.7,80.6c0-1.4-0.2-2.7-0.6-4.1c-0.4-1.3-1-2.5-1.9-3.6
	c-0.8-1.1-1.9-1.9-3.1-2.6c-1.3-0.7-2.8-1-4.5-1c-1.6,0-3,0.3-4.3,1c-1.3,0.7-2.4,1.6-3.3,2.6c-0.9,1.1-1.6,2.3-2,3.7
	c-0.5,1.4-0.7,2.7-0.7,4.1c0,1.4,0.2,2.7,0.7,4.1c0.5,1.3,1.1,2.5,2,3.6c0.9,1.1,2,1.9,3.3,2.6c1.3,0.7,2.7,1,4.3,1
	c1.7,0,3.2-0.3,4.5-1c1.3-0.7,2.3-1.6,3.1-2.6c0.8-1.1,1.4-2.3,1.9-3.7C369.5,83.4,369.7,82,369.7,80.6z"/>
<path class="st0" d="M416.5,81.2c0,0.4,0,0.8,0,1.2c0,0.4,0,0.8-0.1,1.2h-26.7c0.1,1.3,0.4,2.4,1,3.5c0.6,1,1.3,1.9,2.2,2.7
	c0.9,0.8,2,1.4,3.1,1.8c1.2,0.4,2.4,0.7,3.7,0.7c2.2,0,4-0.4,5.6-1.2c1.5-0.8,2.8-1.9,3.7-3.3l5.8,4.7c-3.5,4.7-8.5,7-15.1,7
	c-2.7,0-5.2-0.4-7.5-1.3c-2.3-0.9-4.3-2.1-6-3.6c-1.7-1.6-3-3.5-3.9-5.7c-0.9-2.3-1.4-4.8-1.4-7.7c0-2.8,0.5-5.4,1.4-7.7
	c1-2.3,2.3-4.3,3.9-5.9c1.7-1.6,3.6-2.9,5.9-3.8c2.3-0.9,4.7-1.4,7.3-1.4c2.4,0,4.7,0.4,6.8,1.2c2.1,0.8,3.9,2,5.4,3.6
	c1.5,1.6,2.7,3.6,3.5,5.9C416.1,75.3,416.5,78.1,416.5,81.2z M407.7,77.3c0-1.1-0.2-2.2-0.5-3.2c-0.3-1-0.8-1.9-1.5-2.7
	c-0.7-0.8-1.5-1.4-2.6-1.9c-1-0.5-2.3-0.7-3.7-0.7c-2.6,0-4.9,0.8-6.7,2.4c-1.8,1.6-2.8,3.6-3,6.1H407.7z"/>
<path class="st0" d="M420.1,63.3h8.4v5.8h0.1c1-2,2.3-3.7,4.1-5c1.8-1.3,3.8-1.9,6.1-1.9c0.3,0,0.7,0,1.1,0c0.4,0,0.7,0.1,1,0.2v8
	c-0.6-0.1-1.1-0.2-1.5-0.3c-0.4,0-0.8-0.1-1.2-0.1c-2,0-3.6,0.4-4.8,1.1c-1.2,0.7-2.2,1.6-2.8,2.6c-0.7,1-1.1,2.1-1.4,3.1
	c-0.2,1.1-0.4,1.9-0.4,2.6v18.8h-8.8V63.3z"/>
<path class="st0" d="M443.9,43.1h8.8v55.2h-8.8V43.1z"/>
<path class="st0" d="M455.4,63.3h9.7l9.8,25.5h0.1l8.7-25.5h9.1l-16.6,42.6c-0.6,1.6-1.3,3-2,4.3c-0.7,1.2-1.6,2.3-2.6,3.1
	c-1,0.9-2.2,1.5-3.6,1.9c-1.4,0.4-3.1,0.7-5,0.7c-0.7,0-1.5,0-2.2-0.1c-0.8-0.1-2.5-0.3-3.3-0.5v-7.9c0.6,0.2,2.9,0.7,3.5,0.8
	c0.6,0.1,1.1,0.1,1.6,0.1c0.9,0,1.7-0.1,2.3-0.3c0.6-0.2,1.2-0.6,1.6-1c0.4-0.5,0.8-1,1.2-1.7c0.3-0.7,0.7-1.5,1.1-2.4l1.8-4.5
	L455.4,63.3z"/>
<path class="st0" d="M126.9,70.7c-0.6-1.1-1.4-2.2-2.2-3.1c-1.5-1.7-3.3-3-5.4-3.9c-2.1-0.9-4.4-1.4-6.9-1.4c-1.6,0-3,0.2-4.3,0.5
	c-1.3,0.4-2.4,0.8-3.3,1.4c-0.9,0.5-1.8,1.1-2.4,1.8c-0.7,0.6-1.2,1.2-1.7,1.8h-0.2V43.1h-8.8v55.2h8.3v-5.3h0.1
	c1.2,2,2.9,3.6,5.1,4.7c2.2,1.1,4.5,1.6,7,1.6c2.7,0,5.1-0.5,7.2-1.5c2.1-1,3.9-2.3,5.4-4c1.5-1.7,2.6-3.7,3.4-5.9
	c0.6-1.7,1-3.5,1.1-5.4C127.7,78.8,126.9,74.8,126.9,70.7z M119.8,84.7c-0.4,1.4-1,2.6-1.9,3.7c-0.8,1.1-1.9,1.9-3.1,2.6
	c-1.3,0.7-2.8,1-4.5,1c-1.6,0-3-0.3-4.3-1c-1.3-0.7-2.4-1.5-3.3-2.6c-0.9-1.1-1.6-2.3-2-3.6c-0.5-1.3-0.7-2.7-0.7-4.1
	c0-1.4,0.2-2.7,0.7-4.1c0.5-1.4,1.1-2.6,2-3.7c0.9-1.1,2-1.9,3.3-2.6c1.3-0.7,2.7-1,4.3-1c1.7,0,3.2,0.3,4.5,1
	c1.3,0.7,2.3,1.5,3.1,2.6c0.8,1.1,1.4,2.3,1.9,3.6c0.4,1.3,0.6,2.7,0.6,4.1C120.5,82,120.2,83.4,119.8,84.7z"/>
<polygon id="XMLID_3_" class="st0" points="238.6,70.5 262.8,46.6 250.3,46.6 228.7,69 228.5,69 228.5,46.6 219.3,46.6 219.3,64 
	222.5,70.9 223,72 221.9,72.5 219.3,73.8 219.3,98.3 228.5,98.3 228.5,72.4 228.7,72.4 251.4,98.3 264.4,98.3 "/>
<g>
	<path class="st1" d="M171.9,3.1c3,0,6,0.5,8.9,1.5c5.3,1.8,9.8,5,13.2,9.4l0.3,0.4l0.2,0.4l10.8,18.1L192.5,33l-8.1-12.1
		c-1.9-2.4-4.5-4.2-7.4-5.2c-1.7-0.6-3.4-0.8-5.1-0.8c-6.9,0-13,4.4-15.3,10.9c-1.9,5.7-0.5,11.9,3.6,16.2l8.6,9l2.9,3.1l-10,7.2
		l-8-8.9c-5.9,1.4-10.8,5.9-12.8,11.7c-1.5,4.5-1.2,9.3,0.9,13.6c2.1,4.3,5.8,7.5,10.3,9c1.8,0.6,4.2,1,6.3,1c2.1,0,3.5-0.6,4.4-0.9
		c3.4-1.6,9.2-4.4,15.2-7.3l-7.2-7.9l9.9-7.3l8.6,9.7c5.1-2.5,11.1-5.3,16.5-8l-2.6-4.7l13.2-0.4l4.9,10.5l-3.6,1.8
		c-0.1,0-9.5,4.7-19.5,9.6l14.5,15.5h-16.4l-9.4-10.1c-16.1,7.8-19.6,9.5-19.6,9.5s-1,0.4-1.9,0.8c-0.8,0.4-5.1,1-7.7,1
		c-3.2,0-6.4-0.5-9.5-1.6c-15.5-5.2-23.9-22.1-18.6-37.6c2.8-8.2,8.9-14.7,16.8-17.9c-2.9-6.4-3.3-13.6-1-20.4
		C149.2,10.7,159.9,3.1,171.9,3.1"/>
</g>
<text id="XMLID_1_" transform="matrix(1 0 0 1 4.9569 120.2363)" class="st0 st2 st3 st4">BOB AND KIMBERLY JOHNSON MINISTRIES</text>
</svg>
