<?xml version="1.0" encoding="utf-8"?>
<!-- Generator: Adobe Illustrator 19.0.0, SVG Export Plug-In . SVG Version: 6.00 Build 0)  -->
<svg version="1.1" id="Layer_1" xmlns="http://www.w3.org/2000/svg" xmlns:xlink="http://www.w3.org/1999/xlink" x="0px" y="0px"
	 viewBox="0 0 465 364" style="enable-background:new 0 0 465 364;" xml:space="preserve">
<style type="text/css">
	.st0{fill:none;stroke:#58595B;stroke-width:0.5;stroke-miterlimit:10;}
	.st1{fill:#BE1E2D;}
	.st2{fill:#58595B;}
	.st3{font-family:'Gotham-Bold';}
	.st4{font-size:18.906px;}
	.st5{letter-spacing:7;}
	.st6{font-family:'Helvetica-Bold';}
	.st7{font-size:10.5284px;}
	.st8{letter-spacing:1;}
	.st9{fill:none;stroke:#404041;stroke-width:3;stroke-miterlimit:10;}
</style>
<line id="XMLID_49_" class="st0" x1="354.8" y1="232.5" x2="421.5" y2="232.5"/>
<line id="XMLID_48_" class="st0" x1="53.3" y1="232.5" x2="120" y2="232.5"/>
<g>
	<polygon id="XMLID_47_" class="st1" points="266.4,185.8 245.1,158.9 239.4,158.9 239.4,201.2 245.2,201.2 245.2,172.3 268,201.2 
		272,201.2 272,158.9 266.4,158.9 	"/>
	<path id="XMLID_46_" class="st1" d="M307.9,158.9c-12.5,0-22.4,9.4-22.4,21.3c0,12,9.5,21.1,22.2,21.1c5.4,0,9.8-1.3,13.8-4.1
		l0.7-0.5v-8.6l-2.7,2.3c-3.5,3-6.9,5.1-11.8,5.1c-8.4,0-14.1-8-14.1-15.5c0-7.5,5.7-15.5,14.1-15.5c5.5,0,9.2,2.6,11.8,4.8l2.7,2.4
		v-8.5l-0.7-0.5C317.6,160.1,313.3,158.9,307.9,158.9z"/>
	<polygon id="XMLID_45_" class="st1" points="337.7,201.2 366.7,201.2 366.7,195.6 345.9,195.6 345.9,183.1 366.7,183.1 
		366.7,177.5 345.9,177.5 345.9,165.1 366.7,165.1 366.7,159.4 337.7,159.4 	"/>
	<path class="st1" d="M396.9,159.9H382v41.4h14.9c12.7,0,21.9-8.7,21.9-20.8C418.8,168.6,409.6,159.9,396.9,159.9z M397.1,195.9
		h-6.8l0-30.6h6.3c8.9,0,14.5,8,14.5,15.4C411,188.2,405.8,195.9,397.1,195.9z"/>
	<polygon id="XMLID_42_" class="st1" points="159.2,158.9 150.7,158.9 150.7,201.6 180.3,201.6 180.3,195.9 159.2,195.9 	"/>
	<path class="st1" d="M214.4,159.3l-5.7,0.2l-19.3,42h6.8l6-13.2H219l6.1,13.2h8.7l-19.2-41.9L214.4,159.3z M216.4,182.6h-11.5
		l5.7-12.6L216.4,182.6z"/>
	<path class="st1" d="M114.4,159.5l-19.3,42h6.8l6-13.2h16.8l6.1,13.2h8.7L120,159.3L114.4,159.5z M122,182.6h-11.5l5.7-12.6
		L122,182.6z"/>
	<path class="st1" d="M84.3,179.5c2.7-2.1,4.1-5.1,4.1-8.8c0-2.8-1-5.3-3-7.4c-2.6-2.6-6.5-3.9-11.3-3.9H55.9v42.1h18.9
		c9.5,0,15.7-4.8,15.7-12.3C90.5,184.8,88.4,181.6,84.3,179.5z M64.2,183.3h10.2c3.1,0,8.4,0.7,8.4,5.7c0,3.3-2.7,6.8-7.8,6.8H64.2
		L64.2,183.3z M73.4,177.6h-9.2l0-12.5h10.2c4.6,0,6.3,3.3,6.3,6.3C80.6,175.1,77.6,177.6,73.4,177.6z"/>
</g>
<text id="XMLID_34_" transform="matrix(1 0 0 1 139.8131 238.1605)" class="st2 st3 st4 st5">SWISS MADE</text>
<polygon id="XMLID_33_" class="st2" points="289,139.3 265.5,105.7 253.3,100.2 235.1,62 243.3,139.3 "/>
<polygon id="XMLID_32_" class="st2" points="169.7,139.3 195.1,107.1 189,139.3 "/>
<polygon id="XMLID_31_" class="st2" points="176.7,102 192.8,95.1 231,51.8 254.2,75.7 266.1,80.8 313.5,139.3 323.4,139.3 
	267.5,71.8 258,68.8 231,41 189.9,86.6 172.5,94.5 138.6,139.3 148.1,139.3 "/>
<text id="XMLID_30_" transform="matrix(1 0 0 1 329.899 139.3466)" class="st2 st6 st7 st8">TM</text>
<path id="XMLID_29_" class="st9" d="M445.1,355.1h-423c-6.6,0-12-5.4-12-12V22.2c0-6.6,5.4-12,12-12h423c6.6,0,12,5.4,12,12v320.8
	C457.1,349.7,451.7,355.1,445.1,355.1z"/>
<g>
	<path class="st2" d="M163.7,261.8c4.4-0.8,6.7-0.9,6.8-0.3c-16.9,4.1-29.9,7.2-39.1,9c-9.1,1.9-21.3,4.2-36.6,6.9l-6.8,0.8
		c-2.1,1.3-6.7,5.4-13.9,12.3c-7.2,6.9-11.5,11.2-12.8,13.1c-1.4,1.9-2.4,3.6-3,5.3l1.4,0.6l6.9-1.4l0.7,0.6
		c0.2,0.6-1.6,1.3-5.5,2.1c-3.9,0.8-5.9,0.7-6.1-0.3c-0.4-2.9,0.9-5.9,4.1-9c13-13.5,20.6-20.8,22.6-21.9l-0.1-0.4l-4.6,0.8
		c-17.8,2.6-26.9,2.6-27.3,0l0.7-1l6.3-1.1l0.1,0.8l-2.9,1l0.1,0.4c4.4,0.6,13.8-0.3,28.1-2.8l8-4l0.5,0.3l0.2,1.3l-0.4,0.5l0.1,0.4
		l5.1-0.5C115.2,272.6,137.7,268.1,163.7,261.8z M174.7,259.5l1.1,0.6l-4.4,1C171.6,260.2,172.7,259.7,174.7,259.5z M195.2,254.1
		c3.1-0.3,4.8-0.1,4.9,0.4c0.1,0.7-1.1,1.3-3.6,1.9l-1.1-1.1c-2,0.3-8.2,1.7-18.8,4.2l-0.1-0.8L195.2,254.1z"/>
	<path class="st2" d="M93.7,284.2c1.2,0.1,1.8,0.5,2.1,1.1l-0.3,0.4c0.2,1-0.4,1.6-1.6,1.9c-0.7,2.5-1.7,4-3.1,4.5l-0.6-0.6
		c1.9-2.3,2.9-3.8,3-4.3l-0.1-0.4c-1.3,0.2-2.5,1.1-3.6,2.5c-1.1,1.5-2,2.6-2.7,3.4c-0.7,0.8-1.7,2.5-2.9,4.9l0.1,0.4l0.4-0.1l1-0.6
		c-3.6,4.7-5.9,8.1-6.8,10.1c-0.3,0.3-0.8,1.1-1.4,2.5l0.4-0.1c0.7-0.1,1.6-0.9,2.6-2.3l7-6.5c2.3-0.7,2.2,0.5-0.1,3.4l-1.4,2.8
		l0.1,0.4l1.9,0l0.5,0.7l-1,0.9c-2.2,0.1-3.4-0.2-3.5-0.9l-0.1-0.4l0.7-2.4l-4.6,5.3l-2.8,1.2l-1.1,0.2l-0.8-0.6l-0.1-0.4
		c-0.1-0.8,0.1-1.7,0.6-2.7l-3.7,3.4l-0.2-1.1l4.5-5.4c1.1-0.2,3.5-3.5,7.4-10C87.1,289.4,90.6,285.5,93.7,284.2z M89.2,292.4
		l0.4-0.1l0.2,1.1l-3.2,2.8l-0.4,0.1l1-1.5L89.2,292.4z"/>
	<path class="st2" d="M103.1,300.2c0.6-0.1,1.2,0.5,1.6,1.8c-4.5,2.9-7.2,5.1-8.1,6.5c0.4,0.8,1.3,1,2.7,0.8l1.2-0.2
		c2-0.4,3.4-0.8,4.3-1.2l1,0.7c-1.2,0.8-3.7,1.8-7.3,3c-2.7,0.5-4.2-0.2-4.6-2.1c0.4-1.5,2-4,5-7.6
		C99.8,301.1,101.2,300.6,103.1,300.2z"/>
	<path class="st2" d="M153.1,282.5l0.6,1.1c-1,3.6-6.1,12.3-15.3,26.2l0.1,0.4c2.6-1.7,4.1-2.1,4.5-1.2l-0.8,0.6
		c-3.4,1.9-6.4,4.3-8.8,7c-9.4,12.2-15.7,19.1-19,20.5l-0.6-1.1c2.1-4.9,5.6-9.4,10.5-13.6l0.5,0.3l0.1,0.4
		c-0.6,0.1-2.3,2.2-5.1,6.4c-0.9,0.2-1.4,0.9-1.6,2.2l0.8-0.1c5-4.7,12.5-14,22.4-27.8l7.9-14.7l-0.6-1.1l-1.9,0.6
		c-8.6,9-12.5,15.2-11.9,18.7l1.6,0.1l0.1,0.4c0.1,0.6-0.8,1.1-2.8,1.7l-1-1l-0.1-0.8c-0.4-2.2,2.7-7.5,9.3-15.7l8.7-8.6
		L153.1,282.5z M138,305.9l0.1,0.4l-0.6,0.9l-0.1-0.4L138,305.9z"/>
	<path class="st2" d="M157.4,300.4l2.2-0.4l1.5,1.1l-1.7,3.4l4.8-0.8l0.1,0.4l-0.7,1l-1.7,0.3c-3,0.5-6.5,2.3-10.6,5.4l-3.8,1.1
		l-1.1-1.1l-0.1-0.4C147.2,307.4,150.9,304.1,157.4,300.4z M149,310.8c4.4-2.3,6.5-3.9,6.3-4.7l-2-1.4c-0.9,0.2-2.6,1.8-4.9,4.9
		L149,310.8z M156.6,303.6l0.2,0.9l0.4-0.1l1.1-1.5L156.6,303.6z"/>
	<path class="st2" d="M182,301.3l0.2,1.4l-12.3,15.4l0.9-0.2c1.7-1.2,6.4-4.7,14.3-10.4l0.7,0.5c-16,11.5-24.3,19.2-24.9,23
		l-4.4,5.7l-1,0.2l-0.2-1c2.2-4.7,7.8-12.5,16.5-23.6l5.6-6.2c-2.2,1.5-5.6,3.3-10.1,5.5l-2.4,0.4c-0.9,0.2-1.5-0.2-1.6-1
		c-3.7,2.3-5.5,2.8-5.6,1.5c1.5-0.3,5.2-3.1,11.3-8.5l1.2-0.2l0.1,0.5c-2.8,2.2-4.2,3.9-4,5.1c1.1,1.2,6.2-1.5,15.1-8L182,301.3z"/>
	<path class="st2" d="M211.2,300.4l2.2-0.4l1.5,1.1l-1.7,3.4l4.8-0.8l0.1,0.4l-0.7,1l-1.7,0.3c-3,0.5-6.5,2.3-10.6,5.4l-3.8,1.1
		l-1.1-1.1l-0.1-0.4C201.1,307.4,204.8,304.1,211.2,300.4z M202.8,310.8c4.4-2.3,6.5-3.9,6.3-4.7l-2-1.4c-0.9,0.2-2.6,1.8-4.9,4.9
		L202.8,310.8z M210.5,303.6l0.2,0.9l0.4-0.1l1.1-1.5L210.5,303.6z"/>
	<path class="st2" d="M238.3,281.9l0.8-0.1l1,0.7c-1.6,4.2-6.4,10-14.2,17.1c-5.4,4.8-12.9,14-22.2,27.6c-0.5,0.1-1.5,1.8-3,5.2
		l0.1,0.4l0.4-0.1c5.2-3.9,10.9-10.5,17.2-19.8c-0.1-3.4,0.3-5.2,1.2-5.4l0.4-0.1l7.8,0.4l5.8-1.5l0.5,0.4l0.1,0.4
		c0.1,0.7-1,1.6-3.4,2.7l-9.6-0.5c-1.2,4.7-3.9,9.2-8.4,13.5c-6.8,7.5-11,11.4-12.6,11.7l-0.4,0.1l-1-0.7
		c0.4-3.3,5.1-10.9,14.1-22.7c4.4-5.3,9.4-11.2,15-17.7L238.3,281.9z"/>
	<path class="st2" d="M272.6,307.4c3.4-0.9,11.6-6.7,24.7-17.5l6.1-6.7l1.5-0.8c1.4-0.3,2.2,0,2.4,0.7c-8.7,7.6-15.5,13.5-20.4,17.6
		c-5.3,3.9-9.2,6.5-11.8,7.9c-2.5,1.3-5.2,1.3-8.1-0.2l-0.4-2.2l0.4-1.2c-5.3,3.9-11.2,7.5-17.7,10.8l-2.5-1.2
		c9.9-13.2,17.4-21.5,22.7-25.1l1.1-0.2c-6.4,6.1-10.9,11.1-13.7,14.8c-2.8,3.7-4.3,6.1-4.5,7.3c3.6-0.6,12-6.4,25-17.2l6.1-6.7
		l1.5-0.8c1.4-0.3,2.2,0,2.4,0.7c-8.7,7.6-14.8,13.9-18.5,18.9C269.4,307.2,270.6,307.6,272.6,307.4z"/>
	<path class="st2" d="M305,300.3c1-0.1,1.7,0.2,2.1,0.6c1.1-0.4,1.5-0.1,1.2,0.7c-0.3,0.8-1,2.4-2.3,4.6l-0.2,1
		c1.8,0.5,2.2,1.2,1.2,2.1l-4.4-0.6c-5,2.8-8.5,3.4-10.5,1.9C296,304.6,300.2,301.2,305,300.3z M294.7,309.3c-0.2,0.8,0.3,1,1.6,0.7
		c3.7-0.7,6.8-2.9,9.2-6.8l-0.1-0.5l-1.8,0.3C299,304.9,296.1,307,294.7,309.3z"/>
	<path class="st2" d="M347.7,273.7l1.2,0.2l0.3,1.5c0,0.6-1.6,2.3-4.8,5.2s-8.8,7.8-16.7,14.6c-9.1,7.4-13.5,12.4-13,14.8l0.1,0.4
		l4.4-2l0.4-0.1c0.2,1-1.6,2.1-5.3,3.3l-1.2-0.2l-0.2-1.1l1.7-3.8c3.3-4.8,6.4-8.6,9.3-11.4C335.5,281.6,343.5,274.4,347.7,273.7z
		 M328.2,292.7c5.1-3.5,9-6.6,11.6-9c2.6-2.5,3.9-4,3.8-4.5l-0.1-0.4l-0.4,0.1c-2,0.3-6,3.9-12.2,10.8L328.2,292.7z"/>
	<path class="st2" d="M374.6,267.9l0.9,0.9l0.1,0.4c-0.3,1.1-1.6,2.5-4.1,4.1c-2.5,1.6-7.3,5.6-14.6,12.1c-2.6,2.6-4.7,4.7-6.5,6.4
		s-5.4,5.7-11,12.3l0.1,0.7l0.3-0.1c1.6-2.3,4.5-3.5,8.7-3.6l0.4-0.1l0.2,1c-2.8,1-5,2.8-6.8,5.4l0.1,0.4l0.8,0.6l0.4-0.1
		c3.4-0.8,5.6-1.6,6.6-2.3c0.4,1.2-0.1,2-1.4,2.2l-4.9,1.9c-2.2-0.1-3.4-0.9-3.7-2.2l-0.7-0.6l-0.7,0.1c-1.8,2.2-3.6,3.5-5.2,3.8
		l-0.4-0.3l-0.1-0.4c3.3-4.8,8-10.5,14-16.9l0.3-0.4l-0.1-0.7c-1,0.2-9.9,7.1-26.7,20.9l-0.4-0.5c11-9.2,18.6-15.3,22.8-18.2
		c4.1-2.9,9.1-7.1,14.8-12.6C362.6,276.9,368.2,272.2,374.6,267.9z"/>
	<path class="st2" d="M351.4,311.1c0.7-0.5,1.5-0.9,2.4-1c0.5,0.4,3.7-1.8,9.5-6.4l3.3-2.7l0.5,0.4c0.2,1.2-0.2,2-1.2,2.7
		c-1,0.6-1.8,1.5-2.6,2.6L363,307l0.2,0.9c0.4,0.3,1.5,0.1,3.4-0.6c0.4,1,0.1,1.8-0.9,2.3l-3.5,0.9c-1.2,0.2-2.6-0.3-4.1-1.6
		l-5.3,3.3C351.1,312,350.7,311.6,351.4,311.1z M375.7,290c2.2-0.4,3.3,0.9,3.5,3.8c-3.8-0.6-5.9-1.2-6-2
		C373.4,290.9,374.2,290.2,375.7,290z"/>
	<path class="st2" d="M385.8,303.1c-0.3,0.9-1.5,2.4-3.6,4.5l12.5-6.6l0.6,0.4l0.2,0.9l-1.8,3.7l1.4-0.2l1.4-0.2l0.2,1.4
		c-0.7,1.1-2.2,1.7-4.6,1.8c-1.1-0.3-1.7-1-1.8-2.1l0.2-1.5l-0.5,0.1l-10.6,6.2c-0.9-0.4-1.4-1.1-1.4-2.2c0.6-1.7,1.4-3,2.2-3.8
		l-0.9,0.2l-8.4,6.6c-0.6,0.6-1,0.4-1.2-0.5l-0.1-0.5c6.6-5.4,10.8-8.2,12.6-8.6C384.6,302.1,385.8,302.2,385.8,303.1z"/>
	<path class="st2" d="M412.6,301.8c0.9-0.2,2.2,0.2,3.9,1.1l1.3-0.7l1.1,1.2c-6.2,3.9-9.9,7.9-11.2,12.1l-0.7,1.1l5.5-2.4l-0.3,1
		l-5.5,2.9l-1.3,0.2c-1.3,1.7-4.9,5.7-10.8,12l-1.2,0.7l-0.5-0.4l-0.2-1.3c-0.3-2,3.4-6.2,10.8-12.8l1.7-0.7l2.3-4.3l0.3-0.9
		c-4.8,1.5-7.6,1.7-8.2,0.5c-0.5-2.7,3.6-5.7,12.2-9L412.6,301.8z M403.1,310.4c6.8-3.1,10.1-5.1,10-5.9l-0.5-0.4l-2.7,0.5
		c-5.1,2.1-7.5,4.1-7.2,5.9L403.1,310.4z M421.4,307.8l0.1,0.5c-0.4,1.3-3.1,3-7.8,5C415.1,311.4,417.7,309.6,421.4,307.8z"/>
</g>
</svg>
