<?xml version="1.0" encoding="utf-8"?>
<!-- Generator: Adobe Illustrator 19.1.0, SVG Export Plug-In . SVG Version: 6.00 Build 0)  -->
<svg version="1.1" id="Layer_1" xmlns="http://www.w3.org/2000/svg" xmlns:xlink="http://www.w3.org/1999/xlink" x="0px" y="0px"
	 viewBox="0 0 231 76" style="enable-background:new 0 0 231 76;" xml:space="preserve">
<rect id="XMLID_6_" x="67.2" y="5.7" width="5.4" height="65.4"/>
<g id="XMLID_13_">
	<rect id="XMLID_5_" x="73.9" y="5.7" width="0.9" height="65.4"/>
</g>
<circle id="XMLID_4_" cx="57.4" cy="35.5" r="5.4"/>
<g id="XMLID_25_">
	<path id="XMLID_26_" d="M90.8,38.7V17.8h-2.7v-0.8h10.5v0.8h-3v9.5h7.9v-9.5h-2.8v-0.8H111v0.8h-2.8v20.9h2.9v0.8h-10.5v-0.8h2.9
		V28.3h-7.9v10.3h3v0.8H88.1v-0.8H90.8z"/>
	<path id="XMLID_28_" d="M127.9,33.5h-7.1l-1.4,3.8c-0.1,0.4-0.2,0.7-0.2,0.9c0,0.4,0.4,0.5,1.1,0.5h1.8v0.8h-7v-0.8h1.2
		c0.6,0,1.1-0.2,1.5-0.5c0.2-0.1,0.4-0.6,0.7-1.4l7.2-19.8h1.1l7.7,21.7h2.4v0.8h-10.2v-0.8h2.9L127.9,33.5z M127.6,32.6l-3.2-8.9
		l-3.2,8.9H127.6z"/>
	<path id="XMLID_31_" d="M143.9,38.7V17.8h-2.7v-0.8h10c2.3,0,3.9,0.1,4.8,0.3c1.6,0.4,2.7,1.1,3.4,2.2c0.5,0.8,0.7,1.7,0.7,2.7
		c0,2.1-0.9,3.6-2.7,4.5c-0.9,0.5-2.2,0.7-4,0.8c1.2,0.2,2.3,0.6,3.5,1.4c1.1,0.8,1.9,1.7,2.3,2.9c0.3,0.9,0.4,2.3,0.4,4.3
		c0,1.6,0.5,2.4,1.5,2.4c0.5,0,1.1-0.2,1.8-0.5v0.9c-1.7,0.5-3,0.8-3.8,0.8c-1.9,0-3.2-0.8-3.9-2.3c-0.3-0.7-0.5-1.5-0.6-2.4
		c0-0.4-0.1-1-0.1-1.9c-0.1-2.5-0.5-4-1.3-4.4c-0.5-0.4-1-0.6-1.5-0.6c-0.5-0.1-0.8-0.1-1-0.1h-1.9v10.8h3.2v0.8h-10.6v-0.8H143.9z
		 M148.7,27h2.5c1.1,0,1.9-0.1,2.4-0.3c0.8-0.4,1.3-1,1.5-2c0.2-0.6,0.2-1.5,0.2-2.6c0-1.7-0.3-2.8-1-3.4c-0.4-0.3-0.8-0.5-1.3-0.6
		c-0.4-0.1-1-0.1-1.9-0.1h-2.5V27z"/>
	<path id="XMLID_34_" d="M170.7,38.7V17.8H168v-0.8h10c2.3,0,3.9,0.1,4.8,0.3c1.6,0.4,2.7,1.1,3.4,2.2c0.5,0.8,0.7,1.7,0.7,2.7
		c0,2.1-0.9,3.6-2.7,4.5c-0.9,0.5-2.2,0.7-4,0.8c1.2,0.2,2.3,0.6,3.5,1.4c1.1,0.8,1.9,1.7,2.3,2.9c0.3,0.9,0.4,2.3,0.4,4.3
		c0,1.6,0.5,2.4,1.5,2.4c0.5,0,1.1-0.2,1.8-0.5v0.9c-1.7,0.5-3,0.8-3.8,0.8c-1.9,0-3.2-0.8-3.9-2.3c-0.3-0.7-0.5-1.5-0.6-2.4
		c0-0.4-0.1-1-0.1-1.9c-0.1-2.5-0.5-4-1.3-4.4c-0.5-0.4-1-0.6-1.5-0.6c-0.5-0.1-0.8-0.1-1-0.1h-1.9v10.8h3.2v0.8H168v-0.8H170.7z
		 M175.4,27h2.5c1.1,0,1.9-0.1,2.4-0.3c0.8-0.4,1.3-1,1.5-2c0.2-0.6,0.2-1.5,0.2-2.6c0-1.7-0.3-2.8-1-3.4c-0.4-0.3-0.8-0.5-1.3-0.6
		c-0.4-0.1-1-0.1-1.9-0.1h-2.5V27z"/>
	<path id="XMLID_37_" d="M197.5,38.7V17.8h-2.7v-0.8h10.2v0.8h-2.7v20.9h2.7v0.8h-10.2v-0.8H197.5z"/>
	<path id="XMLID_39_" d="M224.1,16.8v6.1h-1c-0.2-1.5-0.7-2.6-1.4-3.5c-1-1.3-2.4-1.9-4.1-1.9c-1,0-1.9,0.3-2.7,0.8
		c-0.9,0.7-1.4,1.7-1.4,3c0,1.2,0.5,2.1,1.6,2.7c0.6,0.3,1.2,0.6,2,0.8l1.9,0.5c2.7,0.8,4.4,1.6,5.3,2.4c1.2,1.2,1.9,2.8,1.9,4.9
		c0,2.3-0.8,4.1-2.3,5.5c-1.4,1.3-3.1,1.9-5.2,1.9c-1.9,0-3.8-0.6-5.7-1.9l-1.1,1.4h-0.9v-6.3h1c0.4,1.5,1,2.6,1.8,3.6
		c1.3,1.4,2.8,2.1,4.7,2.1c1.4,0,2.5-0.4,3.4-1.1c1-0.8,1.5-1.9,1.5-3.1c0-1.3-0.5-2.2-1.5-3c-0.4-0.3-0.9-0.5-1.7-0.8
		c-0.1,0-0.9-0.3-2.3-0.7c-2.4-0.7-4-1.4-4.7-1.9c-1.4-1.1-2.2-2.7-2.2-4.8c0-2.1,0.7-3.9,2.1-5.2c0.6-0.6,1.4-1.1,2.3-1.4
		c0.8-0.3,1.7-0.4,2.5-0.4c1.5,0,3.1,0.5,4.6,1.5l1-1.2H224.1z"/>
</g>
<g id="XMLID_7_">
	<path id="XMLID_8_" d="M95.3,48.2v3.3h-0.6c-0.1-0.8-0.4-1.4-0.8-1.9c-0.6-0.7-1.3-1.1-2.2-1.1c-0.6,0-1.1,0.2-1.5,0.5
		c-0.5,0.4-0.8,0.9-0.8,1.6c0,0.7,0.3,1.2,0.8,1.5c0.3,0.2,0.7,0.3,1.1,0.4l1,0.3c1.5,0.4,2.4,0.9,2.9,1.3c0.7,0.6,1,1.5,1,2.7
		c0,1.3-0.4,2.3-1.2,3c-0.8,0.7-1.7,1-2.8,1c-1,0-2.1-0.3-3.1-1l-0.6,0.8h-0.5v-3.4h0.5c0.2,0.8,0.5,1.4,1,2
		c0.7,0.8,1.5,1.1,2.5,1.1c0.7,0,1.4-0.2,1.8-0.6c0.5-0.5,0.8-1,0.8-1.7c0-0.7-0.3-1.2-0.8-1.6c-0.2-0.2-0.5-0.3-0.9-0.4
		c-0.1,0-0.5-0.2-1.3-0.4c-1.3-0.4-2.2-0.7-2.6-1C88.4,53.9,88,53,88,51.9c0-1.2,0.4-2.1,1.1-2.8c0.3-0.3,0.8-0.6,1.3-0.8
		c0.5-0.2,0.9-0.2,1.4-0.2c0.8,0,1.7,0.3,2.5,0.8l0.6-0.6H95.3z"/>
	<path id="XMLID_10_" d="M111.4,60.2V48.8h-0.5c-2-0.1-3.1,1-3.3,3.3h-0.5l0.3-3.9h10.7l0.4,3.8h-0.5c-0.1-0.6-0.2-1.1-0.4-1.5
		c-0.3-0.8-0.7-1.3-1.3-1.5c-0.4-0.2-0.9-0.3-1.7-0.3H114v11.3h1.7v0.5h-5.9v-0.5H111.4z"/>
	<path id="XMLID_12_" d="M130.7,48.7h-1.5v-0.5h5.7v0.5h-1.7v7.9c0,0.8,0,1.3,0.1,1.6c0.1,0.6,0.4,1.1,0.9,1.5
		c0.4,0.3,1,0.4,1.7,0.4c1.2,0,2-0.3,2.5-1c0.2-0.3,0.3-0.6,0.4-1c0.1-0.3,0.1-0.8,0.1-1.5v-6.6c0-0.6-0.1-1-0.2-1.1
		c-0.1-0.1-0.4-0.2-0.8-0.2h-0.5v-0.5h3.3v0.5h-0.3c-0.4,0-0.7,0.1-0.8,0.2c-0.1,0.1-0.2,0.5-0.2,1.1v6.6c0,0.9-0.1,1.6-0.2,2
		c-0.3,0.8-0.7,1.3-1.5,1.7c-0.7,0.4-1.5,0.5-2.5,0.5c-0.9,0-1.8-0.2-2.6-0.5c-0.9-0.3-1.5-0.9-1.8-1.5c-0.2-0.4-0.3-1.1-0.3-2.2
		V48.7z"/>
	<path id="XMLID_15_" d="M153.2,60.2V48.7h-1.4v-0.5h5.7c1.2,0,2.2,0.1,2.7,0.3c0.7,0.2,1.3,0.7,1.9,1.3c1,1.1,1.5,2.7,1.5,4.6
		c0,1.3-0.3,2.5-0.8,3.5c-0.6,1.2-1.6,2-2.7,2.3c-0.4,0.1-0.9,0.2-1.4,0.2c-0.3,0-0.7,0-1.2,0h-5.7v-0.5H153.2z M155.8,60.2h1.7
		c0.7,0,1.2-0.1,1.5-0.2c0.7-0.3,1.2-0.9,1.5-1.8c0.2-0.8,0.4-2.1,0.4-3.9c0-2.1-0.2-3.6-0.7-4.4c-0.3-0.5-0.7-0.8-1.3-0.9
		c-0.3-0.1-0.7-0.1-1.3-0.1h-1.7V60.2z"/>
	<path id="XMLID_18_" d="M176.5,60.2V48.7h-1.5v-0.5h5.5v0.5h-1.5v11.4h1.5v0.5h-5.5v-0.5H176.5z"/>
	<path id="XMLID_20_" d="M198.3,48c1.3,0,2.4,0.4,3.4,1.1c0.8,0.6,1.4,1.4,1.8,2.4c0.4,0.9,0.6,1.8,0.6,2.8c0,1.7-0.5,3.1-1.4,4.3
		c-1.2,1.5-2.8,2.2-4.8,2.2c-1.5,0-2.8-0.5-3.8-1.4c-1.4-1.3-2.1-2.9-2.1-5c0-1.5,0.4-2.8,1.3-4C194.6,48.8,196.3,48,198.3,48z
		 M198.1,48.5c-1.1,0-1.8,0.4-2.3,1.3c-0.5,0.9-0.7,2.4-0.7,4.7c0,2.3,0.2,3.8,0.6,4.6c0.5,0.9,1.3,1.3,2.4,1.3
		c1.1,0,1.8-0.4,2.2-1.1c0.6-0.9,0.8-2.6,0.8-5c0-2.3-0.2-3.8-0.7-4.6c-0.3-0.5-0.7-0.8-1.2-1C199,48.6,198.6,48.5,198.1,48.5z"/>
	<path id="XMLID_23_" d="M223.1,48.2v3.3h-0.6c-0.1-0.8-0.4-1.4-0.8-1.9c-0.6-0.7-1.3-1.1-2.2-1.1c-0.6,0-1.1,0.2-1.5,0.5
		c-0.5,0.4-0.8,0.9-0.8,1.6c0,0.7,0.3,1.2,0.8,1.5c0.3,0.2,0.7,0.3,1.1,0.4l1,0.3c1.5,0.4,2.4,0.9,2.9,1.3c0.7,0.6,1,1.5,1,2.7
		c0,1.3-0.4,2.3-1.2,3c-0.8,0.7-1.7,1-2.8,1c-1,0-2.1-0.3-3.1-1l-0.6,0.8h-0.5v-3.4h0.5c0.2,0.8,0.5,1.4,1,2
		c0.7,0.8,1.5,1.1,2.5,1.1c0.7,0,1.4-0.2,1.8-0.6c0.5-0.5,0.8-1,0.8-1.7c0-0.7-0.3-1.2-0.8-1.6c-0.2-0.2-0.5-0.3-0.9-0.4
		c-0.1,0-0.5-0.2-1.3-0.4c-1.3-0.4-2.2-0.7-2.6-1c-0.8-0.6-1.2-1.5-1.2-2.6c0-1.2,0.4-2.1,1.1-2.8c0.3-0.3,0.8-0.6,1.3-0.8
		c0.5-0.2,0.9-0.2,1.4-0.2c0.8,0,1.7,0.3,2.5,0.8l0.6-0.6H223.1z"/>
</g>
<path id="XMLID_1_" d="M45.6,19.3C43.2,13.5,39.6,9.5,35,7.4c-2.8-1.3-6-2-9.7-2c-4.9,0-9.3,1.1-13,3.3c-4.1,2.4-6.2,5.8-7,10.1
	C4.8,21,5,27.7,12,28.2c3.7,0.2,6.8-3,6.8-6.8c0-3.8-3-6.8-6.8-6.8c-0.1,0-0.3,0-0.4,0c1.6-2.6,4.9-6.3,11.9-5.9
	c15.1,0.7,16.9,15.6,16.9,21.4c0,10.1-3.8,20.4-9.8,27.2c-5.1,5.6-12.4,10.1-21.7,13.6c6.6-0.4,12.7-2.2,18.4-5.5
	c5.9-3.4,10.8-8.4,14.7-14.9c3.9-6.5,5.9-13.2,5.9-20C47.7,26.5,47,22.8,45.6,19.3z"/>
</svg>
