<?xml version="1.0" encoding="utf-8"?>
<!-- Generator: Adobe Illustrator 19.1.0, SVG Export Plug-In . SVG Version: 6.00 Build 0)  -->
<svg version="1.1" id="Layer_1" xmlns="http://www.w3.org/2000/svg" xmlns:xlink="http://www.w3.org/1999/xlink" x="0px" y="0px"
	 viewBox="-331 117 560 560" style="enable-background:new -331 117 560 560;" xml:space="preserve">
<style type="text/css">
	.st0{fill:#E5E5E5;}
	.st1{enable-background:new    ;}
	.st2{fill:#820028;}
	.st3{fill:#FFFFFF;}
</style>
<rect x="-330.8" y="117.4" class="st0" width="559.6" height="559.6"/>
<g>
	<g class="st1">
		<path class="st2" d="M-66.7,413v41.3h-4.8V413h-11.8v-4.4h28.5v4.4H-66.7z"/>
		<path class="st2" d="M-50.4,439.4c0.4,6.1,4.4,11.8,11.4,11.8c4.2,0,7.8-1.2,10.1-5.5l3.1,2c-2.5,4.8-8.1,7.2-12.9,7.2
			c-10.4,0-16.1-7.6-16.1-16.9c0-9.4,6.9-16.5,15.6-16.5c8.2,0,14.2,7,14.2,14.9c0,1-0.1,2.4-0.2,2.9h-25.2V439.4z M-39.2,425.4
			c-6.1,0-10.1,4.3-11,10.3h20.8C-29.7,430.3-33.8,425.4-39.2,425.4z"/>
		<path class="st2" d="M3,450.5c-3,3.3-6.8,4.5-10.4,4.5c-5.9,0-11-3.5-11-9.5c0-7.8,7.3-10.9,14.1-10.9c2.2,0,4.4,0.3,7.2,1v-1.8
			c0-5.3-2.6-8.2-8.2-8.2c-3.7,0-7.9,1.4-10.4,2.7l-1.5-4c2.9-1.4,7.9-2.8,12.1-2.8c9.5,0,12.4,5,12.4,13.2v19.5h-4L3,450.5z
			 M-4.5,438.3c-4.4,0-9.5,1.8-9.5,6.7c0,3.9,3,6.3,6.7,6.3s7.2-1.9,10.2-4.8v-7.4C0.2,438.6-2.3,438.3-4.5,438.3z"/>
		<path class="st2" d="M23.9,426.4V444c0,5.7,2,6.8,4.9,6.8c1.2,0,2.5-0.3,3.9-0.8l1.1,3.5c-1.4,0.8-3.2,1.4-5.1,1.4
			c-6.2,0-9.3-3.7-9.3-10.3v-18.1h-4.5v-4h4.5v-8h4.4v8h9.3v4h-9.2V426.4z"/>
		<path class="st2" d="M45.2,428.4c1.8-3.5,4.8-6.8,9.3-6.8c0.8,0,1.8,0.1,2.7,0.3l-0.6,4.9c-1-0.5-1.8-0.6-3-0.6
			c-3.7,0-6.1,2.7-8.4,6.8v21.3h-4.4v-31.9h4.4V428.4z"/>
		<path class="st2" d="M92.7,438.3c0,9.3-6.6,16.7-16.1,16.7s-16.1-7.4-16.1-16.7s6.6-16.7,16.1-16.7
			C86.1,421.6,92.7,429,92.7,438.3z M76.6,425.6c-7.1,0-11.5,6-11.5,12.7S69.5,451,76.6,451s11.5-6,11.5-12.7S83.7,425.6,76.6,425.6
			z"/>
	</g>
</g>
<g class="st1">
	<path d="M-187.2,523.6c-1.7,1.9-3.8,2.6-5.9,2.6c-3.3,0-6.3-2-6.3-5.4c0-4.4,4.1-6.2,8-6.2c1.2,0,2.5,0.1,4.1,0.6v-1
		c0-3-1.5-4.7-4.6-4.7c-2.1,0-4.5,0.8-5.9,1.6l-0.9-2.3c1.7-0.8,4.5-1.6,6.8-1.6c5.4,0,7,2.8,7,7.5v11h-2.3L-187.2,523.6z
		 M-191.5,516.7c-2.5,0-5.4,1-5.4,3.8c0,2.2,1.7,3.6,3.8,3.6s4.1-1.1,5.8-2.7v-4.2C-188.9,516.8-190.2,516.7-191.5,516.7z"/>
	<path d="M-172.8,510c1.4-1.8,3.6-2.8,5.8-2.8c5.3,0,9.2,4.3,9.2,9.4s-4,9.5-9.3,9.5c-2,0-4.2-0.8-5.8-2.2v1.8h-2.5v-27.8h2.5V510
		H-172.8z M-172.8,521c1.3,1.7,3.7,2.8,5.7,2.8c3.9,0,6.7-3.3,6.7-7.1c0-3.9-2.8-7.3-6.7-7.3c-2.2,0-4.7,1.3-5.7,3.4V521z"/>
	<path d="M-136.9,524.6c-1.5,1-3,1.6-4.9,1.6c-5.6,0-9.5-4.1-9.5-9.5c0-5.3,4-9.5,9.5-9.5c1.7,0,3.2,0.5,4.5,1.2l-0.9,2.1
		c-1-0.7-2.6-1-3.8-1c-4.1,0-6.7,3.3-6.7,7.2c0,4.1,2.6,7.2,6.8,7.2c1.1,0,2.9-0.5,3.8-1.2L-136.9,524.6z"/>
	<path d="M-116.2,523.4c-1.4,1.8-3.6,2.8-5.8,2.8c-5.3,0-9.2-4.3-9.2-9.4c0-5.1,4-9.5,9.3-9.5c2,0,4.2,0.8,5.8,2.2V498h2.5v27.8
		h-2.5L-116.2,523.4L-116.2,523.4z M-116.2,512.3c-1.3-1.7-3.7-2.8-5.7-2.8c-3.9,0-6.7,3.3-6.7,7.1c0,3.9,2.8,7.3,6.7,7.3
		c2.2,0,4.7-1.3,5.7-3.4C-116.2,520.5-116.2,512.3-116.2,512.3z"/>
	<path d="M-103.1,517.3c0.2,3.5,2.5,6.7,6.4,6.7c2.4,0,4.4-0.7,5.7-3.1l1.8,1.1c-1.4,2.7-4.6,4.1-7.3,4.1c-5.9,0-9.1-4.3-9.1-9.6
		s3.9-9.4,8.8-9.4c4.7,0,8,4,8,8.4c0,0.6-0.1,1.3-0.1,1.7L-103.1,517.3L-103.1,517.3z M-96.7,509.3c-3.5,0-5.7,2.4-6.3,5.8h11.8
		C-91.3,512.1-93.7,509.3-96.7,509.3z"/>
	<path d="M-71.7,500.2c-0.6-0.3-1.4-0.4-2.3-0.4c-0.7,0-1.6,0.1-2.3,0.6c-1,0.8-1.1,2.3-1.1,4.3v3h5.1v2.3h-5.1v15.8h-2.5V510H-82
		v-2.3h2.1v-3.2c0-1.9,0.3-3.6,1.1-4.8c0.9-1.3,2.2-2.1,4.4-2.1c1.2,0,2.4,0.4,3.3,0.7L-71.7,500.2z"/>
	<path d="M-49.7,524.7c0,6.4-4.3,9.2-9.1,9.2c-2.8,0-5.7-1-7.9-2.6l1-2.1c1.6,1.3,4.3,2.4,6.8,2.4c3.4,0,6.6-1.7,6.6-6.1V523
		c-1.4,1.8-3.6,2.8-5.8,2.8c-5.3,0-9.3-4.3-9.3-9.2c0-4.9,4-9.3,9.3-9.3c2,0,4.2,0.8,5.8,2.2v-1.8h2.5v17H-49.7z M-52.2,512.3
		c-1.3-1.7-3.7-2.8-5.7-2.8c-3.9,0-6.7,3.3-6.7,6.9c0,3.7,2.8,7,6.7,7c2.2,0,4.7-1.3,5.7-3.4V512.3z"/>
	<path d="M-37.7,510.8c1.4-2.4,3.7-3.6,6.4-3.6c5.1,0,6.8,3.3,6.8,8.7v9.8H-27v-9.4c0-3.4-0.6-6.8-4.7-6.8c-2.7,0-4.9,1.9-6.1,4.2
		v12h-2.5v-27.8h2.5L-37.7,510.8L-37.7,510.8z"/>
	<path d="M-15,503.6v-3.5h2.5v3.5H-15z M-15,525.7v-18.1h2.5v18.1H-15z"/>
	<path d="M-7.3,531c0.6,0.3,1.2,0.6,2,0.6c1.1,0,1.8-0.3,2.2-0.9c0.6-0.9,0.7-2.3,0.7-4v-19.1h2.5v19.3c0,1.7-0.1,3.7-1.2,5.1
		c-0.9,1.2-2.2,1.8-3.8,1.8c-1.1,0-2.2-0.3-3.1-0.8L-7.3,531z M-2.4,503.6v-3.5h2.5v3.5H-2.4z"/>
	<path d="M17.4,514.9l7,10.8h-3.1l-5.7-8.8l-3.4,4v4.8H9.8v-27.8h2.5v19.5h0.1l8.1-9.8h3L17.4,514.9z"/>
	<path d="M33.5,525.7H31v-27.8h2.5V525.7z"/>
	<path d="M45.8,507.6v3.2c1.4-2.4,3.7-3.6,6-3.6c3,0,4.8,1.4,5.7,3.7c2.3-2.9,4.1-3.7,6.4-3.7c4.8,0,6.8,3.1,6.8,8.7v9.8h-2.5v-9.4
		c0-3.4-0.8-6.8-4.4-6.8c-2.1,0-4.3,1.4-5.7,3.8c0.1,0.8,0.1,1.7,0.1,2.6v9.8h-2.5v-9.4c0-3.4-0.6-6.8-4.3-6.8
		c-2.3,0-4.5,1.9-5.7,4.2v12h-2.5v-18.1L45.8,507.6L45.8,507.6z"/>
</g>
<g class="st1">
	<path d="M-195.6,552v3.2c1.4-2.4,3.7-3.6,6.4-3.6c5.1,0,6.8,3.3,6.8,8.7v9.8h-2.5v-9.4c0-3.4-0.6-6.8-4.7-6.8
		c-2.7,0-4.9,1.9-6.1,4.2v12h-2.5V552H-195.6z"/>
	<path d="M-156.3,561.1c0,5.3-3.7,9.5-9.1,9.5s-9.1-4.2-9.1-9.5s3.7-9.5,9.1-9.5S-156.3,555.8-156.3,561.1z M-165.4,553.9
		c-4,0-6.5,3.4-6.5,7.2s2.5,7.2,6.5,7.2s6.5-3.4,6.5-7.2S-161.4,553.9-165.4,553.9z"/>
	<path d="M-145.7,552v2.3c1.4-1.8,3.6-2.8,5.8-2.8c5.3,0,9.2,4.3,9.2,9.4s-4,9.5-9.3,9.5c-2,0-4.2-0.8-5.8-2.2v11h-2.5V552H-145.7z
		 M-145.7,565.4c1.3,1.7,3.7,2.8,5.7,2.8c3.9,0,6.7-3.3,6.7-7.1c0-3.9-2.8-7.3-6.7-7.3c-2.2,0-4.7,1.3-5.7,3.4V565.4z"/>
	<path d="M-109.2,567.8c-1.4,1.8-3.6,2.8-5.8,2.8c-5.3,0-9.2-4.3-9.2-9.4c0-5.1,4-9.5,9.3-9.5c2,0,4.2,0.8,5.8,2.2V552h2.5v27.3
		h-2.5v-11.5H-109.2z M-109.2,556.7c-1.3-1.7-3.7-2.8-5.7-2.8c-3.9,0-6.7,3.3-6.7,7.1c0,3.9,2.8,7.3,6.7,7.3c2.2,0,4.7-1.3,5.7-3.4
		V556.7z"/>
	<path d="M-94.4,555.4c1-2,2.7-3.8,5.3-3.8c0.5,0,1,0,1.5,0.1l-0.3,2.8c-0.6-0.3-1-0.3-1.7-0.3c-2.1,0-3.4,1.6-4.7,3.8v12.1h-2.5
		V552h2.5v3.4H-94.4z"/>
	<path d="M-72.6,555c-1-0.8-2.3-1.3-3.7-1.3c-1.4,0-3.2,0.8-3.2,2.5c0,2.1,2.3,2.8,4.6,3.8c2.2,0.9,4.4,2.2,4.4,5.4
		s-3.3,5.1-6.4,5.1c-2,0-4.1-0.8-5.6-2.4l1.5-1.6c1.1,1.1,2.4,1.9,4.1,1.9s3.8-0.9,3.8-3s-1.9-2.8-4-3.6c-2.4-1-4.9-2-4.9-5.3
		c0-3.1,2.6-4.8,5.6-4.8c1.9,0,3.6,0.6,5,1.7L-72.6,555z"/>
	<path d="M-59,554.3v10c0,3.3,1.1,3.8,2.8,3.8c0.7,0,1.4-0.2,2.2-0.5l0.6,2c-0.8,0.4-1.8,0.8-2.9,0.8c-3.5,0-5.3-2.1-5.3-5.8v-10.2
		h-2.6V552h2.6v-4.5h2.5v4.5h5.3v2.3H-59z"/>
	<path d="M-33.4,570.1v-3.2c-1.4,2.4-3.7,3.6-6.4,3.6c-5.1,0-6.8-3.3-6.8-8.7V552h2.5v9.4c0,3.4,0.6,6.8,4.7,6.8
		c2.7,0,4.9-1.9,6.1-4.2v-12h2.5v18.1H-33.4z"/>
	<path d="M-23.9,552h2.7l5.1,15.3l5.4-15.3H-8l-6.7,18.1h-3.1L-23.9,552z"/>
	<path d="M11.1,552l4,15.6l4.1-15.6h2.5l-5,18.1h-3.2l-4.2-15.4l-4.4,15.4H1.6L-3,552h2.6l3.8,15.7L7.8,552H11.1z"/>
	<path d="M34.4,562.8l-4.8,7.3h-3.1l6.3-9.3l-6.1-8.8h3.1l4.7,6.9l4.7-6.9h3.1l-6.2,8.9l6.4,9.2h-3.1L34.4,562.8z"/>
	<path d="M49.7,552l5.1,15.3l5.4-15.3h2.7l-9.8,26.3l-2.1-0.9l2.4-6.5L47,552H49.7z"/>
	<path d="M72.2,567.8h9.1v2.3H68.7v-1.2l8.5-14.5h-8.9V552h12.3v1.2L72.2,567.8z"/>
</g>
<g class="st1">
	<path class="st3" d="M-166.6,627.4v-21.2c-1.2,0.6-2.7,1.2-3.8,1.7v-2.6c1.4-0.7,3.2-1.6,4.8-2.5h1.7v24.6H-166.6z"/>
	<path class="st3" d="M-154.9,624.7c2.8-3,6.5-7.2,8.8-10.7c1-1.5,2-3.3,2-5.3c0-2.3-2-3.8-4.3-3.8c-2.1,0-4.1,1.6-4.3,3.8l-2.6-0.6
		c0.3-3.4,3.6-5.8,7.1-5.8s7,2.6,7,6.4c0,2.3-1,4.4-2.4,6.4c-2.3,3.3-5,6.7-7.8,9.7h11.7v2.5h-15.1L-154.9,624.7L-154.9,624.7z"/>
	<path class="st3" d="M-129.6,613.2c1.8,0,2.7-0.1,3.8-0.3c1.9-0.4,3.7-1.9,3.7-4.1c0-2.3-2.1-3.9-4.5-3.9c-1.9,0-3.6,0.9-4.4,2.7
		l-2.4-1c1.1-2.7,3.9-4.2,6.9-4.2c3.6,0,7.2,2.3,7.2,6.4c0,2.3-1.1,4.4-3.4,5.4c2.7,0.8,4.6,3.4,4.6,6.2c0,4.1-3.3,7.4-8,7.4
		c-2.9,0-5.7-1.1-7.5-3.7l1.9-1.3c1.2,1.7,3.2,2.5,5.3,2.5c2.8,0,5.5-1.7,5.5-4.7s-2.7-4.8-6.3-4.8c-0.7,0-1.5,0.1-2.5,0.2
		L-129.6,613.2z"/>
	<path class="st3" d="M-97.7,620.6v6.8h-2.7v-6.8h-11.2v-2.9c3.8-4.8,7.8-10.3,11-14.8h2.9v15.4h3.7v2.3H-97.7z M-109.1,618.2h8.7
		v-11.7C-103.1,610.5-106.8,615.4-109.1,618.2z"/>
	<path class="st3" d="M-86.6,602.8h12.2v2.5h-9.8c-0.1,2.3-0.3,5.7-0.5,7.8c1.1-0.7,2.6-1,4-1c4.2,0,7.8,3.2,7.8,7.8
		c0,4.1-3.4,7.8-8,7.8c-2.8,0-5.7-1.3-7.4-3.7l2-1.4c1.2,1.5,2.7,2.7,4.8,2.7c3,0,5.8-2.2,5.8-5.4c0-3.1-2.4-5.2-5.5-5.2
		c-1.6,0-3,0.5-4.3,1.6l-2-0.9C-87.1,611.9-86.8,606.5-86.6,602.8z"/>
	<path class="st3" d="M-63.4,615.2c1.5-1.8,3.4-3.1,6.1-3.1c4.2,0,7.1,3.7,7.1,8c0,4.1-3.2,7.8-7.8,7.8c-5.3,0-8.5-4.7-8.5-9.6
		c0-7.8,5.3-13.9,11.8-16.5l1.1,2.4C-58.6,606.4-62.4,609.8-63.4,615.2z M-58,625.3c3.1,0,5-2.4,5-5.6c0-2.7-1.7-5.1-4.7-5.1
		c-2.6,0-4.7,1.7-6,4C-63.5,622-61.9,625.3-58,625.3z"/>
	<path class="st3" d="M-30,605c-3,6.3-7.6,16.6-10.3,23l-2.5-1.1c3.3-7.8,7.9-17.3,9.9-21.6H-45v-2.5h15.1v2.2H-30z"/>
	<path class="st3" d="M-8.1,620.7c0,4-3.3,7.1-7.9,7.1c-4.7,0-7.9-3.1-7.9-7.1c0-2.9,1.8-5.1,4.2-6.2c-1.8-1-3.4-2.7-3.4-5.4
		c0-3.7,2.9-6.7,7.2-6.7s7.2,3,7.2,6.7c0,2.7-1.6,4.4-3.4,5.4C-9.9,615.6-8.1,617.8-8.1,620.7z M-10.9,620.6c0-2.6-2.3-4.7-5.1-4.7
		s-5.1,2.1-5.1,4.7c0,2.8,2.3,4.7,5.1,4.7S-10.9,623.4-10.9,620.6z M-11.5,609.1c0-2.5-2-4.2-4.5-4.2c-2.4,0-4.5,1.7-4.5,4.2
		c0,2.3,2,4.3,4.5,4.3C-13.6,613.5-11.5,611.5-11.5,609.1z"/>
	<path class="st3" d="M11.7,615.1c-1.5,1.8-3.4,3.1-6.1,3.1c-4.2,0-7.1-3.7-7.1-8c0-4.1,3.2-7.8,7.8-7.8c5.3,0,8.5,4.7,8.5,9.6
		c0,7.8-5.3,13.9-11.8,16.5l-1.1-2.4C6.8,623.8,10.6,620.4,11.7,615.1z M6.2,604.9c-3.1,0-5,2.4-5,5.6c0,2.7,1.7,5.1,4.7,5.1
		c2.6,0,4.7-1.7,6-4C11.7,608.2,10.2,604.9,6.2,604.9z"/>
	<path class="st3" d="M38.5,615.1c0,7.9-3.1,12.7-8.5,12.7s-8.5-4.8-8.5-12.7s3.1-12.7,8.5-12.7S38.5,607.2,38.5,615.1z M24.2,615.1
		c0,6.8,2.1,10.2,5.7,10.2s5.7-3.4,5.7-10.2s-2.1-10.2-5.7-10.2S24.2,608.3,24.2,615.1z"/>
</g>
<g class="st1">
	<path class="st3" d="M110.4,355.9c-8.6,9.3-19,12.6-29.2,12.6c-16.4,0-30.8-9.7-30.8-26.4c0-21.9,20.4-30.4,39.4-30.4
		c6,0,12.2,0.7,20.2,2.7v-4.9c0-14.8-7.3-23-22.8-23c-10.4,0-22,3.8-29,7.7L54,283.1c8.2-3.8,22.1-7.8,33.7-7.8
		c26.4,0,34.6,13.9,34.6,36.8v54.3h-11.1L110.4,355.9z M89.3,321.9c-12.2,0-26.4,4.9-26.4,18.8c0,10.8,8.4,17.7,18.8,17.7
		c10.2,0,20-5.3,28.4-13.3v-20.6C102.4,322.6,95.7,321.9,89.3,321.9z"/>
</g>
<g class="st1">
	<path d="M-248.5,265.9h3.3l11.9,34h-4l-2.6-7.7h-15l-2.9,7.7h-3.7L-248.5,265.9z M-253.8,288.8h12.7l-5.9-17.9l0,0L-253.8,288.8z"
		/>
	<path d="M-214.1,297.1c-2.3,2.5-5.1,3.4-7.8,3.4c-4.4,0-8.2-2.6-8.2-7c0-5.8,5.4-8.1,10.5-8.1c1.6,0,3.3,0.2,5.4,0.7v-1.3
		c0-3.9-1.9-6.1-6.1-6.1c-2.8,0-5.9,1-7.7,2l-1.1-3c2.2-1,5.9-2.1,9-2.1c7,0,9.2,3.7,9.2,9.8v14.5h-3L-214.1,297.1z M-219.7,288
		c-3.3,0-7,1.3-7,5c0,2.9,2.2,4.7,5,4.7c2.7,0,5.3-1.4,7.6-3.5v-5.5C-216.2,288.2-218,288-219.7,288z"/>
	<path d="M-147.8,302.8l-5-5c-2.7,1.7-5.8,2.6-9.2,2.6c-9.8,0-17.3-7.9-17.3-17.6s7.5-17.6,17.3-17.6s17.3,7.9,17.3,17.6
		c0,5.1-2,9.6-5.4,12.8l4.7,4.7L-147.8,302.8z M-152.6,293.3c2.5-2.6,4.1-6.3,4.1-10.4c0-8-5.7-14.3-13.5-14.3s-13.5,6.3-13.5,14.3
		s5.7,14.3,13.5,14.3c2.5,0,4.8-0.6,6.7-1.8l-5-5l2.4-2.4L-152.6,293.3z"/>
	<path d="M-119.5,296.8c-1.8,2.4-4.7,3.6-7.6,3.6c-6.9,0-12.1-5.6-12.1-12.3s5.2-12.5,12.2-12.5c2.7,0,5.5,1,7.6,2.9v-2.3h3.3V312
		h-3.3L-119.5,296.8L-119.5,296.8z M-119.5,282.3c-1.7-2.3-4.8-3.7-7.5-3.7c-5.1,0-8.8,4.3-8.8,9.3c0,5.1,3.6,9.5,8.8,9.5
		c2.9,0,6.2-1.7,7.5-4.5V282.3z"/>
	<path d="M-78.9,299.9h-3.6v-34h9.8c5.1,0,11.3,2.7,11.3,9.6c0,5-3.2,8.6-8.8,9.5c3.7,5.1,9.2,12.4,11,14.9h-4.6L-74.4,285h-4.5
		V299.9z M-78.9,281.7h5c5.3,0,8.6-1.8,8.6-6.2c0-3.8-3.1-6.4-7.7-6.4h-5.9V281.7z"/>
	<path d="M-50.5,280.6c1.3-2.6,3.6-5.1,6.9-5.1c0.6,0,1.3,0,2,0.2l-0.4,3.6c-0.7-0.3-1.3-0.4-2.2-0.4c-2.7,0-4.5,2-6.2,5.1v15.8
		h-3.4v-23.7h3.3V280.6z"/>
</g>
<g class="st1">
	<path d="M-248.5,332.3h3.3l11.9,34h-4l-2.6-7.7h-15l-2.9,7.7h-3.7L-248.5,332.3z M-253.8,355.3h12.7l-5.9-17.9l0,0L-253.8,355.3z"
		/>
	<path d="M-214.1,363.6c-2.3,2.5-5.1,3.4-7.8,3.4c-4.4,0-8.2-2.6-8.2-7c0-5.8,5.4-8.1,10.5-8.1c1.6,0,3.3,0.2,5.4,0.7v-1.3
		c0-3.9-1.9-6.1-6.1-6.1c-2.8,0-5.9,1-7.7,2l-1.1-3c2.2-1,5.9-2.1,9-2.1c7,0,9.2,3.7,9.2,9.8v14.5h-3L-214.1,363.6z M-219.7,354.5
		c-3.3,0-7,1.3-7,5c0,2.9,2.2,4.7,5,4.7c2.7,0,5.3-1.4,7.6-3.5v-5.5C-216.2,354.7-218,354.5-219.7,354.5z"/>
	<path d="M-147.8,369.3l-5-5c-2.7,1.7-5.8,2.6-9.2,2.6c-9.8,0-17.3-7.9-17.3-17.6s7.5-17.6,17.3-17.6s17.3,7.9,17.3,17.6
		c0,5.1-2,9.6-5.4,12.8l4.7,4.7L-147.8,369.3z M-152.6,359.7c2.5-2.6,4.1-6.3,4.1-10.4c0-8-5.7-14.3-13.5-14.3s-13.5,6.3-13.5,14.3
		s5.7,14.3,13.5,14.3c2.5,0,4.8-0.6,6.7-1.8l-5-5l2.4-2.4L-152.6,359.7z"/>
	<path d="M-119.5,363.3c-1.8,2.4-4.7,3.6-7.6,3.6c-6.9,0-12.1-5.6-12.1-12.3s5.2-12.5,12.2-12.5c2.7,0,5.5,1,7.6,2.9v-2.3h3.3v35.8
		h-3.3L-119.5,363.3L-119.5,363.3z M-119.5,348.8c-1.7-2.3-4.8-3.7-7.5-3.7c-5.1,0-8.8,4.3-8.8,9.3c0,5.1,3.6,9.5,8.8,9.5
		c2.9,0,6.2-1.7,7.5-4.5V348.8z"/>
	<path d="M-78.9,366.3h-3.6v-34h9.8c5.1,0,11.3,2.7,11.3,9.6c0,5-3.2,8.6-8.8,9.5c3.7,5.1,9.2,12.4,11,14.9h-4.6l-10.7-14.8H-79
		L-78.9,366.3L-78.9,366.3z M-78.9,348.2h5c5.3,0,8.6-1.8,8.6-6.2c0-3.8-3.1-6.4-7.7-6.4h-5.9V348.2z"/>
	<path d="M-50.5,347.1c1.3-2.6,3.6-5.1,6.9-5.1c0.6,0,1.3,0,2,0.2l-0.4,3.6c-0.7-0.3-1.3-0.4-2.2-0.4c-2.7,0-4.5,2-6.2,5.1v15.8
		h-3.4v-23.7h3.3V347.1z"/>
</g>
<g>
	<path d="M-248.1,191.7c-3.8,0-6.2,1.8-6.2,4.8c0,3.4,4.1,4.5,8.1,5.9c4,1.5,8,3.4,8,8.5c0,6.9-6,9.4-10.4,9.4
		c-4.3,0-7.6-1.2-10.8-4.3l2.4-2.2c3,3.1,5.3,3.5,8.3,3.5c3.5,0,6.9-1.8,6.9-5.9c0-3.7-3.5-5-7.2-6.4c-4.2-1.6-8.7-3.1-8.7-8.1
		c0-5.6,4.2-8.2,9-8.2c3.5,0,6.5,1,9.1,2.9l-2.1,2.4C-243,192.7-245.7,191.7-248.1,191.7z"/>
	<path d="M-211.4,209.2c0,6.2-4.4,11.2-10.8,11.2s-10.8-5-10.8-11.2s4.4-11.2,10.8-11.2S-211.4,203-211.4,209.2z M-222.1,200.7
		c-4.8,0-7.7,4-7.7,8.5s2.9,8.5,7.7,8.5s7.7-4,7.7-8.5S-217.4,200.7-222.1,200.7z"/>
	<path d="M-202.4,219.9h-3v-32.8h3V219.9z"/>
	<path d="M-193.5,209.9c0.3,4.1,3,7.9,7.6,7.9c2.8,0,5.2-0.8,6.8-3.7l2.1,1.4c-1.7,3.2-5.4,4.9-8.7,4.9c-7,0-10.8-5.1-10.8-11.3
		c0-6.3,4.6-11.1,10.4-11.1c5.5,0,9.5,4.7,9.5,10c0,0.7-0.1,1.6-0.1,2H-193.5z M-186,200.5c-4.1,0-6.8,2.9-7.4,6.9h13.9
		C-179.6,203.8-182.4,200.5-186,200.5z"/>
	<path d="M-170.5,193.8v-4.1h3v4.1H-170.5z M-170.5,219.9v-21.3h3v21.3H-170.5z"/>
	<path d="M-156.6,219.9h-3v-32.8h3V219.9z"/>
	<path d="M-137.2,219.9v-30.6h3.2v27.6h13.6v3H-137.2z"/>
	<path d="M-116.1,193.8v-4.1h3v4.1H-116.1z M-116.1,219.9v-21.3h3v21.3H-116.1z"/>
	<path d="M-86.4,218.6c0,7.5-5.1,10.8-10.8,10.8c-3.3,0-6.7-1.2-9.4-3l1.2-2.5c1.9,1.5,5,2.8,8.1,2.8c4,0,7.8-2,7.8-7.2v-3
		c-1.6,2.1-4.2,3.3-6.9,3.3c-6.2,0-10.9-5-10.9-10.8s4.7-11,11-11c2.4,0,5,0.9,6.8,2.6v-2.1h3V218.6z M-89.4,204.1
		c-1.6-2.1-4.3-3.4-6.8-3.4c-4.6,0-8,3.8-8,8.1c0,4.3,3.3,8.3,8,8.3c2.6,0,5.5-1.5,6.8-4V204.1z"/>
	<path d="M-75.8,202.3c1.7-2.8,4.3-4.3,7.6-4.3c6.1,0,8,3.9,8,10.3v11.5h-3v-11.1c0-4-0.7-8.1-5.5-8.1c-3.2,0-5.8,2.3-7.2,5v14.2h-3
		v-32.8h3V202.3z"/>
	<path d="M-49.1,201.2V213c0,3.8,1.3,4.5,3.3,4.5c0.8,0,1.7-0.2,2.6-0.6l0.7,2.4c-1,0.5-2.1,0.9-3.4,0.9c-4.2,0-6.2-2.5-6.2-6.9
		v-12.1h-3v-2.7h3v-5.3h3v5.3h6.2v2.7H-49.1z"/>
</g>
</svg>
