<?xml version="1.0" encoding="utf-8"?>
<!-- Generator: Adobe Illustrator 16.0.4, SVG Export Plug-In . SVG Version: 6.00 Build 0)  -->
<!DOCTYPE svg PUBLIC "-//W3C//DTD SVG 1.1//EN" "http://www.w3.org/Graphics/SVG/1.1/DTD/svg11.dtd">
<svg version="1.1" id="Layer_1" xmlns="http://www.w3.org/2000/svg" xmlns:xlink="http://www.w3.org/1999/xlink" x="0px" y="0px"
	 width="75px" height="93px" viewBox="79.375 0 75 93" enable-background="new 79.375 0 75 93" xml:space="preserve">
<rect x="140.153" y="6.99" width="4.688" height="56.388"/>
<g>
	<rect x="146.035" y="6.99" width="0.768" height="56.388"/>
</g>
<circle cx="131.757" cy="32.648" r="4.688"/>
<g>
	<path d="M88.624,77.613V68.45h-1.193v-0.384h4.603v0.384h-1.321v4.177h3.452V68.45h-1.236v-0.384h4.561v0.384H96.21v9.163h1.279
		v0.384h-4.603v-0.384h1.278v-4.518h-3.452v4.518h1.321v0.384h-4.603v-0.384H88.624z"/>
	<path d="M104.905,75.312h-3.111l-0.597,1.662c-0.042,0.17-0.085,0.298-0.085,0.383c0,0.171,0.171,0.256,0.469,0.256h0.81v0.384
		h-3.069v-0.384h0.554c0.256,0,0.469-0.085,0.639-0.213c0.085-0.043,0.171-0.256,0.298-0.639l3.154-8.652h0.469l3.41,9.504h1.065
		v0.384h-4.475v-0.384h1.279L104.905,75.312z M104.735,74.971l-1.407-3.921l-1.406,3.921H104.735z"/>
	<path d="M111.896,77.613V68.45h-1.194v-0.384h4.348c1.023,0,1.705,0.043,2.088,0.128c0.682,0.171,1.193,0.511,1.491,0.98
		c0.214,0.341,0.342,0.725,0.342,1.193c0,0.896-0.384,1.577-1.194,1.96c-0.383,0.213-0.98,0.342-1.747,0.342
		c0.511,0.085,1.022,0.256,1.534,0.596c0.511,0.342,0.852,0.768,1.023,1.279c0.128,0.384,0.171,0.98,0.171,1.875
		c0,0.725,0.213,1.066,0.639,1.066c0.213,0,0.469-0.086,0.768-0.214v0.427c-0.725,0.213-1.279,0.341-1.662,0.341
		c-0.81,0-1.407-0.341-1.705-1.022c-0.128-0.299-0.213-0.641-0.298-1.023c0-0.17-0.043-0.426-0.085-0.853
		c-0.042-1.108-0.256-1.747-0.554-1.918c-0.213-0.171-0.426-0.256-0.682-0.256c-0.213-0.042-0.341-0.042-0.469-0.042h-0.81v4.73
		h1.364v0.384h-4.561v-0.384h1.194V77.613z M113.941,72.499h1.108c0.511,0,0.853-0.042,1.065-0.171
		c0.341-0.17,0.554-0.469,0.639-0.852c0.085-0.299,0.085-0.64,0.085-1.108c0-0.725-0.128-1.236-0.426-1.491
		c-0.17-0.129-0.341-0.214-0.597-0.299c-0.17-0.043-0.426-0.043-0.81-0.043h-1.108v3.964H113.941z"/>
	<path d="M123.616,77.613V68.45h-1.193v-0.384h4.347c1.023,0,1.705,0.043,2.089,0.128c0.683,0.171,1.193,0.511,1.492,0.98
		c0.213,0.341,0.341,0.725,0.341,1.193c0,0.896-0.384,1.577-1.193,1.96c-0.384,0.213-0.98,0.342-1.748,0.342
		c0.512,0.085,1.023,0.256,1.535,0.596c0.512,0.342,0.852,0.768,1.022,1.279c0.128,0.384,0.171,0.98,0.171,1.875
		c0,0.725,0.213,1.066,0.639,1.066c0.213,0,0.469-0.086,0.768-0.214v0.427c-0.725,0.213-1.279,0.341-1.662,0.341
		c-0.811,0-1.406-0.341-1.705-1.022c-0.128-0.299-0.213-0.641-0.299-1.023c0-0.17-0.042-0.426-0.084-0.853
		c-0.043-1.108-0.256-1.747-0.555-1.918c-0.213-0.171-0.426-0.256-0.682-0.256c-0.213-0.042-0.342-0.042-0.469-0.042h-0.811v4.73
		h1.364v0.384h-4.561v-0.384h1.193V77.613z M125.662,72.499h1.107c0.512,0,0.854-0.042,1.066-0.171
		c0.341-0.17,0.554-0.469,0.639-0.852c0.086-0.299,0.086-0.64,0.086-1.108c0-0.725-0.128-1.236-0.427-1.491
		c-0.171-0.129-0.341-0.214-0.597-0.299c-0.17-0.043-0.426-0.043-0.81-0.043h-1.108v3.964H125.662z"/>
	<path d="M135.337,77.613V68.45h-1.193v-0.384h4.433v0.384h-1.193v9.163h1.193v0.384h-4.433v-0.384H135.337z"/>
	<path d="M146.973,68.023v2.686h-0.426c-0.086-0.639-0.299-1.15-0.64-1.534c-0.469-0.554-1.065-0.853-1.79-0.853
		c-0.469,0-0.853,0.128-1.15,0.383c-0.427,0.342-0.64,0.768-0.64,1.279s0.213,0.938,0.682,1.193
		c0.256,0.128,0.554,0.256,0.853,0.341l0.811,0.214c1.193,0.34,1.96,0.682,2.344,1.022c0.554,0.511,0.81,1.235,0.81,2.131
		c0,1.022-0.341,1.79-0.98,2.43c-0.597,0.554-1.364,0.853-2.259,0.853c-0.81,0-1.662-0.299-2.473-0.853l-0.511,0.64h-0.384v-2.729
		h0.426c0.171,0.64,0.427,1.15,0.811,1.577c0.554,0.597,1.236,0.896,2.045,0.896c0.598,0,1.066-0.171,1.449-0.512
		c0.427-0.341,0.641-0.811,0.641-1.363c0-0.555-0.214-0.98-0.641-1.279c-0.17-0.128-0.426-0.256-0.725-0.341
		c-0.042,0-0.383-0.128-1.022-0.298c-1.065-0.342-1.747-0.598-2.046-0.811c-0.639-0.469-0.938-1.15-0.938-2.088
		s0.299-1.705,0.895-2.26c0.256-0.256,0.598-0.469,1.023-0.596c0.341-0.129,0.725-0.214,1.108-0.214
		c0.682,0,1.321,0.214,2.003,0.683l0.469-0.512h0.256V68.023z"/>
</g>
<g>
	<path d="M90.627,81.791v1.449h-0.255c-0.043-0.342-0.17-0.64-0.341-0.854c-0.255-0.298-0.554-0.469-0.98-0.469
		c-0.256,0-0.469,0.086-0.64,0.213c-0.213,0.171-0.341,0.427-0.341,0.725c0,0.299,0.128,0.512,0.384,0.641
		c0.128,0.084,0.298,0.127,0.469,0.213l0.426,0.127c0.639,0.171,1.065,0.384,1.278,0.555c0.298,0.299,0.426,0.682,0.426,1.15
		c0,0.555-0.17,0.98-0.554,1.321c-0.341,0.298-0.725,0.47-1.236,0.47c-0.469,0-0.895-0.172-1.364-0.47l-0.256,0.341h-0.213v-1.491
		h0.256c0.085,0.341,0.213,0.64,0.426,0.853c0.298,0.341,0.682,0.512,1.108,0.512c0.341,0,0.597-0.086,0.81-0.256
		c0.256-0.213,0.341-0.427,0.341-0.725c0-0.299-0.128-0.555-0.341-0.725c-0.085-0.086-0.213-0.129-0.383-0.171
		c-0.042,0-0.213-0.085-0.554-0.171c-0.597-0.17-0.938-0.34-1.108-0.426c-0.341-0.256-0.512-0.639-0.512-1.15
		s0.17-0.938,0.512-1.236c0.17-0.128,0.341-0.256,0.554-0.341c0.213-0.085,0.384-0.128,0.597-0.128c0.384,0,0.725,0.128,1.108,0.383
		l0.256-0.298h0.127V81.791z"/>
	<path d="M97.66,86.99v-4.943h-0.213c-0.853-0.043-1.364,0.426-1.449,1.449h-0.213l0.128-1.705h4.688l0.17,1.662h-0.213
		c-0.043-0.256-0.085-0.469-0.17-0.64c-0.128-0.341-0.298-0.554-0.554-0.683c-0.17-0.084-0.426-0.127-0.767-0.127h-0.213v4.943
		h0.725v0.213h-2.6v-0.213h0.682V86.99z"/>
	<path d="M106.099,82.004h-0.639v-0.171h2.515v0.214h-0.725v3.451c0,0.342,0,0.555,0.042,0.725c0.043,0.299,0.171,0.512,0.384,0.64
		c0.17,0.128,0.426,0.214,0.725,0.214c0.511,0,0.853-0.171,1.065-0.469c0.085-0.129,0.128-0.256,0.17-0.427
		c0.042-0.128,0.042-0.341,0.042-0.64v-2.898c0-0.256-0.042-0.426-0.085-0.512c-0.042-0.042-0.17-0.084-0.341-0.084h-0.213v-0.214
		h1.449v0.214h-0.128c-0.17,0-0.298,0.042-0.383,0.084c-0.043,0.043-0.085,0.214-0.085,0.512v2.898c0,0.426-0.042,0.682-0.085,0.853
		c-0.128,0.341-0.341,0.597-0.639,0.725c-0.298,0.171-0.682,0.214-1.108,0.214c-0.384,0-0.768-0.086-1.108-0.214
		c-0.384-0.171-0.639-0.384-0.767-0.64c-0.085-0.17-0.128-0.512-0.128-0.98v-3.494H106.099z"/>
	<path d="M115.944,86.99v-4.986h-0.639v-0.171h2.515c0.553,0,0.938,0.043,1.194,0.128c0.298,0.086,0.596,0.299,0.852,0.597
		c0.426,0.469,0.64,1.151,0.64,2.046c0,0.597-0.128,1.108-0.341,1.534c-0.299,0.512-0.682,0.853-1.193,1.022
		c-0.171,0.043-0.384,0.086-0.64,0.086c-0.128,0-0.298,0-0.554,0h-2.515v-0.213h0.682V86.99z M117.095,86.99h0.767
		c0.298,0,0.511-0.043,0.64-0.085c0.298-0.128,0.554-0.384,0.639-0.768c0.086-0.384,0.171-0.938,0.171-1.747
		c0-0.938-0.128-1.577-0.341-1.918c-0.128-0.213-0.299-0.342-0.555-0.384c-0.127-0.042-0.298-0.042-0.554-0.042h-0.767V86.99z"/>
	<path d="M126.174,86.99v-4.986h-0.64v-0.171h2.429v0.214h-0.639v4.986h0.639v0.213h-2.429v-0.213h0.64V86.99z"/>
	<path d="M135.721,81.662c0.555,0,1.065,0.171,1.492,0.512c0.34,0.256,0.596,0.598,0.81,1.023c0.171,0.383,0.255,0.81,0.255,1.236
		c0,0.725-0.213,1.363-0.596,1.875c-0.512,0.639-1.193,0.98-2.089,0.98c-0.683,0-1.235-0.213-1.662-0.598
		c-0.64-0.554-0.938-1.277-0.938-2.173c0-0.683,0.172-1.236,0.555-1.747C134.059,82.047,134.783,81.662,135.721,81.662z
		 M135.593,81.918c-0.469,0-0.81,0.213-1.022,0.598c-0.213,0.383-0.342,1.064-0.342,2.045s0.086,1.662,0.299,2.004
		c0.213,0.383,0.555,0.596,1.065,0.596c0.469,0,0.767-0.17,0.98-0.469c0.255-0.426,0.384-1.15,0.384-2.173
		c0-0.98-0.086-1.663-0.299-2.003c-0.128-0.214-0.299-0.385-0.512-0.427C136.02,81.961,135.806,81.918,135.593,81.918z"/>
	<path d="M146.547,81.791v1.449h-0.256c-0.043-0.342-0.171-0.64-0.342-0.854c-0.256-0.298-0.554-0.469-0.979-0.469
		c-0.256,0-0.47,0.086-0.64,0.213c-0.213,0.171-0.341,0.427-0.341,0.725c0,0.299,0.128,0.512,0.384,0.641
		c0.127,0.084,0.299,0.127,0.469,0.213l0.426,0.127c0.64,0.171,1.066,0.384,1.279,0.555c0.298,0.299,0.426,0.682,0.426,1.15
		c0,0.555-0.17,0.98-0.555,1.321c-0.34,0.298-0.725,0.47-1.235,0.47c-0.469,0-0.896-0.172-1.364-0.47l-0.256,0.341h-0.213v-1.491
		h0.213c0.086,0.341,0.213,0.64,0.427,0.853c0.298,0.341,0.683,0.512,1.108,0.512c0.341,0,0.596-0.086,0.81-0.256
		c0.256-0.213,0.341-0.427,0.341-0.725c0-0.299-0.128-0.555-0.341-0.725c-0.085-0.086-0.214-0.129-0.384-0.171
		c-0.043,0-0.213-0.085-0.554-0.171c-0.597-0.17-0.938-0.34-1.108-0.426c-0.341-0.256-0.512-0.639-0.512-1.15
		s0.171-0.938,0.512-1.236c0.17-0.128,0.341-0.256,0.555-0.341c0.213-0.085,0.383-0.128,0.596-0.128
		c0.384,0,0.725,0.128,1.108,0.383l0.256-0.298h0.171V81.791z"/>
</g>
<path d="M121.527,18.711c-2.045-4.987-5.114-8.439-9.121-10.272c-2.387-1.108-5.2-1.705-8.396-1.705
	c-4.262,0-8.013,0.98-11.209,2.855c-3.538,2.131-5.285,5.115-6.052,8.737c-0.383,1.833-0.256,7.672,5.796,8.056
	c3.239,0.213,5.882-2.643,5.882-5.882s-2.643-5.882-5.882-5.882c-0.127,0-0.255,0-0.383,0c1.321-2.302,4.262-5.413,10.229-5.115
	c13,0.554,14.577,13.469,14.577,18.498c0,8.737-3.282,17.645-8.482,23.442c-4.347,4.815-10.655,8.737-18.753,11.763
	c5.669-0.34,10.997-1.918,15.855-4.73c5.072-2.941,9.376-7.288,12.702-12.872c3.367-5.583,5.071-11.38,5.071-17.262
	C123.402,24.934,122.764,21.694,121.527,18.711z"/>
</svg>
