<?xml version="1.0" encoding="utf-8"?>
<!-- Generator: Adobe Illustrator 16.0.4, SVG Export Plug-In . SVG Version: 6.00 Build 0)  -->
<!DOCTYPE svg PUBLIC "-//W3C//DTD SVG 1.1//EN" "http://www.w3.org/Graphics/SVG/1.1/DTD/svg11.dtd">
<svg version="1.1" id="Layer_1" xmlns="http://www.w3.org/2000/svg" xmlns:xlink="http://www.w3.org/1999/xlink" x="0px" y="0px"
	 width="235px" height="74px" viewBox="0 9.833 235 74" enable-background="new 0 9.833 235 74" xml:space="preserve">
<rect id="XMLID_6_" x="68.364" y="13.641" fill="#FFFFFF" width="5.493" height="66.533"/>
<g id="XMLID_13_">
	<rect id="XMLID_5_" x="75.18" y="13.641" fill="#FFFFFF" width="0.916" height="66.533"/>
</g>
<circle id="XMLID_4_" fill="#FFFFFF" cx="58.394" cy="43.957" r="5.493"/>
<g id="XMLID_25_">
	<path id="XMLID_26_" fill="#FFFFFF" d="M92.372,47.212V25.95h-2.747v-0.814h10.682v0.814h-3.052v9.665h8.037V25.95h-2.848v-0.814
		h10.478v0.814h-2.848v21.262h2.95v0.813h-10.682v-0.813h2.95v-10.58h-8.037V47.11h3.052v0.813H89.625V47.11h2.747V47.212z"/>
	<path id="XMLID_28_" fill="#FFFFFF" d="M130.115,41.922h-7.224l-1.424,3.866c-0.103,0.407-0.204,0.712-0.204,0.916
		c0,0.407,0.407,0.508,1.119,0.508h1.832v0.813h-7.122v-0.813h1.221c0.609,0,1.119-0.203,1.525-0.508
		c0.203-0.102,0.406-0.61,0.712-1.424l7.325-20.143h1.119l7.833,22.076h2.441v0.813h-10.376v-0.813h2.949L130.115,41.922z
		 M129.81,41.006l-3.255-9.054l-3.256,9.054H129.81z"/>
	<path id="XMLID_31_" fill="#FFFFFF" d="M146.392,47.212V25.95h-2.747v-0.814h10.174c2.34,0,3.967,0.102,4.883,0.305
		c1.628,0.407,2.747,1.119,3.459,2.238c0.509,0.814,0.712,1.729,0.712,2.747c0,2.136-0.915,3.663-2.747,4.578
		c-0.915,0.509-2.238,0.712-4.068,0.814c1.221,0.203,2.34,0.61,3.561,1.424c1.119,0.814,1.933,1.729,2.34,2.95
		c0.305,0.916,0.406,2.34,0.406,4.375c0,1.628,0.509,2.442,1.526,2.442c0.509,0,1.119-0.204,1.831-0.509v0.916
		c-1.729,0.508-3.052,0.813-3.865,0.813c-1.934,0-3.256-0.813-3.969-2.34c-0.305-0.712-0.508-1.526-0.609-2.441
		c0-0.407-0.102-1.018-0.102-1.933c-0.102-2.543-0.51-4.069-1.323-4.476c-0.509-0.407-1.017-0.61-1.526-0.61
		c-0.508-0.102-0.812-0.102-1.017-0.102h-1.933v10.988h3.255v0.813h-10.783v-0.813h2.543V47.212z M151.275,35.31h2.543
		c1.119,0,1.933-0.102,2.441-0.305c0.814-0.407,1.322-1.018,1.525-2.035c0.204-0.61,0.204-1.526,0.204-2.645
		c0-1.729-0.306-2.849-1.018-3.459c-0.407-0.305-0.813-0.509-1.322-0.61c-0.407-0.102-1.018-0.102-1.933-0.102h-2.543v9.156H151.275
		z"/>
	<path id="XMLID_34_" fill="#FFFFFF" d="M173.656,47.212V25.95h-2.747v-0.814h10.173c2.34,0,3.968,0.102,4.883,0.305
		c1.629,0.407,2.747,1.119,3.459,2.238c0.51,0.814,0.713,1.729,0.713,2.747c0,2.136-0.916,3.663-2.747,4.578
		c-0.915,0.509-2.238,0.712-4.069,0.814c1.221,0.203,2.34,0.61,3.561,1.424c1.119,0.814,1.934,1.729,2.34,2.95
		c0.305,0.916,0.407,2.34,0.407,4.375c0,1.628,0.509,2.442,1.526,2.442c0.508,0,1.119-0.204,1.83-0.509v0.916
		c-1.729,0.508-3.051,0.813-3.865,0.813c-1.934,0-3.256-0.813-3.968-2.34c-0.306-0.712-0.509-1.526-0.61-2.441
		c0-0.407-0.102-1.018-0.102-1.933c-0.102-2.543-0.509-4.069-1.322-4.476c-0.509-0.407-1.018-0.61-1.526-0.61
		c-0.509-0.102-0.813-0.102-1.017-0.102h-1.934v10.988h3.256v0.813h-10.987v-0.813h2.747V47.212z M178.438,35.31h2.543
		c1.119,0,1.934-0.102,2.441-0.305c0.814-0.407,1.322-1.018,1.526-2.035c0.203-0.61,0.203-1.526,0.203-2.645
		c0-1.729-0.306-2.849-1.017-3.459c-0.408-0.305-0.814-0.509-1.323-0.61c-0.407-0.102-1.017-0.102-1.933-0.102h-2.543v9.156H178.438
		z"/>
	<path id="XMLID_37_" fill="#FFFFFF" d="M200.92,47.212V25.95h-2.746v-0.814h10.376v0.814h-2.747v21.262h2.747v0.813h-10.376v-0.813
		H200.92z"/>
	<path id="XMLID_39_" fill="#FFFFFF" d="M227.98,24.933v6.206h-1.018c-0.203-1.526-0.712-2.645-1.424-3.561
		c-1.018-1.323-2.441-1.933-4.171-1.933c-1.018,0-1.933,0.305-2.747,0.814c-0.916,0.712-1.424,1.729-1.424,3.052
		c0,1.221,0.508,2.136,1.627,2.747c0.611,0.305,1.221,0.61,2.035,0.813l1.933,0.509c2.747,0.814,4.477,1.628,5.392,2.441
		c1.221,1.221,1.934,2.849,1.934,4.985c0,2.34-0.814,4.171-2.34,5.595c-1.424,1.322-3.154,1.934-5.291,1.934
		c-1.932,0-3.865-0.611-5.798-1.934l-1.119,1.424h-0.915v-6.409h1.017c0.407,1.526,1.018,2.645,1.831,3.663
		c1.322,1.424,2.849,2.137,4.781,2.137c1.425,0,2.543-0.407,3.459-1.12c1.018-0.814,1.526-1.933,1.526-3.153
		c0-1.323-0.509-2.238-1.526-3.052c-0.406-0.305-0.916-0.509-1.729-0.814c-0.103,0-0.916-0.305-2.34-0.712
		c-2.442-0.712-4.07-1.424-4.782-1.933c-1.424-1.119-2.237-2.747-2.237-4.883c0-2.137,0.711-3.968,2.136-5.29
		c0.61-0.61,1.425-1.119,2.34-1.424c0.813-0.305,1.729-0.407,2.544-0.407c1.525,0,3.152,0.508,4.68,1.526l1.017-1.221H227.98z"/>
</g>
<g id="XMLID_7_">
	<path id="XMLID_8_" fill="#FFFFFF" d="M96.95,56.877v3.357h-0.61c-0.102-0.814-0.407-1.425-0.814-1.934
		c-0.61-0.712-1.322-1.119-2.238-1.119c-0.61,0-1.119,0.203-1.526,0.509c-0.508,0.407-0.813,0.915-0.813,1.628
		c0,0.712,0.305,1.221,0.813,1.525c0.305,0.204,0.712,0.306,1.119,0.407l1.018,0.306c1.526,0.406,2.441,0.915,2.95,1.322
		c0.712,0.61,1.017,1.525,1.017,2.746c0,1.323-0.407,2.34-1.221,3.053c-0.814,0.712-1.729,1.018-2.849,1.018
		c-1.017,0-2.136-0.306-3.153-1.018l-0.611,0.813h-0.508v-3.459h0.508c0.204,0.813,0.509,1.425,1.018,2.034
		c0.712,0.814,1.526,1.119,2.543,1.119c0.712,0,1.424-0.203,1.831-0.609c0.509-0.51,0.814-1.018,0.814-1.73
		c0-0.711-0.305-1.221-0.814-1.627c-0.204-0.203-0.509-0.305-0.916-0.407c-0.102,0-0.509-0.203-1.323-0.407
		c-1.322-0.406-2.238-0.712-2.645-1.018c-0.61-0.711-1.017-1.627-1.017-2.746c0-1.221,0.407-2.137,1.119-2.849
		c0.305-0.306,0.813-0.61,1.322-0.813s0.916-0.203,1.424-0.203c0.814,0,1.729,0.305,2.543,0.813l0.61-0.61h0.407V56.877z"/>
	<path id="XMLID_10_" fill="#FFFFFF" d="M113.329,69.084V57.486h-0.509c-2.035-0.102-3.154,1.018-3.357,3.357h-0.509l0.305-3.967
		h10.885l0.407,3.865h-0.509c-0.102-0.61-0.203-1.119-0.406-1.525c-0.306-0.814-0.713-1.322-1.322-1.526
		c-0.408-0.204-0.916-0.306-1.73-0.306h-0.61v11.496h1.729v0.509h-6.002v-0.509h1.628V69.084z"/>
	<path id="XMLID_12_" fill="#FFFFFF" d="M132.963,57.385h-1.525v-0.508h5.799v0.508h-1.73v8.037c0,0.814,0,1.322,0.103,1.628
		c0.102,0.61,0.407,1.119,0.915,1.526c0.407,0.305,1.018,0.406,1.73,0.406c1.221,0,2.034-0.305,2.543-1.018
		c0.203-0.305,0.305-0.609,0.406-1.017c0.102-0.306,0.102-0.813,0.102-1.526v-6.714c0-0.61-0.102-1.018-0.203-1.119
		c-0.102-0.103-0.406-0.204-0.813-0.204h-0.509v-0.508h3.357v0.508h-0.306c-0.407,0-0.712,0.102-0.813,0.204
		c-0.102,0.102-0.203,0.509-0.203,1.119v6.714c0,0.916-0.103,1.628-0.204,2.035c-0.306,0.813-0.712,1.322-1.526,1.729
		c-0.712,0.408-1.525,0.51-2.543,0.51c-0.916,0-1.831-0.204-2.645-0.51c-0.916-0.305-1.526-0.915-1.832-1.525
		c-0.203-0.406-0.305-1.119-0.305-2.238v-8.037H132.963z"/>
	<path id="XMLID_15_" fill="#FFFFFF" d="M155.854,69.084V57.385h-1.425v-0.508h5.798c1.222,0,2.238,0.102,2.748,0.305
		c0.711,0.203,1.322,0.713,1.932,1.322c1.018,1.119,1.527,2.747,1.527,4.68c0,1.322-0.306,2.543-0.814,3.561
		c-0.61,1.221-1.628,2.035-2.747,2.34c-0.407,0.102-0.915,0.204-1.424,0.204c-0.306,0-0.712,0-1.222,0h-5.798v-0.509h1.425V69.084z
		 M158.498,69.084h1.729c0.713,0,1.222-0.102,1.527-0.203c0.711-0.305,1.221-0.916,1.525-1.831c0.203-0.813,0.406-2.136,0.406-3.968
		c0-2.137-0.203-3.662-0.711-4.477c-0.306-0.508-0.713-0.813-1.323-0.915c-0.306-0.102-0.712-0.102-1.322-0.102H158.6v11.495
		H158.498z"/>
	<path id="XMLID_18_" fill="#FFFFFF" d="M179.557,69.084V57.385h-1.526v-0.508h5.595v0.508H182.1v11.598h1.525v0.509h-5.595v-0.509
		h1.526V69.084z"/>
	<path id="XMLID_20_" fill="#FFFFFF" d="M201.734,56.674c1.322,0,2.441,0.406,3.458,1.118c0.813,0.61,1.425,1.425,1.831,2.442
		c0.407,0.915,0.611,1.83,0.611,2.848c0,1.729-0.51,3.154-1.425,4.375c-1.221,1.525-2.849,2.238-4.884,2.238
		c-1.525,0-2.848-0.51-3.865-1.425c-1.424-1.322-2.137-2.95-2.137-5.087c0-1.525,0.407-2.848,1.322-4.068
		C197.97,57.486,199.699,56.674,201.734,56.674z M201.53,57.182c-1.119,0-1.831,0.407-2.34,1.322
		c-0.509,0.916-0.712,2.441-0.712,4.781s0.203,3.866,0.61,4.68c0.509,0.916,1.322,1.323,2.441,1.323s1.831-0.407,2.238-1.119
		c0.61-0.915,0.813-2.646,0.813-5.087c0-2.34-0.203-3.865-0.712-4.68c-0.306-0.508-0.712-0.813-1.221-1.018
		C202.445,57.283,202.039,57.182,201.53,57.182z"/>
	<path id="XMLID_23_" fill="#FFFFFF" d="M226.963,56.877v3.357h-0.609c-0.103-0.814-0.408-1.425-0.814-1.934
		c-0.61-0.712-1.322-1.119-2.238-1.119c-0.61,0-1.119,0.203-1.525,0.509c-0.51,0.407-0.814,0.915-0.814,1.628
		c0,0.712,0.305,1.221,0.814,1.525c0.305,0.204,0.711,0.306,1.119,0.407l1.017,0.306c1.526,0.406,2.442,0.915,2.95,1.322
		c0.713,0.61,1.018,1.525,1.018,2.746c0,1.323-0.407,2.34-1.221,3.053c-0.814,0.712-1.729,1.018-2.849,1.018
		c-1.018,0-2.136-0.306-3.153-1.018l-0.611,0.813h-0.508v-3.459h0.508c0.204,0.813,0.51,1.425,1.018,2.034
		c0.713,0.814,1.526,1.119,2.543,1.119c0.713,0,1.425-0.203,1.832-0.609c0.508-0.51,0.813-1.018,0.813-1.73
		c0-0.711-0.306-1.221-0.813-1.627c-0.203-0.203-0.509-0.305-0.916-0.407c-0.102,0-0.508-0.203-1.322-0.407
		c-1.322-0.406-2.238-0.712-2.645-1.018c-0.814-0.609-1.221-1.525-1.221-2.645c0-1.221,0.406-2.137,1.118-2.848
		c0.306-0.306,0.813-0.611,1.323-0.814c0.508-0.203,0.915-0.203,1.424-0.203c0.814,0,1.729,0.305,2.543,0.813l0.611-0.61h0.609
		V56.877z"/>
</g>
<path id="XMLID_1_" fill="#FFFFFF" d="M46.39,27.476c-2.441-5.9-6.104-9.97-10.784-12.106c-2.848-1.322-6.104-2.035-9.868-2.035
	c-4.985,0-9.461,1.119-13.225,3.357c-4.171,2.442-6.308,5.901-7.122,10.275c-0.508,2.238-0.305,9.054,6.816,9.562
	c3.764,0.204,6.917-3.052,6.917-6.918c0-3.866-3.052-6.917-6.917-6.917c-0.102,0-0.306,0-0.407,0
	c1.628-2.645,4.985-6.409,12.106-6.002C39.269,17.405,41.1,32.562,41.1,38.463c0,10.275-3.866,20.753-9.97,27.671
	C25.941,71.831,18.515,76.409,9.054,79.97c6.714-0.407,12.92-2.238,18.719-5.595c6.002-3.459,10.987-8.546,14.954-15.158
	c3.968-6.613,6.002-13.429,6.002-20.347C48.526,34.801,47.814,31.037,46.39,27.476z"/>
</svg>
