<?xml version="1.0" encoding="utf-8"?>
<!-- Generator: Adobe Illustrator 19.0.0, SVG Export Plug-In . SVG Version: 6.00 Build 0)  -->
<svg version="1.1" id="Layer_1" xmlns="http://www.w3.org/2000/svg" xmlns:xlink="http://www.w3.org/1999/xlink" x="0px" y="0px"
	 viewBox="0 0 500 500" style="enable-background:new 0 0 500 500;" xml:space="preserve">
<style type="text/css">
	.st0{fill:#224099;}
	.st1{font-family:'BodoniBeckerMed';}
	.st2{font-size:86.9735px;}
	.st3{letter-spacing:8;}
	.st4{font-size:41.7685px;}
	.st5{letter-spacing:30;}
</style>
<g id="XMLID_8_">
	<rect id="XMLID_6_" x="373.8" y="18.1" class="st0" width="27.5" height="330.9"/>
	<g id="XMLID_13_">
		<rect id="XMLID_5_" x="408.2" y="18.1" class="st0" width="4.5" height="330.9"/>
	</g>
	<circle id="XMLID_4_" class="st0" cx="324.5" cy="168.8" r="27.4"/>
	<text id="XMLID_3_" transform="matrix(1 0 0 1 61.9991 434.5469)" class="st0 st1 st2 st3">HARRIS</text>
	<text id="XMLID_2_" transform="matrix(1 0 0 1 62.4668 488.7354)" class="st0 st1 st4 st5">STUDIOS</text>
	<path id="XMLID_1_" class="st0" d="M264.6,86.9c-12.1-29.3-30.1-49.5-53.6-60.2c-14-6.6-30.5-9.9-49.2-9.9
		c-25,0-47.1,5.7-65.7,16.9C75.2,46,65,63.4,60.6,84.7c-2.2,10.7-1.4,44.9,33.9,47.2c19,1.2,34.4-15.4,34.4-34.4
		c0-19-15.4-34.4-34.4-34.4c-0.7,0-1.4,0.1-2.1,0.1c7.9-13.4,25-31.7,60.1-30.1c76.3,3.4,85.4,79,85.4,108.4
		c0,51.3-19.2,103.5-49.8,137.4c-25.6,28.2-62.5,51.4-110,69.1c33.3-1.9,64.5-11.3,93.1-27.9c29.8-17.3,54.9-42.8,74.6-75.6
		c19.7-32.8,29.7-66.8,29.7-101.2C275.4,123.5,271.8,104.5,264.6,86.9z"/>
</g>
</svg>
