<?xml version="1.0" encoding="utf-8"?>
<!-- Generator: Adobe Illustrator 19.1.0, SVG Export Plug-In . SVG Version: 6.00 Build 0)  -->
<svg version="1.1" id="Layer_1" xmlns="http://www.w3.org/2000/svg" xmlns:xlink="http://www.w3.org/1999/xlink" x="0px" y="0px"
	 viewBox="0 0 173.9 218.2" style="enable-background:new 0 0 173.9 218.2;" xml:space="preserve">
<rect x="140.1" y="16.4" width="11" height="132.3"/>
<g>
	<rect x="153.9" y="16.4" width="1.8" height="132.3"/>
</g>
<circle cx="120.4" cy="76.6" r="11"/>
<g>
	<path d="M19.2,182.1v-21.5h-2.8v-0.9h10.8v0.9h-3.1v9.8h8.1v-9.8h-2.9v-0.9H40v0.9H37v21.5h3v0.9H29.2v-0.9h3v-10.6h-8.1v10.6h3.1
		v0.9H16.4v-0.9H19.2z"/>
	<path d="M57.4,176.7h-7.3l-1.4,3.9c-0.1,0.4-0.2,0.7-0.2,0.9c0,0.4,0.4,0.6,1.1,0.6h1.9v0.9h-7.2v-0.9h1.3c0.6,0,1.1-0.2,1.5-0.5
		c0.2-0.1,0.4-0.6,0.7-1.5l7.4-20.3h1.1l8,22.3h2.5v0.9H56.3v-0.9h3L57.4,176.7z M57,175.9l-3.3-9.2l-3.3,9.2H57z"/>
	<path d="M73.8,182.1v-21.5H71v-0.9h10.2c2.4,0,4,0.1,4.9,0.3c1.6,0.4,2.8,1.2,3.5,2.3c0.5,0.8,0.8,1.7,0.8,2.8
		c0,2.1-0.9,3.7-2.8,4.6c-0.9,0.5-2.3,0.8-4.1,0.8c1.2,0.2,2.4,0.6,3.6,1.4c1.2,0.8,2,1.8,2.4,3c0.3,0.9,0.4,2.3,0.4,4.4
		c0,1.7,0.5,2.5,1.5,2.5c0.5,0,1.1-0.2,1.8-0.5v1c-1.7,0.5-3,0.8-3.9,0.8c-1.9,0-3.3-0.8-4-2.4c-0.3-0.7-0.5-1.5-0.7-2.4
		c0-0.4-0.1-1-0.2-2c-0.1-2.6-0.6-4.1-1.3-4.5c-0.5-0.4-1-0.6-1.6-0.6c-0.5-0.1-0.8-0.1-1.1-0.1h-1.9v11.1h3.2v0.9H71v-0.9H73.8z
		 M78.6,170.1h2.6c1.2,0,2-0.1,2.5-0.4c0.8-0.4,1.3-1.1,1.5-2c0.2-0.7,0.2-1.5,0.2-2.6c0-1.7-0.3-2.9-1-3.5
		c-0.4-0.3-0.8-0.5-1.4-0.7c-0.4-0.1-1-0.1-1.9-0.1h-2.6V170.1z"/>
	<path d="M101.3,182.1v-21.5h-2.8v-0.9h10.2c2.4,0,4,0.1,4.9,0.3c1.6,0.4,2.8,1.2,3.5,2.3c0.5,0.8,0.8,1.7,0.8,2.8
		c0,2.1-0.9,3.7-2.8,4.6c-0.9,0.5-2.3,0.8-4.1,0.8c1.2,0.2,2.4,0.6,3.6,1.4c1.2,0.8,2,1.8,2.4,3c0.3,0.9,0.4,2.3,0.4,4.4
		c0,1.7,0.5,2.5,1.5,2.5c0.5,0,1.1-0.2,1.8-0.5v1c-1.7,0.5-3,0.8-3.9,0.8c-1.9,0-3.3-0.8-4-2.4c-0.3-0.7-0.5-1.5-0.7-2.4
		c0-0.4-0.1-1-0.2-2c-0.1-2.6-0.6-4.1-1.3-4.5c-0.5-0.4-1-0.6-1.6-0.6c-0.5-0.1-0.8-0.1-1.1-0.1h-1.9v11.1h3.2v0.9H98.5v-0.9H101.3z
		 M106.1,170.1h2.6c1.2,0,2-0.1,2.5-0.4c0.8-0.4,1.3-1.1,1.5-2c0.2-0.7,0.2-1.5,0.2-2.6c0-1.7-0.3-2.9-1-3.5
		c-0.4-0.3-0.8-0.5-1.4-0.7c-0.4-0.1-1-0.1-1.9-0.1h-2.6V170.1z"/>
	<path d="M128.8,182.1v-21.5H126v-0.9h10.4v0.9h-2.8v21.5h2.8v0.9H126v-0.9H128.8z"/>
	<path d="M156.1,159.6v6.3h-1c-0.2-1.5-0.7-2.7-1.5-3.6c-1.1-1.3-2.5-2-4.2-2c-1.1,0-2,0.3-2.7,0.9c-1,0.8-1.5,1.8-1.5,3
		c0,1.2,0.5,2.2,1.6,2.8c0.6,0.3,1.3,0.6,2,0.8l1.9,0.5c2.8,0.8,4.6,1.6,5.5,2.4c1.3,1.2,1.9,2.9,1.9,5c0,2.4-0.8,4.2-2.3,5.7
		c-1.4,1.3-3.2,2-5.3,2c-1.9,0-3.9-0.7-5.8-2l-1.2,1.5h-0.9v-6.4h1c0.4,1.5,1,2.7,1.9,3.7c1.3,1.4,2.9,2.1,4.8,2.1
		c1.4,0,2.5-0.4,3.4-1.2c1-0.8,1.5-1.9,1.5-3.2c0-1.3-0.5-2.3-1.5-3c-0.4-0.3-1-0.6-1.7-0.8c-0.1,0-0.9-0.3-2.4-0.7
		c-2.5-0.8-4.1-1.4-4.8-1.9c-1.5-1.1-2.2-2.7-2.2-4.9c0-2.2,0.7-4,2.1-5.3c0.6-0.6,1.4-1.1,2.4-1.4c0.8-0.3,1.7-0.5,2.6-0.5
		c1.6,0,3.1,0.5,4.7,1.6l1.1-1.2H156.1z"/>
</g>
<g>
	<path d="M23.9,191.9v3.4h-0.6c-0.1-0.8-0.4-1.5-0.8-2c-0.6-0.7-1.3-1.1-2.3-1.1c-0.6,0-1.1,0.2-1.5,0.5c-0.5,0.4-0.8,1-0.8,1.7
		c0,0.7,0.3,1.2,0.9,1.5c0.3,0.2,0.7,0.3,1.1,0.5l1,0.3c1.5,0.4,2.5,0.9,3,1.3c0.7,0.7,1,1.6,1,2.7c0,1.3-0.4,2.3-1.3,3.1
		c-0.8,0.7-1.7,1.1-2.9,1.1c-1.1,0-2.1-0.4-3.2-1.1l-0.6,0.8h-0.5v-3.5H17c0.2,0.8,0.5,1.5,1,2c0.7,0.8,1.6,1.2,2.6,1.2
		c0.8,0,1.4-0.2,1.9-0.6c0.6-0.5,0.8-1,0.8-1.7c0-0.7-0.3-1.3-0.8-1.7c-0.2-0.2-0.5-0.3-0.9-0.4c-0.1,0-0.5-0.2-1.3-0.4
		c-1.4-0.4-2.2-0.8-2.6-1c-0.8-0.6-1.2-1.5-1.2-2.7c0-1.2,0.4-2.2,1.2-2.9c0.4-0.3,0.8-0.6,1.3-0.8c0.5-0.2,0.9-0.3,1.4-0.3
		c0.9,0,1.7,0.3,2.6,0.9l0.6-0.7H23.9z"/>
	<path d="M40.4,204.1v-11.6h-0.5c-2-0.1-3.2,1-3.4,3.4H36l0.3-4h11l0.4,3.9h-0.5c-0.1-0.6-0.2-1.1-0.4-1.5c-0.3-0.8-0.7-1.3-1.3-1.6
		c-0.4-0.2-1-0.3-1.8-0.3h-0.5v11.6h1.7v0.5h-6.1v-0.5H40.4z"/>
	<path d="M60.2,192.4h-1.5V192h5.9v0.5h-1.7v8.1c0,0.8,0,1.3,0.1,1.7c0.1,0.7,0.4,1.2,0.9,1.5c0.4,0.3,1,0.5,1.7,0.5
		c1.2,0,2-0.4,2.5-1.1c0.2-0.3,0.3-0.6,0.4-1c0.1-0.3,0.1-0.8,0.1-1.5v-6.8c0-0.6-0.1-1-0.2-1.2c-0.1-0.1-0.4-0.2-0.8-0.2h-0.5V192
		h3.4v0.5h-0.3c-0.4,0-0.7,0.1-0.9,0.2c-0.1,0.1-0.2,0.5-0.2,1.2v6.8c0,1-0.1,1.6-0.2,2c-0.3,0.8-0.8,1.4-1.5,1.7
		c-0.7,0.4-1.6,0.5-2.6,0.5c-0.9,0-1.8-0.2-2.6-0.5c-0.9-0.4-1.5-0.9-1.8-1.5c-0.2-0.4-0.3-1.2-0.3-2.3V192.4z"/>
	<path d="M83.3,204.1v-11.7h-1.5V192h5.9c1.3,0,2.2,0.1,2.8,0.3c0.7,0.2,1.4,0.7,2,1.4c1,1.1,1.5,2.7,1.5,4.8c0,1.4-0.3,2.6-0.8,3.6
		c-0.7,1.2-1.6,2-2.8,2.4c-0.4,0.1-0.9,0.2-1.5,0.2c-0.3,0-0.7,0-1.3,0h-5.9v-0.5H83.3z M86,204.1h1.8c0.7,0,1.2-0.1,1.5-0.2
		c0.7-0.3,1.3-0.9,1.5-1.8c0.2-0.9,0.4-2.2,0.4-4.1c0-2.2-0.3-3.7-0.8-4.5c-0.3-0.5-0.7-0.8-1.3-0.9c-0.3-0.1-0.7-0.1-1.3-0.1H86
		V204.1z"/>
	<path d="M107.3,204.1v-11.7h-1.5V192h5.7v0.5h-1.5v11.7h1.5v0.5h-5.7v-0.5H107.3z"/>
	<path d="M129.7,191.6c1.3,0,2.5,0.4,3.5,1.2c0.8,0.6,1.4,1.4,1.9,2.4c0.4,0.9,0.6,1.9,0.6,2.9c0,1.7-0.5,3.2-1.4,4.4
		c-1.2,1.5-2.8,2.3-4.9,2.3c-1.6,0-2.9-0.5-3.9-1.4c-1.5-1.3-2.2-3-2.2-5.1c0-1.6,0.4-2.9,1.3-4.1
		C125.8,192.5,127.5,191.6,129.7,191.6z M129.4,192.2c-1.1,0-1.9,0.5-2.4,1.4c-0.5,0.9-0.8,2.5-0.8,4.8c0,2.3,0.2,3.9,0.7,4.7
		c0.5,0.9,1.3,1.4,2.5,1.4c1.1,0,1.8-0.4,2.3-1.1c0.6-1,0.9-2.7,0.9-5.1c0-2.3-0.2-3.9-0.7-4.7c-0.3-0.5-0.7-0.9-1.2-1
		C130.4,192.3,129.9,192.2,129.4,192.2z"/>
	<path d="M155.1,191.9v3.4h-0.6c-0.1-0.8-0.4-1.5-0.8-2c-0.6-0.7-1.3-1.1-2.3-1.1c-0.6,0-1.1,0.2-1.5,0.5c-0.5,0.4-0.8,1-0.8,1.7
		c0,0.7,0.3,1.2,0.9,1.5c0.3,0.2,0.7,0.3,1.1,0.5l1,0.3c1.5,0.4,2.5,0.9,3,1.3c0.7,0.7,1,1.6,1,2.7c0,1.3-0.4,2.3-1.3,3.1
		c-0.8,0.7-1.7,1.1-2.9,1.1c-1.1,0-2.1-0.4-3.2-1.1l-0.6,0.8h-0.5v-3.5h0.5c0.2,0.8,0.5,1.5,1,2c0.7,0.8,1.6,1.2,2.6,1.2
		c0.8,0,1.4-0.2,1.9-0.6c0.6-0.5,0.8-1,0.8-1.7c0-0.7-0.3-1.3-0.8-1.7c-0.2-0.2-0.5-0.3-0.9-0.4c-0.1,0-0.5-0.2-1.3-0.4
		c-1.4-0.4-2.2-0.8-2.6-1c-0.8-0.6-1.2-1.5-1.2-2.7c0-1.2,0.4-2.2,1.2-2.9c0.4-0.3,0.8-0.6,1.3-0.8c0.5-0.2,0.9-0.3,1.4-0.3
		c0.9,0,1.7,0.3,2.6,0.9l0.6-0.7H155.1z"/>
</g>
<path d="M96.4,43.9c-4.8-11.7-12-19.8-21.4-24.1c-5.6-2.6-12.2-4-19.7-4c-10,0-18.8,2.3-26.3,6.7C20.7,27.5,16.6,34.5,14.8,43
	c-0.9,4.3-0.6,18,13.6,18.9c7.6,0.5,13.8-6.2,13.8-13.8c0-7.6-6.2-13.8-13.8-13.8c-0.3,0-0.6,0-0.9,0c3.1-5.4,10-12.7,24-12
	c30.5,1.3,34.2,31.6,34.2,43.4c0,20.5-7.7,41.4-19.9,55c-10.2,11.3-25,20.5-44,27.6c13.3-0.8,25.8-4.5,37.2-11.1
	c11.9-6.9,22-17.1,29.8-30.2c7.9-13.1,11.9-26.7,11.9-40.5C100.8,58.5,99.3,50.9,96.4,43.9z"/>
</svg>
