<?xml version="1.0" encoding="utf-8"?>
<!-- Generator: Adobe Illustrator 19.1.0, SVG Export Plug-In . SVG Version: 6.00 Build 0)  -->
<svg version="1.1" id="Layer_1" xmlns="http://www.w3.org/2000/svg" xmlns:xlink="http://www.w3.org/1999/xlink" x="0px" y="0px"
	 viewBox="-331 117 560 560" style="enable-background:new -331 117 560 560;" xml:space="preserve">
<style type="text/css">
	.st0{fill:#E5E5E5;}
	.st1{enable-background:new    ;}
	.st2{fill:#820028;}
	.st3{fill:#FFFFFF;}
</style>
<rect x="-332" y="116.4" class="st0" width="559.6" height="559.6"/>
<g>
	<g class="st1">
		<path d="M-261.1,217.7v-30h-3.9v-1.2h13.6c3.3,0,5.6,0.2,6.9,0.5c2.2,0.6,3.9,1.7,4.9,3.1c0.9,1.3,1.4,2.7,1.4,4.2
			c0,1.6-0.6,3.2-1.7,4.6c-1.4,1.7-3.6,2.8-6.7,3.1c2.2,0.2,4,0.6,5.4,1.3c3,1.6,4.5,3.9,4.5,7c0,2.7-1.1,4.9-3.2,6.5
			c-1.3,1-3,1.6-5.1,1.8c-1,0.1-2.9,0.2-5.7,0.2H-265v-1.2H-261.1z M-254.3,201.4h3.1c1.4,0,2.4-0.1,3.1-0.4
			c1.2-0.5,2.1-1.4,2.6-2.7c0.3-0.9,0.5-2.1,0.5-3.6c0-2.8-0.5-4.7-1.4-5.7c-0.5-0.5-1.3-0.9-2.2-1c-0.5-0.1-1.4-0.1-2.6-0.1h-2.9
			V201.4z M-254.3,217.6h3.7c1.5,0,2.6-0.1,3.1-0.3c2.2-0.7,3.3-3.2,3.3-7.3c0-3-0.7-5.1-2-6.2c-0.6-0.5-1.3-0.8-2.2-0.9
			c-0.6-0.1-1.6-0.2-2.8-0.2h-3.1V217.6z"/>
		<path d="M-222.4,199.1c3,0,5.5,0.9,7.4,2.6c1,0.9,1.7,1.9,2.3,3.2c0.6,1.4,1,2.9,1,4.6c0,3.1-1.1,5.5-3.3,7.3
			c-2.1,1.7-4.6,2.6-7.7,2.6c-2.9,0-5.4-0.9-7.4-2.7c-2.3-2-3.4-4.5-3.4-7.4c0-2.1,0.6-4,1.8-5.8
			C-229.7,200.6-226.6,199.1-222.4,199.1z M-222.5,200.2c-1,0-1.8,0.3-2.6,0.8c-0.9,0.6-1.4,1.7-1.7,3.1c-0.2,1.1-0.3,2.7-0.3,4.8
			c0,2.4,0.1,4.2,0.3,5.5c0.2,1.2,0.8,2.2,1.7,3c0.8,0.6,1.6,0.9,2.7,0.9c0.9,0,1.8-0.3,2.5-0.8c0.9-0.6,1.4-1.6,1.6-3.1
			c0.2-1.1,0.3-2.9,0.3-5.2c0-3.8-0.3-6.2-0.9-7.2C-219.6,200.8-220.9,200.2-222.5,200.2z"/>
		<path d="M-194.4,218.9V216c-1.4,2.3-3.3,3.4-5.8,3.4c-1.9,0-3.6-0.6-5.2-1.8c-1.1-0.9-2-2-2.7-3.4c-0.7-1.4-1-3-1-4.7
			c0-2.9,0.9-5.4,2.8-7.4c1.7-1.9,3.7-2.8,6-2.8c1.6,0,3,0.4,4.2,1.3c0.5,0.3,1,0.8,1.7,1.6v-14.3h-3v-1.3h1.3
			c2.9,0,5.4-0.2,7.6-0.5v31.5h3.1v1.2H-194.4z M-199,200.8c-1.1,0-1.9,0.5-2.7,1.6c-0.8,1.2-1.2,3.2-1.2,6.2c0,2.1,0.2,3.9,0.5,5.6
			c0.3,1.6,0.8,2.6,1.5,3.1c0.5,0.4,1.1,0.5,1.7,0.5c1,0,1.9-0.5,2.9-1.4c0.7-0.6,1.2-1.4,1.5-2.4c0.4-1.1,0.5-2.7,0.5-4.7
			c0-3.3-0.4-5.4-1.2-6.6c-0.5-0.7-1.2-1.3-2-1.7C-198,200.9-198.5,200.8-199,200.8z"/>
		<path d="M-172.4,199.1c3,0,5.5,0.9,7.4,2.6c1,0.9,1.7,1.9,2.3,3.2c0.6,1.4,1,2.9,1,4.6c0,3.1-1.1,5.5-3.3,7.3
			c-2.1,1.7-4.6,2.6-7.7,2.6c-2.9,0-5.4-0.9-7.4-2.7c-2.3-2-3.4-4.5-3.4-7.4c0-2.1,0.6-4,1.8-5.8
			C-179.7,200.6-176.6,199.1-172.4,199.1z M-172.6,200.2c-1,0-1.8,0.3-2.6,0.8c-0.9,0.6-1.4,1.7-1.7,3.1c-0.2,1.1-0.3,2.7-0.3,4.8
			c0,2.4,0.1,4.2,0.3,5.5c0.2,1.2,0.8,2.2,1.7,3c0.8,0.6,1.6,0.9,2.7,0.9c0.9,0,1.8-0.3,2.5-0.8c0.9-0.6,1.4-1.6,1.6-3.1
			c0.2-1.1,0.3-2.9,0.3-5.2c0-3.8-0.3-6.2-0.9-7.2C-169.7,200.8-170.9,200.2-172.6,200.2z"/>
		<path d="M-156.2,217.7V201h-3.1v-1.3h1.4c2.3,0,4.8-0.2,7.6-0.5v3.5c0.8-1,1.6-1.7,2.3-2.2c1.4-0.9,3-1.4,4.8-1.4
			c2.1,0,3.7,0.5,4.8,1.5c0.7,0.7,1.2,1.4,1.3,2.3c0.1,0.6,0.2,1.5,0.2,2.5v12.1h3.1v1.2h-11.4v-1.2h2.6v-12.1
			c0-1.4-0.1-2.3-0.3-2.8c-0.4-1-1.2-1.5-2.3-1.5c-1.2,0-2.3,0.5-3.3,1.4c-0.8,0.8-1.4,1.7-1.6,2.8c-0.1,0.5-0.2,1.4-0.2,2.8v9.4
			h2.8v1.2h-11.8v-1.2H-156.2z"/>
		<path d="M-128.6,217.7V201h-3.1v-1.2h1.4c2.8,0,5.3-0.1,7.6-0.5v18.4h2.9v1.2h-11.8v-1.2H-128.6z M-126.2,188
			c0.9,0,1.7,0.3,2.3,0.9c0.6,0.6,1,1.4,1,2.3c0,0.9-0.3,1.7-1,2.4c-0.7,0.7-1.5,1-2.4,1c-1,0-1.8-0.3-2.4-0.9
			c-0.6-0.6-0.9-1.4-0.9-2.4c0-0.9,0.3-1.7,1-2.3C-127.9,188.3-127.1,188-126.2,188z"/>
	</g>
</g>
<g>
	<g class="st1">
		<path class="st2" d="M-70.3,451.6v-40h-1.8c-7-0.4-10.9,3.5-11.6,11.8h-1.8l0.9-13.6h37.7l1.2,13.5h-1.8c-0.4-2.1-0.8-3.9-1.3-5.2
			c-1-2.7-2.5-4.5-4.5-5.5c-1.3-0.6-3.3-0.9-6.1-1h-1.8v40h5.9v1.6h-20.9v-1.6H-70.3z"/>
		<path class="st2" d="M-22.4,438.8H-40v3.2c0,2,0.1,3.5,0.2,4.4c0.3,1.8,1,3.2,2.2,4.3c1,0.9,2.3,1.4,3.9,1.4c2.5,0,4.7-1,6.7-2.9
			c0.9-0.9,1.8-2.1,2.8-3.6l1.6,0.7c-0.8,1.7-2,3.4-3.5,4.9c-1,1-2.2,1.7-3.6,2.2c-1.5,0.6-3.1,0.8-4.6,0.8c-2.2,0-4.5-0.5-6.7-1.6
			c-3.1-1.5-5.2-3.8-6.4-6.9c-0.7-1.7-1-3.4-1-5.2c0-4.2,1.5-7.6,4.4-10.2c1.5-1.4,3.4-2.3,5.6-2.9c1.3-0.3,2.5-0.5,3.7-0.5
			c2.6,0,4.9,0.7,7,2c2.3,1.5,4,3.8,4.8,6.9C-22.7,436.6-22.5,437.7-22.4,438.8z M-39.9,436.9h9.4c0-2.4-0.1-4-0.2-4.8
			c-0.1-1.4-0.6-2.4-1.3-3.1c-0.6-0.6-1.6-0.9-3-0.9c-1.9,0-3.2,0.6-4,1.7c-0.5,0.9-0.8,2.2-0.9,4
			C-39.8,434.2-39.8,435.2-39.9,436.9z"/>
		<path class="st2" d="M6.9,449.1l1.1,1.4c-0.6,0.8-1.3,1.5-2.1,2c-1.4,0.9-2.7,1.3-4,1.3c-1.3,0-2.4-0.5-3.5-1.4
			c-0.8-0.7-1.5-1.6-2.1-2.8c-2.4,2.8-5.3,4.3-8.7,4.3c-2.1,0-3.8-0.6-5.1-1.8c-1.3-1.2-2-2.7-2-4.6c0-3.3,1.9-5.8,5.6-7.7
			c1.9-0.9,4.3-1.6,7.3-1.9c0.6-0.1,1.6-0.1,3-0.3v-1.3c0-3.1-0.1-4.9-0.2-5.5c-0.3-1.8-1.6-2.7-4-2.7c-1.4,0-2.5,0.2-3.2,0.7
			c-0.4,0.3-0.6,0.6-0.6,1c0,0.2,0.2,0.6,0.5,1.1c0.5,0.8,0.8,1.5,0.8,2.2c0,1-0.4,1.8-1.1,2.5c-0.8,0.7-1.6,1-2.6,1
			c-1,0-1.8-0.3-2.4-1c-0.6-0.6-0.9-1.5-0.9-2.7c0-1.4,0.7-2.8,2.2-4c2.1-1.7,4.9-2.5,8.4-2.5c4.1,0,7.1,0.9,8.9,2.8
			c0.8,0.8,1.2,1.6,1.4,2.6c0.1,0.7,0.2,2,0.2,4v11.4c0,1.3,0.1,2,0.4,2.3c0.3,0.3,0.6,0.4,1,0.4C5.6,450.1,6.2,449.8,6.9,449.1z
			 M-3.8,439.4c-2.2,0.1-3.9,0.4-5.1,0.8c-2.4,0.9-3.6,2.6-3.6,5.2c0,1.4,0.4,2.6,1.3,3.5c0.8,0.9,1.8,1.3,3.1,1.3
			c2.9,0,4.4-2.1,4.4-6.4l0-1.1V439.4z"/>
		<path class="st2" d="M12.6,429.4H8.3v-1.1c2.2-0.9,4.4-2.6,6.6-5.2c1.7-2.1,3-4,3.7-5.9h1.7v10.5h5.4v1.7h-5.4v18
			c0,2.3,0.7,3.4,2,3.4c1.1,0,1.9-0.6,2.6-1.8c0.3-0.4,0.6-1.3,1-2.6l1.7,0.4c-0.5,1.9-1.1,3.3-1.7,4.2c-0.8,1.2-2,2-3.5,2.6
			c-1.1,0.4-2.2,0.6-3.3,0.6c-4.4,0-6.5-2.3-6.5-6.8V429.4z"/>
		<path class="st2" d="M33.4,451.6v-22.4h-4.2v-1.7h1.6c3.7,0,7.2-0.2,10.4-0.6v5.1c2-3.6,4.5-5.4,7.6-5.4c1.4,0,2.7,0.4,3.7,1.2
			c1.1,1,1.7,2.3,1.7,3.9c0,1.3-0.4,2.4-1.3,3.2c-0.8,0.7-1.7,1.1-2.8,1.1c-1.2,0-2.2-0.4-3-1.2c-0.6-0.7-0.9-1.4-0.9-2.3
			c0-0.9,0.3-1.7,0.8-2.4c0.2-0.3,0.3-0.5,0.3-0.7c0-0.3-0.2-0.4-0.6-0.4c-1,0-2,0.9-3.3,2.7c-0.7,1-1.3,2.2-1.7,3.6
			c-0.4,1.1-0.5,2.8-0.5,5v11.4h5.1v1.6H29.2v-1.6H33.4z"/>
		<path class="st2" d="M71.1,426.6c4,0,7.3,1.2,10,3.5c1.3,1.2,2.3,2.6,3.1,4.3c0.9,1.9,1.3,4,1.3,6.2c0,4.1-1.5,7.4-4.4,9.9
			c-2.8,2.3-6.2,3.4-10.3,3.4c-3.9,0-7.2-1.2-9.9-3.6c-3.1-2.7-4.6-6-4.6-9.9c0-2.8,0.8-5.4,2.4-7.7
			C61.3,428.6,65.4,426.6,71.1,426.6z M70.9,428.1c-1.3,0-2.5,0.4-3.5,1.1c-1.2,0.8-1.9,2.2-2.2,4.2c-0.2,1.5-0.4,3.7-0.4,6.4
			c0,3.2,0.1,5.6,0.4,7.4c0.3,1.7,1,3,2.3,4c1,0.8,2.2,1.2,3.6,1.2c1.3,0,2.4-0.4,3.4-1.1c1.1-0.8,1.9-2.2,2.2-4.1
			c0.2-1.5,0.4-3.9,0.4-7c0-5.1-0.4-8.3-1.2-9.6C74.8,429,73.1,428.1,70.9,428.1z"/>
	</g>
</g>
<g class="st1">
	<path d="M-186.8,522.4l0.6,0.8c-0.4,0.5-0.8,0.8-1.2,1.1c-0.8,0.5-1.5,0.7-2.2,0.7c-0.7,0-1.4-0.3-2-0.8c-0.5-0.4-0.9-0.9-1.2-1.6
		c-1.3,1.6-3,2.4-5,2.4c-1.2,0-2.1-0.3-2.9-1c-0.7-0.7-1.1-1.5-1.1-2.6c0-1.9,1.1-3.3,3.2-4.3c1.1-0.5,2.5-0.9,4.1-1.1
		c0.3,0,0.9-0.1,1.7-0.1v-0.7c0-1.8-0.1-2.8-0.1-3.1c-0.2-1-0.9-1.5-2.3-1.5c-0.8,0-1.4,0.1-1.8,0.4c-0.2,0.2-0.4,0.3-0.4,0.6
		c0,0.1,0.1,0.3,0.3,0.6c0.3,0.4,0.4,0.9,0.4,1.3c0,0.6-0.2,1-0.6,1.4c-0.4,0.4-0.9,0.6-1.4,0.6c-0.6,0-1-0.2-1.4-0.6
		c-0.3-0.4-0.5-0.9-0.5-1.5c0-0.8,0.4-1.6,1.2-2.2c1.2-1,2.8-1.4,4.8-1.4c2.3,0,4,0.5,5.1,1.6c0.4,0.4,0.7,0.9,0.8,1.5
		c0.1,0.4,0.1,1.1,0.1,2.3v6.5c0,0.7,0.1,1.1,0.3,1.3c0.2,0.1,0.3,0.2,0.5,0.2C-187.5,522.9-187.1,522.7-186.8,522.4z M-192.8,516.9
		c-1.2,0-2.2,0.2-2.9,0.5c-1.4,0.5-2,1.5-2,2.9c0,0.8,0.2,1.5,0.7,2c0.5,0.5,1,0.7,1.7,0.7c1.7,0,2.5-1.2,2.5-3.6l0-0.6V516.9z"/>
	<path d="M-180.3,523.8v-22.6h-2.4v-1h1.1c2.5,0,4.4-0.2,5.8-0.4v12.5c1.2-1.7,2.9-2.6,5-2.6c2.1,0,3.9,0.8,5.2,2.4
		c0.6,0.8,1.1,1.7,1.4,2.8c0.3,0.8,0.4,1.7,0.4,2.5c0,1.6-0.4,3.1-1.2,4.5c-0.7,1.2-1.6,2.1-2.8,2.6c-1,0.4-1.9,0.7-2.9,0.7
		c-2,0-3.7-0.9-5-2.6v2.2h-6.9v-0.9H-180.3z M-171.5,510.8c-0.6,0-1.3,0.2-2,0.7c-1.7,1-2.5,3-2.5,6c0,2.1,0.5,3.7,1.4,4.9
		c0.8,1,1.9,1.6,3,1.6c1,0,1.7-0.4,2.2-1.1c0.5-0.8,0.7-2.8,0.7-6.2c0-2.4-0.2-4-0.7-4.7C-169.9,511.2-170.6,510.8-171.5,510.8z"/>
	<path d="M-145.4,520.5l0.9,0.5c-0.4,0.9-1,1.8-1.9,2.6c-1.1,1.1-2.8,1.7-4.9,1.7c-2.2,0-3.9-0.7-5.3-2c-1.5-1.4-2.3-3.2-2.3-5.4
		c0-2.1,0.6-3.9,1.9-5.3c0.7-0.9,1.7-1.5,2.8-2c1.1-0.4,2.2-0.7,3.4-0.7c1.8,0,3.3,0.5,4.4,1.4c0.9,0.7,1.3,1.5,1.3,2.6
		c0,0.7-0.2,1.2-0.7,1.6c-0.5,0.4-1,0.7-1.8,0.7c-0.7,0-1.3-0.2-1.7-0.7c-0.4-0.4-0.5-0.9-0.5-1.5c0-0.8,0.5-1.6,1.4-2.3
		c-0.7-0.5-1.4-0.7-2.2-0.7c-1.4,0-2.3,0.6-2.9,1.8c-0.4,0.9-0.6,2.4-0.6,4.6c0,2.8,0.3,4.6,0.9,5.5c0.6,1,1.5,1.4,2.6,1.4
		c1.4,0,2.6-0.6,3.6-1.7C-146.5,522-146,521.3-145.4,520.5z"/>
	<path d="M-129.1,524.7v-2.2c-1.1,1.7-2.5,2.6-4.4,2.6c-1.5,0-2.8-0.5-3.9-1.4c-0.9-0.7-1.6-1.5-2.1-2.6c-0.5-1.1-0.8-2.3-0.8-3.6
		c0-2.2,0.7-4.1,2.1-5.7c1.3-1.4,2.8-2.1,4.6-2.1c1.2,0,2.3,0.3,3.2,1c0.3,0.2,0.8,0.6,1.3,1.2v-10.9h-2.3v-1h1
		c2.2,0,4.1-0.1,5.8-0.3v24h2.3v0.9H-129.1z M-132.6,510.9c-0.8,0-1.5,0.4-2,1.2c-0.6,0.9-0.9,2.5-0.9,4.8c0,1.6,0.1,3,0.4,4.3
		c0.2,1.2,0.6,2,1.1,2.3c0.4,0.3,0.8,0.4,1.3,0.4c0.7,0,1.5-0.3,2.2-1c0.5-0.5,0.9-1.1,1.1-1.8c0.3-0.9,0.4-2,0.4-3.6
		c0-2.5-0.3-4.1-0.9-5c-0.4-0.6-0.9-1-1.5-1.3C-131.8,511-132.2,510.9-132.6,510.9z"/>
	<path d="M-102.9,516.5h-10v1.8c0,1.2,0,2,0.1,2.5c0.2,1,0.6,1.8,1.2,2.4c0.6,0.5,1.3,0.8,2.2,0.8c1.4,0,2.7-0.6,3.8-1.7
		c0.5-0.5,1-1.2,1.6-2.1l0.9,0.4c-0.4,1-1.1,1.9-2,2.8c-0.6,0.5-1.2,1-2.1,1.2c-0.9,0.3-1.7,0.5-2.6,0.5c-1.3,0-2.5-0.3-3.8-0.9
		c-1.7-0.8-3-2.1-3.6-3.9c-0.4-0.9-0.6-1.9-0.6-3c0-2.4,0.8-4.3,2.5-5.8c0.9-0.8,1.9-1.3,3.2-1.7c0.7-0.2,1.4-0.3,2.1-0.3
		c1.5,0,2.8,0.4,4,1.2c1.3,0.8,2.2,2.1,2.7,3.9C-103.1,515.3-103,515.9-102.9,516.5z M-112.8,515.5h5.3c0-1.3,0-2.2-0.1-2.7
		c-0.1-0.8-0.3-1.3-0.7-1.7c-0.4-0.3-0.9-0.5-1.7-0.5c-1.1,0-1.8,0.3-2.2,0.9c-0.3,0.5-0.5,1.2-0.5,2.3
		C-112.8,513.9-112.8,514.5-112.8,515.5z"/>
	<path d="M-95.8,523.8v-12.7h-2.6v-0.9h2.6v-1.2c0-2.5,0.5-4.5,1.4-5.8c0.8-1.1,1.9-2,3.2-2.6c0.8-0.4,1.6-0.5,2.3-0.5
		c0.8,0,1.5,0.2,2.2,0.7c0.8,0.6,1.2,1.3,1.2,2.1c0,0.6-0.2,1-0.5,1.4c-0.4,0.4-0.8,0.6-1.4,0.6c-0.5,0-0.9-0.1-1.3-0.4
		c-0.4-0.3-0.6-0.8-0.6-1.2c0-0.4,0.2-0.8,0.5-1.2c0.2-0.2,0.3-0.4,0.3-0.5c0-0.1-0.1-0.3-0.3-0.4c-0.2-0.1-0.4-0.2-0.7-0.2
		c-0.6,0-1.1,0.3-1.5,0.8c-0.3,0.4-0.5,1.2-0.5,2.5v6h3.3v0.9h-3.3v12.7h2.8v0.9h-9.7v-0.9H-95.8z"/>
	<path d="M-78.8,520c-0.7,0.2-1.2,0.5-1.7,0.9c-0.5,0.4-0.8,0.9-0.8,1.4c0,0.7,0.6,1.1,1.8,1.1h0.4l3.1,0l3.5,0c1.3,0,2.3,0.2,3,0.5
		c0.9,0.4,1.5,1.1,1.9,2c0.3,0.7,0.5,1.5,0.5,2.3c0,2-0.8,3.7-2.4,4.9c-1.5,1.1-3.5,1.7-6.1,1.7c-2.5,0-4.5-0.6-6-1.7
		c-1-0.8-1.5-1.7-1.5-2.7c0-1.5,0.9-2.5,2.8-3c-0.7-0.1-1.3-0.4-1.7-0.8c-0.8-0.7-1.1-1.6-1.1-2.7c0-1.4,0.6-2.5,1.7-3.5
		c0.6-0.5,1.2-0.8,1.8-1c-1.6-1.1-2.4-2.6-2.4-4.2c0-1,0.3-2,0.9-2.9c0.6-1,1.6-1.7,2.8-2.2c0.9-0.4,1.9-0.5,2.9-0.5
		c2,0,3.7,0.7,5.1,2c0.6-1.5,1.4-2.2,2.4-2.2c0.4,0,0.8,0.2,1.1,0.5c0.3,0.3,0.5,0.7,0.5,1.3c0,0.4-0.1,0.8-0.4,1
		c-0.3,0.3-0.6,0.5-1,0.5c-0.5,0-0.9-0.2-1.3-0.6c-0.1-0.1-0.2-0.2-0.3-0.2c-0.3,0-0.4,0.2-0.4,0.7c0.5,0.8,0.8,1.7,0.8,2.7
		c0,1-0.3,1.9-0.8,2.8c-0.6,1-1.5,1.7-2.8,2.2c-0.9,0.3-1.8,0.5-2.8,0.5C-76.5,520.8-77.7,520.6-78.8,520z M-79.6,527.7
		c-0.8,0.7-1.2,1.5-1.2,2.4c0,1,0.5,1.9,1.4,2.6c0.9,0.7,2.2,1,3.8,1c2.5,0,4.4-0.6,5.6-1.9c0.7-0.7,1-1.4,1-2.2
		c0-1.3-0.7-1.9-2-1.9H-79.6z M-75.5,510.6c-1,0-1.6,0.4-2,1.2c-0.2,0.6-0.4,1.5-0.4,3c0,2.2,0.1,3.5,0.4,4c0.4,0.7,1.1,1.1,2,1.1
		c1,0,1.7-0.4,2-1.3c0.2-0.5,0.3-1.3,0.3-2.3c0-0.1,0-0.3,0-0.7c0-0.5,0-0.9,0-1.2c0-1.2-0.1-2-0.2-2.4
		C-73.8,511-74.5,510.6-75.5,510.6z"/>
	<path d="M-59.8,523.8v-22.7h-2.5v-0.9h1.2c2.2,0,4-0.1,5.6-0.4v12.8c1.6-2,3.5-3,5.8-3c1.6,0,2.9,0.4,3.6,1.2
		c0.5,0.5,0.8,1.1,0.9,1.9c0.1,0.5,0.1,1.2,0.1,1.9v9.1h2.3v0.9h-8.6v-0.9h1.9v-9.1c0-1.1,0-1.8-0.1-2.1c-0.2-0.9-0.9-1.3-1.9-1.3
		c-0.7,0-1.4,0.2-2.1,0.7c-0.9,0.7-1.5,1.6-1.7,2.8c-0.1,0.7-0.2,1.5-0.2,2.7v6.4h2.1v0.9h-8.9v-0.9H-59.8z"/>
	<path d="M-35.9,523.8v-12.7h-2.3v-0.9h1c2.1,0,4.1-0.1,5.8-0.3v14h2.2v0.9h-9v-0.9H-35.9z M-34.1,501.2c0.7,0,1.3,0.2,1.8,0.7
		c0.5,0.5,0.7,1.1,0.7,1.8c0,0.7-0.2,1.3-0.7,1.8c-0.5,0.5-1.1,0.8-1.8,0.8c-0.7,0-1.3-0.2-1.8-0.7c-0.5-0.5-0.7-1.1-0.7-1.8
		c0-0.7,0.2-1.3,0.7-1.8C-35.4,501.4-34.8,501.2-34.1,501.2z"/>
	<path d="M-23.4,511.5h-2.4v-0.9h1.1c2.3,0,4.3-0.1,5.8-0.4V524c0,1.9-0.1,3.2-0.3,4.1c-0.4,2-1.2,3.7-2.5,5.1c-1,1-2.2,1.5-3.6,1.5
		c-1,0-1.8-0.2-2.4-0.7c-0.6-0.5-0.9-1.1-0.9-1.8c0-0.6,0.2-1,0.6-1.4c0.4-0.3,0.8-0.5,1.2-0.5c0.5,0,0.9,0.2,1.2,0.5
		c0.4,0.3,0.6,0.8,0.6,1.3c0,0.3-0.1,0.6-0.3,1c-0.1,0.2-0.1,0.3-0.1,0.3c0,0.3,0.2,0.4,0.7,0.4c0.5,0,0.8-0.2,1-0.7
		c0.2-0.4,0.3-1.4,0.3-3V511.5z M-21.2,501.6c0.7,0,1.3,0.2,1.8,0.7c0.5,0.5,0.8,1.1,0.8,1.8c0,0.7-0.3,1.3-0.8,1.8
		c-0.5,0.5-1.1,0.8-1.8,0.8c-0.7,0-1.3-0.2-1.8-0.7c-0.5-0.5-0.7-1.1-0.7-1.8c0-0.7,0.2-1.3,0.7-1.8
		C-22.5,501.9-21.9,501.6-21.2,501.6z"/>
	<path d="M-10.8,523.8v-22.6h-2.5v-1h1.2c2.2,0,4.1-0.1,5.8-0.3v23.9h2.1v0.9H-13v-0.9H-10.8z M-2.3,514.8l6.7,9H6v0.9h-9v-0.9h2
		l-5-6.9l4.6-4.4c0.5-0.5,0.8-0.8,0.8-1.1c0-0.2-0.1-0.3-0.2-0.4c-0.1,0-0.4-0.1-0.9-0.1h-1.6v-0.9h7.3v0.9H3.1
		c-0.6,0-1.1,0.1-1.5,0.3s-1,0.6-1.6,1.2L-2.3,514.8z"/>
	<path d="M12.6,523.8v-22.5h-2.5v-1h1.2c2.5,0,4.4-0.2,5.8-0.4v24h2.2v0.9h-9.1v-0.9H12.6z"/>
	<path d="M26.2,523.8v-12.7h-2.3v-0.9h1c2.5,0,4.4-0.2,5.8-0.4v2.6c1.3-1.8,2.9-2.7,5-2.7c1.6,0,2.8,0.5,3.8,1.4
		c0.3,0.3,0.7,0.8,1.1,1.6c1.2-1.9,2.9-2.9,5.1-2.9c1.7,0,3,0.4,3.8,1.2c0.5,0.5,0.8,1.1,0.9,1.8c0.1,0.6,0.1,1.3,0.1,2.1v9h2.2v0.9
		H44v-0.9h2v-9c0-1.4-0.1-2.4-0.4-2.8c-0.3-0.5-0.9-0.7-1.6-0.7c-1.1,0-2,0.5-2.8,1.6c-0.6,0.8-0.9,2.1-0.9,3.8v7.1h2.1v0.9h-8.2
		v-0.9h1.9v-9c0-1.1,0-1.8-0.1-2c-0.2-1-0.9-1.5-1.9-1.5c-0.8,0-1.6,0.3-2.3,1c-0.5,0.5-0.9,1.2-1.1,2c-0.1,0.5-0.2,1.3-0.2,2.4v7.1
		h2.1v0.9h-8.8v-0.9H26.2z"/>
</g>
<g class="st1">
	<path d="M-199.4,568.2v-12.7h-2.4v-1h1c1.8,0,3.7-0.1,5.8-0.4v2.7c0.6-0.7,1.2-1.3,1.8-1.7c1.1-0.7,2.3-1,3.7-1
		c1.6,0,2.8,0.4,3.7,1.2c0.6,0.5,0.9,1.1,1,1.8c0.1,0.5,0.1,1.1,0.1,1.9v9.2h2.3v0.9h-8.7v-0.9h2v-9.2c0-1-0.1-1.7-0.2-2.1
		c-0.3-0.8-0.9-1.2-1.8-1.2c-0.9,0-1.7,0.4-2.5,1.1c-0.6,0.6-1.1,1.3-1.2,2.1c-0.1,0.4-0.1,1.1-0.1,2.1v7.1h2.2v0.9h-9v-0.9H-199.4z
		"/>
	<path d="M-169.2,554c2.3,0,4.2,0.7,5.7,2c0.7,0.7,1.3,1.5,1.8,2.4c0.5,1.1,0.7,2.2,0.7,3.5c0,2.3-0.8,4.2-2.5,5.6
		c-1.6,1.3-3.5,2-5.9,2c-2.2,0-4.1-0.7-5.6-2.1c-1.7-1.5-2.6-3.4-2.6-5.6c0-1.6,0.4-3,1.3-4.4C-174.8,555.1-172.4,554-169.2,554z
		 M-169.3,554.9c-0.7,0-1.4,0.2-2,0.6c-0.7,0.5-1.1,1.3-1.3,2.4c-0.1,0.9-0.2,2.1-0.2,3.6c0,1.8,0.1,3.2,0.3,4.2
		c0.2,0.9,0.6,1.7,1.3,2.3c0.6,0.5,1.3,0.7,2,0.7c0.7,0,1.3-0.2,1.9-0.6c0.7-0.5,1.1-1.3,1.2-2.3c0.1-0.9,0.2-2.2,0.2-4
		c0-2.9-0.2-4.7-0.7-5.5C-167.1,555.4-168,554.9-169.3,554.9z"/>
	<path d="M-153.9,578.3v-22.9h-2.3v-0.9h1c2.4,0,4.3-0.1,5.8-0.4v2.5c0.5-0.7,1-1.2,1.5-1.5c0.9-0.7,1.9-1,3.1-1
		c1.2,0,2.4,0.4,3.5,1.1c1.2,0.8,2,1.8,2.6,3.2c0.4,1,0.7,2.2,0.7,3.4c0,2.3-0.7,4.2-2.1,5.7c-1.3,1.3-2.9,2-4.7,2
		c-1.7,0-3.2-0.8-4.5-2.5v11.3h2.8v1.1h-9.5v-1.1H-153.9z M-146,555.4c-0.9,0-1.7,0.5-2.4,1.4c-0.9,1.2-1.3,2.9-1.3,5
		c0,2.4,0.6,4.2,1.7,5.4c0.7,0.7,1.4,1.1,2.2,1.1c1,0,1.7-0.5,2.1-1.5c0.4-0.9,0.7-2.5,0.7-4.8c0-2.7-0.3-4.5-0.9-5.5
		C-144.3,555.8-145,555.4-146,555.4z"/>
	<path d="M-122,578.2v-11.4c-0.6,0.8-1.2,1.4-1.6,1.8c-0.9,0.6-1.9,0.9-3.1,0.9c-1.7,0-3.1-0.6-4.2-1.8c-0.7-0.8-1.3-1.6-1.7-2.7
		c-0.4-1.1-0.7-2.3-0.7-3.4c0-2.2,0.7-4.1,2.2-5.6c1.3-1.3,2.8-2,4.5-2c1.2,0,2.3,0.3,3.1,1c0.3,0.3,0.8,0.7,1.3,1.4v-2.4
		c0.9,0.1,2,0.2,3.2,0.3c2,0,3.2,0.1,3.5,0.1v1h-2.3v22.7h2.2v1h-9.4v-0.9H-122z M-125.6,555.2c-1,0-1.7,0.5-2.2,1.6
		c-0.5,1-0.7,2.8-0.7,5.4c0,4,1,6.1,3,6.1c0.7,0,1.3-0.3,1.9-0.8c1.2-1,1.8-3,1.8-6c0-2.1-0.4-3.8-1.2-4.8
		C-123.7,555.7-124.6,555.2-125.6,555.2z"/>
	<path d="M-108.2,568.2v-12.7h-2.4v-1h0.9c2.1,0,4.1-0.1,5.9-0.3v2.9c1.1-2,2.6-3,4.3-3c0.8,0,1.5,0.2,2.1,0.7c0.7,0.6,1,1.3,1,2.2
		c0,0.7-0.3,1.4-0.8,1.8c-0.4,0.4-1,0.6-1.6,0.6c-0.7,0-1.3-0.2-1.7-0.7c-0.3-0.4-0.5-0.8-0.5-1.3c0-0.5,0.2-1,0.5-1.4
		c0.1-0.2,0.2-0.3,0.2-0.4c0-0.2-0.1-0.3-0.3-0.3c-0.5,0-1.2,0.5-1.8,1.5c-0.4,0.6-0.7,1.3-1,2c-0.2,0.6-0.3,1.6-0.3,2.8v6.5h2.9
		v0.9h-9.7v-0.9H-108.2z"/>
	<path d="M-91.9,569.1v-5.3h1c0.2,1.4,0.6,2.4,1.2,3.1c1,1.2,2.2,1.8,3.7,1.8c0.8,0,1.5-0.2,2-0.6c0.6-0.4,0.9-1,0.9-1.7
		c0-0.6-0.3-1.1-0.8-1.5c-0.4-0.3-1.3-0.6-2.8-1c-1.7-0.5-2.9-1-3.7-1.7c-0.9-0.8-1.4-1.9-1.4-3.3c0-1.4,0.5-2.6,1.4-3.5
		c0.8-0.8,1.9-1.2,3.3-1.2c0.6,0,1.2,0.1,1.7,0.2c0.2,0.1,0.6,0.2,1.2,0.5c0.3,0.1,0.5,0.2,0.7,0.2c0.4,0,0.6-0.4,0.6-1.1h1v4.5h-1
		c-0.1-0.4-0.2-0.7-0.3-1c-0.2-0.7-0.8-1.3-1.5-1.8c-0.7-0.4-1.5-0.6-2.3-0.6c-0.6,0-1.1,0.2-1.6,0.5c-0.5,0.4-0.8,0.9-0.8,1.6
		c0,0.6,0.2,1,0.6,1.4c0.2,0.2,0.6,0.4,0.9,0.5c0.5,0.2,1.2,0.4,2,0.6c1.6,0.5,2.8,0.9,3.5,1.5c0.5,0.3,0.8,0.8,1.1,1.4
		c0.3,0.6,0.4,1.1,0.4,1.7c0,0.9-0.3,1.9-0.8,2.8c-0.5,1-1.3,1.6-2.2,2.1c-0.8,0.3-1.6,0.5-2.5,0.5c-0.7,0-1.3-0.1-2-0.3
		c-0.2-0.1-0.7-0.3-1.7-0.8c-0.3-0.1-0.5-0.2-0.6-0.2c-0.3,0-0.5,0.3-0.5,0.9H-91.9z"/>
	<path d="M-74,555.6h-2.4V555c1.2-0.5,2.5-1.5,3.8-2.9c1-1.2,1.7-2.3,2.1-3.4h1v5.9h3v1h-3v10.2c0,1.3,0.4,1.9,1.2,1.9
		c0.6,0,1.1-0.3,1.5-1c0.1-0.3,0.3-0.8,0.5-1.5l1,0.2c-0.3,1.1-0.6,1.9-1,2.4c-0.5,0.7-1.1,1.2-2,1.5c-0.6,0.2-1.2,0.3-1.9,0.3
		c-2.5,0-3.7-1.3-3.7-3.8V555.6z"/>
	<path d="M-49.5,569.1v-2.2c-0.7,0.8-1.3,1.3-1.8,1.7c-1.1,0.7-2.3,1-3.7,1c-1.6,0-2.8-0.4-3.5-1.3c-0.4-0.5-0.6-1.1-0.7-1.8
		c-0.1-0.7-0.1-1.4-0.1-2.2v-8.7h-2.3v-0.9h1c2.5,0,4.4-0.1,5.8-0.2V565c0,1.1,0.1,1.8,0.4,2.2c0.3,0.4,0.8,0.7,1.3,0.7
		c0.8,0,1.5-0.3,2.2-0.9c0.7-0.5,1.1-1.2,1.3-2.1c0.1-0.5,0.2-1.2,0.2-2.2v-7.3H-52v-0.9h1.1c2.5,0,4.4-0.1,5.8-0.2v13.8h2.4v0.9
		H-49.5z"/>
	<path d="M-33.3,555.5l4,9.1l3.1-7.6c0.2-0.5,0.3-0.8,0.3-0.9c0-0.4-0.4-0.6-1.2-0.6h-1.4v-0.9h6.2v0.9H-23c-0.6,0-1,0.1-1.2,0.2
		c-0.3,0.1-0.6,0.7-1,1.6l-5,12.5h-1l-6.6-14.3h-1.7v-0.9h8.6v0.9H-33.3z"/>
	<path d="M-13.5,555.5l3.2,8.1l3.6-9.1h1.1l3.7,9.1l2.5-6.8c0.2-0.5,0.3-0.8,0.3-0.9c0-0.3-0.3-0.5-0.9-0.5h-1.5v-0.9h6.3v0.9H3.7
		c-0.7,0-1.3,0.1-1.6,0.4c-0.2,0.2-0.4,0.6-0.7,1.3l-4.6,12.5h-0.9l-4-9.3l-3.6,9.3h-0.9l-5.7-14.2H-20v-0.9h8.9v0.9H-13.5z"/>
	<path d="M6.9,569.1v-0.9H8c0.6,0,1.1-0.1,1.5-0.3c0.3-0.2,0.8-0.6,1.4-1.3l3.3-3.7l-5.6-7.4H6.9v-0.9H16v0.9h-2.2l3.2,4.2l2.7-3.2
		c0.3-0.3,0.5-0.6,0.5-0.7c0-0.1-0.1-0.2-0.2-0.3c-0.1,0-0.4-0.1-0.9-0.1h-1v-0.9h6.2v0.9h-0.7c-0.6,0-1.1,0.1-1.4,0.2
		c-0.3,0.1-0.7,0.4-1.1,0.9l-3.5,3.9l5.7,7.8h1.6v0.9H16v-0.9h2.1l-3.3-4.6l-2.9,3.2c-0.5,0.6-0.8,1-0.8,1.2c0,0.2,0.2,0.3,0.6,0.3
		h1.5v0.9H6.9z"/>
	<path d="M27.4,555.5v-0.9H36v0.9h-1.8l3.6,8.4l2.7-6.7c0.2-0.5,0.3-0.9,0.3-1.1c0-0.2-0.1-0.4-0.3-0.5c-0.1-0.1-0.4-0.1-0.9-0.1
		h-1.2v-0.9h6.3v0.9H44c-0.7,0-1.2,0.1-1.5,0.3c-0.3,0.2-0.5,0.6-0.8,1.2l-7.1,17.3c-0.8,1.9-1.4,3.1-1.9,3.6
		c-0.7,0.8-1.5,1.2-2.4,1.2c-0.7,0-1.2-0.2-1.6-0.6c-0.5-0.4-0.8-1-0.8-1.7c0-0.6,0.2-1.1,0.6-1.5c0.4-0.4,0.8-0.6,1.3-0.6
		c0.8,0,1.4,0.4,1.9,1.3c0.1,0.2,0.3,0.4,0.5,0.4c0.2,0,0.4-0.2,0.7-0.6c0.2-0.4,0.6-1.1,1-2.2l1.7-4.4l-6.3-13.9H27.4z"/>
	<path d="M61.9,554.5v0.9l-8.6,12.7h2.1c1.1,0,1.9-0.1,2.5-0.3c1.7-0.7,2.8-2.3,3.4-4.8h0.9l-0.4,6.1H48.3v-0.7l8.5-12.9h-1.5
		c-1.1,0-1.9,0.1-2.4,0.2c-1.1,0.4-1.8,1.1-2.3,2c-0.3,0.7-0.5,1.4-0.7,2.3h-0.9l0.2-5.5H61.9z"/>
</g>
<g class="st1">
	<path class="st3" d="M-166.3,625.5v-21.6h-3.9v-1h0.9h2.2c2.2,0,4.1-0.2,5.6-0.7v23.3h3.4v0.9h-12.2v-0.9H-166.3z"/>
	<path class="st3" d="M-136.4,618.7l-0.4,7.7h-14.9v-2.8c3.3-2.9,5.6-5.2,6.9-6.7c1.3-1.5,2.1-2.8,2.5-4c0.4-1,0.6-2.2,0.6-3.5
		c0-1.9-0.5-3.4-1.4-4.4c-0.7-0.8-1.6-1.1-2.6-1.1c-1.2,0-2.2,0.5-3.1,1.5c-0.6,0.7-0.9,1.3-0.9,1.8c0,0.1,0.1,0.2,0.2,0.3
		c0.2,0.1,0.6,0.1,1.2,0.1c0.7,0,1.2,0.2,1.5,0.5c0.5,0.4,0.7,1,0.7,1.8c0,0.6-0.2,1.2-0.5,1.6c-0.4,0.5-1,0.8-1.8,0.8
		c-0.9,0-1.6-0.3-2-0.9c-0.5-0.7-0.7-1.5-0.7-2.5c0-1.3,0.4-2.4,1.2-3.5c0.8-1,1.9-1.8,3.3-2.3c1-0.4,2.1-0.6,3.1-0.6
		c2.3,0,4,0.7,5.4,2.2c1.1,1.2,1.6,2.5,1.6,4.1c0,1.5-0.6,3-1.7,4.4c-1.5,2-3.6,4-6.3,6c-2.1,1.6-3.5,2.7-4.2,3.2h9.3
		c0.7,0,1.2-0.1,1.4-0.4c0.2-0.2,0.4-0.7,0.5-1.4c0-0.4,0.1-1,0.2-1.7H-136.4z"/>
	<path class="st3" d="M-126.8,614v-1c0.4,0,0.7,0,0.8,0c1.8,0,3-0.3,3.7-0.8c1.1-0.8,1.6-2.4,1.6-4.7c0-2.8-1-4.2-3.1-4.2
		c-0.8,0-1.4,0.2-1.9,0.5c-0.2,0.2-0.3,0.4-0.3,0.6c0,0.2,0.3,0.5,0.8,1c0.5,0.5,0.8,1,0.8,1.6c0,0.7-0.2,1.2-0.6,1.6
		c-0.4,0.4-0.9,0.6-1.6,0.6c-0.7,0-1.2-0.2-1.6-0.7c-0.4-0.4-0.6-1-0.6-1.7c0-1.2,0.5-2.2,1.4-2.9c1.2-1,2.9-1.5,4.9-1.5
		c1.7,0,3.1,0.4,4.3,1.1c0.7,0.4,1.3,1,1.7,1.7c0.5,0.8,0.7,1.6,0.7,2.5c0,1.1-0.4,2.1-1.2,3.1c-0.9,1.1-2,1.8-3.3,2.3
		c-0.4,0.1-1,0.3-1.8,0.5c2.2,0.2,3.7,0.6,4.6,1.1c1.9,1.1,2.8,2.8,2.8,5c0,1.6-0.5,3-1.5,4.2c-1.7,2-4.1,3-7.3,3
		c-2.3,0-4-0.6-5.1-1.8c-0.9-1-1.4-2.1-1.4-3.3c0-0.9,0.2-1.6,0.7-2c0.5-0.4,1-0.7,1.7-0.7c0.7,0,1.3,0.3,1.7,0.8
		c0.4,0.5,0.6,1.1,0.6,1.8c0,0.5-0.1,1-0.4,1.3c-0.1,0.2-0.5,0.5-1.1,0.9c-0.2,0.2-0.3,0.3-0.3,0.5c0,0.2,0.1,0.3,0.2,0.5
		c0.6,0.6,1.4,0.9,2.5,0.9c1.2,0,2.1-0.4,2.9-1.2c1-1,1.4-2.6,1.4-4.8c0-2.3-0.6-3.9-1.8-4.8c-0.5-0.4-1.2-0.7-2-0.8
		c-0.6-0.1-1.3-0.1-2-0.1C-126.2,614.1-126.5,614-126.8,614z"/>
	<path class="st3" d="M-100.7,620.1h-8.3V619l10.3-16.4h2.8V619h1.8c0.7,0,1.2-0.1,1.4-0.4c0.2-0.2,0.2-0.7,0.2-1.3v-0.8h1v6.3h-1
		v-1.2c0-0.6-0.1-1-0.3-1.3c-0.1-0.1-0.3-0.2-0.5-0.2c-0.1,0-0.4,0-0.8,0H-96v5.4h2.7v0.9h-10.1v-0.9h2.7V620.1z M-100.7,619v-11.4
		l-7.1,11.4H-100.7z"/>
	<path class="st3" d="M-83.5,606.9l-0.4,5.8c1.2-0.7,2.6-1.1,4.3-1.1c1.8,0,3.5,0.4,4.9,1.2c1.4,0.8,2.4,1.9,3,3.3
		c0.4,0.9,0.6,1.9,0.6,2.9c0,2.1-0.8,3.9-2.4,5.4c-1.7,1.5-3.8,2.3-6.4,2.3c-1.9,0-3.5-0.5-4.7-1.4c-1.2-0.9-1.7-2-1.7-3.3
		c0-0.9,0.2-1.6,0.7-2.1s1.1-0.8,1.8-0.8c0.6,0,1.2,0.2,1.7,0.7c0.5,0.5,0.8,1.1,0.8,1.8c0,1-0.5,1.8-1.5,2.3
		c-0.3,0.2-0.5,0.3-0.5,0.5c0,0.2,0.2,0.5,0.7,0.8c0.6,0.3,1.3,0.5,2.2,0.5c1,0,1.8-0.3,2.5-0.9c1.3-1.1,2-2.8,2-5.1
		s-0.5-4.1-1.6-5.4c-0.8-1-1.8-1.5-3.1-1.5c-1,0-2.1,0.4-3.2,1.1l-1.2-0.6l0.5-8.7c0.1-0.9,0.3-1.5,0.6-1.8c0.3-0.2,0.8-0.4,1.5-0.4
		h7.6c0.5,0,0.9-0.2,1.2-0.5c0.2-0.2,0.2-0.4,0.3-0.6h1c0,0.2,0,0.4,0,0.5c0,1.7-0.3,2.9-0.8,3.8c-0.3,0.5-0.7,0.8-1.2,1
		c-0.2,0-0.6,0.1-1.2,0.1L-83.5,606.9z"/>
	<path class="st3" d="M-51.5,601.9v0.8c-2.5,0.5-4.5,1.7-5.9,3.4c-1,1.3-1.7,3-2,5c-0.1,0.5-0.2,1-0.2,1.5c0.5-0.5,1-0.8,1.4-1.1
		c0.8-0.5,1.7-0.7,2.7-0.7c2,0,3.5,0.8,4.7,2.4c1,1.3,1.5,3,1.5,5c0,2.3-0.7,4.3-2,5.9c-1.4,1.8-3.3,2.7-5.7,2.7
		c-2.4,0-4.3-0.9-5.7-2.7c-1.6-2-2.3-4.5-2.3-7.5c0-3.1,0.9-5.9,2.6-8.5c1.8-2.7,4.1-4.5,7-5.5C-54.4,602.3-53.1,602-51.5,601.9z
		 M-56.7,612.1c-0.7,0-1.4,0.3-2,0.9c-0.7,0.6-1.1,1.5-1.3,2.7c-0.2,0.9-0.3,2-0.3,3.5c0,2.1,0.2,3.6,0.6,4.7
		c0.2,0.7,0.7,1.2,1.3,1.6c0.4,0.3,0.8,0.4,1.4,0.4c1.4,0,2.4-0.8,2.8-2.5c0.3-1.1,0.4-2.6,0.4-4.5c0-2.3-0.2-3.9-0.6-5
		C-54.8,612.6-55.6,612.1-56.7,612.1z"/>
	<path class="st3" d="M-44.6,610.5l2.1-7.9h11.5c0.7,0,1.1,0.1,1.3,0.2c0.2,0.1,0.4,0.3,0.4,0.7c0,0.2-0.2,0.7-0.6,1.5
		c-1.6,3.1-2.8,5.8-3.8,8.1c-0.9,2.3-1.4,4.5-1.4,6.7c0,0.5,0,1.3,0.1,2.4c0.1,0.9,0.1,1.6,0.1,2c0,0.9-0.3,1.7-0.8,2.2
		c-0.4,0.4-0.9,0.7-1.6,0.7c-0.8,0-1.4-0.3-1.8-0.8c-0.4-0.5-0.7-1.2-0.7-2c0-2.6,2.5-8.3,7.6-17.2h-8.2c-1,0-1.7,0.1-2,0.4
		c-0.3,0.2-0.6,0.8-0.9,1.8l-0.4,1.5H-44.6z"/>
	<path class="st3" d="M-14.3,614c1.4,0.4,2.5,0.9,3.3,1.5c0.9,0.7,1.5,1.5,2,2.5c0.4,0.8,0.5,1.5,0.5,2.3c0,1.2-0.4,2.4-1.3,3.6
		c-0.8,1-1.9,1.8-3.4,2.3c-1.2,0.4-2.3,0.6-3.5,0.6c-2.1,0-3.9-0.6-5.6-1.7c-0.8-0.6-1.5-1.3-1.9-2.2c-0.4-0.8-0.7-1.7-0.7-2.6
		c0-1.9,0.9-3.4,2.6-4.7c0.8-0.6,1.9-1.2,3.2-1.6c-1.1-0.4-2-0.8-2.7-1.4c-1.5-1.2-2.3-2.6-2.3-4.3c0-1.7,0.7-3.1,2.2-4.3
		c1.4-1.1,3.1-1.7,5.1-1.7c2,0,3.7,0.6,5.1,1.7c1.5,1.2,2.2,2.7,2.2,4.4C-9.5,610.8-11.1,612.7-14.3,614z M-16.7,614.6
		c-1.1,0-1.9,0.5-2.4,1.4c-0.5,0.8-0.7,2.3-0.7,4.5c0,2.2,0.3,3.6,0.9,4.4c0.5,0.7,1.3,1,2.3,1c1.1,0,1.9-0.4,2.4-1.2
		c0.5-0.8,0.7-2.2,0.7-4.2c0-2.3-0.3-3.9-0.8-4.7C-15,614.9-15.7,614.6-16.7,614.6z M-16.8,603.2c-1,0-1.7,0.5-2.1,1.4
		c-0.3,0.7-0.4,2.1-0.4,4.2c0,1.6,0.2,2.8,0.6,3.5c0.5,0.8,1.2,1.2,2.1,1.2c1,0,1.6-0.4,2-1.3c0.3-0.6,0.4-1.8,0.4-3.6
		c0-2.1-0.2-3.5-0.5-4.2C-15.1,603.6-15.8,603.2-16.8,603.2z"/>
	<path class="st3" d="M-1.6,628v-1c1.5-0.3,2.7-0.6,3.5-1c1.7-0.8,3.1-2.4,4.2-4.7c0.6-1.4,1-2.9,1.2-4.6c-1.1,1.2-2.4,1.8-4,1.8
		c-1.5,0-2.9-0.6-4.1-1.7c-0.7-0.6-1.3-1.4-1.7-2.4c-0.5-1.2-0.8-2.3-0.8-3.5c0-2.2,0.8-4.1,2.3-5.8c1.5-1.7,3.3-2.6,5.3-2.6
		c1.6,0,3.1,0.6,4.6,1.8c1.4,1.1,2.4,2.7,3.1,4.6c0.5,1.4,0.7,2.7,0.7,4.2c0,2.7-0.9,5.3-2.6,7.9c-1.9,2.9-4.1,4.9-6.7,6
		C2,627.5,0.3,627.8-1.6,628z M4.4,603.5c-1,0-1.8,0.5-2.4,1.5c-0.5,0.8-0.7,2.6-0.7,5.2c0,2.6,0.2,4.5,0.7,5.5
		c0.5,1,1.2,1.5,2.2,1.5c1.1,0,2-0.5,2.5-1.4s0.9-2.6,0.9-4.9c0-2.9-0.2-4.7-0.6-5.7C6.5,604,5.6,603.5,4.4,603.5z"/>
	<path class="st3" d="M26.2,602.2c1.1,0,2.2,0.4,3.3,1.2c1.3,1,2.4,2.4,3.2,4.3c0.9,2.1,1.3,4.4,1.3,6.8c0,2.5-0.4,4.7-1.3,6.8
		c-0.8,1.8-1.9,3.3-3.2,4.3c-1,0.7-2.1,1.1-3.3,1.1c-2,0-3.7-1-5.3-3.1c-1.8-2.4-2.7-5.5-2.7-9.1c0-2.5,0.5-4.8,1.4-6.8
		c0.8-1.8,1.9-3.2,3.2-4.3C23.9,602.6,25,602.2,26.2,602.2z M26.2,603.2c-0.6,0-1.2,0.2-1.7,0.7c-0.5,0.5-0.9,1.6-1.1,3.4
		c-0.2,1.9-0.3,4.3-0.3,7c0,4.3,0.2,7.4,0.6,9.1c0.2,0.9,0.6,1.6,1,1.9s1,0.5,1.5,0.5c1.3,0,2.1-0.8,2.5-2.5
		c0.4-1.5,0.6-4.3,0.6-8.2c0-2.2-0.1-4.7-0.3-7.4c-0.1-1.6-0.4-2.8-0.8-3.4C27.8,603.5,27.1,603.2,26.2,603.2z"/>
</g>
<g class="st1">
	<path class="st3" d="M117.5,353.8l3,3.8c-1.8,2.3-3.8,4.2-6,5.6c-3.8,2.4-7.5,3.6-11,3.6c-3.5,0-6.8-1.3-9.9-3.9
		c-2.3-2-4.3-4.6-6-7.8C81,363.1,72.9,367,63.3,367c-5.8,0-10.5-1.7-14.2-5c-3.7-3.3-5.5-7.6-5.5-12.8c0-9.2,5.2-16.3,15.7-21.4
		c5.3-2.6,12.1-4.4,20.3-5.3c1.6-0.2,4.4-0.4,8.4-0.7v-3.6c-0.1-8.7-0.3-13.8-0.5-15.4c-0.8-5-4.5-7.5-11.2-7.5c-4,0-7,0.6-9,1.9
		c-1.2,0.8-1.8,1.7-1.8,2.8c0,0.7,0.4,1.7,1.3,3.1c1.4,2.1,2.1,4.2,2.1,6.2c0,2.8-1,5.2-3.1,6.9c-2.2,1.8-4.6,2.8-7.1,2.8
		c-2.8,0-5-0.9-6.8-2.8c-1.7-1.8-2.6-4.3-2.6-7.6c0-4,2-7.7,6.1-11c5.9-4.7,13.7-7,23.4-7c11.4,0,19.7,2.6,24.9,7.9
		c2.1,2.1,3.5,4.6,4,7.4c0.4,1.9,0.5,5.6,0.5,11.2v31.9c0,3.5,0.4,5.6,1.2,6.4c0.8,0.7,1.7,1.1,2.7,1.1
		C113.8,356.6,115.6,355.7,117.5,353.8z M87.7,326.7c-6.1,0.2-10.9,1-14.2,2.2c-6.7,2.4-10.1,7.2-10.1,14.4c0,4,1.2,7.3,3.6,9.7
		c2.3,2.4,5.2,3.6,8.5,3.6c8.2,0,12.3-6,12.3-18l-0.1-3V326.7z"/>
</g>
<g class="st1">
	<path d="M-245.7,290.2h-10.2l-1.9,5.4c-0.2,0.6-0.3,1-0.3,1.3c0,0.5,0.5,0.8,1.6,0.8h2.6v1.2h-10.1v-1.2h1.8c0.9,0,1.6-0.2,2.2-0.7
		c0.2-0.2,0.6-0.9,1-2.1l10.3-28.4h1.5l11.1,31.2h3.5v1.2h-14.6v-1.2h4.2L-245.7,290.2z M-246.2,289l-4.6-12.8l-4.6,12.8H-246.2z"/>
	<path d="M-211.6,295.8l0.8,1c-0.5,0.6-1,1.1-1.6,1.5c-1,0.6-2,1-2.9,1c-0.9,0-1.8-0.3-2.6-1c-0.6-0.5-1.1-1.2-1.6-2.1
		c-1.8,2.1-3.9,3.2-6.5,3.2c-1.5,0-2.8-0.4-3.8-1.3c-1-0.9-1.5-2-1.5-3.4c0-2.5,1.4-4.3,4.2-5.7c1.4-0.7,3.2-1.2,5.4-1.4
		c0.4,0,1.2-0.1,2.2-0.2v-0.9c0-2.3-0.1-3.7-0.1-4.1c-0.2-1.3-1.2-2-3-2c-1.1,0-1.9,0.2-2.4,0.5c-0.3,0.2-0.5,0.5-0.5,0.8
		c0,0.2,0.1,0.5,0.4,0.8c0.4,0.6,0.6,1.1,0.6,1.7c0,0.8-0.3,1.4-0.8,1.8c-0.6,0.5-1.2,0.7-1.9,0.7c-0.7,0-1.3-0.2-1.8-0.7
		c-0.5-0.5-0.7-1.1-0.7-2c0-1.1,0.5-2.1,1.6-2.9c1.6-1.2,3.6-1.9,6.2-1.9c3,0,5.2,0.7,6.6,2.1c0.6,0.6,0.9,1.2,1.1,2
		c0.1,0.5,0.1,1.5,0.1,3v8.5c0,0.9,0.1,1.5,0.3,1.7c0.2,0.2,0.4,0.3,0.7,0.3C-212.6,296.5-212.1,296.3-211.6,295.8z M-219.5,288.6
		c-1.6,0.1-2.9,0.3-3.8,0.6c-1.8,0.6-2.7,1.9-2.7,3.8c0,1.1,0.3,1.9,0.9,2.6c0.6,0.6,1.4,0.9,2.3,0.9c2.2,0,3.3-1.6,3.3-4.8l0-0.8
		V288.6z"/>
	<path d="M-171.1,299.1c0,0.5,0,0.9,0,1.1c0,2.9,0.5,4.9,1.4,6.1c1.1,1.5,3.2,2.2,6.3,2.2c0.5,0,1.1,0,2-0.1v1.4
		c-1,0.1-1.9,0.1-2.6,0.1c-3.6,0-6.3-0.3-8.1-0.9c-3.1-1-5-2.5-5.6-4.6c-0.2-0.9-0.4-2.6-0.4-5.1c-3-0.6-5.4-2-7.4-3.9
		c-1.6-1.6-2.9-3.6-3.7-6c-0.8-2.2-1.2-4.4-1.2-6.6c0-3.4,0.9-6.6,2.7-9.6c1.5-2.6,3.6-4.5,6.2-5.8c2.3-1.2,4.7-1.7,7.2-1.7
		c4.1,0,7.5,1.4,10.5,4.3c3.4,3.3,5.1,7.5,5.1,12.5c0,4.1-1.1,7.7-3.3,10.7C-164.2,296.1-167.2,298-171.1,299.1z M-174.4,267
		c-1.3,0-2.6,0.3-3.8,1c-1.8,1-3,3-3.7,6c-0.5,2.2-0.7,5.1-0.7,8.8c0,6,0.6,10,1.7,11.9c1.3,2.3,3.5,3.5,6.5,3.5
		c2.6,0,4.5-1,5.8-2.9c1.5-2.3,2.2-6.7,2.2-13.2c0-5.9-0.6-9.9-1.7-11.9c-0.7-1.2-1.7-2.1-3.1-2.6C-172.2,267.2-173.3,267-174.4,267
		z"/>
	<path d="M-140.8,310.8v-15c-0.8,1.1-1.5,1.9-2.2,2.3c-1.1,0.8-2.5,1.2-4,1.2c-2.2,0-4.1-0.8-5.5-2.3c-0.9-1-1.7-2.2-2.2-3.5
		c-0.6-1.5-0.9-3-0.9-4.5c0-2.9,1-5.4,2.9-7.4c1.7-1.7,3.7-2.6,6-2.6c1.6,0,3,0.5,4.1,1.4c0.4,0.3,1,1,1.7,1.9v-3.2
		c1.2,0.1,2.6,0.3,4.2,0.4c2.6,0.1,4.2,0.1,4.6,0.1v1.3h-3v29.8h2.9v1.3h-12.3v-1.2H-140.8z M-145.6,280.6c-1.3,0-2.2,0.7-2.9,2.1
		c-0.6,1.4-1,3.7-1,7.1c0,5.3,1.3,8,3.9,8c0.9,0,1.7-0.3,2.5-1c1.5-1.3,2.3-4,2.3-7.8c0-2.8-0.5-4.9-1.6-6.4
		C-143.2,281.2-144.3,280.6-145.6,280.6z"/>
	<path d="M-106.7,297.6v-30h-3.9v-1.2h14.3c3.3,0,5.6,0.2,6.9,0.5c2.3,0.6,3.9,1.6,4.9,3.2c0.7,1.1,1.1,2.4,1.1,3.8
		c0,3-1.3,5.1-3.8,6.4c-1.2,0.7-3.2,1.1-5.8,1.2c1.7,0.2,3.3,0.9,5,1.9c1.6,1.1,2.7,2.5,3.3,4.1c0.4,1.2,0.6,3.3,0.6,6.1
		c0,2.3,0.7,3.5,2.1,3.5c0.7,0,1.6-0.2,2.5-0.7v1.4c-2.4,0.7-4.2,1.1-5.5,1.1c-2.7,0-4.6-1.1-5.6-3.3c-0.4-0.9-0.8-2.1-0.9-3.4
		c-0.1-0.5-0.1-1.5-0.2-2.8c-0.2-3.6-0.8-5.7-1.8-6.3c-0.7-0.5-1.4-0.8-2.2-0.9c-0.6-0.1-1.1-0.1-1.5-0.1h-2.7v15.5h4.5v1.2h-15.2
		v-1.2H-106.7z M-99.8,280.9h3.6c1.6,0,2.8-0.2,3.5-0.5c1.1-0.5,1.8-1.5,2.2-2.8c0.2-0.9,0.3-2.1,0.3-3.7c0-2.4-0.5-4.1-1.4-4.9
		c-0.5-0.5-1.1-0.8-1.9-0.9c-0.6-0.1-1.4-0.1-2.7-0.1h-3.6V280.9z"/>
	<path d="M-74.3,297.6V281h-3.1v-1.3h1.2c2.8,0,5.4-0.2,7.8-0.5v3.8c1.5-2.7,3.4-4,5.7-4c1.1,0,2,0.3,2.7,0.9
		c0.9,0.7,1.3,1.7,1.3,2.9c0,1-0.3,1.8-1,2.4c-0.6,0.5-1.3,0.8-2.1,0.8c-0.9,0-1.7-0.3-2.3-0.9c-0.4-0.5-0.7-1.1-0.7-1.7
		c0-0.6,0.2-1.2,0.6-1.8c0.2-0.2,0.2-0.4,0.2-0.5c0-0.2-0.1-0.3-0.4-0.3c-0.7,0-1.5,0.7-2.4,2c-0.5,0.8-1,1.7-1.3,2.7
		c-0.3,0.8-0.4,2.1-0.4,3.7v8.5h3.8v1.2h-12.7v-1.2H-74.3z"/>
</g>
<g class="st1">
	<path d="M-245.7,356.7h-10.2l-1.9,5.4c-0.2,0.6-0.3,1-0.3,1.3c0,0.5,0.5,0.8,1.6,0.8h2.6v1.2h-10.1v-1.2h1.8c0.9,0,1.6-0.2,2.2-0.7
		c0.2-0.2,0.6-0.9,1-2.1l10.3-28.4h1.5l11.1,31.2h3.5v1.2h-14.6v-1.2h4.2L-245.7,356.7z M-246.2,355.4l-4.6-12.8l-4.6,12.8H-246.2z"
		/>
	<path d="M-211.6,362.3l0.8,1c-0.5,0.6-1,1.1-1.6,1.5c-1,0.6-2,1-2.9,1c-0.9,0-1.8-0.3-2.6-1c-0.6-0.5-1.1-1.2-1.6-2.1
		c-1.8,2.1-3.9,3.2-6.5,3.2c-1.5,0-2.8-0.4-3.8-1.3c-1-0.9-1.5-2-1.5-3.4c0-2.5,1.4-4.3,4.2-5.7c1.4-0.7,3.2-1.2,5.4-1.4
		c0.4,0,1.2-0.1,2.2-0.2v-0.9c0-2.3-0.1-3.7-0.1-4.1c-0.2-1.3-1.2-2-3-2c-1.1,0-1.9,0.2-2.4,0.5c-0.3,0.2-0.5,0.5-0.5,0.8
		c0,0.2,0.1,0.5,0.4,0.8c0.4,0.6,0.6,1.1,0.6,1.7c0,0.8-0.3,1.4-0.8,1.8c-0.6,0.5-1.2,0.7-1.9,0.7c-0.7,0-1.3-0.2-1.8-0.7
		c-0.5-0.5-0.7-1.1-0.7-2c0-1.1,0.5-2.1,1.6-2.9c1.6-1.2,3.6-1.9,6.2-1.9c3,0,5.2,0.7,6.6,2.1c0.6,0.6,0.9,1.2,1.1,2
		c0.1,0.5,0.1,1.5,0.1,3v8.5c0,0.9,0.1,1.5,0.3,1.7c0.2,0.2,0.4,0.3,0.7,0.3C-212.6,363-212.1,362.8-211.6,362.3z M-219.5,355
		c-1.6,0.1-2.9,0.3-3.8,0.6c-1.8,0.6-2.7,1.9-2.7,3.8c0,1.1,0.3,1.9,0.9,2.6c0.6,0.6,1.4,0.9,2.3,0.9c2.2,0,3.3-1.6,3.3-4.8l0-0.8
		V355z"/>
	<path d="M-171.1,365.5c0,0.5,0,0.9,0,1.1c0,2.9,0.5,4.9,1.4,6.1c1.1,1.5,3.2,2.2,6.3,2.2c0.5,0,1.1,0,2-0.1v1.4
		c-1,0.1-1.9,0.1-2.6,0.1c-3.6,0-6.3-0.3-8.1-0.9c-3.1-1-5-2.5-5.6-4.6c-0.2-0.9-0.4-2.6-0.4-5.1c-3-0.6-5.4-2-7.4-3.9
		c-1.6-1.6-2.9-3.6-3.7-6c-0.8-2.2-1.2-4.4-1.2-6.6c0-3.4,0.9-6.6,2.7-9.6c1.5-2.6,3.6-4.5,6.2-5.8c2.3-1.2,4.7-1.7,7.2-1.7
		c4.1,0,7.5,1.4,10.5,4.3c3.4,3.3,5.1,7.5,5.1,12.5c0,4.1-1.1,7.7-3.3,10.7C-164.2,362.5-167.2,364.5-171.1,365.5z M-174.4,333.5
		c-1.3,0-2.6,0.3-3.8,1c-1.8,1-3,3-3.7,6c-0.5,2.2-0.7,5.1-0.7,8.8c0,6,0.6,10,1.7,11.9c1.3,2.3,3.5,3.5,6.5,3.5
		c2.6,0,4.5-1,5.8-2.9c1.5-2.3,2.2-6.7,2.2-13.2c0-5.9-0.6-9.9-1.7-11.9c-0.7-1.2-1.7-2.1-3.1-2.6
		C-172.2,333.7-173.3,333.5-174.4,333.5z"/>
	<path d="M-140.8,377.3v-15c-0.8,1.1-1.5,1.9-2.2,2.3c-1.1,0.8-2.5,1.2-4,1.2c-2.2,0-4.1-0.8-5.5-2.3c-0.9-1-1.7-2.2-2.2-3.5
		c-0.6-1.5-0.9-3-0.9-4.5c0-2.9,1-5.4,2.9-7.4c1.7-1.7,3.7-2.6,6-2.6c1.6,0,3,0.5,4.1,1.4c0.4,0.3,1,1,1.7,1.9v-3.2
		c1.2,0.1,2.6,0.3,4.2,0.4c2.6,0.1,4.2,0.1,4.6,0.1v1.3h-3v29.8h2.9v1.3h-12.3v-1.2H-140.8z M-145.6,347.1c-1.3,0-2.2,0.7-2.9,2.1
		c-0.6,1.4-1,3.7-1,7.1c0,5.3,1.3,8,3.9,8c0.9,0,1.7-0.3,2.5-1c1.5-1.3,2.3-4,2.3-7.8c0-2.8-0.5-4.9-1.6-6.4
		C-143.2,347.7-144.3,347.1-145.6,347.1z"/>
	<path d="M-106.7,364.1v-30h-3.9V333h14.3c3.3,0,5.6,0.2,6.9,0.5c2.3,0.6,3.9,1.6,4.9,3.2c0.7,1.1,1.1,2.4,1.1,3.8
		c0,3-1.3,5.1-3.8,6.4c-1.2,0.7-3.2,1.1-5.8,1.2c1.7,0.2,3.3,0.9,5,1.9c1.6,1.1,2.7,2.5,3.3,4.1c0.4,1.2,0.6,3.3,0.6,6.1
		c0,2.3,0.7,3.5,2.1,3.5c0.7,0,1.6-0.2,2.5-0.7v1.4c-2.4,0.7-4.2,1.1-5.5,1.1c-2.7,0-4.6-1.1-5.6-3.3c-0.4-0.9-0.8-2.1-0.9-3.4
		c-0.1-0.5-0.1-1.5-0.2-2.8c-0.2-3.6-0.8-5.7-1.8-6.3c-0.7-0.5-1.4-0.8-2.2-0.9c-0.6-0.1-1.1-0.1-1.5-0.1h-2.7v15.5h4.5v1.2h-15.2
		v-1.2H-106.7z M-99.8,347.4h3.6c1.6,0,2.8-0.2,3.5-0.5c1.1-0.5,1.8-1.5,2.2-2.8c0.2-0.9,0.3-2.1,0.3-3.7c0-2.4-0.5-4.1-1.4-4.9
		c-0.5-0.5-1.1-0.8-1.9-0.9c-0.6-0.1-1.4-0.1-2.7-0.1h-3.6V347.4z"/>
	<path d="M-74.3,364.1v-16.7h-3.1v-1.3h1.2c2.8,0,5.4-0.2,7.8-0.5v3.8c1.5-2.7,3.4-4,5.7-4c1.1,0,2,0.3,2.7,0.9
		c0.9,0.7,1.3,1.7,1.3,2.9c0,1-0.3,1.8-1,2.4c-0.6,0.5-1.3,0.8-2.1,0.8c-0.9,0-1.7-0.3-2.3-0.9c-0.4-0.5-0.7-1.1-0.7-1.7
		c0-0.6,0.2-1.2,0.6-1.8c0.2-0.2,0.2-0.4,0.2-0.5c0-0.2-0.1-0.3-0.4-0.3c-0.7,0-1.5,0.7-2.4,2c-0.5,0.8-1,1.7-1.3,2.7
		c-0.3,0.8-0.4,2.1-0.4,3.7v8.5h3.8v1.2h-12.7v-1.2H-74.3z"/>
</g>
</svg>
