<?xml version="1.0" encoding="utf-8"?>
<!-- Generator: Adobe Illustrator 19.1.0, SVG Export Plug-In . SVG Version: 6.00 Build 0)  -->
<svg version="1.1" id="Layer_1" xmlns="http://www.w3.org/2000/svg" xmlns:xlink="http://www.w3.org/1999/xlink" x="0px" y="0px"
	 viewBox="0 0 173.9 218.2" style="enable-background:new 0 0 173.9 218.2;" xml:space="preserve">
<style type="text/css">
	.st0{font-family:'BodoniBeckerMed';}
	.st1{font-size:34.7894px;}
	.st2{letter-spacing:3;}
	.st3{font-size:19px;}
	.st4{letter-spacing:10;}
</style>
<rect x="140.1" y="16.4" width="11" height="132.3"/>
<g>
	<rect x="153.9" y="16.4" width="1.8" height="132.3"/>
</g>
<circle cx="120.4" cy="76.6" r="11"/>
<text transform="matrix(1 0 0 1 15.3902 182.9415)" class="st0 st1 st2">HARRIS</text>
<text transform="matrix(1 0 0 1 15.5777 204.6172)" class="st0 st3 st4">STUDIOS</text>
<path d="M96.4,43.9c-4.8-11.7-12-19.8-21.4-24.1c-5.6-2.6-12.2-4-19.7-4c-10,0-18.8,2.3-26.3,6.7C20.7,27.5,16.6,34.5,14.8,43
	c-0.9,4.3-0.6,18,13.6,18.9c7.6,0.5,13.8-6.2,13.8-13.8c0-7.6-6.2-13.8-13.8-13.8c-0.3,0-0.6,0-0.9,0c3.1-5.4,10-12.7,24-12
	c30.5,1.3,34.2,31.6,34.2,43.4c0,20.5-7.7,41.4-19.9,55c-10.2,11.3-25,20.5-44,27.6c13.3-0.8,25.8-4.5,37.2-11.1
	c11.9-6.9,22-17.1,29.8-30.2c7.9-13.1,11.9-26.7,11.9-40.5C100.8,58.5,99.3,50.9,96.4,43.9z"/>
</svg>
