<?xml version="1.0" encoding="utf-8"?>
<!-- Generator: Adobe Illustrator 19.1.0, SVG Export Plug-In . SVG Version: 6.00 Build 0)  -->
<svg version="1.1" id="Layer_1" xmlns="http://www.w3.org/2000/svg" xmlns:xlink="http://www.w3.org/1999/xlink" x="0px" y="0px"
	 viewBox="-331 117 560 560" style="enable-background:new -331 117 560 560;" xml:space="preserve">
<style type="text/css">
	.st0{fill:#E5E5E5;}
	.st1{enable-background:new    ;}
	.st2{fill:#820028;}
	.st3{fill:#FFFFFF;}
</style>
<rect x="-331" y="117.4" class="st0" width="559.6" height="559.6"/>
<g>
	<g class="st1">
		<path d="M-244.9,202.6h11.1v14c-4.1,1.8-8.1,2.7-12.1,2.7c-5.5,0-9.9-1.6-13.1-4.8c-3.3-3.2-4.9-7.1-4.9-11.8
			c0-4.9,1.7-9.1,5.1-12.4s7.7-4.9,12.8-4.9c1.9,0,3.6,0.2,5.3,0.6c1.7,0.4,3.8,1.1,6.4,2.2v4.8c-4-2.3-7.9-3.4-11.8-3.4
			c-3.6,0-6.7,1.2-9.2,3.7c-2.5,2.5-3.7,5.5-3.7,9.1c0,3.8,1.2,6.8,3.7,9.2c2.5,2.4,5.7,3.6,9.6,3.6c1.9,0,4.2-0.4,6.8-1.3l0.5-0.1
			v-6.9h-6.4V202.6z"/>
		<path d="M-225.2,187.9c0.7,0,1.3,0.2,1.8,0.7c0.5,0.5,0.8,1.1,0.8,1.8c0,0.7-0.3,1.3-0.8,1.8c-0.5,0.5-1.1,0.8-1.8,0.8
			c-0.7,0-1.2-0.3-1.8-0.8s-0.8-1.1-0.8-1.8c0-0.7,0.3-1.3,0.8-1.8S-225.9,187.9-225.2,187.9z M-227.3,197.1h4.3v21.8h-4.3V197.1z"
			/>
		<path d="M-216.7,185.8h4.3v33.1h-4.3V185.8z"/>
		<path d="M-206,185.8h4.3v33.1h-4.3V185.8z"/>
		<path d="M-173.2,205l-3.6-2.2c-2.3-1.4-3.9-2.7-4.8-4.1c-1-1.3-1.4-2.9-1.4-4.6c0-2.6,0.9-4.7,2.7-6.4c1.8-1.6,4.2-2.4,7.1-2.4
			c2.8,0,5.3,0.8,7.6,2.3v5.4c-2.4-2.3-5-3.4-7.7-3.4c-1.5,0-2.8,0.4-3.8,1.1c-1,0.7-1.5,1.6-1.5,2.8c0,1,0.4,1.9,1.1,2.8
			c0.7,0.9,1.9,1.8,3.5,2.7l3.6,2.1c4,2.4,6.1,5.5,6.1,9.2c0,2.7-0.9,4.8-2.7,6.5c-1.8,1.7-4.1,2.5-6.9,2.5c-3.3,0-6.3-1-8.9-3v-6
			c2.6,3.2,5.5,4.9,8.9,4.9c1.5,0,2.7-0.4,3.7-1.2c1-0.8,1.5-1.9,1.5-3.1C-168.8,208.7-170.3,206.8-173.2,205z"/>
		<path d="M-146,205.8v9.3c0,0.7,0.3,1.1,0.8,1.1c0.5,0,1.3-0.4,2.4-1.2v2.6c-1,0.6-1.8,1.1-2.4,1.3c-0.6,0.2-1.2,0.3-1.9,0.3
			c-1.8,0-2.9-0.7-3.3-2.2c-1.8,1.4-3.8,2.1-5.9,2.1c-1.5,0-2.8-0.5-3.8-1.5s-1.5-2.3-1.5-3.8c0-1.4,0.5-2.6,1.5-3.7
			s2.4-1.9,4.2-2.6l5.5-1.9v-1.2c0-2.6-1.3-3.9-3.9-3.9c-2.4,0-4.6,1.2-6.9,3.7v-4.7c1.7-2,4.1-3,7.2-3c2.4,0,4.2,0.6,5.7,1.8
			c0.5,0.4,0.9,0.9,1.3,1.6s0.6,1.3,0.7,2C-146.1,202.7-146,203.9-146,205.8z M-150.3,214.6v-6.5l-2.9,1.1c-1.5,0.6-2.5,1.2-3.1,1.8
			c-0.6,0.6-0.9,1.3-0.9,2.2c0,0.9,0.3,1.6,0.9,2.2c0.6,0.6,1.3,0.9,2.2,0.9C-152.7,216.2-151.5,215.7-150.3,214.6z"/>
		<path d="M-134.7,197.1v2.8c1.9-2.1,4.1-3.2,6.6-3.2c1.4,0,2.6,0.4,3.8,1.1c1.2,0.7,2.1,1.7,2.7,2.9c0.6,1.2,0.9,3.2,0.9,5.8v12.5
			h-4.3v-12.4c0-2.2-0.3-3.8-1-4.8c-0.7-1-1.8-1.4-3.4-1.4c-2,0-3.8,1-5.2,3.1v15.6h-4.4v-21.8H-134.7z"/>
		<path d="M-115.8,217.3v-4.6c1.2,0.9,2.5,1.5,3.7,2.1s2.3,0.8,3.2,0.8c0.9,0,1.7-0.2,2.3-0.7c0.6-0.4,1-1,1-1.6
			c0-0.6-0.2-1.2-0.6-1.6c-0.4-0.4-1.3-1-2.7-1.8c-2.8-1.5-4.6-2.9-5.5-4c-0.9-1.1-1.3-2.3-1.3-3.6c0-1.7,0.7-3,2-4.1
			c1.3-1.1,3-1.6,5-1.6c2.1,0,4.3,0.6,6.6,1.8v4.3c-2.6-1.5-4.7-2.3-6.3-2.3c-0.8,0-1.5,0.2-2,0.5c-0.5,0.4-0.8,0.8-0.8,1.4
			c0,0.5,0.2,1,0.7,1.4s1.3,1,2.5,1.7l1.5,0.9c3.6,2.1,5.5,4.3,5.5,6.8c0,1.8-0.7,3.3-2.1,4.4c-1.4,1.1-3.2,1.7-5.4,1.7
			c-1.3,0-2.5-0.1-3.5-0.4S-114.3,218.1-115.8,217.3z"/>
	</g>
</g>
<g>
	<g class="st1">
		<path class="st2" d="M-166.3,410.7h6.4v44.5h-6.4v-19.4h-25v19.4h-6.4v-44.5h6.4v19.3h25V410.7z"/>
		<path class="st2" d="M-132.5,437.6v12.5c0,1,0.3,1.5,1,1.5c0.7,0,1.8-0.5,3.3-1.6v3.5c-1.3,0.8-2.4,1.4-3.2,1.7
			c-0.8,0.3-1.6,0.5-2.5,0.5c-2.5,0-4-1-4.4-2.9c-2.5,1.9-5.1,2.9-7.9,2.9c-2,0-3.7-0.7-5.1-2c-1.4-1.3-2-3-2-5.1c0-1.8,0.7-3.5,2-5
			c1.3-1.5,3.2-2.6,5.7-3.5l7.4-2.6V436c0-3.5-1.8-5.3-5.3-5.3c-3.2,0-6.2,1.6-9.2,4.9v-6.3c2.3-2.7,5.5-4,9.7-4
			c3.2,0,5.7,0.8,7.6,2.5c0.6,0.5,1.2,1.2,1.7,2.1s0.8,1.8,1,2.6C-132.6,433.5-132.5,435.1-132.5,437.6z M-138.2,449.4v-8.7
			l-3.9,1.5c-2,0.8-3.4,1.6-4.2,2.4c-0.8,0.8-1.2,1.8-1.2,3c0,1.2,0.4,2.2,1.2,3c0.8,0.8,1.8,1.1,3,1.1
			C-141.5,451.7-139.8,450.9-138.2,449.4z"/>
		<path class="st2" d="M-117.3,425.9v3.7c2.6-2.9,5.5-4.3,8.8-4.3c1.8,0,3.5,0.5,5.1,1.4c1.6,0.9,2.8,2.2,3.6,3.9
			c0.8,1.6,1.2,4.3,1.2,7.8v16.8h-5.8v-16.7c0-3-0.5-5.1-1.4-6.4c-0.9-1.3-2.4-1.9-4.6-1.9c-2.7,0-5.1,1.4-7,4.1v20.9h-5.9v-29.3
			H-117.3z"/>
		<path class="st2" d="M-70.8,410.7h5.8v44.5h-12.4c-4.3,0-7.8-1.4-10.4-4.1c-2.6-2.7-3.9-6.4-3.9-11c0-4.3,1.4-7.9,4.1-10.6
			c2.7-2.8,6.2-4.2,10.4-4.2c2,0,4.1,0.4,6.4,1.2V410.7z M-70.8,450.3v-18.6c-1.8-0.9-3.6-1.4-5.5-1.4c-2.9,0-5.2,0.9-6.9,2.8
			c-1.7,1.9-2.6,4.4-2.6,7.7c0,3,0.7,5.3,2.2,7c0.9,1,1.8,1.6,2.8,2c1,0.3,2.8,0.5,5.4,0.5H-70.8z"/>
		<path class="st2" d="M-58.6,436c0-3.1,1.1-5.6,3.4-7.4c2.3-1.8,5.4-2.7,9.4-2.7h12.1v4.5h-5.9c1.1,1.2,1.9,2.2,2.4,3.2
			c0.4,1,0.7,2.1,0.7,3.3c0,1.5-0.4,3-1.3,4.5c-0.9,1.5-2,2.6-3.4,3.4s-3.6,1.4-6.7,1.9c-2.2,0.3-3.3,1.1-3.3,2.3
			c0,0.7,0.4,1.2,1.2,1.7c0.8,0.4,2.3,0.9,4.4,1.4c3.6,0.8,5.9,1.4,6.9,1.8c1,0.4,2,1.1,2.8,1.9c1.4,1.4,2.1,3.2,2.1,5.3
			c0,2.8-1.2,5-3.7,6.7c-2.5,1.7-5.8,2.5-9.9,2.5c-4.2,0-7.5-0.8-10-2.5c-2.5-1.7-3.7-3.9-3.7-6.7c0-4,2.5-6.5,7.4-7.7
			c-2-1.3-2.9-2.5-2.9-3.7c0-0.9,0.4-1.8,1.3-2.5c0.8-0.8,2-1.3,3.4-1.7C-56.5,443.4-58.6,440.3-58.6,436z M-49.1,456.6
			c-2,0-3.6,0.4-4.8,1.2c-1.2,0.8-1.9,1.9-1.9,3.2c0,3,2.7,4.5,8.2,4.5c2.6,0,4.6-0.4,6-1.1c1.4-0.8,2.1-1.8,2.1-3.2
			c0-1.4-0.9-2.5-2.7-3.3C-44,457-46.3,456.6-49.1,456.6z M-47.7,430.9c-1.6,0-2.9,0.5-4,1.6c-1.1,1.1-1.7,2.3-1.7,3.8
			c0,1.5,0.5,2.8,1.6,3.7c1.1,1,2.5,1.5,4.1,1.5c1.6,0,3-0.5,4.1-1.5c1.1-1,1.6-2.3,1.6-3.8c0-1.5-0.6-2.8-1.7-3.8
			C-44.7,431.4-46.1,430.9-47.7,430.9z"/>
		<path class="st2" d="M-4.3,441.1h-20.6c0.1,2.8,1.1,5,2.8,6.7s4,2.5,6.7,2.5c3.8,0,7.4-1.2,10.6-3.6v5.7c-1.8,1.2-3.6,2-5.3,2.6
			c-1.8,0.5-3.8,0.8-6.2,0.8c-3.2,0-5.8-0.7-7.8-2c-2-1.3-3.6-3.1-4.8-5.4c-1.2-2.3-1.8-4.9-1.8-7.9c0-4.5,1.3-8.1,3.8-10.9
			c2.5-2.8,5.8-4.2,9.9-4.2c3.9,0,7,1.4,9.3,4.1c2.3,2.7,3.5,6.4,3.5,10.9V441.1z M-24.8,437.6H-10c-0.1-2.3-0.8-4.1-2.1-5.4
			c-1.2-1.3-2.9-1.9-5-1.9s-3.8,0.6-5.1,1.9C-23.5,433.5-24.4,435.3-24.8,437.6z"/>
		<path class="st2" d="M26.1,433.9v21.3h-5.8v-16.3c0-3.3-0.4-5.5-1.3-6.8c-0.9-1.3-2.4-1.9-4.6-1.9c-1.2,0-2.3,0.3-3.3,0.8
			c-1,0.6-2.2,1.5-3.5,2.9v21.3H1.8v-29.3h5.8v3.9c3-3,5.8-4.4,8.7-4.4c3.7,0,6.6,1.8,8.6,5.3c3.1-3.6,6.3-5.4,9.7-5.4
			c2.8,0,5.2,1,7,3.1c1.8,2.1,2.8,5.3,2.8,9.5v17.3h-5.8v-17.4c0-2.4-0.5-4.3-1.5-5.6c-1-1.3-2.4-1.9-4.3-1.9
			C30.4,430.3,28.1,431.5,26.1,433.9z"/>
		<path class="st2" d="M70.8,437.6v12.5c0,1,0.3,1.5,1,1.5c0.7,0,1.8-0.5,3.3-1.6v3.5c-1.3,0.8-2.4,1.4-3.2,1.7s-1.6,0.5-2.5,0.5
			c-2.5,0-4-1-4.4-2.9c-2.5,1.9-5.1,2.9-7.9,2.9c-2,0-3.7-0.7-5.1-2s-2-3-2-5.1c0-1.8,0.7-3.5,2-5c1.3-1.5,3.2-2.6,5.7-3.5l7.4-2.6
			V436c0-3.5-1.8-5.3-5.3-5.3c-3.2,0-6.2,1.6-9.2,4.9v-6.3c2.3-2.7,5.5-4,9.7-4c3.2,0,5.7,0.8,7.6,2.5c0.6,0.5,1.2,1.2,1.7,2.1
			c0.5,0.9,0.8,1.8,1,2.6C70.7,433.5,70.8,435.1,70.8,437.6z M65.1,449.4v-8.7l-3.9,1.5c-2,0.8-3.4,1.6-4.2,2.4
			c-0.8,0.8-1.2,1.8-1.2,3c0,1.2,0.4,2.2,1.2,3c0.8,0.8,1.8,1.1,3,1.1C61.8,451.7,63.5,450.9,65.1,449.4z"/>
		<path class="st2" d="M98.7,437.6v12.5c0,1,0.3,1.5,1,1.5c0.7,0,1.8-0.5,3.3-1.6v3.5c-1.3,0.8-2.4,1.4-3.2,1.7
			c-0.8,0.3-1.6,0.5-2.5,0.5c-2.5,0-4-1-4.4-2.9c-2.5,1.9-5.1,2.9-7.9,2.9c-2,0-3.7-0.7-5.1-2c-1.4-1.3-2-3-2-5.1c0-1.8,0.7-3.5,2-5
			c1.3-1.5,3.2-2.6,5.7-3.5l7.4-2.6V436c0-3.5-1.8-5.3-5.3-5.3c-3.2,0-6.2,1.6-9.2,4.9v-6.3c2.3-2.7,5.5-4,9.7-4
			c3.2,0,5.7,0.8,7.6,2.5c0.6,0.5,1.2,1.2,1.7,2.1c0.5,0.9,0.8,1.8,1,2.6C98.6,433.5,98.7,435.1,98.7,437.6z M92.9,449.4v-8.7
			l-3.9,1.5c-2,0.8-3.4,1.6-4.2,2.4c-0.8,0.8-1.2,1.8-1.2,3c0,1.2,0.4,2.2,1.2,3c0.8,0.8,1.8,1.1,3,1.1
			C89.7,451.7,91.4,450.9,92.9,449.4z"/>
		<path class="st2" d="M108.1,410.7h5.8v44.5h-5.8V410.7z M127.2,425.9h6.9l-12.5,14.3l15.1,15h-7.8l-14.7-15L127.2,425.9z"/>
		<path class="st2" d="M135.3,430.6l10.9-10.7v6.1h9.3v5.2h-9.3v14.4c0,3.4,1.4,5,4.2,5c2.1,0,4.3-0.7,6.6-2.1v5.4
			c-2.2,1.3-4.7,1.9-7.3,1.9c-2.7,0-4.9-0.8-6.6-2.3c-0.6-0.5-1-1-1.4-1.6s-0.7-1.3-0.9-2.3c-0.2-0.9-0.4-2.7-0.4-5.4v-13h-5.1
			V430.6z"/>
		<path class="st2" d="M186.1,441.1h-20.6c0.1,2.8,1.1,5,2.8,6.7s4,2.5,6.7,2.5c3.8,0,7.4-1.2,10.6-3.6v5.7c-1.8,1.2-3.6,2-5.3,2.6
			c-1.8,0.5-3.8,0.8-6.2,0.8c-3.2,0-5.8-0.7-7.8-2s-3.6-3.1-4.8-5.4c-1.2-2.3-1.8-4.9-1.8-7.9c0-4.5,1.3-8.1,3.8-10.9
			c2.5-2.8,5.8-4.2,9.9-4.2c3.9,0,7,1.4,9.3,4.1c2.3,2.7,3.5,6.4,3.5,10.9V441.1z M165.6,437.6h14.8c-0.1-2.3-0.8-4.1-2.1-5.4
			c-1.2-1.3-2.9-1.9-5-1.9c-2.1,0-3.8,0.6-5.1,1.9S166,435.3,165.6,437.6z"/>
	</g>
</g>
<g class="st1">
	<path d="M-189.9,514.7v7.1c0,0.6,0.2,0.8,0.6,0.8c0.4,0,1-0.3,1.9-0.9v2c-0.7,0.5-1.3,0.8-1.8,1c-0.5,0.2-0.9,0.3-1.4,0.3
		c-1.4,0-2.2-0.6-2.5-1.7c-1.4,1.1-2.9,1.6-4.5,1.6c-1.2,0-2.1-0.4-2.9-1.1c-0.8-0.8-1.2-1.7-1.2-2.9c0-1,0.4-2,1.1-2.8
		s1.8-1.5,3.2-2l4.2-1.4v-0.9c0-2-1-3-3-3c-1.8,0-3.5,0.9-5.2,2.8V510c1.3-1.5,3.1-2.3,5.5-2.3c1.8,0,3.2,0.5,4.3,1.4
		c0.4,0.3,0.7,0.7,1,1.2c0.3,0.5,0.5,1,0.6,1.5C-189.9,512.4-189.9,513.3-189.9,514.7z M-193.1,521.4v-4.9l-2.2,0.8
		c-1.1,0.4-1.9,0.9-2.4,1.3c-0.5,0.5-0.7,1-0.7,1.7c0,0.7,0.2,1.2,0.7,1.7c0.4,0.4,1,0.7,1.7,0.7C-195,522.7-194,522.3-193.1,521.4z
		"/>
	<path d="M-179.7,499.5h3.3v9.8c1.4-1,2.9-1.6,4.6-1.6c2.1,0,3.8,0.8,5.2,2.4s2,3.6,2,6.1c0,2.7-0.8,4.8-2.4,6.4
		c-1.6,1.6-3.7,2.4-6.4,2.4c-1.1,0-2.2-0.1-3.4-0.3c-1.2-0.2-2.1-0.5-2.8-0.9V499.5z M-176.4,512.4v9c1.1,0.3,2.3,0.5,3.5,0.5
		c1.5,0,2.6-0.5,3.6-1.6c0.9-1,1.4-2.4,1.4-4c0-1.7-0.4-3-1.3-4c-0.9-1-2-1.6-3.4-1.6C-173.9,510.8-175.1,511.3-176.4,512.4z"/>
	<path d="M-143.6,520.8v3.3c-1.7,0.6-3.3,0.9-4.8,0.9c-2.6,0-4.7-0.8-6.2-2.3c-1.5-1.5-2.3-3.6-2.3-6.2c0-2.6,0.8-4.7,2.3-6.3
		c1.5-1.6,3.5-2.4,5.9-2.4c0.9,0,1.6,0.1,2.3,0.2c0.7,0.2,1.5,0.5,2.5,0.9v3.5c-1.7-1.1-3.2-1.6-4.6-1.6c-1.5,0-2.7,0.5-3.6,1.6
		c-1,1-1.4,2.4-1.4,4c0,1.7,0.5,3,1.5,4c1,1,2.4,1.5,4.2,1.5C-146.7,521.9-145.2,521.6-143.6,520.8z"/>
	<path d="M-123.7,499.5h3.3v25.2h-7c-2.5,0-4.4-0.8-5.9-2.3c-1.5-1.6-2.2-3.6-2.2-6.3c0-2.4,0.8-4.5,2.3-6c1.5-1.6,3.5-2.4,5.9-2.4
		c1.1,0,2.3,0.2,3.6,0.7V499.5z M-123.7,521.9v-10.5c-1-0.5-2.1-0.8-3.1-0.8c-1.6,0-2.9,0.5-3.9,1.6c-1,1.1-1.5,2.5-1.5,4.3
		c0,1.7,0.4,3,1.3,4c0.5,0.6,1,0.9,1.6,1.1c0.6,0.2,1.6,0.3,3.1,0.3H-123.7z"/>
	<path d="M-96.8,516.7h-11.7c0.1,1.6,0.6,2.9,1.6,3.8c1,0.9,2.2,1.4,3.8,1.4c2.2,0,4.2-0.7,6-2v3.2c-1,0.7-2,1.2-3,1.4
		c-1,0.3-2.2,0.4-3.5,0.4c-1.8,0-3.3-0.4-4.4-1.1c-1.1-0.8-2-1.8-2.7-3.1c-0.7-1.3-1-2.8-1-4.5c0-2.5,0.7-4.6,2.2-6.2
		c1.4-1.6,3.3-2.4,5.6-2.4c2.2,0,4,0.8,5.3,2.3s2,3.6,2,6.2V516.7z M-108.4,514.7h8.4c-0.1-1.3-0.5-2.3-1.2-3
		c-0.7-0.7-1.6-1.1-2.8-1.1s-2.1,0.4-2.9,1.1C-107.7,512.4-108.2,513.4-108.4,514.7z"/>
	<path d="M-87.9,508.1v-1c0-2.7,0.6-4.7,1.7-6c1.1-1.3,2.5-2,4.1-2c0.7,0,1.5,0.1,2.4,0.3v3.2c-0.5-0.2-1-0.3-1.5-0.3
		c-1.3,0-2.2,0.3-2.7,1c-0.5,0.7-0.8,1.9-0.8,3.7v1h3v3h-3v13.7h-3.3V511h-2.4v-3H-87.9z"/>
	<path d="M-74.9,513.8c0-1.8,0.6-3.2,1.9-4.2c1.3-1,3.1-1.5,5.3-1.5h6.8v2.6h-3.4c0.7,0.7,1.1,1.3,1.4,1.8s0.4,1.2,0.4,1.9
		c0,0.9-0.2,1.7-0.7,2.6c-0.5,0.8-1.1,1.5-1.9,1.9c-0.8,0.4-2.1,0.8-3.8,1.1c-1.2,0.2-1.9,0.6-1.9,1.3c0,0.4,0.2,0.7,0.7,0.9
		c0.5,0.2,1.3,0.5,2.5,0.8c2,0.4,3.3,0.8,3.9,1s1.1,0.6,1.6,1.1c0.8,0.8,1.2,1.8,1.2,3c0,1.6-0.7,2.8-2.1,3.8
		c-1.4,0.9-3.3,1.4-5.6,1.4c-2.4,0-4.3-0.5-5.7-1.4c-1.4-0.9-2.1-2.2-2.1-3.8c0-2.3,1.4-3.7,4.2-4.4c-1.1-0.7-1.7-1.4-1.7-2.1
		c0-0.5,0.2-1,0.7-1.4s1.1-0.8,1.9-1C-73.6,518-74.9,516.2-74.9,513.8z M-69.5,525.5c-1.1,0-2,0.2-2.7,0.7c-0.7,0.5-1.1,1.1-1.1,1.8
		c0,1.7,1.5,2.6,4.6,2.6c1.5,0,2.6-0.2,3.4-0.6c0.8-0.4,1.2-1,1.2-1.8c0-0.8-0.5-1.4-1.5-1.9C-66.6,525.7-67.9,525.5-69.5,525.5z
		 M-68.7,510.9c-0.9,0-1.7,0.3-2.3,0.9c-0.6,0.6-0.9,1.3-0.9,2.2c0,0.9,0.3,1.6,0.9,2.1c0.6,0.6,1.4,0.8,2.3,0.8
		c0.9,0,1.7-0.3,2.3-0.9c0.6-0.6,0.9-1.3,0.9-2.1c0-0.9-0.3-1.6-0.9-2.2C-67,511.2-67.7,510.9-68.7,510.9z"/>
	<path d="M-53.3,499.5h3.3v10.8c1.4-1.7,3.1-2.5,5.1-2.5c1.1,0,2.1,0.3,3,0.8c0.9,0.6,1.5,1.3,2,2.3c0.4,1,0.6,2.4,0.6,4.4v9.5h-3.3
		v-10.3c0-1.2-0.3-2.2-0.9-2.9c-0.6-0.7-1.4-1.1-2.4-1.1c-0.7,0-1.4,0.2-2,0.6s-1.3,1-2.1,1.9v11.9h-3.3V499.5z"/>
	<path d="M-28,501.1c0.5,0,1,0.2,1.4,0.6s0.6,0.8,0.6,1.4c0,0.5-0.2,1-0.6,1.4s-0.8,0.6-1.4,0.6c-0.5,0-1-0.2-1.3-0.6
		c-0.4-0.4-0.6-0.8-0.6-1.4c0-0.5,0.2-1,0.6-1.3C-29,501.3-28.5,501.1-28,501.1z M-29.7,508.1h3.3v16.6h-3.3V508.1z"/>
	<path d="M-16.7,508.1h3.3v19c0,2.9-1.1,4.9-3.3,6.1l-2.4-2.4c0.8-0.3,1.4-0.7,1.8-1.4c0.4-0.7,0.7-1.4,0.7-2.3V508.1z M-15.1,501.1
		c0.5,0,1,0.2,1.4,0.6c0.4,0.4,0.6,0.8,0.6,1.4c0,0.6-0.2,1-0.6,1.4c-0.4,0.4-0.8,0.6-1.4,0.6c-0.5,0-1-0.2-1.4-0.6
		s-0.6-0.8-0.6-1.4c0-0.5,0.2-1,0.6-1.3S-15.6,501.1-15.1,501.1z"/>
	<path d="M-3.5,499.5h3.3v25.2h-3.3V499.5z M7.3,508.1h3.9l-7.1,8.1l8.5,8.5H8.2l-8.3-8.5L7.3,508.1z"/>
	<path d="M19.3,499.5h3.3v25.2h-3.3V499.5z"/>
	<path d="M45.9,512.6v12.1h-3.3v-9.2c0-1.8-0.2-3.1-0.7-3.9c-0.5-0.7-1.4-1.1-2.6-1.1c-0.7,0-1.3,0.2-1.9,0.5
		c-0.6,0.3-1.2,0.9-2,1.7v12.1h-3.3v-16.6h3.3v2.2c1.7-1.7,3.3-2.5,4.9-2.5c2.1,0,3.7,1,4.9,3c1.8-2,3.6-3,5.5-3
		c1.6,0,2.9,0.6,4,1.8c1,1.2,1.6,3,1.6,5.4v9.8H53v-9.8c0-1.4-0.3-2.4-0.8-3.2c-0.6-0.7-1.4-1.1-2.4-1.1
		C48.4,510.6,47.1,511.3,45.9,512.6z"/>
</g>
<g class="st1">
	<path d="M-197,552.5v2.1c1.5-1.6,3.1-2.4,5-2.4c1,0,2,0.3,2.9,0.8c0.9,0.5,1.6,1.3,2,2.2c0.5,0.9,0.7,2.4,0.7,4.4v9.5h-3.3v-9.5
		c0-1.7-0.3-2.9-0.8-3.6c-0.5-0.7-1.4-1.1-2.6-1.1c-1.6,0-2.9,0.8-4,2.3v11.9h-3.4v-16.6H-197z"/>
	<path d="M-168.9,552.4c2.5,0,4.6,0.8,6.3,2.4s2.5,3.7,2.5,6.2c0,2.4-0.8,4.4-2.5,6c-1.7,1.6-3.8,2.4-6.4,2.4
		c-2.5,0-4.6-0.8-6.3-2.4c-1.7-1.6-2.5-3.6-2.5-6c0-2.4,0.8-4.5,2.5-6.1C-173.5,553.3-171.4,552.4-168.9,552.4z M-169.1,555.4
		c-1.6,0-2.9,0.5-3.9,1.6s-1.5,2.4-1.5,4c0,1.6,0.5,2.9,1.6,3.9c1,1,2.4,1.5,4,1.5c1.6,0,2.9-0.5,4-1.5c1-1,1.5-2.3,1.5-3.9
		c0-1.6-0.5-2.9-1.6-3.9C-166.1,555.9-167.4,555.4-169.1,555.4z"/>
	<path d="M-151.6,577.6v-25.1h5.8c2.9,0,5.2,0.7,6.9,2.2c1.6,1.5,2.5,3.5,2.5,6.2c0,2.5-0.8,4.5-2.3,6.1c-1.5,1.6-3.5,2.4-5.9,2.4
		c-1.1,0-2.2-0.2-3.5-0.7v8.9H-151.6z M-145.9,555.5h-2.3v10.2c1,0.5,2.1,0.8,3.2,0.8c1.5,0,2.8-0.5,3.8-1.6s1.5-2.5,1.5-4.1
		c0-1.1-0.2-2-0.7-2.9s-1.1-1.4-1.9-1.8C-143.2,555.7-144.4,555.5-145.9,555.5z"/>
	<path d="M-120.1,552.5h6.2v25.1h-3.3v-8.8c-1.4,0.4-2.6,0.6-3.6,0.6c-2.4,0-4.3-0.8-5.9-2.4s-2.3-3.6-2.3-6.1
		c0-2.6,0.8-4.6,2.4-6.2C-124.9,553.2-122.8,552.5-120.1,552.5z M-117.1,566v-10.4h-2.1c-1.4,0-2.4,0.1-2.9,0.2
		c-0.5,0.1-0.9,0.3-1.2,0.5c-0.4,0.2-0.7,0.5-1,0.8c-0.9,1-1.4,2.3-1.4,3.8c0,1.7,0.5,3.1,1.5,4.2c1,1.1,2.3,1.6,4,1.6
		c0.4,0,0.7,0,0.9-0.1c0.2,0,0.8-0.2,1.6-0.5l0.3-0.1L-117.1,566z"/>
	<path d="M-100.9,552.5v3.8l0.2-0.3c1.6-2.6,3.2-3.8,4.8-3.8c1.2,0,2.5,0.6,3.9,1.9l-1.7,2.9c-1.1-1.1-2.2-1.6-3.2-1.6
		c-1.1,0-2,0.5-2.8,1.5c-0.8,1-1.2,2.2-1.2,3.6v8.7h-3.3v-16.6H-100.9z"/>
	<path d="M-85.6,567.9v-3.5c0.9,0.7,1.9,1.2,2.8,1.6s1.8,0.6,2.4,0.6c0.7,0,1.3-0.2,1.8-0.5c0.5-0.3,0.7-0.7,0.7-1.2
		c0-0.5-0.2-0.9-0.5-1.2s-1-0.8-2.1-1.4c-2.1-1.2-3.5-2.2-4.2-3c-0.7-0.8-1-1.8-1-2.7c0-1.3,0.5-2.3,1.5-3.1c1-0.8,2.3-1.2,3.8-1.2
		c1.6,0,3.3,0.5,5,1.4v3.3c-2-1.2-3.5-1.8-4.8-1.8c-0.6,0-1.2,0.1-1.5,0.4s-0.6,0.6-0.6,1.1c0,0.4,0.2,0.8,0.5,1.1s1,0.8,1.9,1.3
		l1.2,0.7c2.8,1.6,4.2,3.3,4.2,5.2c0,1.4-0.5,2.5-1.6,3.4c-1.1,0.9-2.4,1.3-4.1,1.3c-1,0-1.9-0.1-2.6-0.3
		C-83.5,568.9-84.4,568.5-85.6,567.9z"/>
	<path d="M-67.9,555.1l6.2-6.1v3.4h5.3v3h-5.3v8.1c0,1.9,0.8,2.8,2.4,2.8c1.2,0,2.4-0.4,3.7-1.2v3.1c-1.3,0.7-2.6,1.1-4.1,1.1
		c-1.5,0-2.8-0.4-3.8-1.3c-0.3-0.3-0.6-0.6-0.8-0.9s-0.4-0.8-0.5-1.3s-0.2-1.6-0.2-3.1v-7.4h-2.9V555.1z"/>
	<path d="M-37.6,569.1V567c-0.7,0.8-1.5,1.4-2.4,1.8c-0.9,0.4-1.8,0.6-2.7,0.6c-1,0-2-0.3-2.9-0.8c-0.9-0.5-1.6-1.2-2-2.1
		c-0.5-0.9-0.7-2.4-0.7-4.5v-9.5h3.3v9.5c0,1.7,0.2,3,0.8,3.7c0.5,0.7,1.4,1,2.6,1c1.6,0,2.9-0.8,4-2.3v-11.9h3.3v16.6H-37.6z"/>
	<path d="M-14.5,552.5h3.6l-7.3,16.9h-1.1l-7.5-16.9h3.6l4.5,10.2L-14.5,552.5z"/>
	<path d="M17.2,552.5h3.5l-7.3,16.9h-1l-4.9-11.6l-4.9,11.6H1.5l-7.4-16.9h3.5L2,562.6l4.2-10.1h2.4l4.2,10.1L17.2,552.5z"/>
	<path d="M39.6,552.5h4.2l-6.8,8.2l7.3,8.4H40l-5.2-6l-4.9,6h-4.1l7-8.4l-7-8.2h4.1l4.9,5.7L39.6,552.5z"/>
	<path d="M61.8,552.5h3.7l-11.8,25.1H50l5.6-12l-6.4-13.1H53l4.5,9.4L61.8,552.5z"/>
	<path d="M71.2,552.5h14.2L76.6,566h8.8v3.1H70.9l8.7-13.5h-8.4V552.5z"/>
</g>
<g class="st1">
	<path class="st3" d="M-166.2,601.2h3.6v25.2h-3.6V601.2z"/>
	<path class="st3" d="M-142.6,622.9h9.6v3.5h-16v-0.3l1.5-1.8c2.4-2.9,4.3-5.4,5.7-7.5c1.4-2,2.3-3.6,2.7-4.6c0.4-1,0.6-2.1,0.6-3.1
		c0-1.4-0.4-2.6-1.2-3.4c-0.8-0.9-1.9-1.3-3.2-1.3c-1,0-2,0.3-3,0.9c-1,0.6-1.9,1.4-2.6,2.5v-4.6c2-1.6,4-2.4,6.1-2.4
		c2.2,0,4,0.7,5.4,2.2c1.4,1.5,2.1,3.3,2.1,5.6c0,1-0.2,2.1-0.5,3.2s-1,2.5-1.9,4c-0.9,1.5-2.4,3.5-4.6,6.1L-142.6,622.9z"/>
	<path class="st3" d="M-120.1,611.7h0.2c1.6,0,2.8-0.3,3.6-1c0.8-0.7,1.2-1.6,1.2-2.8c0-1.1-0.4-2-1.2-2.7c-0.8-0.7-1.9-1-3.2-1
		c-1.3,0-2.8,0.4-4.4,1.2v-3.5c1.5-0.7,3.1-1.1,4.8-1.1c2.3,0,4.2,0.6,5.5,1.8c1.3,1.2,2,2.9,2,5c0,1.3-0.3,2.3-0.8,3.2
		c-0.5,0.9-1.3,1.6-2.5,2.2c1,0.4,1.7,0.9,2.2,1.4c0.5,0.6,0.8,1.2,1.1,2s0.4,1.6,0.4,2.5c0,2.2-0.7,4-2.2,5.5
		c-1.5,1.4-3.3,2.2-5.6,2.2c-1.9,0-3.8-0.5-5.5-1.4v-3.9c1.9,1.2,3.8,1.8,5.5,1.8c1.2,0,2.2-0.4,2.9-1.1c0.7-0.7,1.1-1.7,1.1-2.9
		c0-1-0.3-1.9-0.9-2.6c-0.4-0.4-0.8-0.7-1.2-0.9c-0.4-0.2-1.4-0.4-2.8-0.6l-0.3,0V611.7z"/>
	<path class="st3" d="M-90.1,600.8h1.5V615h2.8v3.1h-2.8v8.3h-3.5v-8.3h-10.7v-1.6L-90.1,600.8z M-92.1,615v-7.3L-98,615H-92.1z"/>
	<path class="st3" d="M-76,601.2h11.2v3.2h-7.9v6.4c0.3,0,0.5,0,0.8,0c2.4,0,4.5,0.7,6,2.2c1.6,1.5,2.4,3.4,2.4,5.7
		c0,2.4-0.8,4.3-2.3,5.8c-1.6,1.5-3.6,2.2-6.1,2.2c-2,0-4-0.5-6-1.5v-3.7c1.8,1.2,3.6,1.8,5.3,1.8c1.5,0,2.8-0.4,3.8-1.3
		c1-0.9,1.5-2,1.5-3.3c0-1.3-0.6-2.5-1.7-3.4c-1.1-0.9-2.5-1.3-4.2-1.3c-1.4,0-2.4,0.1-2.9,0.4V601.2z"/>
	<path class="st3" d="M-44.9,601.1l0.4-0.3l2.2,2.7c-1.9,1.2-3.5,2.6-4.8,4.1c-1.3,1.5-2.2,3.2-2.9,5.2c1.3-0.7,2.7-1,4-1
		c2,0,3.7,0.7,5,2.1c1.4,1.4,2,3.1,2,5.2c0,2.1-0.7,3.9-2.2,5.4s-3.3,2.2-5.4,2.2c-2.4,0-4.3-0.8-5.8-2.5c-1.5-1.7-2.2-3.9-2.2-6.5
		c0-2,0.4-4,1.1-6c0.8-2,1.8-3.9,3.3-5.6C-48.8,604.2-47,602.6-44.9,601.1z M-50.8,616.6c-0.1,0.6-0.1,1.2-0.1,1.9
		c0,1.4,0.4,2.6,1.2,3.5s1.9,1.4,3.2,1.4c1.2,0,2.1-0.4,2.9-1.2c0.8-0.8,1.1-1.8,1.1-3c0-1.2-0.4-2.2-1.2-3s-1.9-1.1-3.2-1.1
		c-0.7,0-1.3,0.1-1.8,0.3C-49.3,615.7-50,616-50.8,616.6z"/>
	<path class="st3" d="M-30.9,601.2h16.3L-26,626.7l-3.2-1.4l9.2-20.7h-10.9V601.2z"/>
	<path class="st3" d="M-7.5,607.9c0-2,0.7-3.6,2.2-5c1.5-1.4,3.3-2.1,5.4-2.1c2.1,0,3.9,0.7,5.3,2c1.5,1.4,2.2,3,2.2,5
		c0,2.3-1,4.1-3.1,5.6c2.3,1.4,3.5,3.3,3.5,6c0,2.1-0.8,3.8-2.3,5.2c-1.5,1.4-3.4,2-5.7,2c-2.3,0-4.2-0.7-5.8-2.1
		c-1.6-1.4-2.3-3.1-2.3-5.2c0-2.6,1.2-4.5,3.6-5.9c-1.1-0.9-1.8-1.7-2.3-2.6C-7.2,610.1-7.5,609.1-7.5,607.9z M4.4,619.6v-0.4
		c0-1.2-0.4-2.1-1.2-2.8c-0.8-0.7-1.9-1.1-3.2-1.1c-1.3,0-2.3,0.4-3.2,1.1c-0.8,0.7-1.2,1.7-1.2,2.9c0,1.2,0.4,2.1,1.2,2.9
		c0.8,0.7,1.9,1.1,3.2,1.1c1.3,0,2.3-0.3,3.1-1C4,621.6,4.4,620.7,4.4,619.6z M4.1,608c0-1.1-0.4-2-1.1-2.7s-1.7-1.1-2.9-1.1
		c-1.2,0-2.1,0.3-2.9,1c-0.7,0.7-1.1,1.6-1.1,2.7c0,1,0.4,1.9,1.2,2.7c0.8,0.7,1.7,1.1,2.8,1.1c1.1,0,2-0.4,2.8-1.1
		C3.7,610,4.1,609.1,4.1,608z"/>
	<path class="st3" d="M21.2,626.7l-2.2-2.6c1.9-1.2,3.5-2.6,4.9-4.3c1.4-1.7,2.3-3.4,2.8-5.2c-1.1,0.7-2.5,1.1-4,1.1
		c-1.9,0-3.6-0.7-5-2.1c-1.4-1.4-2.1-3.2-2.1-5.2c0-2.1,0.7-3.9,2.2-5.3c1.5-1.5,3.3-2.2,5.4-2.2c2.4,0,4.3,0.9,5.9,2.6
		s2.3,3.9,2.3,6.6c0,3.1-1,6.2-2.9,9.3C26.5,622.5,24.1,624.9,21.2,626.7z M27.3,611c0.1-1,0.2-1.6,0.2-1.9c0-1.5-0.4-2.6-1.2-3.6
		c-0.8-0.9-1.9-1.4-3.1-1.4c-1.2,0-2.1,0.4-2.9,1.2c-0.8,0.8-1.1,1.8-1.1,3c0,1.1,0.4,2,1.2,2.8s1.8,1.2,3,1.2
		C24.7,612.3,26.1,611.9,27.3,611z"/>
	<path class="st3" d="M47.1,600.8c2.3,0,4.2,1.2,5.7,3.6c1.5,2.4,2.3,5.5,2.3,9.2c0,3.8-0.8,6.9-2.3,9.3c-1.5,2.4-3.5,3.6-5.9,3.6
		c-2.4,0-4.4-1.2-5.9-3.5c-1.5-2.3-2.2-5.5-2.2-9.3c0-3.8,0.8-6.9,2.3-9.3C42.7,602,44.7,600.8,47.1,600.8z M47.2,604.3H47
		c-1.4,0-2.5,0.9-3.3,2.6c-0.8,1.7-1.2,4-1.2,6.9c0,3,0.4,5.3,1.2,7c0.8,1.7,1.9,2.5,3.3,2.5c1.4,0,2.5-0.8,3.3-2.5
		c0.8-1.7,1.2-4,1.2-6.9c0-2.9-0.4-5.3-1.2-7C49.5,605.1,48.5,604.3,47.2,604.3z"/>
</g>
<g class="st1">
	<path class="st3" d="M115.9,351.1v7.3c-7.5,5.7-13.1,8.5-16.6,8.5c-2,0-3.4-0.7-4.2-2c-0.8-1.3-1.3-4-1.7-8.1
		c-8.6,6.8-17.1,10.1-25.6,10.1c-6.2,0-11.4-2-15.7-6.1c-4.3-4-6.4-8.9-6.4-14.7c0-8.9,4.1-15.9,12.4-21c8.2-5.1,20-8.1,35.3-8.9
		v-10.4c0-11.2-6.1-16.7-18.2-16.7c-7.7,0-16,3.5-25,10.4v-9c9.3-5.8,18.1-8.7,26.4-8.7c7.4,0,13.5,1.8,18.3,5.5s7.2,8.9,7.2,15.9
		v51c0,2.8,0.7,4.2,2,4.2C106,358.4,109.8,356,115.9,351.1z M93.5,349.1v-25.5c-11.2-0.4-20.5,1.6-27.9,5.9
		c-7.4,4.4-11.1,9.9-11.1,16.7c0,3.8,1.5,7,4.6,9.6c3.1,2.6,6.9,3.9,11.6,3.9C78.2,359.7,85.8,356.2,93.5,349.1z"/>
</g>
<g class="st1">
	<path d="M-246.7,265.5l15.3,33.4h-2.7l-5.2-11.5h-16.2l-5.2,11.5h-2.7l15.3-33.4H-246.7z M-240.3,285.3l-7.1-15.6l-7.1,15.6H-240.3
		z"/>
	<path d="M-210.8,295.1v1.9c-2,1.5-3.5,2.3-4.4,2.3c-0.5,0-0.9-0.2-1.1-0.5c-0.2-0.4-0.4-1.1-0.5-2.2c-2.3,1.8-4.6,2.7-6.8,2.7
		c-1.6,0-3-0.5-4.2-1.6c-1.1-1.1-1.7-2.4-1.7-3.9c0-2.4,1.1-4.2,3.3-5.6c2.2-1.4,5.3-2.2,9.4-2.4V283c0-3-1.6-4.5-4.8-4.5
		c-2.1,0-4.3,0.9-6.7,2.8v-2.4c2.5-1.5,4.8-2.3,7-2.3c2,0,3.6,0.5,4.9,1.5c1.3,1,1.9,2.4,1.9,4.2v13.6c0,0.7,0.2,1.1,0.5,1.1
		C-213.4,297-212.4,296.4-210.8,295.1z M-216.7,294.5v-6.8c-3-0.1-5.5,0.4-7.4,1.6c-2,1.2-3,2.6-3,4.4c0,1,0.4,1.9,1.2,2.6
		c0.8,0.7,1.8,1,3.1,1C-220.8,297.4-218.8,296.4-216.7,294.5z"/>
	<path d="M-147.4,302.5l-2.9,3.3c-5.8-0.7-10.8-2.9-15.1-6.5c-4.7-0.4-8.5-2.3-11.4-5.6c-2.9-3.3-4.3-7.1-4.3-11.3
		c0-4.8,1.7-8.9,5-12.1c3.4-3.3,7.5-4.9,12.5-4.9c5,0,9.2,1.6,12.5,4.9c3.4,3.2,5.1,7.3,5.1,12.1c0,4-1.3,7.6-3.9,10.9
		c-2.6,3.3-6.5,5.4-11.7,6.1c3.8,2.6,7.3,3.9,10.4,3.9c1.1,0,2.2-0.4,3.2-1.2L-147.4,302.5z M-163.6,296.9c4.1,0,7.6-1.4,10.5-4.3
		c2.9-2.9,4.4-6.3,4.4-10.3c0-4.1-1.4-7.6-4.3-10.4c-2.9-2.8-6.3-4.2-10.5-4.2c-4.1,0-7.6,1.4-10.5,4.3c-2.9,2.9-4.3,6.3-4.3,10.4
		c0,4,1.4,7.5,4.3,10.3C-171.1,295.5-167.7,296.9-163.6,296.9z"/>
	<path d="M-121.8,277v33h-2.3v-12.4c-2.4,1.1-4.8,1.7-7.1,1.7c-3.1,0-5.6-1-7.5-3.1c-2-2-2.9-4.7-2.9-7.8c0-3.4,1-6.2,3.1-8.4
		s4.6-3.4,7.7-3.4c2.2,0,4.5,0.6,6.8,1.9V277H-121.8z M-124.1,295.3v-14.4c-2.1-1.3-4.2-1.9-6.3-1.9c-2.5,0-4.6,0.9-6.3,2.8
		s-2.5,4.2-2.5,6.9c0,2.6,0.8,4.7,2.3,6.2c1.5,1.6,3.6,2.3,6.1,2.3C-128.5,297.2-126.3,296.5-124.1,295.3z"/>
	<path d="M-87.9,265.7h8.5c3.6,0,6.3,0.8,8.2,2.3c1.9,1.5,2.8,3.6,2.8,6.2c0,3.8-2.1,6.5-6.3,8.1c1.1,0.5,2.6,2.2,4.4,5.1l7.5,11.5
		h-3l-5.8-9.1c-1.9-3-3.4-4.9-4.5-5.7c-1.1-0.8-2.6-1.1-4.7-1.1h-4.5v15.9h-2.6V265.7z M-85.4,267.9v13h5.5c2.8,0,4.9-0.6,6.4-1.7
		c1.5-1.1,2.2-2.7,2.2-4.8c0-2-0.8-3.6-2.3-4.8c-1.5-1.1-3.7-1.7-6.5-1.7H-85.4z"/>
	<path d="M-45.8,279.2l-1.4,2.2c-1.8-1.7-3.3-2.5-4.4-2.5c-2.2,0-4.5,2.1-7,6.3v13.7h-2.3V277h2.3v5.7h0.1c2.6-4.1,5.2-6.2,7.6-6.2
		C-49.4,276.6-47.7,277.5-45.8,279.2z"/>
</g>
<g class="st1">
	<path d="M-243.1,332.2l14.6,33.1h-6.8l-3.4-8.1h-14.7l-3.2,8.1h-6.7l13.7-33.1H-243.1z M-251.5,352.4h10.7l-5.6-13.1L-251.5,352.4z
		"/>
	<path d="M-217.4,342.8c2.8,0,5,0.6,6.5,1.8c1.5,1.2,2.3,2.9,2.3,5.1v10.8c0,0.8,0.3,1.3,1,1.3c0.3,0,0.7-0.1,1.2-0.4
		s0.9-0.5,1.3-0.8v3.4c-2,1.2-3.9,1.9-5.6,1.9c-1,0-1.8-0.2-2.4-0.5s-1-1-1.2-1.8c-2.2,1.6-4.5,2.4-6.7,2.4c-1.6,0-3-0.5-4.1-1.6
		c-1.1-1.1-1.7-2.4-1.7-3.9c0-1.9,0.6-3.4,1.7-4.5s3.1-2.1,6-2.9l4.7-1.4v-1c0-2.2-1.3-3.2-3.9-3.2c-1.3,0-2.7,0.3-4,0.9
		c-1.3,0.6-2.5,1.5-3.6,2.7v-5.2C-223.6,343.7-220.7,342.8-217.4,342.8z M-221,359.4c0,0.8,0.3,1.5,0.8,1.9c0.5,0.5,1.1,0.7,1.9,0.7
		c1.3,0,2.6-0.6,3.8-1.8v-5.8c-1.6,0.6-2.9,1.1-3.8,1.6c-0.9,0.5-1.6,1-2,1.5C-220.7,358.1-221,358.7-221,359.4z"/>
	<path d="M-157,331.8c3.3,0,6.4,0.7,9.1,2.2c2.8,1.5,4.9,3.5,6.5,6.2c1.6,2.6,2.4,5.5,2.4,8.6c0,2.5-0.5,4.9-1.6,7.2
		c-1.1,2.3-2.6,4.2-4.5,5.8c-2,1.6-4.2,2.7-6.6,3.3l0,0.3c3.5,1.7,6.7,2.5,9.5,2.5c1,0,2-0.1,2.9-0.4l0.2,0.3l-5.3,4.8
		c-5.4-0.3-11.1-2.8-17.3-7.3c-2.6-0.5-4.9-1.6-7.1-3.2c-2.1-1.6-3.7-3.6-4.9-5.9c-1.1-2.3-1.7-4.8-1.7-7.3c0-3.1,0.8-6,2.4-8.7
		s3.8-4.8,6.6-6.2C-163.8,332.5-160.6,331.8-157,331.8z M-168.9,348.8c0,3.4,1.1,6.1,3.2,8.2c2.2,2.1,5,3.2,8.5,3.2
		c2.2,0,4.2-0.5,5.9-1.5c1.8-1,3.2-2.3,4.1-4.1c1-1.7,1.5-3.7,1.5-5.8c0-2.2-0.5-4.2-1.5-6c-1-1.8-2.4-3.1-4.1-4.1
		c-1.8-1-3.8-1.5-6-1.5c-3.5,0-6.4,1.1-8.5,3.2C-167.8,342.6-168.9,345.4-168.9,348.8z"/>
	<path d="M-118.7,364.9c-1.7,0.6-3.4,0.9-5,0.9c-2,0-3.9-0.5-5.6-1.5c-1.7-1-3.1-2.3-4.1-4c-1-1.7-1.5-3.6-1.5-5.7
		c0-2.3,0.5-4.3,1.4-6.1c1-1.7,2.3-3,4.1-4c1.8-0.9,3.8-1.4,6.1-1.4h10.2v33.3h-5.8V364.9z M-121.8,347.7c-4.7,0-7.1,2.4-7.1,7.1
		c0,2,0.6,3.6,1.7,4.8c1.2,1.2,2.7,1.8,4.7,1.8c1.3,0,2.5-0.3,3.7-0.9v-12.8H-121.8z"/>
	<path d="M-67.4,332.2c3.1,0,5.7,0.9,7.6,2.6c2,1.7,2.9,4,2.9,6.7c0,1.9-0.5,3.5-1.5,4.9s-2.4,2.5-4.3,3.3c1.1,0.6,2,1.3,2.8,2.3
		c0.8,1,1.8,2.6,3.1,5c2,4,3.5,6.8,4.5,8.3h-7.1c-0.5-0.7-1.2-1.9-2-3.5c-1.8-3.5-3.2-5.9-4-7.1c-0.9-1.2-1.7-2.1-2.5-2.6
		c-0.8-0.5-1.7-0.8-2.7-0.8h-2.3v14h-6.4v-33.1H-67.4z M-68.8,346.3c1.7,0,3-0.4,3.9-1.3s1.4-2,1.4-3.4c0-1.5-0.5-2.7-1.4-3.4
		c-0.9-0.8-2.3-1.1-4.1-1.1h-4v9.2H-68.8z"/>
	<path d="M-36.1,342.8c0.8,0,1.5,0.2,2.3,0.5s1.6,0.9,2.6,1.8l-2.1,5.1c-1.7-1.3-3.1-1.9-4.1-1.9c-0.9,0-1.8,0.3-2.7,1
		c-0.9,0.7-1.6,1.6-2.1,2.7c-0.5,1.1-0.8,2.2-0.8,3.3v10.1h-5.8v-22.1h5.8v5.6h0.1c1.1-2.1,2.1-3.7,3.2-4.6
		C-38.6,343.2-37.4,342.8-36.1,342.8z"/>
</g>
</svg>
