<?xml version="1.0" encoding="utf-8"?>
<!-- Generator: Adobe Illustrator 19.1.0, SVG Export Plug-In . SVG Version: 6.00 Build 0)  -->
<svg version="1.1" id="Layer_1" xmlns="http://www.w3.org/2000/svg" xmlns:xlink="http://www.w3.org/1999/xlink" x="0px" y="0px"
	 viewBox="0 0 322 165" style="enable-background:new 0 0 322 165;" xml:space="preserve">
<style type="text/css">
	.st0{fill:#58595B;}
	.st1{font-family:'GillSans-Light';}
	.st2{font-size:29.6837px;}
	.st3{letter-spacing:4;}
</style>
<text transform="matrix(1 0 0 1 4.2084 160.3692)" class="st0 st1 st2 st3">CHASING VICTORY</text>
<g>
	<path class="st0" d="M299.5,13.1c-0.3-5.7-4.7-7.9-12.1-7.9c-49.4,0-68.9,95.6-122.2,114.1c6.9-7.7,9-19.7,10.1-34.6
		c-6,3-12.7,4.4-19.7,4.4c-8.1,0-14.8-2.8-17.4-7c-3.2,0.4-6,0.7-9.3,0.7c-19.5,0-36.2-13.9-36.2-30.2c0-23.2,32.2-40.4,66.8-40.4
		c15.8,0,26.2,3.2,35.1,10c7.7-6.3,16.7-10.5,22.8-10.5c7,0,9.5,4.2,9.5,6.9c0,4.9-7.6,11.6-22.1,18.1c0.9,2.5,1.2,5.1,1.2,7.7
		c0,14.9-13.2,29.9-25.5,37.8c-1.1,9.5-2.9,17-6.2,25.9c-0.6,1.6-2.8,6.5-2.8,6.5C211.6,96.4,228.5,3.8,287.4,3.6
		C293.7,3.6,300,6.9,299.5,13.1z M121.3,48.3c2.2-6.6,14.2-16.7,27.6-16.7c12.1,0,19.7,6,21.6,15.8c2.3-0.9,5.3-1.9,9.7-3.5
		c3-8.1,7.4-14.9,13.4-20.7c-7.2-5.8-18.5-9.7-32.5-9.7c-34.1,0-64.8,20.2-64.8,41.1c0,14.9,14.4,26.5,31.6,26.5
		c3.7,0,6.7-0.4,9.5-0.7c-5.6-15.6,18.5-26.9,30.9-32.2c0-9.3-8.4-15.3-18.6-15.3C138.7,33,125.8,38.9,121.3,48.3z M168.2,50.4
		c-10.5,4.4-32.7,14.4-29,29.5C154.5,76,168.2,62.3,168.2,50.4z M154.9,87.6c6.2,0,11.6-0.7,20.4-4.9c0.9-17.9,1-24.4,4.2-36.7
		l-9,3.3c0,16.2-14.6,28.3-30.4,32.3C142.6,85.5,147.5,87.6,154.9,87.6z M184.9,44L181.6,72l-0.5,7.4c13.2-9,22.7-22.5,22.7-35.1
		c0-2.5-0.4-4.7-1.1-6.9C191.8,41.9,189.8,42.6,184.9,44z M185.4,41.8c3-1.1,8.3-2.6,16.9-6.1c-2.3-5.3-3.5-7.2-6.8-11.1
		C191.2,28.2,187.9,33.9,185.4,41.8z M204.1,34.7c15.3-7.2,20.2-13,20.2-16.9c0-4.2-3.9-4.7-6.3-4.7c-4.4,0-14.1,3.7-21.6,10.5
		C200,26.8,202.3,30.5,204.1,34.7z"/>
	<path class="st0" d="M87,92.8c1.4-12,15.4-19.6,28.5-18.4c9.9,0.9,22.4,7.9,21.3,20.3c-1.9,17.5-24.1,25.8-39.9,24.4
		c-17.9-1.6-29.2-14.2-27.9-30.1c4.4-55.6,99.4-88.3,97-62.2c-4,45.1-110,60.7-106.1,17.4c3.5-39.4,77.4-35.8,73.3-0.6
		c2.8-31.6-67.5-37.5-71,1.7c-3.3,36.9,98.2,22.4,101.9-18.6c2-21.8-87.5,19.4-91.4,63.8c-1.1,12.3,9.5,25.4,23,26.6
		c16.5,1.5,35.4-7.6,36.8-23.4c0.9-9.8-6.1-17.4-17-18.3C102.6,74.2,89.6,80.8,87,92.8z"/>
</g>
<g>
	<path class="st0" d="M201.5,120h-0.7v-4.6h-1.5v-0.6h3.6v0.6h-1.5V120z"/>
	<path class="st0" d="M209.9,120h-0.7v-4.6h0l-1.7,4.6h-0.4l-1.7-4.6h0v4.6h-0.5v-5.2h1l1.6,4.2l1.5-4.2h1V120z"/>
</g>
</svg>
