<?xml version="1.0" encoding="utf-8"?>
<!-- Generator: Adobe Illustrator 16.0.4, SVG Export Plug-In . SVG Version: 6.00 Build 0)  -->
<!DOCTYPE svg PUBLIC "-//W3C//DTD SVG 1.1//EN" "http://www.w3.org/Graphics/SVG/1.1/DTD/svg11.dtd">
<svg version="1.1" id="Layer_1" xmlns="http://www.w3.org/2000/svg" xmlns:xlink="http://www.w3.org/1999/xlink" x="0px" y="0px"
	 width="172px" height="93px" viewBox="28.896 0 172 93" enable-background="new 28.896 0 172 93" xml:space="preserve">
<text transform="matrix(1 0 0 1 29.126 90.3906)" fill="#FFFFFF" font-family="'GillSans-Light'" font-size="16.7308" letter-spacing="2">CHASING VICTORY</text>
<g>
	<path fill="#FFFFFF" d="M195.563,7.384c-0.169-3.213-2.649-4.453-6.819-4.453c-27.844,0-38.835,53.884-68.877,64.312
		c3.889-4.34,5.072-11.104,5.693-19.502c-3.383,1.69-7.158,2.48-11.104,2.48c-4.565,0-8.342-1.579-9.808-3.946
		c-1.803,0.226-3.382,0.395-5.242,0.395c-10.991,0-20.404-7.834-20.404-17.021c0-13.077,18.149-22.771,37.651-22.771
		c8.906,0,14.767,1.804,19.783,5.636c4.341-3.551,9.414-5.918,12.852-5.918c3.945,0,5.354,2.367,5.354,3.889
		c0,2.762-4.284,6.539-12.456,10.202c0.507,1.409,0.676,2.875,0.676,4.34c0,8.398-7.439,16.853-14.373,21.306
		c-0.619,5.354-1.634,9.581-3.494,14.599c-0.338,0.901-1.578,3.663-1.578,3.663c22.602-10.259,32.127-62.451,65.326-62.563
		C192.295,2.029,195.846,3.889,195.563,7.384z M95.124,27.224c1.24-3.72,8.004-9.413,15.557-9.413c6.82,0,11.103,3.382,12.174,8.905
		c1.296-0.507,2.987-1.071,5.468-1.973c1.69-4.565,4.17-8.398,7.553-11.667c-4.059-3.269-10.428-5.467-18.319-5.467
		c-19.22,0-36.523,11.386-36.523,23.166c0,8.398,8.116,14.937,17.811,14.937c2.085,0,3.776-0.226,5.354-0.395
		c-3.156-8.793,10.427-15.162,17.417-18.149c0-5.242-4.735-8.624-10.484-8.624C104.931,18.6,97.66,21.925,95.124,27.224z
		 M121.559,28.407c-5.918,2.48-18.431,8.116-16.346,16.627C113.836,42.836,121.559,35.115,121.559,28.407z M114.062,49.375
		c3.494,0,6.538-0.395,11.499-2.762c0.507-10.089,0.562-13.753,2.367-20.686l-5.073,1.86c0,9.131-8.229,15.951-17.134,18.206
		C107.129,48.191,109.891,49.375,114.062,49.375z M130.971,24.8l-1.859,15.782l-0.282,4.171c7.44-5.073,12.794-12.682,12.794-19.784
		c0-1.409-0.225-2.649-0.619-3.889C134.859,23.616,133.732,24.011,130.971,24.8z M131.253,23.56c1.69-0.62,4.678-1.465,9.525-3.438
		c-1.296-2.987-1.973-4.059-3.833-6.257C134.521,15.895,132.662,19.107,131.253,23.56z M141.793,19.558
		c8.623-4.058,11.385-7.327,11.385-9.525c0-2.367-2.197-2.649-3.551-2.649c-2.479,0-7.947,2.085-12.174,5.918
		C139.482,15.105,140.778,17.191,141.793,19.558z"/>
	<path fill="#FFFFFF" d="M75.791,52.306c0.789-6.764,8.68-11.047,16.063-10.371c5.58,0.507,12.625,4.453,12.005,11.442
		c-1.071,9.863-13.583,14.541-22.489,13.752c-10.089-0.902-16.458-8.004-15.726-16.965c2.48-31.339,56.025-49.77,54.673-35.059
		c-2.255,25.42-62,34.213-59.802,9.807c1.973-22.207,43.625-20.178,41.314-0.338c1.578-17.811-38.045-21.137-40.019,0.958
		c-1.86,20.798,55.349,12.625,57.435-10.483c1.128-12.288-49.318,10.934-51.516,35.96c-0.62,6.932,5.354,14.315,12.963,14.992
		c9.3,0.846,19.953-4.283,20.742-13.189c0.507-5.523-3.438-9.807-9.582-10.314C84.583,41.822,77.256,45.542,75.791,52.306z"/>
</g>
<g>
	<path fill="#FFFFFF" d="M140.327,67.637h-0.395v-2.594h-0.845v-0.338h2.028v0.338h-0.845v2.594H140.327z"/>
	<path fill="#FFFFFF" d="M145.062,67.637h-0.395v-2.594l0,0l-0.959,2.594h-0.226l-0.958-2.594l0,0v2.594h-0.281v-2.932h0.562
		l0.902,2.367l0.846-2.367h0.563v2.932H145.062z"/>
</g>
</svg>
