<?xml version="1.0" encoding="utf-8"?>
<!-- Generator: Adobe Illustrator 19.1.0, SVG Export Plug-In . SVG Version: 6.00 Build 0)  -->
<svg version="1.1" id="Layer_1" xmlns="http://www.w3.org/2000/svg" xmlns:xlink="http://www.w3.org/1999/xlink" x="0px" y="0px"
	 viewBox="-331 117 560 560" style="enable-background:new -331 117 560 560;" xml:space="preserve">
<style type="text/css">
	.st0{fill:#E5E5E5;}
	.st1{enable-background:new    ;}
	.st2{fill:#820028;}
	.st3{fill:#FFFFFF;}
</style>
<rect x="-330.8" y="117.2" class="st0" width="559.6" height="559.6"/>
<g>
	<g class="st1">
		<path d="M-256.3,215.7h15.1v4H-261v-34.8h4.7L-256.3,215.7L-256.3,215.7z"/>
		<path d="M-218.7,219.7h-1.9c-0.4,0-0.8-0.1-1-0.2c-0.3-0.1-0.4-0.4-0.5-0.8l-0.5-2.3c-0.6,0.6-1.3,1.1-1.9,1.6
			c-0.6,0.5-1.3,0.8-1.9,1.2c-0.7,0.3-1.4,0.6-2.2,0.7c-0.8,0.2-1.6,0.2-2.6,0.2s-1.8-0.1-2.7-0.4c-0.8-0.3-1.6-0.7-2.2-1.2
			c-0.6-0.5-1.1-1.2-1.5-2s-0.5-1.8-0.5-2.9c0-1,0.3-1.9,0.8-2.8c0.5-0.9,1.4-1.7,2.6-2.4c1.2-0.7,2.7-1.3,4.7-1.7
			c1.9-0.4,4.3-0.7,7.1-0.7v-1.9c0-1.9-0.4-3.4-1.2-4.4s-2-1.5-3.6-1.5c-1.1,0-1.9,0.1-2.7,0.4c-0.7,0.3-1.3,0.6-1.9,0.9
			c-0.5,0.3-1,0.6-1.4,0.9c-0.4,0.3-0.8,0.4-1.1,0.4s-0.5-0.1-0.8-0.2c-0.2-0.2-0.4-0.3-0.5-0.6l-0.8-1.4c1.4-1.3,2.8-2.3,4.4-2.9
			c1.6-0.6,3.3-1,5.2-1c1.4,0,2.6,0.2,3.7,0.7s2,1.1,2.7,1.9s1.3,1.8,1.7,2.9c0.4,1.1,0.6,2.4,0.6,3.8v15.7H-218.7z M-229.9,217
			c0.8,0,1.5-0.1,2.1-0.2c0.6-0.2,1.2-0.4,1.8-0.7s1.1-0.6,1.6-1s1-0.9,1.5-1.4v-5.1c-2,0-3.7,0.1-5.1,0.4c-1.4,0.3-2.5,0.6-3.4,1
			s-1.5,0.9-1.9,1.4c-0.4,0.6-0.6,1.2-0.6,1.9s0.1,1.2,0.3,1.7s0.5,0.9,0.8,1.2c0.4,0.3,0.8,0.5,1.3,0.7
			C-231,217-230.4,217-229.9,217z"/>
		<path d="M-204.6,220.1c-1.9,0-3.4-0.5-4.5-1.6c-1-1.1-1.6-2.6-1.6-4.7v-15.1h-3c-0.3,0-0.5-0.1-0.7-0.2c-0.2-0.2-0.3-0.4-0.3-0.7
			v-1.7l4-0.5l1-7.6c0-0.2,0.1-0.4,0.3-0.6c0.2-0.2,0.4-0.2,0.7-0.2h2.2v8.5h7v3.1h-7v14.8c0,1,0.3,1.8,0.8,2.3s1.1,0.8,1.9,0.8
			c0.5,0,0.8-0.1,1.2-0.2c0.3-0.1,0.6-0.3,0.9-0.4c0.2-0.1,0.4-0.3,0.6-0.4c0.2-0.1,0.3-0.2,0.4-0.2c0.2,0,0.4,0.1,0.6,0.4l1.3,2.1
			c-0.7,0.7-1.6,1.2-2.7,1.6C-202.4,219.9-203.5,220.1-204.6,220.1z"/>
		<path d="M-184,194.7c1.8,0,3.4,0.3,4.9,0.9c1.4,0.6,2.7,1.4,3.7,2.5s1.8,2.4,2.3,4s0.8,3.3,0.8,5.2s-0.3,3.7-0.8,5.2
			c-0.5,1.6-1.3,2.9-2.3,4s-2.2,1.9-3.7,2.5c-1.4,0.6-3.1,0.9-4.9,0.9s-3.4-0.3-4.9-0.9c-1.4-0.6-2.7-1.4-3.7-2.5s-1.8-2.4-2.4-4
			c-0.6-1.6-0.8-3.3-0.8-5.2s0.3-3.7,0.8-5.2s1.3-2.9,2.4-4c1-1.1,2.3-2,3.7-2.5C-187.5,195-185.8,194.7-184,194.7z M-184,216.6
			c2.4,0,4.2-0.8,5.4-2.4c1.2-1.6,1.8-3.9,1.8-6.8c0-2.9-0.6-5.2-1.8-6.8s-3-2.5-5.4-2.5c-1.2,0-2.3,0.2-3.2,0.6
			c-0.9,0.4-1.7,1-2.3,1.8s-1.1,1.8-1.4,2.9c-0.3,1.2-0.4,2.5-0.4,3.9s0.1,2.8,0.4,3.9c0.3,1.2,0.8,2.1,1.4,2.9s1.4,1.4,2.3,1.8
			C-186.3,216.4-185.3,216.6-184,216.6z"/>
	</g>
</g>
<g>
	<g class="st1">
		<path class="st2" d="M-64.8,450.7h20.2v5.3h-26.6v-46.8h6.3L-64.8,450.7L-64.8,450.7z"/>
		<path class="st2" d="M-30.7,412.6c0,0.6-0.1,1.1-0.3,1.6s-0.5,0.9-0.9,1.3c-0.4,0.4-0.8,0.7-1.3,0.9c-0.5,0.2-1,0.3-1.6,0.3
			s-1.1-0.1-1.6-0.3s-0.9-0.5-1.3-0.9c-0.4-0.4-0.7-0.8-0.9-1.3s-0.3-1-0.3-1.6c0-0.6,0.1-1.1,0.3-1.6s0.5-1,0.9-1.3
			c0.4-0.4,0.8-0.7,1.3-0.9s1-0.3,1.6-0.3s1.1,0.1,1.6,0.3c0.5,0.2,0.9,0.5,1.3,0.9c0.4,0.4,0.7,0.8,0.9,1.3S-30.7,412-30.7,412.6z
			 M-32,423v33.1h-5.8V423H-32z"/>
		<path class="st2" d="M-21.6,456v-48.1h5.8v19.8c1.4-1.6,2.9-2.9,4.7-3.8c1.8-1,3.8-1.5,6.1-1.5c1.9,0,3.6,0.4,5.2,1.1
			c1.5,0.7,2.9,1.8,4,3.2s1.9,3.2,2.5,5.3c0.6,2.1,0.9,4.5,0.9,7.3c0,2.4-0.3,4.7-1,6.8c-0.7,2.1-1.6,3.9-2.8,5.5
			c-1.2,1.5-2.7,2.7-4.5,3.6c-1.8,0.9-3.8,1.3-6,1.3c-2.1,0-3.9-0.4-5.4-1.2s-2.8-2-3.9-3.5l-0.3,3c-0.2,0.8-0.7,1.2-1.5,1.2H-21.6
			L-21.6,456z M-6.8,427.1c-1.9,0-3.6,0.4-5,1.3c-1.4,0.9-2.7,2.1-3.9,3.7v16c1,1.4,2.2,2.4,3.5,3c1.3,0.6,2.7,0.9,4.3,0.9
			c3.1,0,5.5-1.1,7.1-3.3c1.7-2.2,2.5-5.3,2.5-9.4c0-2.2-0.2-4-0.6-5.6c-0.4-1.5-0.9-2.8-1.6-3.8s-1.6-1.7-2.6-2.2
			S-5.5,427.1-6.8,427.1z"/>
		<path class="st2" d="M27.8,422.4c2,0,3.8,0.3,5.5,1c1.7,0.7,3.1,1.6,4.3,2.9s2.2,2.8,2.9,4.6c0.7,1.8,1,3.9,1,6.3
			c0,0.9-0.1,1.5-0.3,1.8s-0.6,0.5-1.1,0.5h-22c0,2.1,0.3,3.9,0.8,5.5c0.5,1.5,1.2,2.8,2.2,3.9c0.9,1,2,1.8,3.3,2.3s2.7,0.8,4.2,0.8
			s2.7-0.2,3.8-0.5s2-0.7,2.7-1.1c0.8-0.4,1.4-0.8,1.9-1.1c0.5-0.3,1-0.5,1.3-0.5c0.5,0,0.8,0.2,1.1,0.6l1.6,2.1
			c-0.7,0.9-1.6,1.6-2.6,2.3c-1,0.6-2.1,1.2-3.2,1.6c-1.1,0.4-2.3,0.7-3.5,0.9c-1.2,0.2-2.4,0.3-3.6,0.3c-2.3,0-4.4-0.4-6.3-1.2
			c-1.9-0.8-3.6-1.9-5-3.4s-2.5-3.3-3.3-5.5s-1.2-4.7-1.2-7.6c0-2.3,0.4-4.5,1.1-6.5c0.7-2,1.7-3.7,3.1-5.2c1.3-1.5,2.9-2.6,4.9-3.5
			C23.4,422.8,25.4,422.4,27.8,422.4z M28,426.7c-2.8,0-5,0.8-6.6,2.4c-1.6,1.6-2.6,3.9-3,6.7h18c0-1.3-0.2-2.6-0.6-3.7
			c-0.4-1.1-0.9-2.1-1.6-2.9c-0.7-0.8-1.6-1.4-2.6-1.9C30.6,426.8,29.3,426.7,28,426.7z"/>
		<path class="st2" d="M49,456v-33.1h3.3c0.6,0,1.1,0.1,1.3,0.4c0.2,0.2,0.4,0.7,0.5,1.2l0.4,5.2c1.1-2.3,2.5-4.1,4.2-5.4
			s3.6-1.9,5.9-1.9c0.9,0,1.7,0.1,2.5,0.3c0.7,0.2,1.4,0.5,2.1,0.9l-0.8,4.3c-0.2,0.5-0.5,0.8-1,0.8c-0.3,0-0.8-0.1-1.4-0.3
			c-0.6-0.2-1.5-0.3-2.6-0.3c-2,0-3.7,0.6-5.1,1.8c-1.4,1.2-2.5,2.9-3.4,5.1v21.1H49V456z"/>
		<path class="st2" d="M85.3,456.6c-2.6,0-4.6-0.7-6-2.2s-2.1-3.6-2.1-6.3v-20.3h-4c-0.3,0-0.6-0.1-0.9-0.3c-0.2-0.2-0.4-0.5-0.4-1
			v-2.3l5.4-0.7l1.3-10.2c0-0.3,0.2-0.6,0.4-0.8c0.2-0.2,0.5-0.3,0.9-0.3h2.9v11.4h9.5v4.2h-9.5v19.9c0,1.4,0.3,2.4,1,3.1
			s1.5,1,2.6,1c0.6,0,1.1-0.1,1.6-0.2c0.4-0.2,0.8-0.3,1.2-0.5c0.3-0.2,0.6-0.4,0.8-0.5c0.2-0.1,0.4-0.2,0.6-0.2
			c0.3,0,0.6,0.2,0.8,0.6l1.7,2.8c-1,0.9-2.2,1.7-3.6,2.2C88.3,456.3,86.8,456.6,85.3,456.6z"/>
		<path class="st2" d="M123.9,456h-2.6c-0.6,0-1-0.1-1.4-0.3c-0.3-0.2-0.6-0.5-0.7-1.1l-0.7-3.1c-0.9,0.8-1.7,1.5-2.5,2.1
			c-0.8,0.6-1.7,1.1-2.6,1.6c-0.9,0.4-1.9,0.7-2.9,1c-1,0.2-2.2,0.3-3.4,0.3c-1.3,0-2.5-0.2-3.6-0.5c-1.1-0.4-2.1-0.9-2.9-1.6
			s-1.5-1.6-2-2.7c-0.5-1.1-0.7-2.4-0.7-3.9c0-1.3,0.4-2.6,1.1-3.8s1.9-2.3,3.5-3.2c1.6-0.9,3.7-1.7,6.3-2.3
			c2.6-0.6,5.8-0.9,9.5-0.9V435c0-2.6-0.5-4.5-1.6-5.9c-1.1-1.3-2.7-2-4.9-2c-1.4,0-2.6,0.2-3.6,0.5c-1,0.4-1.8,0.8-2.5,1.2
			s-1.3,0.8-1.8,1.2s-1,0.5-1.5,0.5c-0.4,0-0.7-0.1-1-0.3c-0.3-0.2-0.5-0.5-0.7-0.8l-1-1.9c1.8-1.8,3.8-3.1,5.9-4
			c2.1-0.9,4.5-1.3,7-1.3c1.8,0,3.5,0.3,4.9,0.9c1.4,0.6,2.6,1.5,3.6,2.5c1,1.1,1.7,2.4,2.2,4c0.5,1.5,0.8,3.2,0.8,5.1V456H123.9z
			 M108.8,452.5c1,0,2-0.1,2.8-0.3s1.6-0.5,2.4-0.9c0.8-0.4,1.5-0.8,2.2-1.4c0.7-0.6,1.4-1.2,2-1.9v-6.8c-2.7,0-5,0.2-6.8,0.5
			c-1.9,0.3-3.4,0.8-4.6,1.3s-2,1.2-2.6,1.9c-0.5,0.7-0.8,1.6-0.8,2.5c0,0.9,0.1,1.6,0.4,2.3c0.3,0.7,0.7,1.2,1.1,1.6
			c0.4,0.4,1,0.7,1.7,0.9C107.4,452.4,108.1,452.5,108.8,452.5z"/>
		<path class="st2" d="M156,456c-0.8,0-1.4-0.4-1.6-1.2l-0.5-4c-1.4,1.7-3,3.1-4.8,4.1s-3.9,1.6-6.3,1.6c-1.9,0-3.6-0.4-5.2-1.1
			c-1.5-0.7-2.9-1.8-4-3.2s-1.9-3.2-2.5-5.3c-0.6-2.1-0.9-4.5-0.9-7.3c0-2.4,0.3-4.7,1-6.8s1.6-3.9,2.8-5.5c1.2-1.5,2.7-2.8,4.5-3.6
			c1.8-0.9,3.8-1.3,6-1.3c2,0,3.8,0.3,5.2,1s2.7,1.6,3.9,2.9V408h5.8v48.1H156V456z M144.8,451.8c1.9,0,3.6-0.4,5-1.3
			c1.4-0.9,2.7-2.1,3.9-3.7v-16c-1.1-1.4-2.2-2.4-3.5-3c-1.3-0.6-2.7-0.9-4.2-0.9c-3.1,0-5.5,1.1-7.1,3.3c-1.6,2.2-2.5,5.3-2.5,9.4
			c0,2.2,0.2,4,0.6,5.5c0.4,1.5,0.9,2.8,1.6,3.8c0.7,1,1.6,1.7,2.6,2.2C142.2,451.6,143.4,451.8,144.8,451.8z"/>
	</g>
</g>
<g class="st1">
	<path d="M-185,525.5h-1.5c-0.3,0-0.6,0-0.8-0.1s-0.3-0.3-0.4-0.6l-0.4-1.7c-0.5,0.4-1,0.8-1.4,1.2c-0.5,0.4-1,0.6-1.5,0.9
		c-0.5,0.2-1.1,0.4-1.7,0.5s-1.2,0.2-2,0.2c-0.7,0-1.4-0.1-2-0.3s-1.2-0.5-1.7-0.9s-0.8-0.9-1.1-1.6s-0.4-1.4-0.4-2.2
		c0-0.7,0.2-1.5,0.6-2.1c0.4-0.7,1.1-1.3,2-1.8s2.1-1,3.6-1.3s3.3-0.5,5.4-0.5v-1.5c0-1.5-0.3-2.6-0.9-3.3c-0.6-0.8-1.5-1.1-2.8-1.1
		c-0.8,0-1.5,0.1-2,0.3s-1,0.4-1.4,0.7c-0.4,0.3-0.7,0.5-1,0.7s-0.6,0.3-0.9,0.3c-0.2,0-0.4-0.1-0.6-0.2c-0.2-0.1-0.3-0.3-0.4-0.4
		l-0.6-1.1c1-1,2.2-1.7,3.3-2.2c1.2-0.5,2.5-0.7,4-0.7c1,0,2,0.2,2.8,0.5s1.5,0.8,2.1,1.4c0.6,0.6,1,1.4,1.3,2.2
		c0.3,0.9,0.4,1.8,0.4,2.9L-185,525.5L-185,525.5z M-193.5,523.5c0.6,0,1.1-0.1,1.6-0.2c0.5-0.1,0.9-0.3,1.4-0.5s0.8-0.5,1.2-0.8
		s0.8-0.7,1.1-1.1V517c-1.5,0-2.8,0.1-3.9,0.3s-1.9,0.4-2.6,0.8c-0.7,0.3-1.2,0.7-1.5,1.1c-0.3,0.4-0.5,0.9-0.5,1.4s0.1,0.9,0.2,1.3
		c0.2,0.4,0.4,0.7,0.6,0.9c0.3,0.2,0.6,0.4,1,0.5S-194,523.5-193.5,523.5z"/>
	<path d="M-174.9,525.5v-27.3h3.3v11.2c0.8-0.9,1.7-1.6,2.7-2.2c1-0.5,2.2-0.8,3.5-0.8c1.1,0,2.1,0.2,2.9,0.6c0.9,0.4,1.6,1,2.2,1.8
		c0.6,0.8,1.1,1.8,1.4,3s0.5,2.6,0.5,4.1c0,1.4-0.2,2.7-0.6,3.9c-0.4,1.2-0.9,2.2-1.6,3.1c-0.7,0.9-1.5,1.6-2.6,2.1
		c-1,0.5-2.1,0.7-3.4,0.7c-1.2,0-2.2-0.2-3.1-0.7c-0.8-0.5-1.6-1.1-2.2-2l-0.2,1.7c-0.1,0.5-0.4,0.7-0.9,0.7L-174.9,525.5
		L-174.9,525.5z M-166.5,509.1c-1.1,0-2,0.2-2.8,0.7s-1.6,1.2-2.2,2.1v9.1c0.6,0.8,1.2,1.4,2,1.7s1.5,0.5,2.4,0.5
		c1.8,0,3.1-0.6,4-1.9c0.9-1.2,1.4-3,1.4-5.3c0-1.2-0.1-2.3-0.3-3.1c-0.2-0.9-0.5-1.6-0.9-2.2c-0.4-0.6-0.9-1-1.5-1.2
		C-165.1,509.2-165.8,509.1-166.5,509.1z"/>
	<path d="M-136.5,510.1c-0.1,0.1-0.2,0.2-0.3,0.3c-0.1,0.1-0.2,0.1-0.4,0.1s-0.4-0.1-0.6-0.2c-0.2-0.1-0.5-0.3-0.8-0.5
		s-0.7-0.4-1.2-0.5c-0.5-0.2-1.1-0.2-1.7-0.2c-0.9,0-1.7,0.2-2.4,0.5s-1.3,0.8-1.8,1.4c-0.5,0.6-0.8,1.4-1.1,2.2
		c-0.2,0.9-0.4,1.9-0.4,2.9c0,1.1,0.1,2.1,0.4,3s0.6,1.6,1.1,2.2c0.5,0.6,1,1.1,1.7,1.4s1.4,0.5,2.3,0.5c0.8,0,1.5-0.1,2-0.3
		s0.9-0.4,1.3-0.6c0.3-0.2,0.6-0.4,0.9-0.6c0.2-0.2,0.4-0.3,0.7-0.3s0.5,0.1,0.6,0.3l0.9,1.2c-0.8,1-1.8,1.7-3.1,2.2
		c-1.2,0.5-2.5,0.7-3.9,0.7c-1.2,0-2.3-0.2-3.3-0.6c-1-0.4-1.9-1.1-2.6-1.9c-0.7-0.8-1.3-1.8-1.7-3s-0.6-2.6-0.6-4.1
		c0-1.4,0.2-2.7,0.6-3.9c0.4-1.2,1-2.2,1.7-3.1c0.7-0.9,1.7-1.5,2.8-2s2.4-0.7,3.8-0.7c1.3,0,2.5,0.2,3.5,0.6c1,0.4,1.9,1,2.7,1.8
		L-136.5,510.1z"/>
	<path d="M-113.9,525.5c-0.5,0-0.8-0.2-0.9-0.7l-0.3-2.3c-0.8,1-1.7,1.8-2.7,2.3c-1,0.6-2.2,0.9-3.5,0.9c-1.1,0-2-0.2-2.9-0.6
		c-0.9-0.4-1.6-1-2.2-1.8s-1.1-1.8-1.4-3s-0.5-2.6-0.5-4.1c0-1.4,0.2-2.7,0.6-3.9c0.4-1.2,0.9-2.2,1.6-3.1c0.7-0.9,1.5-1.6,2.5-2.1
		s2.1-0.7,3.4-0.7c1.1,0,2.1,0.2,2.9,0.6c0.8,0.4,1.5,0.9,2.2,1.6v-10.4h3.3v27.3L-113.9,525.5L-113.9,525.5z M-120.2,523.1
		c1.1,0,2-0.2,2.8-0.7s1.6-1.2,2.2-2.1v-9.1c-0.6-0.8-1.3-1.4-2-1.7c-0.7-0.3-1.5-0.5-2.4-0.5c-1.8,0-3.1,0.6-4,1.9
		c-0.9,1.2-1.4,3-1.4,5.3c0,1.2,0.1,2.3,0.3,3.1c0.2,0.9,0.5,1.6,0.9,2.1s0.9,1,1.5,1.2C-121.7,523-121,523.1-120.2,523.1z"/>
	<path d="M-93.9,506.5c1.1,0,2.2,0.2,3.1,0.6c1,0.4,1.8,0.9,2.5,1.6s1.2,1.6,1.6,2.6s0.6,2.2,0.6,3.6c0,0.5-0.1,0.9-0.2,1
		c-0.1,0.2-0.3,0.3-0.6,0.3h-12.5c0,1.2,0.2,2.2,0.5,3.1s0.7,1.6,1.2,2.2c0.5,0.6,1.1,1,1.8,1.3c0.7,0.3,1.5,0.4,2.4,0.4
		c0.8,0,1.5-0.1,2.1-0.3s1.1-0.4,1.5-0.6c0.4-0.2,0.8-0.4,1.1-0.6c0.3-0.2,0.5-0.3,0.8-0.3s0.5,0.1,0.6,0.3l0.9,1.2
		c-0.4,0.5-0.9,0.9-1.5,1.3c-0.6,0.4-1.2,0.7-1.8,0.9c-0.6,0.2-1.3,0.4-2,0.5s-1.4,0.2-2.1,0.2c-1.3,0-2.5-0.2-3.6-0.7
		c-1.1-0.4-2-1.1-2.8-1.9s-1.4-1.9-1.9-3.1c-0.4-1.2-0.7-2.7-0.7-4.3c0-1.3,0.2-2.5,0.6-3.7c0.4-1.1,1-2.1,1.7-3
		c0.8-0.8,1.7-1.5,2.8-2C-96.5,506.7-95.3,506.5-93.9,506.5z M-93.9,508.9c-1.6,0-2.8,0.5-3.8,1.4c-0.9,0.9-1.5,2.2-1.7,3.8h10.2
		c0-0.8-0.1-1.5-0.3-2.1c-0.2-0.6-0.5-1.2-0.9-1.6c-0.4-0.5-0.9-0.8-1.5-1.1C-92.5,509-93.1,508.9-93.9,508.9z"/>
	<path d="M-76.2,525.5v-15.9l-2.1-0.2c-0.3-0.1-0.5-0.2-0.6-0.3c-0.2-0.1-0.2-0.3-0.2-0.6v-1.4h3v-1.8c0-1.1,0.2-2,0.5-2.9
		c0.3-0.8,0.7-1.5,1.3-2.1c0.6-0.6,1.2-1,2-1.3s1.7-0.4,2.7-0.4c0.8,0,1.6,0.1,2.3,0.4l-0.1,1.6c0,0.2-0.1,0.4-0.3,0.4
		c-0.2,0-0.5,0.1-0.8,0.1h-0.6c-0.6,0-1.1,0.1-1.5,0.2c-0.5,0.1-0.9,0.4-1.2,0.7c-0.3,0.3-0.6,0.8-0.8,1.3s-0.3,1.2-0.3,2v1.7h5.4
		v2.4h-5.3v16L-76.2,525.5L-76.2,525.5z"/>
	<path d="M-53.2,506.4c0.8,0,1.6,0.1,2.3,0.3s1.4,0.4,1.9,0.8h5.1v1.2c0,0.4-0.3,0.7-0.8,0.8l-2.1,0.3c0.4,0.8,0.6,1.7,0.6,2.7
		c0,0.9-0.2,1.7-0.5,2.5c-0.4,0.7-0.8,1.4-1.5,1.9c-0.6,0.5-1.4,0.9-2.2,1.2c-0.9,0.3-1.8,0.4-2.8,0.4c-0.9,0-1.7-0.1-2.5-0.3
		c-0.4,0.3-0.7,0.5-0.9,0.8s-0.3,0.6-0.3,0.9c0,0.5,0.2,0.8,0.5,1c0.4,0.2,0.8,0.4,1.4,0.5c0.6,0.1,1.3,0.2,2,0.2c0.8,0,1.5,0,2.3,0
		s1.6,0.1,2.3,0.2c0.8,0.1,1.4,0.4,2,0.7s1.1,0.7,1.4,1.3c0.4,0.5,0.5,1.3,0.5,2.1s-0.2,1.6-0.6,2.4c-0.4,0.8-1,1.4-1.7,2
		c-0.8,0.6-1.7,1.1-2.8,1.4c-1.1,0.4-2.3,0.5-3.7,0.5s-2.6-0.1-3.6-0.4c-1-0.3-1.9-0.6-2.6-1.1c-0.7-0.5-1.2-1-1.5-1.6
		s-0.5-1.2-0.5-1.9c0-0.9,0.3-1.7,0.9-2.4c0.6-0.6,1.4-1.2,2.4-1.5c-0.5-0.2-1-0.6-1.3-1s-0.5-1-0.5-1.7c0-0.3,0-0.6,0.1-0.8
		c0.1-0.3,0.2-0.6,0.5-0.9s0.5-0.6,0.7-0.8s0.6-0.5,1-0.7c-0.9-0.5-1.6-1.2-2.2-2.1s-0.8-1.9-0.8-3c0-0.9,0.2-1.7,0.5-2.5
		c0.4-0.7,0.8-1.4,1.5-1.9c0.6-0.5,1.4-0.9,2.2-1.2C-55.2,506.6-54.2,506.4-53.2,506.4z M-47.4,526.5c0-0.5-0.1-0.9-0.4-1.2
		s-0.6-0.5-1.1-0.7s-1-0.3-1.5-0.3c-0.6-0.1-1.2-0.1-1.8-0.1s-1.3,0-2,0s-1.3-0.1-1.9-0.2c-0.7,0.3-1.3,0.7-1.7,1.2
		s-0.7,1.1-0.7,1.7c0,0.4,0.1,0.8,0.3,1.2s0.5,0.7,1,0.9c0.4,0.3,1,0.5,1.7,0.6c0.7,0.2,1.5,0.2,2.4,0.2s1.7-0.1,2.4-0.2
		c0.7-0.2,1.3-0.4,1.8-0.7s0.9-0.7,1.1-1.1C-47.5,527.4-47.4,527-47.4,526.5z M-53.2,516.3c0.7,0,1.3-0.1,1.8-0.3s0.9-0.4,1.3-0.8
		c0.3-0.3,0.6-0.7,0.8-1.2s0.3-1,0.3-1.5c0-1.1-0.3-2.1-1-2.7c-0.7-0.7-1.7-1-3-1s-2.3,0.3-3,1s-1,1.6-1,2.7c0,0.6,0.1,1.1,0.3,1.5
		s0.4,0.9,0.8,1.2c0.3,0.3,0.8,0.6,1.3,0.8C-54.4,516.3-53.9,516.3-53.2,516.3z"/>
	<path d="M-35.6,525.5v-27.3h3.3v11c0.8-0.9,1.7-1.5,2.7-2s2.1-0.8,3.4-0.8c1,0,1.9,0.2,2.7,0.5c0.8,0.3,1.4,0.8,2,1.4
		c0.5,0.6,0.9,1.4,1.2,2.2c0.3,0.9,0.4,1.8,0.4,2.9v11.9h-3.3v-11.9c0-1.4-0.3-2.5-1-3.3s-1.6-1.2-3-1.2c-1,0-1.9,0.2-2.7,0.7
		s-1.6,1.1-2.3,1.9v13.8h-3.4V525.5z"/>
	<path d="M-5.6,500.9c0,0.3-0.1,0.6-0.2,0.9s-0.3,0.5-0.5,0.7s-0.5,0.4-0.7,0.5c-0.2,0.1-0.6,0.2-0.9,0.2c-0.3,0-0.6-0.1-0.9-0.2
		c-0.3-0.1-0.5-0.3-0.7-0.5s-0.4-0.5-0.5-0.7c-0.1-0.3-0.2-0.6-0.2-0.9s0.1-0.6,0.2-0.9c0.1-0.3,0.3-0.5,0.5-0.8s0.5-0.4,0.7-0.5
		c0.3-0.1,0.6-0.2,0.9-0.2c0.3,0,0.6,0.1,0.9,0.2c0.3,0.1,0.5,0.3,0.7,0.5s0.4,0.5,0.5,0.8S-5.6,500.6-5.6,500.9z M-6.4,506.8v18.7
		h-3.3v-18.7H-6.4z"/>
	<path d="M8.1,506.8v20.1c0,0.8-0.1,1.5-0.3,2.1s-0.5,1.2-0.9,1.7s-1,0.9-1.6,1.1c-0.7,0.3-1.5,0.4-2.4,0.4c-0.4,0-0.8,0-1.1-0.1
		s-0.7-0.2-1-0.3l0.1-1.8c0-0.2,0.1-0.3,0.2-0.3s0.2-0.1,0.4-0.1c0.1,0,0.2,0,0.3,0s0.2,0,0.4,0c1,0,1.6-0.2,2.1-0.7
		s0.6-1.2,0.6-2.2v-19.9H8.1z M8.8,500.9c0,0.3-0.1,0.6-0.2,0.9c-0.1,0.3-0.3,0.5-0.5,0.7c-0.2,0.2-0.5,0.4-0.7,0.5
		c-0.2,0.1-0.6,0.2-0.9,0.2s-0.6-0.1-0.9-0.2c-0.3-0.1-0.5-0.3-0.7-0.5c-0.2-0.2-0.4-0.5-0.5-0.7c-0.1-0.3-0.2-0.6-0.2-0.9
		s0.1-0.6,0.2-0.9c0.1-0.3,0.3-0.5,0.5-0.8c0.2-0.3,0.5-0.4,0.7-0.5c0.3-0.1,0.6-0.2,0.9-0.2s0.6,0.1,0.9,0.2
		c0.3,0.1,0.5,0.3,0.7,0.5c0.2,0.2,0.4,0.5,0.5,0.8C8.8,500.3,8.8,500.6,8.8,500.9z"/>
	<path d="M22.2,498.2v16h0.9c0.2,0,0.5,0,0.6-0.1c0.2-0.1,0.3-0.2,0.5-0.4l5.9-6.3c0.2-0.2,0.4-0.4,0.6-0.5c0.2-0.1,0.4-0.2,0.7-0.2
		h3l-6.9,7.3c-0.2,0.2-0.3,0.4-0.5,0.6c-0.2,0.2-0.4,0.3-0.6,0.4c0.2,0.1,0.4,0.3,0.6,0.5s0.3,0.4,0.5,0.7l7.3,9.2h-3
		c-0.3,0-0.5-0.1-0.7-0.2s-0.4-0.3-0.5-0.5l-6.2-7.7c-0.2-0.3-0.4-0.4-0.6-0.5s-0.5-0.1-0.8-0.1h-0.8v9h-3.3v-27.3L22.2,498.2
		L22.2,498.2z"/>
	<path d="M46.9,498.2v27.3h-3.3v-27.3H46.9L46.9,498.2z"/>
	<path d="M57.7,525.5v-18.7h2c0.5,0,0.8,0.2,0.9,0.7l0.2,1.9c0.7-0.9,1.5-1.5,2.3-2.1c0.9-0.5,1.9-0.8,3-0.8c1.3,0,2.3,0.4,3.1,1.1
		c0.8,0.7,1.3,1.7,1.7,2.8c0.3-0.7,0.6-1.3,1-1.8s0.9-0.9,1.4-1.2c0.5-0.3,1.1-0.6,1.7-0.7c0.6-0.1,1.2-0.2,1.8-0.2
		c1,0,1.9,0.2,2.6,0.5c0.8,0.3,1.4,0.8,2,1.4c0.5,0.6,0.9,1.3,1.2,2.2c0.3,0.9,0.4,1.9,0.4,3v11.9h-3.3v-11.9c0-1.5-0.3-2.6-1-3.3
		c-0.6-0.8-1.6-1.1-2.8-1.1c-0.5,0-1.1,0.1-1.5,0.3c-0.5,0.2-0.9,0.5-1.3,0.8s-0.7,0.8-0.9,1.4c-0.2,0.6-0.3,1.2-0.3,2v11.9h-3.3
		v-11.9c0-1.5-0.3-2.6-0.9-3.4c-0.6-0.7-1.5-1.1-2.6-1.1c-0.8,0-1.6,0.2-2.3,0.7c-0.7,0.4-1.3,1-1.9,1.8v14h-3.2V525.5z"/>
</g>
<g class="st1">
	<path d="M-198.7,569.9v-18.7h2c0.5,0,0.8,0.2,0.9,0.7l0.3,2c0.8-0.9,1.7-1.6,2.7-2.2c1-0.6,2.2-0.8,3.5-0.8c1,0,1.9,0.2,2.7,0.5
		s1.4,0.8,2,1.4c0.5,0.6,0.9,1.4,1.2,2.2s0.4,1.8,0.4,2.9v11.9h-3.3v-11.9c0-1.4-0.3-2.5-1-3.3s-1.6-1.2-3-1.2c-1,0-1.9,0.2-2.7,0.7
		s-1.6,1.1-2.3,1.9v13.8L-198.7,569.9L-198.7,569.9z"/>
	<path d="M-165.6,550.9c1.4,0,2.6,0.2,3.7,0.7c1.1,0.5,2,1.1,2.8,1.9c0.8,0.8,1.4,1.9,1.8,3s0.6,2.5,0.6,4s-0.2,2.8-0.6,4
		c-0.4,1.2-1,2.2-1.8,3s-1.7,1.5-2.8,1.9c-1.1,0.5-2.3,0.7-3.7,0.7s-2.6-0.2-3.7-0.7s-2-1.1-2.8-1.9c-0.8-0.8-1.4-1.8-1.8-3
		c-0.4-1.2-0.6-2.5-0.6-4s0.2-2.8,0.6-4c0.4-1.2,1-2.2,1.8-3s1.7-1.5,2.8-1.9C-168.2,551.1-167,550.9-165.6,550.9z M-165.6,567.6
		c1.8,0,3.2-0.6,4.1-1.9s1.4-3,1.4-5.2s-0.5-4-1.4-5.2s-2.3-1.9-4.1-1.9c-0.9,0-1.8,0.2-2.4,0.5c-0.7,0.3-1.3,0.8-1.7,1.4
		c-0.5,0.6-0.8,1.3-1,2.2s-0.3,1.9-0.3,3s0.1,2.1,0.3,3s0.6,1.6,1,2.2c0.5,0.6,1,1.1,1.7,1.4C-167.3,567.4-166.5,567.6-165.6,567.6z
		"/>
	<path d="M-147.6,576.2v-25.1h2c0.5,0,0.8,0.2,0.9,0.7l0.3,2.2c0.8-1,1.7-1.8,2.7-2.3c1-0.6,2.2-0.9,3.6-0.9c1.1,0,2,0.2,2.9,0.6
		c0.9,0.4,1.6,1,2.2,1.8c0.6,0.8,1.1,1.8,1.4,3s0.5,2.6,0.5,4.1c0,1.4-0.2,2.7-0.6,3.9c-0.4,1.2-0.9,2.2-1.6,3.1
		c-0.7,0.9-1.5,1.6-2.5,2.1s-2.1,0.7-3.4,0.7c-1.2,0-2.1-0.2-3-0.6s-1.5-0.9-2.2-1.6v8.3H-147.6z M-139.3,553.5
		c-1.1,0-2,0.2-2.8,0.7s-1.6,1.2-2.2,2.1v9.1c0.6,0.8,1.3,1.4,2,1.7s1.5,0.5,2.4,0.5c1.7,0,3.1-0.6,4-1.9c0.9-1.2,1.4-3,1.4-5.3
		c0-1.2-0.1-2.3-0.3-3.1c-0.2-0.9-0.5-1.6-0.9-2.2c-0.4-0.6-0.9-1-1.5-1.2C-137.8,553.6-138.5,553.5-139.3,553.5z"/>
	<path d="M-107,551.2v25.1h-3.3v-9.1c-0.8,0.9-1.7,1.6-2.7,2.2c-1,0.6-2.2,0.8-3.5,0.8c-1.1,0-2-0.2-2.9-0.6c-0.9-0.4-1.6-1-2.2-1.8
		s-1.1-1.8-1.4-3s-0.5-2.6-0.5-4.1c0-1.4,0.2-2.7,0.6-3.9s0.9-2.2,1.6-3.1c0.7-0.9,1.5-1.6,2.5-2.1s2.1-0.7,3.4-0.7
		c1.2,0,2.2,0.2,3.1,0.6s1.6,1,2.3,1.8l0.2-1.5c0.1-0.5,0.4-0.7,0.9-0.7L-107,551.2L-107,551.2z M-115.4,567.5c1.1,0,2-0.2,2.8-0.7
		s1.6-1.2,2.2-2.1v-9.1c-0.6-0.8-1.3-1.4-2-1.7s-1.5-0.5-2.4-0.5c-1.8,0-3.1,0.6-4,1.9c-0.9,1.2-1.4,3-1.4,5.3
		c0,1.2,0.1,2.3,0.3,3.1c0.2,0.9,0.5,1.6,0.9,2.1s0.9,1,1.5,1.2C-116.8,567.4-116.2,567.5-115.4,567.5z"/>
	<path d="M-96.5,569.9v-18.7h1.9c0.4,0,0.6,0.1,0.7,0.2c0.1,0.1,0.2,0.4,0.3,0.7l0.2,2.9c0.6-1.3,1.4-2.3,2.4-3.1
		c0.9-0.7,2.1-1.1,3.3-1.1c0.5,0,1,0.1,1.4,0.2c0.4,0.1,0.8,0.3,1.2,0.5l-0.4,2.5c-0.1,0.3-0.3,0.5-0.6,0.5c-0.2,0-0.4-0.1-0.8-0.2
		c-0.4-0.1-0.9-0.2-1.5-0.2c-1.1,0-2.1,0.3-2.9,1s-1.4,1.6-1.9,2.9v11.9L-96.5,569.9L-96.5,569.9z"/>
	<path d="M-65.9,554.2c-0.1,0.3-0.4,0.4-0.7,0.4c-0.2,0-0.4-0.1-0.6-0.2s-0.5-0.3-0.9-0.5c-0.3-0.2-0.7-0.3-1.2-0.5s-1-0.2-1.7-0.2
		c-0.6,0-1.1,0.1-1.5,0.2s-0.8,0.3-1.1,0.6s-0.6,0.5-0.7,0.9c-0.2,0.3-0.2,0.7-0.2,1.1c0,0.5,0.1,0.9,0.4,1.2s0.6,0.6,1.1,0.8
		s1,0.4,1.6,0.6c0.6,0.2,1.2,0.4,1.8,0.6c0.6,0.2,1.2,0.4,1.8,0.7c0.6,0.2,1.1,0.6,1.6,0.9c0.5,0.4,0.8,0.8,1.1,1.4
		c0.3,0.5,0.4,1.2,0.4,1.9c0,0.9-0.2,1.7-0.5,2.4s-0.8,1.4-1.4,1.9s-1.3,1-2.2,1.3c-0.9,0.3-1.9,0.5-3,0.5c-1.3,0-2.5-0.2-3.6-0.6
		c-1.1-0.4-2-1-2.7-1.6l0.8-1.3c0.1-0.2,0.2-0.3,0.4-0.4s0.3-0.1,0.5-0.1s0.5,0.1,0.7,0.3s0.5,0.4,0.9,0.6s0.8,0.4,1.3,0.6
		c0.5,0.2,1.1,0.3,1.9,0.3c0.6,0,1.2-0.1,1.7-0.2c0.5-0.2,0.9-0.4,1.2-0.7c0.3-0.3,0.6-0.6,0.7-1s0.2-0.8,0.2-1.2
		c0-0.5-0.1-0.9-0.4-1.3c-0.3-0.3-0.6-0.6-1.1-0.9c-0.5-0.2-1-0.5-1.6-0.6s-1.2-0.4-1.8-0.6c-0.6-0.2-1.2-0.4-1.8-0.7
		c-0.6-0.3-1.1-0.6-1.6-1s-0.8-0.9-1.1-1.4c-0.3-0.6-0.4-1.2-0.4-2c0-0.7,0.1-1.4,0.4-2.1c0.3-0.7,0.7-1.2,1.3-1.7
		c0.6-0.5,1.3-0.9,2.1-1.2S-72,551-71,551c1.2,0,2.3,0.2,3.3,0.6c1,0.4,1.8,0.9,2.5,1.6L-65.9,554.2z"/>
	<path d="M-49.9,570.2c-1.5,0-2.6-0.4-3.4-1.2c-0.8-0.8-1.2-2-1.2-3.6v-11.5h-2.3c-0.2,0-0.4-0.1-0.5-0.2c-0.1-0.1-0.2-0.3-0.2-0.5
		v-1.3l3.1-0.4l0.8-5.8c0-0.2,0.1-0.3,0.2-0.5s0.3-0.2,0.5-0.2h1.7v6.5h5.4v2.4h-5.4v11.2c0,0.8,0.2,1.4,0.6,1.8
		c0.4,0.4,0.9,0.6,1.5,0.6c0.3,0,0.6,0,0.9-0.1s0.5-0.2,0.7-0.3s0.3-0.2,0.5-0.3c0.1-0.1,0.2-0.1,0.3-0.1c0.2,0,0.3,0.1,0.5,0.3
		l1,1.6c-0.6,0.5-1.3,0.9-2.1,1.2S-49,570.2-49.9,570.2z"/>
	<path d="M-33.9,551.2v12c0,1.4,0.3,2.5,1,3.3s1.6,1.2,3,1.2c1,0,1.9-0.2,2.7-0.7c0.9-0.5,1.6-1.1,2.3-1.9v-13.8h3.3V570h-2
		c-0.5,0-0.8-0.2-0.9-0.7l-0.3-2c-0.8,0.9-1.7,1.6-2.7,2.2c-1,0.5-2.2,0.8-3.5,0.8c-1,0-1.9-0.2-2.7-0.5s-1.4-0.8-2-1.4
		c-0.5-0.6-0.9-1.4-1.2-2.2c-0.3-0.9-0.4-1.8-0.4-2.9v-12L-33.9,551.2L-33.9,551.2z"/>
	<path d="M-13.6,551.2h2.7c0.3,0,0.5,0.1,0.6,0.2c0.2,0.1,0.3,0.3,0.4,0.5l4.8,12.1c0.2,0.4,0.3,0.9,0.4,1.3s0.2,0.9,0.3,1.3
		c0.1-0.4,0.2-0.9,0.3-1.3s0.3-0.9,0.4-1.3l4.8-12.1c0.1-0.2,0.2-0.4,0.4-0.5s0.4-0.2,0.6-0.2h2.6l-7.6,18.7h-3L-13.6,551.2z"/>
	<path d="M10.3,551.2h2.6c0.3,0,0.5,0.1,0.7,0.2c0.2,0.1,0.3,0.3,0.4,0.5l3.6,12.1c0.1,0.4,0.2,0.9,0.3,1.3c0.1,0.4,0.2,0.8,0.2,1.2
		c0.1-0.4,0.2-0.8,0.3-1.2s0.3-0.8,0.4-1.3l4-12.1c0.1-0.2,0.2-0.3,0.3-0.5c0.2-0.1,0.3-0.2,0.6-0.2h1.4c0.2,0,0.5,0.1,0.6,0.2
		c0.2,0.1,0.3,0.3,0.3,0.5l3.9,12.1c0.1,0.4,0.3,0.9,0.4,1.3c0.1,0.4,0.2,0.8,0.3,1.2c0.1-0.4,0.1-0.8,0.2-1.3
		c0.1-0.4,0.2-0.9,0.3-1.2l3.7-12.1c0.1-0.2,0.2-0.4,0.4-0.5s0.4-0.2,0.6-0.2h2.5l-6.1,18.7h-2.6c-0.3,0-0.5-0.2-0.7-0.6l-4.1-12.7
		c-0.1-0.3-0.2-0.6-0.2-0.9c-0.1-0.3-0.1-0.6-0.2-0.9c-0.1,0.3-0.1,0.6-0.2,0.9s-0.1,0.6-0.2,0.9l-4.2,12.7
		c-0.1,0.4-0.4,0.6-0.8,0.6h-2.5L10.3,551.2z"/>
	<path d="M50.5,560.3l-6.3-9.1h3.2c0.3,0,0.5,0,0.6,0.1s0.2,0.2,0.3,0.4l4.6,7c0.1-0.3,0.3-0.7,0.5-1l4-5.9c0.1-0.2,0.2-0.3,0.4-0.4
		s0.3-0.2,0.5-0.2h3l-6.3,9l6.6,9.8h-3.2c-0.3,0-0.5-0.1-0.6-0.2s-0.3-0.3-0.4-0.5l-4.7-7.3c-0.1,0.4-0.2,0.7-0.4,1l-4.4,6.4
		c-0.1,0.2-0.3,0.3-0.4,0.5s-0.3,0.2-0.6,0.2H44L50.5,560.3z"/>
	<path d="M75.2,575.4c-0.1,0.2-0.2,0.4-0.4,0.6c-0.2,0.1-0.4,0.2-0.8,0.2h-2.4l3.4-7.4l-7.7-17.6h2.8c0.3,0,0.5,0.1,0.7,0.2
		s0.3,0.3,0.4,0.5l5,11.8c0.1,0.3,0.2,0.5,0.3,0.8c0.1,0.3,0.2,0.5,0.2,0.8c0.1-0.3,0.2-0.6,0.3-0.8c0.1-0.3,0.2-0.5,0.3-0.8
		l4.9-11.8c0.1-0.2,0.2-0.4,0.4-0.5c0.2-0.1,0.4-0.2,0.6-0.2h2.6L75.2,575.4z"/>
	<path d="M106.7,552.6c0,0.2,0,0.5-0.1,0.7s-0.2,0.4-0.3,0.6l-10.1,13.5h10.2v2.6H92.3v-1.4c0-0.2,0-0.3,0.1-0.6
		c0.1-0.2,0.2-0.4,0.3-0.6l10.2-13.6H92.8v-2.6h13.9V552.6z"/>
</g>
<g class="st1">
	<path class="st3" d="M-167.2,624.7h5.7v-18.1c0-0.5,0-1.1,0.1-1.6l-4.7,4.1c-0.1,0.1-0.2,0.2-0.4,0.2c-0.1,0-0.2,0.1-0.4,0.1
		s-0.4,0-0.5-0.1s-0.3-0.2-0.3-0.3l-1-1.4l7.9-6.8h2.7v24.1h5.2v2.5h-14.2v-2.7H-167.2z"/>
	<path class="st3" d="M-134.9,600.4c1.1,0,2.2,0.2,3.1,0.5c1,0.3,1.8,0.8,2.5,1.5c0.7,0.6,1.3,1.4,1.7,2.3c0.4,0.9,0.6,1.9,0.6,3.1
		c0,1-0.1,1.9-0.4,2.7s-0.7,1.6-1.2,2.4s-1.1,1.5-1.7,2.2s-1.4,1.5-2.1,2.2l-7,7.1c0.5-0.1,1-0.2,1.5-0.3s1-0.1,1.5-0.1h8.9
		c0.4,0,0.6,0.1,0.9,0.3c0.2,0.2,0.3,0.5,0.3,0.8v2H-144V626c0-0.2,0-0.5,0.1-0.7s0.2-0.5,0.5-0.7l8.5-8.5c0.7-0.7,1.3-1.4,1.9-2.1
		c0.6-0.7,1.1-1.3,1.5-2s0.7-1.3,1-2s0.3-1.4,0.3-2.2s-0.1-1.5-0.4-2c-0.2-0.6-0.6-1.1-1-1.5s-0.9-0.7-1.5-0.9s-1.2-0.3-1.9-0.3
		s-1.3,0.1-1.9,0.3s-1.1,0.5-1.5,0.8c-0.4,0.4-0.8,0.8-1.1,1.2c-0.3,0.5-0.5,1-0.6,1.6c-0.1,0.4-0.2,0.6-0.4,0.8s-0.5,0.2-0.8,0.2
		c-0.1,0-0.1,0-0.2,0c-0.1,0-0.1,0-0.2,0l-1.7-0.3c0.2-1.2,0.5-2.3,1-3.2s1.1-1.7,1.9-2.3c0.8-0.6,1.6-1.1,2.6-1.4
		C-137.1,600.6-136.1,600.4-134.9,600.4z"/>
	<path class="st3" d="M-108.1,600.4c1.1,0,2.2,0.2,3.1,0.5s1.8,0.8,2.5,1.4c0.7,0.6,1.2,1.3,1.6,2.1s0.6,1.8,0.6,2.8
		c0,0.8-0.1,1.6-0.3,2.2c-0.2,0.7-0.5,1.2-0.9,1.7s-0.9,0.9-1.5,1.3c-0.6,0.3-1.2,0.6-1.9,0.8c1.7,0.5,3,1.2,3.9,2.3s1.3,2.4,1.3,4
		c0,1.2-0.2,2.3-0.7,3.3s-1.1,1.8-1.9,2.5s-1.7,1.2-2.8,1.6c-1.1,0.4-2.2,0.5-3.4,0.5c-1.4,0-2.6-0.2-3.6-0.5s-1.8-0.8-2.5-1.5
		c-0.7-0.6-1.3-1.3-1.7-2.2s-0.8-1.8-1.1-2.7l1.4-0.6c0.3-0.1,0.5-0.2,0.8-0.2c0.2,0,0.5,0.1,0.7,0.2c0.2,0.1,0.3,0.3,0.4,0.5
		c0,0,0,0.1,0.1,0.2c0,0.1,0,0.1,0.1,0.2c0.2,0.4,0.4,0.8,0.6,1.2s0.6,0.9,1,1.3s0.9,0.7,1.6,1c0.6,0.3,1.4,0.4,2.3,0.4
		s1.7-0.2,2.4-0.5c0.7-0.3,1.3-0.7,1.7-1.2c0.5-0.5,0.8-1,1-1.6s0.4-1.2,0.4-1.8c0-0.7-0.1-1.4-0.3-2c-0.2-0.6-0.5-1.1-1-1.5
		s-1.2-0.8-2.1-1s-2-0.4-3.4-0.4v-2.4c1.1,0,2.1-0.1,2.9-0.4s1.4-0.6,2-1c0.5-0.4,0.9-0.9,1.1-1.5s0.3-1.2,0.3-1.9
		c0-0.8-0.1-1.4-0.4-2c-0.2-0.6-0.6-1-1-1.4s-0.9-0.6-1.5-0.8s-1.2-0.3-1.9-0.3s-1.3,0.1-1.9,0.3s-1.1,0.5-1.5,0.8
		c-0.4,0.4-0.8,0.8-1.1,1.3c-0.3,0.5-0.5,1-0.7,1.6c-0.1,0.4-0.2,0.6-0.4,0.8s-0.5,0.2-0.8,0.2c-0.1,0-0.1,0-0.2,0s-0.1,0-0.2,0
		l-1.7-0.3c0.2-1.2,0.5-2.3,1-3.2s1.1-1.7,1.9-2.3s1.6-1.1,2.6-1.4C-110.3,600.6-109.3,600.4-108.1,600.4z"/>
	<path class="st3" d="M-76.4,617.6h4v1.9c0,0.2-0.1,0.4-0.2,0.5s-0.3,0.2-0.5,0.2h-3.3v7h-2.9v-7H-91c-0.2,0-0.5-0.1-0.6-0.2
		c-0.2-0.1-0.3-0.3-0.3-0.5l-0.3-1.7l12.9-17.1h3.1v16.9H-76.4z M-79.4,606.7c0-0.3,0-0.7,0-1s0.1-0.8,0.1-1.1l-9.6,13.1h9.5V606.7z
		"/>
	<path class="st3" d="M-48.6,602.1c0,0.5-0.1,0.9-0.4,1.2c-0.3,0.3-0.8,0.5-1.5,0.5h-8.3l-1.2,7c1.4-0.3,2.7-0.4,3.8-0.4
		c1.4,0,2.6,0.2,3.7,0.6c1.1,0.4,1.9,1,2.7,1.7c0.7,0.7,1.3,1.6,1.6,2.5c0.4,1,0.5,2,0.5,3.2c0,1.4-0.2,2.7-0.7,3.8s-1.2,2.1-2,2.9
		c-0.9,0.8-1.9,1.4-3,1.9c-1.2,0.4-2.4,0.6-3.8,0.6c-0.8,0-1.5-0.1-2.2-0.2c-0.7-0.2-1.4-0.4-2-0.6c-0.6-0.3-1.2-0.6-1.7-0.9
		s-1-0.7-1.4-1.1l1-1.4c0.2-0.3,0.5-0.5,0.9-0.5c0.2,0,0.5,0.1,0.8,0.3s0.7,0.4,1.1,0.6c0.4,0.2,1,0.4,1.6,0.6s1.3,0.3,2.1,0.3
		c0.9,0,1.8-0.1,2.5-0.4c0.7-0.3,1.4-0.7,1.9-1.3c0.5-0.5,0.9-1.2,1.2-2s0.4-1.6,0.4-2.6c0-0.8-0.1-1.6-0.4-2.2
		c-0.2-0.7-0.6-1.2-1.1-1.7s-1.1-0.8-1.8-1.1s-1.6-0.4-2.6-0.4c-0.7,0-1.4,0.1-2.1,0.2c-0.7,0.1-1.5,0.3-2.2,0.5l-2.1-0.6l2.1-12.4
		h12.6C-48.6,600.7-48.6,602.1-48.6,602.1z"/>
	<path class="st3" d="M-28.2,611c1.1,0,2.1,0.2,3,0.5c1,0.4,1.8,0.9,2.5,1.5c0.7,0.7,1.3,1.5,1.7,2.5c0.4,1,0.6,2.1,0.6,3.4
		c0,1.2-0.2,2.4-0.7,3.4c-0.4,1-1.1,2-1.9,2.7c-0.8,0.8-1.8,1.4-2.9,1.8s-2.4,0.7-3.7,0.7c-1.3,0-2.5-0.2-3.6-0.6
		c-1.1-0.4-2-1-2.8-1.8s-1.4-1.7-1.8-2.8s-0.6-2.4-0.6-3.7c0-1.2,0.3-2.4,0.8-3.7s1.3-2.7,2.5-4.2l6.7-9c0.2-0.2,0.4-0.4,0.7-0.6
		c0.3-0.2,0.7-0.2,1.1-0.2h2.9l-9.2,11.6c0.6-0.4,1.3-0.8,2.1-1C-29.9,611.1-29.1,611-28.2,611z M-35.1,619c0,0.9,0.1,1.6,0.4,2.3
		c0.2,0.7,0.6,1.3,1.1,1.8s1.1,0.9,1.7,1.2s1.5,0.4,2.3,0.4c0.9,0,1.7-0.1,2.4-0.4c0.7-0.3,1.3-0.7,1.8-1.2s0.9-1.1,1.2-1.8
		c0.3-0.7,0.4-1.4,0.4-2.3c0-0.9-0.1-1.6-0.4-2.3s-0.7-1.3-1.1-1.8c-0.5-0.5-1.1-0.9-1.8-1.1c-0.7-0.3-1.4-0.4-2.3-0.4
		s-1.7,0.2-2.4,0.5s-1.3,0.7-1.8,1.2s-0.9,1.1-1.1,1.8C-34.9,617.6-35.1,618.3-35.1,619z"/>
	<path class="st3" d="M6.3,600.7v1.5c0,0.4,0,0.8-0.1,1c-0.1,0.3-0.2,0.5-0.3,0.7l-11,22.1c-0.2,0.3-0.4,0.6-0.7,0.8
		c-0.3,0.2-0.7,0.3-1.1,0.3h-2.3l11.1-21.9c0.2-0.3,0.3-0.6,0.5-0.9c0.2-0.3,0.4-0.5,0.6-0.7h-13.8c-0.2,0-0.4-0.1-0.6-0.2
		c-0.2-0.2-0.2-0.4-0.2-0.6v-2.2H6.3V600.7z"/>
	<path class="st3" d="M23.4,627.5c-1.3,0-2.5-0.2-3.6-0.5s-2-0.9-2.8-1.5c-0.8-0.7-1.4-1.4-1.8-2.4c-0.4-0.9-0.6-2-0.6-3.1
		c0-1.7,0.4-3.1,1.3-4.2c0.9-1.1,2.2-1.9,3.8-2.4c-1.4-0.5-2.4-1.3-3.2-2.3c-0.7-1-1.1-2.3-1.1-3.7c0-1,0.2-1.9,0.6-2.7
		c0.4-0.9,0.9-1.6,1.6-2.2s1.5-1.1,2.5-1.5s2.1-0.5,3.3-0.5c1.2,0,2.3,0.2,3.3,0.5c1,0.4,1.8,0.9,2.5,1.5s1.2,1.4,1.6,2.2
		c0.4,0.9,0.6,1.8,0.6,2.7c0,1.4-0.4,2.7-1.1,3.7s-1.8,1.8-3.1,2.3c1.7,0.5,2.9,1.3,3.8,2.4c0.9,1.1,1.3,2.5,1.3,4.2
		c0,1.2-0.2,2.2-0.7,3.1c-0.4,0.9-1,1.7-1.8,2.4s-1.7,1.2-2.8,1.5S24.7,627.5,23.4,627.5z M23.4,624.9c0.9,0,1.6-0.1,2.3-0.4
		c0.7-0.2,1.3-0.6,1.7-1c0.5-0.4,0.8-1,1.1-1.6c0.3-0.6,0.4-1.3,0.4-2c0-0.9-0.2-1.7-0.5-2.3s-0.7-1.2-1.2-1.6s-1.1-0.7-1.8-0.9
		c-0.7-0.2-1.4-0.3-2.1-0.3s-1.4,0.1-2.1,0.3s-1.3,0.5-1.8,0.9s-0.9,0.9-1.2,1.6c-0.3,0.6-0.5,1.4-0.5,2.3c0,0.7,0.1,1.4,0.4,2
		s0.6,1.1,1.1,1.6s1.1,0.8,1.7,1C21.7,624.8,22.5,624.9,23.4,624.9z M23.4,612.1c0.9,0,1.6-0.1,2.2-0.4c0.6-0.3,1.1-0.6,1.5-1.1
		c0.4-0.4,0.7-0.9,0.8-1.5c0.2-0.6,0.3-1.2,0.3-1.8s-0.1-1.2-0.3-1.7c-0.2-0.5-0.5-1-0.9-1.4s-0.9-0.7-1.5-1
		c-0.6-0.2-1.3-0.4-2.1-0.4s-1.5,0.1-2.1,0.4c-0.6,0.2-1.1,0.6-1.5,1s-0.7,0.9-0.9,1.4c-0.2,0.5-0.3,1.1-0.3,1.7
		c0,0.6,0.1,1.2,0.3,1.8s0.5,1.1,0.8,1.5c0.4,0.4,0.9,0.8,1.5,1.1C21.8,612,22.5,612.1,23.4,612.1z"/>
	<path class="st3" d="M49.3,616.3c-1,0-1.9-0.2-2.8-0.5c-0.9-0.3-1.7-0.8-2.4-1.5c-0.7-0.6-1.2-1.4-1.6-2.4c-0.4-0.9-0.6-2-0.6-3.2
		s0.2-2.2,0.6-3.3s1-1.9,1.8-2.6c0.8-0.8,1.7-1.3,2.8-1.8s2.3-0.6,3.5-0.6c1.3,0,2.4,0.2,3.5,0.6c1,0.4,1.9,1,2.7,1.8
		s1.3,1.7,1.7,2.7s0.6,2.2,0.6,3.5c0,0.8-0.1,1.5-0.2,2.2s-0.3,1.4-0.6,2c-0.3,0.7-0.6,1.3-1,2c-0.4,0.6-0.8,1.3-1.3,2l-6.5,9.3
		c-0.2,0.2-0.4,0.4-0.7,0.6s-0.6,0.2-1,0.2h-3l8.1-10.6c0.3-0.4,0.5-0.7,0.8-1c0.2-0.3,0.5-0.6,0.7-1c-0.7,0.5-1.4,1-2.3,1.2
		C51.1,616.2,50.2,616.3,49.3,616.3z M55.9,608.6c0-0.8-0.1-1.6-0.4-2.2c-0.3-0.7-0.6-1.2-1.1-1.7s-1-0.8-1.7-1.1s-1.4-0.4-2.1-0.4
		c-0.8,0-1.6,0.1-2.2,0.4c-0.7,0.3-1.2,0.6-1.7,1.1s-0.8,1-1.1,1.7s-0.4,1.4-0.4,2.1c0,0.8,0.1,1.6,0.4,2.2c0.2,0.7,0.6,1.2,1,1.7
		s1,0.8,1.6,1s1.4,0.4,2.2,0.4c0.9,0,1.7-0.1,2.4-0.4c0.7-0.3,1.3-0.7,1.7-1.2c0.5-0.5,0.8-1,1.1-1.7
		C55.8,609.9,55.9,609.3,55.9,608.6z"/>
	<path class="st3" d="M85.9,614c0,2.3-0.2,4.3-0.8,6c-0.5,1.7-1.2,3.1-2,4.2s-1.9,1.9-3.1,2.5c-1.2,0.5-2.4,0.8-3.8,0.8
		s-2.6-0.3-3.8-0.8c-1.2-0.5-2.2-1.4-3-2.5s-1.5-2.5-2-4.2s-0.7-3.7-0.7-6s0.2-4.3,0.7-6s1.2-3.1,2-4.2s1.9-1.9,3-2.5
		c1.2-0.5,2.4-0.8,3.8-0.8c1.3,0,2.6,0.3,3.8,0.8s2.2,1.4,3.1,2.5s1.5,2.5,2,4.2C85.7,609.6,85.9,611.6,85.9,614z M82.5,614
		c0-2-0.2-3.7-0.5-5.1s-0.8-2.5-1.4-3.3s-1.2-1.4-2-1.8c-0.8-0.4-1.5-0.5-2.3-0.5s-1.6,0.2-2.3,0.5c-0.8,0.4-1.4,1-2,1.8
		s-1,1.9-1.4,3.3c-0.3,1.4-0.5,3.1-0.5,5.1s0.2,3.7,0.5,5.1c0.3,1.4,0.8,2.5,1.4,3.3s1.2,1.4,2,1.8c0.8,0.4,1.5,0.5,2.3,0.5
		s1.6-0.2,2.3-0.5c0.8-0.4,1.4-1,2-1.8s1-1.9,1.4-3.3S82.5,616,82.5,614z"/>
</g>
<g class="st1">
	<path class="st3" d="M121.5,366.1h-7.2c-1.6,0-2.9-0.2-3.8-0.7c-1-0.5-1.6-1.5-1.9-3.1l-1.8-8.6c-2.4,2.2-4.8,4.1-7.1,5.9
		c-2.3,1.7-4.7,3.2-7.3,4.4c-2.6,1.2-5.3,2.1-8.2,2.7c-2.9,0.6-6.1,0.9-9.6,0.9c-3.6,0-6.9-0.5-10.1-1.5c-3.1-1-5.8-2.5-8.2-4.5
		c-2.3-2-4.1-4.6-5.5-7.6c-1.4-3.1-2.1-6.7-2.1-10.9c0-3.7,1-7.2,3-10.6c2-3.4,5.2-6.4,9.7-9c4.5-2.6,10.3-4.8,17.5-6.4
		c7.2-1.7,16.1-2.5,26.5-2.5v-7.2c0-7.2-1.5-12.7-4.6-16.4s-7.6-5.5-13.6-5.5c-3.9,0-7.3,0.5-10,1.5s-5,2.1-7,3.4
		c-2,1.2-3.7,2.4-5.1,3.4s-2.8,1.5-4.2,1.5c-1.1,0-2-0.3-2.9-0.9c-0.8-0.6-1.5-1.3-2-2.1l-2.9-5.2c5.1-4.9,10.6-8.6,16.5-11
		c5.9-2.4,12.4-3.6,19.6-3.6c5.2,0,9.7,0.9,13.8,2.6c4,1.7,7.4,4.1,10.1,7.1s4.8,6.7,6.2,11c1.4,4.3,2.1,9.1,2.1,14.2L121.5,366.1
		L121.5,366.1z M79.4,356.2c2.9,0,5.5-0.3,7.8-0.9c2.4-0.6,4.6-1.4,6.7-2.5c2.1-1.1,4.1-2.4,6-3.9s3.8-3.2,5.6-5.2v-19
		c-7.5,0-13.8,0.5-19,1.4c-5.2,0.9-9.5,2.2-12.8,3.7s-5.7,3.3-7.2,5.4c-1.5,2.1-2.2,4.4-2.2,7c0,2.4,0.4,4.6,1.2,6.3
		c0.8,1.8,1.9,3.2,3.2,4.4c1.3,1.1,2.9,2,4.7,2.5C75.3,355.9,77.3,356.2,79.4,356.2z"/>
</g>
<g class="st1">
	<path d="M-229.5,299.7h-3.6c-0.4,0-0.8-0.1-1-0.3c-0.2-0.2-0.5-0.5-0.6-0.8l-3.3-8.4h-15.6l-3.3,8.4c-0.1,0.3-0.3,0.6-0.6,0.8
		c-0.3,0.2-0.6,0.3-1,0.3h-3.6l13.9-34.8h4.8L-229.5,299.7z M-252.3,286.7h13l-5.5-14.2c-0.4-0.9-0.7-2-1-3.3
		c-0.2,0.7-0.4,1.3-0.5,1.8c-0.2,0.6-0.3,1-0.5,1.5L-252.3,286.7z"/>
	<path d="M-207.8,299.7h-1.9c-0.4,0-0.8-0.1-1-0.2c-0.3-0.1-0.4-0.4-0.5-0.8l-0.5-2.3c-0.6,0.6-1.3,1.1-1.9,1.6
		c-0.6,0.5-1.3,0.8-1.9,1.2c-0.7,0.3-1.4,0.6-2.2,0.7c-0.8,0.2-1.6,0.2-2.6,0.2s-1.8-0.1-2.7-0.4c-0.8-0.3-1.6-0.7-2.2-1.2
		c-0.6-0.5-1.1-1.2-1.5-2s-0.5-1.8-0.5-2.9c0-1,0.3-1.9,0.8-2.8c0.5-0.9,1.4-1.7,2.6-2.4c1.2-0.7,2.7-1.3,4.7-1.7
		c1.9-0.4,4.3-0.7,7.1-0.7v-1.9c0-1.9-0.4-3.4-1.2-4.4s-2-1.5-3.6-1.5c-1.1,0-1.9,0.1-2.7,0.4c-0.7,0.3-1.3,0.6-1.9,0.9
		c-0.5,0.3-1,0.6-1.4,0.9s-0.8,0.4-1.1,0.4s-0.5-0.1-0.8-0.2c-0.2-0.2-0.4-0.3-0.5-0.6l-0.8-1.4c1.4-1.3,2.8-2.3,4.4-2.9
		c1.6-0.6,3.3-1,5.2-1c1.4,0,2.6,0.2,3.7,0.7s2,1.1,2.7,1.9s1.3,1.8,1.7,2.9c0.4,1.1,0.6,2.4,0.6,3.8v15.7H-207.8z M-219,297
		c0.8,0,1.5-0.1,2.1-0.2c0.6-0.2,1.2-0.4,1.8-0.7c0.6-0.3,1.1-0.6,1.6-1c0.5-0.4,1-0.9,1.5-1.4v-5.1c-2,0-3.7,0.1-5.1,0.4
		c-1.4,0.3-2.5,0.6-3.4,1c-0.9,0.4-1.5,0.9-1.9,1.4c-0.4,0.6-0.6,1.2-0.6,1.9s0.1,1.2,0.3,1.7s0.5,0.9,0.8,1.2
		c0.4,0.3,0.8,0.5,1.3,0.7C-220.1,296.9-219.5,297-219,297z"/>
	<path d="M-149.5,282.3c0,1.6-0.2,3.2-0.5,4.7s-0.8,2.8-1.4,4.1c-0.6,1.3-1.4,2.4-2.3,3.5c-0.9,1-1.9,1.9-3.1,2.7l8.9,9.6h-3.9
		c-0.6,0-1.1-0.1-1.6-0.2c-0.5-0.2-0.9-0.4-1.2-0.8l-6.1-6.7c-0.9,0.3-1.9,0.5-2.9,0.7s-2,0.2-3.1,0.2c-2.6,0-4.9-0.4-7-1.3
		c-2.1-0.9-3.9-2.1-5.4-3.7c-1.5-1.6-2.7-3.4-3.5-5.6s-1.2-4.6-1.2-7.2c0-2.6,0.4-5,1.2-7.2s2-4.1,3.5-5.6c1.5-1.6,3.3-2.8,5.4-3.7
		c2.1-0.9,4.4-1.3,7-1.3s4.9,0.4,7,1.3c2.1,0.9,3.9,2.1,5.4,3.7c1.5,1.6,2.7,3.5,3.5,5.6C-149.9,277.3-149.5,279.7-149.5,282.3z
		 M-154.3,282.3c0-2.1-0.3-4.1-0.9-5.8c-0.6-1.7-1.4-3.1-2.5-4.3s-2.4-2.1-3.9-2.7c-1.5-0.6-3.2-0.9-5.1-0.9c-1.9,0-3.6,0.3-5.1,0.9
		c-1.5,0.6-2.8,1.5-3.9,2.7c-1.1,1.2-1.9,2.6-2.5,4.3c-0.6,1.7-0.9,3.6-0.9,5.8c0,2.1,0.3,4.1,0.9,5.7c0.6,1.7,1.4,3.1,2.5,4.3
		c1.1,1.2,2.4,2.1,3.9,2.7c1.5,0.6,3.2,0.9,5.1,0.9c1.9,0,3.6-0.3,5.1-0.9c1.5-0.6,2.8-1.5,3.9-2.7c1.1-1.2,1.9-2.6,2.5-4.3
		C-154.6,286.3-154.3,284.4-154.3,282.3z"/>
	<path d="M-123.8,275.1V308h-4.3v-12c-1,1.2-2.2,2.2-3.5,2.9c-1.3,0.7-2.8,1.1-4.5,1.1c-1.4,0-2.7-0.3-3.8-0.8s-2.1-1.3-2.9-2.4
		c-0.8-1.1-1.4-2.4-1.9-3.9s-0.7-3.4-0.7-5.4c0-1.8,0.2-3.5,0.7-5.1c0.5-1.6,1.2-2.9,2.1-4.1c0.9-1.1,2-2.1,3.3-2.7
		c1.3-0.7,2.8-1,4.5-1c1.6,0,2.9,0.3,4,0.8c1.1,0.6,2.1,1.4,3,2.4l0.3-1.9c0.2-0.6,0.5-0.9,1.2-0.9L-123.8,275.1L-123.8,275.1z
		 M-134.8,296.5c1.4,0,2.6-0.3,3.7-1c1.1-0.6,2-1.6,2.9-2.7v-11.9c-0.8-1-1.6-1.8-2.6-2.2s-2-0.7-3.2-0.7c-2.3,0-4.1,0.8-5.3,2.5
		c-1.2,1.6-1.8,4-1.8,7c0,1.6,0.1,3,0.4,4.1c0.3,1.1,0.7,2.1,1.2,2.8c0.5,0.7,1.2,1.3,2,1.6C-136.7,296.3-135.8,296.5-134.8,296.5z"
		/>
	<path d="M-92,285.1v14.5h-4.7v-34.8h9.8c2.2,0,4.1,0.2,5.7,0.7c1.6,0.4,2.9,1.1,4,1.9c1,0.8,1.8,1.9,2.3,3c0.5,1.2,0.8,2.5,0.8,4
		c0,1.2-0.2,2.4-0.6,3.4s-1,2-1.7,2.9c-0.7,0.8-1.6,1.6-2.7,2.2c-1.1,0.6-2.3,1.1-3.6,1.4c0.6,0.3,1.1,0.8,1.6,1.5l10.2,13.8h-4.2
		c-0.9,0-1.5-0.3-1.9-1l-9-12.4c-0.3-0.4-0.6-0.7-0.9-0.8c-0.3-0.2-0.8-0.3-1.5-0.3L-92,285.1L-92,285.1z M-92,281.7h4.9
		c1.4,0,2.6-0.2,3.6-0.5s1.9-0.8,2.6-1.4c0.7-0.6,1.2-1.3,1.6-2.2s0.5-1.8,0.5-2.8c0-2.1-0.7-3.6-2.1-4.7c-1.4-1.1-3.4-1.6-6.1-1.6
		h-5.1L-92,281.7L-92,281.7z"/>
	<path d="M-66.5,299.7v-24.6h2.5c0.5,0,0.8,0.1,1,0.3c0.2,0.2,0.3,0.5,0.4,0.9l0.3,3.8c0.8-1.7,1.9-3.1,3.1-4c1.2-1,2.7-1.4,4.4-1.4
		c0.7,0,1.3,0.1,1.8,0.2c0.6,0.2,1.1,0.4,1.5,0.6l-0.6,3.2c-0.1,0.4-0.4,0.6-0.8,0.6c-0.2,0-0.6-0.1-1-0.2c-0.5-0.2-1.1-0.2-2-0.2
		c-1.5,0-2.8,0.4-3.8,1.3c-1,0.9-1.9,2.1-2.5,3.8v15.7L-66.5,299.7L-66.5,299.7z"/>
</g>
<g class="st1">
	<path d="M-228,366.1h-5.1c-0.6,0-1-0.1-1.4-0.4s-0.6-0.6-0.8-1.1l-2.6-7.2h-14.5l-2.6,7.2c-0.1,0.4-0.4,0.7-0.8,1s-0.8,0.5-1.4,0.5
		h-5.1l13.8-35.1h6.7L-228,366.1z M-250.7,352.9h11.2l-4.3-11.7c-0.2-0.5-0.4-1.1-0.6-1.8c-0.2-0.7-0.5-1.5-0.7-2.3
		c-0.2,0.8-0.4,1.6-0.7,2.3c-0.2,0.7-0.4,1.3-0.6,1.9L-250.7,352.9z"/>
	<path d="M-205.2,366.1h-2.7c-0.6,0-1-0.1-1.3-0.3s-0.6-0.5-0.7-1l-0.5-1.8c-0.6,0.6-1.3,1.1-1.9,1.5c-0.6,0.4-1.2,0.8-1.9,1.1
		c-0.6,0.3-1.3,0.5-2.1,0.7s-1.5,0.2-2.4,0.2c-1.1,0-2-0.1-2.9-0.4s-1.7-0.7-2.3-1.3s-1.1-1.3-1.5-2.1c-0.4-0.8-0.5-1.8-0.5-2.9
		c0-0.9,0.2-1.9,0.7-2.8c0.5-0.9,1.3-1.7,2.5-2.5c1.1-0.7,2.7-1.4,4.6-1.8c1.9-0.5,4.3-0.7,7.1-0.7v-1.5c0-1.7-0.4-2.9-1.1-3.7
		c-0.7-0.8-1.7-1.2-3.1-1.2c-1,0-1.8,0.1-2.4,0.3c-0.6,0.2-1.2,0.5-1.7,0.8s-0.9,0.5-1.3,0.8c-0.4,0.2-0.9,0.3-1.3,0.3
		c-0.4,0-0.8-0.1-1-0.3c-0.3-0.2-0.5-0.5-0.7-0.8l-1.1-1.9c2.9-2.6,6.3-3.9,10.4-3.9c1.5,0,2.8,0.2,3.9,0.7s2.1,1.1,2.9,2
		c0.8,0.8,1.4,1.9,1.8,3c0.4,1.2,0.6,2.5,0.6,3.9v15.6H-205.2z M-216.8,362.4c0.6,0,1.2-0.1,1.7-0.2c0.5-0.1,1-0.3,1.5-0.5
		s0.9-0.5,1.3-0.8c0.4-0.3,0.9-0.7,1.3-1.2v-4.2c-1.7,0-3.2,0.1-4.4,0.3s-2.1,0.5-2.8,0.8s-1.2,0.7-1.5,1.2s-0.4,1-0.4,1.5
		c0,1.1,0.3,1.8,0.9,2.3C-218.7,362.2-217.8,362.4-216.8,362.4z"/>
	<path d="M-146.5,348.6c0,1.6-0.2,3.1-0.5,4.5c-0.3,1.4-0.8,2.8-1.4,4c-0.6,1.2-1.3,2.4-2.2,3.4s-1.9,2-3,2.8l8.9,9.7h-5.4
		c-0.8,0-1.5-0.1-2.1-0.3c-0.6-0.2-1.2-0.6-1.7-1.2l-5.1-5.7c-0.8,0.2-1.7,0.4-2.5,0.5c-0.8,0.1-1.8,0.2-2.7,0.2
		c-2.7,0-5.1-0.4-7.3-1.3c-2.2-0.9-4.1-2.1-5.6-3.8c-1.6-1.6-2.8-3.5-3.6-5.7c-0.9-2.2-1.3-4.6-1.3-7.2c0-2.6,0.4-5,1.3-7.2
		c0.9-2.2,2.1-4.1,3.6-5.7c1.6-1.6,3.4-2.9,5.6-3.8c2.2-0.9,4.6-1.3,7.3-1.3s5.1,0.5,7.3,1.4c2.2,0.9,4.1,2.2,5.6,3.8
		c1.6,1.6,2.8,3.5,3.6,5.7C-146.9,343.6-146.5,346-146.5,348.6z M-153.2,348.6c0-1.9-0.3-3.7-0.8-5.2s-1.2-2.8-2.2-3.9
		c-1-1.1-2.1-1.9-3.5-2.5c-1.4-0.6-2.9-0.8-4.6-0.8s-3.3,0.3-4.6,0.8c-1.4,0.6-2.5,1.4-3.5,2.5c-1,1.1-1.7,2.4-2.2,3.9
		s-0.8,3.3-0.8,5.2s0.3,3.7,0.8,5.2s1.3,2.8,2.2,3.9c1,1.1,2.1,1.9,3.5,2.4c1.4,0.6,2.9,0.8,4.6,0.8s3.3-0.3,4.6-0.8
		c1.4-0.6,2.5-1.4,3.5-2.4c1-1.1,1.7-2.4,2.2-3.9C-153.5,352.2-153.2,350.5-153.2,348.6z"/>
	<path d="M-120.5,341.2v33h-6v-11.3c-0.5,0.5-1,1-1.6,1.4c-0.6,0.4-1.2,0.8-1.8,1.1c-0.6,0.3-1.3,0.5-2,0.7s-1.5,0.3-2.3,0.3
		c-1.4,0-2.6-0.3-3.7-0.8c-1.1-0.6-2.1-1.4-2.9-2.5c-0.8-1.1-1.4-2.4-1.9-4c-0.4-1.6-0.7-3.4-0.7-5.4c0-1.8,0.3-3.6,0.8-5.1
		c0.5-1.6,1.2-3,2.2-4.1c0.9-1.2,2.1-2.1,3.4-2.7c1.3-0.7,2.8-1,4.4-1c0.8,0,1.5,0.1,2.1,0.2c0.6,0.1,1.2,0.3,1.8,0.6
		c0.5,0.3,1,0.6,1.5,0.9c0.5,0.4,0.9,0.8,1.3,1.2l0.3-1.4c0.1-0.4,0.3-0.6,0.5-0.8c0.3-0.2,0.6-0.3,1-0.3L-120.5,341.2L-120.5,341.2
		z M-132.2,361.7c1.2,0,2.3-0.3,3.2-0.8s1.7-1.3,2.5-2.2v-11.2c-0.7-0.8-1.4-1.4-2.2-1.7s-1.7-0.5-2.6-0.5c-0.9,0-1.7,0.2-2.5,0.5
		c-0.7,0.3-1.4,0.9-1.9,1.5c-0.5,0.7-0.9,1.6-1.2,2.6s-0.4,2.3-0.4,3.8s0.1,2.7,0.4,3.7c0.2,1,0.6,1.8,1,2.5s1,1.1,1.6,1.4
		S-132.9,361.7-132.2,361.7z"/>
	<path d="M-88.2,352.4v13.7h-6.5V331H-84c2.4,0,4.4,0.2,6.2,0.7c1.7,0.5,3.1,1.2,4.2,2.1c1.1,0.9,1.9,2,2.4,3.2s0.8,2.6,0.8,4.1
		c0,1.2-0.2,2.3-0.5,3.4c-0.3,1.1-0.8,2-1.5,2.9c-0.7,0.9-1.5,1.6-2.4,2.3c-1,0.6-2.1,1.2-3.3,1.6c0.8,0.5,1.5,1.1,2.1,2l8.8,13
		h-5.9c-0.6,0-1-0.1-1.4-0.3c-0.4-0.2-0.7-0.5-1-1l-7.4-11.2c-0.3-0.4-0.6-0.7-0.9-0.9s-0.8-0.3-1.5-0.3h-2.9V352.4z M-88.2,347.7
		h4.1c1.2,0,2.3-0.2,3.2-0.5c0.9-0.3,1.7-0.7,2.3-1.3c0.6-0.5,1-1.2,1.3-1.9s0.4-1.6,0.4-2.5c0-1.8-0.6-3.1-1.8-4.1
		c-1.2-1-3-1.4-5.4-1.4h-4.2L-88.2,347.7L-88.2,347.7z"/>
	<path d="M-63.5,366.1v-24.9h3.5c0.6,0,1,0.1,1.3,0.3c0.2,0.2,0.4,0.6,0.5,1.2l0.4,3c0.9-1.5,1.9-2.8,3.1-3.6c1.2-0.9,2.5-1.3,4-1.3
		c1.2,0,2.2,0.3,3.1,0.8l-0.8,4.5c0,0.3-0.2,0.5-0.3,0.6c-0.2,0.1-0.4,0.2-0.7,0.2c-0.2,0-0.6-0.1-1-0.2c-0.4-0.1-1-0.2-1.7-0.2
		c-1.2,0-2.3,0.3-3.2,1s-1.6,1.7-2.3,3V366L-63.5,366.1L-63.5,366.1z"/>
</g>
</svg>
