<?xml version="1.0" encoding="utf-8"?>
<!-- Generator: Adobe Illustrator 16.0.4, SVG Export Plug-In . SVG Version: 6.00 Build 0)  -->
<!DOCTYPE svg PUBLIC "-//W3C//DTD SVG 1.1//EN" "http://www.w3.org/Graphics/SVG/1.1/DTD/svg11.dtd">
<svg version="1.1" id="Layer_1" xmlns="http://www.w3.org/2000/svg" xmlns:xlink="http://www.w3.org/1999/xlink" x="0px" y="0px"
	 width="800px" height="800px" viewBox="0 0 800 800" enable-background="new 0 0 800 800" xml:space="preserve">
<g id="XMLID_86_">
	<g id="XMLID_87_">
		<path id="XMLID_18_" fill="#659CD3" d="M397.306,675.948c0.609-18.871-3.043-36.521-7.913-52.958
			c-4.87-16.436-10.957-31.652-17.044-45.043c-6.087-13.394-12.173-25.565-18.87-34.698c-6.695-9.739-13.391-17.042-21.913-21.913
			c-8.521-4.87-18.262-7.304-29.218-8.521c-11.565-1.217-24.35-0.609-39.567,0.609c-14.608,1.217-31.043,3.042-48.087,6.694
			c-17.043,3.651-34.088,9.133-50.522,18.871c-16.436,9.131-29.827,21.913-38.957,37.739c-9.132,15.826-14,35.305-12.784,56
			c1.218,21.306,8.522,44.437,21.914,65.743c13.392,21.912,34.087,41.997,59.045,56.608c24.956,14.607,52.348,22.521,77.914,24.347
			c25.566,1.827,49.306-3.042,68.175-12.172s33.479-22.524,43.219-38.35C392.437,712.47,397.306,694.818,397.306,675.948z"/>
	</g>
</g>
<g id="XMLID_82_">
	<g id="XMLID_83_">
		<path id="XMLID_16_" fill="#7262AA" d="M634.094,543.249c-15.826-9.739-33.479-15.824-49.915-19.479
			c-17.041-4.26-32.869-6.693-47.477-7.911c-14.61-1.218-28-1.826-39.568-1.218c-11.562,0.608-21.303,3.043-29.827,7.914
			c-8.521,4.87-15.824,12.174-22.52,21.304c-6.695,9.131-12.784,20.695-19.479,34.089c-6.089,13.391-12.782,28.607-17.655,45.043
			c-4.868,16.437-9.129,34.087-9.129,52.958c0,18.87,4.261,36.521,13.392,52.35c9.13,15.823,23.737,29.827,42.61,38.957
			c18.868,9.74,42.607,14.609,68.174,13.392c25.565-1.22,52.96-8.523,78.523-23.133c24.957-13.998,45.652-34.088,60.264-55.391
			c13.998-21.307,21.913-44.437,23.739-65.133c1.824-21.304-3.044-40.783-11.566-56.61
			C663.311,565.771,649.921,552.989,634.094,543.249z"/>
	</g>
</g>
<g id="XMLID_78_">
	<g id="XMLID_79_">
		<path id="XMLID_14_" fill="#F17275" d="M626.181,268.114c-16.436,9.131-29.827,21.305-42.002,33.479
			c-12.172,12.783-21.912,25.565-30.434,37.739c-8.522,12.174-15.826,23.131-20.696,33.48c-4.868,10.348-7.912,19.479-7.912,29.827
			c0,9.739,2.433,19.479,7.304,29.827c4.868,10.349,11.565,21.911,20.085,34.087c8.523,12.174,18.263,25.566,29.828,37.738
			c11.566,12.785,24.956,24.96,41.394,34.089c16.434,9.131,33.478,14.609,52.348,14.609c18.261,0,37.13-5.479,55.393-17.044
			c17.653-11.565,34.087-29.218,45.652-51.74c12.173-22.521,19.479-49.914,19.479-79.132c0.608-29.217-6.087-57.218-17.653-79.741
			c-11.565-23.13-27.39-40.783-45.045-52.958c-17.651-12.173-36.522-17.653-54.782-18.26
			C660.269,254.114,642.614,258.984,626.181,268.114z"/>
	</g>
</g>
<g id="XMLID_74_">
	<g id="XMLID_75_">
		<path id="XMLID_12_" fill="#F9AA75" d="M399.74,126.286c-0.606,18.868,3.045,36.521,7.913,52.957
			c4.873,16.436,10.96,31.652,17.047,45.043c6.084,13.393,12.173,25.567,18.868,34.697c6.695,9.739,13.391,17.042,21.912,21.913
			c8.523,4.871,18.263,7.305,29.221,8.522c11.563,1.218,24.349,0.608,39.564-0.607c14.608-1.219,31.046-3.044,48.088-6.696
			c17.044-3.653,34.089-9.131,50.524-18.872c16.434-9.129,29.827-21.912,38.957-37.738c9.129-15.827,13.999-35.306,12.781-56.001
			c-1.216-21.306-8.521-44.437-21.911-65.741c-13.394-21.913-34.089-42.001-59.046-56.61c-24.958-14.608-52.35-22.522-77.917-24.348
			c-26.172-1.218-49.911,3.652-68.783,12.782c-18.867,9.132-33.478,22.522-43.218,38.349
			C404.002,89.763,399.74,107.415,399.74,126.286z"/>
	</g>
</g>
<g id="XMLID_70_">
	<g id="XMLID_71_">
		<path id="XMLID_10_" fill="#FACE78" d="M162.954,258.984c15.827,9.739,33.479,15.827,49.915,19.478
			c17.043,4.261,32.869,6.696,47.478,7.914s28.001,1.826,39.566,1.217c11.565-0.608,21.304-3.044,29.827-7.914
			c8.521-4.868,15.827-12.172,22.522-21.304c6.696-9.131,12.783-20.695,19.479-34.088c6.087-13.39,12.783-28.608,17.653-45.043
			c4.87-16.436,9.131-34.089,9.131-52.957c0-18.871-4.261-36.523-13.392-52.35c-9.131-15.827-23.74-29.827-42.609-38.958
			c-18.262-10.348-42.001-15.826-67.568-14.608c-25.565,1.216-52.957,8.522-78.523,23.131c-25.566,14-45.653,34.087-60.262,55.391
			c-14,21.306-21.914,44.436-23.74,65.132c-1.825,21.305,3.045,40.783,11.566,56.61
			C133.736,236.461,147.128,249.244,162.954,258.984z"/>
	</g>
</g>
<g id="XMLID_66_">
	<g id="XMLID_67_">
		<path id="XMLID_8_" fill="#6EB45F" d="M170.867,534.117c16.435-9.129,29.827-21.303,42.002-33.478
			c12.173-12.172,21.913-25.564,30.435-37.74c8.522-12.174,15.826-23.13,20.696-33.479c4.87-10.348,7.914-19.478,7.914-29.826
			c0-9.739-2.435-19.479-7.305-29.828c-4.87-10.348-11.565-21.912-20.087-34.086c-8.521-12.175-18.261-25.565-29.827-37.74
			c-11.565-12.783-24.957-24.957-41.392-34.087c-16.435-9.132-33.479-14.61-52.349-14.61c-18.261,0-37.131,5.478-55.392,17.044
			c-17.653,11.565-34.087,29.217-45.653,51.74C8.343,339.942,1.038,367.333,1.038,396.55C0.43,425.77,7.125,453.77,18.69,476.9
			c11.565,23.132,27.392,40.783,45.045,52.958c17.652,12.175,36.523,17.652,54.784,18.262
			C136.78,548.12,154.433,543.249,170.867,534.117z"/>
	</g>
</g>
</svg>
