<?xml version="1.0" encoding="utf-8"?>
<!-- Generator: Adobe Illustrator 19.0.0, SVG Export Plug-In . SVG Version: 6.00 Build 0)  -->
<svg version="1.1" id="Layer_1" xmlns="http://www.w3.org/2000/svg" xmlns:xlink="http://www.w3.org/1999/xlink" x="0px" y="0px"
	 viewBox="0 0 480.3 128.8" style="enable-background:new 0 0 480.3 128.8;" xml:space="preserve">
<style type="text/css">
	.st0{fill:#268F3B;}
	.st1{fill:#659CD3;}
	.st2{fill:#7262AA;}
	.st3{fill:#F17275;}
	.st4{fill:#F9AA75;}
	.st5{fill:#FACE78;}
	.st6{fill:#6EB45F;}
</style>
<path id="XMLID_125_" class="st0" d="M153.7,65.4v2c0,0.7,0,1.3,0.1,2c0.1,0.7,0.2,1.3,0.5,2c0.2,0.6,0.5,1.2,0.9,1.8
	c0.8,1.1,1.8,1.9,3.1,2.5c1.3,0.6,2.6,0.8,3.9,0.8c1.3,0,2.5-0.3,3.7-0.8c1.2-0.5,2.3-1.3,3.1-2.3c0.5-0.6,0.8-1.1,1-1.8
	c0.2-0.6,0.4-1.3,0.5-2c0.1-0.7,0.2-1.4,0.2-2.1v-2.1V44.8h3.9v21.7c0,0.9,0,1.8-0.1,2.7c-0.1,0.8-0.2,1.7-0.4,2.5
	c-0.2,0.8-0.5,1.6-0.9,2.3c-0.4,0.7-1,1.5-1.6,2.2c-1.2,1.3-2.6,2.3-4.3,2.9c-1.6,0.7-3.3,1-5.1,1c-1.7,0-3.3-0.3-4.8-0.9
	c-1.6-0.6-2.9-1.5-4.1-2.6c-0.8-0.7-1.4-1.5-1.8-2.2c-0.4-0.8-0.8-1.5-1-2.4c-0.2-0.8-0.4-1.7-0.5-2.6c-0.1-0.9-0.1-1.8-0.1-2.8
	V44.8h3.9V65.4z"/>
<polygon id="XMLID_124_" class="st0" points="190.9,43.3 217.9,71.6 217.9,44.8 221.7,44.8 221.7,81 194.7,52.8 194.7,79.4 
	190.9,79.4 "/>
<path id="XMLID_123_" class="st0" d="M264.5,52.4c-1.4-1.4-3-2.6-4.8-3.4c-1.8-0.8-3.7-1.2-5.8-1.2c-1.9,0-3.7,0.4-5.4,1.2
	c-1.7,0.8-3.2,1.8-4.4,3.1c-1.3,1.3-2.3,2.8-3,4.6c-0.7,1.7-1.1,3.5-1.1,5.4c0,1.9,0.4,3.7,1.1,5.4c0.7,1.7,1.7,3.3,3,4.6
	c1.3,1.3,2.8,2.4,4.5,3.1c1.7,0.8,3.5,1.2,5.5,1.2c2,0,3.8-0.4,5.7-1.3c1.8-0.8,3.4-2,4.8-3.3v4.8c-1.5,1.1-3.1,1.9-4.9,2.5
	c-1.8,0.6-3.6,0.9-5.4,0.9c-2.5,0-4.8-0.5-7-1.4c-2.2-0.9-4.1-2.2-5.7-3.8c-1.6-1.6-2.9-3.5-3.9-5.7c-1-2.2-1.4-4.5-1.4-6.9
	c0-2.5,0.5-4.8,1.4-7c0.9-2.2,2.2-4.1,3.9-5.7c1.6-1.6,3.6-2.9,5.7-3.9c2.2-0.9,4.5-1.4,7-1.4c3.9,0,7.3,1.1,10.3,3.4V52.4z"/>
<path id="XMLID_120_" class="st0" d="M296.5,44.2c2.5,0,4.8,0.5,7,1.4c2.2,0.9,4.1,2.2,5.7,3.9c1.6,1.6,2.9,3.5,3.9,5.7
	c0.9,2.2,1.4,4.5,1.4,7c0,2.5-0.5,4.8-1.4,7c-0.9,2.2-2.2,4.1-3.9,5.7c-1.6,1.6-3.6,2.9-5.7,3.8c-2.2,0.9-4.5,1.4-7,1.4
	c-2.5,0-4.8-0.5-7-1.4c-2.2-0.9-4.1-2.2-5.7-3.8c-1.6-1.6-2.9-3.5-3.9-5.7c-0.9-2.2-1.4-4.5-1.4-7c0-2.5,0.5-4.8,1.4-7
	c0.9-2.2,2.2-4.1,3.9-5.7c1.6-1.6,3.6-2.9,5.7-3.9C291.7,44.7,294.1,44.2,296.5,44.2 M296.5,47.8c-2,0-3.9,0.4-5.6,1.1
	c-1.7,0.8-3.2,1.8-4.5,3.1c-1.3,1.3-2.3,2.8-3,4.6c-0.7,1.7-1.1,3.6-1.1,5.6s0.4,3.8,1.1,5.5c0.7,1.7,1.7,3.2,3,4.5
	c1.3,1.3,2.8,2.3,4.5,3.1c1.7,0.8,3.6,1.1,5.5,1.1c2,0,3.8-0.4,5.5-1.1c1.7-0.8,3.2-1.8,4.5-3.1c1.3-1.3,2.3-2.8,3-4.5
	c0.7-1.7,1.1-3.6,1.1-5.5s-0.4-3.8-1.1-5.6c-0.7-1.7-1.7-3.3-3-4.6c-1.3-1.3-2.8-2.3-4.5-3.1C300.4,48.2,298.5,47.8,296.5,47.8"/>
<path id="XMLID_117_" class="st0" d="M332.9,79.4H329V44.8h5c1.7,0,3.2,0.1,4.8,0.4c1.5,0.3,2.9,0.7,4,1.4c1.2,0.7,2.1,1.7,2.8,2.9
	c0.7,1.2,1.1,2.8,1.1,4.8c0,2.7-0.8,4.9-2.3,6.6c-1.5,1.7-3.7,2.7-6.4,2.9l11,15.5h-4.7l-10.5-15.2h-1V79.4z M332.9,60.8h1.2
	c1.1,0,2.2-0.1,3.2-0.2c1-0.1,2-0.4,2.8-0.9c0.8-0.4,1.5-1.1,2-1.9c0.5-0.8,0.8-1.9,0.8-3.2c0-1.4-0.2-2.5-0.7-3.4
	c-0.5-0.8-1.1-1.5-2-1.9c-0.8-0.4-1.7-0.7-2.8-0.8c-1.1-0.1-2.2-0.2-3.3-0.2h-1.1V60.8z"/>
<polygon id="XMLID_116_" class="st0" points="381.7,44.8 386.9,44.8 370.6,60.9 387.5,79.5 382.1,79.5 367.9,63.6 367,64.5 
	367,79.5 363.1,79.5 363.1,44.8 367,44.8 367,59.6 "/>
<polygon id="XMLID_115_" class="st0" points="400.4,44.8 418.3,44.8 418.3,48.4 404.2,48.4 404.2,58.7 417.9,58.7 417.9,62.3 
	404.2,62.3 404.2,75.9 418.3,75.9 418.3,79.5 400.4,79.5 "/>
<path id="XMLID_112_" class="st0" d="M434.1,44.8h6.5c1.3,0,2.5,0.1,3.7,0.2c1.2,0.1,2.3,0.3,3.4,0.6c1.1,0.3,2.2,0.7,3.2,1.3
	c1.1,0.6,2.1,1.3,3.1,2.1c2,1.7,3.4,3.7,4.4,5.9c0.9,2.2,1.4,4.7,1.4,7.3c0,2.5-0.5,4.9-1.4,7.1c-0.9,2.2-2.3,4.1-4.3,5.8
	c-1,0.9-2.1,1.7-3.1,2.2c-1,0.6-2.1,1-3.2,1.3c-1.1,0.3-2.3,0.5-3.5,0.6c-1.2,0.1-2.5,0.2-3.8,0.2h-6.4V44.8z M440.7,75.9
	c1,0,2.1,0,3-0.1c1-0.1,1.9-0.3,2.8-0.5c0.9-0.3,1.8-0.6,2.6-1.1c0.8-0.5,1.7-1.1,2.5-1.8c1.4-1.3,2.5-2.9,3.2-4.6
	c0.7-1.7,1.1-3.6,1.1-5.5c0-2-0.4-3.9-1.1-5.7c-0.8-1.8-1.9-3.4-3.4-4.7c-1.6-1.4-3.3-2.3-5-2.7c-1.8-0.4-3.7-0.6-5.7-0.6h-2.8v27.5
	H440.7z"/>
<path id="XMLID_109_" class="st0" d="M468.3,74h-2v5.4h-0.6V74h-2v-0.6h4.6V74z M470.5,73.4l2,4.7h0l2-4.7h1v6h-0.6V74h-0.1
	l-2.4,5.4h0l-2.3-5.4h-0.1v5.4h-0.6v-6H470.5z"/>
<polygon id="XMLID_108_" class="st0" points="159.4,99.4 150.9,99.4 150.9,92.9 149.6,92.9 149.6,107.1 150.9,107.1 150.9,100.4 
	159.4,100.4 159.4,107.1 160.7,107.1 160.7,92.9 159.4,92.9 "/>
<polygon id="XMLID_107_" class="st0" points="171.9,107.1 180.5,107.1 180.5,106 173.2,106 173.2,100.5 179.3,100.5 179.3,99.4 
	173.2,99.4 173.2,94 180.5,94 180.5,92.9 171.9,92.9 "/>
<path id="XMLID_104_" class="st0" d="M195.4,92.9l-5.8,14.3h1c0.1,0,0.2,0,0.3-0.1c0.1-0.1,0.1-0.2,0.2-0.2l1.6-4h6.7l1.6,4
	c0,0.1,0.1,0.2,0.2,0.2c0.1,0.1,0.2,0.1,0.3,0.1h1l-5.8-14.3H195.4z M196,94.5C196,94.5,196,94.5,196,94.5
	C196,94.5,196,94.5,196,94.5c0.1,0.1,0.1,0.3,0.2,0.4l2.8,6.9H193l2.8-6.9C195.9,94.8,195.9,94.7,196,94.5"/>
<polygon id="XMLID_103_" class="st0" points="213.1,92.9 211.8,92.9 211.8,107.1 219.7,107.1 219.7,106 213.1,106 "/>
<polygon id="XMLID_102_" class="st0" points="225.9,94 230.9,94 230.9,107.1 232.2,107.1 232.2,94 237.1,94 237.1,92.9 225.9,92.9 
	"/>
<polygon id="XMLID_101_" class="st0" points="256.4,99.4 247.9,99.4 247.9,92.9 246.6,92.9 246.6,107.1 247.9,107.1 247.9,100.4 
	256.4,100.4 256.4,107.1 257.7,107.1 257.7,92.9 256.4,92.9 "/>
<path id="XMLID_98_" class="st0" d="M290,102.3c0.2-0.7,0.3-1.3,0.4-2l0-0.1h-0.7c-0.2,0-0.2,0.1-0.3,0.1c-0.1,0.1-0.1,0.2-0.1,0.3
	c-0.1,0.5-0.2,1-0.3,1.5c-0.2,0.4-0.4,0.9-0.6,1.3l-4.3-4.2c-0.6-0.6-1-1.1-1.3-1.6c-0.3-0.5-0.4-1-0.4-1.5c0-0.3,0.1-0.7,0.2-0.9
	c0.1-0.3,0.3-0.5,0.5-0.7c0.2-0.2,0.5-0.4,0.8-0.5c0.3-0.1,0.7-0.2,1-0.2c0.4,0,0.7,0.1,1,0.2c0.3,0.1,0.5,0.3,0.7,0.5
	c0.2,0.2,0.3,0.4,0.4,0.6c0.1,0.2,0.2,0.4,0.2,0.6c0,0.1,0.1,0.2,0.1,0.2c0.2,0.1,0.3,0.1,0.6,0c0.1,0,0.2,0,0.2-0.1l0.1,0l0-0.1
	c0-0.4-0.1-0.8-0.3-1.1c-0.2-0.4-0.4-0.7-0.7-0.9c-0.3-0.3-0.7-0.5-1.1-0.6c-0.4-0.2-0.8-0.2-1.3-0.2c-0.5,0-1.1,0.1-1.5,0.3
	c-0.4,0.2-0.8,0.4-1.2,0.7c-0.3,0.3-0.6,0.7-0.7,1.1c-0.2,0.4-0.3,0.9-0.3,1.3c0,0.6,0.1,1.1,0.4,1.7c0.2,0.5,0.5,0.9,0.9,1.4
	c-0.4,0.2-0.8,0.4-1.2,0.6c-0.4,0.3-0.8,0.6-1.1,1c-0.3,0.4-0.5,0.8-0.7,1.2c-0.2,0.4-0.3,0.9-0.3,1.4c0,0.6,0.1,1.2,0.4,1.6
	c0.2,0.5,0.6,0.9,1,1.2c0.4,0.3,0.8,0.6,1.3,0.8c0.5,0.2,1,0.3,1.5,0.3c0.5,0,1-0.1,1.5-0.2c0.5-0.1,0.9-0.3,1.4-0.5
	c0.4-0.2,0.8-0.5,1.2-0.8c0.3-0.3,0.6-0.6,0.9-0.9l1.9,1.9c0.1,0.1,0.2,0.2,0.3,0.2c0.1,0,0.2,0,0.3,0h1.2l-3.1-3
	C289.5,103.5,289.8,102.9,290,102.3 M287.7,104.3c-0.2,0.3-0.5,0.5-0.7,0.7c-0.3,0.3-0.6,0.5-1,0.6c-0.3,0.2-0.7,0.3-1.1,0.4
	c-0.7,0.2-1.5,0.2-2.4,0c-0.4-0.1-0.7-0.3-1-0.5c-0.3-0.2-0.5-0.5-0.7-0.9c-0.2-0.4-0.3-0.8-0.3-1.3c0-0.4,0.1-0.7,0.2-1.1
	c0.1-0.3,0.3-0.7,0.5-1c0.2-0.3,0.5-0.6,0.9-0.8c0.3-0.2,0.7-0.4,1.1-0.6c0,0,0,0,0,0L287.7,104.3z"/>
<path id="XMLID_97_" class="st0" d="M329.1,93c-0.1,0.1-0.2,0.2-0.2,0.3l-3.5,11.5c0,0.1,0,0.2-0.1,0.3c0-0.1-0.1-0.2-0.1-0.3
	l-4-11.5c0-0.1-0.1-0.2-0.2-0.2c-0.1-0.1-0.2-0.1-0.3-0.1h-0.3c-0.1,0-0.2,0-0.3,0.1c-0.1,0.1-0.1,0.2-0.2,0.3l-4,11.5
	c0,0.1-0.1,0.2-0.1,0.3c0-0.1,0-0.2-0.1-0.3l-3.5-11.5c-0.1-0.2-0.2-0.4-0.5-0.4h-1l4.5,14.2l0,0.1h1.1l4.2-12.2c0,0,0,0,0,0
	c0,0,0,0,0,0l4.1,12.1l0,0.1h1.1l4.4-14.1l0.1-0.2h-1C329.3,92.9,329.2,92.9,329.1,93"/>
<polygon id="XMLID_96_" class="st0" points="339.8,107.1 348.4,107.1 348.4,106 341.1,106 341.1,100.5 347.2,100.5 347.2,99.4 
	341.1,99.4 341.1,94 348.4,94 348.4,92.9 339.8,92.9 "/>
<polygon id="XMLID_95_" class="st0" points="359.7,92.9 358.4,92.9 358.4,107.1 366.4,107.1 366.4,106 359.7,106 "/>
<polygon id="XMLID_94_" class="st0" points="377.2,92.9 376,92.9 376,107.1 383.9,107.1 383.9,106 377.2,106 "/>
<path id="XMLID_93_" class="st0" d="M403.4,104.8c0,0,0,0.1,0,0.1l-8.8-11.7c-0.1-0.1-0.1-0.2-0.2-0.2c-0.1,0-0.2,0-0.3,0h-0.6v14.3
	h1.2V95.2c0,0,0-0.1,0-0.1l8.8,11.8c0.1,0.2,0.3,0.3,0.5,0.3h0.6V92.9h-1.2V104.8z"/>
<polygon id="XMLID_92_" class="st0" points="415.7,107.1 424.4,107.1 424.4,106 417,106 417,100.5 423.1,100.5 423.1,99.4 417,99.4 
	417,94 424.4,94 424.4,92.9 415.7,92.9 "/>
<path id="XMLID_91_" class="st0" d="M441.3,100.4c-0.3-0.3-0.7-0.5-1.2-0.7c-0.4-0.2-0.9-0.3-1.3-0.5c-0.4-0.1-0.9-0.3-1.3-0.4
	c-0.4-0.1-0.8-0.3-1.1-0.5c-0.3-0.2-0.6-0.5-0.8-0.8c-0.2-0.3-0.3-0.7-0.3-1.1c0-0.3,0.1-0.7,0.2-1c0.1-0.3,0.3-0.6,0.6-0.8
	c0.2-0.2,0.6-0.4,0.9-0.6c0.4-0.1,0.8-0.2,1.3-0.2c0.5,0,0.9,0.1,1.2,0.2c0.3,0.1,0.6,0.3,0.8,0.4c0.2,0.1,0.4,0.3,0.5,0.4
	c0.2,0.1,0.3,0.2,0.4,0.2c0.1,0,0.3,0,0.4-0.2l0.3-0.5l-0.1-0.1c-0.5-0.5-1-0.9-1.6-1.1c-0.6-0.2-1.3-0.4-2-0.4
	c-0.7,0-1.3,0.1-1.8,0.3c-0.5,0.2-1,0.5-1.3,0.8c-0.4,0.3-0.6,0.7-0.8,1.2c-0.2,0.4-0.3,0.9-0.3,1.4c0,0.6,0.1,1.1,0.3,1.6
	c0.2,0.4,0.5,0.8,0.8,1c0.3,0.3,0.7,0.5,1.2,0.7c0.4,0.2,0.9,0.3,1.3,0.5c0.4,0.1,0.9,0.3,1.3,0.4c0.4,0.1,0.8,0.3,1.1,0.5
	c0.3,0.2,0.6,0.5,0.8,0.8c0.2,0.3,0.3,0.7,0.3,1.1c0,0.4-0.1,0.9-0.2,1.2c-0.1,0.4-0.4,0.7-0.7,1c-0.3,0.3-0.6,0.5-1.1,0.7
	c-0.4,0.2-0.9,0.2-1.4,0.2c-0.4,0-0.7,0-1-0.1c-0.3-0.1-0.6-0.2-0.8-0.3c-0.2-0.1-0.4-0.2-0.6-0.4c-0.2-0.1-0.3-0.3-0.5-0.4
	c-0.1-0.1-0.2-0.2-0.3-0.3c-0.1-0.1-0.2-0.2-0.3-0.2c-0.1,0-0.3,0-0.4,0.2l-0.3,0.5l0.1,0.1c0.5,0.6,1.1,1,1.8,1.4
	c0.7,0.3,1.5,0.5,2.4,0.5c0.7,0,1.4-0.1,1.9-0.3c0.6-0.2,1.1-0.5,1.4-0.9c0.4-0.4,0.7-0.9,0.9-1.4c0.2-0.5,0.3-1.1,0.3-1.7
	c0-0.6-0.1-1.1-0.3-1.5C441.9,101,441.6,100.7,441.3,100.4"/>
<path id="XMLID_90_" class="st0" d="M460,101.4c-0.2-0.4-0.5-0.7-0.8-1c-0.3-0.3-0.7-0.5-1.2-0.7c-0.4-0.2-0.9-0.3-1.3-0.5
	c-0.4-0.1-0.9-0.3-1.3-0.4c-0.4-0.1-0.8-0.3-1.1-0.5c-0.3-0.2-0.6-0.5-0.8-0.8c-0.2-0.3-0.3-0.7-0.3-1.1c0-0.3,0.1-0.7,0.2-1
	c0.1-0.3,0.3-0.6,0.6-0.8c0.2-0.2,0.6-0.4,0.9-0.6c0.4-0.1,0.8-0.2,1.3-0.2c0.5,0,0.9,0.1,1.2,0.2c0.3,0.1,0.6,0.3,0.8,0.4
	c0.2,0.1,0.4,0.3,0.5,0.4c0.2,0.1,0.3,0.2,0.4,0.2c0.1,0,0.3,0,0.4-0.2l0.3-0.5l-0.1-0.1c-0.5-0.5-1-0.9-1.6-1.1
	c-0.6-0.2-1.3-0.4-2-0.4c-0.7,0-1.3,0.1-1.8,0.3c-0.5,0.2-1,0.5-1.3,0.8c-0.4,0.3-0.6,0.7-0.8,1.2c-0.2,0.4-0.3,0.9-0.3,1.4
	c0,0.6,0.1,1.1,0.3,1.6c0.2,0.4,0.5,0.8,0.8,1c0.3,0.3,0.7,0.5,1.2,0.7c0.4,0.2,0.9,0.3,1.3,0.5c0.4,0.1,0.9,0.3,1.3,0.4
	c0.4,0.1,0.8,0.3,1.1,0.5c0.3,0.2,0.6,0.5,0.8,0.8c0.2,0.3,0.3,0.7,0.3,1.1c0,0.4-0.1,0.8-0.2,1.2c-0.2,0.4-0.4,0.7-0.7,1
	c-0.3,0.3-0.6,0.5-1.1,0.7c-0.4,0.2-0.9,0.2-1.4,0.2c-0.4,0-0.7,0-1-0.1c-0.3-0.1-0.6-0.2-0.8-0.3c-0.2-0.1-0.4-0.2-0.6-0.4
	c-0.2-0.1-0.3-0.3-0.5-0.4c-0.1-0.1-0.2-0.2-0.3-0.3c-0.1-0.1-0.2-0.2-0.3-0.2c-0.1,0-0.3,0-0.4,0.2l-0.3,0.5l0.1,0.1
	c0.5,0.6,1.1,1,1.8,1.4c0.7,0.3,1.5,0.5,2.4,0.5c0.7,0,1.4-0.1,1.9-0.3c0.6-0.2,1.1-0.5,1.4-0.9c0.4-0.4,0.7-0.9,0.9-1.4
	c0.2-0.5,0.3-1.1,0.3-1.7C460.3,102.3,460.2,101.8,460,101.4"/>
<g id="XMLID_86_">
	<g id="XMLID_87_">
		<path id="XMLID_18_" class="st1" d="M71.1,108.7c0.1-3.1-0.5-6-1.3-8.7C69,97.3,68,94.8,67,92.6c-1-2.2-2-4.2-3.1-5.7
			c-1.1-1.6-2.2-2.8-3.6-3.6c-1.4-0.8-3-1.2-4.8-1.4c-1.9-0.2-4-0.1-6.5,0.1c-2.4,0.2-5.1,0.5-7.9,1.1c-2.8,0.6-5.6,1.5-8.3,3.1
			c-2.7,1.5-4.9,3.6-6.4,6.2c-1.5,2.6-2.3,5.8-2.1,9.2c0.2,3.5,1.4,7.3,3.6,10.8c2.2,3.6,5.6,6.9,9.7,9.3c4.1,2.4,8.6,3.7,12.8,4
			c4.2,0.3,8.1-0.5,11.2-2c3.1-1.5,5.5-3.7,7.1-6.3C70.3,114.7,71.1,111.8,71.1,108.7z"/>
	</g>
</g>
<g id="XMLID_82_">
	<g id="XMLID_83_">
		<path id="XMLID_16_" class="st2" d="M110,86.9c-2.6-1.6-5.5-2.6-8.2-3.2c-2.8-0.7-5.4-1.1-7.8-1.3c-2.4-0.2-4.6-0.3-6.5-0.2
			c-1.9,0.1-3.5,0.5-4.9,1.3c-1.4,0.8-2.6,2-3.7,3.5c-1.1,1.5-2.1,3.4-3.2,5.6c-1,2.2-2.1,4.7-2.9,7.4c-0.8,2.7-1.5,5.6-1.5,8.7
			c0,3.1,0.7,6,2.2,8.6c1.5,2.6,3.9,4.9,7,6.4c3.1,1.6,7,2.4,11.2,2.2c4.2-0.2,8.7-1.4,12.9-3.8c4.1-2.3,7.5-5.6,9.9-9.1
			c2.3-3.5,3.6-7.3,3.9-10.7c0.3-3.5-0.5-6.7-1.9-9.3C114.8,90.6,112.6,88.5,110,86.9z"/>
	</g>
</g>
<g id="XMLID_78_">
	<g id="XMLID_79_">
		<path id="XMLID_14_" class="st3" d="M108.7,41.7c-2.7,1.5-4.9,3.5-6.9,5.5c-2,2.1-3.6,4.2-5,6.2c-1.4,2-2.6,3.8-3.4,5.5
			c-0.8,1.7-1.3,3.2-1.3,4.9c0,1.6,0.4,3.2,1.2,4.9c0.8,1.7,1.9,3.6,3.3,5.6c1.4,2,3,4.2,4.9,6.2c1.9,2.1,4.1,4.1,6.8,5.6
			c2.7,1.5,5.5,2.4,8.6,2.4c3,0,6.1-0.9,9.1-2.8c2.9-1.9,5.6-4.8,7.5-8.5c2-3.7,3.2-8.2,3.2-13c0.1-4.8-1-9.4-2.9-13.1
			c-1.9-3.8-4.5-6.7-7.4-8.7c-2.9-2-6-2.9-9-3C114.3,39.4,111.4,40.2,108.7,41.7z"/>
	</g>
</g>
<g id="XMLID_74_">
	<g id="XMLID_75_">
		<path id="XMLID_12_" class="st4" d="M71.5,18.4c-0.1,3.1,0.5,6,1.3,8.7c0.8,2.7,1.8,5.2,2.8,7.4c1,2.2,2,4.2,3.1,5.7
			c1.1,1.6,2.2,2.8,3.6,3.6c1.4,0.8,3,1.2,4.8,1.4c1.9,0.2,4,0.1,6.5-0.1c2.4-0.2,5.1-0.5,7.9-1.1c2.8-0.6,5.6-1.5,8.3-3.1
			c2.7-1.5,4.9-3.6,6.4-6.2c1.5-2.6,2.3-5.8,2.1-9.2c-0.2-3.5-1.4-7.3-3.6-10.8c-2.2-3.6-5.6-6.9-9.7-9.3c-4.1-2.4-8.6-3.7-12.8-4
			C87.9,1.2,84,2,80.9,3.5c-3.1,1.5-5.5,3.7-7.1,6.3C72.2,12.4,71.5,15.3,71.5,18.4z"/>
	</g>
</g>
<g id="XMLID_70_">
	<g id="XMLID_71_">
		<path id="XMLID_10_" class="st5" d="M32.6,40.2c2.6,1.6,5.5,2.6,8.2,3.2c2.8,0.7,5.4,1.1,7.8,1.3c2.4,0.2,4.6,0.3,6.5,0.2
			c1.9-0.1,3.5-0.5,4.9-1.3c1.4-0.8,2.6-2,3.7-3.5c1.1-1.5,2.1-3.4,3.2-5.6c1-2.2,2.1-4.7,2.9-7.4c0.8-2.7,1.5-5.6,1.5-8.7
			c0-3.1-0.7-6-2.2-8.6c-1.5-2.6-3.9-4.9-7-6.4C59.1,1.7,55.2,0.8,51,1c-4.2,0.2-8.7,1.4-12.9,3.8c-4.2,2.3-7.5,5.6-9.9,9.1
			c-2.3,3.5-3.6,7.3-3.9,10.7c-0.3,3.5,0.5,6.7,1.9,9.3C27.8,36.5,30,38.6,32.6,40.2z"/>
	</g>
</g>
<g id="XMLID_66_">
	<g id="XMLID_67_">
		<path id="XMLID_8_" class="st6" d="M33.9,85.4c2.7-1.5,4.9-3.5,6.9-5.5c2-2,3.6-4.2,5-6.2c1.4-2,2.6-3.8,3.4-5.5
			c0.8-1.7,1.3-3.2,1.3-4.9c0-1.6-0.4-3.2-1.2-4.9c-0.8-1.7-1.9-3.6-3.3-5.6c-1.4-2-3-4.2-4.9-6.2c-1.9-2.1-4.1-4.1-6.8-5.6
			c-2.7-1.5-5.5-2.4-8.6-2.4c-3,0-6.1,0.9-9.1,2.8c-2.9,1.9-5.6,4.8-7.5,8.5C7.2,53.5,6,58,6,62.8C5.9,67.6,7,72.2,8.9,76
			c1.9,3.8,4.5,6.7,7.4,8.7c2.9,2,6,2.9,9,3C28.3,87.7,31.2,86.9,33.9,85.4z"/>
	</g>
</g>
</svg>
