<?xml version="1.0" encoding="utf-8"?>
<!-- Generator: Adobe Illustrator 16.0.4, SVG Export Plug-In . SVG Version: 6.00 Build 0)  -->
<!DOCTYPE svg PUBLIC "-//W3C//DTD SVG 1.1//EN" "http://www.w3.org/Graphics/SVG/1.1/DTD/svg11.dtd">
<svg version="1.1" id="Layer_1" xmlns="http://www.w3.org/2000/svg" xmlns:xlink="http://www.w3.org/1999/xlink" x="0px" y="0px"
	 width="100px" height="100px" viewBox="0 0 100 100" enable-background="new 0 0 100 100" xml:space="preserve">
<g id="bg_copy_8_">
	<ellipse fill="none" stroke="#D7B88C" stroke-miterlimit="10" cx="50" cy="50" rx="36.1" ry="36.3"/>
</g>
<g>
	<path fill="#D7B88C" d="M51.1,99.9l-7.8-0.5L37.6,90l-8.4-3.7l-10.7,2.2l-5.7-5.4l1.7-10.8l-4.1-8.2L0.8,58.9L0,51.1l8.2-7.2
		l2.2-8.9l-4-10.2l4.3-6.6L21.6,18l7.4-5.5l3.4-10.4L39.9,0l8.5,6.9l9.1,0.6l9.3-5.7L74,4.9l2.1,10.7l6.601,6.3l10.8,1.6l3.5,7.1
		l-5.3,9.6l1,9.1l7.2,8.2L98.1,65.2L87.9,69L82.8,76.7L83.1,87.6l-6.3,4.7l-10.3-3.6l-8.8,2.6L51.1,99.9z M44.4,97.5l5.8,0.4
		l6.5-8.301l10-2.899L76.6,90.1l4.7-3.5L81,76.1l5.8-8.699l9.8-3.801L98,58l-7-7.8l-1.2-10.4l5.101-9.2L92.3,25.4L81.9,23.9
		l-7.5-7.2l-2-10.3L67,3.9l-9,5.6L47.6,8.8l-8.2-6.6l-5.6,1.6l-3.3,10L22.3,20l-10.5,0.2L8.6,25l3.9,9.8L10,45l-7.9,6.9l0.6,5.8
		l9.2,5l4.6,9.399L15,82.4l4.2,4L29.5,84.3l9.5,4.2L44.4,97.5z M50,84.3C31.2,84.3,15.8,68.9,15.8,50c0-19,15.3-34.3,34.2-34.3
		C68.8,15.7,84.1,31,84.1,50C84.1,68.9,68.8,84.3,50,84.3z M50,17.6c-17.8,0-32.2,14.5-32.2,32.3c0,17.8,14.4,32.4,32.2,32.4
		S82.2,67.8,82.2,50S67.7,17.6,50,17.6z"/>
</g>
<g id="D4D8fP_2_">
	<g>
		<path fill="#D7B88C" d="M45.8,26.6c0.6,0.6,1.7-0.1,2.4,0.4c-2.7,1.4-7.7,1.2-8.2,4.3c2.3-0.7,4.3-2.3,7.4-2.6
			c1.6-0.1,3.3,0.2,4.8-0.1c0.7-0.1,1.3-0.5,2-0.5c1.7,0,2.899,1.5,4.3,0.7c-0.7-2.9-4.7-1.6-7.5-2C49.3,26.5,46.8,24.5,45.8,26.6z
			 M42.3,28.1c1,0.3,2.1-0.3,2.7-0.8C44.7,25.9,42.1,26.8,42.3,28.1z M34.6,43.4c1.1-0.9,1.4-2.2,2.2-3.4c0.7-1.1,2-2,2.4-3
			c0.3-0.8,0.2-1.7,0.5-2.3c1.1-2.1,5.4-3.7,8.6-3.9c2.5-0.2,4.4-0.2,6.5-0.7c-0.899,1.6-3.899,1.2-6.3,1.4
			c-3.5,0.2-7.8,1.6-8.2,4.6c2.6-1.1,5.1-3.1,8.6-3.4c1.5-0.1,3.3,0.2,4.6-0.1c0.7-0.2,1.4-0.8,2.2-0.8c3.899-0.1,5.5,4.5,8.899,4.2
			c0.2-1.7-1.8-2.1-3.1-2.8c-1-0.6-1.9-1.3-2.8-1.9c-1.4-0.9-2.3-2.5-4.7-2.3c-0.7,0.1-1.5,0.4-2.3,0.5c-1.2,0.2-2.6,0-3.9,0.1
			c-3.8,0.3-8.5,2.4-9.6,4.7c-0.3,0.6-0.1,1.4-0.4,2C37,38.1,33.4,40,34.6,43.4z M58.7,29.7c0.3,1.4,2.3,2.5,3.6,2.4
			C61.9,30.6,60.6,29.4,58.7,29.7z M54.7,32.8c0.8,1.1,2.2,1.2,3.1,1.8c0.9,0.5,1.9,1.3,2.601,2.2c0.399,0.5,0.5,1.3,0.899,1.8
			c0.9,1,2.4,1.5,3.4,2.6c1,1,1.2,2.5,2.7,3c0.5-2.6-2.601-4.5-4.4-5.7c-1.5-2-3.3-5.1-6.3-5.8C55.9,32.4,55.2,32.3,54.7,32.8z
			 M62.4,36.1c0,1.9,2.199,2.8,3.6,3.4C66.1,37.5,64.3,36.4,62.4,36.1z M55.4,41.3C48.6,38.6,40.5,44.4,40.3,50.9
			c0,1.5,0.7,3.5,0.8,5.399c0.4,5.601,2,10.5,6.1,12.3c1.2,0.5,2.6,0.7,3.8,1.2c1.1,0.5,2,1.5,3.1,1.9c1.2,0.399,2.601,0.2,4,0.5
			c1,0.2,1.801,1.3,3,0.7C60.7,70.5,57.7,71.1,56,70.6c-2.2-0.6-4.4-2.1-5.9-3.399c-2.1-1.8-4.2-5.2-4.8-8.4
			c-0.2-1.1,0.2-2.6-0.8-3.5c-1.5,0.2-0.8,2.101-0.7,3c0.6,3.3,2,6.601,3.8,8.5c-3.9-1.399-4.5-6.5-4.8-11.399
			c-0.1-1.601-0.7-3.101-0.5-4.7c0.5-5.3,6.2-10.2,12.5-7.8c1.9,0.7,3.5,2.5,5,3.9c0.9,0.9,1.8,1.4,2.4,2.3c1.1,1.6,1.7,3.8,2.6,5.7
			c0.4,0.9,0.9,2,1.3,2.8c0.4,0.7,0.801,1.9,1.9,1.9c0.6-1.9-1.1-3.8-2-5.7c-0.9-1.899-1.5-4-2.6-5.7c-1-1.6-2.601-2.9-3.9-4.3
			c-2.3-2.6-3-5-6.9-5.8c-0.8-0.2-3.3-0.5-3.399,0.5c-0.1,1.1,1.7,0.8,2.8,0.9C53.3,39.8,54.8,40.3,55.4,41.3z M48.6,38.9
			c-0.3,0-0.1-0.4-0.4-0.4c-2.3,0.1-5.3,2.2-6.6,3.9c-2.5,3.2-5,7.7-4.6,13.3c0,0.399,0.3,3.1,1.2,3c1-0.2-0.1-3.7,0.1-5.101
			c0.1-0.6,0.5-1.1,0.7-1.8c0.6-2.2,1-4.1,2.2-6c1-1.5,2.3-3.2,3.8-4.3C46.3,40.5,47.9,40.7,48.6,38.9z M59.1,41.3
			c-0.6,1.5,0.9,2,1.601,2.6c2.2,1.8,3.5,4.1,4.7,7.2c0.6,1.7,1.3,3.601,2.699,4.5c0.4-1.899-0.8-3.699-1.5-5.399
			C65.9,48.5,65.4,46.6,64.4,45.3c-1.2-1.5-3.5-3-5.101-3.9C59.3,41.3,59.2,41.3,59.1,41.3z M44.3,54.9c0.3-2.2,0-4.301,0.9-6.101
			c2.1-4,7.2-4.5,10.899-1.6c1.4,1.1,3,2.5,3.601,4.1c-2.9-1.1-4.2-4.6-7.9-5.1c-3.8-0.5-5.9,2.1-6.2,4.899
			c-0.3,2.801,0.1,6.4,0.8,8.9c1,3.5,3.4,6.5,6.1,8.3c0.8,0.5,1.7,0.7,2.6,1.101C55.9,69.8,56.6,70.8,57.5,70.3
			c-0.7-2.5-3.2-2.6-5-3.899c-2.7-2.2-4.3-5.301-4.8-10.2c-0.3-2.5-1.2-5,0.3-7.2c1.2-1.8,4.1-1.9,6.1-0.8c0.9,0.5,1.801,2,2.7,3
			c0.601,0.6,1.7,1.3,2,1.8c0.7,1.2,0.3,2.5,0.5,4.2c0.3,1.7,1.7,4.2,2.8,5.5c0.7,0.8,2,2.1,3.4,1.899c-0.1-1.8-1.6-2.6-2.4-3.8
			c-1-1.399-2-3.399-1.699-6.1C61.6,52.6,62.1,51,61.1,49.6c-0.899-1.4-2.6-2.6-4-3.7c-1.699-1.4-3.899-2.6-7-2.3
			c-3.5,0.4-6.8,4.1-7,8.4C42.9,52.8,42.7,54.7,44.3,54.9z M48.5,50.4c1.1-0.5,1.9-0.5,3-0.9C51.4,47.3,47.6,48.8,48.5,50.4z
			 M51.9,48.9c-0.2,0.9,0.6,0.9,1.1,1.1c0.9,0.5,1.2,1.6,1.9,2.3c0.5,0.5,1.199,0.7,1.6,1.2c0.7,0.9,0.6,2.2,1.7,2.8
			c1.2-2.2-1.4-4.2-2.7-5.7C54.6,49.7,53.7,47.6,51.9,48.9z M62.8,70.6C61.9,69.5,60.6,69,59.4,68c-1.101-0.9-1.801-2.2-3-2.8
			c-0.601-0.4-1.5-0.4-2.2-0.8c-2.2-1.2-4.3-4.801-4.4-7.7c0-0.601,0.2-1,0.1-1.5c-0.1-1.3-0.6-3.2,1.1-3.4c1.3-0.1,1.6,1.3,2.2,2.2
			c0.399,0.7,1.3,1.3,1.7,2c2.6,4,4.5,10.2,9.399,11c-0.1-1.8-1.6-1.8-2.8-3c-2.4-2.4-3.1-6.6-5.2-9.2c-0.399-0.5-1.2-0.899-1.7-1.5
			c-1.1-1.2-1.699-3.2-4.3-2.7C48.4,51,48.4,52.7,48.6,54.7c0.1,1.7-0.1,3.2,0.3,4.6c0.5,2.101,2.3,5,4.2,6.2
			C53.9,66,54.9,66.2,55.7,66.6C57.8,67.8,59.3,71.4,62.8,70.6z M51.2,55c-1,2.4,0.3,6.2,2.2,7.4C54.1,62.9,55.1,62.9,55.8,63.3
			c2.5,1.5,4.3,6,8.2,5.4c-0.2-1.3-1.7-1.4-2.6-2c-0.801-0.5-1.4-1.4-2.2-2.3C58.5,63.6,57.5,62.9,57,62.1c-0.5-0.899-0.7-2-1.3-3
			c-1.101-1.8-1.601-3.6-3.4-4.6c-0.2-0.9-0.399-2.1-1.2-2C50.1,52.7,50.6,54.3,51.2,55z M39.4,53.1c-0.4,1.5-0.3,4.5,1.1,5
			C40.5,56.6,41.1,53.3,39.4,53.1z M62.5,53.8c-1,3.101,1.1,5.2,2.4,7C65.3,61.4,65.7,62.4,66.5,62.4c0.7-3.601-2.9-5.101-3.4-8.4
			c0-0.2-0.199-0.2-0.3-0.4C62.7,53.6,62.7,53.8,62.5,53.8z M40.2,59.3c-1.1,0.601-0.3,2-0.1,2.7c0.7,2.6,1.9,5.2,3.6,6.9
			c2.1,2.1,5.2,2,7.399,3.8c-1.899,0.399-3.7-1.2-5.2-1.2c0,2.4,2.7,2.3,5.1,2.6c2.2,0.301,3.5,2.4,5.5,2
			c-0.1-1.1-1.4-1.399-2-1.899c-1.2-1-2-2.8-3.6-3.5c-3.2-1.4-5-1.2-6.9-3.7c-1.5-2-2.1-3.8-3.4-7.3c-0.1-0.101-0.1-0.2-0.1-0.4
			C40.3,59.3,40.3,59.3,40.2,59.3z M37.9,59.7c-0.7,1.899,0.9,3.7,1.3,5.399c-1.9-0.5-1.9-4.1-3.4-5.6c-0.9,0.2-0.7,1.2-0.7,1.8
			c0.1,1.5,1.6,4,2.4,4.7c0.7,0.6,1.8,1,2.6,1.6c1.5,1.4,2.5,4.4,5,3.7c0.1-1.2-1.1-1.3-1.7-1.899c-2.6-2.2-3.5-6-4.7-9.601
			c-0.1-0.1-0.4-0.1-0.4-0.3C38.2,59.7,38.1,59.8,37.9,59.7z M36.3,66.1c0.2,1.801,1.8,2.301,2.7,3.4c-0.4,0.4-0.8-0.7-1.2-0.3
			c-0.1,1,0.7,1.1,0.9,1.8c3.5,0.6,5.3,3.7,8.7,3.9C47,73.8,45.5,73,44.3,72.3c-1.2-0.7-2.7-1.3-3.6-2.3c-0.4-0.5-0.6-1.2-1.1-1.8
			c-0.8-0.9-2-1.3-2.8-2.2C36.6,66.1,36.4,66.1,36.3,66.1z M54.7,72.9c0.1,1.699,4.399,3,4.6,1.5C59.4,73,56,72.8,54.7,72.9z"/>
		<path fill="#D7B88C" d="M52,25c-0.5,0-1,0-1.5,0c-1.6,1.1,2.2,2.1,2.4,0.7C52.8,25.2,52.3,25.2,52,25z"/>
		<path fill="#D7B88C" d="M45.8,26.6c0.6,0.6,1.7-0.1,2.4,0.4c-2.7,1.4-7.7,1.2-8.2,4.3c2.3-0.7,4.3-2.3,7.4-2.6
			c1.6-0.1,3.3,0.2,4.8-0.1c0.7-0.1,1.3-0.5,2-0.5c1.7,0,2.899,1.5,4.3,0.7c-0.7-2.9-4.7-1.6-7.5-2C49.3,26.5,46.8,24.5,45.8,26.6z"
			/>
		<path fill="#D7B88C" d="M42.3,28.1c1,0.3,2.1-0.3,2.7-0.8C44.7,25.9,42.1,26.8,42.3,28.1z"/>
		<path fill="#D7B88C" d="M34.6,43.4c1.1-0.9,1.4-2.2,2.2-3.4c0.7-1.1,2-2,2.4-3c0.3-0.8,0.2-1.7,0.5-2.3c1.1-2.1,5.4-3.7,8.6-3.9
			c2.5-0.2,4.4-0.2,6.5-0.7c-0.899,1.6-3.899,1.2-6.3,1.4c-3.5,0.2-7.8,1.6-8.2,4.6c2.6-1.1,5.1-3.1,8.6-3.4
			c1.5-0.1,3.3,0.2,4.6-0.1c0.7-0.2,1.4-0.8,2.2-0.8c3.899-0.1,5.5,4.5,8.899,4.2c0.2-1.7-1.8-2.1-3.1-2.8c-1-0.6-1.9-1.3-2.8-1.9
			c-1.4-0.9-2.3-2.5-4.7-2.3c-0.7,0.1-1.5,0.4-2.3,0.5c-1.2,0.2-2.6,0-3.9,0.1c-3.8,0.3-8.5,2.4-9.6,4.7c-0.3,0.6-0.1,1.4-0.4,2
			C37,38.1,33.4,40,34.6,43.4z"/>
		<path fill="#D7B88C" d="M58.7,29.7c0.3,1.4,2.3,2.5,3.6,2.4C61.9,30.6,60.6,29.4,58.7,29.7z"/>
		<path fill="#D7B88C" d="M54.7,32.8c0.8,1.1,2.2,1.2,3.1,1.8c0.9,0.5,1.9,1.3,2.601,2.2c0.399,0.5,0.5,1.3,0.899,1.8
			c0.9,1,2.4,1.5,3.4,2.6c1,1,1.2,2.5,2.7,3c0.5-2.6-2.601-4.5-4.4-5.7c-1.5-2-3.3-5.1-6.3-5.8C55.9,32.4,55.2,32.3,54.7,32.8z"/>
		<path fill="#D7B88C" d="M32.5,52.8c0,1.101,0,2.2,0,3.2c0.6,1.3,0.3,3.5,1.9,3.8c0.2-1.5-0.4-2.8-0.5-4.2
			c-0.5-6.399,3.2-13,6.6-16.6c3.2-3.3,10.3-6.1,15.7-3.1c1.3,0.7,2,2.4,3.6,2.2c-0.1-1.5-1.7-2.3-2.8-3c-4.2-2.8-10.2-1.7-14.1,0.5
			C37.1,38.9,33.5,45.6,32.5,52.8z"/>
		<path fill="#D7B88C" d="M68.8,51.2c0-0.4,0-0.7,0-1.1c-1.2-3.8-3.8-8.5-7.399-10.3c-0.801-0.4-1.7-0.5-2.601-0.9
			c-1.8-0.9-3.1-2.4-5-3C51,35.1,48,35.2,45.9,36c-5.5,2-11.1,10.4-11.2,17.6c0,1.9-0.2,4.5,1.3,5c0.5-0.899,0.2-1.699,0.1-2.6
			c-0.1-6,2.5-11.1,5.4-14.5c2.6-3,7.6-5.8,12.8-3.8c1.601,0.6,2.5,2,4.3,2.8c0.601,0.3,1.4,0.3,2,0.5c3,1.2,5,4.8,6.301,7.8
			C67.4,50.1,67.9,52.1,68.8,51.2z"/>
		<path fill="#D7B88C" d="M62.4,36.1c0,1.9,2.199,2.8,3.6,3.4C66.1,37.5,64.3,36.4,62.4,36.1z"/>
		<path fill="#D7B88C" d="M55.4,41.3C48.6,38.6,40.5,44.4,40.3,50.9c0,1.5,0.7,3.5,0.8,5.399c0.4,5.601,2,10.5,6.1,12.3
			c1.2,0.5,2.6,0.7,3.8,1.2c1.1,0.5,2,1.5,3.1,1.9c1.2,0.399,2.601,0.2,4,0.5c1,0.2,1.801,1.3,3,0.7C60.7,70.5,57.7,71.1,56,70.6
			c-2.2-0.6-4.4-2.1-5.9-3.399c-2.1-1.8-4.2-5.2-4.8-8.4c-0.2-1.1,0.2-2.6-0.8-3.5c-1.5,0.2-0.8,2.101-0.7,3
			c0.6,3.3,2,6.601,3.8,8.5c-3.9-1.399-4.5-6.5-4.8-11.399c-0.1-1.601-0.7-3.101-0.5-4.7c0.5-5.3,6.2-10.2,12.5-7.8
			c1.9,0.7,3.5,2.5,5,3.9c0.9,0.9,1.8,1.4,2.4,2.3c1.1,1.6,1.7,3.8,2.6,5.7c0.4,0.9,0.9,2,1.3,2.8c0.4,0.7,0.801,1.9,1.9,1.9
			c0.6-1.9-1.1-3.8-2-5.7c-0.9-1.899-1.5-4-2.6-5.7c-1-1.6-2.601-2.9-3.9-4.3c-2.3-2.6-3-5-6.9-5.8c-0.8-0.2-3.3-0.5-3.399,0.5
			c-0.1,1.1,1.7,0.8,2.8,0.9C53.3,39.8,54.8,40.3,55.4,41.3z"/>
		<path fill="#D7B88C" d="M48.6,38.9c-0.3,0-0.1-0.4-0.4-0.4c-2.3,0.1-5.3,2.2-6.6,3.9c-2.5,3.2-5,7.7-4.6,13.3
			c0,0.399,0.3,3.1,1.2,3c1-0.2-0.1-3.7,0.1-5.101c0.1-0.6,0.5-1.1,0.7-1.8c0.6-2.2,1-4.1,2.2-6c1-1.5,2.3-3.2,3.8-4.3
			C46.3,40.5,47.9,40.7,48.6,38.9z"/>
		<path fill="#D7B88C" d="M59.1,41.3c-0.6,1.5,0.9,2,1.601,2.6c2.2,1.8,3.5,4.1,4.7,7.2c0.6,1.7,1.3,3.601,2.699,4.5
			c0.4-1.899-0.8-3.699-1.5-5.399C65.9,48.5,65.4,46.6,64.4,45.3c-1.2-1.5-3.5-3-5.101-3.9C59.3,41.3,59.2,41.3,59.1,41.3z"/>
		<path fill="#D7B88C" d="M44.3,54.9c0.3-2.2,0-4.301,0.9-6.101c2.1-4,7.2-4.5,10.899-1.6c1.4,1.1,3,2.5,3.601,4.1
			c-2.9-1.1-4.2-4.6-7.9-5.1c-3.8-0.5-5.9,2.1-6.2,4.899c-0.3,2.801,0.1,6.4,0.8,8.9c1,3.5,3.4,6.5,6.1,8.3
			c0.8,0.5,1.7,0.7,2.6,1.101C55.9,69.8,56.6,70.8,57.5,70.3c-0.7-2.5-3.2-2.6-5-3.899c-2.7-2.2-4.3-5.301-4.8-10.2
			c-0.3-2.5-1.2-5,0.3-7.2c1.2-1.8,4.1-1.9,6.1-0.8c0.9,0.5,1.801,2,2.7,3c0.601,0.6,1.7,1.3,2,1.8c0.7,1.2,0.3,2.5,0.5,4.2
			c0.3,1.7,1.7,4.2,2.8,5.5c0.7,0.8,2,2.1,3.4,1.899c-0.1-1.8-1.6-2.6-2.4-3.8c-1-1.399-2-3.399-1.699-6.1
			C61.6,52.6,62.1,51,61.1,49.6c-0.899-1.4-2.6-2.6-4-3.7c-1.699-1.4-3.899-2.6-7-2.3c-3.5,0.4-6.8,4.1-7,8.4
			C42.9,52.8,42.7,54.7,44.3,54.9z"/>
		<path fill="#D7B88C" d="M48.5,50.4c1.1-0.5,1.9-0.5,3-0.9C51.4,47.3,47.6,48.8,48.5,50.4z"/>
		<path fill="#D7B88C" d="M51.9,48.9c-0.2,0.9,0.6,0.9,1.1,1.1c0.9,0.5,1.2,1.6,1.9,2.3c0.5,0.5,1.199,0.7,1.6,1.2
			c0.7,0.9,0.6,2.2,1.7,2.8c1.2-2.2-1.4-4.2-2.7-5.7C54.6,49.7,53.7,47.6,51.9,48.9z"/>
		<path fill="#D7B88C" d="M62.8,70.6C61.9,69.5,60.6,69,59.4,68c-1.101-0.9-1.801-2.2-3-2.8c-0.601-0.4-1.5-0.4-2.2-0.8
			c-2.2-1.2-4.3-4.801-4.4-7.7c0-0.601,0.2-1,0.1-1.5c-0.1-1.3-0.6-3.2,1.1-3.4c1.3-0.1,1.6,1.3,2.2,2.2c0.399,0.7,1.3,1.3,1.7,2
			c2.6,4,4.5,10.2,9.399,11c-0.1-1.8-1.6-1.8-2.8-3c-2.4-2.4-3.1-6.6-5.2-9.2c-0.399-0.5-1.2-0.899-1.7-1.5
			c-1.1-1.2-1.699-3.2-4.3-2.7C48.4,51,48.4,52.7,48.6,54.7c0.1,1.7-0.1,3.2,0.3,4.6c0.5,2.101,2.3,5,4.2,6.2
			C53.9,66,54.9,66.2,55.7,66.6C57.8,67.8,59.3,71.4,62.8,70.6z"/>
		<path fill="#D7B88C" d="M51.2,52.6c0.8-0.1,1,1.101,1.2,2c1.8,1,2.3,2.801,3.399,4.601c0.601,1,0.8,2.1,1.3,3
			c0.4,0.8,1.4,1.5,2.2,2.3c0.8,0.9,1.4,1.8,2.2,2.3c0.8,0.601,2.3,0.7,2.6,2C60.2,69.3,58.4,64.8,55.9,63.4
			c-0.7-0.4-1.7-0.4-2.4-0.9c-1.8-1.3-3.1-5-2.2-7.4C50.6,54.3,50.1,52.7,51.2,52.6z M52.8,56.5c-0.2,0-0.2,0.1-0.399,0.1
			c-0.101,1.9,0.8,4.5,2.8,4.9C54.5,59.8,53.5,58.3,52.8,56.5z"/>
		<path fill="#D7B88C" d="M39.4,53.1c-0.4,1.5-0.3,4.5,1.1,5C40.5,56.6,41.1,53.3,39.4,53.1z"/>
		<path fill="#D7B88C" d="M62.5,53.8c-1,3.101,1.1,5.2,2.4,7C65.3,61.4,65.7,62.4,66.5,62.4c0.7-3.601-2.9-5.101-3.4-8.4
			c0-0.2-0.199-0.2-0.3-0.4C62.7,53.6,62.7,53.8,62.5,53.8z"/>
		<path fill="#D7B88C" d="M52.8,56.5c-0.2,0-0.2,0.1-0.399,0.1c-0.101,1.9,0.8,4.5,2.8,4.9C54.5,59.8,53.5,58.3,52.8,56.5z"/>
		<path fill="#D7B88C" d="M40.2,59.3c-1.1,0.601-0.3,2-0.1,2.7c0.7,2.6,1.9,5.2,3.6,6.9c2.1,2.1,5.2,2,7.399,3.8
			c-1.899,0.399-3.7-1.2-5.2-1.2c0,2.4,2.7,2.3,5.1,2.6c2.2,0.301,3.5,2.4,5.5,2c-0.1-1.1-1.4-1.399-2-1.899c-1.2-1-2-2.8-3.6-3.5
			c-3.2-1.4-5-1.2-6.9-3.7c-1.5-2-2.1-3.8-3.4-7.3c-0.1-0.101-0.1-0.2-0.1-0.4C40.3,59.3,40.3,59.3,40.2,59.3z"/>
		<path fill="#D7B88C" d="M37.9,59.7c-0.7,1.899,0.9,3.7,1.3,5.399c-1.9-0.5-1.9-4.1-3.4-5.6c-0.9,0.2-0.7,1.2-0.7,1.8
			c0.1,1.5,1.6,4,2.4,4.7c0.7,0.6,1.8,1,2.6,1.6c1.5,1.4,2.5,4.4,5,3.7c0.1-1.2-1.1-1.3-1.7-1.899c-2.6-2.2-3.5-6-4.7-9.601
			c-0.1-0.1-0.4-0.1-0.4-0.3C38.2,59.7,38.1,59.8,37.9,59.7z"/>
		<path fill="#D7B88C" d="M36.3,66.1c0.2,1.801,1.8,2.301,2.7,3.4c-0.4,0.4-0.8-0.7-1.2-0.3c-0.1,1,0.7,1.1,0.9,1.8
			c3.5,0.6,5.3,3.7,8.7,3.9C47,73.8,45.5,73,44.3,72.3c-1.2-0.7-2.7-1.3-3.6-2.3c-0.4-0.5-0.6-1.2-1.1-1.8c-0.8-0.9-2-1.3-2.8-2.2
			C36.6,66.1,36.4,66.1,36.3,66.1z"/>
		<path fill="#D7B88C" d="M54.7,72.9c0.1,1.699,4.399,3,4.6,1.5C59.4,73,56,72.8,54.7,72.9z"/>
		<path fill="#D7B88C" d="M51.3,76.4c0.5,0,1,0,1.5,0c1.3-1.301-2.7-2.2-3.6-1.4C49.5,75.9,50.5,76,51.3,76.4z"/>
	</g>
</g>
</svg>
