<?xml version="1.0" encoding="utf-8"?>
<!-- Generator: Adobe Illustrator 16.0.4, SVG Export Plug-In . SVG Version: 6.00 Build 0)  -->
<!DOCTYPE svg PUBLIC "-//W3C//DTD SVG 1.1//EN" "http://www.w3.org/Graphics/SVG/1.1/DTD/svg11.dtd">
<svg version="1.1" id="Layer_1" xmlns="http://www.w3.org/2000/svg" xmlns:xlink="http://www.w3.org/1999/xlink" x="0px" y="0px"
	 width="235px" height="93px" viewBox="0 0 235 93" enable-background="new 0 0 235 93" xml:space="preserve">
<g>
	<path fill="#D7B88C" d="M155.598,55.992c0.385-1.604,2.053-2.565,3.656-2.244c0.064-0.449,0.128-0.898,0.192-1.283
		c-1.667-0.192-2.886-1.604-2.758-3.271c0.128-1.667,1.539-2.95,3.271-2.886c0-0.449-0.064-0.834-0.064-1.283
		c-0.063,0-0.127,0-0.191,0c-1.604,0-2.951-1.219-3.079-2.822c-0.192-1.667,1.026-3.143,2.63-3.399
		c-0.064-0.449-0.129-0.834-0.192-1.283c-0.257,0.064-0.513,0.128-0.771,0.128c-1.346,0-2.629-0.898-3.014-2.245
		c-0.449-1.604,0.449-3.271,1.988-3.784c-0.129-0.385-0.257-0.834-0.449-1.219c-0.385,0.192-0.834,0.256-1.219,0.256
		c-1.154,0-2.309-0.641-2.822-1.731c-0.705-1.475-0.128-3.271,1.283-4.105c-0.192-0.385-0.449-0.77-0.705-1.154
		c-0.514,0.321-1.091,0.513-1.732,0.513c-0.962,0-1.924-0.449-2.501-1.283c-1.026-1.347-0.706-3.207,0.577-4.297
		c-0.256-0.321-0.577-0.642-0.898-0.962c-0.576,0.578-1.346,0.898-2.116,0.898c-0.77,0-1.539-0.256-2.181-0.833
		c-1.219-1.155-1.283-3.079-0.192-4.297c-0.321-0.256-0.706-0.513-1.026-0.77c-0.577,0.833-1.539,1.283-2.501,1.283
		c-0.577,0-1.155-0.192-1.731-0.513c-1.412-0.898-1.797-2.758-0.963-4.233c-0.385-0.192-0.77-0.385-1.154-0.577
		c-0.577,1.09-1.668,1.731-2.822,1.731c-0.449,0-0.834-0.064-1.219-0.256c-1.539-0.642-2.244-2.373-1.667-3.913
		c-0.449-0.128-0.834-0.321-1.219-0.449c-0.385,1.347-1.604,2.309-3.015,2.309c-0.256,0-0.449,0-0.705-0.064l0,0
		c-1.604-0.385-2.63-1.988-2.373-3.592c-0.449-0.064-0.834-0.128-1.283-0.192c-0.128,1.604-1.475,2.822-3.078,2.822
		c-0.064,0-0.129,0-0.129,0c-1.667-0.128-2.95-1.476-2.95-3.143c-0.449,0-0.898,0.064-1.283,0.064
		c0.128,1.603-1.026,3.143-2.694,3.335c-0.128,0-0.256,0-0.385,0c-1.539,0-2.822-1.09-3.079-2.629
		c-0.449,0.064-0.833,0.192-1.283,0.32c0.449,1.604-0.449,3.271-2.052,3.784c-0.321,0.128-0.642,0.128-0.962,0.128
		c-1.283,0-2.437-0.77-2.886-2.052c-0.385,0.192-0.834,0.32-1.219,0.513c0.706,1.476,0.128,3.335-1.347,4.105
		c-0.449,0.256-0.962,0.321-1.475,0.321c-1.09,0-2.117-0.577-2.694-1.54c-0.385,0.257-0.77,0.449-1.09,0.706
		c0.962,1.347,0.706,3.207-0.577,4.297c-0.577,0.449-1.283,0.642-1.924,0.642c-0.898,0-1.731-0.385-2.373-1.09
		c-0.32,0.32-0.641,0.577-0.962,0.897c1.154,1.155,1.283,3.079,0.128,4.297c-0.642,0.706-1.475,1.026-2.309,1.026
		c-0.706,0-1.411-0.256-1.924-0.706c-0.256,0.321-0.513,0.706-0.77,1.026c1.347,0.962,1.732,2.822,0.898,4.233
		c-0.577,0.962-1.604,1.475-2.694,1.475c-0.513,0-1.026-0.192-1.539-0.449c-0.192,0.385-0.385,0.77-0.578,1.154
		c1.476,0.706,2.181,2.438,1.604,3.977c-0.513,1.219-1.667,1.924-2.886,1.924c-0.385,0-0.706-0.064-1.026-0.192
		c-0.128,0.449-0.257,0.833-0.321,1.283c1.604,0.385,2.629,1.988,2.309,3.592c-0.321,1.475-1.604,2.501-3.079,2.501
		c-0.128,0-0.321,0-0.449-0.064c-0.064,0.449-0.128,0.834-0.192,1.283c1.667,0.128,2.95,1.475,2.95,3.143
		c0,1.667-1.347,2.95-3.014,3.015c0,0.449,0,0.897,0.064,1.282c1.667-0.192,3.143,0.962,3.399,2.63
		c0.256,1.668-0.834,3.143-2.438,3.527c0.128,0.449,0.192,0.834,0.321,1.283c1.604-0.449,3.271,0.385,3.848,1.988
		c0.513,1.604-0.32,3.271-1.86,3.912c0.192,0.385,0.385,0.77,0.577,1.154c1.476-0.705,3.271-0.192,4.105,1.283
		c0.834,1.475,0.321,3.335-1.09,4.169c0.256,0.385,0.513,0.705,0.77,1.091c1.347-1.027,3.207-0.771,4.297,0.512
		c1.026,1.283,0.834,3.144-0.385,4.298c0.321,0.321,0.577,0.642,0.898,0.962c1.154-1.219,3.015-1.347,4.297-0.256
		c1.283,1.09,1.411,2.949,0.385,4.297c0.385,0.256,0.706,0.514,1.09,0.77c0.898-1.411,2.758-1.859,4.169-1.026
		c1.475,0.834,1.924,2.694,1.154,4.169c0.385,0.192,0.77,0.385,1.155,0.578c0.641-1.54,2.373-2.31,3.912-1.732
		c1.604,0.577,2.373,2.309,1.86,3.848c0.385,0.129,0.834,0.193,1.283,0.321c0.385-1.604,1.924-2.694,3.591-2.373
		c1.668,0.321,2.758,1.86,2.501,3.527c0.449,0.064,0.898,0.064,1.283,0.064c0.064-1.667,1.411-3.015,3.079-3.015l0,0
		c0.578,0,1.155,0.129,1.604,0.449c0.449-0.32,0.962-0.514,1.604-0.578c1.667-0.127,3.078,1.091,3.335,2.694
		c0.448-0.063,0.833-0.128,1.282-0.192c-0.385-1.604,0.578-3.271,2.245-3.656c1.604-0.448,3.207,0.514,3.784,2.053
		c0.449-0.128,0.834-0.32,1.219-0.449c-0.642-1.539,0-3.271,1.539-3.977c1.539-0.705,3.336-0.063,4.105,1.412
		c0.385-0.193,0.77-0.449,1.09-0.706c-0.834-1.411-0.514-3.271,0.834-4.233c1.347-0.962,3.271-0.641,4.297,0.642
		c0.32-0.257,0.642-0.577,0.963-0.897c-1.091-1.219-1.155-3.143,0.063-4.298c1.219-1.218,3.079-1.218,4.298-0.128
		c0.256-0.32,0.576-0.642,0.833-1.026c-1.347-1.026-1.667-2.886-0.706-4.233c0.963-1.41,2.822-1.731,4.234-0.834
		c0.191-0.385,0.448-0.705,0.705-1.09c-1.476-0.77-2.117-2.565-1.411-4.105c0.706-1.475,2.437-2.18,3.977-1.539
		c0.128-0.385,0.321-0.834,0.448-1.282C156.111,59.264,155.148,57.596,155.598,55.992z M117.436,85.111
		c-21.422,0-38.868-17.445-38.868-38.868S96.014,7.376,117.436,7.376c21.421,0,38.867,17.445,38.867,38.868
		S138.857,85.111,117.436,85.111z"/>
	<g>
		<path fill="#D7B88C" d="M83.443,39.958c2.95-16.099,17.061-28.285,33.993-28.285c16.932,0,31.042,12.187,33.994,28.285h0.896
			c-2.949-16.548-17.509-29.183-34.89-29.183c-17.446,0-31.941,12.635-34.891,29.183H83.443z"/>
		<path fill="#D7B88C" d="M151.43,52.529c-2.951,16.098-17.062,28.285-33.994,28.285c-16.933,0-31.043-12.188-33.993-28.285h-0.898
			c2.95,16.547,17.51,29.183,34.891,29.183c17.445,0,31.941-12.636,34.89-29.183H151.43z"/>
	</g>
	<path fill="#D7B88C" d="M117.5,41.241c-3.527,0-5.58,0.706-5.644,1.09v7.632c0.128,0.385,2.117,1.091,5.644,1.091
		s5.58-0.706,5.645-1.091v-7.632C123.016,41.946,121.027,41.241,117.5,41.241z"/>
	<path fill="#D7B88C" d="M136.934,58.622c0,0-12.764-6.35-12.764-8.595v-7.696c0-2.245,12.764-8.274,12.764-8.274
		c2.245,0,4.105,1.86,4.105,4.105v16.227C141.039,56.762,139.179,58.622,136.934,58.622z"/>
	<path fill="#D7B88C" d="M98.002,33.929c0,0,12.764,6.35,12.764,8.595v7.633c0,2.244-12.764,8.273-12.764,8.273
		c-2.245,0-4.104-1.859-4.104-4.105V38.034C93.897,35.789,95.757,33.929,98.002,33.929z"/>
</g>
</svg>
