<?xml version="1.0" encoding="utf-8"?>
<!-- Generator: Adobe Illustrator 19.1.0, SVG Export Plug-In . SVG Version: 6.00 Build 0)  -->
<svg version="1.1" id="Layer_1" xmlns="http://www.w3.org/2000/svg" xmlns:xlink="http://www.w3.org/1999/xlink" x="0px" y="0px"
	 viewBox="0 0 142 145" style="enable-background:new 0 0 142 145;" xml:space="preserve">
<style type="text/css">
	.st0{fill:#4D4D4F;}
</style>
<g>
	<path class="st0" d="M130.4,87.3c0.6-2.5,3.2-4,5.7-3.5c0.1-0.7,0.2-1.4,0.3-2c-2.6-0.3-4.5-2.5-4.3-5.1c0.2-2.6,2.4-4.6,5.1-4.5
		c0-0.7-0.1-1.3-0.1-2c-0.1,0-0.2,0-0.3,0c-2.5,0-4.6-1.9-4.8-4.4c-0.3-2.6,1.6-4.9,4.1-5.3c-0.1-0.7-0.2-1.3-0.3-2
		c-0.4,0.1-0.8,0.2-1.2,0.2c-2.1,0-4.1-1.4-4.7-3.5c-0.7-2.5,0.7-5.1,3.1-5.9c-0.2-0.6-0.4-1.3-0.7-1.9c-0.6,0.3-1.3,0.4-1.9,0.4
		c-1.8,0-3.6-1-4.4-2.7c-1.1-2.3-0.2-5.1,2-6.4c-0.3-0.6-0.7-1.2-1.1-1.8c-0.8,0.5-1.7,0.8-2.7,0.8c-1.5,0-3-0.7-3.9-2
		c-1.6-2.1-1.1-5,0.9-6.7c-0.4-0.5-0.9-1-1.4-1.5c-0.9,0.9-2.1,1.4-3.3,1.4c-1.2,0-2.4-0.4-3.4-1.3c-1.9-1.8-2-4.8-0.3-6.7
		c-0.5-0.4-1.1-0.8-1.6-1.2c-0.9,1.3-2.4,2-3.9,2c-0.9,0-1.8-0.3-2.7-0.8c-2.2-1.4-2.8-4.3-1.5-6.6c-0.6-0.3-1.2-0.6-1.8-0.9
		c-0.9,1.7-2.6,2.7-4.4,2.7c-0.7,0-1.3-0.1-1.9-0.4c-2.4-1-3.5-3.7-2.6-6.1c-0.7-0.2-1.3-0.5-1.9-0.7c-0.6,2.1-2.5,3.6-4.7,3.6
		c-0.4,0-0.7,0-1.1-0.1v0c-2.5-0.6-4.1-3.1-3.7-5.6c-0.7-0.1-1.3-0.2-2-0.3c-0.2,2.5-2.3,4.4-4.8,4.4c-0.1,0-0.2,0-0.2,0
		c-2.6-0.2-4.6-2.3-4.6-4.9c-0.7,0-1.4,0.1-2,0.1c0.2,2.5-1.6,4.9-4.2,5.2c-0.2,0-0.4,0-0.6,0c-2.4,0-4.4-1.7-4.8-4.1
		c-0.7,0.1-1.3,0.3-2,0.5c0.7,2.5-0.7,5.1-3.2,5.9c-0.5,0.2-1,0.2-1.5,0.2c-2,0-3.8-1.2-4.5-3.2c-0.6,0.3-1.3,0.5-1.9,0.8
		c1.1,2.3,0.2,5.2-2.1,6.4c-0.7,0.4-1.5,0.5-2.3,0.5c-1.7,0-3.3-0.9-4.2-2.4c-0.6,0.4-1.2,0.7-1.7,1.1c1.5,2.1,1.1,5-0.9,6.7
		c-0.9,0.7-2,1-3,1c-1.4,0-2.7-0.6-3.7-1.7c-0.5,0.5-1,0.9-1.5,1.4c1.8,1.8,2,4.8,0.2,6.7c-1,1.1-2.3,1.6-3.6,1.6
		c-1.1,0-2.2-0.4-3-1.1c-0.4,0.5-0.8,1.1-1.2,1.6c2.1,1.5,2.7,4.4,1.4,6.6c-0.9,1.5-2.5,2.3-4.2,2.3c-0.8,0-1.6-0.3-2.4-0.7
		c-0.3,0.6-0.6,1.2-0.9,1.8c2.3,1.1,3.4,3.8,2.5,6.2c-0.8,1.9-2.6,3-4.5,3c-0.6,0-1.1-0.1-1.6-0.3c-0.2,0.7-0.4,1.3-0.5,2
		c2.5,0.6,4.1,3.1,3.6,5.6c-0.5,2.3-2.5,3.9-4.8,3.9c-0.2,0-0.5,0-0.7-0.1c-0.1,0.7-0.2,1.3-0.3,2c2.6,0.2,4.6,2.3,4.6,4.9
		c0,2.6-2.1,4.6-4.7,4.7c0,0.7,0,1.4,0.1,2c2.6-0.3,4.9,1.5,5.3,4.1c0.4,2.6-1.3,4.9-3.8,5.5c0.2,0.7,0.3,1.3,0.5,2
		c2.5-0.7,5.1,0.6,6,3.1c0.8,2.5-0.5,5.1-2.9,6.1c0.3,0.6,0.6,1.2,0.9,1.8c2.3-1.1,5.1-0.3,6.4,2c1.3,2.3,0.5,5.2-1.7,6.5
		c0.4,0.6,0.8,1.1,1.2,1.7c2.1-1.6,5-1.2,6.7,0.8c1.6,2,1.3,4.9-0.6,6.7c0.5,0.5,0.9,1,1.4,1.5c1.8-1.9,4.7-2.1,6.7-0.4
		c2,1.7,2.2,4.6,0.6,6.7c0.6,0.4,1.1,0.8,1.7,1.2c1.4-2.2,4.3-2.9,6.5-1.6c2.3,1.3,3,4.2,1.8,6.5c0.6,0.3,1.2,0.6,1.8,0.9
		c1-2.4,3.7-3.6,6.1-2.7c2.5,0.9,3.7,3.6,2.9,6c0.6,0.2,1.3,0.3,2,0.5c0.6-2.5,3-4.2,5.6-3.7c2.6,0.5,4.3,2.9,3.9,5.5
		c0.7,0.1,1.4,0.1,2,0.1c0.1-2.6,2.2-4.7,4.8-4.7v0c0.9,0,1.8,0.2,2.5,0.7c0.7-0.5,1.5-0.8,2.5-0.9c2.6-0.2,4.8,1.7,5.2,4.2
		c0.7-0.1,1.3-0.2,2-0.3c-0.6-2.5,0.9-5.1,3.5-5.7c2.5-0.7,5,0.8,5.9,3.2c0.7-0.2,1.3-0.5,1.9-0.7c-1-2.4,0-5.1,2.4-6.2
		c2.4-1.1,5.2-0.1,6.4,2.2c0.6-0.3,1.2-0.7,1.7-1.1c-1.3-2.2-0.8-5.1,1.3-6.6c2.1-1.5,5.1-1,6.7,1c0.5-0.4,1-0.9,1.5-1.4
		c-1.7-1.9-1.8-4.9,0.1-6.7c1.9-1.9,4.8-1.9,6.7-0.2c0.4-0.5,0.9-1,1.3-1.6c-2.1-1.6-2.6-4.5-1.1-6.6c1.5-2.2,4.4-2.7,6.6-1.3
		c0.3-0.6,0.7-1.1,1.1-1.7c-2.3-1.2-3.3-4-2.2-6.4c1.1-2.3,3.8-3.4,6.2-2.4c0.2-0.6,0.5-1.3,0.7-2C131.2,92.4,129.7,89.8,130.4,87.3
		z M70.9,132.7c-33.4,0-60.6-27.2-60.6-60.6s27.2-60.6,60.6-60.6c33.4,0,60.6,27.2,60.6,60.6S104.3,132.7,70.9,132.7z"/>
	<g>
		<path class="st0" d="M17.9,62.3c4.6-25.1,26.6-44.1,53-44.1c26.4,0,48.4,19,53,44.1h1.4c-4.6-25.8-27.3-45.5-54.4-45.5
			c-27.2,0-49.8,19.7-54.4,45.5H17.9z"/>
		<path class="st0" d="M123.9,81.9c-4.6,25.1-26.6,44.1-53,44.1c-26.4,0-48.4-19-53-44.1h-1.4c4.6,25.8,27.3,45.5,54.4,45.5
			c27.2,0,49.8-19.7,54.4-45.5H123.9z"/>
	</g>
	<path class="st0" d="M71,64.3c-5.5,0-8.7,1.1-8.8,1.7l0,11.9c0.2,0.6,3.3,1.7,8.8,1.7c5.5,0,8.7-1.1,8.8-1.7l0-11.9
		C79.6,65.4,76.5,64.3,71,64.3z"/>
	<path class="st0" d="M101.3,91.4c0,0-19.9-9.9-19.9-13.4V66c0-3.5,19.9-12.9,19.9-12.9c3.5,0,6.4,2.9,6.4,6.4v25.3
		C107.7,88.5,104.8,91.4,101.3,91.4z"/>
	<path class="st0" d="M40.6,52.9c0,0,19.9,9.9,19.9,13.4v11.9c0,3.5-19.9,12.9-19.9,12.9c-3.5,0-6.4-2.9-6.4-6.4V59.3
		C34.2,55.8,37.1,52.9,40.6,52.9z"/>
</g>
</svg>
