<?xml version="1.0" encoding="utf-8"?>
<!-- Generator: Adobe Illustrator 16.0.4, SVG Export Plug-In . SVG Version: 6.00 Build 0)  -->
<!DOCTYPE svg PUBLIC "-//W3C//DTD SVG 1.1//EN" "http://www.w3.org/Graphics/SVG/1.1/DTD/svg11.dtd">
<svg version="1.1" id="Layer_1" xmlns="http://www.w3.org/2000/svg" xmlns:xlink="http://www.w3.org/1999/xlink" x="0px" y="0px"
	 width="93px" height="93px" viewBox="71 0 93 93" enable-background="new 71 0 93 93" xml:space="preserve">
<path fill="#D7B88C" d="M155.148,56.057c0.385-1.604,1.988-2.564,3.592-2.244c0.064-0.448,0.129-0.834,0.193-1.283
	c-1.604-0.192-2.822-1.604-2.695-3.271c0.129-1.667,1.541-2.886,3.207-2.886c0-0.449-0.063-0.833-0.063-1.283
	c-0.063,0-0.128,0-0.192,0c-1.539,0-2.887-1.219-3.078-2.758c-0.192-1.667,1.025-3.079,2.63-3.335
	c-0.063-0.449-0.128-0.834-0.191-1.283c-0.258,0.064-0.514,0.128-0.771,0.128c-1.348,0-2.565-0.898-2.95-2.245
	c-0.449-1.604,0.385-3.207,1.924-3.784c-0.128-0.385-0.256-0.834-0.448-1.219c-0.386,0.192-0.834,0.257-1.219,0.257
	c-1.154,0-2.245-0.642-2.759-1.732c-0.771-1.475-0.191-3.271,1.282-4.041c-0.191-0.385-0.448-0.77-0.705-1.09
	c-0.514,0.385-1.09,0.577-1.731,0.577c-0.961,0-1.858-0.449-2.501-1.283c-1.025-1.347-0.77-3.207,0.514-4.233
	c-0.256-0.32-0.576-0.641-0.834-0.962c-0.576,0.577-1.347,0.898-2.115,0.898c-0.77,0-1.541-0.256-2.117-0.834
	c-1.219-1.154-1.283-3.014-0.192-4.297c-0.321-0.257-0.706-0.513-1.026-0.77c-0.576,0.834-1.539,1.283-2.5,1.283
	c-0.578,0-1.155-0.192-1.668-0.513c-1.412-0.898-1.797-2.758-0.963-4.169c-0.385-0.192-0.77-0.385-1.154-0.577
	c-0.577,1.09-1.604,1.732-2.758,1.732c-0.448,0-0.834-0.128-1.219-0.256c-1.539-0.642-2.244-2.374-1.668-3.913
	c-0.385-0.128-0.834-0.321-1.219-0.449c-0.385,1.347-1.604,2.309-2.95,2.309c-0.192,0-0.448,0-0.704-0.064
	c-1.604-0.385-2.631-1.924-2.311-3.528c-0.449-0.064-0.834-0.128-1.282-0.192c-0.128,1.604-1.476,2.822-3.079,2.822
	c-0.064,0-0.128,0-0.128,0c-1.667-0.064-2.886-1.475-2.95-3.079c-0.449,0-0.898,0.064-1.283,0.064
	c0.128,1.667-1.026,3.079-2.693,3.271c-0.128,0-0.257,0-0.385,0c-1.476,0-2.758-1.09-3.015-2.565
	c-0.449,0.064-0.834,0.192-1.283,0.321c0.385,1.604-0.449,3.207-2.053,3.72c-0.32,0.128-0.641,0.128-0.962,0.128
	c-1.283,0-2.437-0.77-2.886-2.052c-0.385,0.128-0.833,0.321-1.219,0.513c0.706,1.475,0.128,3.271-1.347,4.041
	c-0.449,0.256-0.962,0.385-1.411,0.385c-1.09,0-2.052-0.577-2.629-1.539c-0.385,0.256-0.77,0.449-1.09,0.641
	c0.962,1.347,0.705,3.207-0.578,4.233c-0.577,0.449-1.218,0.642-1.924,0.642c-0.834,0-1.732-0.385-2.309-1.09
	c-0.321,0.256-0.642,0.577-0.962,0.834c1.154,1.154,1.218,3.014,0.128,4.297c-0.641,0.642-1.475,1.026-2.309,1.026
	c-0.706,0-1.347-0.256-1.924-0.706c-0.256,0.321-0.513,0.706-0.77,1.026c1.347,0.898,1.731,2.758,0.898,4.169
	c-0.577,0.962-1.604,1.475-2.63,1.475c-0.513,0-1.026-0.128-1.475-0.385c-0.192,0.385-0.385,0.77-0.577,1.154
	c1.475,0.706,2.181,2.438,1.604,3.913c-0.513,1.219-1.667,1.988-2.886,1.988c-0.321,0-0.706-0.064-1.026-0.192
	c-0.128,0.385-0.192,0.833-0.321,1.219c1.604,0.385,2.63,1.988,2.245,3.591c-0.257,1.54-1.54,2.566-3.015,2.566
	c-0.128,0-0.321,0-0.449-0.064c-0.064,0.449-0.128,0.834-0.192,1.283c1.667,0.128,2.95,1.475,2.886,3.143
	c0,1.604-1.347,2.95-3.014,2.95c0,0.449,0,0.898,0.064,1.283c1.604-0.193,3.143,0.961,3.399,2.563s-0.834,3.144-2.438,3.464
	c0.128,0.449,0.193,0.834,0.321,1.219c1.54-0.447,3.207,0.385,3.784,1.926c0.513,1.539-0.321,3.271-1.796,3.848
	c0.192,0.385,0.385,0.77,0.577,1.154c1.476-0.705,3.271-0.192,4.041,1.283c0.833,1.475,0.321,3.271-1.09,4.104
	c0.256,0.385,0.513,0.706,0.706,1.091c1.283-0.963,3.207-0.771,4.233,0.513s0.898,3.144-0.321,4.233
	c0.321,0.32,0.577,0.642,0.898,0.962c1.155-1.219,3.015-1.347,4.297-0.257c1.219,1.09,1.411,2.888,0.385,4.233
	c0.321,0.257,0.706,0.513,1.026,0.77c0.898-1.411,2.694-1.859,4.169-0.962c1.411,0.834,1.924,2.629,1.154,4.104
	c0.385,0.191,0.77,0.385,1.155,0.576c0.641-1.475,2.373-2.244,3.912-1.668c1.54,0.578,2.373,2.246,1.86,3.85
	c0.385,0.128,0.834,0.191,1.219,0.32c0.385-1.604,1.924-2.629,3.528-2.373c1.667,0.32,2.694,1.859,2.501,3.463
	c0.449,0.064,0.898,0.064,1.283,0.064c0.064-1.604,1.411-2.951,3.079-2.951c0.578,0,1.154,0.129,1.603,0.449
	c0.449-0.32,0.963-0.513,1.539-0.513c1.668-0.128,3.079,1.026,3.271,2.694c0.448-0.064,0.897-0.129,1.282-0.193
	c-0.321-1.604,0.576-3.207,2.244-3.655c1.604-0.449,3.207,0.513,3.722,2.052c0.385-0.128,0.834-0.32,1.219-0.447
	c-0.644-1.477,0.062-3.271,1.539-3.978c1.539-0.706,3.271-0.063,4.041,1.411c0.385-0.193,0.77-0.449,1.153-0.706
	c-0.897-1.347-0.577-3.206,0.835-4.169c1.346-0.962,3.205-0.641,4.231,0.643c0.319-0.258,0.642-0.578,0.962-0.834
	c-1.092-1.219-1.092-3.08,0.064-4.233c1.153-1.154,3.015-1.22,4.232-0.063c0.256-0.32,0.576-0.642,0.834-1.025
	c-1.348-0.963-1.668-2.822-0.706-4.232c0.962-1.348,2.759-1.732,4.169-0.834c0.192-0.385,0.449-0.706,0.705-1.091
	c-1.475-0.771-2.115-2.501-1.41-4.04c0.641-1.54,2.373-2.182,3.912-1.604c0.128-0.386,0.32-0.834,0.449-1.22
	C155.727,59.264,154.764,57.66,155.148,56.057z M117.436,84.918c-21.166,0-38.419-17.252-38.419-38.418S96.27,8.082,117.436,8.082
	c21.166,0,38.417,17.253,38.417,38.418C155.918,67.666,138.666,84.918,117.436,84.918z"/>
<path fill="#D7B88C" d="M83.828,40.214c2.95-15.906,16.868-27.964,33.608-27.964c16.74,0,30.722,12.058,33.608,27.964h0.897
	c-2.949-16.419-17.316-28.862-34.57-28.862c-17.253,0-31.62,12.507-34.57,28.862H83.828z"/>
<path fill="#D7B88C" d="M151.107,52.657c-2.949,15.905-16.867,27.964-33.607,27.964S86.778,68.562,83.892,52.657h-0.898
	c2.951,16.419,17.317,28.862,34.57,28.862c17.252,0,31.62-12.509,34.571-28.862H151.107L151.107,52.657z"/>
<path fill="#D7B88C" d="M119.168,22.641c-10.519,0-18.344,4.554-19.049,14.11c-0.321,3.977,1.154,6.286,1.026,7.504
	c-0.128,1.411-5.324,8.081-4.939,9.364c0.128,0.514,3.271,0.963,3.271,1.348c0,1.025,0.128,1.924,0,3.078
	c-0.064,0.577,1.347,0.064,1.09,0.705c-0.064,0.193-0.705-0.128-0.77,0.193c-0.192,0.77,0.449,0.832,0.513,1.539
	c0.128,0.834-0.449,3.977,1.154,5.707c1.668,1.86,4.041,1.348,4.361,1.22c6.222-1.731,6.991,2.821,6.991,2.821
	c8.466,0,15.842-1.025,15.842-1.025c-0.192-1.604,1.668-9.812,3.848-13.598c1.86-3.271,5.645-6.67,6.094-13.405
	C139.5,28.99,132.38,22.641,119.168,22.641z M120.578,37.072c-8.658,0-16.739,3.977-16.739-2.565c0-7.504,8.081-9.493,16.739-9.493
	s15.65,5.965,15.65,13.148C136.229,47.143,129.236,37.072,120.578,37.072z"/>
</svg>
