<?xml version="1.0" encoding="utf-8"?>
<!-- Generator: Adobe Illustrator 19.1.0, SVG Export Plug-In . SVG Version: 6.00 Build 0)  -->
<svg version="1.1" id="Layer_1" xmlns="http://www.w3.org/2000/svg" xmlns:xlink="http://www.w3.org/1999/xlink" x="0px" y="0px"
	 viewBox="0 0 142 145" style="enable-background:new 0 0 142 145;" xml:space="preserve">
<style type="text/css">
	.st0{fill:#4D4D4F;}
</style>
<path class="st0" d="M129.7,87.4c0.6-2.5,3.1-4,5.6-3.5c0.1-0.7,0.2-1.3,0.3-2c-2.5-0.3-4.4-2.5-4.2-5.1c0.2-2.6,2.4-4.5,5-4.5
	c0-0.7-0.1-1.3-0.1-2c-0.1,0-0.2,0-0.3,0c-2.4,0-4.5-1.9-4.8-4.3c-0.3-2.6,1.6-4.8,4.1-5.2c-0.1-0.7-0.2-1.3-0.3-2
	c-0.4,0.1-0.8,0.2-1.2,0.2c-2.1,0-4-1.4-4.6-3.5c-0.7-2.5,0.6-5,3-5.9c-0.2-0.6-0.4-1.3-0.7-1.9c-0.6,0.3-1.3,0.4-1.9,0.4
	c-1.8,0-3.5-1-4.3-2.7c-1.2-2.3-0.3-5.1,2-6.3c-0.3-0.6-0.7-1.2-1.1-1.7c-0.8,0.6-1.7,0.9-2.7,0.9c-1.5,0-2.9-0.7-3.9-2
	c-1.6-2.1-1.2-5,0.8-6.6c-0.4-0.5-0.9-1-1.3-1.5c-0.9,0.9-2.1,1.4-3.3,1.4c-1.2,0-2.4-0.4-3.3-1.3c-1.9-1.8-2-4.7-0.3-6.7
	c-0.5-0.4-1.1-0.8-1.6-1.2c-0.9,1.3-2.4,2-3.9,2c-0.9,0-1.8-0.3-2.6-0.8c-2.2-1.4-2.8-4.3-1.5-6.5c-0.6-0.3-1.2-0.6-1.8-0.9
	c-0.9,1.7-2.5,2.7-4.3,2.7c-0.7,0-1.3-0.2-1.9-0.4c-2.4-1-3.5-3.7-2.6-6.1c-0.6-0.2-1.3-0.5-1.9-0.7c-0.6,2.1-2.5,3.6-4.6,3.6
	c-0.3,0-0.7,0-1.1-0.1c-2.5-0.6-4.1-3-3.6-5.5c-0.7-0.1-1.3-0.2-2-0.3c-0.2,2.5-2.3,4.4-4.8,4.4c-0.1,0-0.2,0-0.2,0
	c-2.6-0.1-4.5-2.3-4.6-4.8c-0.7,0-1.4,0.1-2,0.1c0.2,2.6-1.6,4.8-4.2,5.1c-0.2,0-0.4,0-0.6,0c-2.3,0-4.3-1.7-4.7-4
	c-0.7,0.1-1.3,0.3-2,0.5c0.6,2.5-0.7,5-3.2,5.8c-0.5,0.2-1,0.2-1.5,0.2c-2,0-3.8-1.2-4.5-3.2c-0.6,0.2-1.3,0.5-1.9,0.8
	c1.1,2.3,0.2,5.1-2.1,6.3c-0.7,0.4-1.5,0.6-2.2,0.6c-1.7,0-3.2-0.9-4.1-2.4c-0.6,0.4-1.2,0.7-1.7,1c1.5,2.1,1.1,5-0.9,6.6
	c-0.9,0.7-1.9,1-3,1c-1.3,0-2.7-0.6-3.6-1.7c-0.5,0.4-1,0.9-1.5,1.3c1.8,1.8,1.9,4.7,0.2,6.7c-1,1-2.3,1.6-3.6,1.6
	c-1.1,0-2.1-0.4-3-1.1c-0.4,0.5-0.8,1.1-1.2,1.6c2.1,1.4,2.7,4.3,1.4,6.5c-0.9,1.5-2.5,2.3-4.1,2.3c-0.8,0-1.6-0.2-2.3-0.6
	c-0.3,0.6-0.6,1.2-0.9,1.8c2.3,1.1,3.4,3.8,2.5,6.1c-0.8,1.9-2.6,3.1-4.5,3.1c-0.5,0-1.1-0.1-1.6-0.3c-0.2,0.6-0.3,1.3-0.5,1.9
	c2.5,0.6,4.1,3.1,3.5,5.6C11,62.6,9,64.2,6.7,64.2c-0.2,0-0.5,0-0.7-0.1c-0.1,0.7-0.2,1.3-0.3,2c2.6,0.2,4.6,2.3,4.5,4.9
	c0,2.5-2.1,4.6-4.7,4.6c0,0.7,0,1.4,0.1,2c2.5-0.3,4.9,1.5,5.3,4c0.4,2.5-1.3,4.9-3.8,5.4c0.2,0.7,0.3,1.3,0.5,1.9
	c2.4-0.7,5,0.6,5.9,3c0.8,2.4-0.5,5.1-2.8,6c0.3,0.6,0.6,1.2,0.9,1.8c2.3-1.1,5.1-0.3,6.3,2c1.3,2.3,0.5,5.1-1.7,6.4
	c0.4,0.6,0.8,1.1,1.1,1.7c2-1.5,5-1.2,6.6,0.8c1.6,2,1.4,4.9-0.5,6.6c0.5,0.5,0.9,1,1.4,1.5c1.8-1.9,4.7-2.1,6.7-0.4
	c1.9,1.7,2.2,4.5,0.6,6.6c0.5,0.4,1.1,0.8,1.6,1.2c1.4-2.2,4.2-2.9,6.5-1.5c2.2,1.3,3,4.1,1.8,6.4c0.6,0.3,1.2,0.6,1.8,0.9
	c1-2.3,3.7-3.5,6.1-2.6c2.4,0.9,3.7,3.5,2.9,6c0.6,0.2,1.3,0.3,1.9,0.5c0.6-2.5,3-4.1,5.5-3.7c2.6,0.5,4.2,2.9,3.9,5.4
	c0.7,0.1,1.4,0.1,2,0.1c0.1-2.5,2.2-4.6,4.8-4.6c0.9,0,1.8,0.2,2.5,0.7c0.7-0.5,1.5-0.8,2.4-0.8c2.6-0.2,4.8,1.6,5.1,4.2
	c0.7-0.1,1.4-0.2,2-0.3c-0.5-2.5,0.9-5,3.5-5.7c2.5-0.7,5,0.8,5.8,3.2c0.6-0.2,1.3-0.5,1.9-0.7c-1-2.3,0.1-5.1,2.4-6.2
	c2.4-1.1,5.1-0.1,6.3,2.2c0.6-0.3,1.2-0.7,1.8-1.1c-1.4-2.1-0.9-5,1.3-6.5c2.1-1.5,5-1,6.6,1c0.5-0.4,1-0.9,1.5-1.3
	c-1.7-1.9-1.7-4.8,0.1-6.6c1.8-1.8,4.7-1.9,6.6-0.1c0.4-0.5,0.9-1,1.3-1.6c-2.1-1.5-2.6-4.4-1.1-6.6c1.5-2.1,4.3-2.7,6.5-1.3
	c0.3-0.6,0.7-1.1,1.1-1.7c-2.3-1.2-3.3-3.9-2.2-6.3c1-2.4,3.7-3.4,6.1-2.5c0.2-0.6,0.5-1.3,0.7-1.9
	C130.6,92.4,129.1,89.9,129.7,87.4z M70.9,132.4c-33,0-59.9-26.9-59.9-59.9c0-33,26.9-59.9,59.9-59.9c33,0,59.9,26.9,59.9,59.9
	C130.9,105.5,104,132.4,70.9,132.4z"/>
<path class="st0" d="M18.5,62.7c4.6-24.8,26.3-43.6,52.4-43.6c26.1,0,47.9,18.8,52.4,43.6h1.4c-4.6-25.6-27-45-53.9-45
	c-26.9,0-49.3,19.5-53.9,45H18.5z"/>
<path class="st0" d="M123.4,82.1c-4.6,24.8-26.3,43.6-52.4,43.6c-26.1,0-47.9-18.8-52.4-43.6h-1.4c4.6,25.6,27,45,53.9,45
	c26.9,0,49.3-19.5,53.9-45H123.4z"/>
<path class="st0" d="M73.6,35.3c-16.4,0-28.6,7.1-29.7,22c-0.5,6.2,1.8,9.8,1.6,11.7c-0.2,2.2-8.3,12.6-7.7,14.6
	c0.2,0.8,5.1,1.5,5.1,2.1c0,1.6,0.2,3,0,4.8c-0.1,0.9,2.1,0.1,1.7,1.1c-0.1,0.3-1.1-0.2-1.2,0.3c-0.3,1.2,0.7,1.3,0.8,2.4
	c0.2,1.3-0.7,6.2,1.8,8.9c2.6,2.9,6.3,2.1,6.8,1.9c9.7-2.7,10.9,4.4,10.9,4.4c13.2,0,24.7-1.6,24.7-1.6c-0.3-2.5,2.6-15.3,6-21.2
	c2.9-5.1,8.8-10.4,9.5-20.9C105.3,45.2,94.2,35.3,73.6,35.3z M75.8,57.8c-13.5,0-26.1,6.2-26.1-4C49.7,42.1,62.3,39,75.8,39
	s24.4,9.3,24.4,20.5C100.2,73.5,89.3,57.8,75.8,57.8z"/>
</svg>
