<?xml version="1.0" encoding="utf-8"?>
<!-- Generator: Adobe Illustrator 16.0.4, SVG Export Plug-In . SVG Version: 6.00 Build 0)  -->
<!DOCTYPE svg PUBLIC "-//W3C//DTD SVG 1.1//EN" "http://www.w3.org/Graphics/SVG/1.1/DTD/svg11.dtd">
<svg version="1.1" id="Layer_1" xmlns="http://www.w3.org/2000/svg" xmlns:xlink="http://www.w3.org/1999/xlink" x="0px" y="0px"
	 width="100px" height="100px" viewBox="0 0 100 100" enable-background="new 0 0 100 100" xml:space="preserve">
<g id="Shape_6_4_">
	<g>
		<polygon fill="none" points="57.4,33.4 37.2,38.9 44.1,65 64.4,59.5 		"/>
	</g>
	<g>
		<g>
			<path fill="#D7B88C" d="M43.8,65.5l-7.2-26.9l21.1-5.7l7.2,26.9L43.8,65.5z M37.7,39.2l6.7,25.2l19.4-5.2L57.1,34L37.7,39.2z"/>
		</g>
	</g>
</g>
<g id="Shape_6_copy_4_">
	<g>
		<polygon fill="none" points="35.7,39.8 29.7,49.3 36.7,75.4 42.6,65.9 		"/>
	</g>
	<g>
		<g>
			<path fill="#D7B88C" d="M36.5,76.5l-7.2-27.2l6.6-10.5L43.1,66L36.5,76.5z M30.2,49.4l6.6,24.9l5.3-8.5l-6.6-24.9L30.2,49.4z"/>
		</g>
	</g>
</g>
<g id="Shape_6_copy_2_4_">
	<g>
		<polygon fill="none" points="64.9,23.6 59,33.1 65.9,59.2 71.8,49.7 		"/>
	</g>
	<g>
		<g>
			<path fill="#D7B88C" d="M65.7,60.3l-7.2-27.2l6.6-10.5l7.2,27.2L65.7,60.3z M59.4,33.2L66,58.1l5.3-8.5l-6.6-24.9L59.4,33.2z"/>
		</g>
	</g>
</g>
<g>
	<path fill="#D7B88C" d="M46.5,47.8l0.8-0.2l-0.1,1.6c0,0.3,0,0.5,0,0.8s0,0.6,0,0.8c0,0.3,0,0.5,0,0.7s0,0.4,0.1,0.5
		c0,0.2,0.1,0.3,0.2,0.2c0.1,0,0.2-0.101,0.3-0.4c0.1-0.2,0.2-0.5,0.4-0.899l0.3,0.1c-0.1,0.5-0.3,1-0.5,1.3s-0.5,0.5-0.8,0.601
		c-0.1,0-0.3,0-0.4-0.101c-0.1-0.1-0.2-0.3-0.3-0.5c0-0.1,0-0.1,0-0.2c0-0.1,0-0.199-0.1-0.3l0,0c0,0.2-0.1,0.4-0.2,0.601
		c-0.1,0.199-0.2,0.3-0.3,0.5c-0.1,0.199-0.2,0.3-0.4,0.399c-0.1,0.101-0.3,0.2-0.4,0.2c-0.3,0.1-0.6,0-0.8-0.2
		c-0.2-0.2-0.4-0.5-0.5-0.899c-0.1-0.4-0.2-0.9-0.1-1.4c0.1-0.5,0.2-1,0.4-1.4c0.2-0.4,0.4-0.8,0.7-1.2c0.3-0.3,0.6-0.5,0.9-0.6
		c0.2-0.1,0.4-0.1,0.5,0c0.2,0.1,0.3,0.2,0.4,0.4L46.5,47.8z M45.7,48.4c-0.2,0.1-0.4,0.2-0.6,0.5c-0.2,0.3-0.3,0.6-0.5,1
		c-0.1,0.4-0.2,0.8-0.2,1.2c0,0.4,0,0.801,0.1,1.101c0.1,0.2,0.2,0.399,0.3,0.5c0.1,0.1,0.3,0.1,0.4,0.1c0.1,0,0.3-0.1,0.4-0.3
		s0.2-0.4,0.3-0.6c0.1-0.2,0.2-0.5,0.2-0.801c0.1-0.3,0.1-0.6,0.1-0.8c0-0.3,0-0.6,0-0.8c0-0.3,0-0.5-0.1-0.7c0-0.2-0.1-0.3-0.2-0.4
		C45.9,48.4,45.8,48.4,45.7,48.4z"/>
	<path fill="#D7B88C" d="M50,47.7L50,47.7c0.1-0.3,0.3-0.6,0.5-0.8c0.2-0.2,0.5-0.4,0.8-0.5c0.4-0.1,0.7-0.1,1,0.1
		s0.5,0.5,0.601,0.9C53,47.7,53,48,53,48.3c0,0.3,0,0.7-0.1,1c-0.101,0.3-0.2,0.6-0.301,0.9c-0.1,0.3-0.3,0.6-0.5,0.8
		c-0.199,0.2-0.399,0.5-0.6,0.6C51.3,51.8,51,51.9,50.8,52c-0.4,0.1-0.7,0.1-1-0.1c-0.3-0.2-0.5-0.4-0.6-0.7c0-0.2-0.1-0.4-0.1-0.7
		s0-0.7,0-1.1l0.1-3.9c0-0.1,0-0.2,0-0.4c0-0.1,0-0.2,0-0.3c-0.1-0.2-0.3-0.3-0.8-0.1v-0.3l1.7-0.6L50,47.7z M50.7,51.5
		c0.1,0,0.3-0.1,0.399-0.3c0.101-0.101,0.301-0.3,0.4-0.5s0.2-0.5,0.3-0.7c0.101-0.3,0.101-0.5,0.2-0.8c0-0.3,0-0.6,0-0.8
		c0-0.3,0-0.5-0.1-0.8c-0.101-0.2-0.2-0.4-0.301-0.5C51.5,47,51.3,46.9,51.2,47c-0.101,0-0.3,0.1-0.4,0.3c-0.1,0.1-0.2,0.3-0.3,0.5
		c-0.1,0.2-0.2,0.5-0.3,0.7C50.1,48.7,50,49,50,49.3c0,0.3-0.1,0.6,0,0.8c0,0.3,0,0.5,0.1,0.8C50.2,51.4,50.4,51.6,50.7,51.5z"/>
	<path fill="#D7B88C" d="M57.6,48.4c-0.1,0.6-0.3,1.1-0.6,1.4c-0.3,0.4-0.6,0.6-1,0.7c-0.4,0.1-0.8,0.1-1.1-0.1
		c-0.301-0.2-0.5-0.5-0.7-1C54.1,49.1,54.1,48.8,54.1,48.5s0-0.6,0.101-0.9c0.1-0.3,0.2-0.6,0.3-0.9c0.1-0.3,0.3-0.5,0.4-0.8
		c0.199-0.2,0.3-0.4,0.5-0.6C55.6,45.1,55.8,45,56,45c0.3-0.1,0.6-0.1,0.8,0s0.4,0.3,0.5,0.5c0,0.2,0,0.3,0,0.4
		c-0.1,0.1-0.2,0.2-0.3,0.2s-0.3,0-0.4,0C56.5,46,56.4,45.9,56.4,45.8c0-0.1,0-0.1,0-0.2s0-0.1,0-0.1c0-0.1-0.101-0.1-0.301-0.1
		c-0.199,0.1-0.399,0.2-0.5,0.5c-0.199,0.2-0.3,0.6-0.399,0.9C55.1,47.2,55.1,47.5,55.1,47.9s0,0.8,0.101,1.2
		c0.1,0.3,0.2,0.5,0.399,0.7c0.2,0.1,0.301,0.2,0.5,0.1c0.101,0,0.2-0.1,0.301-0.2c0.1-0.1,0.199-0.2,0.3-0.4
		c0.1-0.1,0.2-0.3,0.2-0.5c0.1-0.2,0.1-0.4,0.199-0.6L57.6,48.4z"/>
	<path fill="#D7B88C" d="M59.7,49.5c-0.2,0-0.3,0-0.5-0.1s-0.3-0.2-0.3-0.4c-0.101-0.2,0-0.4,0.1-0.5c0.1-0.2,0.2-0.3,0.4-0.3
		c0.199-0.1,0.399,0,0.5,0.1c0.199,0.1,0.3,0.2,0.3,0.4c0,0.2,0,0.3-0.101,0.5C60,49.3,59.9,49.4,59.7,49.5z"/>
</g>
<g id="bg_copy_6_">
	<g>
		<path fill="#DCDBC7" stroke="#D7B88C" stroke-miterlimit="10" d="M50,86.8c-20.1,0-36.5-16.5-36.5-36.8S29.9,13.3,50,13.3
			c20.1,0,36.5,16.5,36.5,36.8S70.1,86.8,50,86.8z M50,14.2c-19.6,0-35.6,16.1-35.6,35.9S30.4,86,50,86c19.6,0,35.6-16.1,35.6-35.9
			S69.6,14.2,50,14.2z"/>
	</g>
</g>
<g>
	<path fill="#D7B88C" d="M51,99.9l-7.7-0.5L37.7,90l-8.5-3.7l-10.7,2.2l-5.6-5.4l1.7-10.8L10.5,64l-9.6-5.2L0,51.1L8.3,44l2.2-9
		l-4-10.2l4.3-6.5l10.9-0.2l7.4-5.5l3.4-10.4L39.9,0l8.5,6.9l9.2,0.6L66.9,1.8L74,4.9l2,10.7l6.7,6.4l10.8,1.6l3.4,7L91.6,40.2
		l1,9.2l7.2,8.2L98,65.2L87.9,69L82.8,76.7L83.1,87.6L76.9,92.2L66.6,88.6L57.7,91.2L51,99.9z M44.3,97.7l5.9,0.399l6.5-8.3
		L66.6,86.9l9.9,3.399l4.8-3.5L81,76.2l5.7-8.7l9.8-3.8L98,58l-7-7.9l-1.2-10.4l5.101-9.2L92.3,25.2L81.9,23.7l-7.5-7.2l-2-10.4
		L67,3.8l-9,5.5L47.7,8.7L39.5,2l-5.7,1.7l-3.3,10l-8.3,6.2l-10.5,0.2L8.4,25l3.9,9.8L9.9,44.9L2,51.8l0.7,5.9l9.3,5l4.6,9.3
		l-1.7,10.4l4.3,4.1l10.3-2.2l9.5,4.2L44.3,97.7z M50,84.3C31.2,84.3,15.9,68.9,15.9,50c0-18.9,15.3-34.3,34.1-34.3
		S84.1,31.1,84.1,50C84.1,68.9,68.8,84.3,50,84.3z M50,17.5c-17.8,0-32.3,14.6-32.3,32.5c0,17.9,14.5,32.5,32.3,32.5
		S82.3,67.9,82.3,50C82.3,32.1,67.8,17.5,50,17.5z"/>
</g>
</svg>
