<?xml version="1.0" encoding="utf-8"?>
<!-- Generator: Adobe Illustrator 16.0.4, SVG Export Plug-In . SVG Version: 6.00 Build 0)  -->
<!DOCTYPE svg PUBLIC "-//W3C//DTD SVG 1.1//EN" "http://www.w3.org/Graphics/SVG/1.1/DTD/svg11.dtd">
<svg version="1.1" id="Layer_1" xmlns="http://www.w3.org/2000/svg" xmlns:xlink="http://www.w3.org/1999/xlink" x="0px" y="0px"
	 width="93px" height="93px" viewBox="70.5 0 93 93" enable-background="new 70.5 0 93 93" xml:space="preserve">
<path fill="#D7B88C" d="M155.791,56.312c0.385-1.604,2.052-2.629,3.654-2.31c0.063-0.448,0.129-0.834,0.193-1.282
	c-1.668-0.191-2.888-1.668-2.759-3.335l0,0c0.128-1.668,1.539-2.951,3.207-2.887c0-0.449-0.063-0.834-0.063-1.283
	c-0.064,0-0.129,0-0.192,0c-1.604,0-2.95-1.219-3.144-2.822c-0.191-1.667,1.026-3.143,2.631-3.399
	c-0.064-0.449-0.129-0.834-0.193-1.283c-0.256,0.064-0.514,0.128-0.77,0.128c-1.348,0-2.629-0.898-3.015-2.309l0,0
	c-0.514-1.604,0.386-3.271,1.988-3.848c-0.129-0.385-0.321-0.833-0.449-1.219c-0.385,0.192-0.834,0.257-1.282,0.257
	c-1.154,0-2.31-0.642-2.822-1.732c-0.771-1.539-0.191-3.335,1.283-4.104c-0.257-0.385-0.449-0.77-0.705-1.155
	c-0.515,0.385-1.092,0.577-1.732,0.577c-0.962,0-1.924-0.449-2.564-1.283c-1.027-1.347-0.705-3.271,0.576-4.297
	c-0.256-0.321-0.576-0.642-0.896-0.962c-0.643,0.577-1.348,0.898-2.116,0.898s-1.54-0.256-2.183-0.833
	c-1.219-1.155-1.281-3.079-0.19-4.362c-0.321-0.256-0.706-0.513-1.026-0.77c-0.642,0.834-1.539,1.283-2.564,1.283
	c-0.578,0-1.154-0.128-1.732-0.513c-1.41-0.962-1.796-2.822-0.962-4.233c-0.385-0.192-0.771-0.385-1.153-0.641
	c-0.578,1.09-1.668,1.795-2.822,1.795c-0.448,0-0.834-0.064-1.219-0.256c-1.539-0.642-2.246-2.437-1.668-3.977
	c-0.449-0.128-0.834-0.321-1.219-0.449c-0.385,1.411-1.604,2.309-3.015,2.309c-0.257,0-0.449,0-0.706-0.064
	c-1.604-0.385-2.629-1.924-2.373-3.592c-0.449-0.064-0.834-0.128-1.282-0.192c-0.192,1.604-1.476,2.822-3.079,2.822
	c-0.064,0-0.128,0-0.128,0c-1.667-0.064-2.95-1.476-2.95-3.143c-0.449,0-0.898,0.064-1.347,0.064
	c0.128,1.667-1.09,3.143-2.694,3.335l0,0c-0.128,0-0.256,0-0.385,0c-1.539,0-2.822-1.09-3.079-2.629
	c-0.449,0.064-0.833,0.256-1.283,0.32c0.385,1.604-0.449,3.271-2.052,3.784c-0.321,0.128-0.642,0.128-0.962,0.128
	c-1.283,0-2.437-0.834-2.95-2.052c-0.385,0.192-0.834,0.32-1.219,0.513c0.706,1.54,0.128,3.335-1.347,4.105l0,0
	c-0.449,0.256-0.962,0.385-1.475,0.385c-1.09,0-2.117-0.577-2.694-1.539c-0.385,0.256-0.77,0.449-1.154,0.706
	c0.962,1.347,0.705,3.271-0.578,4.297c-0.577,0.449-1.283,0.706-1.924,0.706c-0.898,0-1.732-0.385-2.373-1.09
	c-0.321,0.257-0.642,0.577-0.962,0.898c1.155,1.155,1.283,3.079,0.128,4.361c-0.642,0.706-1.475,1.026-2.373,1.026
	c-0.706,0-1.411-0.256-1.988-0.706c-0.257,0.321-0.513,0.706-0.77,1.09c1.347,0.962,1.795,2.822,0.898,4.233l0,0
	c-0.578,0.962-1.668,1.476-2.694,1.476c-0.513,0-1.026-0.128-1.54-0.385c-0.192,0.385-0.385,0.77-0.577,1.218
	c1.475,0.706,2.245,2.438,1.604,3.977c-0.513,1.219-1.667,1.988-2.95,1.988c-0.385,0-0.706-0.064-1.026-0.192
	c-0.128,0.449-0.257,0.834-0.321,1.283c1.604,0.449,2.63,1.988,2.309,3.656c-0.321,1.475-1.604,2.501-3.079,2.501
	c-0.128,0-0.321,0-0.449-0.064c-0.064,0.449-0.128,0.834-0.192,1.283c1.667,0.128,3.015,1.475,2.951,3.207
	c0,1.668-1.411,3.014-3.015,3.079c0,0.448,0,0.897,0.064,1.282c1.667-0.192,3.207,0.962,3.463,2.63
	c0.257,1.668-0.833,3.144-2.501,3.527c0.128,0.447,0.192,0.834,0.32,1.281c1.604-0.447,3.271,0.386,3.849,1.988
	c0.513,1.604-0.321,3.336-1.86,3.914c0.192,0.385,0.385,0.77,0.578,1.217c1.475-0.77,3.271-0.19,4.104,1.283
	c0.834,1.477,0.321,3.336-1.09,4.17c0.257,0.385,0.513,0.705,0.77,1.09c1.347-0.963,3.207-0.834,4.297,0.514l0,0
	c1.026,1.281,0.898,3.207-0.385,4.298c0.321,0.32,0.577,0.642,0.898,0.961c1.09-1.218,3.015-1.346,4.361-0.256
	c1.283,1.09,1.411,3.015,0.385,4.297c0.385,0.257,0.706,0.578,1.09,0.771c0.898-1.41,2.758-1.859,4.233-1.025
	c1.411,0.834,1.924,2.693,1.154,4.168c0.385,0.193,0.77,0.385,1.219,0.578c0.641-1.539,2.373-2.309,3.977-1.732
	c1.604,0.578,2.373,2.311,1.86,3.913c0.449,0.128,0.834,0.192,1.283,0.32c0.385-1.604,1.924-2.694,3.592-2.373
	c1.668,0.321,2.758,1.86,2.565,3.528c0.449,0.062,0.898,0.062,1.347,0.062c0.064-1.667,1.411-3.015,3.143-3.015
	c0.577,0,1.154,0.192,1.604,0.448c0.449-0.319,0.963-0.514,1.604-0.576c1.668-0.129,3.144,1.091,3.335,2.693
	c0.449-0.063,0.896-0.129,1.348-0.192c-0.386-1.669,0.642-3.271,2.244-3.72c1.604-0.449,3.271,0.513,3.784,2.115
	c0.386-0.128,0.834-0.32,1.22-0.449c-0.643-1.539,0-3.334,1.539-4.039c1.538-0.707,3.336-0.064,4.104,1.41
	c0.385-0.191,0.771-0.449,1.153-0.705c-0.897-1.412-0.578-3.271,0.834-4.233c1.347-0.961,3.271-0.642,4.297,0.706
	c0.32-0.258,0.642-0.577,0.963-0.833c-1.092-1.22-1.092-3.144,0.062-4.298c1.219-1.219,3.079-1.219,4.361-0.129
	c0.258-0.32,0.578-0.642,0.834-1.025c-1.346-1.025-1.667-2.887-0.705-4.298c0.962-1.41,2.822-1.731,4.232-0.897
	c0.192-0.385,0.449-0.77,0.705-1.154c-1.539-0.771-2.181-2.564-1.476-4.104c0.706-1.54,2.502-2.246,4.041-1.604
	c0.129-0.385,0.32-0.834,0.449-1.219C156.367,59.584,155.404,57.916,155.791,56.312z M117.436,85.624
	c-21.55,0-39.06-17.51-39.06-39.06c0-21.55,17.51-39.06,39.06-39.06s39.06,17.51,39.06,39.06
	C156.496,68.114,138.986,85.624,117.436,85.624z"/>
<g>
	<path fill="#D7B88C" d="M83.25,40.214c3.014-16.163,17.189-28.477,34.186-28.477c16.998,0,31.235,12.314,34.185,28.477h0.898
		c-3.016-16.676-17.574-29.375-35.148-29.375c-17.509,0-32.133,12.699-35.147,29.375H83.25z"/>
	<path fill="#D7B88C" d="M151.621,52.85c-3.014,16.162-17.188,28.479-34.185,28.479c-16.997,0-31.235-12.316-34.186-28.479h-0.898
		c3.014,16.676,17.574,29.375,35.147,29.375c17.51,0,32.133-12.699,35.147-29.375H151.621L151.621,52.85z"/>
</g>
<g id="Br92H6_1_">
	<g>
		<path fill="#D7B88C" d="M91.268,31.812c1.924,0.641,3.848,1.347,5.772,1.988c1.539,0.513,3.079,0.385,4.49-0.577
			c2.245-1.411,4.618-2.694,7.119-3.656c2.181-0.77,4.297-0.641,6.221,0.706c0.898,0.642,0.898,0.642,0,1.155
			c-1.988,1.09-4.041,2.245-5.965,3.463c-1.731,1.09-2.629,2.694-2.629,4.746c0.064,2.694,2.437,5.003,5.131,5.003
			c0.898,0,1.668-0.321,2.438-0.706c1.667-0.77,3.335-1.54,4.939-2.245c1.604-0.705,2.886-0.513,4.168,0.77
			c3.207,3.207,6.479,6.479,9.687,9.686c0.961,0.961,1.024,2.438,0.063,3.397c-0.897,0.897-2.373,0.897-3.336-0.128
			c-1.025-1.025-2.054-2.053-3.078-3.016c-0.257-0.19-0.515-0.705-0.834-0.385c-0.32,0.32,0.192,0.643,0.385,0.898
			c0.897,1.09,1.925,2.053,2.888,3.014c1.153,1.219,0.961,3.079-0.449,3.85c-0.963,0.513-2.053,0.257-2.887-0.577
			c-1.283-1.283-2.502-2.63-3.849-3.784c-0.192-0.128-0.385-0.514-0.642-0.32c-0.258,0.193,0.062,0.514,0.257,0.705
			c0.962,1.219,2.053,2.245,3.143,3.335c0.642,0.642,0.962,1.476,0.705,2.373c-0.256,0.897-0.834,1.412-1.731,1.604
			c-0.834,0.193-1.604-0.064-2.181-0.705c-1.219-1.219-2.438-2.565-3.72-3.721c-0.064-0.063-0.128-0.127-0.192-0.191
			c-0.128-0.064-0.256-0.193-0.385-0.064c-0.192,0.129-0.064,0.32,0,0.449c0.128,0.191,0.256,0.385,0.449,0.577
			c0.833,0.833,1.667,1.731,2.5,2.565c0.963,1.024,0.963,2.438,0,3.334c-0.961,0.897-2.373,0.834-3.334-0.191
			c-0.642-0.641-1.09-1.283-1.09-2.309c0-2.246-1.219-3.785-3.335-4.619c-0.257-0.063-0.385-0.256-0.449-0.512
			c-0.513-1.541-1.475-2.631-3.015-3.271c-0.256-0.129-0.385-0.258-0.449-0.449c-0.513-1.475-1.475-2.501-2.95-3.078
			c-0.193-0.064-0.385-0.193-0.449-0.449c-0.898-2.692-3.656-3.913-6.35-3.271c-1.924,0.448-3.271,1.604-4.041,3.399
			c-0.128,0.32-0.257,0.32-0.513,0.191c-0.834-0.256-1.604-0.705-2.438-0.77C91.268,43.935,91.268,37.841,91.268,31.812z"/>
		<path fill="#D7B88C" d="M143.668,49.516c-1.154,0.062-2.244,0.385-3.335,0.576c-0.833,0.129-1.604,0.32-2.437,0.385
			c-1.22,0.064-2.246-0.385-3.08-1.219c-3.527-3.463-7.055-6.927-10.582-10.39c-1.09-1.026-2.373-1.347-3.721-0.706
			c-2.115,1.026-4.168,2.117-6.286,3.207c-0.513,0.256-0.962,0.513-1.475,0.77c-1.475,0.706-3.207,0.192-3.977-1.283
			c-0.77-1.411-0.257-3.207,1.154-4.041c4.169-2.374,8.273-4.747,12.507-7.056c0.576-0.32,1.09-0.577,1.73-0.705
			c1.283-0.257,2.311,0.32,3.271,1.09c1.668,1.347,3.271,2.758,4.875,4.104c0.641,0.578,1.281,1.09,2.18,1.219
			c0.77,0.128,1.477-0.128,2.182-0.256c2.244-0.449,4.489-0.962,6.734-1.476c0.064,0,0.128-0.064,0.191-0.064
			C143.668,38.868,143.668,44.191,143.668,49.516z"/>
		<path fill="#D7B88C" d="M109.034,60.418c0.449,0,0.834-0.191,1.283-0.129c1.86,0.258,2.951,1.988,2.309,3.785
			c-0.641,1.988-3.399,3.271-5.323,2.438c-0.898-0.386-1.411-1.348-1.219-2.31c0.128-0.577,0.385-1.091,0.641-1.667
			c-0.641,0.127-1.218,0.385-1.796,0.385c-1.731,0.127-2.758-1.154-2.181-2.759c0.128-0.32,0.257-0.705,0.385-1.091
			c-0.449,0.129-0.898,0.258-1.283,0.32c-0.77,0.192-1.54,0.064-2.117-0.576c-0.513-0.643-0.706-1.348-0.385-2.117
			c0.128-0.32,0.256-0.705,0.385-1.154c-0.449,0.129-0.77,0.257-1.155,0.321c-1.603,0.385-2.886-0.642-2.822-2.31
			c0.064-1.796,1.604-3.721,3.271-4.041c2.052-0.385,3.656,1.154,3.335,3.207c-0.064,0.258-0.128,0.385,0.257,0.32
			c1.988-0.257,3.335,1.091,3.143,3.143c-0.064,0.321,0,0.449,0.385,0.387c2.181-0.258,3.528,1.603,3.015,3.527
			C109.098,60.161,109.098,60.289,109.034,60.418z"/>
	</g>
</g>
</svg>
