<?xml version="1.0" encoding="utf-8"?>
<!-- Generator: Adobe Illustrator 16.0.4, SVG Export Plug-In . SVG Version: 6.00 Build 0)  -->
<!DOCTYPE svg PUBLIC "-//W3C//DTD SVG 1.1//EN" "http://www.w3.org/Graphics/SVG/1.1/DTD/svg11.dtd">
<svg version="1.1" id="Layer_1" xmlns="http://www.w3.org/2000/svg" xmlns:xlink="http://www.w3.org/1999/xlink" x="0px" y="0px"
	 width="235px" height="93px" viewBox="0 0 235 93" enable-background="new 0 0 235 93" xml:space="preserve">
<path fill="#D7B88C" d="M155.791,56.312c0.385-1.604,2.052-2.629,3.655-2.309c0.063-0.449,0.128-0.834,0.192-1.283
	c-1.668-0.191-2.887-1.667-2.758-3.334l0,0c0.128-1.668,1.539-2.951,3.207-2.887c0-0.449-0.064-0.834-0.064-1.283
	c-0.064,0-0.129,0-0.192,0c-1.604,0-2.95-1.219-3.143-2.822c-0.192-1.667,1.026-3.143,2.63-3.399
	c-0.064-0.449-0.129-0.834-0.193-1.283c-0.256,0.064-0.513,0.128-0.77,0.128c-1.347,0-2.629-0.898-3.014-2.309l0,0
	c-0.514-1.604,0.385-3.271,1.988-3.848c-0.129-0.385-0.321-0.833-0.449-1.219c-0.385,0.192-0.834,0.257-1.283,0.257
	c-1.154,0-2.309-0.642-2.822-1.732c-0.77-1.539-0.191-3.335,1.283-4.104c-0.256-0.385-0.449-0.77-0.705-1.155
	c-0.514,0.385-1.091,0.577-1.732,0.577c-0.962,0-1.924-0.449-2.565-1.283c-1.026-1.347-0.705-3.271,0.577-4.297
	c-0.256-0.321-0.577-0.642-0.897-0.962c-0.642,0.577-1.347,0.898-2.116,0.898s-1.54-0.256-2.182-0.833
	c-1.219-1.155-1.282-3.079-0.191-4.362c-0.321-0.256-0.706-0.513-1.027-0.77c-0.641,0.834-1.539,1.283-2.564,1.283
	c-0.578,0-1.154-0.128-1.732-0.513c-1.41-0.962-1.796-2.822-0.962-4.233c-0.385-0.192-0.77-0.385-1.154-0.641
	c-0.577,1.09-1.668,1.795-2.822,1.795c-0.448,0-0.834-0.064-1.219-0.256c-1.539-0.642-2.245-2.437-1.667-3.977
	c-0.449-0.128-0.834-0.321-1.219-0.449c-0.385,1.411-1.604,2.309-3.015,2.309c-0.257,0-0.449,0-0.706-0.064
	c-1.604-0.385-2.629-1.924-2.373-3.592c-0.449-0.064-0.834-0.128-1.282-0.192c-0.192,1.604-1.476,2.822-3.079,2.822
	c-0.064,0-0.128,0-0.128,0c-1.667-0.064-2.95-1.476-2.95-3.143c-0.449,0-0.898,0.064-1.347,0.064
	c0.128,1.667-1.09,3.143-2.694,3.335l0,0c-0.128,0-0.256,0-0.385,0c-1.539,0-2.822-1.09-3.079-2.629
	c-0.449,0.064-0.833,0.256-1.283,0.32c0.385,1.604-0.449,3.271-2.052,3.784c-0.321,0.128-0.642,0.128-0.962,0.128
	c-1.283,0-2.437-0.834-2.95-2.052c-0.385,0.192-0.834,0.32-1.219,0.513c0.706,1.54,0.128,3.335-1.347,4.105l0,0
	c-0.449,0.256-0.962,0.385-1.475,0.385c-1.09,0-2.117-0.577-2.694-1.539c-0.385,0.256-0.77,0.449-1.154,0.706
	c0.962,1.347,0.705,3.271-0.578,4.297c-0.577,0.449-1.283,0.706-1.924,0.706c-0.898,0-1.732-0.385-2.373-1.09
	c-0.321,0.257-0.642,0.577-0.962,0.898c1.155,1.155,1.283,3.079,0.128,4.361c-0.642,0.706-1.475,1.026-2.373,1.026
	c-0.706,0-1.411-0.256-1.988-0.706c-0.257,0.321-0.513,0.706-0.77,1.09c1.347,0.962,1.795,2.822,0.898,4.233l0,0
	c-0.578,0.962-1.668,1.476-2.694,1.476c-0.513,0-1.026-0.128-1.54-0.385c-0.192,0.385-0.385,0.77-0.577,1.218
	c1.475,0.706,2.245,2.438,1.604,3.977c-0.513,1.219-1.667,1.988-2.95,1.988c-0.385,0-0.706-0.064-1.026-0.192
	c-0.128,0.449-0.257,0.834-0.321,1.283c1.604,0.449,2.63,1.988,2.309,3.656c-0.321,1.475-1.604,2.501-3.079,2.501
	c-0.128,0-0.321,0-0.449-0.064c-0.064,0.449-0.128,0.834-0.192,1.283c1.667,0.128,3.015,1.475,2.951,3.207
	c0,1.668-1.411,3.014-3.015,3.078c0,0.449,0,0.898,0.064,1.283c1.667-0.192,3.207,0.962,3.463,2.629
	c0.257,1.668-0.833,3.144-2.501,3.528c0.128,0.448,0.192,0.834,0.32,1.282c1.604-0.448,3.271,0.385,3.849,1.988
	c0.513,1.604-0.321,3.336-1.86,3.913c0.192,0.385,0.385,0.77,0.578,1.218c1.475-0.77,3.271-0.191,4.104,1.283
	c0.834,1.476,0.321,3.336-1.09,4.169c0.257,0.386,0.513,0.706,0.77,1.091c1.347-0.963,3.207-0.834,4.297,0.513l0,0
	c1.026,1.282,0.898,3.207-0.385,4.298c0.321,0.32,0.577,0.641,0.898,0.961c1.09-1.218,3.015-1.346,4.361-0.256
	c1.283,1.09,1.411,3.015,0.385,4.297c0.385,0.257,0.706,0.578,1.09,0.77c0.898-1.41,2.758-1.859,4.233-1.025
	c1.411,0.834,1.924,2.693,1.154,4.168c0.385,0.193,0.77,0.385,1.219,0.578c0.641-1.539,2.373-2.309,3.977-1.732
	c1.604,0.578,2.373,2.31,1.86,3.913c0.449,0.128,0.834,0.192,1.283,0.32c0.385-1.604,1.924-2.694,3.592-2.373
	s2.758,1.86,2.565,3.528c0.449,0.063,0.898,0.063,1.347,0.063c0.064-1.667,1.411-3.015,3.143-3.015c0.577,0,1.154,0.192,1.604,0.449
	c0.449-0.32,0.962-0.514,1.604-0.577c1.668-0.128,3.143,1.091,3.335,2.694c0.449-0.064,0.897-0.129,1.347-0.193
	c-0.385-1.668,0.642-3.271,2.245-3.72c1.604-0.449,3.271,0.513,3.784,2.116c0.385-0.128,0.834-0.32,1.219-0.449
	c-0.642-1.539,0-3.334,1.539-4.04s3.336-0.064,4.105,1.411c0.385-0.192,0.77-0.449,1.154-0.705
	c-0.898-1.412-0.578-3.271,0.834-4.234c1.346-0.961,3.271-0.641,4.297,0.706c0.32-0.257,0.641-0.577,0.962-0.833
	c-1.091-1.219-1.091-3.144,0.063-4.298c1.219-1.219,3.079-1.219,4.361-0.128c0.258-0.321,0.578-0.642,0.834-1.026
	c-1.346-1.026-1.667-2.886-0.705-4.298c0.962-1.41,2.822-1.731,4.232-0.897c0.193-0.385,0.449-0.77,0.706-1.155
	c-1.539-0.77-2.181-2.564-1.476-4.104c0.706-1.54,2.502-2.246,4.041-1.604c0.129-0.385,0.32-0.834,0.449-1.219
	C156.367,59.584,155.405,57.916,155.791,56.312z M117.436,85.624c-21.55,0-39.06-17.51-39.06-39.06s17.51-39.06,39.06-39.06
	s39.06,17.51,39.06,39.06S138.986,85.624,117.436,85.624z"/>
<g>
	<path fill="#D7B88C" d="M83.25,40.214c3.014-16.163,17.189-28.477,34.186-28.477s31.235,12.314,34.185,28.477h0.898
		c-3.015-16.676-17.574-29.375-35.148-29.375c-17.509,0-32.133,12.699-35.147,29.375H83.25z"/>
	<path fill="#D7B88C" d="M151.621,52.85c-3.014,16.162-17.188,28.478-34.185,28.478S86.201,69.012,83.25,52.85h-0.898
		c3.014,16.676,17.574,29.375,35.147,29.375c17.51,0,32.133-12.699,35.147-29.375H151.621L151.621,52.85z"/>
</g>
<g id="Br92H6_1_">
	<g>
		<path fill="#D7B88C" d="M91.268,31.812c1.924,0.641,3.848,1.347,5.772,1.988c1.539,0.513,3.079,0.385,4.49-0.577
			c2.245-1.411,4.618-2.694,7.119-3.656c2.181-0.77,4.297-0.641,6.221,0.706c0.898,0.642,0.898,0.642,0,1.155
			c-1.988,1.09-4.041,2.245-5.965,3.463c-1.731,1.09-2.629,2.694-2.629,4.746c0.064,2.694,2.437,5.003,5.131,5.003
			c0.898,0,1.668-0.321,2.438-0.706c1.667-0.77,3.335-1.54,4.939-2.245c1.604-0.705,2.886-0.513,4.168,0.77
			c3.207,3.207,6.479,6.478,9.686,9.685c0.962,0.962,1.025,2.438,0.064,3.398c-0.898,0.898-2.373,0.898-3.336-0.128
			c-1.025-1.026-2.053-2.052-3.078-3.015c-0.257-0.191-0.514-0.705-0.834-0.385s0.192,0.642,0.385,0.898
			c0.898,1.09,1.924,2.053,2.887,3.014c1.154,1.219,0.961,3.079-0.449,3.849c-0.963,0.513-2.053,0.257-2.887-0.577
			c-1.282-1.283-2.501-2.629-3.848-3.784c-0.193-0.128-0.385-0.513-0.642-0.32s0.063,0.513,0.257,0.705
			c0.962,1.219,2.053,2.245,3.143,3.335c0.641,0.642,0.962,1.476,0.705,2.373c-0.256,0.898-0.834,1.412-1.731,1.604
			c-0.834,0.193-1.604-0.064-2.181-0.705c-1.219-1.219-2.438-2.565-3.72-3.721c-0.064-0.063-0.128-0.127-0.192-0.191
			c-0.128-0.064-0.256-0.193-0.385-0.064c-0.192,0.129-0.064,0.32,0,0.449c0.128,0.191,0.256,0.385,0.449,0.577
			c0.833,0.833,1.667,1.731,2.5,2.565c0.963,1.025,0.963,2.438,0,3.335c-0.961,0.897-2.373,0.834-3.334-0.192
			c-0.642-0.641-1.09-1.283-1.09-2.309c0-2.245-1.219-3.785-3.335-4.618c-0.257-0.064-0.385-0.257-0.449-0.513
			c-0.513-1.54-1.475-2.63-3.015-3.271c-0.256-0.129-0.385-0.257-0.449-0.449c-0.513-1.475-1.475-2.501-2.95-3.078
			c-0.193-0.064-0.385-0.193-0.449-0.449c-0.898-2.693-3.656-3.913-6.35-3.271c-1.924,0.449-3.271,1.604-4.041,3.4
			c-0.128,0.32-0.257,0.32-0.513,0.191c-0.834-0.256-1.604-0.705-2.438-0.77C91.268,43.935,91.268,37.841,91.268,31.812z"/>
		<path fill="#D7B88C" d="M143.668,49.515c-1.154,0.063-2.244,0.385-3.335,0.577c-0.833,0.129-1.604,0.32-2.437,0.385
			c-1.219,0.064-2.246-0.385-3.079-1.219c-3.528-3.463-7.056-6.927-10.583-10.39c-1.09-1.026-2.373-1.347-3.72-0.706
			c-2.116,1.026-4.169,2.117-6.286,3.207c-0.513,0.256-0.962,0.513-1.475,0.77c-1.475,0.706-3.207,0.192-3.977-1.283
			c-0.77-1.411-0.257-3.207,1.154-4.041c4.169-2.374,8.273-4.747,12.507-7.056c0.577-0.32,1.091-0.577,1.731-0.705
			c1.283-0.257,2.31,0.32,3.271,1.09c1.668,1.347,3.271,2.758,4.875,4.104c0.641,0.578,1.282,1.09,2.18,1.219
			c0.77,0.128,1.476-0.128,2.182-0.256c2.244-0.449,4.489-0.962,6.734-1.476c0.064,0,0.128-0.064,0.191-0.064
			C143.668,38.868,143.668,44.191,143.668,49.515z"/>
		<path fill="#D7B88C" d="M109.034,60.418c0.449,0,0.834-0.192,1.283-0.129c1.86,0.258,2.951,1.988,2.309,3.785
			c-0.641,1.988-3.399,3.271-5.323,2.438c-0.898-0.386-1.411-1.348-1.219-2.31c0.128-0.577,0.385-1.091,0.641-1.667
			c-0.641,0.127-1.218,0.385-1.796,0.385c-1.731,0.127-2.758-1.155-2.181-2.759c0.128-0.32,0.257-0.705,0.385-1.09
			c-0.449,0.128-0.898,0.257-1.283,0.32c-0.77,0.192-1.54,0.064-2.117-0.577c-0.513-0.642-0.706-1.347-0.385-2.117
			c0.128-0.32,0.256-0.705,0.385-1.154c-0.449,0.129-0.77,0.257-1.155,0.321c-1.603,0.385-2.886-0.642-2.822-2.31
			c0.064-1.795,1.604-3.72,3.271-4.04c2.052-0.385,3.656,1.154,3.335,3.206c-0.064,0.258-0.128,0.386,0.257,0.321
			c1.988-0.257,3.335,1.091,3.143,3.143c-0.064,0.321,0,0.449,0.385,0.386c2.181-0.258,3.528,1.603,3.015,3.527
			C109.098,60.161,109.098,60.289,109.034,60.418z"/>
	</g>
</g>
</svg>
