<?xml version="1.0" encoding="utf-8"?>
<!-- Generator: Adobe Illustrator 19.1.0, SVG Export Plug-In . SVG Version: 6.00 Build 0)  -->
<svg version="1.1" id="Layer_1" xmlns="http://www.w3.org/2000/svg" xmlns:xlink="http://www.w3.org/1999/xlink" x="0px" y="0px"
	 viewBox="0 0 142 145" style="enable-background:new 0 0 142 145;" xml:space="preserve">
<style type="text/css">
	.st0{fill:#4D4D4F;}
</style>
<path class="st0" d="M130.6,87.6c0.6-2.5,3.2-4.1,5.7-3.5c0.1-0.7,0.2-1.3,0.3-2c-2.6-0.3-4.5-2.6-4.3-5.2c0.2-2.6,2.4-4.6,5.1-4.5
	c0-0.7-0.1-1.3-0.1-2c-0.1,0-0.2,0-0.3,0c-2.5,0-4.6-1.9-4.9-4.4c-0.3-2.6,1.6-4.9,4.1-5.3c-0.1-0.7-0.2-1.3-0.3-2
	c-0.4,0.1-0.8,0.2-1.2,0.2c-2.1,0-4.1-1.4-4.7-3.5c-0.8-2.5,0.6-5.1,3.1-6c-0.2-0.6-0.4-1.3-0.7-1.9c-0.6,0.3-1.3,0.4-2,0.4
	c-1.8,0-3.6-1-4.4-2.7c-1.2-2.4-0.3-5.2,2-6.4c-0.4-0.6-0.7-1.2-1.1-1.8c-0.8,0.6-1.7,0.9-2.7,0.9c-1.5,0-3-0.7-4-2
	c-1.6-2.1-1.1-5,0.9-6.7c-0.4-0.5-0.9-1-1.4-1.5c-1,0.9-2.1,1.4-3.3,1.4c-1.2,0-2.4-0.4-3.4-1.3c-1.9-1.8-2-4.8-0.3-6.8
	c-0.5-0.4-1.1-0.8-1.6-1.2c-1,1.3-2.4,2-3.9,2c-0.9,0-1.8-0.3-2.7-0.8c-2.2-1.4-2.8-4.3-1.5-6.6c-0.6-0.3-1.2-0.6-1.8-0.9
	c-0.9,1.7-2.6,2.8-4.4,2.8c-0.7,0-1.3-0.1-1.9-0.4c-2.4-1.1-3.5-3.8-2.6-6.2c-0.6-0.2-1.3-0.5-1.9-0.7c-0.6,2.2-2.5,3.6-4.7,3.6
	c-0.4,0-0.7,0-1.1-0.1c-2.5-0.6-4.1-3.1-3.7-5.6c-0.7-0.1-1.3-0.2-2-0.3c-0.2,2.5-2.3,4.4-4.8,4.4c-0.1,0-0.2,0-0.2,0
	c-2.6-0.1-4.6-2.3-4.6-4.9c-0.7,0-1.4,0.1-2.1,0.1c0.2,2.6-1.6,4.9-4.2,5.2c-0.2,0-0.4,0-0.6,0c-2.4,0-4.4-1.7-4.8-4.1
	c-0.7,0.1-1.3,0.4-2,0.5c0.7,2.5-0.7,5.1-3.2,5.9c-0.5,0.2-1,0.2-1.5,0.2c-2,0-3.9-1.3-4.6-3.2c-0.6,0.3-1.3,0.5-1.9,0.8
	c1.1,2.4,0.2,5.2-2.1,6.4c-0.7,0.4-1.5,0.6-2.3,0.6c-1.7,0-3.3-0.9-4.2-2.4c-0.6,0.4-1.2,0.7-1.7,1c1.5,2.1,1.1,5.1-0.9,6.7
	c-0.9,0.7-2,1-3,1c-1.4,0-2.7-0.6-3.7-1.7c-0.5,0.5-1,0.9-1.5,1.4c1.8,1.8,2,4.8,0.2,6.8c-1,1.1-2.3,1.6-3.6,1.6
	c-1.1,0-2.2-0.4-3.1-1.1c-0.4,0.5-0.8,1.1-1.2,1.6c2.1,1.5,2.8,4.3,1.4,6.6c-0.9,1.5-2.5,2.3-4.2,2.3c-0.8,0-1.6-0.2-2.4-0.7
	c-0.3,0.6-0.6,1.2-0.9,1.8c2.3,1.1,3.5,3.8,2.5,6.2c-0.8,1.9-2.6,3.1-4.5,3.1c-0.6,0-1.1-0.1-1.6-0.3c-0.2,0.7-0.3,1.3-0.5,2
	c2.5,0.7,4.1,3.1,3.6,5.7C10.1,62.4,8,64,5.7,64C5.5,64,5.2,64,5,64c-0.1,0.7-0.2,1.3-0.3,2c2.6,0.2,4.7,2.3,4.6,4.9
	c0,2.6-2.2,4.7-4.7,4.8c0,0.7,0,1.4,0.1,2c2.6-0.3,5,1.5,5.3,4.1c0.4,2.6-1.3,5-3.9,5.5c0.2,0.7,0.3,1.3,0.5,2
	c2.5-0.7,5.1,0.6,6,3.1c0.8,2.5-0.5,5.2-2.9,6.1c0.3,0.6,0.6,1.2,0.9,1.8c2.3-1.1,5.1-0.3,6.4,2c1.3,2.3,0.5,5.1-1.7,6.5
	c0.4,0.6,0.8,1.1,1.2,1.7c2.1-1.6,5-1.3,6.7,0.8c1.7,2,1.4,5-0.5,6.7c0.5,0.5,0.9,1,1.4,1.5c1.8-1.9,4.7-2.1,6.8-0.4
	c2,1.7,2.2,4.6,0.6,6.7c0.6,0.4,1.1,0.8,1.7,1.2c1.4-2.2,4.3-2.9,6.6-1.6c2.2,1.3,3,4.1,1.8,6.5c0.6,0.3,1.2,0.6,1.9,0.9
	c1-2.4,3.7-3.6,6.2-2.7c2.5,0.9,3.7,3.6,2.9,6.1c0.7,0.2,1.3,0.3,2,0.5c0.6-2.5,3-4.2,5.6-3.7c2.6,0.5,4.3,2.9,4,5.5
	c0.7,0.1,1.4,0.1,2.1,0.1c0.1-2.6,2.2-4.6,4.8-4.6c0.9,0,1.8,0.2,2.5,0.7c0.7-0.5,1.5-0.8,2.5-0.9c2.6-0.2,4.9,1.7,5.2,4.2
	c0.7-0.1,1.4-0.2,2-0.3c-0.5-2.5,1-5.1,3.5-5.8c2.5-0.7,5.1,0.8,5.9,3.3c0.7-0.2,1.3-0.5,1.9-0.7c-1-2.4,0.1-5.1,2.4-6.3
	c2.4-1.1,5.2-0.1,6.4,2.2c0.6-0.3,1.2-0.7,1.8-1.1c-1.4-2.2-0.9-5.1,1.3-6.6c2.1-1.5,5.1-1,6.7,1c0.5-0.4,1-0.9,1.5-1.4
	c-1.7-1.9-1.7-4.9,0.1-6.7c1.9-1.9,4.8-1.9,6.7-0.1c0.5-0.5,0.9-1.1,1.3-1.6c-2.1-1.6-2.6-4.5-1.1-6.7c1.5-2.2,4.4-2.7,6.6-1.3
	c0.4-0.6,0.7-1.2,1.1-1.8c-2.3-1.2-3.4-4-2.2-6.4c1.1-2.4,3.8-3.4,6.2-2.5c0.2-0.7,0.5-1.3,0.7-2C131.5,92.7,130,90.2,130.6,87.6z
	 M70.9,133.3c-33.6,0-60.8-27.3-60.8-60.8c0-33.6,27.3-60.8,60.8-60.8c33.6,0,60.8,27.3,60.8,60.8C131.8,106,104.5,133.3,70.9,133.3
	z"/>
<g>
	<path class="st0" d="M17.7,62.6c4.7-25.2,26.7-44.3,53.2-44.3c26.5,0,48.6,19.1,53.2,44.3h1.4c-4.7-26-27.4-45.7-54.7-45.7
		c-27.3,0-50,19.8-54.7,45.7H17.7z"/>
	<path class="st0" d="M124.2,82.3c-4.7,25.2-26.7,44.3-53.2,44.3c-26.5,0-48.6-19.1-53.2-44.3h-1.4c4.7,26,27.4,45.7,54.7,45.7
		c27.3,0,50-19.8,54.7-45.7H124.2z"/>
</g>
<path class="st0" d="M105.8,63c-1-10.3-9.5-18.5-19.9-19c-6.3-0.3-12.1,2.1-16.2,6.2c-4.1-4.1-9.9-6.6-16.2-6.2
	c-10.3,0.6-18.9,8.7-19.9,19c-0.1,0.8-0.1,1.8,0,2.9c0.3,3.6,1.8,7,4.3,9.7l8.1,8.9l23.7,25.8l23.8-25.8l8.2-9
	c3-3.3,4.6-7.7,4.2-12.2C105.8,63.2,105.8,63.1,105.8,63z"/>
</svg>
