<?xml version="1.0" encoding="utf-8"?>
<!-- Generator: Adobe Illustrator 16.0.4, SVG Export Plug-In . SVG Version: 6.00 Build 0)  -->
<!DOCTYPE svg PUBLIC "-//W3C//DTD SVG 1.1//EN" "http://www.w3.org/Graphics/SVG/1.1/DTD/svg11.dtd">
<svg version="1.1" id="Layer_1" xmlns="http://www.w3.org/2000/svg" xmlns:xlink="http://www.w3.org/1999/xlink" x="0px" y="0px"
	 width="235px" height="93px" viewBox="0 0 235 93" enable-background="new 0 0 235 93" xml:space="preserve">
<path fill="#D7B88C" d="M155.727,56.185c0.385-1.603,2.053-2.63,3.655-2.245c0.064-0.448,0.128-0.833,0.192-1.282
	c-1.668-0.192-2.886-1.667-2.758-3.335c0.129-1.668,1.539-2.951,3.271-2.886c0-0.449-0.064-0.834-0.064-1.283
	c-0.064,0-0.129,0-0.192,0c-1.604,0-2.95-1.219-3.143-2.822c-0.192-1.667,1.026-3.143,2.63-3.399
	c-0.064-0.449-0.129-0.833-0.193-1.283c-0.256,0.064-0.513,0.128-0.77,0.128c-1.347,0-2.629-0.898-3.014-2.245
	c-0.514-1.604,0.385-3.271,1.988-3.848c-0.129-0.385-0.257-0.833-0.449-1.219c-0.385,0.192-0.834,0.257-1.283,0.257
	c-1.154,0-2.309-0.642-2.822-1.732c-0.77-1.539-0.191-3.335,1.283-4.104c-0.256-0.385-0.449-0.77-0.705-1.155
	c-0.514,0.385-1.091,0.577-1.732,0.577c-0.962,0-1.924-0.449-2.565-1.283c-1.026-1.347-0.705-3.207,0.577-4.297
	c-0.256-0.321-0.577-0.642-0.897-0.962c-0.642,0.577-1.347,0.898-2.116,0.898s-1.54-0.256-2.182-0.833
	c-1.219-1.155-1.282-3.079-0.191-4.362c-0.321-0.256-0.706-0.513-1.027-0.77c-0.641,0.834-1.539,1.283-2.501,1.283
	c-0.577,0-1.154-0.192-1.731-0.513c-1.411-0.897-1.796-2.758-0.963-4.233c-0.385-0.192-0.77-0.385-1.154-0.577
	c-0.576,1.09-1.667,1.796-2.821,1.796c-0.449,0-0.834-0.064-1.219-0.257c-1.54-0.706-2.245-2.437-1.667-3.977
	c-0.386-0.128-0.834-0.32-1.219-0.449c-0.385,1.411-1.604,2.309-3.016,2.309c-0.256,0-0.448,0-0.705-0.064
	c-1.604-0.385-2.629-1.988-2.373-3.592c-0.449-0.064-0.834-0.128-1.283-0.192c-0.128,1.604-1.475,2.822-3.078,2.822
	c-0.064,0-0.129,0-0.129,0c-1.667-0.064-2.95-1.475-2.95-3.143c-0.449,0-0.898,0.064-1.347,0.064
	c0.128,1.667-1.026,3.143-2.694,3.335c-0.128,0-0.257,0-0.385,0c-1.54,0-2.822-1.09-3.079-2.629
	c-0.449,0.064-0.834,0.256-1.283,0.321c0.449,1.604-0.449,3.271-2.052,3.784c-0.321,0.128-0.641,0.128-0.962,0.128
	c-1.283,0-2.501-0.833-2.95-2.052c-0.385,0.192-0.834,0.321-1.219,0.513c0.706,1.539,0.128,3.335-1.347,4.104
	c-0.449,0.257-0.962,0.385-1.475,0.385c-1.09,0-2.117-0.578-2.694-1.54c-0.385,0.257-0.77,0.449-1.09,0.642
	c0.962,1.347,0.706,3.271-0.577,4.297c-0.577,0.449-1.283,0.642-1.924,0.642c-0.898,0-1.731-0.385-2.373-1.09
	c-0.32,0.321-0.641,0.577-0.962,0.898c1.154,1.154,1.283,3.079,0.128,4.361c-0.642,0.706-1.475,1.026-2.309,1.026
	c-0.706,0-1.411-0.257-1.988-0.706c-0.256,0.321-0.513,0.706-0.77,1.026c1.347,0.962,1.796,2.758,0.898,4.233
	c-0.578,0.962-1.604,1.475-2.694,1.475c-0.513,0-1.026-0.128-1.54-0.449c-0.192,0.385-0.385,0.77-0.577,1.155
	c1.475,0.706,2.245,2.437,1.604,3.977c-0.513,1.219-1.667,1.988-2.886,1.988c-0.385,0-0.706-0.064-1.026-0.192
	c-0.128,0.449-0.192,0.833-0.32,1.283c1.603,0.449,2.629,1.988,2.309,3.656c-0.385,1.475-1.731,2.501-3.207,2.501
	c-0.128,0-0.321,0-0.449,0c-0.064,0.449-0.128,0.833-0.192,1.283c1.667,0.128,3.015,1.475,2.95,3.143
	c0,1.668-1.411,3.015-3.014,3.079c0,0.449,0,0.897,0.064,1.282c1.667-0.192,3.207,0.962,3.399,2.63
	c0.256,1.668-0.834,3.207-2.501,3.527c0.128,0.449,0.192,0.834,0.321,1.283c1.604-0.449,3.271,0.385,3.848,1.988
	c0.513,1.604-0.321,3.335-1.86,3.912c0.192,0.385,0.385,0.77,0.577,1.154c1.475-0.705,3.271-0.192,4.105,1.283
	c0.833,1.475,0.32,3.271-1.09,4.169c0.256,0.385,0.513,0.706,0.77,1.091c1.347-1.027,3.207-0.834,4.297,0.513
	c1.09,1.282,0.898,3.206-0.321,4.297c0.321,0.321,0.577,0.642,0.898,0.962c1.154-1.219,3.014-1.347,4.361-0.256
	c1.283,1.09,1.411,2.95,0.385,4.297c0.385,0.256,0.706,0.514,1.09,0.77c0.898-1.411,2.758-1.859,4.233-1.026
	c1.411,0.834,1.924,2.63,1.155,4.169c0.385,0.193,0.77,0.385,1.219,0.578c0.641-1.54,2.373-2.31,3.977-1.732
	c1.603,0.577,2.373,2.309,1.86,3.912c0.449,0.129,0.833,0.193,1.283,0.321c0.385-1.604,1.924-2.694,3.592-2.374
	c1.667,0.321,2.758,1.861,2.565,3.528c0.449,0.063,0.898,0.063,1.347,0.063c0.064-1.667,1.411-2.949,3.079-2.949
	c0.578,0,1.155,0.128,1.604,0.448c0.449-0.32,0.962-0.513,1.604-0.577c1.667-0.128,3.143,1.09,3.335,2.693
	c0.448-0.063,0.897-0.128,1.282-0.191c-0.32-1.604,0.642-3.271,2.245-3.721s3.271,0.514,3.784,2.117
	c0.449-0.129,0.834-0.321,1.219-0.449c-0.642-1.539,0.064-3.271,1.539-4.041c1.539-0.705,3.336-0.064,4.105,1.411
	c0.385-0.192,0.77-0.448,1.154-0.706c-0.898-1.41-0.578-3.271,0.834-4.232c1.346-0.962,3.271-0.642,4.297,0.642
	c0.32-0.257,0.641-0.577,0.962-0.898c-1.091-1.218-1.091-3.143,0.063-4.297c1.219-1.219,3.079-1.219,4.298-0.064
	c0.321-0.32,0.577-0.705,0.834-1.026c-1.347-1.025-1.668-2.886-0.706-4.297c0.963-1.411,2.822-1.732,4.233-0.834
	c0.257-0.385,0.449-0.77,0.706-1.154c-1.476-0.77-2.182-2.565-1.412-4.105c0.706-1.539,2.438-2.18,3.977-1.604
	c0.129-0.448,0.321-0.833,0.449-1.282C156.303,59.456,155.342,57.853,155.727,56.185z M117.436,85.496
	c-21.55,0-38.996-17.51-38.996-38.996c0-21.55,17.51-38.996,38.996-38.996c21.55,0,38.996,17.51,38.996,38.996
	C156.496,67.986,138.986,85.496,117.436,85.496z"/>
<g>
	<path fill="#D7B88C" d="M83.314,40.15c3.015-16.163,17.125-28.413,34.122-28.413s31.171,12.25,34.121,28.413h0.898
		c-3.014-16.676-17.574-29.311-35.083-29.311S85.303,23.539,82.288,40.15H83.314z"/>
	<path fill="#D7B88C" d="M151.621,52.785c-3.014,16.163-17.125,28.414-34.121,28.414c-16.997,0-31.171-12.251-34.122-28.414H82.48
		c3.015,16.676,17.574,29.312,35.083,29.312c17.51,0,32.069-12.699,35.083-29.312H151.621z"/>
</g>
<path fill="#D7B88C" d="M139.82,40.407c-0.642-6.606-6.094-11.865-12.764-12.186c-4.041-0.192-7.761,1.347-10.391,3.977
	c-2.629-2.63-6.35-4.233-10.39-3.977c-6.606,0.385-12.122,5.58-12.764,12.186c-0.064,0.513-0.064,1.155,0,1.86
	c0.192,2.309,1.155,4.489,2.758,6.221l5.195,5.709l15.201,16.547l15.266-16.547l5.259-5.773c1.924-2.116,2.95-4.938,2.694-7.825
	C139.82,40.535,139.82,40.471,139.82,40.407z"/>
</svg>
