<?xml version="1.0" encoding="utf-8"?>
<!-- Generator: Adobe Illustrator 16.0.4, SVG Export Plug-In . SVG Version: 6.00 Build 0)  -->
<!DOCTYPE svg PUBLIC "-//W3C//DTD SVG 1.1//EN" "http://www.w3.org/Graphics/SVG/1.1/DTD/svg11.dtd">
<svg version="1.1" id="Layer_1" xmlns="http://www.w3.org/2000/svg" xmlns:xlink="http://www.w3.org/1999/xlink" x="0px" y="0px"
	 width="93px" height="93px" viewBox="1.5 1.5 93 93" enable-background="new 1.5 1.5 93 93" xml:space="preserve">
<path fill="#D7B88C" d="M86.225,59.25c0.385-1.604,2.053-2.631,3.654-2.246c0.064-0.445,0.129-0.832,0.193-1.279
	c-1.668-0.193-2.887-1.668-2.758-3.336c0.129-1.669,1.539-2.951,3.27-2.886c0-0.448-0.062-0.834-0.062-1.283
	c-0.064,0-0.129,0-0.191,0c-1.604,0-2.951-1.219-3.145-2.822c-0.191-1.667,1.025-3.143,2.631-3.399
	c-0.064-0.449-0.129-0.833-0.193-1.283c-0.256,0.064-0.514,0.128-0.77,0.128c-1.348,0-2.629-0.898-3.016-2.245
	c-0.514-1.604,0.387-3.271,1.988-3.848c-0.129-0.385-0.256-0.833-0.449-1.219c-0.385,0.192-0.834,0.257-1.281,0.257
	c-1.154,0-2.311-0.642-2.822-1.732c-0.771-1.539-0.191-3.335,1.283-4.104c-0.258-0.385-0.449-0.77-0.705-1.155
	c-0.516,0.385-1.092,0.577-1.732,0.577c-0.961,0-1.924-0.449-2.562-1.283c-1.027-1.347-0.705-3.207,0.574-4.297
	c-0.256-0.321-0.574-0.642-0.895-0.962c-0.643,0.577-1.348,0.898-2.117,0.898c-0.768,0-1.539-0.256-2.182-0.833
	c-1.219-1.155-1.281-3.079-0.191-4.362c-0.32-0.256-0.705-0.513-1.025-0.77c-0.643,0.834-1.539,1.283-2.502,1.283
	c-0.576,0-1.154-0.192-1.73-0.513c-1.41-0.897-1.797-2.758-0.963-4.233c-0.385-0.192-0.771-0.385-1.154-0.577
	c-0.576,1.09-1.666,1.796-2.82,1.796c-0.447,0-0.834-0.064-1.219-0.257c-1.541-0.706-2.246-2.437-1.668-3.977
	c-0.387-0.128-0.834-0.32-1.219-0.449c-0.385,1.411-1.604,2.309-3.016,2.309c-0.258,0-0.449,0-0.705-0.064
	c-1.604-0.385-2.629-1.988-2.373-3.592c-0.449-0.064-0.834-0.128-1.283-0.192c-0.129,1.604-1.475,2.822-3.078,2.822
	c-0.062,0-0.129,0-0.129,0c-1.667-0.064-2.95-1.475-2.95-3.143c-0.449,0-0.898,0.064-1.348,0.064
	c0.129,1.667-1.025,3.143-2.693,3.335c-0.128,0-0.257,0-0.385,0c-1.54,0-2.822-1.09-3.079-2.629
	c-0.449,0.064-0.834,0.256-1.283,0.321c0.449,1.604-0.448,3.271-2.052,3.784c-0.321,0.128-0.641,0.128-0.963,0.128
	c-1.282,0-2.5-0.833-2.949-2.052c-0.385,0.192-0.834,0.321-1.219,0.513c0.705,1.539,0.127,3.335-1.348,4.104
	c-0.449,0.257-0.962,0.385-1.475,0.385c-1.09,0-2.117-0.578-2.693-1.54c-0.386,0.257-0.771,0.449-1.091,0.642
	c0.962,1.347,0.706,3.271-0.577,4.297c-0.576,0.449-1.283,0.642-1.924,0.642c-0.898,0-1.73-0.385-2.373-1.09
	c-0.32,0.321-0.641,0.577-0.962,0.898c1.154,1.154,1.283,3.079,0.128,4.361c-0.643,0.706-1.475,1.026-2.309,1.026
	c-0.706,0-1.411-0.257-1.988-0.706c-0.256,0.321-0.514,0.706-0.77,1.026c1.347,0.962,1.795,2.758,0.897,4.233
	c-0.578,0.962-1.604,1.475-2.694,1.475c-0.513,0-1.025-0.128-1.539-0.449c-0.192,0.385-0.386,0.77-0.578,1.155
	c1.476,0.706,2.246,2.437,1.604,3.977c-0.513,1.219-1.667,1.988-2.886,1.988c-0.385,0-0.706-0.064-1.026-0.192
	c-0.128,0.449-0.192,0.833-0.319,1.283c1.603,0.449,2.629,1.988,2.309,3.656c-0.385,1.475-1.73,2.501-3.207,2.501
	c-0.128,0-0.32,0-0.449,0c-0.064,0.449-0.128,0.833-0.191,1.283c1.666,0.128,3.015,1.475,2.949,3.143c0,1.667-1.41,3.016-3.014,3.08
	c0,0.447,0,0.896,0.064,1.281c1.666-0.191,3.207,0.961,3.398,2.629c0.256,1.668-0.834,3.207-2.501,3.527
	c0.128,0.447,0.192,0.834,0.321,1.281c1.604-0.447,3.271,0.387,3.848,1.988c0.514,1.605-0.32,3.336-1.859,3.912
	c0.191,0.385,0.385,0.77,0.576,1.154c1.476-0.705,3.271-0.191,4.105,1.283c0.833,1.475,0.32,3.271-1.09,4.17
	c0.256,0.385,0.513,0.705,0.77,1.09c1.348-1.027,3.207-0.834,4.297,0.514c1.09,1.281,0.898,3.205-0.32,4.297
	c0.32,0.32,0.576,0.643,0.897,0.961c1.154-1.219,3.015-1.346,4.361-0.256c1.282,1.09,1.411,2.951,0.385,4.297
	c0.386,0.256,0.706,0.516,1.091,0.771c0.897-1.41,2.758-1.857,4.232-1.025c1.411,0.834,1.924,2.631,1.154,4.17
	c0.386,0.191,0.771,0.385,1.22,0.576c0.641-1.539,2.373-2.309,3.978-1.73c1.603,0.576,2.373,2.309,1.859,3.912
	c0.449,0.129,0.833,0.191,1.283,0.32c0.385-1.604,1.924-2.693,3.592-2.373c1.667,0.32,2.758,1.859,2.564,3.527
	c0.449,0.061,0.898,0.061,1.348,0.061c0.064-1.666,1.41-2.949,3.079-2.949c0.58,0,1.156,0.131,1.603,0.449
	c0.449-0.318,0.963-0.514,1.605-0.578c1.668-0.127,3.143,1.092,3.336,2.693c0.447-0.061,0.896-0.127,1.281-0.191
	c-0.32-1.604,0.643-3.27,2.246-3.721c1.602-0.449,3.27,0.514,3.781,2.117c0.449-0.129,0.834-0.32,1.221-0.449
	c-0.643-1.539,0.062-3.27,1.539-4.041c1.539-0.705,3.336-0.062,4.104,1.412c0.385-0.193,0.771-0.449,1.154-0.707
	c-0.898-1.41-0.578-3.27,0.834-4.23c1.346-0.963,3.271-0.643,4.297,0.643c0.32-0.258,0.641-0.576,0.963-0.898
	c-1.092-1.217-1.092-3.143,0.062-4.297c1.219-1.219,3.078-1.219,4.297-0.062c0.32-0.32,0.578-0.705,0.834-1.027
	c-1.348-1.023-1.668-2.885-0.705-4.297c0.963-1.41,2.822-1.732,4.232-0.834c0.258-0.385,0.449-0.77,0.705-1.154
	c-1.475-0.77-2.182-2.562-1.412-4.104c0.707-1.539,2.439-2.182,3.979-1.604c0.129-0.447,0.32-0.832,0.449-1.281
	C86.801,62.521,85.84,60.918,86.225,59.25z M47.933,88.561c-21.549,0-38.996-17.51-38.996-38.996
	c0-21.549,17.511-38.996,38.996-38.996c21.551,0,38.997,17.51,38.997,38.996C86.994,71.051,69.484,88.561,47.933,88.561z"/>
<g>
	<path fill="#D7B88C" d="M13.812,43.215c3.015-16.163,17.125-28.413,34.121-28.413c16.999,0,31.172,12.25,34.122,28.413h0.898
		C79.939,26.539,65.379,13.904,47.87,13.904c-17.509,0-32.069,12.7-35.084,29.311H13.812z"/>
	<path fill="#D7B88C" d="M82.119,55.85c-3.014,16.164-17.125,28.414-34.122,28.414c-16.997,0-31.171-12.25-34.122-28.414h-0.897
		c3.015,16.676,17.574,29.312,35.082,29.312c17.51,0,32.069-12.699,35.084-29.312H82.119z"/>
</g>
<path fill="#D7B88C" d="M70.318,43.472c-0.645-6.606-6.094-11.865-12.764-12.186c-4.041-0.192-7.764,1.347-10.393,3.977
	c-2.629-2.63-6.35-4.233-10.391-3.977c-6.605,0.385-12.121,5.58-12.764,12.186c-0.064,0.513-0.064,1.155,0,1.86
	c0.192,2.309,1.155,4.488,2.758,6.221l5.195,5.709l15.201,16.547L62.43,57.262l5.258-5.773c1.924-2.115,2.951-4.938,2.693-7.824
	C70.318,43.6,70.318,43.536,70.318,43.472z"/>
</svg>
