<?xml version="1.0" encoding="utf-8"?>
<!-- Generator: Adobe Illustrator 16.0.4, SVG Export Plug-In . SVG Version: 6.00 Build 0)  -->
<!DOCTYPE svg PUBLIC "-//W3C//DTD SVG 1.1//EN" "http://www.w3.org/Graphics/SVG/1.1/DTD/svg11.dtd">
<svg version="1.1" id="Layer_1" xmlns="http://www.w3.org/2000/svg" xmlns:xlink="http://www.w3.org/1999/xlink" x="0px" y="0px"
	 width="100px" height="100px" viewBox="0 0 100 100" enable-background="new 0 0 100 100" xml:space="preserve">
<g>
	<g id="bg_copy_2_">
		<g>
			<path fill="#D7B88C" d="M50,86.7c-20.1,0-36.5-16.5-36.5-36.7S29.9,13.3,50,13.3c20.1,0,36.5,16.4,36.5,36.7
				C86.5,70.2,70.1,86.7,50,86.7z M50,14.1c-19.6,0-35.6,16.1-35.6,35.8s16,35.8,35.6,35.8c19.6,0,35.6-16.101,35.6-35.8
				S69.6,14.1,50,14.1z"/>
		</g>
	</g>
	<g>
		<path fill="#D7B88C" d="M51,99.9l-7.7-0.5L37.7,90l-8.5-3.7l-10.7,2.2l-5.6-5.4l1.7-10.8L10.5,64L1,58.8l-0.9-7.7l8.2-7.2l2.2-9
			l-4-10.2l4.3-6.5L21.7,18l7.4-5.5l3.4-10.4L39.9,0l8.5,6.9l9.2,0.6L66.9,1.8l7.1,3l2,10.7l6.7,6.4l10.8,1.6l3.4,7L91.6,40.1l1,9.2
			l7.2,8.2L98.1,65L88,68.9L82.9,76.6l0.3,10.9L77,92.1l-10.3-3.6l-8.9,2.6L51,99.9z M44.3,97.7l5.9,0.399l6.5-8.3L66.6,86.9
			l9.9,3.399l4.8-3.5L81,76.2l5.7-8.7l9.8-3.8l1.4-5.8l-7-7.9l-1.2-10.4l5.1-9.2l-2.6-5.3l-10.4-1.5l-7.5-7.2L72.3,6L67,3.7l-9,5.6
			L47.7,8.6L39.5,2l-5.7,1.7l-3.3,10l-8.3,6.2L11.7,20l-3.3,5l3.9,9.8L9.9,44.9L2,51.8l0.7,5.9l9.3,5l4.6,9.3l-1.7,10.4l4.3,4.1
			l10.3-2.2l9.5,4.2L44.3,97.7z M50,84.2c-18.8,0-34.1-15.4-34.1-34.3S31.2,15.7,50,15.7S84.1,31.1,84.1,50
			C84.1,68.8,68.8,84.2,50,84.2z M50,17.4c-17.8,0-32.3,14.6-32.3,32.5S32.2,82.4,50,82.4S82.3,67.8,82.3,49.9S67.8,17.4,50,17.4z"
			/>
	</g>
</g>
<g>
	<g>
		<path fill="none" stroke="#D7B88C" stroke-miterlimit="10" d="M34.6,27.2h2.2v2.2h2v-2.2H41v6.7h-2.2v-2.2h-2v2.2h-2.2V27.2
			L34.6,27.2z"/>
		<path fill="none" stroke="#D7B88C" stroke-miterlimit="10" d="M44,29.4h-2v-2.2h6.2v2.2h-2v4.5H44V29.4L44,29.4z"/>
		<path fill="none" stroke="#D7B88C" stroke-miterlimit="10" d="M49.2,27.2h2.3l1.4,2.3l1.399-2.3h2.3v6.7H54.4v-3.3L53,32.9l0,0
			l-1.5-2.4v3.3h-2.2v-6.6H49.2z"/>
		<path fill="none" stroke="#D7B88C" stroke-miterlimit="10" d="M57.8,27.2H60v4.5h3.1v2.2H57.7v-6.7H57.8z"/>
		<path fill="none" stroke="#D7B88C" stroke-miterlimit="10" d="M31.3,36.9l3.2,35.8l14.3,4l14.4-4l3.2-35.8H31.3z M59.7,45.4
			l-0.2,2.2l-0.1,1l0,0H48.8l0,0h-6.2l0.4,4.5h5.8l0,0h9H59l-0.1,1.2l-1,11.601L57.8,66.6l-9,2.5l0,0l0,0l-9-2.5L39.2,59.7h2h2.4
			l0.3,3.5l4.9,1.3l0,0l0,0l4.9-1.3l0.5-5.7h-5.4l0,0H39l-1.1-12.1l-0.1-1.2h11l0,0h11L59.7,45.4z"/>
	</g>
</g>
</svg>
