<?xml version="1.0" encoding="utf-8"?>
<!-- Generator: Adobe Illustrator 16.0.4, SVG Export Plug-In . SVG Version: 6.00 Build 0)  -->
<!DOCTYPE svg PUBLIC "-//W3C//DTD SVG 1.1//EN" "http://www.w3.org/Graphics/SVG/1.1/DTD/svg11.dtd">
<svg version="1.1" id="Layer_1" xmlns="http://www.w3.org/2000/svg" xmlns:xlink="http://www.w3.org/1999/xlink" x="0px" y="0px"
	 width="1140px" height="40px" viewBox="0 0 1140 40" enable-background="new 0 0 1140 40" xml:space="preserve">
<path fill="#D7B88C" d="M17.299,35.569L17.299,35.569C8.649,35.569,1.73,28.649,1.73,20S8.649,4.431,17.299,4.431
	S32.868,11.351,32.868,20l0,0h1.729l0,0c0-9.515-7.784-17.299-17.299-17.299C7.785,2.701,0,10.485,0,20s7.785,17.299,17.299,17.299
	l0,0l0,0V35.569z"/>
<path fill="#DCDBC7" d="M17.299,35.569L17.299,35.569L17.299,35.569z"/>
<polygon fill="#D7B88C" points="17.299,35.569 17.299,37.299 1140,37.299 1139.135,35.569 "/>
<rect x="17.299" y="35.569" fill="#DCDBC7" width="0" height="1.729"/>
<path fill="#D7B88C" d="M17.731,30.379c-4.757,0-9.082-3.459-9.947-8.217l-1.73,0.433c1.297,5.622,5.622,9.515,11.244,9.515
	L17.731,30.379L17.731,30.379z"/>
<path fill="#DCDBC7" d="M17.299,32.109L17.299,32.109C17.731,32.109,17.299,32.109,17.299,32.109L17.299,32.109z"/>
<polygon fill="#D7B88C" points="17.731,30.379 17.731,30.379 17.731,32.109 1136.973,32.109 1136.107,30.379 "/>
<path fill="#D7B88C" d="M17.731,30.379L17.731,30.379v1.73c0,0,0,0,0.433,0l0,0L17.731,30.379L17.731,30.379z"/>
<path fill="#D7B88C" d="M17.751,30.393L17.751,30.393v1.717c0,0,0,0-0.541,0l0,0L17.751,30.393L17.751,30.393z"/>
<polygon fill="#D7B88C" points="20.326,25.622 20.326,26.92 1134.378,26.92 1133.08,25.189 "/>
</svg>
