<?xml version="1.0" encoding="utf-8"?>
<!-- Generator: Adobe Illustrator 19.0.0, SVG Export Plug-In . SVG Version: 6.00 Build 0)  -->
<svg version="1.1" id="Layer_1" xmlns="http://www.w3.org/2000/svg" xmlns:xlink="http://www.w3.org/1999/xlink" x="0px" y="0px"
	 viewBox="0 0 500 500" style="enable-background:new 0 0 500 500;" xml:space="preserve">
<style type="text/css">
	.st0{fill:#231F20;}
	.st1{fill:none;stroke:#231F20;stroke-width:4;stroke-linecap:round;stroke-miterlimit:10;}
	.st2{fill:none;stroke:#231F20;stroke-width:4;stroke-linecap:round;stroke-miterlimit:10;stroke-dasharray:0,6.9906;}
	.st3{fill:none;stroke:#231F20;stroke-width:4;stroke-linecap:round;stroke-miterlimit:10;stroke-dasharray:0,7.0472;}
	.st4{fill:#DFB725;}
	.st5{fill:#603813;}
	.st6{fill:#842B1B;}
	.st7{fill:#FFFFFF;}
	.st8{fill:#231F20;stroke:#231F20;}
	.st9{font-family:'BlendaScript';}
	.st10{font-size:45.8692px;}
	.st11{font-size:51.4015px;}
	.st12{fill:none;stroke:#FFFFFF;stroke-miterlimit:10;}
	.st13{font-family:'NexaRustScriptL-0';}
	.st14{font-size:39.1551px;}
	.st15{letter-spacing:1;}
</style>
<g id="XMLID_39_">
	<rect id="XMLID_53_" x="28.7" y="23.8" class="st0" width="440.4" height="451"/>
	<g id="XMLID_42_">
		<line id="XMLID_51_" class="st1" x1="469.1" y1="474.9" x2="469.1" y2="474.9"/>
		<line id="XMLID_50_" class="st2" x1="462.1" y1="474.9" x2="32.2" y2="474.9"/>
		<line id="XMLID_48_" class="st1" x1="28.7" y1="474.9" x2="28.7" y2="474.9"/>
		<line id="XMLID_47_" class="st3" x1="28.7" y1="467.8" x2="28.7" y2="27.4"/>
		<line id="XMLID_46_" class="st1" x1="28.7" y1="23.8" x2="28.7" y2="23.8"/>
		<line id="XMLID_45_" class="st2" x1="35.7" y1="23.8" x2="465.6" y2="23.8"/>
		<line id="XMLID_44_" class="st1" x1="469.1" y1="23.8" x2="469.1" y2="23.8"/>
		<line id="XMLID_43_" class="st3" x1="469.1" y1="30.9" x2="469.1" y2="471.3"/>
	</g>
</g>
<polygon id="XMLID_38_" class="st4" points="201.6,286.2 449.1,286.2 449.1,38.2 201.6,38.2 "/>
<polygon id="XMLID_37_" class="st5" points="50.5,286.2 196.9,286.2 196.9,38.2 50.6,38.2 "/>
<polygon id="XMLID_36_" class="st6" points="448.1,413.8 49.6,413.8 49.6,289.8 448.1,289.8 "/>
<g>
	<path class="st7" d="M81.8,322.4l9.1-1v25.7h30.3v-24.6l9.1-1.1v60.3l-9,1.3v-27.8H90.9v26.8l-9.1,1V322.4z"/>
	<path class="st7" d="M148.3,321.9h34.1l2.1,8.3h-26.8v16.9h21.6v8h-21.6v19.1h29.1l-2.8,8.3h-35.7V321.9z"/>
	<path class="st7" d="M225.4,319c11.2,21.3,22,42.3,32.3,62.9l-9.3,2.3l-10.7-21.4h-25.2l-10.7,21.4l-8.7-2.3L225.4,319z
		 M233.6,354.7l-8.5-18.6l-8.9,18.6H233.6z"/>
	<path class="st7" d="M271.2,322.2c5-0.2,9.1-0.3,12.3-0.3c6.6,0,11.9,1.6,15.8,4.9c3.9,3.2,5.8,7.7,5.8,13.4c0,3.9-1,7.2-3.1,9.7
		c-2,2.5-5.4,4.7-10.1,6.5c2,2.5,7.9,10.8,17.8,25l-9.3,2.3l-20.1-30V382l-9.1,1.1V322.2z M282.6,351.1c3.3,0,6.2-0.7,8.8-2.1
		c3.1-1.7,4.7-4.1,4.7-7.1v-3.2c0-2.8-1.2-5-3.5-6.6c-2.4-1.5-5.7-2.3-9.9-2.3h-2.3V351C280.9,351.1,281.7,351.1,282.6,351.1z"/>
	<path class="st7" d="M317.1,321.8h39.5v8.3h-15.7v51.8l-9.3,1.2v-52.9h-17.5L317.1,321.8z"/>
	<path class="st7" d="M369.1,322.4l9.1-1v25.7h30.3v-24.6l9.1-1.1v60.3l-9,1.3v-27.8h-30.4v26.8l-9.1,1V322.4z"/>
</g>
<path id="XMLID_27_" class="st8" d="M396,162.3c0,40.6-30.4,96.9-71,96.9c-40.6,0-71-56.3-71-96.9c0-40.6,30.4-96.9,71-96.9
	C365.6,65.4,396,121.7,396,162.3z"/>
<path id="XMLID_15_" class="st0" d="M370.6,146.3"/>
<g>
	<path id="XMLID_13_" class="st4" d="M324.6,224.5c0.1,1.1,1.8-34.9,1-52.7c-0.7-15.6-3.1-64.1-3.1-64.1S319.4,171.5,324.6,224.5z"
		/>
	<path class="st4" d="M302.4,131.9c5.1,6.1,11.5,11,11.5,11c-0.2-2.3-2.1-7.9-5.6-12.1c-2.9-3.6-4.4-5.1-7.9-8
		c-0.6-0.5-1.5-1.2-2.8-2.2c-1.2-0.9-2.1-1.6-2.7-2.1c-0.6-0.5-1.1-1-1.6-1.5C294.7,119.6,297.6,126,302.4,131.9z"/>
	<path class="st4" d="M302.4,159.1c5.1,6.1,11.5,11,11.5,11c-0.2-2.3-2.1-7.9-5.6-12.1c-2.9-3.6-4.4-5.1-7.9-8
		c-0.6-0.5-1.5-1.2-2.8-2.2c-1.2-0.9-2.1-1.6-2.7-2.1c-0.6-0.5-1.1-1-1.6-1.5C294.7,146.7,297.6,153.2,302.4,159.1z"/>
	<path class="st4" d="M301.4,183c5.7,5.5,12.7,9.7,12.7,9.7c-0.5-2.2-3-7.6-6.9-11.4c-3.3-3.2-5-4.5-8.7-7c-0.7-0.4-1.7-1.1-3-1.8
		c-1.3-0.8-2.3-1.4-2.9-1.8c-0.7-0.4-1.3-0.9-1.8-1.3C292.4,171.6,296,177.7,301.4,183z"/>
	<path class="st4" d="M355.8,118.1c-0.5,0.5-1,0.9-1.7,1.4c-0.6,0.4-1.5,1.1-2.8,2c-1.3,0.9-2.2,1.6-2.9,2c-3.6,2.8-5.1,4.2-8.2,7.6
		c-3.6,4-5.7,9.5-6.1,11.8c0,0,6.6-4.6,12-10.5C351.3,126.8,354.5,120.4,355.8,118.1z"/>
	<path class="st4" d="M354.7,145.2c-0.5,0.5-1,0.9-1.7,1.4c-0.6,0.4-1.5,1.1-2.8,2c-1.3,0.9-2.2,1.6-2.8,2c-3.6,2.8-5.1,4.2-8.2,7.6
		c-3.6,4-5.7,9.5-6.1,11.8c0,0,6.6-4.6,11.9-10.5C350.1,153.9,353.3,147.6,354.7,145.2z"/>
	<path class="st4" d="M356.1,170.4c-0.5,0.4-1.1,0.8-1.8,1.2c-0.6,0.4-1.6,0.9-3,1.7c-1.4,0.7-2.4,1.3-3.1,1.7
		c-3.9,2.3-5.6,3.6-9,6.6c-4.1,3.6-6.8,8.8-7.4,11c0,0,7.1-3.8,13.1-9.1C350.7,178.5,354.5,172.6,356.1,170.4z"/>
</g>
<text id="XMLID_5_" transform="matrix(1 0 0 1 130.9754 270.4561)" class="st7 st9 st10">the</text>
<text id="XMLID_4_" transform="matrix(1 0 0 1 60.5086 223.1104)" class="st7 st9 st11">From</text>
<line id="XMLID_3_" class="st12" x1="389.1" y1="446.9" x2="446" y2="446.9"/>
<line id="XMLID_2_" class="st12" x1="53.4" y1="446.9" x2="110.3" y2="446.9"/>
<g id="XMLID_1_">
	<text id="XMLID_49_" transform="matrix(1 0 0 1 132.6974 455.4182)" class="st7 st13 st14 st15">Bakery &amp; Café</text>
</g>
</svg>
