<?xml version="1.0" encoding="utf-8"?>
<!-- Generator: Adobe Illustrator 19.1.0, SVG Export Plug-In . SVG Version: 6.00 Build 0)  -->
<!DOCTYPE svg PUBLIC "-//W3C//DTD SVG 1.1//EN" "http://www.w3.org/Graphics/SVG/1.1/DTD/svg11.dtd">
<svg version="1.1" id="Layer_1" xmlns="http://www.w3.org/2000/svg" xmlns:xlink="http://www.w3.org/1999/xlink" x="0px" y="0px"
	 viewBox="0 0 360 201" enable-background="new 0 0 360 201" xml:space="preserve">
<g>
	<g>
		<path fill="#58595B" d="M235.4,185.7L235.4,185.7c-0.5,0-2.5-0.1-2.8-4c-0.1-1.1,0.9-2.8,1.8-3.8c0.7-0.7,1.4-1.8,3.1-8.5
			c0.4-1.5,0.6-2.8,0.8-3.4c1.6-6.7,2.5-14,3.5-21.8c0.6-4.8,1.2-9.7,2-14.6c2.1-12.7,4.4-25.7,7-38.5c2.6-12.7,5.7-25.2,9.3-37
			c3.5-11.4,7.9-21.1,14-30.6c0.2-0.3,4.3-6.3,7.3-6.3c1,0,1.7,0.6,2.2,1.8l0,0c0.3,0.6,1.2,2.7-0.7,4.6c-0.1,0.1-5,4.9-7,8.8
			c0,0-4.5,6.8-9.4,20.3c-3.8,10.3-6.7,21.2-9.3,32.4c-2.6,11.2-6.6,38.3-7.5,46.2c-0.4,3.1-0.7,4.9-1.2,9.1
			c0.3-0.2,5.6-11.6,10.1-11.8c1.8-0.1,4.9,2.2,5.1,10c0.1,3.2-1.1,15.1-1.1,15.5c-0.2,4.5,0.8,9,4.5,9c0.6,0,1.2-0.2,1.7-0.4
			c0.5-0.2,1.1-0.4,1.6-0.4c0.5,0,0.9,0.2,1.3,0.5c0.5,0.4,0.4,0.9,0.3,1.1c-0.5,1.3-4.3,2.2-6.2,2.2c-10.3-0.1-7.9-17.6-7.7-22.9
			c0.1-1.8,0.7-5.8-0.2-5.6c-0.8,0.1-4.2,4.4-6.6,9.9c-2.2,5.1-4.5,13.2-5.6,17.6C243.5,173.9,239,185.7,235.4,185.7z"/>
	</g>
	<g>
		<path fill="#58595B" d="M206.8,185.7c-1.5,0-2.5-1.3-2.8-2.1c-0.6-1.3-0.3-2.7,1.1-4.1c1.2-1.3,1.3-2.8,7.5-32.3
			c0.8-3.7,2.8-13.5,3.7-18.3c1.1-5.6,2.1-10.9,2.6-13c-1.6,0.4-6.2,1.8-9.4,2.8c0,0-1.5,0.6-1.7-0.9c-0.2-1.8,3.1-5.4,4.2-5.8
			c1.1-0.4,2.8-0.9,4.4-1.4l0.8-0.2c0.9-0.3,2.2-0.6,3-0.8c8.7-39.9,21.8-68.3,24-71.9l0,0c3.7-7.2,9-8.7,9.2-8.7
			c0.5,0,0.7,0.3,0.8,0.4c0.2,0.4,1,1.5-3.2,7.2c-6.4,8.7-12.6,18.7-23.4,65.8c-0.5,2-0.8,3.7-1.3,5.9c1.2-0.3,3.6-0.9,5.2-1.4
			c0.6-0.2,1.2-0.3,1.6-0.5c0.6-0.2,1.9-0.6,3.4-1.2c4.1-1.5,7.3-2.6,8.2-2.6c0.1,0,0.3,0,0.5,0.2c0.1,0.1,0.1,0.3,0,0.4
			c-1.1,2.5-18.1,9.8-20,10.5c-0.4,0.9-1.3,5.1-1.7,6.5c-0.9,3.3-1.8,7.4-3.8,17.8c-1,5.4-1.8,10.7-2.7,15.8
			c-2.5,14.4-4.6,25.1-5.2,27.3C210.8,184.4,208.5,185.7,206.8,185.7z"/>
	</g>
	<g>
		<path fill="#58595B" d="M285.8,162.1c-3.3,0-6.4-1.2-9.2-3.5c-3.1-2.6-4.5-6.1-4.2-10.5c-0.1,0-0.2,0-0.4-0.1
			c-0.5-0.1-1.3-0.2-1.6-1c-0.3-1,0.8-1.7,1.8-2.3c0.3-0.2,0.8-0.5,0.9-0.7c1-3.9,2.9-7.1,3.5-7.9c7.7-10.6,16.6-13.7,23-13.7
			c4.3,0,7.4,1.6,8.1,4.1c0.8,3.3-2.7,7.4-9.7,11c-2.3,1.1-4.7,2.2-7,3.2c-3.7,1.7-7.2,3.2-9.7,4.8c-0.8,4.7-0.7,10.7,4.9,10.7
			c4,0,8.1-3.2,11.1-5.6c1.8-1.4,3-2.4,3.8-2.4c0.3,0,0.5,0.2,0.6,0.3c0.3,0.4,0.3,1.2-0.1,2.8c-0.5,2.1-2.6,4.8-5.4,6.9
			C293.1,160.7,289.3,162.1,285.8,162.1z M299.5,125.9c-3.8,0-15.2,3.3-17.6,15.2c0.8-0.4,2-1.1,3.5-1.8c5.9-3,18.2-9.2,18.4-12
			C303.8,127.1,303.5,125.5,299.5,125.9z"/>
	</g>
	<g>
		<path fill="#58595B" d="M181.1,161.9c-4.3,0-8-1.5-11-4.4c-4.8-4.7-3.5-11.3-1.6-15.9c1-2.5,2.3-4.6,3.1-5.9
			c7-11.1,20.4-14.8,24.2-15c6.8-0.4,10.5,2.6,11.2,6.3c0.4,2-0.1,7.3-12.7,12c-0.1,0.1-14,5.5-18.5,7.9c-0.6,2.7-0.4,5.1,1,6.7
			c1.6,1.7,3.9,1.9,6.1,1.9c4.6,0,8.8-2.6,11.8-4.5c1.7-1,2.9-1.8,3.7-1.8c0.4,0,0.6,0.2,0.7,0.3c0.3,0.4,0.3,1.2,0,2.5
			c-0.4,1.9-2.8,4.4-6.2,6.4C190.9,159.6,186.4,161.9,181.1,161.9z M199,125.3c-3.8,0-8.9,1.8-13.1,4.6c-4.8,3.2-7.9,7.3-9.1,11.9
			c2.9-1.5,7.3-3.5,12-5.6c6.6-2.8,13.7-6.2,14.2-8.7c0.1-0.4-0.1-0.9-0.5-1.3C201.9,125.6,200.7,125.3,199,125.3z"/>
	</g>
	<g>
		<path fill="#58595B" d="M341,48.3c-0.6,2.1-13.4,54.4-19.2,77.7c-1.3,5.5-2.3,9.5-2.7,11.1c-0.8,3.1-1.6,6.5-2.4,9.7
			c-1.8,7.3-3.7,15-5,20.7c-3.9,16.9-8.3,18.5-9.7,18.5c-1.5,0-2.7-1-3.1-2c-0.6-1.3-0.2-2.6,1.1-4.1l0.1-0.1c0.8-1,3.4-5.3,4.6-9.4
			c0.8-2.8,2.7-8.9,3.6-12.9c1.8-8,2.9-13,4.8-20.7c1.8-7.1,4.1-17.2,6.3-27c1.6-7,3.1-13.6,4.3-18.7c2.7-11.1,10.5-39.3,12.6-52.3
			c0.4-2.3,0.7-4.7,1.2-7c0.1-0.8,0.6-4.8,2.3-4.8c1.4,0,5.2,6.1,3.9,10.9L341,48.3z"/>
	</g>
	<g>
		<path fill-rule="evenodd" clip-rule="evenodd" fill="#58595B" d="M118.7,89.3c43.4-7,93.5,38.6-5.5,82.7
			c-31.8,12.7-59.8,14-80.4,12.2c-22.6-2.5-18.5-20.7-12.7-16.1c14.4,11.7,53.5,13.8,86.2,1.5c81.9-33.7,51.3-74.8,24.7-75.3
			c-13.6-0.3-35.5,2.7-46.6,8.9c-8.6,21.2-15.4,41.8-16.2,44.5c-4.4,13.4-4.8,21.7-9,22.1c-1.6,0.2-7.4,0-5.2-6.5
			c1.1-3.1,3.7-7.6,5.2-10.2c4.4-7.6,14.1-37.3,16.6-47.1c-3.8,0.1-2.5-5.8-1.3-8.8c0.9-2.3,3.6-1.4,5.5-2.2c0.8-2.6,3.4-9.4,4.4-12
			C89.4,68.7,97.4,58,98.3,68.7C98.6,72.1,91,83.5,87.5,94c37.6-9.9,58-30.2,56.4-39.6c-1.2-6.7-12.5-8.1-43-1.9
			c-28.9,5.9-48.8,19-49,27.7c-0.6,9.1-12.4-6.6-5.3-10.7c23.9-15.2,105.1-39.8,103.3-11.9c-0.3,7.2-7.5,15.4-18.7,22.9
			c-9.4,6.3-12.6,6.8-18.3,9.7L118.7,89.3z"/>
	</g>
</g>
</svg>
