<?xml version="1.0" encoding="utf-8"?>
<!-- Generator: Adobe Illustrator 19.1.0, SVG Export Plug-In . SVG Version: 6.00 Build 0)  -->
<svg version="1.1" id="Layer_1" xmlns="http://www.w3.org/2000/svg" xmlns:xlink="http://www.w3.org/1999/xlink" x="0px" y="0px"
	 viewBox="-331 117 560 560" style="enable-background:new -331 117 560 560;" xml:space="preserve">
<style type="text/css">
	.st0{fill:#E5E5E5;}
	.st1{enable-background:new    ;}
	.st2{fill:#820028;}
	.st3{fill:#FFFFFF;}
</style>
<rect x="-332" y="116.4" class="st0" width="559.6" height="559.6"/>
<g>
	<g class="st1">
		<path d="M-231.6,201.5c0,5.5-1.4,9.9-4.2,13.1c-2.8,3.2-6.7,4.8-11.7,4.8c-5.1,0-9-1.6-11.8-4.7s-4.2-7.5-4.2-13.2
			c0-5.6,1.4-10,4.2-13.1c2.8-3.1,6.7-4.7,11.9-4.7c5,0,8.9,1.6,11.7,4.7S-231.6,195.9-231.6,201.5z M-259.2,201.5
			c0,4.7,1,8.3,3,10.7c2,2.4,4.9,3.6,8.7,3.6c3.8,0,6.7-1.2,8.7-3.6c2-2.4,2.9-6,2.9-10.7c0-4.7-1-8.2-2.9-10.6
			c-2-2.4-4.8-3.6-8.7-3.6c-3.8,0-6.8,1.2-8.8,3.6C-258.2,193.3-259.2,196.9-259.2,201.5z"/>
		<path d="M-212.3,219.4c-1.7,0-3.2-0.3-4.6-0.9c-1.4-0.6-2.6-1.6-3.5-2.9h-0.3c0.2,1.5,0.3,3,0.3,4.3v10.7h-3.9v-37.7h3.2l0.5,3.6
			h0.2c1-1.4,2.2-2.5,3.5-3.1c1.3-0.6,2.9-0.9,4.6-0.9c3.4,0,6.1,1.2,8,3.5s2.8,5.7,2.8,9.9c0,4.3-1,7.6-2.9,9.9
			C-206.3,218.2-209,219.4-212.3,219.4z M-212.9,195.8c-2.7,0-4.6,0.7-5.8,2.2c-1.2,1.5-1.8,3.8-1.8,7v0.9c0,3.7,0.6,6.3,1.8,7.8
			c1.2,1.6,3.2,2.4,5.9,2.4c2.2,0,4-0.9,5.3-2.7s1.9-4.3,1.9-7.5c0-3.2-0.6-5.7-1.9-7.5C-208.8,196.6-210.6,195.8-212.9,195.8z"/>
		<path d="M-183.7,219.4c-3.8,0-6.9-1.2-9.1-3.5s-3.3-5.6-3.3-9.7c0-4.2,1-7.5,3.1-10c2.1-2.5,4.8-3.7,8.3-3.7
			c3.3,0,5.8,1.1,7.7,3.2c1.9,2.1,2.8,5,2.8,8.5v2.5H-192c0.1,3.1,0.8,5.4,2.3,6.9c1.5,1.6,3.5,2.4,6.2,2.4c2.8,0,5.6-0.6,8.3-1.8
			v3.5c-1.4,0.6-2.7,1-3.9,1.3S-181.9,219.4-183.7,219.4z M-184.8,195.7c-2.1,0-3.8,0.7-5,2c-1.2,1.4-2,3.2-2.2,5.6h13.6
			c0-2.5-0.6-4.4-1.7-5.7C-181.1,196.4-182.7,195.7-184.8,195.7z"/>
		<path d="M-149.6,218.9v-16.8c0-2.1-0.5-3.7-1.4-4.7c-1-1-2.5-1.6-4.5-1.6c-2.7,0-4.7,0.7-6,2.2c-1.3,1.5-1.9,3.9-1.9,7.3v13.6
			h-3.9v-26h3.2l0.6,3.6h0.2c0.8-1.3,1.9-2.3,3.4-3c1.5-0.7,3.1-1.1,4.9-1.1c3.1,0,5.5,0.8,7.1,2.3c1.6,1.5,2.4,3.9,2.4,7.2v17
			H-149.6z"/>
		<path d="M-104.8,209.7c0,3.1-1.1,5.4-3.3,7.1c-2.2,1.7-5.2,2.6-9,2.6c-4.1,0-7.3-0.5-9.5-1.6v-3.9c1.4,0.6,3,1.1,4.6,1.4
			c1.7,0.3,3.3,0.5,5,0.5c2.7,0,4.7-0.5,6.1-1.5c1.4-1,2-2.4,2-4.3c0-1.2-0.2-2.2-0.7-3c-0.5-0.8-1.3-1.5-2.4-2.1
			c-1.1-0.6-2.8-1.4-5.2-2.2c-3.2-1.2-5.5-2.5-6.9-4.1s-2.1-3.6-2.1-6.2c0-2.7,1-4.8,3-6.4c2-1.6,4.7-2.4,8-2.4
			c3.4,0,6.6,0.6,9.5,1.9l-1.3,3.5c-2.9-1.2-5.6-1.8-8.3-1.8c-2.1,0-3.8,0.5-5,1.4c-1.2,0.9-1.8,2.2-1.8,3.8c0,1.2,0.2,2.2,0.7,3
			c0.4,0.8,1.2,1.5,2.2,2.1s2.7,1.3,4.8,2.1c3.6,1.3,6.1,2.7,7.5,4.2C-105.5,205.4-104.8,207.3-104.8,209.7z"/>
		<path d="M-82.4,218.9l-0.8-3.7h-0.2c-1.3,1.6-2.6,2.7-3.9,3.3c-1.3,0.6-2.9,0.9-4.8,0.9c-2.6,0-4.6-0.7-6.1-2s-2.2-3.2-2.2-5.7
			c0-5.2,4.2-8,12.6-8.3l4.4-0.1v-1.6c0-2-0.4-3.5-1.3-4.5c-0.9-1-2.3-1.5-4.2-1.5c-2.2,0-4.6,0.7-7.4,2l-1.2-3
			c1.3-0.7,2.7-1.2,4.2-1.6c1.5-0.4,3.1-0.6,4.6-0.6c3.1,0,5.4,0.7,6.9,2.1c1.5,1.4,2.2,3.6,2.2,6.6v17.7H-82.4z M-91.3,216.1
			c2.5,0,4.4-0.7,5.8-2s2.1-3.2,2.1-5.6v-2.3l-3.9,0.2c-3.1,0.1-5.4,0.6-6.8,1.5c-1.4,0.9-2.1,2.2-2.1,4c0,1.4,0.4,2.5,1.3,3.2
			S-92.8,216.1-91.3,216.1z"/>
		<path d="M-53.6,218.9v-16.8c0-2.1-0.5-3.7-1.4-4.7c-1-1-2.5-1.6-4.5-1.6c-2.7,0-4.7,0.7-6,2.2c-1.3,1.5-1.9,3.9-1.9,7.3v13.6h-3.9
			v-26h3.2l0.6,3.6h0.2c0.8-1.3,1.9-2.3,3.4-3c1.5-0.7,3.1-1.1,4.9-1.1c3.1,0,5.5,0.8,7.1,2.3c1.6,1.5,2.4,3.9,2.4,7.2v17H-53.6z"/>
		<path d="M-24.8,211.8c0,2.4-0.9,4.3-2.7,5.6c-1.8,1.3-4.3,2-7.6,2c-3.4,0-6.1-0.5-8.1-1.6v-3.7c1.2,0.6,2.6,1.1,4,1.5
			c1.4,0.4,2.8,0.5,4.1,0.5c2.1,0,3.6-0.3,4.7-1c1.1-0.7,1.7-1.7,1.7-3c0-1-0.4-1.9-1.3-2.6c-0.9-0.7-2.6-1.6-5.1-2.5
			c-2.4-0.9-4.1-1.7-5.2-2.4s-1.8-1.4-2.3-2.3s-0.7-1.9-0.7-3.1c0-2.1,0.9-3.8,2.6-5c1.7-1.2,4.1-1.8,7.1-1.8c2.8,0,5.5,0.6,8.2,1.7
			l-1.4,3.2c-2.6-1.1-5-1.6-7.1-1.6c-1.9,0-3.3,0.3-4.2,0.9c-0.9,0.6-1.4,1.4-1.4,2.4c0,0.7,0.2,1.3,0.5,1.8c0.4,0.5,0.9,1,1.7,1.4
			c0.8,0.4,2.3,1.1,4.6,1.9c3.1,1.1,5.2,2.3,6.2,3.4C-25.3,208.6-24.8,210.1-24.8,211.8z"/>
	</g>
</g>
<g>
	<g class="st1">
		<path class="st2" d="M-143.4,433.8v19.4h-5.4v-46.6h12.8c5.7,0,9.9,1.1,12.7,3.3c2.7,2.2,4.1,5.5,4.1,9.9c0,6.2-3.1,10.3-9.4,12.5
			l12.7,20.9h-6.4l-11.3-19.4H-143.4z M-143.4,429.2h7.4c3.8,0,6.6-0.8,8.4-2.3c1.8-1.5,2.7-3.8,2.7-6.8c0-3.1-0.9-5.3-2.7-6.7
			s-4.7-2-8.8-2h-7V429.2z"/>
		<path class="st2" d="M-94.4,453.9c-5.2,0-9.2-1.6-12.2-4.7c-3-3.1-4.5-7.5-4.5-13.1c0-5.6,1.4-10.1,4.2-13.4c2.8-3.3,6.5-5,11.2-5
			c4.4,0,7.8,1.4,10.4,4.3c2.6,2.9,3.8,6.7,3.8,11.4v3.3h-24.1c0.1,4.1,1.1,7.2,3.1,9.3c2,2.1,4.7,3.2,8.3,3.2
			c3.8,0,7.5-0.8,11.2-2.4v4.7c-1.9,0.8-3.6,1.4-5.3,1.7C-90.1,453.7-92.1,453.9-94.4,453.9z M-95.9,422.1c-2.8,0-5,0.9-6.7,2.7
			c-1.7,1.8-2.7,4.4-2.9,7.6h18.3c0-3.3-0.7-5.9-2.2-7.7C-91,423-93.1,422.1-95.9,422.1z"/>
		<path class="st2" d="M-48.7,453.2v-22.6c0-2.8-0.6-5-1.9-6.4c-1.3-1.4-3.3-2.1-6.1-2.1c-3.7,0-6.3,1-8,3c-1.7,2-2.6,5.2-2.6,9.8
			v18.3h-5.3v-34.9h4.3l0.9,4.8h0.3c1.1-1.7,2.6-3.1,4.6-4c2-0.9,4.1-1.4,6.5-1.4c4.2,0,7.4,1,9.5,3c2.1,2,3.2,5.3,3.2,9.7v22.8
			H-48.7z"/>
		<path class="st2" d="M-2.3,435.7c0,5.7-1.4,10.1-4.3,13.3c-2.9,3.2-6.8,4.8-11.9,4.8c-3.1,0-5.9-0.7-8.3-2.2
			c-2.4-1.5-4.3-3.6-5.6-6.3c-1.3-2.7-2-6-2-9.6c0-5.7,1.4-10.1,4.3-13.3c2.8-3.2,6.8-4.8,11.9-4.8c4.9,0,8.8,1.6,11.7,4.9
			C-3.8,425.8-2.3,430.2-2.3,435.7z M-29,435.7c0,4.5,0.9,7.9,2.7,10.2c1.8,2.3,4.4,3.5,7.9,3.5s6.1-1.2,7.9-3.5
			c1.8-2.3,2.7-5.7,2.7-10.2c0-4.4-0.9-7.8-2.7-10.1c-1.8-2.3-4.4-3.5-8-3.5c-3.5,0-6.1,1.1-7.8,3.4C-28.1,427.8-29,431.2-29,435.7z
			"/>
		<path class="st2" d="M11.9,418.3V441c0,2.8,0.6,5,1.9,6.4c1.3,1.4,3.3,2.1,6.1,2.1c3.7,0,6.3-1,8-3c1.7-2,2.5-5.3,2.5-9.8v-18.4
			h5.3v34.9h-4.4l-0.8-4.7h-0.3c-1.1,1.7-2.6,3-4.5,4c-1.9,0.9-4.1,1.4-6.6,1.4c-4.3,0-7.4-1-9.5-3c-2.1-2-3.2-5.2-3.2-9.7v-22.9
			H11.9z"/>
		<path class="st2" d="M54.7,453.2l-13.3-34.9h5.7l7.5,20.7c1.7,4.8,2.7,8,3,9.4h0.3c0.2-1.1,1-3.5,2.2-7c1.2-3.5,4-11.3,8.4-23.2
			h5.7l-13.3,34.9H54.7z"/>
		<path class="st2" d="M94.5,453.9c-5.2,0-9.2-1.6-12.2-4.7s-4.5-7.5-4.5-13.1c0-5.6,1.4-10.1,4.2-13.4c2.8-3.3,6.5-5,11.2-5
			c4.4,0,7.8,1.4,10.4,4.3c2.6,2.9,3.8,6.7,3.8,11.4v3.3H83.3c0.1,4.1,1.1,7.2,3.1,9.3c2,2.1,4.7,3.2,8.3,3.2
			c3.8,0,7.5-0.8,11.2-2.4v4.7c-1.9,0.8-3.6,1.4-5.3,1.7S96.9,453.9,94.5,453.9z M93.1,422.1c-2.8,0-5,0.9-6.7,2.7s-2.7,4.4-2.9,7.6
			h18.3c0-3.3-0.7-5.9-2.2-7.7C98,423,95.8,422.1,93.1,422.1z"/>
		<path class="st2" d="M137.9,453.2l-1.1-5h-0.3c-1.7,2.2-3.5,3.7-5.2,4.4c-1.7,0.8-3.9,1.2-6.5,1.2c-3.5,0-6.2-0.9-8.1-2.7
			c-2-1.8-2.9-4.3-2.9-7.6c0-7.1,5.6-10.8,16.9-11.1l5.9-0.2v-2.2c0-2.7-0.6-4.8-1.8-6.1c-1.2-1.3-3.1-2-5.7-2
			c-2.9,0-6.2,0.9-9.9,2.7l-1.6-4c1.7-0.9,3.6-1.7,5.7-2.2c2.1-0.5,4.1-0.8,6.2-0.8c4.2,0,7.3,0.9,9.3,2.8c2,1.8,3,4.8,3,8.9v23.8
			H137.9z M125.9,449.5c3.3,0,5.9-0.9,7.8-2.7c1.9-1.8,2.8-4.3,2.8-7.6V436l-5.3,0.2c-4.2,0.1-7.2,0.8-9.1,2c-1.9,1.2-2.8,3-2.8,5.4
			c0,1.9,0.6,3.4,1.7,4.4C122.2,449,123.8,449.5,125.9,449.5z"/>
		<path class="st2" d="M157.7,418.3V441c0,2.8,0.6,5,1.9,6.4c1.3,1.4,3.3,2.1,6.1,2.1c3.7,0,6.3-1,8-3c1.7-2,2.5-5.3,2.5-9.8v-18.4
			h5.3v34.9h-4.4l-0.8-4.7h-0.3c-1.1,1.7-2.6,3-4.5,4s-4.1,1.4-6.6,1.4c-4.3,0-7.4-1-9.5-3c-2.1-2-3.2-5.2-3.2-9.7v-22.9H157.7z"/>
	</g>
</g>
<g class="st1">
	<path d="M-187.3,524.7l-0.6-2.8h-0.1c-1,1.2-2,2.1-3,2.5s-2.2,0.7-3.7,0.7c-2,0-3.5-0.5-4.6-1.5c-1.1-1-1.7-2.5-1.7-4.3
		c0-4,3.2-6.1,9.6-6.3l3.4-0.1v-1.2c0-1.6-0.3-2.7-1-3.4c-0.7-0.7-1.7-1.1-3.2-1.1c-1.7,0-3.5,0.5-5.6,1.5l-0.9-2.3
		c1-0.5,2-0.9,3.2-1.2c1.2-0.3,2.3-0.5,3.5-0.5c2.4,0,4.1,0.5,5.2,1.6c1.1,1,1.7,2.7,1.7,5v13.5H-187.3z M-194.1,522.6
		c1.9,0,3.3-0.5,4.4-1.5c1.1-1,1.6-2.5,1.6-4.3V515l-3,0.1c-2.4,0.1-4.1,0.5-5.2,1.1s-1.6,1.7-1.6,3.1c0,1.1,0.3,1.9,1,2.5
		C-196.2,522.3-195.2,522.6-194.1,522.6z"/>
	<path d="M-165.7,504.6c2.6,0,4.6,0.9,6.1,2.7c1.4,1.8,2.2,4.3,2.2,7.5s-0.7,5.8-2.2,7.6c-1.5,1.8-3.5,2.7-6,2.7
		c-1.3,0-2.5-0.2-3.5-0.7c-1.1-0.5-2-1.2-2.7-2.2h-0.2l-0.6,2.5h-2.1v-28.1h3v6.8c0,1.5,0,2.9-0.1,4.1h0.1
		C-170.5,505.6-168.4,504.6-165.7,504.6z M-166.1,507.1c-2,0-3.5,0.6-4.4,1.8c-0.9,1.2-1.4,3.2-1.4,5.9c0,2.8,0.5,4.8,1.4,6
		s2.4,1.8,4.5,1.8c1.8,0,3.2-0.7,4.1-2s1.4-3.3,1.4-5.8c0-2.6-0.5-4.5-1.4-5.8S-164.2,507.1-166.1,507.1z"/>
	<path d="M-140.3,525.1c-2.9,0-5.1-0.9-6.7-2.6c-1.6-1.8-2.4-4.3-2.4-7.5c0-3.3,0.8-5.9,2.4-7.7s3.9-2.7,6.8-2.7
		c1,0,1.9,0.1,2.9,0.3c1,0.2,1.7,0.4,2.2,0.7l-0.9,2.5c-0.7-0.3-1.4-0.5-2.2-0.7s-1.5-0.3-2.1-0.3c-4,0-6,2.6-6,7.7
		c0,2.4,0.5,4.3,1.5,5.6c1,1.3,2.4,2,4.4,2c1.7,0,3.3-0.4,5.1-1.1v2.7C-136.6,524.7-138.3,525.1-140.3,525.1z"/>
	<path d="M-113.1,522h-0.2c-1.4,2-3.5,3-6.2,3c-2.6,0-4.6-0.9-6-2.7c-1.4-1.8-2.2-4.3-2.2-7.6c0-3.3,0.7-5.8,2.2-7.6s3.5-2.7,6-2.7
		c2.7,0,4.7,1,6.2,2.9h0.2l-0.1-1.4l-0.1-1.4v-8.1h3v28.1h-2.4L-113.1,522z M-119.1,522.5c2,0,3.5-0.6,4.5-1.7
		c0.9-1.1,1.4-2.9,1.4-5.4v-0.6c0-2.8-0.5-4.8-1.4-6c-0.9-1.2-2.4-1.8-4.5-1.8c-1.8,0-3.1,0.7-4,2c-0.9,1.4-1.4,3.3-1.4,5.8
		c0,2.5,0.5,4.4,1.4,5.7S-120.9,522.5-119.1,522.5z"/>
	<path d="M-91.6,525.1c-2.9,0-5.2-0.9-6.9-2.7c-1.7-1.8-2.5-4.3-2.5-7.4c0-3.2,0.8-5.7,2.4-7.6c1.6-1.9,3.7-2.8,6.3-2.8
		c2.5,0,4.4,0.8,5.9,2.4s2.2,3.8,2.2,6.5v1.9h-13.6c0.1,2.3,0.6,4.1,1.8,5.3c1.1,1.2,2.7,1.8,4.7,1.8c2.1,0,4.2-0.4,6.3-1.3v2.7
		c-1.1,0.5-2.1,0.8-3,1C-89.1,525-90.2,525.1-91.6,525.1z M-92.4,507c-1.6,0-2.9,0.5-3.8,1.6c-0.9,1-1.5,2.5-1.7,4.3h10.4
		c0-1.9-0.4-3.3-1.3-4.3C-89.6,507.6-90.8,507-92.4,507z"/>
	<path d="M-66.3,507.2h-5v17.5h-3v-17.5h-3.5v-1.4l3.5-1.1v-1.1c0-4.9,2.1-7.3,6.4-7.3c1,0,2.3,0.2,3.7,0.6l-0.8,2.4
		c-1.2-0.4-2.1-0.6-3-0.6c-1.1,0-2,0.4-2.5,1.1c-0.5,0.8-0.8,2-0.8,3.6v1.3h5V507.2z"/>
	<path d="M-42.5,504.9v1.9l-3.7,0.4c0.3,0.4,0.6,1,0.9,1.7c0.3,0.7,0.4,1.4,0.4,2.3c0,1.9-0.7,3.5-2,4.6s-3.1,1.7-5.5,1.7
		c-0.6,0-1.1,0-1.7-0.1c-1.3,0.7-1.9,1.5-1.9,2.5c0,0.5,0.2,0.9,0.7,1.2c0.4,0.3,1.2,0.4,2.3,0.4h3.5c2.1,0,3.8,0.5,4.9,1.4
		c1.2,0.9,1.7,2.2,1.7,3.9c0,2.2-0.9,3.9-2.6,5c-1.8,1.2-4.3,1.7-7.7,1.7c-2.6,0-4.6-0.5-6-1.4s-2.1-2.3-2.1-4.1
		c0-1.2,0.4-2.2,1.2-3.1c0.8-0.9,1.9-1.5,3.3-1.8c-0.5-0.2-0.9-0.6-1.3-1.1c-0.3-0.5-0.5-1-0.5-1.7c0-0.7,0.2-1.4,0.6-1.9
		c0.4-0.5,1-1.1,1.8-1.6c-1-0.4-1.9-1.1-2.5-2.1c-0.6-1-1-2.2-1-3.5c0-2.2,0.7-3.8,2-5c1.3-1.2,3.1-1.8,5.5-1.8c1,0,2,0.1,2.8,0.4
		H-42.5z M-58.2,528c0,1.1,0.5,1.9,1.4,2.4c0.9,0.6,2.2,0.8,3.9,0.8c2.5,0,4.4-0.4,5.6-1.1c1.2-0.8,1.8-1.8,1.8-3.1
		c0-1.1-0.3-1.8-1-2.2c-0.7-0.4-1.9-0.6-3.7-0.6h-3.6c-1.4,0-2.4,0.3-3.2,1S-58.2,526.8-58.2,528z M-56.6,511.2
		c0,1.4,0.4,2.4,1.2,3.1c0.8,0.7,1.9,1.1,3.3,1.1c2.9,0,4.4-1.4,4.4-4.3c0-3-1.5-4.5-4.4-4.5c-1.4,0-2.5,0.4-3.3,1.1
		S-56.6,509.7-56.6,511.2z"/>
	<path d="M-20.8,524.7v-12.8c0-1.6-0.4-2.8-1.1-3.6c-0.7-0.8-1.9-1.2-3.5-1.2c-2.1,0-3.6,0.6-4.6,1.7c-1,1.1-1.4,3-1.4,5.6v10.4h-3
		v-28.1h3v8.5c0,1,0,1.9-0.1,2.5h0.2c0.6-1,1.4-1.7,2.5-2.2s2.3-0.8,3.7-0.8c2.4,0,4.2,0.6,5.4,1.7c1.2,1.2,1.8,3,1.8,5.5v12.9
		H-20.8z"/>
	<path d="M-7.9,499.5c0-0.7,0.2-1.2,0.5-1.5s0.8-0.5,1.3-0.5c0.5,0,0.9,0.2,1.2,0.5c0.3,0.3,0.5,0.8,0.5,1.5c0,0.7-0.2,1.2-0.5,1.5
		c-0.3,0.3-0.8,0.5-1.2,0.5c-0.5,0-0.9-0.2-1.3-0.5C-7.8,500.7-7.9,500.2-7.9,499.5z M-4.7,524.7h-3v-19.8h3V524.7z"/>
	<path d="M3.3,533.6c-1.1,0-2.1-0.2-2.8-0.5v-2.4c0.8,0.2,1.7,0.4,2.5,0.4c0.9,0,1.6-0.3,2.1-0.8c0.4-0.5,0.7-1.3,0.7-2.3v-23.1h3
		v22.8C8.7,531.6,6.9,533.6,3.3,533.6z M5.4,499.5c0-0.7,0.2-1.2,0.5-1.5s0.8-0.5,1.3-0.5c0.5,0,0.9,0.2,1.2,0.5
		c0.3,0.3,0.5,0.8,0.5,1.5c0,0.7-0.2,1.2-0.5,1.5c-0.3,0.3-0.8,0.5-1.2,0.5c-0.5,0-0.9-0.2-1.3-0.5C5.6,500.7,5.4,500.2,5.4,499.5z"
		/>
	<path d="M22,514.6c0.5-0.7,1.3-1.7,2.4-2.9l6.4-6.8h3.6l-8,8.4l8.6,11.4h-3.6l-7-9.4l-2.3,2v7.4h-3v-28.1h3v14.9
		c0,0.7,0,1.7-0.1,3.1H22z"/>
	<path d="M45.4,524.7h-3v-28.1h3V524.7z"/>
	<path d="M81,524.7v-12.9c0-1.6-0.3-2.8-1-3.6c-0.7-0.8-1.7-1.2-3.1-1.2c-1.9,0-3.2,0.5-4.1,1.6c-0.9,1.1-1.3,2.7-1.3,5v11.1h-3
		v-12.9c0-1.6-0.3-2.8-1-3.6c-0.7-0.8-1.7-1.2-3.2-1.2c-1.9,0-3.3,0.6-4.1,1.7c-0.9,1.1-1.3,3-1.3,5.5v10.4h-3v-19.8h2.4l0.5,2.7
		h0.1c0.6-1,1.4-1.7,2.4-2.3c1-0.5,2.2-0.8,3.5-0.8c3.1,0,5.1,1.1,6.1,3.4h0.1c0.6-1,1.4-1.9,2.6-2.5s2.4-0.9,3.8-0.9
		c2.2,0,3.9,0.6,5,1.7s1.7,3,1.7,5.5v12.9H81z"/>
</g>
<g class="st1">
	<path d="M-185.9,569.1v-12.8c0-1.6-0.4-2.8-1.1-3.6c-0.7-0.8-1.9-1.2-3.5-1.2c-2.1,0-3.6,0.6-4.6,1.7s-1.4,3-1.4,5.5v10.4h-3v-19.8
		h2.4l0.5,2.7h0.1c0.6-1,1.5-1.7,2.6-2.3c1.1-0.5,2.3-0.8,3.7-0.8c2.4,0,4.2,0.6,5.4,1.7s1.8,3,1.8,5.5v12.9H-185.9z"/>
	<path d="M-155.7,559.2c0,3.2-0.8,5.7-2.4,7.6s-3.9,2.7-6.7,2.7c-1.8,0-3.3-0.4-4.7-1.2c-1.4-0.8-2.4-2-3.2-3.6
		c-0.7-1.6-1.1-3.4-1.1-5.5c0-3.2,0.8-5.7,2.4-7.5s3.9-2.7,6.7-2.7c2.8,0,5,0.9,6.6,2.8C-156.5,553.5-155.7,556-155.7,559.2z
		 M-170.8,559.2c0,2.5,0.5,4.5,1.5,5.8c1,1.3,2.5,2,4.5,2c2,0,3.5-0.7,4.5-2c1-1.3,1.5-3.2,1.5-5.8c0-2.5-0.5-4.4-1.5-5.7
		c-1-1.3-2.5-2-4.5-2c-2,0-3.4,0.6-4.4,1.9C-170.3,554.7-170.8,556.6-170.8,559.2z"/>
	<path d="M-137.2,569.5c-1.3,0-2.5-0.2-3.5-0.7c-1.1-0.5-2-1.2-2.7-2.2h-0.2c0.1,1.2,0.2,2.3,0.2,3.3v8.1h-3v-28.7h2.4l0.4,2.7h0.1
		c0.8-1.1,1.7-1.9,2.7-2.3c1-0.5,2.2-0.7,3.5-0.7c2.6,0,4.7,0.9,6.1,2.7c1.4,1.8,2.1,4.3,2.1,7.6c0,3.3-0.7,5.8-2.2,7.6
		C-132.6,568.6-134.6,569.5-137.2,569.5z M-137.6,551.5c-2,0-3.5,0.6-4.4,1.7s-1.4,2.9-1.4,5.3v0.7c0,2.8,0.5,4.8,1.4,6
		c0.9,1.2,2.4,1.8,4.5,1.8c1.7,0,3.1-0.7,4-2.1c1-1.4,1.5-3.3,1.5-5.7c0-2.5-0.5-4.4-1.5-5.7C-134.5,552.1-135.9,551.5-137.6,551.5z
		"/>
	<path d="M-112.7,569.5c-2.6,0-4.5-0.9-6-2.7c-1.4-1.8-2.1-4.3-2.1-7.5c0-3.2,0.7-5.8,2.2-7.6c1.4-1.8,3.5-2.7,6-2.7
		c2.7,0,4.8,1,6.3,3.1h0.2l0.4-2.7h2.4V578h-3v-8.5c0-1.2,0.1-2.2,0.2-3.1h-0.2C-107.9,568.5-109.9,569.5-112.7,569.5z
		 M-112.3,566.9c2,0,3.5-0.5,4.4-1.6s1.4-2.9,1.5-5.4v-0.7c0-2.8-0.5-4.8-1.4-6s-2.4-1.8-4.5-1.8c-1.8,0-3.1,0.7-4,2
		c-0.9,1.4-1.4,3.3-1.4,5.8c0,2.5,0.5,4.4,1.4,5.7C-115.4,566.3-114.1,566.9-112.3,566.9z"/>
	<path d="M-84,548.9c0.9,0,1.7,0.1,2.4,0.2l-0.4,2.8c-0.8-0.2-1.5-0.3-2.2-0.3c-1.6,0-3,0.7-4.1,2c-1.1,1.3-1.7,2.9-1.7,4.9v10.6h-3
		v-19.8h2.5l0.3,3.7h0.1c0.7-1.3,1.6-2.3,2.7-3S-85.3,548.9-84,548.9z"/>
	<path d="M-61.2,563.7c0,1.8-0.7,3.3-2.1,4.3c-1.4,1-3.3,1.5-5.8,1.5c-2.6,0-4.7-0.4-6.1-1.2v-2.8c1,0.5,2,0.9,3.1,1.1
		S-70,567-69,567c1.6,0,2.8-0.2,3.6-0.8s1.3-1.3,1.3-2.3c0-0.8-0.3-1.4-1-2c-0.7-0.5-2-1.2-3.9-1.9c-1.8-0.7-3.2-1.3-3.9-1.8
		c-0.8-0.5-1.4-1.1-1.7-1.7c-0.4-0.7-0.6-1.4-0.6-2.3c0-1.6,0.7-2.9,2-3.8s3.1-1.4,5.4-1.4c2.1,0,4.2,0.4,6.3,1.3l-1.1,2.4
		c-2-0.8-3.8-1.2-5.4-1.2c-1.4,0-2.5,0.2-3.2,0.7s-1.1,1.1-1.1,1.8c0,0.5,0.1,1,0.4,1.4c0.3,0.4,0.7,0.7,1.3,1.1s1.8,0.8,3.5,1.5
		c2.3,0.9,3.9,1.7,4.8,2.6S-61.2,562.4-61.2,563.7z"/>
	<path d="M-45.9,567c0.5,0,1,0,1.5-0.1c0.5-0.1,0.9-0.2,1.2-0.2v2.3c-0.3,0.2-0.8,0.3-1.4,0.4c-0.6,0.1-1.2,0.2-1.7,0.2
		c-3.8,0-5.7-2-5.7-6.1v-11.8H-55v-1.4l2.8-1.2l1.3-4.2h1.7v4.6h5.7v2.3h-5.7v11.7c0,1.2,0.3,2.1,0.8,2.7
		C-47.7,566.7-46.9,567-45.9,567z"/>
	<path d="M-32.5,549.3v12.8c0,1.6,0.4,2.8,1.1,3.6s1.9,1.2,3.5,1.2c2.1,0,3.6-0.6,4.5-1.7c1-1.1,1.4-3,1.4-5.5v-10.4h3v19.8h-2.5
		l-0.4-2.7H-22c-0.6,1-1.5,1.7-2.6,2.2c-1.1,0.5-2.3,0.8-3.7,0.8c-2.4,0-4.2-0.6-5.4-1.7c-1.2-1.1-1.8-3-1.8-5.5v-13H-32.5z"/>
	<path d="M-4.2,569.1l-7.5-19.8h3.2l4.3,11.7c1,2.7,1.5,4.5,1.7,5.3h0.1c0.1-0.6,0.6-2,1.3-4c0.7-2,2.3-6.4,4.7-13.1h3.2l-7.5,19.8
		H-4.2z"/>
	<path d="M30.1,569.1l-3.6-11.6c-0.2-0.7-0.7-2.3-1.3-4.8h-0.1c-0.5,2.1-0.9,3.7-1.3,4.9l-3.7,11.6h-3.5l-5.4-19.8h3.1
		c1.3,5,2.2,8.8,2.9,11.4c0.7,2.6,1.1,4.4,1.1,5.3h0.1c0.1-0.7,0.3-1.6,0.6-2.7c0.3-1.1,0.6-2,0.8-2.6l3.6-11.4h3.3l3.5,11.4
		c0.7,2.1,1.1,3.8,1.4,5.2h0.1c0-0.4,0.2-1.1,0.4-2c0.2-0.9,1.5-5.8,3.8-14.6h3.1l-5.5,19.8H30.1z"/>
	<path d="M51.5,559l-6.9-9.7H48l5.2,7.6l5.2-7.6h3.4L55,559l7.2,10.1h-3.4l-5.5-8l-5.6,8h-3.4L51.5,559z"/>
	<path d="M67,549.3h3.2l4.3,11.3c1,2.6,1.5,4.4,1.8,5.6h0.1c0.2-0.6,0.5-1.7,1-3.2s2.1-6.1,4.9-13.7h3.2L77,571.8
		c-0.8,2.2-1.8,3.8-3,4.7c-1.1,0.9-2.5,1.4-4.1,1.4c-0.9,0-1.8-0.1-2.7-0.3v-2.4c0.7,0.1,1.4,0.2,2.2,0.2c2.1,0,3.5-1.2,4.4-3.5
		l1.1-2.8L67,549.3z"/>
	<path d="M105.4,569.1H91.1v-2l10.8-15.4H91.7v-2.3h13.4v2.3l-10.7,15.1h10.9V569.1z"/>
</g>
<g class="st1">
	<path class="st3" d="M-160.8,626.4h-2.9v-18.8c0-1.6,0-3,0.1-4.4c-0.3,0.3-0.5,0.5-0.8,0.8c-0.3,0.3-1.7,1.5-4.3,3.5l-1.6-2.1
		l7-5.4h2.5V626.4z"/>
	<path class="st3" d="M-129.4,626.4h-17.4v-2.6l7-7c2.1-2.1,3.5-3.7,4.2-4.6c0.7-0.9,1.2-1.8,1.5-2.7c0.3-0.9,0.5-1.8,0.5-2.8
		c0-1.4-0.4-2.5-1.3-3.4c-0.9-0.8-2-1.2-3.6-1.2c-1.1,0-2.1,0.2-3.1,0.5c-1,0.4-2.1,1-3.3,2l-1.6-2c2.4-2,5.1-3,7.9-3
		c2.5,0,4.4,0.6,5.8,1.9c1.4,1.3,2.1,3,2.1,5.1c0,1.7-0.5,3.3-1.4,5c-0.9,1.6-2.7,3.7-5.3,6.2l-5.8,5.7v0.1h13.6V626.4z"/>
	<path class="st3" d="M-105.2,606.2c0,1.7-0.5,3.1-1.4,4.1c-0.9,1.1-2.3,1.8-4,2.1v0.1c2.1,0.3,3.7,0.9,4.7,2c1,1.1,1.5,2.5,1.5,4.3
		c0,2.5-0.9,4.5-2.6,5.8c-1.7,1.4-4.2,2-7.4,2c-1.4,0-2.7-0.1-3.8-0.3c-1.2-0.2-2.3-0.6-3.4-1.1v-2.9c1.1,0.6,2.4,1,3.7,1.3
		c1.3,0.3,2.5,0.4,3.7,0.4c4.6,0,6.8-1.8,6.8-5.4c0-3.2-2.5-4.8-7.6-4.8h-2.6v-2.6h2.6c2.1,0,3.7-0.5,4.9-1.4
		c1.2-0.9,1.8-2.2,1.8-3.8c0-1.3-0.4-2.3-1.3-3c-0.9-0.7-2.1-1.1-3.6-1.1c-1.2,0-2.2,0.2-3.3,0.5c-1,0.3-2.2,0.9-3.5,1.7l-1.5-2
		c1.1-0.9,2.3-1.5,3.7-2c1.4-0.5,2.9-0.7,4.5-0.7c2.6,0,4.6,0.6,6,1.8C-105.9,602.5-105.2,604.2-105.2,606.2z"/>
	<path class="st3" d="M-77.8,620.3h-3.9v6.1h-2.9v-6.1h-12.8v-2.6l12.5-17.9h3.2v17.8h3.9V620.3z M-84.6,617.6v-8.8
		c0-1.7,0.1-3.7,0.2-5.8h-0.1c-0.6,1.2-1.1,2.1-1.6,2.9l-8.3,11.7H-84.6z"/>
	<path class="st3" d="M-63,610.3c2.8,0,5,0.7,6.6,2.1c1.6,1.4,2.4,3.3,2.4,5.7c0,2.7-0.9,4.9-2.6,6.4c-1.7,1.6-4.1,2.3-7.2,2.3
		c-3,0-5.2-0.5-6.8-1.4v-2.9c0.8,0.5,1.9,1,3.1,1.3c1.3,0.3,2.5,0.5,3.7,0.5c2.1,0,3.8-0.5,4.9-1.5c1.2-1,1.8-2.4,1.8-4.3
		c0-3.7-2.3-5.5-6.8-5.5c-1.1,0-2.7,0.2-4.6,0.5l-1.6-1l1-12.4h13.1v2.8h-10.6l-0.7,7.9C-65.8,610.4-64.4,610.3-63,610.3z"/>
	<path class="st3" d="M-45.8,615.1c0-5.2,1-9.1,3-11.6c2-2.6,5-3.9,9-3.9c1.4,0,2.4,0.1,3.2,0.3v2.6c-0.9-0.3-2-0.5-3.2-0.5
		c-2.8,0-5,0.9-6.5,2.6c-1.5,1.8-2.3,4.5-2.5,8.3h0.2c1.3-2.1,3.4-3.1,6.3-3.1c2.4,0,4.2,0.7,5.6,2.2c1.4,1.4,2,3.4,2,5.8
		c0,2.7-0.7,4.9-2.2,6.5c-1.5,1.6-3.5,2.4-6.1,2.4c-2.7,0-4.9-1-6.5-3.1C-45,621.6-45.8,618.8-45.8,615.1z M-37,624.2
		c1.7,0,3-0.5,4-1.6s1.4-2.6,1.4-4.7c0-1.7-0.4-3.1-1.3-4.1c-0.9-1-2.2-1.5-3.9-1.5c-1.1,0-2.1,0.2-3,0.7c-0.9,0.4-1.6,1.1-2.2,1.8
		c-0.5,0.8-0.8,1.6-0.8,2.4c0,1.2,0.2,2.4,0.7,3.5s1.2,1.9,2.1,2.5C-39.1,623.9-38.1,624.2-37,624.2z"/>
	<path class="st3" d="M-17.7,626.4l10.9-23.6h-14.4V600h17.6v2.4l-10.8,24H-17.7z"/>
	<path class="st3" d="M12.9,599.6c2.4,0,4.3,0.6,5.7,1.7s2.1,2.7,2.1,4.6c0,1.3-0.4,2.5-1.2,3.6s-2.1,2-3.9,2.9
		c2.1,1,3.7,2.1,4.6,3.2c0.9,1.1,1.4,2.4,1.4,3.9c0,2.2-0.8,3.9-2.3,5.2c-1.5,1.3-3.6,2-6.3,2c-2.8,0-5-0.6-6.5-1.9s-2.3-3-2.3-5.2
		c0-3,1.8-5.4,5.5-7.1c-1.7-0.9-2.9-2-3.6-3s-1.1-2.3-1.1-3.7c0-1.9,0.7-3.4,2.1-4.6C8.6,600.2,10.5,599.6,12.9,599.6z M7.2,619.7
		c0,1.4,0.5,2.6,1.5,3.4c1,0.8,2.4,1.2,4.2,1.2c1.8,0,3.2-0.4,4.2-1.3c1-0.8,1.5-2,1.5-3.5c0-1.2-0.5-2.2-1.4-3.1
		c-0.9-0.9-2.6-1.8-4.9-2.6c-1.8,0.8-3.1,1.6-3.9,2.6S7.2,618.4,7.2,619.7z M12.9,602.1c-1.5,0-2.7,0.4-3.5,1.1
		C8.5,603.9,8,604.8,8,606c0,1.1,0.4,2.1,1.1,2.9c0.7,0.8,2,1.6,3.9,2.4c1.7-0.7,2.9-1.5,3.7-2.3c0.7-0.8,1.1-1.8,1.1-2.9
		c0-1.2-0.4-2.2-1.3-2.9C15.6,602.4,14.4,602.1,12.9,602.1z"/>
	<path class="st3" d="M46.7,611.3c0,10.3-4,15.5-12,15.5c-1.4,0-2.5-0.1-3.3-0.4v-2.6c1,0.3,2.1,0.5,3.3,0.5c2.9,0,5.1-0.9,6.5-2.7
		c1.5-1.8,2.3-4.5,2.4-8.2h-0.2c-0.7,1-1.5,1.8-2.6,2.3c-1.1,0.5-2.3,0.8-3.7,0.8c-2.3,0-4.2-0.7-5.6-2.1c-1.4-1.4-2.1-3.3-2.1-5.9
		c0-2.7,0.8-4.9,2.3-6.5c1.5-1.6,3.6-2.4,6.1-2.4c1.8,0,3.4,0.5,4.7,1.4c1.3,0.9,2.4,2.3,3.1,4C46.3,606.8,46.7,608.9,46.7,611.3z
		 M37.8,602.2c-1.7,0-3.1,0.6-4,1.7c-0.9,1.1-1.4,2.6-1.4,4.6c0,1.7,0.4,3.1,1.3,4.1c0.9,1,2.2,1.5,4,1.5c1.1,0,2.1-0.2,3-0.7
		c0.9-0.4,1.6-1.1,2.2-1.8s0.8-1.6,0.8-2.4c0-1.3-0.2-2.4-0.7-3.5c-0.5-1.1-1.2-1.9-2.1-2.5C39.9,602.5,38.9,602.2,37.8,602.2z"/>
	<path class="st3" d="M72,613.2c0,4.6-0.7,8-2.2,10.2c-1.4,2.3-3.6,3.4-6.6,3.4c-2.8,0-5-1.2-6.5-3.5c-1.5-2.3-2.2-5.7-2.2-10.1
		c0-4.6,0.7-8,2.2-10.2c1.4-2.2,3.6-3.3,6.6-3.3c2.9,0,5,1.2,6.5,3.5S72,608.8,72,613.2z M57.5,613.2c0,3.8,0.5,6.6,1.4,8.4
		c0.9,1.8,2.3,2.6,4.3,2.6c2,0,3.4-0.9,4.3-2.7c0.9-1.8,1.3-4.6,1.3-8.4c0-3.8-0.4-6.6-1.3-8.3c-0.9-1.8-2.3-2.6-4.3-2.6
		c-2,0-3.4,0.9-4.3,2.6S57.5,609.3,57.5,613.2z"/>
</g>
<g class="st1">
	<path class="st3" d="M114.9,365.3l-2.9-13.9h-0.7c-4.9,6.1-9.7,10.2-14.5,12.4c-4.8,2.2-10.9,3.2-18.1,3.2
		c-9.7,0-17.2-2.5-22.7-7.5c-5.5-5-8.2-12.1-8.2-21.3c0-19.7,15.7-30,47.2-31l16.6-0.5v-6.1c0-7.7-1.6-13.3-4.9-17
		c-3.3-3.6-8.6-5.5-15.8-5.5c-8.1,0-17.3,2.5-27.6,7.5l-4.5-11.3c4.8-2.6,10.1-4.7,15.8-6.1c5.7-1.5,11.5-2.2,17.2-2.2
		c11.6,0,20.2,2.6,25.8,7.7s8.4,13.4,8.4,24.8v66.6H114.9z M81.5,354.9c9.2,0,16.4-2.5,21.7-7.6c5.2-5,7.9-12.1,7.9-21.2v-8.8
		L96.3,318c-11.7,0.4-20.2,2.2-25.4,5.5c-5.2,3.2-7.8,8.3-7.8,15.1c0,5.3,1.6,9.4,4.8,12.2C71.2,353.5,75.7,354.9,81.5,354.9z"/>
</g>
<g class="st1">
	<path d="M-237,298.9l-4.3-11h-13.9l-4.3,11h-4.1l13.7-34.8h3.4l13.6,34.8H-237z M-242.6,284.2l-4-10.7c-0.5-1.4-1.1-3-1.6-5
		c-0.3,1.5-0.8,3.2-1.5,5l-4.1,10.7H-242.6z"/>
	<path d="M-212.7,298.9l-0.8-3.7h-0.2c-1.3,1.6-2.6,2.7-3.9,3.3c-1.3,0.6-2.9,0.9-4.8,0.9c-2.6,0-4.6-0.7-6.1-2s-2.2-3.2-2.2-5.7
		c0-5.2,4.2-8,12.6-8.3l4.4-0.1v-1.6c0-2-0.4-3.5-1.3-4.5c-0.9-1-2.3-1.5-4.2-1.5c-2.2,0-4.6,0.7-7.4,2l-1.2-3
		c1.3-0.7,2.7-1.2,4.2-1.6c1.5-0.4,3.1-0.6,4.6-0.6c3.1,0,5.4,0.7,6.9,2.1c1.5,1.4,2.2,3.6,2.2,6.6v17.7H-212.7z M-221.6,296.1
		c2.5,0,4.4-0.7,5.8-2s2.1-3.2,2.1-5.6v-2.3l-3.9,0.2c-3.1,0.1-5.4,0.6-6.8,1.5c-1.4,0.9-2.1,2.2-2.1,4c0,1.4,0.4,2.5,1.3,3.2
		S-223.1,296.1-221.6,296.1z"/>
	<path d="M-145.8,281.5c0,4.4-0.9,8.1-2.7,11.1c-1.8,2.9-4.3,4.9-7.6,6l8.3,8.6h-5.9l-6.8-7.8l-1.3,0c-5.1,0-9-1.6-11.8-4.7
		s-4.2-7.5-4.2-13.2c0-5.6,1.4-10,4.2-13.1c2.8-3.1,6.7-4.7,11.9-4.7c5,0,8.9,1.6,11.7,4.7S-145.8,275.9-145.8,281.5z M-173.4,281.5
		c0,4.7,1,8.3,3,10.7c2,2.4,4.9,3.6,8.7,3.6c3.8,0,6.7-1.2,8.7-3.6c2-2.4,2.9-6,2.9-10.7c0-4.7-1-8.2-2.9-10.6
		c-2-2.4-4.8-3.6-8.7-3.6c-3.8,0-6.8,1.2-8.8,3.6C-172.4,273.3-173.4,276.8-173.4,281.5z"/>
	<path d="M-129.4,299.3c-3.4,0-6-1.2-7.8-3.5s-2.8-5.6-2.8-9.9c0-4.3,0.9-7.6,2.8-10c1.9-2.4,4.5-3.6,7.9-3.6c3.6,0,6.3,1.3,8.2,4
		h0.2l0.6-3.6h3.1v37.7h-3.9v-11.1c0-1.6,0.1-2.9,0.3-4h-0.3C-123,298-125.7,299.3-129.4,299.3z M-128.8,296c2.6,0,4.5-0.7,5.7-2.1
		c1.2-1.4,1.8-3.8,1.9-7.1v-0.9c0-3.6-0.6-6.3-1.8-7.8c-1.2-1.6-3.2-2.4-5.9-2.4c-2.3,0-4.1,0.9-5.3,2.7s-1.8,4.3-1.8,7.6
		s0.6,5.8,1.8,7.5C-133,295.2-131.2,296-128.8,296z"/>
	<path d="M-79,284.4v14.4h-4v-34.7h9.5c4.3,0,7.4,0.8,9.4,2.4c2,1.6,3,4.1,3,7.4c0,4.6-2.3,7.7-7,9.3l9.4,15.6h-4.8l-8.4-14.4H-79z
		 M-79,281h5.5c2.8,0,4.9-0.6,6.3-1.7c1.3-1.1,2-2.8,2-5.1c0-2.3-0.7-3.9-2-5s-3.5-1.5-6.5-1.5H-79V281z"/>
	<path d="M-41.8,272.4c1.2,0,2.2,0.1,3.1,0.3l-0.5,3.7c-1.1-0.2-2-0.4-2.8-0.4c-2.1,0-3.9,0.9-5.4,2.6c-1.5,1.7-2.2,3.8-2.2,6.4
		v13.9h-3.9v-26h3.2l0.5,4.8h0.2c1-1.7,2.1-3,3.5-3.9C-44.9,272.9-43.4,272.4-41.8,272.4z"/>
</g>
<g class="st1">
	<path d="M-238,365.3l-2.5-8.3h-12.6l-2.5,8.3h-7.9l12.2-34.8h9l12.3,34.8H-238z M-242.3,350.9c-2.3-7.5-3.6-11.7-3.9-12.7
		c-0.3-1-0.5-1.8-0.6-2.3c-0.5,2-2,7-4.5,15H-242.3z"/>
	<path d="M-209.5,365.3l-1.4-3.6h-0.2c-1.2,1.5-2.5,2.6-3.8,3.2s-3,0.9-5,0.9c-2.5,0-4.5-0.7-6-2.2c-1.5-1.5-2.2-3.5-2.2-6.2
		c0-2.8,1-4.9,3-6.2c2-1.3,4.9-2.1,8.9-2.2l4.6-0.1v-1.2c0-2.7-1.4-4-4.1-4c-2.1,0-4.6,0.6-7.5,1.9l-2.4-4.9
		c3.1-1.6,6.4-2.4,10.1-2.4c3.6,0,6.3,0.8,8.2,2.3c1.9,1.5,2.8,3.9,2.8,7.1v17.7H-209.5z M-211.6,353.1l-2.8,0.1
		c-2.1,0.1-3.7,0.4-4.7,1.1c-1,0.7-1.5,1.8-1.5,3.2c0,2,1.2,3.1,3.5,3.1c1.7,0,3-0.5,4-1.4c1-1,1.5-2.2,1.5-3.8V353.1z"/>
	<path d="M-139.7,348c0,4.1-0.7,7.5-2.2,10.3c-1.4,2.8-3.6,4.8-6.4,6.1l8.3,9.3h-9.4l-6.4-7.8h-0.5c-5.3,0-9.4-1.5-12.2-4.6
		c-2.8-3.1-4.3-7.5-4.3-13.3c0-5.8,1.4-10.2,4.3-13.2s6.9-4.6,12.3-4.6c5.3,0,9.4,1.5,12.2,4.6C-141.1,337.8-139.7,342.2-139.7,348z
		 M-165,348c0,3.9,0.7,6.8,2.2,8.8c1.5,2,3.7,2.9,6.6,2.9c5.9,0,8.8-3.9,8.8-11.7c0-7.8-2.9-11.7-8.8-11.7c-2.9,0-5.1,1-6.6,3
		C-164.2,341.2-165,344.1-165,348z"/>
	<path d="M-124.7,365.8c-3.1,0-5.6-1.2-7.4-3.6c-1.8-2.4-2.7-5.8-2.7-10.1c0-4.3,0.9-7.7,2.7-10.1c1.8-2.4,4.3-3.7,7.4-3.7
		c1.7,0,3.1,0.3,4.4,0.9c1.2,0.6,2.3,1.6,3.3,2.9h0.2l0.6-3.4h6.1V377h-7.3v-11.1c0-1,0.1-2.3,0.3-4h-0.3c-0.8,1.3-1.8,2.3-3.1,2.9
		C-121.5,365.5-123,365.8-124.7,365.8z M-122.1,360.1c1.8,0,3.2-0.5,4-1.6c0.9-1.1,1.3-2.9,1.4-5.5v-0.9c0-2.8-0.4-4.9-1.3-6.1
		c-0.9-1.2-2.3-1.8-4.2-1.8c-3.4,0-5.1,2.7-5.1,8c0,2.7,0.4,4.6,1.3,6S-123.9,360.1-122.1,360.1z"/>
	<path d="M-69.2,352v13.3h-7.4v-34.7h10.1c4.7,0,8.2,0.9,10.5,2.6c2.3,1.7,3.4,4.3,3.4,7.8c0,2-0.6,3.9-1.7,5.4
		c-1.1,1.6-2.7,2.8-4.8,3.7c5.2,7.8,8.6,12.8,10.2,15.1H-57l-8.3-13.3H-69.2z M-69.2,346.1h2.4c2.3,0,4-0.4,5.1-1.2
		c1.1-0.8,1.7-2,1.7-3.7c0-1.6-0.6-2.8-1.7-3.5c-1.1-0.7-2.9-1-5.3-1h-2.2V346.1z"/>
	<path d="M-30.3,338.3c1,0,1.8,0.1,2.4,0.2l-0.5,6.8c-0.6-0.2-1.3-0.2-2.1-0.2c-2.3,0-4.1,0.6-5.4,1.8s-1.9,2.8-1.9,5v13.5H-45
		v-26.5h5.5l1.1,4.5h0.4c0.8-1.5,1.9-2.7,3.3-3.6C-33.4,338.8-31.9,338.3-30.3,338.3z"/>
</g>
</svg>
