<?xml version="1.0" encoding="utf-8"?>
<!-- Generator: Adobe Illustrator 19.1.0, SVG Export Plug-In . SVG Version: 6.00 Build 0)  -->
<svg version="1.1" id="Layer_1" xmlns="http://www.w3.org/2000/svg" xmlns:xlink="http://www.w3.org/1999/xlink" x="0px" y="0px"
	 viewBox="-331 117 560 560" style="enable-background:new -331 117 560 560;" xml:space="preserve">
<style type="text/css">
	.st0{fill:#E5E5E5;}
	.st1{enable-background:new    ;}
	.st2{fill:#820028;}
	.st3{fill:#FFFFFF;}
</style>
<rect x="-332" y="116.4" class="st0" width="559.6" height="559.6"/>
<g>
	<g class="st1">
		<path d="M-236.4,210.2c0,0.3-0.2,1.6-0.7,3.6c-0.4,2.1-0.8,3.2-0.9,3.2c-2.3,1.4-6.1,2.1-11.3,2.1c-4.2,0-7.7-1.5-10.6-4.6
			c-2.9-3.1-4.4-6.7-4.4-11c0-4.5,1.5-8.3,4.5-11.5c3-3.2,6.7-4.8,11.1-4.8c3.7,0,7.6,0.4,11.5,1.2c-0.1,4.2-0.1,6.5-0.1,6.8
			c0,0.5-0.3,0.7-1,0.7c-0.3,0-0.5-0.1-0.6-0.2c-0.1-0.4-0.2-0.8-0.4-1.3s-0.4-1-0.9-1.7c-0.5-0.7-1-1.3-1.7-1.8
			c-0.6-0.5-1.6-0.9-2.8-1.3c-1.2-0.4-2.5-0.5-4-0.5c-3.1,0-5.7,1.4-7.9,4.1s-3.3,5.8-3.3,9.3c0,2.6,0.4,4.9,1.3,7.1
			c0.9,2.2,2.3,3.9,4.2,5.3c1.9,1.4,4.2,2.1,6.8,2.1c3.1,0,5.5-0.9,7.3-2.8c0.4-0.5,0.8-1.1,1.2-1.9c0.3-0.8,0.6-1.4,0.8-1.9
			c0.2-0.5,0.3-0.8,0.4-0.8c0.2,0,0.4,0,0.7,0.1c0.3,0.1,0.5,0.1,0.6,0.2L-236.4,210.2z"/>
		<path d="M-221.4,198.2c1.9,0,3.1,0.5,3.7,1.4c0,1.1-0.2,1.9-0.5,2.4c-0.3,0.5-0.8,0.8-1.3,0.8c-0.6,0-1.1-0.3-1.6-0.8
			c-0.5-0.5-1.1-0.8-1.9-0.8c-1,0-1.8,0.5-2.6,1.4c-0.7,0.9-1.1,1.9-1.1,2.9v7.1c0,1.8,0.1,3.2,0.4,4.2c0.1,0.2,0.5,0.4,1.3,0.6
			c0.8,0.2,1.3,0.3,1.6,0.3c0.1,0,0.2,0.2,0.2,0.6c0,0.4,0,0.6,0,0.8c-3.2-0.2-4.9-0.2-5.1-0.2c-0.2,0-1.9,0.1-5.2,0.2
			c-0.1-0.1-0.2-0.4-0.2-0.8c0-0.4,0.1-0.6,0.2-0.6c0.4,0,0.9-0.1,1.7-0.3c0.7-0.2,1.1-0.4,1.2-0.6c0.2-0.9,0.3-2,0.3-3.3v-9
			c0-1.2-0.2-2.1-0.7-2.6c-0.3-0.4-0.7-0.6-1.2-0.8c-0.5-0.1-0.8-0.2-1.1-0.2c-0.3,0-0.5,0-0.5-0.1c0-0.8,0.1-1.2,0.3-1.2
			c3.4-0.5,5.5-0.9,6.5-1.2c0,0,0.1,0,0.2,0c0.1,0,0.2,0.1,0.2,0.4c0,0.3,0,0.5,0,0.6l-0.3,2.4c0.6-0.9,1.4-1.7,2.3-2.4
			C-223.4,198.5-222.4,198.2-221.4,198.2z"/>
		<path d="M-208.7,212.5c0,1.8,0.1,3.2,0.4,4.2c0.1,0.2,0.5,0.4,1.2,0.6s1.3,0.3,1.6,0.3c0.1,0,0.2,0.2,0.2,0.6c0,0.4,0,0.6,0,0.8
			c-3.2-0.2-4.9-0.2-5.1-0.2c-0.2,0-1.9,0.1-5.2,0.2c-0.1-0.1-0.2-0.4-0.2-0.8c0-0.4,0.1-0.6,0.2-0.6c0.4,0,0.9-0.1,1.7-0.3
			c0.7-0.2,1.1-0.4,1.2-0.6c0.2-0.9,0.3-2,0.3-3.3v-9c0-1.2-0.2-2.1-0.7-2.6c-0.3-0.4-0.7-0.6-1.2-0.8c-0.5-0.1-0.8-0.2-1.1-0.2
			c-0.3,0-0.5,0-0.5-0.1c0-0.8,0.1-1.2,0.3-1.2c3.4-0.5,5.5-0.9,6.5-1.2l0.1,0c0.1,0,0.1,0,0.1,0c0.1,0,0.2,0.1,0.2,0.4
			c0,0.3,0,0.5,0,0.6c-0.2,1.3-0.2,2.4-0.2,3.4V212.5z M-212.6,192.4c-0.5-0.5-0.7-1-0.7-1.7s0.2-1.2,0.7-1.7c0.5-0.5,1-0.7,1.7-0.7
			c0.7,0,1.2,0.2,1.7,0.7c0.5,0.5,0.7,1,0.7,1.7s-0.2,1.2-0.7,1.7c-0.5,0.5-1,0.7-1.7,0.7C-211.6,193.1-212.1,192.9-212.6,192.4z"/>
		<path d="M-189.4,198.1c1.3,0,2.3,0.3,3.2,1c0.8,0.7,1.4,1.5,1.7,2.3c2.4-2.2,4.8-3.4,7.4-3.4c4,0,6,3,6,9.1v5.3
			c0,1.8,0.1,3.2,0.4,4.2c0.1,0.2,0.5,0.4,1.2,0.6s1.3,0.3,1.6,0.3c0.1,0,0.2,0.2,0.2,0.6c0,0.4,0,0.6,0,0.8
			c-3.2-0.2-4.9-0.2-5.1-0.2c-0.2,0-1.9,0.1-5.2,0.2c-0.1-0.1-0.2-0.4-0.2-0.8c0-0.4,0.1-0.6,0.2-0.6c0.4,0,0.9-0.1,1.7-0.3
			c0.7-0.2,1.1-0.4,1.2-0.6c0.2-0.9,0.3-1.9,0.3-3v-5.4c0-4.9-1.6-7.3-4.8-7.3c-1.2,0-2.2,0.3-3,1c-0.9,0.7-1.3,1.2-1.3,1.7l0,0.2
			c0,0.1,0,0.2,0,0.2c0.1,0.8,0.2,1.9,0.2,3.4v5.4c0,1.5,0.1,2.8,0.4,3.8c0.1,0.2,0.5,0.4,1.2,0.6s1.3,0.3,1.6,0.3
			c0.1,0,0.2,0.2,0.2,0.6c0,0.4,0,0.6,0,0.8c-3.2-0.2-4.9-0.2-5.1-0.2c-0.2,0-1.9,0.1-5.2,0.2c-0.1-0.1-0.2-0.4-0.2-0.8
			c0-0.4,0.1-0.6,0.2-0.6c0.4,0,0.9-0.1,1.7-0.3c0.7-0.2,1.1-0.4,1.2-0.6c0.2-0.9,0.3-2,0.3-3.3v-4.8c0-5-1.5-7.5-4.6-7.5
			c-0.9,0-1.9,0.4-2.9,1.1c-1,0.7-1.4,1.4-1.4,2.1v8.3c0,1.8,0.1,3.2,0.4,4.2c0.1,0.2,0.5,0.4,1.2,0.6s1.3,0.3,1.6,0.3
			c0.1,0,0.2,0.2,0.2,0.6c0,0.4,0,0.6,0,0.8c-3.2-0.2-4.9-0.2-5.1-0.2c-0.2,0-1.9,0.1-5.2,0.2c-0.1-0.1-0.2-0.4-0.2-0.8
			c0-0.4,0.1-0.6,0.2-0.6c0.4,0,0.9-0.1,1.7-0.3c0.7-0.2,1.1-0.4,1.2-0.6c0.2-0.9,0.3-2,0.3-3.3v-9c0-1.2-0.2-2.1-0.7-2.6
			c-0.3-0.4-0.7-0.6-1.2-0.8c-0.5-0.1-0.8-0.2-1.1-0.2c-0.3,0-0.5,0-0.5-0.1c0-0.8,0.1-1.2,0.3-1.2c3.4-0.5,5.5-0.9,6.5-1.2
			c0,0,0.1,0,0.2,0c0.1,0,0.2,0.1,0.2,0.4c0,0.3,0,0.5,0,0.6c-0.1,0.9-0.2,1.5-0.2,1.9c0,0.1,0,0.2,0.1,0.2c0,0,0.1,0,0.1-0.1
			c0.7-0.8,1.7-1.5,3-2.2S-190.5,198.1-189.4,198.1z"/>
		<path d="M-157.5,198.2c0.7,0,1.6,0.1,2.6,0.3c1.1,0.2,1.8,0.3,2.2,0.4c0.3,1.5,0.5,3.1,0.6,4.8c0,0.2-0.2,0.2-0.6,0.2
			c-0.4,0-0.7-0.1-0.7-0.3c-0.2-0.9-0.6-1.7-1.4-2.5c-0.7-0.8-1.6-1.2-2.5-1.2c-2.3,0-3.4,0.9-3.4,2.8c0,0.5,0.1,0.9,0.2,1.3
			c0.1,0.4,0.4,0.7,0.7,1c0.4,0.3,0.6,0.6,0.8,0.7c0.2,0.1,0.6,0.4,1.3,0.8c0.6,0.4,1.1,0.6,1.2,0.7c0.1,0.1,0.5,0.3,1.1,0.6
			c0.6,0.4,1.1,0.6,1.3,0.8c0.3,0.2,0.6,0.4,1.1,0.8c0.5,0.4,0.8,0.7,1.1,1c0.2,0.3,0.4,0.7,0.6,1.1c0.2,0.5,0.3,0.9,0.3,1.4
			c0,1.9-0.7,3.4-2.2,4.7c-1.5,1.2-3.2,1.9-5.1,1.9c-0.7,0-1.3,0-1.8-0.1c-0.6-0.1-1.2-0.2-2-0.4s-1.3-0.3-1.8-0.4
			c-0.2-0.5-0.4-1.3-0.5-2.4c-0.2-1.1-0.3-1.9-0.3-2.6c0.3-0.2,0.4-0.3,0.6-0.3c0.5,0,0.7,0.1,0.8,0.3c0.2,0.9,0.8,1.9,1.8,2.8
			c1,0.9,2.1,1.4,3.2,1.4c1,0,1.8-0.3,2.5-0.8c0.6-0.6,1-1.4,1-2.4c0-0.5-0.1-1-0.3-1.5c-0.2-0.5-0.5-0.9-1-1.2
			c-0.5-0.4-0.9-0.7-1.3-0.9c-0.4-0.2-1-0.5-1.7-0.9c-0.7-0.4-1.3-0.7-1.6-0.9c-2.5-1.4-3.7-3.1-3.7-5.1c0-1.7,0.7-3.1,2.1-4.2
			C-161,198.7-159.4,198.2-157.5,198.2z"/>
		<path d="M-137.5,198.2c2.8,0,5.3,1,7.3,3.1c2,2.1,3,4.5,3,7.4c0,2.9-1,5.4-3,7.5c-2,2.1-4.4,3.1-7.3,3.1c-2.9,0-5.3-1-7.4-3.1
			c-2-2.1-3-4.6-3-7.5c0-2.9,1-5.4,2.9-7.4C-142.9,199.2-140.5,198.2-137.5,198.2z M-138,200c-1.7,0-3,0.8-4.1,2.3
			c-1.1,1.5-1.6,3.4-1.6,5.6c0,2.6,0.7,4.8,2,6.7c1.3,1.8,2.9,2.8,4.7,2.8c1.7,0,3.1-0.8,4.1-2.4c1.1-1.6,1.6-3.5,1.6-5.7
			c0-2.6-0.7-4.8-2-6.6C-134.7,200.9-136.2,200-138,200z"/>
		<path d="M-110.1,198.1c2.2,0,3.8,0.8,4.6,2.4c0.9,1.6,1.3,4.1,1.3,7.7v4.3c0,1.8,0.1,3.2,0.4,4.2c0.1,0.2,0.5,0.4,1.2,0.6
			s1.3,0.3,1.6,0.3c0.1,0,0.2,0.2,0.2,0.6c0,0.4,0,0.6,0,0.8c-3.2-0.2-4.9-0.2-5.1-0.2c-0.1,0-1.7,0.1-5,0.2
			c-0.1-0.1-0.2-0.4-0.2-0.8c0-0.4,0.1-0.6,0.2-0.6c0.4,0,0.9-0.1,1.6-0.3c0.7-0.2,1.1-0.4,1.1-0.6c0.2-0.9,0.3-2,0.3-3.3v-4.7
			c0-2.9-0.4-4.9-1.1-6c-0.8-1.1-2-1.6-3.7-1.6c-1,0-2,0.4-2.9,1.1c-0.9,0.7-1.4,1.4-1.4,2v8.3c0,1.8,0.1,3.2,0.4,4.2
			c0.1,0.2,0.5,0.4,1.2,0.6s1.3,0.3,1.6,0.3c0.1,0,0.2,0.2,0.2,0.6c0,0.4,0,0.6,0,0.8c-3.2-0.2-4.9-0.2-5.1-0.2
			c-0.2,0-1.9,0.1-5.2,0.2c-0.1-0.1-0.2-0.4-0.2-0.8c0-0.4,0.1-0.6,0.2-0.6c0.4,0,0.9-0.1,1.7-0.3c0.7-0.2,1.1-0.4,1.2-0.6
			c0.2-0.9,0.3-2,0.3-3.3v-9c0-1.2-0.2-2.1-0.7-2.6c-0.3-0.4-0.7-0.6-1.2-0.8c-0.5-0.1-0.8-0.2-1.1-0.2c-0.3,0-0.5,0-0.5-0.1
			c0-0.8,0.1-1.2,0.3-1.2c3.4-0.5,5.5-0.9,6.5-1.2c0,0,0.1,0,0.2,0c0.1,0,0.2,0.1,0.2,0.4c0,0.3,0,0.5,0,0.6
			c-0.1,0.9-0.2,1.5-0.2,1.9c0,0.1,0,0.2,0.1,0.2c0,0,0.1,0,0.1-0.1c0.7-0.8,1.7-1.5,3-2.2C-112.4,198.4-111.3,198.1-110.1,198.1z"
			/>
		<path d="M-78.2,187.7c2.2,0.1,3.9,0.1,5.3,0.1c1.4,0,3.2,0,5.4-0.1c2.2-0.1,3.9-0.1,5.1-0.1c0.8,0,1.9-0.2,3.3-0.5l0.9,6.8
			c-0.2,0.2-0.6,0.3-1.1,0.3c-0.3,0-0.4-0.1-0.5-0.2c-0.4-1.8-1-2.9-1.6-3.4c-0.6-0.5-1.9-0.8-3.7-0.8c-3.4,0-5.1,0.2-5.2,0.7
			c-0.3,1-0.4,2.6-0.4,4.7v17.1c0,1.8,0.1,3.3,0.4,4.4c0.1,0.2,0.5,0.4,1.3,0.6c0.8,0.2,1.4,0.3,1.7,0.3c0.1,0,0.2,0.2,0.2,0.7
			c0,0.3,0,0.5-0.1,0.7c-3.2-0.2-5-0.2-5.5-0.2c-0.2,0-2.1,0.1-5.7,0.2c-0.1-0.1-0.2-0.4-0.2-0.7c0-0.4,0.1-0.7,0.2-0.7
			c0.4,0,1-0.1,1.8-0.3s1.3-0.4,1.4-0.7c0.2-0.9,0.3-2.3,0.3-4.2v-17.2c0-2.8-0.1-4.4-0.4-4.9c-0.3-0.5-2-0.7-5.1-0.7
			c-1.8,0-3,0.3-3.7,0.8c-0.6,0.5-1.2,1.7-1.6,3.4c0,0.2-0.2,0.2-0.5,0.2c-0.5,0-0.9-0.1-1.1-0.3l0.9-6.8c1.4,0.3,2.5,0.5,3.3,0.5
			C-82.1,187.6-80.4,187.6-78.2,187.7z"/>
		<path d="M-45.9,198.2c1.5,0,2.7,0.3,3.8,0.8c1.1,0.6,2,1.3,2.5,2.1c0.6,0.9,1,1.8,1.3,2.7c0.3,0.9,0.4,1.8,0.4,2.7
			c0,0.6-0.1,1-0.3,1.2c-0.2,0.1-0.6,0.2-1.1,0.2h-12c-0.3,0-0.4,0.1-0.4,0.2c0,2,0.6,3.8,1.8,5.5c1.2,1.7,2.9,2.5,5.2,2.5
			c0.7,0,1.3-0.1,1.9-0.2c0.6-0.1,1.1-0.3,1.5-0.5c0.4-0.2,0.8-0.3,1.1-0.5c0.3-0.2,0.6-0.3,0.8-0.5l0.3-0.2c0.2,0,0.3,0.2,0.3,0.6
			c0,0.3-0.1,0.5-0.3,0.9c-0.6,0.9-1.6,1.7-2.8,2.4c-1.2,0.7-2.6,1.1-4,1.1c-2.6,0-4.9-1-6.8-3c-1.9-2-2.8-4.4-2.8-7.2
			c0-3.3,0.9-5.9,2.7-7.9C-50.8,199.2-48.6,198.2-45.9,198.2z M-46.4,200c-1.6,0-2.9,0.7-3.8,2.1s-1.3,2.6-1.3,3.5
			c0,0.2,0.1,0.3,0.3,0.3h9.2c0.2,0,0.2-0.2,0.2-0.5c0-1-0.4-2.2-1.3-3.5C-43.8,200.6-44.9,200-46.4,200z"/>
		<path d="M-36,199c0.1-0.3,0.1-0.5,0.2-0.7c3.1,0.2,4.6,0.2,4.7,0.2c0.1,0,1.7-0.1,5-0.2c0,0.1,0,0.3,0,0.6c0,0.5,0,0.8-0.1,0.8
			c-1.3,0-1.9,0.3-1.9,0.8c0,0.1,0.1,0.3,0.2,0.6l3.1,4.8c0.2-0.3,0.6-0.8,1-1.5c0.4-0.6,0.8-1.2,1.1-1.6c0.3-0.4,0.5-0.8,0.7-1.3
			c0.2-0.4,0.3-0.8,0.3-1c0-0.3-0.2-0.5-0.5-0.6c-0.4-0.1-0.8-0.2-1.2-0.2c-0.5,0-0.7,0-0.8-0.1c-0.1,0-0.1-0.3-0.1-0.8
			c0-0.3,0-0.5,0.1-0.6c3.2,0.2,4.9,0.2,5,0.2s1.5-0.1,4.3-0.2c0.1,0.3,0.1,0.5,0.1,0.7c0,0.5,0,0.7-0.1,0.7
			c-2.1,0.3-3.5,0.8-4.1,1.6l-4.6,5.9c-0.1,0.1-0.1,0.2-0.1,0.3c0,0.2,0,0.3,0.1,0.5l5.1,7.5c0.9,1.3,2.2,2,4,2.1
			c0.1,0,0.1,0.2,0.1,0.7c0,0.3-0.1,0.6-0.2,0.7c-2.9-0.2-4.4-0.2-4.5-0.2c-0.1,0-1.8,0.1-5.3,0.2c-0.1-0.3-0.1-0.5-0.1-0.6
			c0-0.5,0-0.8,0.1-0.8c1.3-0.1,2-0.4,2-0.9c0-0.1,0-0.2-0.1-0.3l-3.6-5.7l-3.3,4.9c-0.2,0.3-0.3,0.6-0.3,0.9c0,0.6,0.8,0.9,2.4,1
			c0.1,0,0.2,0,0.2,0c0.1,0,0.1,0.2,0.1,0.7c0,0.3-0.1,0.5-0.2,0.7c-3.1-0.2-4.6-0.2-4.7-0.2c-0.1,0-1.6,0.1-4.6,0.2
			c-0.1-0.3-0.1-0.5-0.1-0.7c0-0.5,0.1-0.7,0.2-0.7c2.1-0.3,3.5-1,4.3-2l4.9-6.6c0,0,0-0.1,0-0.1c0-0.1,0-0.1,0-0.1
			c0-0.1,0-0.2-0.1-0.3l-4.9-7.2c-0.3-0.4-0.9-0.8-1.8-1.1c-0.9-0.3-1.6-0.5-2.1-0.5L-36,199z"/>
		<path d="M-10.7,201.1h-2.8c-0.2,0-0.2-0.3-0.2-1c0-0.2,0-0.3,0-0.3c0.9-0.4,1.9-1.2,3-2.5c0.3-0.4,0.7-0.9,1-1.4s0.6-1,0.8-1.4
			c0.2-0.4,0.3-0.6,0.3-0.6c0.9,0,1.4,0.1,1.4,0.2v4.7c0.8,0,2.1,0,3.7,0c1.7,0,2.6,0,2.7,0c0.3,0,0.4,0.1,0.4,0.4
			c0,0.6-0.2,1.2-0.5,1.8h-6.3v11.6c0,1.3,0.3,2.3,1,3c0.6,0.8,1.5,1.1,2.5,1.1c0.9,0,1.9-0.3,2.9-0.9c0.1-0.1,0.2,0.1,0.4,0.4
			s0.3,0.5,0.2,0.5c-0.5,0.5-1.2,1-2.2,1.5c-1,0.5-2,0.7-3,0.7c-1.6,0-2.9-0.5-4-1.6c-1.1-1-1.6-2.5-1.6-4.5V201.1z"/>
	</g>
</g>
<g>
	<g class="st1">
		<path class="st2" d="M-135.9,411.1c1.4,0,2.9,0.2,4.4,0.6c1.5,0.4,3,1.1,4.4,1.9c1.4,0.9,2.6,2.1,3.6,3.6c0.9,1.6,1.4,3.4,1.4,5.5
			c0,1.8-0.7,3.7-2,5.6c-1.3,2-3.2,3.5-5.5,4.5c-0.4,0.2-0.6,0.4-0.4,0.6c2.1,4.5,4.6,8.2,7.3,11.2c4.1,4.5,7.4,6.7,9.9,6.7
			c0.1,0.3,0.2,0.6,0.2,0.9c0,0.4-0.1,0.7-0.2,1c-0.5,0.1-1,0.2-1.7,0.2c-6,0-11.1-3.1-15.5-9.2c-0.7-0.9-1.5-2.1-2.3-3.3
			c-0.9-1.3-1.5-2.2-1.9-2.8c-0.4-0.6-0.9-1.2-1.4-1.9c-0.5-0.7-1-1.2-1.4-1.5c-0.4-0.3-0.8-0.6-1.3-0.8c-0.5-0.2-1.3-0.3-2.4-0.3
			c-0.3,0-0.6,0-0.8,0c-0.2,0-0.3,0.1-0.5,0.3c-0.2,0.2-0.3,0.4-0.3,0.8v9.4c0,2.8,0.2,4.7,0.5,5.5c0.2,0.6,1,1,2.3,1.3
			c1.3,0.3,2.2,0.5,2.8,0.5c0.2,0,0.3,0.3,0.3,0.9c0,0.4,0,0.7-0.1,1c-4.3-0.2-7-0.3-8.3-0.3l-7.8,0.3c-0.1-0.1-0.2-0.5-0.2-1.1
			c0-0.6,0.1-0.8,0.2-0.8c0.6,0,1.4-0.1,2.5-0.4c1.1-0.3,1.7-0.6,1.9-1c0.3-0.5,0.4-2.5,0.4-6V420c0-2.5-0.1-4.3-0.4-5.5
			c-0.1-0.3-0.8-0.7-1.9-1c-1.1-0.3-2-0.4-2.5-0.4c-0.2,0-0.3-0.3-0.3-0.8c0-0.6,0.1-0.9,0.3-1.1l7.7,0.1c1.3,0,2.8,0,4.5-0.1
			C-138.6,411.2-137.1,411.1-135.9,411.1z M-136.9,414c-1.9,0-3.4,0.1-4.5,0.4c-0.2,0-0.3,0.2-0.4,0.5c-0.1,0.3-0.2,0.9-0.3,1.9
			c-0.1,1-0.1,2.5-0.1,4.6v7.7c0,1.2,1.8,1.8,5.5,1.8h1.6c1.5,0,3-0.7,4.6-2.2c1.6-1.5,2.4-3.5,2.4-5.9
			C-128,416.9-130.9,414-136.9,414z"/>
		<path class="st2" d="M-98.1,425.4c2,0,3.7,0.4,5.2,1.1c1.5,0.7,2.6,1.7,3.4,2.9c0.8,1.2,1.4,2.4,1.7,3.6c0.4,1.2,0.5,2.4,0.5,3.6
			c0,0.9-0.1,1.4-0.4,1.6c-0.3,0.2-0.7,0.3-1.5,0.3h-16.1c-0.3,0-0.5,0.1-0.5,0.3c0,2.7,0.8,5.1,2.4,7.4c1.6,2.3,4,3.4,7,3.4
			c0.9,0,1.7-0.1,2.6-0.3c0.8-0.2,1.5-0.4,2.1-0.6c0.6-0.2,1.1-0.5,1.5-0.7c0.4-0.2,0.8-0.5,1.1-0.7l0.4-0.3c0.3,0,0.4,0.3,0.4,0.8
			c0,0.3-0.1,0.7-0.4,1.1c-0.9,1.2-2.1,2.3-3.8,3.2c-1.7,1-3.5,1.4-5.4,1.4c-3.5,0-6.6-1.3-9.1-4c-2.5-2.7-3.8-5.9-3.8-9.7
			c0-4.5,1.2-8,3.6-10.6C-104.7,426.7-101.7,425.4-98.1,425.4z M-98.7,427.8c-2.2,0-3.9,0.9-5.1,2.8c-1.2,1.9-1.8,3.5-1.8,4.7
			c0,0.3,0.1,0.4,0.4,0.4h12.4c0.2,0,0.3-0.2,0.3-0.6c0-1.4-0.6-2.9-1.7-4.7C-95.3,428.7-96.8,427.8-98.7,427.8z"/>
		<path class="st2" d="M-65.1,425.3c3,0,5.1,1.1,6.2,3.2c1.2,2.1,1.8,5.6,1.8,10.3v5.8c0,2.5,0.2,4.4,0.5,5.7
			c0.1,0.3,0.6,0.6,1.7,0.9c1,0.3,1.7,0.4,2.2,0.4c0.1,0,0.2,0.3,0.3,0.8c0,0.5,0,0.9-0.1,1.1c-4.3-0.2-6.5-0.3-6.8-0.3
			c-0.1,0-2.3,0.1-6.7,0.3c-0.2-0.2-0.3-0.5-0.3-1.1c0-0.5,0.1-0.8,0.3-0.8c0.5,0,1.2-0.1,2.1-0.4c0.9-0.3,1.4-0.6,1.5-0.9
			c0.3-1.2,0.4-2.7,0.4-4.5v-6.4c0-4-0.5-6.7-1.5-8.1c-1-1.4-2.7-2.2-5-2.2c-1.4,0-2.7,0.5-3.9,1.5c-1.3,1-1.9,1.9-1.9,2.7v11.2
			c0,2.5,0.2,4.4,0.5,5.7c0.1,0.3,0.6,0.6,1.7,0.9c1,0.3,1.7,0.4,2.2,0.4c0.1,0,0.2,0.3,0.3,0.8c0,0.5,0,0.9-0.1,1.1
			c-4.3-0.2-6.5-0.3-6.8-0.3c-0.3,0-2.6,0.1-7,0.3c-0.2-0.2-0.3-0.5-0.3-1.1c0-0.5,0.1-0.8,0.3-0.8c0.5,0,1.3-0.1,2.3-0.4
			c1-0.3,1.5-0.6,1.6-0.9c0.3-1.2,0.4-2.7,0.4-4.5v-12.1c0-1.7-0.3-2.8-0.9-3.4c-0.4-0.5-0.9-0.9-1.6-1.1c-0.6-0.2-1.1-0.3-1.5-0.3
			c-0.4,0-0.6,0-0.6-0.1c0-1,0.1-1.6,0.4-1.6c4.5-0.7,7.4-1.2,8.8-1.7c0,0,0.1,0,0.3-0.1c0.2,0,0.3,0.2,0.3,0.5c0,0.4,0,0.6,0,0.8
			c-0.2,1.2-0.3,2-0.3,2.6c0,0.2,0,0.3,0.1,0.3c0,0,0.1,0,0.2-0.1c1-1,2.3-2,4-2.9C-68.3,425.8-66.7,425.3-65.1,425.3z"/>
		<path class="st2" d="M-34.9,425.4c3.8,0,7.1,1.4,9.8,4.1c2.7,2.8,4.1,6.1,4.1,9.9c0,3.9-1.3,7.3-4,10c-2.7,2.8-5.9,4.2-9.8,4.2
			c-3.9,0-7.2-1.4-9.9-4.2c-2.7-2.8-4.1-6.1-4.1-10c0-4,1.3-7.3,4-10S-38.8,425.4-34.9,425.4z M-35.6,427.9c-2.3,0-4.1,1-5.5,3.1
			c-1.4,2.1-2.1,4.6-2.1,7.6c0,3.5,0.9,6.5,2.7,9c1.8,2.5,3.9,3.7,6.3,3.7c2.3,0,4.1-1.1,5.5-3.2c1.4-2.1,2.2-4.7,2.2-7.7
			c0-3.4-0.9-6.4-2.7-8.8C-31,429.1-33.1,427.9-35.6,427.9z"/>
		<path class="st2" d="M9.2,431.5v12.8c0,1.8,0.1,3.4,0.4,4.8c0.1,0.3,0.3,0.5,0.7,0.7s0.8,0.3,1.2,0.3c0.4,0,0.8,0.1,1.3,0.1
			l0.6,0.1c0.1,0,0.2,0.3,0.2,0.7c0,0.1-0.1,0.3-0.2,0.6c-0.1,0.3-0.2,0.4-0.4,0.4c-0.6,0-1.4,0.1-2.1,0.3c-0.8,0.1-1.5,0.3-2.2,0.4
			c-0.7,0.2-1.3,0.3-1.9,0.5c-0.6,0.2-1.1,0.3-1.4,0.4l-0.6,0.1c-0.3,0-0.5-0.3-0.5-1v-3.3l-0.1-0.3c-2.8,3-5.6,4.5-8.4,4.5
			c-1.6,0-2.9-0.4-4-1.2c-1.1-0.8-2-1.8-2.5-3.1c-0.5-1.3-0.9-2.5-1.1-3.8s-0.3-2.5-0.3-3.8v-8c0-1.7-0.3-2.8-0.9-3.4
			c-0.4-0.5-0.9-0.9-1.6-1.1c-0.6-0.2-1.1-0.3-1.5-0.3c-0.4,0-0.6,0-0.6-0.1c0-1,0.1-1.6,0.4-1.6c4.5-0.7,7.4-1.2,8.8-1.7
			c0,0,0.1,0,0.3-0.1c0.2,0,0.3,0.2,0.3,0.5c0,0.4,0,0.6,0,0.8c-0.3,2-0.4,3.6-0.4,4.7v8.6c0,3.3,0.5,5.7,1.5,7.2
			c1,1.6,2.6,2.3,4.8,2.3c1.3,0,2.5-0.5,3.6-1.5c1.1-1,1.7-1.9,1.7-2.6v-11.9c0-1.7-0.3-2.8-0.9-3.4c-0.4-0.5-0.9-0.9-1.6-1.1
			c-0.6-0.2-1.1-0.3-1.5-0.3c-0.4,0-0.6,0-0.6-0.1c0-1,0.1-1.6,0.4-1.6c4.5-0.7,7.4-1.2,8.8-1.7c0,0,0.1,0,0.3-0.1
			c0.2,0,0.3,0.2,0.3,0.5c0,0.4,0,0.6,0,0.8C9.3,428.9,9.2,430.5,9.2,431.5z"/>
		<path class="st2" d="M38.9,429.4c0-1.4-1.5-2-4.6-2c-0.2,0-0.3-0.3-0.3-0.8c0-0.5,0.1-0.9,0.3-1.1c0.5,0,1.3,0.1,2.6,0.2
			c1.3,0.1,2.4,0.1,3.4,0.1l6.4-0.3c0.1,0.3,0.1,0.6,0.1,1c0,0.6-0.1,0.9-0.4,0.9c-0.6,0-1.4,0.2-2.4,0.5c-1,0.3-1.6,0.9-2,1.7
			l-10.1,22.9c-0.1,0.3-0.3,0.6-0.8,1c-0.4,0.3-0.8,0.5-1.1,0.5c-0.3,0-0.5-0.1-0.6-0.3c-0.7-1.6-2.3-5.2-4.8-11s-4.6-10.4-6.4-14
			c-0.4-0.8-1.7-1.3-3.8-1.3c-0.2,0-0.3-0.3-0.3-0.8c0-0.5,0.1-0.8,0.3-1c4.4,0.2,6.6,0.3,6.6,0.3l6.4-0.3c0.1,0.2,0.1,0.5,0,1.1
			c-0.1,0.5-0.2,0.8-0.3,0.8c-2.1,0-3.1,0.4-3.1,1.1c0,0.1,0,0.2,0.1,0.3l7.7,17.3l6.4-14.7C38.7,430.6,38.9,429.9,38.9,429.4z"/>
		<path class="st2" d="M60.9,425.4c2,0,3.7,0.4,5.2,1.1c1.5,0.7,2.6,1.7,3.4,2.9c0.8,1.2,1.4,2.4,1.7,3.6c0.4,1.2,0.5,2.4,0.5,3.6
			c0,0.9-0.1,1.4-0.4,1.6c-0.3,0.2-0.7,0.3-1.5,0.3H53.8c-0.3,0-0.5,0.1-0.5,0.3c0,2.7,0.8,5.1,2.4,7.4c1.6,2.3,4,3.4,7,3.4
			c0.9,0,1.7-0.1,2.6-0.3c0.8-0.2,1.5-0.4,2.1-0.6c0.6-0.2,1.1-0.5,1.5-0.7c0.4-0.2,0.8-0.5,1.1-0.7l0.4-0.3c0.3,0,0.4,0.3,0.4,0.8
			c0,0.3-0.1,0.7-0.4,1.1c-0.9,1.2-2.1,2.3-3.8,3.2c-1.7,1-3.5,1.4-5.4,1.4c-3.5,0-6.6-1.3-9.1-4c-2.5-2.7-3.8-5.9-3.8-9.7
			c0-4.5,1.2-8,3.6-10.6C54.2,426.7,57.2,425.4,60.9,425.4z M60.2,427.8c-2.2,0-3.9,0.9-5.1,2.8c-1.2,1.9-1.8,3.5-1.8,4.7
			c0,0.3,0.1,0.4,0.4,0.4h12.4c0.2,0,0.3-0.2,0.3-0.6c0-1.4-0.6-2.9-1.7-4.7C63.7,428.7,62.1,427.8,60.2,427.8z"/>
		<path class="st2" d="M88.2,425.4c2.3,0,4,0.6,5,1.7c1,1.1,1.5,2.9,1.5,5.5v14.7c0,0.9,0.2,1.6,0.7,2.2c0.5,0.6,1.1,0.9,1.9,0.9
			c0.6,0,1.3-0.3,2.2-0.9c0.2,0,0.3,0.2,0.3,0.5c0,0.6-0.1,1-0.3,1.3c-1.7,1.5-3.2,2.2-4.5,2.2c-1,0-1.9-0.4-2.8-1.2
			c-0.9-0.8-1.5-1.7-1.8-2.6c0,0-0.2,0.1-0.5,0.4c-0.3,0.3-0.6,0.6-1.1,1c-0.5,0.4-1,0.7-1.6,1.1c-0.6,0.4-1.3,0.7-2.2,1
			s-1.7,0.4-2.5,0.4c-2,0-3.6-0.5-4.8-1.6c-1.3-1-1.9-2.6-1.9-4.7c0-0.9,0.2-1.8,0.7-2.6s1-1.5,1.7-2c0.6-0.5,1.5-1.1,2.6-1.6
			c1.1-0.6,2.1-1,2.8-1.2c0.8-0.3,1.8-0.6,3.1-1.1s2.2-0.7,2.7-1c0.4-0.1,0.6-0.4,0.6-1v-4.8c0-1.4-0.4-2.4-1.3-3.2
			c-0.9-0.7-1.9-1.1-3.1-1.1c-1.3,0-2.3,0.4-3.2,1.3c-0.9,0.9-1.3,2-1.3,3.4c0,1.5-0.9,2.2-2.6,2.2c-1.2,0-2-0.4-2.5-1.2
			c0-1.8,1.3-3.6,4-5.5C82.7,426.3,85.5,425.4,88.2,425.4z M82.2,449.1c0.7,0.6,1.7,0.9,2.8,0.9c1.1,0,2.3-0.4,3.3-1.1
			c1.1-0.7,1.6-1.4,1.6-2.1v-6.6c-0.3,0.2-1.2,0.5-2.5,0.9s-2.3,0.8-3.1,1.1c-0.7,0.3-1.5,0.9-2.2,1.6c-0.7,0.7-1.1,1.6-1.1,2.6
			C81.1,447.6,81.5,448.5,82.2,449.1z"/>
		<path class="st2" d="M128,431.5v12.8c0,1.8,0.1,3.4,0.4,4.8c0.1,0.3,0.3,0.5,0.7,0.7s0.8,0.3,1.2,0.3c0.4,0,0.8,0.1,1.3,0.1
			l0.6,0.1c0.1,0,0.2,0.3,0.2,0.7c0,0.1-0.1,0.3-0.2,0.6c-0.1,0.3-0.2,0.4-0.4,0.4c-0.6,0-1.4,0.1-2.1,0.3c-0.8,0.1-1.5,0.3-2.2,0.4
			c-0.7,0.2-1.3,0.3-1.9,0.5c-0.6,0.2-1.1,0.3-1.4,0.4l-0.6,0.1c-0.3,0-0.5-0.3-0.5-1v-3.3l-0.1-0.3c-2.8,3-5.6,4.5-8.4,4.5
			c-1.6,0-2.9-0.4-4-1.2c-1.1-0.8-2-1.8-2.5-3.1c-0.5-1.3-0.9-2.5-1.1-3.8s-0.3-2.5-0.3-3.8v-8c0-1.7-0.3-2.8-0.9-3.4
			c-0.4-0.5-0.9-0.9-1.6-1.1c-0.6-0.2-1.1-0.3-1.5-0.3c-0.4,0-0.6,0-0.6-0.1c0-1,0.1-1.6,0.4-1.6c4.5-0.7,7.4-1.2,8.8-1.7
			c0,0,0.1,0,0.3-0.1c0.2,0,0.3,0.2,0.3,0.5c0,0.4,0,0.6,0,0.8c-0.3,2-0.4,3.6-0.4,4.7v8.6c0,3.3,0.5,5.7,1.5,7.2
			c1,1.6,2.6,2.3,4.8,2.3c1.3,0,2.5-0.5,3.6-1.5c1.1-1,1.7-1.9,1.7-2.6v-11.9c0-1.7-0.3-2.8-0.9-3.4c-0.4-0.5-0.9-0.9-1.6-1.1
			c-0.6-0.2-1.1-0.3-1.5-0.3c-0.4,0-0.6,0-0.6-0.1c0-1,0.1-1.6,0.4-1.6c4.5-0.7,7.4-1.2,8.8-1.7c0,0,0.1,0,0.3-0.1
			c0.2,0,0.3,0.2,0.3,0.5c0,0.4,0,0.6,0,0.8C128.1,428.9,128,430.5,128,431.5z"/>
	</g>
</g>
<g class="st1">
	<path d="M-194.2,508.9c1.3,0,2.3,0.3,2.9,1c0.6,0.6,0.9,1.7,0.9,3.1v8.3c0,0.5,0.1,0.9,0.4,1.3c0.3,0.3,0.6,0.5,1.1,0.5
		c0.3,0,0.8-0.2,1.3-0.5c0.1,0,0.1,0.1,0.1,0.3c0,0.3-0.1,0.6-0.2,0.8c-1,0.8-1.8,1.3-2.5,1.3c-0.6,0-1.1-0.2-1.6-0.7
		c-0.5-0.5-0.9-0.9-1-1.4c0,0-0.1,0.1-0.3,0.2c-0.2,0.2-0.4,0.3-0.6,0.5c-0.3,0.2-0.6,0.4-0.9,0.6c-0.3,0.2-0.8,0.4-1.2,0.5
		s-0.9,0.2-1.4,0.2c-1.1,0-2-0.3-2.7-0.9c-0.7-0.6-1.1-1.5-1.1-2.7c0-0.5,0.1-1,0.4-1.5c0.3-0.5,0.6-0.9,0.9-1.2
		c0.4-0.3,0.9-0.6,1.5-0.9c0.6-0.3,1.2-0.5,1.6-0.7c0.4-0.2,1-0.4,1.8-0.6c0.7-0.2,1.2-0.4,1.5-0.5c0.2-0.1,0.3-0.3,0.3-0.5v-2.7
		c0-0.8-0.2-1.4-0.7-1.8c-0.5-0.4-1.1-0.6-1.7-0.6c-0.7,0-1.3,0.2-1.8,0.7c-0.5,0.5-0.7,1.1-0.7,1.9c0,0.8-0.5,1.3-1.5,1.3
		c-0.7,0-1.1-0.2-1.4-0.7c0-1,0.8-2.1,2.3-3.1C-197.3,509.5-195.8,508.9-194.2,508.9z M-197.6,522.4c0.4,0.3,0.9,0.5,1.6,0.5
		s1.3-0.2,1.9-0.6c0.6-0.4,0.9-0.8,0.9-1.2v-3.7c-0.2,0.1-0.7,0.3-1.4,0.5c-0.7,0.2-1.3,0.5-1.8,0.6c-0.4,0.2-0.8,0.5-1.2,0.9
		c-0.4,0.4-0.6,0.9-0.6,1.5C-198.2,521.5-198,522-197.6,522.4z"/>
	<path d="M-175.1,508.9c2.3,0,4.1,0.8,5.4,2.4c1.3,1.6,2,3.3,2,5c0,2.3-0.8,4.3-2.5,6s-3.6,2.6-5.6,2.6c-0.9,0-1.7-0.1-2.5-0.2
		c-0.8-0.2-1.3-0.2-1.4-0.2c-0.2,0-0.5,0.1-0.8,0.2c-0.3,0.1-0.5,0.2-0.6,0.2c-0.1,0-0.2,0-0.5-0.1c-0.2-0.1-0.3-0.2-0.3-0.3
		c0,0,0-0.2,0.1-0.6c0.1-0.4,0.1-0.9,0.2-1.6s0.1-1.5,0.1-2.4v-15c0-0.8-0.1-1.6-0.2-2.3c-0.1-0.4-0.7-0.6-1.8-0.6h-0.3
		c-0.1,0-0.2-0.1-0.2-0.4c0-0.4,0.1-0.6,0.2-0.6c0.7-0.1,1.4-0.2,2-0.3c0.6-0.1,1.1-0.2,1.4-0.4c0.3-0.1,0.6-0.2,0.9-0.3
		c0.2-0.1,0.4-0.2,0.5-0.3l0.1-0.1h0.1c0.1,0,0.2,0.1,0.3,0.2c0.1,0.1,0.2,0.3,0.2,0.4c-0.3,0.8-0.4,1.8-0.4,3.1v6.3
		c0,0.3,0,0.4,0.1,0.4c0,0,0.1,0,0.1,0c0.3-0.2,0.9-0.5,1.6-0.8C-176.3,509-175.6,508.9-175.1,508.9z M-176.3,510.6
		c-0.7,0-1.3,0.2-1.7,0.6c-0.5,0.4-0.7,0.9-0.7,1.6v8.4c0,0.7,0.4,1.3,1.1,1.6c0.7,0.3,1.5,0.5,2.5,0.5c1.4,0,2.4-0.7,3.2-2
		s1.2-2.8,1.2-4.4c0-1.9-0.5-3.4-1.5-4.6C-173.3,511.2-174.6,510.6-176.3,510.6z"/>
	<path d="M-155,508.9c2.6,0,4.5,0.6,5.5,1.8c0,1.6-0.4,2.4-1.3,2.4c-0.4,0-0.7-0.1-0.9-0.3c-0.2-0.2-0.5-0.5-0.8-1
		c-0.7-1.1-1.6-1.7-2.7-1.7c-1,0-1.9,0.5-2.7,1.4c-0.8,0.9-1.2,2.3-1.2,4.2c0,1.9,0.5,3.5,1.4,4.8c1,1.3,2.3,1.9,4,1.9
		c0.5,0,1,0,1.4-0.1c0.5-0.1,0.8-0.2,1.2-0.3c0.3-0.1,0.6-0.3,0.8-0.4c0.2-0.1,0.4-0.3,0.6-0.4l0.3-0.2c0.1,0,0.2,0.2,0.2,0.5
		c0,0.2-0.1,0.4-0.2,0.7c-0.5,0.7-1.2,1.3-2.1,1.8c-0.9,0.5-2,0.8-3.1,0.8c-2,0-3.7-0.8-5.1-2.3c-1.4-1.5-2.2-3.3-2.2-5.5
		c0-2.2,0.6-4.1,1.8-5.8C-159,509.8-157.3,508.9-155,508.9z"/>
	<path d="M-136.3,508.8c1,0,1.9,0.2,2.7,0.6c0.2,0,0.3-0.2,0.3-0.7v-3.9c0-0.8-0.1-1.6-0.2-2.3c-0.1-0.4-0.7-0.6-1.8-0.6h-0.3
		c-0.1,0-0.2-0.1-0.2-0.4c0-0.4,0.1-0.6,0.2-0.6c0.7-0.1,1.4-0.2,2-0.3c0.6-0.1,1.1-0.2,1.4-0.4c0.3-0.1,0.6-0.2,0.9-0.3
		c0.2-0.1,0.4-0.2,0.5-0.3l0.1-0.1h0.1c0.1,0,0.2,0.1,0.3,0.2c0.1,0.1,0.2,0.3,0.2,0.4c-0.3,0.8-0.4,1.8-0.4,3.1v16.3
		c0,1.2,0.1,2.1,0.2,2.7c0,0.2,0.2,0.3,0.4,0.4c0.2,0.1,0.4,0.2,0.7,0.2c0.2,0,0.5,0,0.7,0l0.3,0c0.1,0,0.1,0.2,0.1,0.4
		c0,0.4-0.1,0.5-0.2,0.5c-0.4,0-0.8,0.1-1.2,0.1c-0.4,0.1-0.9,0.2-1.3,0.2c-0.4,0.1-0.8,0.2-1.1,0.3c-0.3,0.1-0.6,0.2-0.8,0.2
		l-0.3,0.1c-0.1,0-0.2-0.2-0.2-0.6v-0.4c0-0.1,0-0.2-0.1-0.1c-1.3,0.7-2.6,1.1-3.8,1.1c-2,0-3.7-0.7-5-2.1c-1.3-1.4-2-3.1-2-5.1
		c0-2.3,0.8-4.4,2.5-6.2C-140.2,509.7-138.3,508.8-136.3,508.8z M-136.7,510.3c-1.4,0-2.5,0.6-3.3,1.9c-0.8,1.3-1.2,2.7-1.2,4.4
		c0,1.8,0.5,3.3,1.4,4.6c0.9,1.3,2.2,1.9,3.9,1.9c0.8,0,1.5-0.2,1.9-0.6c0.5-0.4,0.7-0.9,0.7-1.5v-8.6c0-0.5-0.3-1-0.8-1.4
		C-134.7,510.5-135.5,510.3-136.7,510.3z"/>
	<path d="M-116.3,508.9c1.1,0,2.1,0.2,2.9,0.6c0.8,0.4,1.5,1,1.9,1.6c0.4,0.7,0.8,1.3,1,2c0.2,0.7,0.3,1.4,0.3,2
		c0,0.5-0.1,0.8-0.2,0.9c-0.1,0.1-0.4,0.2-0.8,0.2h-9.1c-0.2,0-0.3,0.1-0.3,0.2c0,1.5,0.5,2.9,1.4,4.2c0.9,1.3,2.2,1.9,4,1.9
		c0.5,0,1,0,1.4-0.1c0.5-0.1,0.8-0.2,1.2-0.3c0.3-0.1,0.6-0.3,0.8-0.4c0.2-0.1,0.4-0.3,0.6-0.4l0.3-0.2c0.1,0,0.2,0.2,0.2,0.5
		c0,0.2-0.1,0.4-0.2,0.7c-0.5,0.7-1.2,1.3-2.1,1.8c-0.9,0.5-2,0.8-3.1,0.8c-2,0-3.7-0.8-5.1-2.3c-1.4-1.5-2.1-3.3-2.1-5.5
		c0-2.5,0.7-4.5,2-6C-120,509.7-118.3,508.9-116.3,508.9z M-116.6,510.3c-1.3,0-2.2,0.5-2.9,1.6c-0.7,1.1-1,2-1,2.7
		c0,0.2,0.1,0.3,0.2,0.3h7c0.1,0,0.2-0.1,0.2-0.4c0-0.8-0.3-1.7-1-2.7C-114.7,510.8-115.5,510.3-116.6,510.3z"/>
	<path d="M-95.5,499.6c1.7,0,2.9,0.5,3.4,1.4c0,1.5-0.4,2.3-1.3,2.3c-0.3,0-0.6-0.2-0.9-0.6c-0.3-0.4-0.6-0.8-1-1.1
		c-0.4-0.4-0.8-0.6-1.4-0.6c-1.1,0-1.9,0.7-2.5,2s-0.9,2.8-0.9,4.6v1.8c0,0.1,0.1,0.2,0.2,0.2h4c0.1,0,0.2,0.1,0.2,0.3
		c0,0.4-0.1,0.9-0.4,1.4h-3.7c-0.1,0-0.2,0.1-0.2,0.2v8.3c0,1.3,0.1,2.4,0.3,3.2c0,0.2,0.3,0.3,0.9,0.5c0.5,0.2,0.9,0.2,1.1,0.2
		c0.1,0,0.1,0.1,0.1,0.4c0,0.3,0,0.5,0,0.6c-2.4-0.1-3.7-0.2-3.9-0.2c-0.1,0-1.3,0.1-3.8,0.2c0,0-0.1-0.2-0.1-0.3c0-0.2,0-0.3,0-0.5
		c0-0.1,0.1-0.2,0.1-0.2c0.3,0,0.7-0.1,1.2-0.2c0.5-0.2,0.8-0.3,0.9-0.5c0.2-0.9,0.4-2,0.4-3.2v-8.3c0-0.2-0.1-0.3-0.2-0.3h-1.9
		c-0.1,0-0.1-0.1-0.1-0.2c0-0.2,0.2-0.5,0.6-0.9c0.4-0.4,0.8-0.6,1.2-0.6h0.2c0.1,0,0.2-0.1,0.2-0.2v-0.5c0-2.5,0.8-4.7,2.3-6.5
		C-98.9,500.5-97.3,499.6-95.5,499.6z"/>
	<path d="M-84.5,509.1c0.9,0,1.9,0.2,3.1,0.5c1.2,0.3,2.1,0.5,2.9,0.5h2.1c0.1,0,0.2,0.3,0.2,0.9c0,0.3-0.1,0.5-0.2,0.5H-79
		c-0.1,0-0.1,0-0.1,0.1l0.4,0.9c0.3,0.6,0.4,1.2,0.4,1.7c0,1.3-0.6,2.5-1.7,3.5c-1.2,1-2.6,1.6-4.3,1.6c-0.8,0-1.4,0-2-0.1
		c-0.3,0.2-0.6,0.5-1,0.9s-0.5,0.8-0.5,1.2c0,0.3,0.1,0.6,0.3,0.8c0.2,0.2,0.5,0.3,0.8,0.4c0.4,0.1,0.7,0.1,1,0.2
		c0.3,0,0.7,0.1,1.2,0.1c0.1,0,0.2,0,0.3,0c3,0,5.1,0.4,6.3,0.9c1.2,0.6,1.8,1.4,1.8,2.5c0,1.9-0.8,3.5-2.3,4.8c-1.6,1.3-3.6,2-6,2
		c-1.7,0-3.2-0.3-4.6-1c-1.4-0.7-2-1.7-2-3c0-1.5,1.2-2.8,3.5-3.8c-0.7-0.1-1.3-0.4-1.8-0.9c-0.6-0.5-0.8-1.1-0.8-1.8
		c0-0.6,0.3-1.3,0.8-2c0.5-0.7,1.2-1.2,1.8-1.7c-0.7-0.3-1.4-0.8-2-1.7c-0.6-0.9-0.9-1.8-0.9-2.8c0-1.4,0.6-2.6,1.8-3.6
		C-87.7,509.6-86.2,509.1-84.5,509.1z M-78.7,527.8c0-1-0.5-1.7-1.5-2c-1-0.3-3-0.5-5.9-0.5c0,0-0.1,0-0.2,0.1c0,0-0.1,0.1-0.3,0.2
		c-0.2,0.1-0.3,0.1-0.4,0.2c0,0-0.2,0.1-0.3,0.2c-0.2,0.1-0.3,0.2-0.3,0.2c-0.1,0-0.2,0.1-0.3,0.2c-0.1,0.1-0.2,0.2-0.3,0.3
		c0,0.1-0.1,0.2-0.2,0.3c-0.1,0.1-0.2,0.2-0.2,0.4c0,0.1-0.1,0.3-0.1,0.4c0,0.2-0.1,0.3-0.1,0.5c0,1,0.5,1.9,1.6,2.5
		c1.1,0.6,2.3,1,3.6,1c1.4,0,2.6-0.4,3.6-1.2C-79.1,529.6-78.7,528.8-78.7,527.8z M-87.9,514c0,1.1,0.3,2,1,2.8
		c0.7,0.8,1.5,1.2,2.4,1.2c0.9,0,1.7-0.4,2.3-1.1s0.9-1.6,0.9-2.6c0-1.1-0.3-2-1-2.8c-0.7-0.8-1.5-1.2-2.4-1.2
		c-0.9,0-1.7,0.4-2.3,1.1S-87.9,513-87.9,514z"/>
	<path d="M-60.9,508.9c1.6,0,2.8,0.6,3.5,1.7c0.7,1.2,1,2.9,1,5.3v3.9c0,1.4,0.1,2.4,0.3,3.2c0,0.2,0.4,0.3,0.9,0.5
		c0.6,0.2,1,0.2,1.2,0.2c0.1,0,0.1,0.1,0.1,0.4c0,0.3,0,0.5,0,0.6c-2.4-0.1-3.7-0.2-3.9-0.2c-0.1,0-1.3,0.1-3.8,0.2
		c-0.1-0.1-0.1-0.3-0.1-0.6c0-0.3,0-0.5,0.1-0.5c0.3,0,0.7-0.1,1.2-0.2c0.5-0.2,0.8-0.3,0.8-0.5c0.2-0.7,0.3-1.5,0.3-2.5v-3.8
		c0-2.2-0.3-3.7-0.9-4.5c-0.6-0.8-1.6-1.1-2.8-1.1c-0.7,0-1.4,0.3-2.2,0.8c-0.7,0.6-1.1,1.1-1.1,1.5v6.4c0,1.4,0.1,2.5,0.3,3.2
		c0,0.2,0.4,0.3,0.9,0.5c0.6,0.2,1,0.2,1.2,0.2c0.1,0,0.1,0.1,0.1,0.4c0,0.3,0,0.5,0,0.6c-2.4-0.1-3.7-0.2-3.9-0.2
		c-0.1,0-1.5,0.1-3.9,0.2c-0.1-0.1-0.1-0.3-0.1-0.6c0-0.3,0-0.5,0.1-0.5c0.3,0,0.7-0.1,1.3-0.2c0.6-0.2,0.9-0.3,0.9-0.5
		c0.2-0.7,0.3-1.5,0.3-2.5v-15.7c0-0.8-0.1-1.6-0.2-2.3c-0.1-0.4-0.7-0.6-1.8-0.6h-0.3c-0.1,0-0.2-0.1-0.2-0.4
		c0-0.4,0.1-0.6,0.2-0.6c0.7-0.1,1.4-0.2,2-0.3c0.6-0.1,1.1-0.2,1.4-0.4c0.3-0.1,0.6-0.2,0.9-0.3c0.2-0.1,0.4-0.2,0.5-0.3l0.2-0.1
		h0.1c0.1,0,0.2,0.1,0.3,0.2c0.1,0.1,0.2,0.3,0.2,0.4c-0.3,0.8-0.4,1.8-0.4,3.1v7.9c0,0.1,0,0.1,0.1,0.1c0,0,0.1,0,0.1-0.1
		c0.5-0.6,1.3-1.1,2.3-1.7C-62.8,509.1-61.8,508.9-60.9,508.9z"/>
	<path d="M-43.5,519.8c0,1.4,0.1,2.5,0.3,3.2c0,0.2,0.4,0.3,0.9,0.5c0.6,0.2,1,0.2,1.2,0.2c0.1,0,0.1,0.1,0.1,0.4c0,0.3,0,0.5,0,0.6
		c-2.4-0.1-3.7-0.2-3.9-0.2c-0.2,0-1.5,0.1-3.9,0.2c-0.1-0.1-0.1-0.3-0.1-0.6c0-0.3,0-0.5,0.1-0.5c0.3,0,0.7-0.1,1.3-0.2
		c0.6-0.2,0.9-0.3,0.9-0.5c0.2-0.7,0.3-1.5,0.3-2.5v-6.8c0-0.9-0.2-1.6-0.5-2c-0.2-0.3-0.5-0.5-0.9-0.6c-0.3-0.1-0.6-0.2-0.9-0.2
		s-0.3,0-0.3-0.1c0-0.6,0.1-0.9,0.2-0.9c2.6-0.4,4.2-0.7,5-0.9l0.1,0c0,0,0.1,0,0.1,0c0.1,0,0.2,0.1,0.2,0.3c0,0.2,0,0.4,0,0.5
		c-0.1,1-0.2,1.8-0.2,2.6V519.8z M-46.5,504.6c-0.3-0.3-0.5-0.8-0.5-1.3s0.2-0.9,0.5-1.3c0.3-0.3,0.8-0.5,1.3-0.5s0.9,0.2,1.3,0.5
		c0.3,0.3,0.5,0.8,0.5,1.3s-0.2,0.9-0.5,1.3c-0.3,0.3-0.8,0.5-1.3,0.5S-46.1,504.9-46.5,504.6z"/>
	<path d="M-34.3,513.7c0-0.9-0.2-1.6-0.5-2c-0.2-0.3-0.5-0.5-0.9-0.6c-0.3-0.1-0.6-0.2-0.9-0.2s-0.3,0-0.3-0.1
		c0-0.6,0.1-0.9,0.2-0.9c2.6-0.4,4.2-0.7,5-0.9c0,0,0.1,0,0.2,0c0.1,0,0.2,0.1,0.2,0.3c0,0.2,0,0.4,0,0.5c-0.1,1-0.2,1.8-0.2,2.6
		v9.9c0,3.1-0.5,5.3-1.4,6.8c-0.6,0.9-1.4,1.8-2.3,2.5s-1.8,1.2-2.5,1.5c-0.2-0.1-0.4-0.3-0.5-0.5c0-0.1,0-0.2,0-0.3l0.4-0.2
		c0.3-0.1,0.6-0.4,1-0.8s0.8-0.8,1.1-1.4c0.4-0.6,0.7-1.5,1-2.7c0.3-1.2,0.4-2.5,0.4-4.1V513.7z M-34.7,504.6
		c-0.3-0.3-0.5-0.8-0.5-1.3s0.2-0.9,0.5-1.3c0.3-0.3,0.8-0.5,1.3-0.5s0.9,0.2,1.3,0.5c0.3,0.3,0.5,0.8,0.5,1.3s-0.2,0.9-0.5,1.3
		c-0.3,0.3-0.8,0.5-1.3,0.5S-34.4,504.9-34.7,504.6z"/>
	<path d="M-11.8,511.4c-0.4,0.2-1.2,0.8-2.3,1.7c-1.2,0.9-2.2,1.8-3,2.7c0.7,0.7,1.6,1.7,2.6,2.8c1,1.1,1.8,2.1,2.5,2.8
		c0.7,0.7,1.1,1.2,1.3,1.4c0.4,0.3,0.9,0.6,1.6,0.8c0.6,0.2,1.1,0.3,1.3,0.3c0.1,0,0.1,0.2,0.1,0.6c0,0.2,0,0.3,0,0.4
		c-2.4-0.1-3.7-0.2-3.9-0.2c0,0-1.3,0.1-3.8,0.2c-0.1-0.1-0.1-0.3-0.1-0.6c0-0.3,0-0.4,0.1-0.4c0.2,0,0.5,0,0.8-0.1
		c0.3-0.1,0.5-0.2,0.5-0.3c0,0,0-0.1,0-0.1l-5.3-5.7l-0.4,0.1v2.2c0,1.6,0.1,2.7,0.3,3.2c0,0.2,0.4,0.3,0.9,0.5
		c0.6,0.2,1,0.2,1.2,0.2c0.1,0,0.1,0.1,0.1,0.4c0,0.3,0,0.5,0,0.6c-2.4-0.1-3.7-0.2-3.9-0.2c-0.1,0-1.5,0.1-3.9,0.2
		c-0.1-0.1-0.1-0.3-0.1-0.6c0-0.3,0-0.5,0.1-0.5c0.3,0,0.7-0.1,1.3-0.2c0.6-0.2,0.9-0.3,0.9-0.5c0.2-0.7,0.3-1.5,0.3-2.5v-15.6
		c0-0.8-0.1-1.6-0.2-2.3c-0.1-0.4-0.7-0.6-1.8-0.6H-25c-0.1,0-0.2-0.1-0.2-0.4c0-0.4,0.1-0.6,0.2-0.6c0.7-0.1,1.4-0.2,2-0.3
		c0.6-0.1,1.1-0.2,1.4-0.4c0.3-0.1,0.6-0.2,0.9-0.3c0.2-0.1,0.4-0.2,0.5-0.3l0.2-0.1h0.1c0.1,0,0.2,0.1,0.3,0.2
		c0.1,0.1,0.2,0.3,0.2,0.4c-0.3,0.8-0.4,1.8-0.4,3.1V516c0.5-0.1,0.8-0.2,0.9-0.3c0.5-0.5,1.1-0.9,1.7-1.4c0.6-0.5,1-0.8,1.3-1.1
		c0.3-0.2,0.6-0.5,0.8-0.7c0.3-0.2,0.4-0.4,0.5-0.6c0.1-0.1,0.1-0.3,0.1-0.4c0-0.3-0.3-0.5-0.8-0.5c-0.5,0-0.8-0.1-0.8-0.1
		c-0.2-0.5-0.2-0.8,0-0.8h2.9c0.4,0,0.7,0,1.1,0c0.4,0,0.9,0,1.4-0.1c0.5,0,1,0,1.4-0.1c0.1,0,0.2,0.2,0.2,0.3c0,0.2,0,0.3-0.1,0.5
		c0,0.1-0.1,0.2-0.1,0.2c-0.3,0-0.8,0.1-1.3,0.2S-11.6,511.3-11.8,511.4z"/>
	<path d="M-1.7,520.5v-15.6c0-0.8-0.1-1.6-0.2-2.3c-0.1-0.4-0.7-0.6-1.8-0.6h-0.3c-0.1,0-0.2-0.1-0.2-0.4c0-0.4,0.1-0.6,0.2-0.6
		c0.7-0.1,1.4-0.2,2-0.3c0.6-0.1,1.1-0.2,1.4-0.4c0.3-0.1,0.6-0.2,0.9-0.3c0.2-0.1,0.4-0.2,0.5-0.3l0.1-0.1H1c0.1,0,0.2,0.1,0.3,0.2
		c0.1,0.1,0.2,0.3,0.2,0.4c-0.3,0.8-0.4,1.8-0.4,3.1v16.5c0,1.4,0.1,2.5,0.3,3.2c0,0.2,0.4,0.3,0.9,0.5c0.6,0.2,1,0.2,1.2,0.2
		c0.1,0,0.1,0.1,0.1,0.4s0,0.5,0,0.6c-2.4-0.1-3.7-0.2-3.9-0.2c-0.1,0-1.5,0.1-3.9,0.2c-0.1-0.1-0.1-0.3-0.1-0.6
		c0-0.3,0-0.5,0.1-0.5c0.3,0,0.7-0.1,1.3-0.2c0.6-0.2,0.9-0.3,0.9-0.5C-1.8,522.3-1.7,521.5-1.7,520.5z"/>
	<path d="M18.8,508.9c1,0,1.8,0.3,2.4,0.8c0.6,0.5,1.1,1.1,1.3,1.8c1.8-1.7,3.7-2.6,5.6-2.6c3,0,4.6,2.3,4.6,6.9v4
		c0,1.4,0.1,2.5,0.3,3.2c0,0.2,0.4,0.3,0.9,0.5c0.6,0.2,1,0.2,1.2,0.2c0.1,0,0.1,0.1,0.1,0.4s0,0.5,0,0.6c-2.4-0.1-3.7-0.2-3.9-0.2
		c-0.1,0-1.5,0.1-3.9,0.2c-0.1-0.1-0.1-0.3-0.1-0.6c0-0.3,0-0.5,0.1-0.5c0.3,0,0.7-0.1,1.3-0.2c0.6-0.2,0.9-0.3,0.9-0.5
		c0.2-0.7,0.3-1.5,0.3-2.3v-4.1c0-3.7-1.2-5.6-3.6-5.6c-0.9,0-1.7,0.3-2.3,0.8c-0.7,0.5-1,0.9-1,1.3l0,0.1c0,0.1,0,0.2,0,0.2
		c0.1,0.6,0.1,1.5,0.1,2.6v4.1c0,1.2,0.1,2.1,0.3,2.9c0,0.2,0.4,0.3,0.9,0.5c0.6,0.2,1,0.2,1.2,0.2c0.1,0,0.1,0.1,0.1,0.4
		s0,0.5,0,0.6c-2.4-0.1-3.7-0.2-3.9-0.2c-0.1,0-1.5,0.1-3.9,0.2c-0.1-0.1-0.1-0.3-0.1-0.6c0-0.3,0-0.5,0.1-0.5
		c0.3,0,0.7-0.1,1.3-0.2c0.6-0.2,0.9-0.3,0.9-0.5c0.2-0.7,0.3-1.5,0.3-2.5v-3.7c0-3.8-1.2-5.7-3.5-5.7c-0.7,0-1.5,0.3-2.2,0.8
		c-0.7,0.5-1.1,1.1-1.1,1.6v6.4c0,1.4,0.1,2.5,0.3,3.2c0,0.2,0.4,0.3,0.9,0.5c0.6,0.2,1,0.2,1.2,0.2c0.1,0,0.1,0.1,0.1,0.4
		s0,0.5,0,0.6c-2.4-0.1-3.7-0.2-3.9-0.2c-0.1,0-1.5,0.1-3.9,0.2c-0.1-0.1-0.1-0.3-0.1-0.6c0-0.3,0-0.5,0.1-0.5
		c0.3,0,0.7-0.1,1.3-0.2c0.6-0.2,0.9-0.3,0.9-0.5c0.2-0.7,0.3-1.5,0.3-2.5v-6.8c0-0.9-0.2-1.6-0.5-2c-0.2-0.3-0.5-0.5-0.9-0.6
		C9.1,511,8.8,511,8.5,511c-0.2,0-0.3,0-0.3-0.1c0-0.6,0.1-0.9,0.2-0.9c2.6-0.4,4.2-0.7,5-0.9c0,0,0.1,0,0.2,0
		c0.1,0,0.2,0.1,0.2,0.3c0,0.2,0,0.4,0,0.5c-0.1,0.7-0.1,1.2-0.1,1.4c0,0.1,0,0.1,0.1,0.1c0,0,0.1,0,0.1-0.1
		c0.6-0.6,1.3-1.1,2.3-1.6C17,509.1,17.9,508.9,18.8,508.9z"/>
</g>
<g class="st1">
	<path d="M-191,553.3c1.7,0,2.9,0.6,3.5,1.8c0.7,1.2,1,3.2,1,5.9v3.3c0,1.4,0.1,2.5,0.3,3.2c0,0.2,0.4,0.3,0.9,0.5
		c0.6,0.2,1,0.2,1.2,0.2c0.1,0,0.1,0.1,0.1,0.4s0,0.5,0,0.6c-2.4-0.1-3.7-0.2-3.9-0.2c0,0-1.3,0.1-3.8,0.2c-0.1-0.1-0.1-0.3-0.1-0.6
		c0-0.3,0-0.5,0.1-0.5c0.3,0,0.7-0.1,1.2-0.2c0.5-0.2,0.8-0.3,0.8-0.5c0.2-0.7,0.3-1.5,0.3-2.5v-3.6c0-2.2-0.3-3.8-0.9-4.6
		c-0.6-0.8-1.5-1.2-2.8-1.2c-0.8,0-1.5,0.3-2.2,0.8c-0.7,0.6-1.1,1.1-1.1,1.5v6.4c0,1.4,0.1,2.5,0.3,3.2c0,0.2,0.4,0.3,0.9,0.5
		c0.6,0.2,1,0.2,1.2,0.2c0.1,0,0.1,0.1,0.1,0.4s0,0.5,0,0.6c-2.4-0.1-3.7-0.2-3.9-0.2c-0.1,0-1.5,0.1-3.9,0.2
		c-0.1-0.1-0.1-0.3-0.1-0.6c0-0.3,0-0.5,0.1-0.5c0.3,0,0.7-0.1,1.3-0.2c0.6-0.2,0.9-0.3,0.9-0.5c0.2-0.7,0.3-1.5,0.3-2.5v-6.8
		c0-0.9-0.2-1.6-0.5-2c-0.2-0.3-0.5-0.5-0.9-0.6c-0.3-0.1-0.6-0.2-0.9-0.2c-0.2,0-0.3,0-0.3-0.1c0-0.6,0.1-0.9,0.2-0.9
		c2.6-0.4,4.2-0.7,5-0.9c0,0,0.1,0,0.2,0c0.1,0,0.2,0.1,0.2,0.3c0,0.2,0,0.4,0,0.5c-0.1,0.7-0.1,1.2-0.1,1.4c0,0.1,0,0.1,0.1,0.1
		c0,0,0.1,0,0.1-0.1c0.6-0.6,1.3-1.1,2.3-1.6C-192.8,553.5-191.9,553.3-191,553.3z"/>
	<path d="M-170.9,553.3c2.2,0,4,0.8,5.6,2.3c1.5,1.6,2.3,3.4,2.3,5.6c0,2.2-0.8,4.1-2.3,5.7c-1.5,1.6-3.4,2.4-5.5,2.4
		s-4.1-0.8-5.6-2.4c-1.5-1.6-2.3-3.5-2.3-5.7c0-2.2,0.7-4.1,2.2-5.7C-175,554.1-173.1,553.3-170.9,553.3z M-171.2,554.7
		c-1.3,0-2.3,0.6-3.1,1.8c-0.8,1.2-1.2,2.6-1.2,4.3c0,2,0.5,3.7,1.5,5.1c1,1.4,2.2,2.1,3.6,2.1c1.3,0,2.3-0.6,3.1-1.8
		c0.8-1.2,1.2-2.6,1.2-4.3c0-2-0.5-3.6-1.6-5C-168.7,555.4-169.9,554.7-171.2,554.7z"/>
	<path d="M-148.9,553.3c2.3,0,4.1,0.8,5.4,2.3c1.3,1.6,2,3.2,2,5c0,2.3-0.8,4.3-2.4,6.1c-1.6,1.8-3.4,2.6-5.5,2.6c-0.4,0-0.7,0-1,0
		c-0.3,0-0.5-0.1-0.7-0.1c-0.2-0.1-0.4-0.1-0.5-0.2s-0.3-0.1-0.5-0.2c-0.2-0.1-0.3-0.1-0.4-0.2c-0.1,0.1-0.1,0.3-0.1,0.5v3.1
		c0,1.4,0.1,2.5,0.3,3.2c0,0.2,0.4,0.3,0.9,0.5c0.6,0.2,1,0.2,1.2,0.2c0.1,0,0.1,0.2,0.1,0.5c0,0.3,0,0.5,0,0.6
		c-2.4-0.1-3.7-0.2-3.9-0.2c-0.1,0-1.5,0.1-3.9,0.2c-0.1-0.1-0.1-0.3-0.1-0.6c0-0.3,0-0.5,0.1-0.5c0.3,0,0.7-0.1,1.3-0.2
		c0.6-0.2,0.9-0.3,0.9-0.5c0.2-0.7,0.3-1.5,0.3-2.5V558c0-0.9-0.2-1.6-0.5-2c-0.2-0.3-0.5-0.5-0.9-0.6c-0.3-0.1-0.6-0.2-0.9-0.2
		c-0.2,0-0.3,0-0.3-0.1c0-0.6,0.1-0.9,0.2-0.9c2.6-0.4,4.2-0.7,5-0.9c0,0,0.1,0,0.2,0c0.1,0,0.1,0.1,0.1,0.2c0,0.1,0,0.3,0,0.5
		c0,0.2,0,0.3,0,0.3v0.2c0.3-0.2,0.9-0.5,1.7-0.8C-150.1,553.5-149.4,553.3-148.9,553.3z M-150,555.1c-0.7,0-1.4,0.2-1.8,0.6
		c-0.5,0.4-0.7,1-0.7,1.7v8.1c0,0.7,0.3,1.2,1,1.6c0.7,0.4,1.5,0.7,2.3,0.7c1.4,0,2.6-0.6,3.4-1.9c0.8-1.3,1.3-2.7,1.3-4.3
		c0-2-0.5-3.6-1.6-4.8C-147.3,555.7-148.6,555.1-150,555.1z"/>
	<path d="M-127.6,553.2c0.9,0,1.8,0.1,2.6,0.2c0.8,0.1,1.3,0.2,1.4,0.2c0.2,0,0.5,0,0.8-0.1c0.3-0.1,0.5-0.1,0.6-0.1
		c0.1,0,0.2,0,0.4,0.1s0.3,0.2,0.3,0.3c0,0,0,0.2-0.1,0.7c-0.1,0.4-0.2,1-0.3,1.7c-0.1,0.7-0.1,1.6-0.1,2.5v14.2
		c0,1.1,0.1,2,0.3,2.8c0,0.2,0.4,0.3,0.9,0.5c0.6,0.2,1,0.2,1.2,0.2c0.1,0,0.1,0.1,0.1,0.4s0,0.5,0,0.6c-2.4-0.1-3.7-0.2-3.9-0.2
		c-0.1,0-1.5,0.1-3.9,0.2c-0.1-0.1-0.1-0.3-0.1-0.6c0-0.3,0-0.5,0.1-0.5c0.3,0,0.7-0.1,1.3-0.2c0.6-0.2,0.9-0.3,0.9-0.5
		c0.2-0.7,0.3-1.5,0.3-2.5v-4.5c0-0.1,0-0.2-0.1-0.3c0-0.1-0.1-0.1-0.2-0.1c-1.4,0.7-2.6,1.1-3.5,1.1c-2.1,0-3.8-0.8-5.2-2.3
		c-1.4-1.5-2.1-3.3-2.1-5.2c0-2.1,0.8-4.1,2.5-5.9C-131.6,554.1-129.7,553.2-127.6,553.2z M-128.2,554.7c-1.1,0-1.9,0.4-2.7,1.1
		c-0.7,0.7-1.2,1.6-1.4,2.4c-0.3,0.9-0.4,1.8-0.4,2.7c0,2.1,0.5,3.8,1.6,4.9c1.1,1.1,2.3,1.7,3.9,1.7c0.6,0,1.1-0.2,1.6-0.5
		c0.5-0.3,0.8-0.9,0.8-1.7v-8.4c0-0.7-0.3-1.2-0.9-1.6C-126.3,554.9-127.1,554.7-128.2,554.7z"/>
	<path d="M-105.9,553.3c1.4,0,2.4,0.3,2.8,1c0,0.8-0.1,1.5-0.4,1.8c-0.3,0.4-0.6,0.6-1,0.6c-0.4,0-0.8-0.2-1.2-0.6
		c-0.4-0.4-0.9-0.6-1.5-0.6c-0.7,0-1.4,0.3-2,1c-0.6,0.7-0.8,1.4-0.8,2.2v5.4c0,1.4,0.1,2.5,0.3,3.2c0,0.2,0.4,0.3,1,0.5
		c0.6,0.2,1,0.2,1.2,0.2c0.1,0,0.1,0.1,0.1,0.4c0,0.3,0,0.5,0,0.6c-2.4-0.1-3.7-0.2-3.9-0.2c-0.1,0-1.5,0.1-3.9,0.2
		c-0.1-0.1-0.1-0.3-0.1-0.6c0-0.3,0-0.5,0.1-0.5c0.3,0,0.7-0.1,1.3-0.2c0.6-0.2,0.9-0.3,0.9-0.5c0.2-0.7,0.3-1.5,0.3-2.5v-6.8
		c0-0.9-0.2-1.6-0.5-2c-0.2-0.3-0.5-0.5-0.9-0.6c-0.3-0.1-0.6-0.2-0.9-0.2s-0.3,0-0.3-0.1c0-0.6,0.1-0.9,0.2-0.9
		c2.6-0.4,4.2-0.7,5-0.9c0,0,0.1,0,0.2,0c0.1,0,0.2,0.1,0.2,0.3c0,0.2,0,0.4,0,0.5l-0.2,1.8c0.4-0.7,1-1.3,1.8-1.8
		C-107.4,553.6-106.6,553.3-105.9,553.3z"/>
	<path d="M-92.8,553.3c0.5,0,1.2,0.1,2,0.2c0.8,0.1,1.4,0.2,1.7,0.3c0.2,1.1,0.4,2.3,0.4,3.7c0,0.1-0.2,0.2-0.5,0.2
		c-0.3,0-0.5-0.1-0.5-0.3c-0.1-0.7-0.5-1.3-1-1.9c-0.6-0.6-1.2-0.9-1.9-0.9c-1.7,0-2.6,0.7-2.6,2.1c0,0.4,0,0.7,0.1,1
		c0.1,0.3,0.3,0.5,0.6,0.8c0.3,0.3,0.5,0.4,0.6,0.5c0.1,0.1,0.5,0.3,1,0.6c0.5,0.3,0.8,0.5,0.9,0.5c0.1,0,0.4,0.2,0.8,0.5
		c0.5,0.3,0.8,0.5,1,0.6c0.2,0.1,0.5,0.3,0.8,0.6s0.6,0.5,0.8,0.8c0.2,0.2,0.3,0.5,0.5,0.9c0.2,0.3,0.2,0.7,0.2,1.1
		c0,1.4-0.6,2.6-1.7,3.6c-1.1,1-2.4,1.4-3.9,1.4c-0.5,0-1,0-1.4-0.1c-0.4-0.1-0.9-0.2-1.5-0.3s-1-0.2-1.3-0.3
		c-0.1-0.4-0.3-1-0.4-1.8c-0.1-0.8-0.2-1.5-0.2-2c0.2-0.1,0.3-0.2,0.4-0.2c0.4,0,0.6,0.1,0.6,0.2c0.1,0.7,0.6,1.4,1.4,2.1
		c0.8,0.7,1.6,1,2.5,1c0.8,0,1.4-0.2,1.9-0.6c0.5-0.4,0.7-1,0.7-1.8c0-0.4-0.1-0.8-0.2-1.1c-0.2-0.3-0.4-0.7-0.8-0.9
		c-0.3-0.3-0.7-0.5-1-0.7c-0.3-0.2-0.7-0.4-1.3-0.7c-0.6-0.3-1-0.5-1.2-0.7c-1.9-1.1-2.8-2.4-2.8-3.9c0-1.3,0.5-2.4,1.6-3.2
		C-95.5,553.7-94.2,553.3-92.8,553.3z"/>
	<path d="M-80.9,555.6H-83c-0.1,0-0.2-0.3-0.2-0.8c0-0.1,0-0.2,0-0.3c0.7-0.3,1.5-1,2.3-1.9c0.3-0.3,0.5-0.7,0.8-1.1
		c0.3-0.4,0.5-0.7,0.6-1c0.2-0.3,0.3-0.4,0.3-0.5c0.7,0,1.1,0.1,1.1,0.2v3.6c0.6,0,1.6,0,2.9,0c1.3,0,2,0,2,0c0.2,0,0.3,0.1,0.3,0.3
		c0,0.4-0.1,0.9-0.4,1.4h-4.8v8.9c0,1,0.2,1.7,0.7,2.3s1.1,0.9,1.9,0.9c0.7,0,1.5-0.2,2.2-0.7c0.1,0,0.2,0.1,0.3,0.3
		c0.1,0.3,0.2,0.4,0.2,0.4c-0.4,0.4-0.9,0.8-1.7,1.1c-0.7,0.4-1.5,0.6-2.3,0.6c-1.2,0-2.2-0.4-3-1.2s-1.2-1.9-1.2-3.4V555.6z"/>
	<path d="M-53.7,556.8v7.2c0,1,0.1,2,0.3,2.7c0,0.2,0.2,0.3,0.4,0.4c0.2,0.1,0.4,0.2,0.7,0.2c0.2,0,0.5,0,0.7,0l0.3,0
		c0.1,0,0.1,0.2,0.1,0.4c0,0.1,0,0.2-0.1,0.3c-0.1,0.2-0.1,0.2-0.2,0.2c-0.4,0-0.8,0.1-1.2,0.1s-0.9,0.2-1.2,0.3
		c-0.4,0.1-0.7,0.2-1.1,0.3c-0.3,0.1-0.6,0.2-0.8,0.3l-0.3,0.1c-0.2,0-0.3-0.2-0.3-0.6V567l-0.1-0.2c-1.6,1.7-3.2,2.6-4.7,2.6
		c-0.9,0-1.7-0.2-2.3-0.7c-0.6-0.4-1.1-1-1.4-1.8c-0.3-0.7-0.5-1.4-0.6-2.1c-0.1-0.7-0.2-1.4-0.2-2.1v-4.6c0-0.9-0.2-1.6-0.5-2
		c-0.2-0.3-0.5-0.5-0.9-0.6c-0.3-0.1-0.6-0.2-0.9-0.2s-0.3,0-0.3-0.1c0-0.6,0.1-0.9,0.2-0.9c2.6-0.4,4.2-0.7,5-0.9c0,0,0.1,0,0.2,0
		c0.1,0,0.2,0.1,0.2,0.3c0,0.2,0,0.4,0,0.5c-0.1,1.2-0.2,2-0.2,2.7v4.9c0,1.9,0.3,3.2,0.8,4.1c0.6,0.9,1.5,1.3,2.7,1.3
		c0.7,0,1.4-0.3,2.1-0.8c0.7-0.6,1-1.1,1-1.5v-6.8c0-0.9-0.2-1.6-0.5-2c-0.2-0.3-0.5-0.5-0.9-0.6c-0.3-0.1-0.6-0.2-0.9-0.2
		s-0.3,0-0.3-0.1c0-0.6,0.1-0.9,0.2-0.9c2.6-0.4,4.2-0.7,5-0.9c0,0,0.1,0,0.2,0c0.1,0,0.2,0.1,0.2,0.3c0,0.2,0,0.4,0,0.5
		C-53.6,555.3-53.7,556.2-53.7,556.8z"/>
	<path d="M-33.9,555.6c0-0.8-0.9-1.2-2.6-1.2c-0.1,0-0.1-0.2-0.1-0.5c0-0.3,0-0.5,0.1-0.6c0.3,0,0.8,0.1,1.5,0.1
		c0.7,0,1.4,0.1,2,0.1l3.6-0.2c0,0.1,0.1,0.3,0.1,0.5c0,0.3-0.1,0.5-0.3,0.5c-0.3,0-0.8,0.1-1.3,0.3c-0.6,0.2-0.9,0.5-1.1,0.9
		l-5.7,13c0,0.2-0.2,0.3-0.4,0.5c-0.2,0.2-0.4,0.3-0.6,0.3c-0.2,0-0.3,0-0.3-0.1c-0.4-0.9-1.3-3-2.7-6.2s-2.6-5.9-3.6-7.9
		c-0.2-0.5-1-0.7-2.1-0.7c-0.1,0-0.1-0.2-0.1-0.5c0-0.3,0-0.5,0.1-0.6c2.5,0.1,3.7,0.2,3.8,0.2l3.6-0.2c0,0.1,0.1,0.3,0,0.6
		c0,0.3-0.1,0.5-0.2,0.5c-1.2,0-1.8,0.2-1.8,0.6c0,0,0,0.1,0,0.1l4.3,9.8l3.6-8.3C-34,556.2-33.9,555.9-33.9,555.6z"/>
	<path d="M-4.4,555.7c0-0.8-0.8-1.3-2.4-1.3H-7c-0.1,0-0.1-0.2-0.1-0.5c0-0.3,0-0.5,0.1-0.6c0.4,0,0.8,0,1.2,0.1
		c0.4,0,0.9,0,1.2,0.1c0.4,0,0.8,0,1.2,0c0.4,0,0.8,0,1.1,0c0.3,0,0.6,0,1-0.1c0.4,0,0.8,0,1.1-0.1c0,0.1,0.1,0.3,0.1,0.5
		c0,0.3-0.1,0.5-0.2,0.5c-0.3,0-0.7,0.1-1.3,0.3c-0.5,0.2-0.9,0.5-1,1l-4.7,12.9c-0.2,0.5-0.5,0.8-1,0.8c-0.2,0-0.4,0-0.4-0.1
		l-4.4-10.6l-3.6,10c0,0.1-0.1,0.2-0.1,0.3c-0.1,0.1-0.2,0.2-0.3,0.3c-0.2,0.1-0.3,0.2-0.5,0.2c-0.2,0-0.4,0-0.4-0.1
		c-0.6-1.3-1.2-2.9-2-4.7c-0.7-1.8-1.4-3.5-2.1-4.9c-0.7-1.5-1.4-3-2.3-4.5c-0.3-0.5-1-0.8-2-0.8c-0.1,0-0.1-0.2-0.1-0.5
		c0-0.3,0-0.5,0.1-0.6c0.4,0,0.8,0,1.2,0.1c0.4,0,0.8,0,1.2,0.1c0.4,0,0.8,0,1.2,0l3.6-0.2c0,0.1,0.1,0.3,0.1,0.6
		c0,0.3-0.1,0.5-0.1,0.5c-1.2,0-1.8,0.3-1.8,0.8c0,0.1,0.2,0.4,0.5,1.1s0.8,1.8,1.6,3.4c0.7,1.6,1.5,3.3,2.3,5
		c0.4-1.2,0.9-2.5,1.4-3.9c0.5-1.4,0.9-2.4,1.1-3c0.2-0.6,0.3-1,0.3-1c0-0.1-0.1-0.3-0.2-0.6c-0.1-0.3-0.2-0.5-0.3-0.7l-0.2-0.3
		c-0.1-0.2-0.4-0.4-0.7-0.5c-0.2-0.1-0.6-0.2-1.2-0.2c-0.1,0-0.1-0.2-0.1-0.5c0-0.3,0-0.5,0.1-0.6c0.4,0,0.8,0,1.2,0.1
		c0.4,0,0.8,0,1.2,0.1c0.3,0,0.7,0,1.2,0c0.4,0,0.8,0,1.1,0c0.3,0,0.8,0,1.2-0.1c0.5,0,0.9,0,1.2-0.1c0,0.1,0.1,0.3,0.1,0.6
		c0,0.3,0,0.4-0.1,0.4c-1.2,0-1.7,0.5-1.7,1.4c0,0.5,1.3,3.5,4,8.9c0.4-1.1,0.8-2.4,1.4-4c0.6-1.6,1-2.7,1.2-3.5
		C-4.6,556.5-4.4,556-4.4,555.7z"/>
	<path d="M3,553.9c0-0.2,0.1-0.4,0.1-0.5c2.3,0.1,3.5,0.2,3.6,0.2c0,0,1.3-0.1,3.8-0.2c0,0.1,0,0.2,0,0.4c0,0.4,0,0.6-0.1,0.6
		c-1,0-1.4,0.2-1.4,0.6c0,0.1,0.1,0.2,0.2,0.4l2.3,3.6c0.2-0.3,0.4-0.6,0.8-1.1c0.3-0.5,0.6-0.9,0.8-1.2c0.2-0.3,0.4-0.6,0.6-1
		c0.2-0.3,0.3-0.6,0.3-0.8c0-0.2-0.1-0.4-0.4-0.5c-0.3-0.1-0.6-0.1-0.9-0.1c-0.3,0-0.5,0-0.6-0.1c-0.1,0-0.1-0.2-0.1-0.6
		c0-0.2,0-0.4,0.1-0.5c2.5,0.1,3.7,0.2,3.8,0.2s1.2-0.1,3.3-0.2c0,0.2,0.1,0.4,0.1,0.5c0,0.4,0,0.5-0.1,0.5
		c-1.6,0.2-2.6,0.6-3.1,1.2l-3.5,4.5c0,0.1-0.1,0.2-0.1,0.3c0,0.1,0,0.3,0.1,0.4l3.9,5.7c0.7,1,1.7,1.5,3,1.6c0.1,0,0.1,0.2,0.1,0.5
		c0,0.2,0,0.4-0.1,0.5c-2.2-0.1-3.4-0.2-3.4-0.2c-0.1,0-1.4,0.1-4,0.2c0-0.2-0.1-0.4-0.1-0.5c0-0.4,0-0.6,0.1-0.6
		c1-0.1,1.5-0.3,1.5-0.7c0,0,0-0.1-0.1-0.2l-2.7-4.3l-2.5,3.7C8,566.9,8,567.2,8,567.4c0,0.4,0.6,0.7,1.8,0.8c0.1,0,0.1,0,0.2,0
		c0.1,0,0.1,0.2,0.1,0.5c0,0.2,0,0.4-0.1,0.5c-2.3-0.1-3.5-0.2-3.6-0.2c0,0-1.2,0.1-3.5,0.2c0-0.2-0.1-0.4-0.1-0.5
		c0-0.4,0-0.5,0.1-0.5c1.6-0.2,2.7-0.7,3.3-1.5l3.8-5c0,0,0-0.1,0-0.1c0,0,0-0.1,0-0.1c0,0,0-0.1-0.1-0.2l-3.7-5.5
		c-0.2-0.3-0.7-0.6-1.3-0.9c-0.7-0.3-1.2-0.4-1.6-0.4L3,553.9z"/>
	<path d="M26.6,553.6c0.4,0,0.8,0,1.1,0c0.3,0,0.7,0,1.2-0.1c0.4,0,0.8,0,1.2-0.1c0,0.1,0.1,0.3,0.1,0.5c0,0.3,0,0.5-0.1,0.5
		c-0.2,0-0.5,0.1-1,0.3c-0.4,0.2-0.7,0.3-0.7,0.5v0.1c0,0.4,1.3,3.6,3.9,9.4l2.7-7.9c0.2-0.5,0.3-0.9,0.3-1.1c0-0.4-0.2-0.7-0.6-0.9
		c-0.4-0.2-0.9-0.3-1.5-0.3c-0.1,0-0.1-0.2-0.1-0.5c0-0.3,0-0.5,0.1-0.6c0.3,0,0.8,0.1,1.4,0.1c0.6,0,1.2,0.1,1.8,0.1
		c0.5,0,1.1,0,1.7-0.1c0.6,0,1.1-0.1,1.4-0.1c0,0.1,0.1,0.3,0.1,0.5c0,0.3,0,0.5-0.1,0.5c-0.3,0-0.7,0.1-1.3,0.3s-0.9,0.6-1.1,1
		l-6.5,17.5c-0.6,1.5-1.2,2.5-1.9,3.1c-0.7,0.6-1.3,0.9-1.9,0.9c-0.5,0-0.9-0.2-1.1-0.5c-0.2-0.3-0.4-0.6-0.4-0.9
		c0-0.5,0.2-0.9,0.5-1.2c2,0,3.3-1,4-3.1c0.1-0.4,0.3-0.8,0.4-1.3s0.3-0.9,0.4-1.2l-5.2-12.6c-0.3-0.6-0.5-1-0.7-1.2
		c-0.2-0.2-0.5-0.4-1-0.5c-0.4-0.1-0.8-0.2-1.1-0.2c-0.1,0-0.1-0.2-0.1-0.5c0-0.3,0-0.5,0.1-0.6C25.1,553.5,26.4,553.6,26.6,553.6z"
		/>
	<path d="M46.7,567.4c0,0.2,0.1,0.3,0.4,0.3h4.7c1,0,1.8-0.3,2.2-0.8s0.8-1.2,1.1-2.1c0-0.3,0.1-0.4,0.3-0.4c0.5,0,0.9,0.1,1,0.4
		l-0.8,4.3H43.6c-0.5-0.3-0.7-0.6-0.7-0.8c0-0.1,0-0.1,0-0.1l9.3-12.9l-5.4,0c-0.5,0-0.9,0.1-1.2,0.3c-0.3,0.2-0.5,0.5-0.6,0.7
		c-0.1,0.2-0.2,0.5-0.3,0.9c-0.1,0.4-0.2,0.6-0.2,0.7c-0.1,0.1-0.4,0.2-0.9,0.2c-0.3,0-0.4,0-0.4-0.1c0-0.1,0.1-0.7,0.3-1.7
		c0.2-1,0.3-1.9,0.3-2.7c1.4,0.1,2.6,0.2,3.4,0.2h4.4c1.3,0,2.8-0.1,4.4-0.3c0.1,0.1,0.1,0.4,0.1,0.9L47,566.9
		C46.8,567.1,46.7,567.3,46.7,567.4z"/>
</g>
<g class="st1">
	<path class="st3" d="M-169,608.5c-0.1-0.1-0.3-0.2-0.4-0.4c-0.1-0.2-0.2-0.4-0.2-0.5c0-0.1,0-0.2,0.1-0.2c4.1-2.8,6.2-4.2,6.3-4.2
		h0.1c0.2,0,0.3,0.2,0.4,0.7c-0.2,0.8-0.4,1.9-0.4,3.4v14.2c0,1.4,0.1,2.5,0.3,3.2c0,0.2,0.4,0.3,1.1,0.5c0.7,0.2,1.1,0.2,1.4,0.2
		c0.1,0,0.1,0.2,0.1,0.7c0,0.2,0,0.3,0,0.4c-2.4-0.1-3.9-0.2-4.4-0.2c-0.4,0-1.8,0.1-4.2,0.2c-0.1-0.1-0.1-0.3-0.1-0.6
		c0-0.3,0-0.5,0.1-0.5c0.3,0,0.8-0.1,1.5-0.2c0.7-0.2,1-0.3,1.1-0.5c0.1-0.6,0.2-1.3,0.2-2.1v-13c0-0.7,0-1.2-0.1-1.6
		c0-0.4-0.1-0.6-0.2-0.7c-0.1-0.1-0.2-0.1-0.3-0.1c-0.1,0-0.4,0.1-0.6,0.2c-0.3,0.1-0.6,0.3-1,0.5S-168.9,608.4-169,608.5z"/>
	<path class="st3" d="M-144,603.2c1.6,0,2.9,0.6,3.8,1.8c0.9,1.2,1.4,2.6,1.4,4.1c0,0.9-0.2,1.8-0.5,2.8c-0.3,1-0.8,1.9-1.4,2.9
		c-0.6,1-1.2,1.8-1.7,2.6c-0.5,0.7-1.2,1.6-2.1,2.5c-0.9,1-1.5,1.6-1.9,2c-0.3,0.4-0.9,0.9-1.7,1.7c-0.1,0.1,0,0.2,0.1,0.3h7
		c0.7,0,1.2-0.2,1.5-0.6c0.3-0.4,0.6-1.1,0.9-2.2c0.1-0.3,0.3-0.4,0.5-0.4c0.3,0,0.5,0,0.7,0.1c-0.6,2.9-0.9,4.6-1,5.1
		c0,0.4-0.3,0.6-0.7,0.6h-11.9c-0.1,0-0.2-0.1-0.3-0.4c-0.1-0.3-0.1-0.5-0.1-0.7c2.6-2.6,4.9-5.4,6.8-8.3c1.9-2.9,2.8-5.3,2.8-7.2
		c0-1.3-0.3-2.3-1-3c-0.7-0.7-1.5-1.1-2.6-1.1c-2,0-3.6,1-4.8,3c-0.1,0-0.3-0.1-0.5-0.2c-0.2-0.2-0.2-0.3-0.2-0.3
		c0.1-0.3,0.3-0.7,0.6-1.2c0.3-0.5,0.8-1,1.3-1.6c0.5-0.6,1.3-1.1,2.2-1.5C-146,603.4-145,603.2-144,603.2z"/>
	<path class="st3" d="M-123.7,603.2c1,0,2,0.4,3,1.3c1,0.9,1.4,2,1.4,3.3c0,1.1-0.3,2-0.8,2.7c-0.5,0.7-1.3,1.5-2.2,2.2
		c1.3,0.5,2.4,1.2,3.5,2.3c1,1.1,1.6,2.4,1.6,4c0,2.3-0.8,4.1-2.4,5.5c-1.6,1.4-3.6,2.1-6,2.1c-2,0-3.6-0.4-4.7-1.1
		c-0.2-0.2-0.4-0.5-0.4-1c0-1.1,0.4-1.7,1.3-1.7c0.2,0,0.4,0.1,0.7,0.3c0.2,0.2,0.5,0.4,0.8,0.7c0.3,0.3,0.5,0.5,0.7,0.7
		c0.7,0.5,1.6,0.8,2.7,0.8c1.1,0,2-0.4,2.9-1.2c0.9-0.8,1.3-2.2,1.3-4c0-1.4-0.5-2.6-1.4-3.6c-0.9-1-2-1.5-3.2-1.5
		c-0.9,0-1.7,0.1-2.3,0.3c-0.2-0.2-0.3-0.5-0.3-0.9c0-0.2,0-0.3,0.1-0.4c1.7-0.3,3-0.9,4-1.7c1-0.9,1.5-2,1.5-3.5
		c0-0.8-0.3-1.5-1-2.2c-0.6-0.6-1.4-1-2.2-1c-0.5,0-1,0.1-1.5,0.3c-0.4,0.2-0.8,0.4-1,0.6c-0.2,0.2-0.5,0.4-0.7,0.6
		c-0.2,0.2-0.3,0.4-0.4,0.4c-0.1,0-0.2-0.1-0.3-0.3c-0.1-0.2-0.1-0.4-0.1-0.6c0.7-1,1.4-1.7,2.2-2.2
		C-126.1,603.5-125,603.2-123.7,603.2z"/>
	<path class="st3" d="M-99.3,603.1c0.3,0,0.5,0.1,0.5,0.4V618h2.2c0.4,0,0.6,0.6,0.6,1.7c0,0.1-0.1,0.3-0.2,0.4h-2.6v6.3
		c-0.1,0.1-0.6,0.2-1.5,0.2c-0.9,0-1.3-0.1-1.3-0.3v-6.2h-9.1c-0.2-0.2-0.3-0.6-0.3-1.1l10.9-15.5
		C-99.9,603.2-99.6,603.1-99.3,603.1z M-101.6,618v-9.6c0-0.2-0.1-0.3-0.2-0.3c0,0,0,0,0,0.1l-6.6,9.4c0,0,0,0.1,0,0.1
		c0,0.2,0.1,0.3,0.3,0.3H-101.6z"/>
	<path class="st3" d="M-86.8,603.9c4.7-0.1,7.6-0.3,8.5-0.5c0.1,0.2,0.2,0.4,0.2,0.8c0,0.6-0.1,1.3-0.2,2c-0.6,0.2-2,0.3-4.1,0.4
		l-3.1,0.1c-0.1,0-0.2,0.1-0.3,0.3c-0.3,1.3-0.6,3.3-1,5.8c0.8-0.3,1.9-0.5,3.4-0.5c1.9,0,3.6,0.7,5,2c1.4,1.3,2.1,2.9,2.1,4.7
		c0,2.2-0.8,4-2.3,5.5c-1.6,1.4-3.5,2.1-5.9,2.1c-2.1,0-3.8-0.4-4.8-1.1c-0.2-0.2-0.4-0.5-0.4-1c0-1.1,0.4-1.7,1.3-1.7
		c0.2,0,0.4,0.1,0.7,0.3c0.2,0.2,0.5,0.4,0.8,0.7c0.3,0.3,0.5,0.5,0.7,0.7c0.7,0.5,1.7,0.8,2.9,0.8c1,0,1.9-0.4,2.7-1.3
		c0.8-0.9,1.2-2.2,1.2-4c0-0.6-0.1-1.2-0.3-1.8c-0.2-0.6-0.4-1.1-0.8-1.6c-0.4-0.5-0.9-1-1.6-1.3c-0.7-0.3-1.6-0.5-2.6-0.5
		c-1.3,0-2.3,0.1-3.1,0.4c-0.2-0.1-0.4-0.3-0.7-0.5L-86.8,603.9z"/>
	<path class="st3" d="M-62.8,626.6c-2,0-3.6-0.8-5-2.3c-1.3-1.6-2-3.4-2-5.4c0-1.9,0.4-3.7,1.1-5.4c0.7-1.7,1.8-3.3,3-4.6
		c1.3-1.3,2.6-2.5,4.1-3.4c1.5-1,3-1.8,4.6-2.4c0.1,0,0.3,0.1,0.5,0.4c0.2,0.3,0.3,0.5,0.3,0.6c-2.4,1.1-4.5,2.3-6.2,3.8
		c-1.7,1.5-2.9,3.5-3.5,5.8c0,0.2,0,0.4,0,0.4c0,0,0.1,0,0.1-0.1c0.3-0.3,0.9-0.6,1.8-0.9c0.9-0.3,1.7-0.5,2.4-0.5
		c1.7,0,3.1,0.7,4.2,2.1c1.1,1.4,1.7,2.9,1.7,4.6c0,2-0.7,3.7-2.2,5.1C-59.1,625.9-60.8,626.6-62.8,626.6z M-66.6,618.8
		c0,1.7,0.4,3.2,1.2,4.5c0.8,1.3,1.8,1.9,3,1.9c1.1,0,2-0.5,2.8-1.4c0.8-0.9,1.2-2.2,1.2-3.7c0-1.6-0.4-3-1.2-4
		c-0.8-1.1-1.9-1.6-3.5-1.6c-0.7,0-1.3,0.2-1.9,0.5c-0.6,0.3-1,0.7-1.2,1.1C-66.4,616.9-66.6,617.8-66.6,618.8z"/>
	<path class="st3" d="M-46,606.4c-0.4,0-0.8,0.2-1.1,0.5c-0.3,0.3-0.6,0.7-0.7,1c-0.1,0.3-0.3,0.8-0.5,1.3c0,0.1-0.2,0.2-0.5,0.2
		c-0.3,0-0.6,0-0.7-0.1c0-0.2,0.2-1,0.5-2.4c0.3-1.4,0.5-2.4,0.6-3c0-0.3,0.2-0.4,0.6-0.4h10.4c0.4,0,0.9,0,1.5-0.1
		c0.6,0,0.9-0.1,0.9-0.1c0.2,0,0.3,0.1,0.3,0.3c0,0.1,0,0.3-0.1,0.6c-0.1,0.2-0.2,0.5-0.5,1c-0.2,0.4-0.4,0.7-0.5,0.9l-9.5,20.3
		c-0.1,0.1-0.2,0.1-0.4,0.1c-0.3,0-0.5-0.1-0.8-0.4c-0.3-0.3-0.4-0.5-0.4-0.6l9.6-19.2H-46z"/>
	<path class="st3" d="M-21.4,603.2c1.7,0,3.1,0.5,4.2,1.5c1.1,1,1.7,2.3,1.7,4c0,1.8-1.3,3.6-4,5.3c-0.2,0-0.2,0.1,0,0.2
		c1.3,0.7,2.4,1.6,3.3,2.7c1,1.1,1.4,2.2,1.4,3.5c0,1.8-0.7,3.3-2.1,4.5c-1.4,1.2-3,1.8-4.8,1.8c-2,0-3.6-0.5-4.9-1.6
		c-1.2-1.1-1.9-2.5-1.9-4.3c0-0.3,0-0.6,0.1-0.9c0.1-0.3,0.2-0.6,0.2-0.8c0.1-0.2,0.2-0.5,0.4-0.8c0.2-0.3,0.4-0.5,0.5-0.7
		c0.1-0.2,0.3-0.4,0.6-0.6c0.3-0.2,0.5-0.4,0.6-0.5c0.1-0.1,0.3-0.3,0.7-0.5s0.5-0.4,0.6-0.4c0.1-0.1,0.3-0.2,0.6-0.4l0.5-0.3
		c0.1-0.1,0.1-0.1,0-0.2c-0.9-0.6-1.8-1.3-2.5-2.3c-0.8-1-1.1-2.1-1.1-3.3c0-1.5,0.6-2.9,1.8-4.1C-24.4,603.8-23,603.2-21.4,603.2z
		 M-21.6,625.4c1.2,0,2.2-0.4,2.9-1.1s1-1.7,1-2.9c0-0.7-0.2-1.4-0.6-2.1c-0.4-0.7-0.9-1.3-1.6-1.8c-0.6-0.5-1.1-0.9-1.5-1.2
		c-0.3-0.2-0.7-0.4-1-0.6c-0.1,0-0.2-0.1-0.2-0.1c-0.1,0-0.1,0-0.1,0c-1,0.6-1.7,1.3-2.2,2.1c-0.4,0.8-0.7,1.8-0.7,2.9
		c0,1.4,0.4,2.5,1.2,3.4S-22.7,625.4-21.6,625.4z M-21.6,604.4c-0.9,0-1.6,0.4-2.2,1.2c-0.6,0.8-0.9,1.8-0.9,3
		c0,1.6,1.3,3.2,3.8,4.6c0.1,0,0.2,0.1,0.2,0.1c0.1,0,0.1,0,0.2-0.1c1.6-1.1,2.5-2.6,2.5-4.4c0-1.1-0.3-2.2-1-3.1
		C-19.8,604.9-20.6,604.4-21.6,604.4z"/>
	<path class="st3" d="M-0.9,603c2,0,3.6,0.8,4.9,2.3c1.3,1.6,2,3.4,2,5.4c0,1.9-0.4,3.7-1.2,5.5c-0.8,1.8-1.8,3.4-3,4.7
		c-1.2,1.3-2.5,2.5-3.9,3.5c-1.4,1-2.7,1.7-4.1,2.2c-0.1,0-0.3-0.1-0.5-0.4s-0.3-0.5-0.3-0.6c1.9-0.7,3.6-1.9,5.3-3.6
		c1.7-1.6,2.9-3.7,3.5-6.1c0-0.2,0-0.4,0-0.4c0,0-0.1,0-0.1,0.1c-0.3,0.3-0.8,0.6-1.7,0.9c-0.8,0.3-1.6,0.4-2.2,0.4
		c-1.7,0-3.2-0.7-4.4-2s-1.8-2.9-1.8-4.7c0-2,0.7-3.7,2.2-5.1C-4.5,603.7-2.8,603-0.9,603z M2.9,610.8c0-1.7-0.4-3.2-1.2-4.5
		c-0.8-1.3-1.8-1.9-3.1-1.9c-1,0-1.9,0.5-2.7,1.4c-0.7,1-1.1,2.2-1.1,3.8c0,1.6,0.4,2.9,1.2,3.9c0.8,1,1.9,1.6,3.4,1.6
		c0.7,0,1.3-0.2,1.9-0.5c0.6-0.3,1-0.7,1.2-1.1C2.7,612.8,2.9,611.9,2.9,610.8z"/>
	<path class="st3" d="M11.5,614.9c0-3.3,0.7-6,2.1-8.3s3.3-3.4,5.7-3.4c2.4,0,4.4,1.1,5.8,3.3c1.4,2.2,2.1,5,2.1,8.3
		c0,3.3-0.7,6-2.1,8.3s-3.3,3.4-5.7,3.4c-2.4,0-4.3-1.1-5.7-3.4C12.2,620.9,11.5,618.1,11.5,614.9z M14.7,614.8
		c0,2.9,0.4,5.3,1.3,7.3c0.8,2,1.9,3,3.3,3c1.5,0,2.7-1,3.6-3c0.9-2,1.3-4.5,1.3-7.5c0-2.9-0.4-5.3-1.3-7.2
		c-0.8-1.9-1.9-2.9-3.3-2.9c-1.5,0-2.6,1-3.5,2.9S14.7,611.9,14.7,614.8z"/>
</g>
<g class="st1">
	<path class="st3" d="M85,280.2c7.2,0,12.3,1.7,15.4,5.2c3.1,3.5,4.7,9,4.7,16.7v45.1c0,2.7,0.7,5,2.1,6.8c1.4,1.8,3.4,2.7,5.9,2.7
		c1.8,0,4.1-0.9,6.8-2.7c0.5,0,0.8,0.5,0.8,1.6c0,1.7-0.3,3.1-1,4.1c-5.3,4.6-9.9,6.8-13.7,6.8c-3,0-5.9-1.2-8.6-3.7
		c-2.7-2.5-4.6-5.1-5.7-7.8c-0.1,0-0.6,0.4-1.5,1.3c-0.8,0.8-2,1.8-3.4,2.9c-1.4,1.1-3.1,2.2-5,3.4c-1.9,1.2-4.1,2.1-6.6,2.9
		s-5.1,1.2-7.7,1.2c-6,0-10.9-1.6-14.8-4.8c-3.9-3.2-5.9-8-5.9-14.4c0-2.9,0.7-5.6,2.1-8.1c1.4-2.5,3.1-4.6,5.1-6.2
		c2-1.6,4.6-3.3,8-5c3.4-1.7,6.3-3,8.7-3.8c2.4-0.8,5.6-1.9,9.5-3.2c3.9-1.3,6.6-2.3,8.2-2.9c1.2-0.4,1.8-1.4,1.8-2.9v-14.6
		c0-4.2-1.3-7.4-3.9-9.7c-2.6-2.3-5.7-3.4-9.4-3.4c-3.9,0-7.2,1.3-9.8,4c-2.6,2.7-3.9,6.2-3.9,10.4c0,4.6-2.7,6.8-8,6.8
		c-3.6,0-6.2-1.2-7.6-3.7c0-5.6,4.1-11.2,12.3-16.7C68.2,282.9,76.5,280.2,85,280.2z M66.6,352.7c2.2,1.9,5.1,2.8,8.6,2.8
		s6.9-1.1,10.2-3.2c3.3-2.1,4.9-4.3,4.9-6.5v-20.1c-1,0.5-3.6,1.4-7.6,2.7c-4,1.3-7.2,2.4-9.5,3.4c-2.3,1-4.5,2.6-6.6,4.9
		c-2.1,2.3-3.2,4.9-3.2,7.9C63.3,348.1,64.4,350.9,66.6,352.7z"/>
</g>
<g class="st1">
	<path d="M-246.3,267.6l9.5,25c0.6,1.5,1,2.6,1.4,3.4c0.2,0.5,0.7,0.9,1.5,1.2c0.8,0.3,1.4,0.5,1.8,0.5c0.1,0,0.2,0.3,0.2,0.9
		c0,0.1,0,0.3-0.1,0.5c-3.2-0.2-4.9-0.2-5.2-0.2c0,0-1.9,0.1-5.5,0.2c-0.1-0.1-0.2-0.4-0.2-0.8c0-0.4,0.1-0.6,0.2-0.6
		c0.4,0,0.9-0.1,1.4-0.2c0.6-0.2,0.9-0.4,1-0.6c0.1-0.3,0.1-0.5,0.1-0.8c0-0.4-0.1-0.9-0.2-1.4c-0.1-0.6-0.2-1-0.3-1.3l-0.2-0.5
		l-1.9-5.4c-0.1-0.1-0.2-0.2-0.3-0.2c-1.2-0.1-2.4-0.1-3.6-0.1c-1.6,0-3.7,0.1-6,0.2l-0.2,0.1l-2,5.2c-0.5,1.6-0.8,2.7-0.8,3.3
		c0,0.4,0.1,0.8,0.4,0.9c0.3,0.2,0.7,0.4,1.4,0.5c0.6,0.1,1.1,0.2,1.4,0.2c0.1,0,0.1,0.2,0.2,0.6c0,0.4,0,0.6-0.1,0.8
		c-3.2-0.2-4.8-0.2-4.9-0.2c-0.6,0-1.2,0-1.7,0c-0.5,0-1,0.1-1.6,0.1c-0.6,0-1.1,0.1-1.7,0.1c-0.1-0.1-0.2-0.4-0.2-0.7
		c0-0.4,0.1-0.7,0.2-0.7c0.4,0,0.9-0.1,1.5-0.2c0.6-0.2,1-0.4,1.2-0.7c0.7-0.9,1.4-2.3,2.2-4.5l8.3-21.2c0.1-0.2,0.1-0.4,0.3-0.8
		c0.1-0.3,0.2-0.6,0.3-0.8c0.1-0.2,0.2-0.4,0.3-0.7c0.1-0.3,0.2-0.5,0.3-0.6c0.1-0.1,0.2-0.3,0.4-0.4c0.1-0.2,0.3-0.3,0.5-0.3
		c0.2-0.1,0.4-0.1,0.6-0.1L-246.3,267.6z M-251.8,284.7c1.6,0.1,2.8,0.1,3.4,0.1c1.4,0,2.8,0,4.3-0.1l0.1-0.2l-3.8-10.5l-4.1,10.6
		C-251.9,284.6-251.8,284.7-251.8,284.7z"/>
	<path d="M-220.1,278.2c1.7,0,3,0.4,3.7,1.3s1.1,2.2,1.1,4.1v11c0,0.7,0.2,1.2,0.5,1.7c0.3,0.4,0.8,0.7,1.4,0.7c0.4,0,1-0.2,1.7-0.7
		c0.1,0,0.2,0.1,0.2,0.4c0,0.4-0.1,0.7-0.2,1c-1.3,1.1-2.4,1.7-3.3,1.7c-0.7,0-1.4-0.3-2.1-0.9s-1.1-1.2-1.4-1.9
		c0,0-0.2,0.1-0.4,0.3c-0.2,0.2-0.5,0.4-0.8,0.7c-0.3,0.3-0.8,0.5-1.2,0.8c-0.5,0.3-1,0.5-1.6,0.7c-0.6,0.2-1.2,0.3-1.9,0.3
		c-1.5,0-2.7-0.4-3.6-1.2c-0.9-0.8-1.4-1.9-1.4-3.5c0-0.7,0.2-1.4,0.5-2c0.3-0.6,0.8-1.1,1.2-1.5c0.5-0.4,1.1-0.8,1.9-1.2
		c0.8-0.4,1.5-0.7,2.1-0.9c0.6-0.2,1.4-0.5,2.3-0.8c0.9-0.3,1.6-0.6,2-0.7c0.3-0.1,0.4-0.3,0.4-0.7v-3.6c0-1-0.3-1.8-0.9-2.3
		c-0.6-0.6-1.4-0.8-2.3-0.8c-0.9,0-1.7,0.3-2.4,1c-0.6,0.6-0.9,1.5-0.9,2.5c0,1.1-0.6,1.7-1.9,1.7c-0.9,0-1.5-0.3-1.8-0.9
		c0-1.4,1-2.7,3-4.1C-224.1,278.9-222.1,278.2-220.1,278.2z M-224.5,295.8c0.5,0.5,1.2,0.7,2.1,0.7s1.7-0.3,2.5-0.8
		c0.8-0.5,1.2-1.1,1.2-1.6v-4.9c-0.3,0.1-0.9,0.3-1.8,0.7c-1,0.3-1.7,0.6-2.3,0.8c-0.6,0.2-1.1,0.6-1.6,1.2
		c-0.5,0.6-0.8,1.2-0.8,1.9C-225.3,294.7-225,295.3-224.5,295.8z"/>
	<path d="M-156.5,302.8c0.6,0,1.1,0,1.6-0.1c0.5-0.1,0.9-0.1,1.1-0.2c0.3-0.1,0.5-0.1,0.5-0.1c0.4,0,0.6,0.3,0.6,0.9v0.2
		c-2.1,1.1-4.7,1.7-8,1.7c-1.5,0-3.2-0.4-5-1.2c-1.8-0.8-3.7-1.8-5.6-2.9c-2-1.1-3.6-1.9-4.9-2.3c-1.1-0.3-2.3-0.9-3.5-1.8
		c-1.2-0.8-2.4-1.9-3.6-3.1c-1.2-1.3-2.1-2.8-2.9-4.7c-0.7-1.9-1.1-3.9-1.1-6c0-4.4,1.5-8.2,4.4-11.4c3-3.1,6.5-4.7,10.7-4.7
		c4.2,0,7.7,1.6,10.7,4.7c3,3.1,4.5,6.9,4.5,11.4c0,4-1.2,7.5-3.5,10.3s-4.7,4.5-7.1,5c0.9,0.4,2,1.1,3.5,1.9
		c1.5,0.9,2.8,1.5,3.8,1.8C-159.3,302.7-158,302.8-156.5,302.8z M-172.9,269.2c-3,0-5.4,1.3-7.2,4c-1.8,2.6-2.7,5.7-2.7,9.1
		c0,4,1,7.4,3.1,10.5c2.1,3,4.8,4.6,8.3,4.6c3,0,5.4-1.3,7.2-4c1.8-2.6,2.7-5.7,2.7-9.1c0-4-1-7.4-3.1-10.5
		C-166.6,270.7-169.4,269.2-172.9,269.2z"/>
	<path d="M-142.5,278c1.2,0,2.3,0.1,3.4,0.3c1.1,0.2,1.7,0.3,1.9,0.3c0.3,0,0.6-0.1,1.1-0.2c0.4-0.1,0.7-0.2,0.7-0.2
		c0.1,0,0.3,0,0.6,0.1c0.3,0.1,0.4,0.2,0.4,0.3c0,0-0.1,0.3-0.2,0.9c-0.1,0.5-0.3,1.3-0.4,2.3c-0.1,1-0.2,2.1-0.2,3.2v18.7
		c0,1.5,0.1,2.7,0.4,3.7c0.1,0.2,0.5,0.4,1.2,0.6c0.8,0.2,1.3,0.3,1.6,0.3c0.1,0,0.2,0.2,0.2,0.6c0,0.4,0,0.6,0,0.8
		c-3.2-0.2-4.9-0.2-5.1-0.2c-0.2,0-1.9,0.1-5.2,0.2c-0.1-0.1-0.2-0.4-0.2-0.8c0-0.4,0.1-0.6,0.2-0.6c0.4,0,0.9-0.1,1.7-0.3
		c0.7-0.2,1.1-0.4,1.2-0.6c0.2-0.9,0.3-2,0.3-3.3v-5.9c0-0.2,0-0.3-0.1-0.4c0-0.1-0.1-0.1-0.3-0.1c-1.9,0.9-3.4,1.4-4.6,1.4
		c-2.8,0-5-1-6.9-3c-1.8-2-2.7-4.3-2.7-6.8c0-2.8,1.1-5.4,3.2-7.7C-147.8,279.2-145.3,278-142.5,278z M-143.3,280
		c-1.4,0-2.6,0.5-3.5,1.5c-0.9,1-1.6,2-1.9,3.2s-0.5,2.3-0.5,3.5c0,2.8,0.7,4.9,2.1,6.4c1.4,1.5,3.1,2.2,5.1,2.2
		c0.7,0,1.4-0.2,2.2-0.6s1.1-1.2,1.1-2.2v-11c0-0.9-0.4-1.5-1.2-2.1C-140.7,280.3-141.8,280-143.3,280z"/>
	<path d="M-95.7,267.6c1.1,0,2.2,0.2,3.3,0.5c1.1,0.3,2.2,0.8,3.3,1.4c1.1,0.6,2,1.5,2.7,2.7c0.7,1.2,1,2.5,1,4.1
		c0,1.3-0.5,2.7-1.5,4.2c-1,1.5-2.3,2.6-4.1,3.4c-0.3,0.1-0.4,0.3-0.3,0.5c1.6,3.3,3.4,6.1,5.5,8.3c3,3.3,5.5,5,7.4,5
		c0.1,0.2,0.1,0.4,0.1,0.7c0,0.3,0,0.5-0.1,0.7c-0.3,0.1-0.8,0.1-1.3,0.1c-4.4,0-8.3-2.3-11.5-6.8c-0.5-0.7-1.1-1.5-1.7-2.5
		c-0.6-1-1.1-1.7-1.4-2.1c-0.3-0.4-0.6-0.9-1-1.4c-0.4-0.5-0.7-0.9-1-1.1c-0.3-0.3-0.6-0.5-1-0.6c-0.3-0.1-0.9-0.2-1.8-0.2
		c-0.3,0-0.4,0-0.6,0c-0.1,0-0.3,0.1-0.4,0.2c-0.1,0.1-0.2,0.3-0.2,0.6v7c0,2.1,0.1,3.5,0.4,4.1c0.2,0.4,0.7,0.7,1.7,1
		c1,0.3,1.7,0.4,2.1,0.4c0.1,0,0.2,0.2,0.2,0.7c0,0.3,0,0.5-0.1,0.7c-3.2-0.2-5.2-0.2-6.2-0.2l-5.8,0.2c-0.1-0.1-0.1-0.4-0.1-0.9
		c0-0.4,0-0.6,0.1-0.6c0.4,0,1.1-0.1,1.9-0.3c0.8-0.2,1.3-0.4,1.4-0.7c0.2-0.4,0.3-1.9,0.3-4.5v-17.9c0-1.9-0.1-3.2-0.3-4.1
		c-0.1-0.3-0.6-0.5-1.4-0.7c-0.8-0.2-1.5-0.3-1.9-0.3c-0.1,0-0.2-0.2-0.2-0.6c0-0.4,0.1-0.7,0.2-0.8l5.7,0.1c0.9,0,2.1,0,3.4-0.1
		C-97.8,267.6-96.7,267.6-95.7,267.6z M-96.5,269.6c-1.4,0-2.5,0.1-3.3,0.3c-0.1,0-0.2,0.2-0.3,0.4c-0.1,0.2-0.1,0.7-0.2,1.4
		c0,0.7-0.1,1.9-0.1,3.4v5.7c0,0.9,1.4,1.4,4.1,1.4h1.2c1.1,0,2.3-0.6,3.4-1.7c1.2-1.1,1.8-2.6,1.8-4.4
		C-89.9,271.8-92.1,269.6-96.5,269.6z"/>
	<path d="M-64.9,278.1c1.9,0,3.1,0.5,3.7,1.4c0,1.1-0.2,1.9-0.5,2.4c-0.3,0.5-0.8,0.8-1.3,0.8c-0.6,0-1.1-0.3-1.6-0.8
		c-0.5-0.5-1.1-0.8-1.9-0.8c-1,0-1.8,0.5-2.6,1.4c-0.7,0.9-1.1,1.9-1.1,2.9v7.1c0,1.8,0.1,3.2,0.4,4.2c0.1,0.2,0.5,0.4,1.3,0.6
		c0.8,0.2,1.3,0.3,1.6,0.3c0.1,0,0.2,0.2,0.2,0.6c0,0.4,0,0.6,0,0.8c-3.2-0.2-4.9-0.2-5.1-0.2c-0.2,0-1.9,0.1-5.2,0.2
		c-0.1-0.1-0.2-0.4-0.2-0.8c0-0.4,0.1-0.6,0.2-0.6c0.4,0,0.9-0.1,1.7-0.3c0.7-0.2,1.1-0.4,1.2-0.6c0.2-0.9,0.3-2,0.3-3.3v-9
		c0-1.2-0.2-2.1-0.7-2.6c-0.3-0.4-0.7-0.6-1.2-0.8c-0.5-0.1-0.8-0.2-1.1-0.2c-0.3,0-0.5,0-0.5-0.1c0-0.8,0.1-1.2,0.3-1.2
		c3.4-0.5,5.5-0.9,6.5-1.2c0,0,0.1,0,0.2,0c0.1,0,0.2,0.1,0.2,0.4c0,0.3,0,0.5,0,0.6l-0.3,2.4c0.6-0.9,1.4-1.7,2.3-2.4
		C-66.9,278.5-65.9,278.1-64.9,278.1z"/>
</g>
<g class="st1">
	<path d="M-243.5,363.8c0.7,0,1.4-0.1,2.1-0.5c0.7-0.3,1.1-0.7,1.1-1.2c0-0.1-0.4-1.1-1.2-3.2l-1.4-3.5c-0.1-0.1-0.2-0.2-0.3-0.2
		c-0.6,0-2.1,0-4.6,0c-2.1,0-3.7,0-4.8,0c-0.1,0-0.2,0.1-0.3,0.2l-1.6,3.6c-0.6,1.4-0.9,2.4-0.9,2.9c0,0.5,0.3,0.9,0.9,1.2
		c0.6,0.3,1.1,0.5,1.5,0.5c0.4,0,0.8,0.1,1.1,0.1c0.1,0,0.1,0.3,0.1,0.8c0,0.5,0,0.8-0.1,1c-0.4,0-1.2-0.1-2.5-0.2
		c-1.2-0.1-2.3-0.2-3.1-0.2c-0.8,0-1.7,0.1-2.8,0.2c-1.1,0.1-2,0.2-2.6,0.2c-0.1-0.1-0.2-0.4-0.2-0.7c0-0.7,0-1,0.1-1
		c0.4,0,1-0.2,1.9-0.5c0.9-0.3,1.4-0.7,1.7-1c0.3-0.4,0.5-0.8,0.8-1.4c0.3-0.6,0.5-1,0.6-1.4l0.2-0.6l10.5-24.1
		c0.3-0.8,0.9-1.2,1.8-1.2c0.5,0,0.9,0.2,1.1,0.6l9.7,24c0.6,1.5,1.1,2.8,1.6,3.9c0.2,0.5,0.7,0.9,1.6,1.2s1.5,0.4,1.9,0.4
		c0.1,0,0.2,0.3,0.2,0.8c0,0.5,0,0.9-0.1,0.9c-0.1,0-1.1-0.1-2.9-0.2c-1.8-0.1-3.1-0.2-4-0.2c-0.2,0-2.6,0.1-7.2,0.4
		c-0.1-0.1-0.2-0.5-0.2-1C-243.7,364-243.7,363.8-243.5,363.8z M-251.3,352.2c0.9,0.1,2.1,0.1,3.5,0.1c1.3,0,2.4,0,3.4-0.1l0.1-0.2
		l-3.4-8.5l-3.7,8.5C-251.4,352.2-251.4,352.2-251.3,352.2z"/>
	<path d="M-217.5,344c2.2,0,3.9,0.6,5.1,1.8c1.2,1.2,1.8,3.4,1.8,6.6v7.7c0,1.1,0.4,1.6,1.1,1.6c0.5,0,1.1-0.2,1.6-0.6
		c0.2,0.1,0.3,0.4,0.3,0.7c0,0.8-0.1,1.4-0.3,1.8c-0.4,0.4-1.2,0.8-2.2,1.3s-1.9,0.7-2.8,0.7c-0.8,0-1.5-0.2-2.2-0.7
		c-0.7-0.5-1.2-1-1.4-1.6c0,0-0.2,0.1-0.4,0.3c-0.2,0.2-0.5,0.4-0.9,0.6c-0.3,0.2-0.8,0.4-1.2,0.7c-0.5,0.2-1,0.4-1.6,0.6
		c-0.6,0.2-1.3,0.2-1.9,0.2c-1.7,0-3.1-0.5-4.1-1.4c-1-1-1.5-2.2-1.5-3.6c0-0.9,0.2-1.6,0.6-2.3c0.4-0.7,0.9-1.3,1.4-1.8
		c0.5-0.5,1.2-0.9,2.1-1.3c0.9-0.4,1.6-0.7,2.3-0.9c0.6-0.2,1.4-0.4,2.4-0.7c1-0.3,1.7-0.5,2.1-0.6c0.3-0.1,0.4-0.3,0.4-0.7v-1.7
		c0-2.6-0.8-3.9-2.4-3.9c-1.8,0-2.8,1.1-2.8,3.2c0,0.7-0.3,1.2-0.9,1.5c-0.6,0.3-1.2,0.5-1.9,0.5c-1.5,0-2.5-0.5-3-1.4
		c0-1.6,1.1-3.1,3.2-4.4C-222.4,344.7-220,344-217.5,344z M-219.4,362.3c0.8,0,1.5-0.2,1.9-0.6c0.5-0.4,0.7-0.9,0.7-1.4v-4.8
		c-0.1,0-0.4,0.1-0.9,0.3c-0.6,0.2-0.9,0.3-1.1,0.4c-0.2,0.1-0.5,0.2-0.9,0.4c-0.4,0.2-0.8,0.3-0.9,0.5c-0.2,0.1-0.4,0.3-0.6,0.5
		c-0.3,0.2-0.4,0.5-0.5,0.7s-0.1,0.5-0.1,0.9c0,1.1,0.2,2,0.7,2.5C-220.7,362-220.1,362.3-219.4,362.3z"/>
	<path d="M-155.2,368.8c0.6,0,1.1,0,1.7-0.1c0.5-0.1,1-0.2,1.3-0.2c0.3-0.1,0.6-0.1,0.6-0.1c0.4,0,0.6,0.3,0.6,0.9v0.2
		c-1.4,0.7-2.9,1.3-4.6,1.8c-1.7,0.5-3.3,0.7-4.7,0.7c-1.5,0-3.1-0.4-4.6-1.3c-1.5-0.9-3.2-1.9-4.9-3.1c-1.7-1.2-3.2-2-4.5-2.4
		c-1.1-0.3-2.3-0.9-3.5-1.8c-1.2-0.8-2.4-1.9-3.6-3.1c-1.2-1.3-2.1-2.8-2.9-4.7c-0.7-1.9-1.1-3.9-1.1-6c0-4.4,1.5-8.2,4.4-11.4
		c3-3.1,6.5-4.7,10.7-4.7c4.2,0,7.7,1.6,10.7,4.7c3,3.1,4.5,6.9,4.5,11.4c0,4-1.2,7.5-3.5,10.3c-2.3,2.8-4.7,4.5-7.1,5
		c0.8,0.4,1.8,0.9,2.8,1.5c1.1,0.6,1.8,1,2.4,1.3c0.5,0.3,1.2,0.5,2.2,0.7C-157.4,368.7-156.3,368.8-155.2,368.8z M-171,336.7
		c-2.5,0-4.3,1.1-5.4,3.4c-1.1,2.2-1.7,5.1-1.7,8.6c0,1.6,0.1,3.2,0.5,4.7c0.3,1.6,0.8,3.1,1.4,4.6c0.6,1.5,1.5,2.7,2.7,3.6
		c1.2,0.9,2.5,1.4,4.1,1.4c2.4,0,4.1-1.2,5.3-3.5c1.2-2.3,1.8-5.2,1.8-8.8c0-1.7-0.1-3.4-0.4-4.9c-0.3-1.5-0.7-3-1.3-4.4
		c-0.6-1.4-1.5-2.6-2.7-3.4C-167.9,337.2-169.3,336.7-171,336.7z"/>
	<path d="M-137.2,344.1c1.4,0,2.5,0.1,3.5,0.4c1,0.3,1.8,0.4,2.6,0.4c0.3,0,0.7-0.2,1.4-0.5c0.6-0.3,1-0.5,1.1-0.5
		c0.1,0,0.4,0.2,0.9,0.5c0.5,0.3,0.7,0.5,0.7,0.7c0,0,0,0.1,0,0.3c0,0.2-0.1,0.4-0.1,0.7c0,0.3-0.1,0.7-0.1,1.1
		c0,0.4-0.1,0.9-0.1,1.5c0,0.6,0,1.2,0,1.9v17.6c0,2,0.1,3.5,0.3,4.3c0.1,0.2,0.5,0.5,1.3,0.8c0.8,0.3,1.4,0.4,1.7,0.4
		c0.1,0,0.1,0.3,0.2,0.8c0,0.5,0,0.8-0.1,1c-0.3,0-1.3-0.1-3-0.2c-1.6-0.1-2.8-0.2-3.5-0.2c-0.8,0-1.9,0.1-3.6,0.2
		c-1.6,0.1-2.6,0.2-2.9,0.2c-0.1-0.1-0.2-0.5-0.2-1c0-0.5,0.1-0.8,0.2-0.8c0.3,0,0.9-0.1,1.8-0.4c0.8-0.3,1.3-0.5,1.3-0.8
		c0.2-0.9,0.3-2.2,0.3-3.6V365c0-0.4-0.1-0.7-0.2-0.7c0,0-0.1,0-0.1,0c-1.3,0.9-2.7,1.4-4.3,1.4c-2.6,0-5-1-7.1-3
		c-2.1-2-3.2-4.5-3.2-7.5c0-3.2,1.1-5.9,3.3-8C-143,345.2-140.3,344.1-137.2,344.1z M-137.5,346.7c-2.8,0-4.1,2.4-4.1,7.1
		c0,1.2,0,2.2,0.1,3.1c0.1,0.9,0.3,1.8,0.5,2.8c0.3,1,0.7,1.7,1.3,2.3c0.6,0.5,1.4,0.8,2.3,0.8c0.9,0,1.8-0.3,2.5-0.8
		c0.7-0.6,1.1-1.2,1.1-2.1V351C-133.6,348.1-134.9,346.7-137.5,346.7z"/>
	<path d="M-90.5,334c1.1,0,2.2,0.1,3.4,0.4c1.2,0.3,2.3,0.7,3.5,1.3c1.2,0.6,2.1,1.4,2.9,2.5s1.1,2.4,1.1,3.8c0,2.1-0.6,4-1.8,5.5
		c-1.2,1.6-2.6,2.6-4,3.1c-0.3,0.1-0.3,0.3-0.1,0.5c0.7,1.2,1.3,2.1,1.8,2.9c0.5,0.8,1.1,1.6,1.8,2.6c0.7,0.9,1.2,1.7,1.6,2.3
		c0.8,1.2,1.8,2.3,3.1,3.3c1.3,1,2.5,1.5,3.7,1.5c0.1,0.2,0.2,0.4,0.2,0.9c0,0.3-0.1,0.7-0.2,0.9c-0.4,0.1-1,0.1-1.7,0.1
		c-1.5,0-3-0.2-4.2-0.5c-1.3-0.3-2.3-0.6-3.1-1c-0.8-0.4-1.5-0.9-2.3-1.7c-0.8-0.8-1.4-1.4-1.7-1.9c-0.4-0.5-0.9-1.2-1.5-2.2
		c-0.3-0.5-0.7-1.2-1.2-1.9c-0.5-0.8-0.9-1.4-1.2-1.9c-0.3-0.5-0.6-0.9-1-1.4c-0.3-0.5-0.6-0.9-0.9-1.1c-0.2-0.3-0.4-0.4-0.6-0.5
		c-0.1,0-0.3,0-0.5,0c-0.3,0-0.4,0.3-0.4,0.8v6.5c0,1.6,0.1,2.9,0.3,3.9c0.1,0.4,0.6,0.7,1.6,0.9c0.9,0.2,1.7,0.3,2.1,0.3
		c0.1,0,0.2,0.3,0.2,0.9c0,0.4,0,0.7-0.1,0.9c-3.8-0.2-6.2-0.3-7.3-0.3l-6.9,0.3c-0.1-0.1-0.2-0.4-0.2-0.8c0-0.6,0.1-0.9,0.2-0.9
		c0.4,0,1-0.1,1.8-0.3c0.8-0.2,1.3-0.5,1.4-0.7c0.2-0.7,0.3-2.1,0.3-4.2v-17.9c0-1.7-0.1-3-0.3-3.7c-0.1-0.3-0.6-0.5-1.4-0.9
		c-0.8-0.3-1.4-0.5-1.8-0.5c-0.1,0-0.2-0.3-0.2-0.9c0-0.5,0-0.8,0.1-0.9c2.9,0.2,5.2,0.2,7,0.2c0.9,0,1.9,0,3.2,0
		C-92.6,334-91.5,334-90.5,334z M-91.2,336.6c-1.1,0-1.8,0.1-2.2,0.4c-0.3,0.3-0.5,1.8-0.6,4.6v5.1c0,0.5,0.1,0.9,0.2,1.1
		c0.1,0.3,0.3,0.5,0.5,0.6c0.2,0.1,0.4,0.2,0.6,0.2c0.2,0,0.4,0,0.7,0h1.3c1.2,0,2.2-0.5,2.9-1.6c0.7-1.1,1-2.5,1-4.3
		C-86.8,338.7-88.3,336.6-91.2,336.6z"/>
	<path d="M-55.2,344.1c1.4,0,2.8,0.6,4.1,1.8c0,1.6-0.2,2.9-0.6,3.7c-0.4,0.8-1.1,1.2-2.2,1.2c-0.6,0-1.4-0.4-2.2-1.1
		c-0.8-0.7-1.5-1.1-2.2-1.1c-0.9,0-1.6,0.5-2,1.6c-0.4,1.1-0.6,2.2-0.6,3.4v4.8c0,2,0.1,3.4,0.3,4.3c0.1,0.2,0.5,0.5,1.3,0.8
		c0.8,0.3,1.3,0.4,1.5,0.4c0.1,0,0.1,0.3,0.2,0.8c0,0.5,0,0.8-0.1,1c-0.4,0-1.3-0.1-2.9-0.2c-1.5-0.1-2.7-0.2-3.4-0.2
		c-0.8,0-1.9,0.1-3.6,0.2c-1.6,0.1-2.6,0.2-2.9,0.2c-0.1-0.1-0.2-0.5-0.2-1c0-0.5,0.1-0.8,0.2-0.8c0.3,0,0.9-0.1,1.8-0.4
		c0.8-0.3,1.3-0.5,1.3-0.8c0.2-0.9,0.3-2.1,0.3-3.6v-6.5c0-1.8-0.3-3-0.9-3.6c-0.2-0.3-0.6-0.5-1-0.6c-0.4-0.2-0.8-0.3-1.1-0.3
		c-0.3-0.1-0.5-0.1-0.5-0.1c0-1.1,0.1-1.7,0.2-1.7c0.4,0,1-0.1,1.9-0.3c0.9-0.2,2-0.4,3.5-0.7c1.4-0.3,2.5-0.6,3.3-0.7
		c0.3-0.1,0.5-0.1,0.5-0.1c0.2,0,0.3,0.1,0.5,0.3c0.2,0.2,0.2,0.4,0.2,0.5c-0.1,0.4-0.1,0.8-0.1,1.2c0,0.4-0.1,0.7-0.1,0.9
		C-59,345.2-57.2,344.1-55.2,344.1z"/>
</g>
</svg>
